<?xml version="1.0" encoding="UTF-8"?>
<svg width="36px" height="36px" viewBox="0 0 36 36" version="1.1" xmlns="http://www.w3.org/2000/svg" xmlns:xlink="http://www.w3.org/1999/xlink">
    <!-- Generator: Sketch 63.1 (92452) - https://sketch.com -->
    <title>Group 65</title>
    <desc>Created with Sketch.</desc>
    <g id="NEW" stroke="none" stroke-width="1" fill="none" fill-rule="evenodd">
        <g id="Group-65">
            <circle id="Oval" fill="#FFFFFF" cx="18" cy="18" r="17"></circle>
            <path d="M17.9992381,0 C8.05942857,0 0,8.05942857 0,17.9992381 C0,27.9390476 8.05942857,36 17.9992381,36 C27.9390476,36 36,27.9390476 36,17.9992381 C36,8.05942857 27.9390476,0 17.9992381,0 Z M21.7462857,27.896381 C20.8198095,28.2620952 20.0822857,28.5394286 19.5291429,28.7314286 C18.9775238,28.9234286 18.336,29.0194286 17.6060952,29.0194286 C16.4845714,29.0194286 15.6114286,28.7451429 14.9897143,28.1980952 C14.368,27.6510476 14.0586667,26.9577143 14.0586667,26.1150476 C14.0586667,25.7874286 14.0815238,25.4521905 14.1272381,25.1108571 C14.1744762,24.7695238 14.2491429,24.3855238 14.3512381,23.9542857 L15.5108571,19.8582857 C15.6129524,19.4651429 15.7013333,19.0918095 15.7714286,18.744381 C15.8415238,18.3939048 15.8750476,18.072381 15.8750476,17.7798095 C15.8750476,17.2586667 15.7668571,16.8929524 15.552,16.6872381 C15.3340952,16.4815238 14.9241905,16.3809524 14.3131429,16.3809524 C14.0144762,16.3809524 13.7066667,16.4251429 13.3912381,16.5180952 C13.0788571,16.6140952 12.807619,16.7009524 12.5851429,16.7862857 L12.8914286,15.5245714 C13.6502857,15.2152381 14.3771429,14.9500952 15.0704762,14.7306667 C15.7638095,14.5081905 16.4190476,14.3984762 17.0361905,14.3984762 C18.1500952,14.3984762 19.0095238,14.6697143 19.6144762,15.2060952 C20.216381,15.744 20.519619,16.4434286 20.519619,17.3028571 C20.519619,17.4811429 20.4982857,17.7950476 20.4571429,18.2430476 C20.416,18.6925714 20.3382857,19.1024762 20.2255238,19.4788571 L19.072,23.5626667 C18.9775238,23.8902857 18.8937143,24.2651429 18.8175238,24.6841905 C18.7428571,25.1032381 18.7062857,25.4232381 18.7062857,25.6380952 C18.7062857,26.1805714 18.8266667,26.5508571 19.0704762,26.7474286 C19.3112381,26.944 19.7333333,27.0430476 20.3306667,27.0430476 C20.6125714,27.0430476 20.928,26.9927619 21.2845714,26.8952381 C21.6380952,26.7977143 21.8940952,26.7108571 22.055619,26.6361905 L21.7462857,27.896381 Z M21.5420952,11.320381 C21.0041905,11.8201905 20.3565714,12.0700952 19.5992381,12.0700952 C18.8434286,12.0700952 18.1912381,11.8201905 17.6487619,11.320381 C17.1093333,10.8205714 16.8365714,10.2125714 16.8365714,9.50247619 C16.8365714,8.79390476 17.1108571,8.18438095 17.6487619,7.68 C18.1912381,7.17409524 18.8434286,6.92266667 19.5992381,6.92266667 C20.3565714,6.92266667 21.0057143,7.17409524 21.5420952,7.68 C22.08,8.18438095 22.3497143,8.79390476 22.3497143,9.50247619 C22.3497143,10.2140952 22.08,10.8205714 21.5420952,11.320381 Z" id="Shape" fill="#194D9B" fill-rule="nonzero"></path>
        </g>
    </g>
</svg>