<?xml version="1.0" encoding="UTF-8"?>
<svg width="43px" height="43px" viewBox="0 0 43 43" version="1.1" xmlns="http://www.w3.org/2000/svg">
    <!-- Generator: Sketch 57.1 (83088) - https://sketch.com -->
    <title>Group 16</title>
    <desc>Created with Sketch.</desc>
    <defs>
        <linearGradient x1="50%" y1="0%" x2="50%" y2="100%" id="linearGradient-1">
            <stop stop-color="@startColor" offset="0%"></stop>
            <stop stop-color="@endColor" offset="100%"></stop>
        </linearGradient>
    </defs>
    <g id="Components-Symbols" stroke="none" stroke-width="1" fill="none" fill-rule="evenodd">
        <g id="nav2/home" transform="translate(-166.000000, -3.000000)">
            <g id="Group-16" transform="translate(170.000000, 7.000000)">
                <rect id="Rectangle" stroke-opacity="0.2" stroke="@endColor" stroke-width="4"
                      fill="url(#linearGradient-1)" fill-rule="nonzero" x="-2" y="-2" width="39" height="39"
                      rx="19.5"></rect>
                <path d="M17.5714286,9 C18.1631622,9 18.6428571,9.47969491 18.6428571,10.0714286 L18.642,16.5 L25.0714286,16.5 C25.6631622,16.5 26.1428571,16.9796949 26.1428571,17.5714286 C26.1428571,18.1631622 25.6631622,18.6428571 25.0714286,18.6428571 L18.642,18.642 L18.6428571,25.0714286 C18.6428571,25.6631622 18.1631622,26.1428571 17.5714286,26.1428571 C16.9796949,26.1428571 16.5,25.6631622 16.5,25.0714286 L16.5,18.642 L10.0714286,18.6428571 C9.47969491,18.6428571 9,18.1631622 9,17.5714286 C9,16.9796949 9.47969491,16.5 10.0714286,16.5 L16.5,16.5 L16.5,10.0714286 C16.5,9.47969491 16.9796949,9 17.5714286,9 Z"
                      id="Combined-Shape" fill="#FFFFFF"></path>
            </g>
        </g>
    </g>
</svg>
