<?xml version="1.0" encoding="UTF-8"?>
<svg width="36px" height="36px" viewBox="0 0 36 36" version="1.1" xmlns="http://www.w3.org/2000/svg" xmlns:xlink="http://www.w3.org/1999/xlink">
    <!-- Generator: Sketch 63.1 (92452) - https://sketch.com -->
    <title>Group 52</title>
    <desc>Created with Sketch.</desc>
    <g id="NEW" stroke="none" stroke-width="1" fill="none" fill-rule="evenodd">
        <g id="Group-52">
            <rect id="Rectangle" fill="@startColor" x="0" y="0" width="36" height="36" rx="18"></rect>
            <g id="newsletter" transform="translate(8.000000, 7.000000)" fill="@endColor" fill-rule="nonzero">
                <path d="M0.6453125,0.023671875 C0.300664062,0.023671875 0.023671875,0.305507813 0.023671875,0.65015625 L0.023671875,17.0318359 C0.023671875,18.6776172 1.35421875,19.9937109 2.98554687,19.9937109 L17.0269922,19.9937109 C18.7489063,19.9937109 19.99375,18.5949609 19.99375,17.0318359 C19.99375,17.0318359 19.99375,12.7673828 19.99375,10.6351563 C19.99375,10.2885938 19.7138281,10.0086719 19.3672656,10.0086719 L15.3132422,10.0086719 L15.3132422,0.650195313 C15.3132422,0.321132813 15.0486719,0.023671875 14.6721094,0.023671875 L0.6453125,0.023671875 L0.6453125,0.023671875 Z M3.76929687,4.39089844 L11.5676563,4.39089844 C12.4005469,4.39089844 12.4005469,5.64023437 11.5676563,5.64023437 L3.76929687,5.64023437 C2.93640625,5.64027344 2.93640625,4.39089844 3.76929687,4.39089844 L3.76929687,4.39089844 Z M3.76929687,7.51488281 L11.5676563,7.51488281 C12.4025781,7.51488281 12.4025781,8.76300781 11.5676563,8.76300781 L3.76929687,8.76300781 C2.94027344,8.76300781 2.94027344,7.51488281 3.76929687,7.51488281 Z M3.76929687,10.6327734 L11.5676563,10.6327734 C12.4025781,10.6327734 12.4025781,11.8821094 11.5676563,11.8821094 L3.76929687,11.8821094 C2.94027344,11.8821094 2.94027344,10.6327734 3.76929687,10.6327734 Z M15.3132422,11.2568359 L18.7455859,11.2568359 L18.7455859,17.031875 C18.7455859,17.9929687 17.9714063,18.745625 17.0269531,18.745625 C16.0825391,18.745625 15.3132031,17.9929687 15.3132031,17.031875 L15.3132031,11.2568359 L15.3132422,11.2568359 Z M3.76929688,13.751875 L11.5676563,13.751875 C12.4025781,13.751875 12.4025781,15 11.5676563,15 L3.76929688,15 C2.94027344,15 2.94027344,13.751875 3.76929688,13.751875 Z" id="path836"></path>
            </g>
        </g>
    </g>
</svg>