<svg xmlns="http://www.w3.org/2000/svg" width="49.228" height="34.936" viewBox="0 0 49.228 34.936">
    <path fill="currentColor" class="a"
          d="M454.039,1091.874h-.794v-6.352a3.18,3.18,0,0,0-3.176-3.176v-13.5a3.18,3.18,0,0,0-3.176-3.176H413.545a3.18,3.18,0,0,0-3.176,3.176v13.5a3.181,3.181,0,0,0-3.176,3.176v6.352H406.4a.794.794,0,0,0-.794.794v3.176a.794.794,0,0,0,.794.794h.794v3.176a.794.794,0,0,0,.794.794h2.382a.793.793,0,0,0,.778-.638l.667-3.332h36.81l.667,3.332a.793.793,0,0,0,.778.638h2.382a.794.794,0,0,0,.794-.794v-3.176h.794a.794.794,0,0,0,.794-.794v-3.176A.794.794,0,0,0,454.039,1091.874Zm-42.082-23.026a1.59,1.59,0,0,1,1.588-1.588h33.348a1.59,1.59,0,0,1,1.588,1.588v13.5h-1.588v-3.176a3.18,3.18,0,0,0-3.176-3.176h-9.528a3.18,3.18,0,0,0-3.176,3.176v3.176h-1.588v-3.176a3.18,3.18,0,0,0-3.176-3.176h-9.528a3.18,3.18,0,0,0-3.176,3.176v3.176h-1.588ZM445.3,1079.17v3.176H432.6v-3.176a1.59,1.59,0,0,1,1.588-1.588h9.528A1.59,1.59,0,0,1,445.3,1079.17Zm-17.468,0v3.176h-12.7v-3.176a1.59,1.59,0,0,1,1.588-1.588h9.528A1.59,1.59,0,0,1,427.837,1079.17Zm-19.056,6.352a1.59,1.59,0,0,1,1.588-1.588h39.7a1.59,1.59,0,0,1,1.588,1.588v6.352H408.781Zm.937,13.5h-.937v-2.382h1.413Zm41.939,0h-.937l-.476-2.382h1.413Zm1.588-3.97H407.193v-1.588h46.052Z"
          transform="translate(-405.605 -1065.672)"/>
</svg>
