<?xml version="1.0" encoding="UTF-8"?>
<svg width="24px" height="24px" viewBox="0 0 24 24" version="1.1" xmlns="http://www.w3.org/2000/svg">
    <!-- Generator: Sketch 59.1 (86144) - https://sketch.com -->
    <title>icons2/24/bell</title>
    <desc>Created with Sketch.</desc>
    <g id="icons2/24/bell" stroke="none" stroke-width="1" fill="none" fill-rule="evenodd">
        <path d="M21.2472744,17.3554854 C19.1888807,16.1372514 17.6845891,14.1404207 17.0612956,11.7984108 L16.0462991,7.92894382 C15.2968219,5.05730918 12.7933546,3.02374487 9.88083895,2.92073528 L9.5009539,1.47549162 C9.22190136,0.413715689 8.15162809,-0.216197569 7.11032753,0.0683420654 C6.06940813,0.3528817 5.45164222,1.4440057 5.73050417,2.50558729 L6.10981738,3.95005352 C3.64294715,5.52823783 2.47336625,8.56196675 3.2258932,11.4304917 L4.24088965,15.2999586 C4.44446077,16.0736965 4.54758058,16.8715347 4.54758058,17.6726771 C4.54719939,19.2774884 4.13395764,20.8539235 3.34921762,22.2449414 C3.12715737,22.6249106 3.15689248,23.1051684 3.42412725,23.4534574 C3.62541106,23.7234201 3.93877334,23.882016 4.27119659,23.8822104 C4.36497655,23.882016 4.45837526,23.8695771 4.54872426,23.8446993 L10.1612258,22.3118004 C10.5921942,23.3333443 11.5766932,23.9964927 12.6673616,24 C13.4482894,24.0011573 14.1922389,23.6612257 14.7108878,23.0659082 C15.2295367,22.470785 15.4733265,21.677417 15.3803089,20.8869643 L20.9930011,19.3540653 C21.4626633,19.2254005 21.7872716,18.7892619 21.7825581,18.2936498 C21.7834593,17.9053232 21.5787446,17.5465389 21.2472744,17.3554854 L21.2472744,17.3554854 Z M6.60139971,1.39347271 C6.8106891,1.02380439 7.19762674,0.79621159 7.61639615,0.796400966 C8.14705345,0.794851074 8.61195043,1.1582999 8.74842695,1.68131641 L9.07818165,2.93783876 C9.04120339,2.94114283 9.00479694,2.94852844 8.96781869,2.95260994 C8.84487542,2.96524323 8.72288523,2.98137488 8.60165754,3.00081064 C8.53723145,3.01111159 8.47280536,3.02180127 8.40876051,3.03424016 C8.27361827,3.06067281 8.14000091,3.09079826 8.00790842,3.12422778 C7.97855451,3.13180774 7.94901005,3.13608359 7.92003738,3.14405229 C7.89106471,3.15202094 7.87276619,3.15998959 7.84893994,3.16679212 C7.69988321,3.20857898 7.55292315,3.25580791 7.4082504,3.30809011 C7.36917543,3.32188952 7.33257838,3.33627201 7.29464704,3.35065446 C7.14406543,3.40798998 6.99577109,3.47057318 6.84995471,3.53859834 C6.83870873,3.54365166 6.82670036,3.54773316 6.81526373,3.55317518 L6.48589023,2.29937381 C6.4039281,1.99384355 6.44548103,1.667517 6.60139971,1.39347271 Z M14.6167267,21.0966762 C14.6710504,22.0396997 14.0675802,22.8917637 13.1724772,23.1358769 C12.2773742,23.3796014 11.337478,22.9490992 10.9215677,22.1050038 L14.6167267,21.0966762 Z M20.7873333,18.5861581 L4.3449625,23.0762091 C4.23250282,23.1084725 4.11203751,23.0662969 4.042465,22.9702842 C3.96927089,22.8766038 3.9614559,22.7461898 4.02302279,22.6443463 C4.87733532,21.1320493 5.32736472,19.4178146 5.32831776,17.6726771 C5.32850836,16.8017603 5.21642992,15.9347308 4.99456023,15.0937451 L3.97956379,11.2246669 C3.28898501,8.59733987 4.42578099,5.82579944 6.74550062,4.48220486 L6.75236256,4.47909513 C7.08021118,4.29562149 7.42464286,4.14479994 7.78070171,4.02857402 C7.89316138,3.99067426 8.00199951,3.94538894 8.11712775,3.91468045 C8.51149913,3.80817245 8.91559161,3.7434513 9.3231151,3.72129455 C9.40927067,3.71643562 9.49561683,3.71118795 9.5817724,3.71041052 L9.64200505,3.71041052 C12.2905263,3.71099361 14.6079586,5.52687732 15.2905318,8.13632347 L16.3055283,12.0061791 C16.9839081,14.5516816 18.6195296,16.721685 20.857287,18.0452608 C20.9470642,18.0942389 21.0027222,18.1898629 21.0019241,18.2936498 C21.0061532,18.4300889 20.9171384,18.5515625 20.7873333,18.5857694 L20.7873333,18.5861581 Z"
              id="icons/24px/bell" stroke="currentColor" stroke-width="0" fill="currentColor" fill-rule="nonzero"></path>
    </g>
</svg>
