<?xml version="1.0" encoding="UTF-8"?>
<svg width="36px" height="36px" viewBox="0 0 36 36" version="1.1" xmlns="http://www.w3.org/2000/svg" xmlns:xlink="http://www.w3.org/1999/xlink">
    <!-- Generator: Sketch 63.1 (92452) - https://sketch.com -->
    <title>Group 55</title>
    <desc>Created with Sketch.</desc>
    <g id="NEW" stroke="none" stroke-width="1" fill="none" fill-rule="evenodd">
        <g id="Group-55">
            <rect id="Rectangle" fill="#194D9B" x="0" y="0" width="36" height="36" rx="18"></rect>
            <g id="block-user-(2)" transform="translate(10.000000, 7.600000)" fill="#FFFFFF" fill-rule="nonzero">
                <path d="M15.5846042,11.1692084 C13.1460485,11.1692084 11.1692084,13.1460485 11.1692084,15.5846042 C11.1692084,18.02316 13.1460485,20 15.5846042,20 C18.02316,20 20,18.02316 20,15.5846042 C19.9971827,13.1472164 18.021992,11.1720258 15.5846042,11.1692084 L15.5846042,11.1692084 Z M12.5635439,15.5846042 C12.5654904,13.9169256 13.9169256,12.5654904 15.5846042,12.5635439 C16.1430179,12.5656265 16.6897035,12.7239521 17.1628061,13.0206071 L13.0206071,17.1628061 C12.7239521,16.6897035 12.5656265,16.1430179 12.5635439,15.5846042 L12.5635439,15.5846042 Z M15.5846042,18.6056645 C15.0261905,18.6035819 14.4795049,18.4452563 14.0064023,18.1486013 L18.1486013,14.0064023 C18.4452563,14.4795049 18.6035819,15.0261905 18.6056645,15.5846042 C18.603718,17.2522828 17.2522828,18.603718 15.5846042,18.6056645 L15.5846042,18.6056645 Z" id="Shape"></path>
                <circle id="Oval" cx="7.21859114" cy="4.42992012" r="4.41539579"></circle>
                <path d="M13.3443718,10.2210603 C12.8439463,9.49262076 12.1983383,8.87549548 11.4480755,8.40842411 C10.3517158,9.57684568 8.82084379,10.2396693 7.21859114,10.2396693 C5.61633849,10.2396693 4.08546645,9.57684568 2.98910675,8.40842411 C1.1397107,9.54223412 0.0130124602,11.5562072 0.0145228086,13.7254902 L0.0145228086,15.5846042 C0.017308898,15.96848 0.327816287,16.2789874 0.711692084,16.281772 L9.82135076,16.281772 C9.49076889,13.6974501 10.9351027,11.2127387 13.3443718,10.2210603 L13.3443718,10.2210603 Z" id="Path"></path>
            </g>
        </g>
    </g>
</svg>