<svg fill="currentColor" xmlns="http://www.w3.org/2000/svg" width="18.273" height="16.774" viewBox="0 0 18.273 16.774">
    <path d="M16.667,22.713H14.24V21.535a.535.535,0,0,0-1.071,0v1.178h-3.5V21.535a.535.535,0,0,0-1.071,0v1.178H5.1V21.535a.535.535,0,1,0-1.071,0v1.178H1.606A1.608,1.608,0,0,0,0,24.319V36.168a1.608,1.608,0,0,0,1.606,1.606H16.667a1.608,1.608,0,0,0,1.606-1.606V24.319A1.608,1.608,0,0,0,16.667,22.713ZM1.606,23.784H4.033v1.178a.535.535,0,0,0,1.071,0V23.784H8.6v1.178a.535.535,0,0,0,1.071,0V23.784h3.5v1.178a.535.535,0,0,0,1.071,0V23.784h2.427a.536.536,0,0,1,.535.535V26.71H1.071V24.319A.536.536,0,0,1,1.606,23.784ZM16.667,36.7H1.606a.536.536,0,0,1-.535-.535V27.781H17.2v8.387A.536.536,0,0,1,16.667,36.7Z"
          transform="translate(0 -21)"/>
    <path d="M73.956,253h-.493a.462.462,0,1,0,0,.925h.493a.462.462,0,0,0,0-.925Z"
          transform="translate(-70.749 -244.643)"/>
    <path d="M153.956,253h-.493a.462.462,0,0,0,0,.925h.493a.462.462,0,0,0,0-.925Z"
          transform="translate(-147.466 -244.643)"/>
    <path d="M233.956,253h-.493a.462.462,0,1,0,0,.925h.493a.462.462,0,1,0,0-.925Z"
          transform="translate(-224.573 -244.643)"/>
    <path d="M313.956,253h-.493a.462.462,0,0,0,0,.925h.493a.462.462,0,0,0,0-.925Z"
          transform="translate(-301.679 -244.643)"/>
    <path d="M393.956,253h-.493a.462.462,0,0,0,0,.925h.493a.462.462,0,1,0,0-.925Z"
          transform="translate(-378.396 -244.643)"/>
    <path d="M73.956,317h-.493a.462.462,0,1,0,0,.925h.493a.462.462,0,1,0,0-.925Z"
          transform="translate(-70.749 -306.338)"/>
    <path d="M153.956,317h-.493a.462.462,0,0,0,0,.925h.493a.462.462,0,1,0,0-.925Z"
          transform="translate(-147.466 -306.338)"/>
    <path d="M233.956,317h-.493a.462.462,0,1,0,0,.925h.493a.462.462,0,1,0,0-.925Z"
          transform="translate(-224.573 -306.338)"/>
    <path d="M313.956,317h-.493a.462.462,0,0,0,0,.925h.493a.462.462,0,0,0,0-.925Z"
          transform="translate(-301.679 -306.338)"/>
    <path d="M393.956,317h-.493a.462.462,0,0,0,0,.925h.493a.462.462,0,1,0,0-.925Z"
          transform="translate(-378.396 -306.338)"/>
    <path d="M73.956,381h-.493a.462.462,0,1,0,0,.925h.493a.462.462,0,1,0,0-.925Z"
          transform="translate(-70.749 -368.033)"/>
    <path d="M153.956,381h-.493a.462.462,0,1,0,0,.925h.493a.462.462,0,0,0,0-.925Z"
          transform="translate(-147.466 -368.033)"/>
    <path d="M233.956,381h-.493a.462.462,0,1,0,0,.925h.493a.462.462,0,1,0,0-.925Z"
          transform="translate(-224.573 -368.033)"/>
    <path d="M313.956,381h-.493a.462.462,0,0,0,0,.925h.493a.462.462,0,0,0,0-.925Z"
          transform="translate(-301.679 -368.033)"/>
    <path d="M393.956,381h-.493a.462.462,0,0,0,0,.925h.493a.462.462,0,1,0,0-.925Z"
          transform="translate(-378.396 -368.033)"/>
</svg>
