<?xml version="1.0" encoding="UTF-8"?>
<svg width="36px" height="36px" viewBox="0 0 36 36" version="1.1" xmlns="http://www.w3.org/2000/svg" xmlns:xlink="http://www.w3.org/1999/xlink">
    <!-- Generator: Sketch 63.1 (92452) - https://sketch.com -->
    <title>Group 53</title>
    <desc>Created with Sketch.</desc>
    <g id="NEW" stroke="none" stroke-width="1" fill="none" fill-rule="evenodd">
        <g id="Group-53">
            <rect id="Rectangle" fill="#194D9B" x="0" y="0" width="36" height="36" rx="18"></rect>
            <g id="password-(1)" transform="translate(7.000000, 7.000000)" fill="#FFFFFF" fill-rule="nonzero">
                <path d="M18.6513158,13.0386513 L3.45394737,13.0386513 C1.54944079,13.0386513 0,14.5880921 0,16.4925987 C0,18.3971053 1.54944079,19.9465461 3.45394737,19.9465461 L18.6513158,19.9465461 C20.5558224,19.9465461 22.1052632,18.3971053 22.1052632,16.4925987 C22.1052632,14.5880921 20.5558224,13.0386513 18.6513158,13.0386513 Z M4.57648026,17.5719572 C3.98037212,17.5719572 3.49712171,17.0887068 3.49712171,16.4925987 C3.49712171,15.8964905 3.98037212,15.4132401 4.57648026,15.4132401 C5.1725884,15.4132401 5.65583882,15.8964905 5.65583882,16.4925987 C5.65583882,17.0887068 5.1725884,17.5719572 4.57648026,17.5719572 Z M8.89391447,17.5719572 C8.29780633,17.5719572 7.81455592,17.0887068 7.81455592,16.4925987 C7.81455592,15.8964905 8.29780633,15.4132401 8.89391447,15.4132401 C9.49002262,15.4132401 9.97327303,15.8964905 9.97327303,16.4925987 C9.97327303,17.0887068 9.49002262,17.5719572 8.89391447,17.5719572 Z M13.2113487,17.5719572 C12.6152405,17.5719572 12.1319901,17.0887068 12.1319901,16.4925987 C12.1319901,15.8964905 12.6152405,15.4132401 13.2113487,15.4132401 C13.8074568,15.4132401 14.2907072,15.8964905 14.2907072,16.4925987 C14.2907072,17.0887068 13.8074568,17.5719572 13.2113487,17.5719572 Z M17.5287829,17.5719572 C16.9326748,17.5719572 16.4494243,17.0887068 16.4494243,16.4925987 C16.4494243,15.8964905 16.9326748,15.4132401 17.5287829,15.4132401 C18.124891,15.4132401 18.6081414,15.8964905 18.6081414,16.4925987 C18.6081414,17.0887068 18.124891,17.5719572 17.5287829,17.5719572 Z" id="Shape"></path>
                <path d="M15.1541941,4.40378289 L14.2907072,4.40378289 L14.2907072,3.23807566 C14.2907072,1.45260074 12.8381065,0 11.0526316,0 C9.26715666,0 7.81455592,1.45260074 7.81455592,3.23807566 L7.81455592,4.40378289 L6.95106908,4.40378289 C6.59341283,4.40378289 6.30345395,4.69374178 6.30345395,5.05139803 L6.30345395,10.1891447 C6.30345395,10.546801 6.59341283,10.8367599 6.95106908,10.8367599 L15.1541941,10.8367599 C15.5118503,10.8367599 15.8018092,10.546801 15.8018092,10.1891447 L15.8018092,5.05139803 C15.8018092,4.69374178 15.5118503,4.40378289 15.1541941,4.40378289 Z M11.7002467,7.82008224 L11.7002467,8.07360197 C11.7002467,8.43125822 11.4102878,8.72121711 11.0526316,8.72121711 C10.6949753,8.72121711 10.4050164,8.43125822 10.4050164,8.07360197 L10.4050164,7.82008224 C10.1536554,7.73109992 9.97327303,7.49195724 9.97327303,7.21011513 C9.97327303,6.85245888 10.2632319,6.5625 10.6208882,6.5625 L11.484375,6.5625 C11.8420312,6.5625 12.1319901,6.85245888 12.1319901,7.21011513 C12.1319901,7.49195724 11.9516077,7.73109992 11.7002467,7.82008224 Z M12.995477,4.40378289 L9.10978618,4.40378289 L9.10978618,3.23807566 C9.10978618,2.16679071 9.98134663,1.29523026 11.0526316,1.29523026 C12.1239165,1.29523026 12.995477,2.16679071 12.995477,3.23807566 L12.995477,4.40378289 Z" id="Shape"></path>
            </g>
        </g>
    </g>
</svg>