<?xml version="1.0" encoding="UTF-8"?>
<svg width="24px" height="24px" viewBox="0 0 24 24" version="1.1" xmlns="http://www.w3.org/2000/svg">
    <!-- Generator: Sketch 57.1 (83088) - https://sketch.com -->
    <title>icons2/24/main_chat</title>
    <desc>Created with Sketch.</desc>
    <g id="icons2/24/main_chat" stroke="none" stroke-width="0" fill="none" fill-rule="evenodd">
        <g id="chat" transform="translate(0.100000, 0.100000)" fill="currentColor" stroke="currentColor" stroke-width="0">
            <path d="M18.7785706,3.22445561 C16.7000804,1.14698492 13.9395136,0 10.9992104,0 C8.05890713,0 5.29834031,1.14698492 3.2198501,3.22445561 C-0.789654294,7.2319933 -1.07999772,13.6348409 2.49168723,17.9740369 C1.99856428,18.9828308 1.41787744,19.6553601 0.758843955,19.9778057 C0.357893516,20.1758794 0.132070855,20.6088777 0.196591615,21.0510888 C0.265721001,21.4979062 0.606759306,21.8433836 1.053796,21.9124791 C1.29805317,21.94933 1.56074483,21.9723618 1.83265375,21.9723618 L1.83265375,21.9723618 C3.1829811,21.9723618 4.60243782,21.5071189 5.78685464,20.6917923 C7.38143915,21.5485762 9.17419456,22 10.9992104,22 C13.9395136,22 16.7000804,20.8576214 18.7785706,18.7801508 C20.8570608,16.7026801 22,13.938861 22,11.0046064 C22,8.07035176 20.8570608,5.3019263 18.7785706,3.22445561 Z M17.8983231,17.8957286 C16.0548728,19.7382747 13.6030839,20.751675 10.9992104,20.751675 C9.25714982,20.751675 7.54734967,20.2864322 6.05876356,19.4112228 C5.96198242,19.3559464 5.8513754,19.3237018 5.74537701,19.3237018 C5.61172686,19.3237018 5.47346809,19.3697655 5.36286107,19.4526801 C3.95262159,20.5443886 2.53316487,20.7056114 1.91100039,20.7194305 C2.65298914,20.1666667 3.27515361,19.3098827 3.79592832,18.1168342 C3.89270946,17.8957286 3.85123183,17.6377722 3.68992993,17.4535176 C0.279546878,13.6025963 0.459283282,7.7340871 4.10009762,4.09505863 C5.94354792,2.25251256 8.39533681,1.23911223 10.9992104,1.23911223 C13.6030839,1.23911223 16.0548728,2.25251256 17.8983231,4.09505863 C21.705048,7.90452261 21.705048,14.0954774 17.8983231,17.8957286 Z"
                  id="Shape" fill-rule="nonzero"/>
            <path d="M15.8398678,7 L6.06013216,7 C5.69339207,7 5.4,7.24444444 5.4,7.55 C5.4,7.85555556 5.69339207,8.1 6.06013216,8.1 L15.8398678,8.1 C16.2066079,8.1 16.5,7.85555556 16.5,7.55 C16.5,7.24444444 16.2017181,7 15.8398678,7 Z"
                  id="Path"/>
            <path d="M15.8398678,10 L6.06013216,10 C5.69339207,10 5.4,10.2222222 5.4,10.5 C5.4,10.7777778 5.69339207,11 6.06013216,11 L15.8398678,11 C16.2066079,11 16.5,10.7777778 16.5,10.5 C16.5,10.2222222 16.2017181,10 15.8398678,10 Z"
                  id="Path"/>
            <path d="M15.8398678,13 L6.06013216,13 C5.69339207,13 5.4,13.2222222 5.4,13.5 C5.4,13.7777778 5.69339207,14 6.06013216,14 L15.8398678,14 C16.2066079,14 16.5,13.7777778 16.5,13.5 C16.5,13.2222222 16.2017181,13 15.8398678,13 Z"
                  id="Path"/>
        </g>
    </g>
</svg>
