<?xml version="1.0" encoding="UTF-8"?>
<!DOCTYPE svg PUBLIC "-//W3C//DTD SVG 1.1//EN" "http://www.w3.org/Graphics/SVG/1.1/DTD/svg11.dtd">
<svg xmlns="http://www.w3.org/2000/svg" version="1.1" width="200px" height="145px" style="shape-rendering:geometricPrecision; text-rendering:geometricPrecision; image-rendering:optimizeQuality; fill-rule:evenodd; clip-rule:evenodd" xmlns:xlink="http://www.w3.org/1999/xlink">
    <g><path style="opacity:0.012" fill="#fff051" d="M 75.5,-0.5 C 76.8333,-0.5 78.1667,-0.5 79.5,-0.5C 78.1667,0.833333 76.8333,0.833333 75.5,-0.5 Z"/></g>
    <g><path style="opacity:0.01" fill="#fff000" d="M 157.5,-0.5 C 158.833,-0.5 160.167,-0.5 161.5,-0.5C 160.167,0.833333 158.833,0.833333 157.5,-0.5 Z"/></g>
    <g><path style="opacity:0.008" fill="#ffac81" d="M 82.5,1.5 C 81.7611,1.63101 81.0944,1.46434 80.5,1C 81.4368,0.308314 82.1034,0.474981 82.5,1.5 Z"/></g>
    <g><path style="opacity:0.006" fill="#ffe900" d="M 166.5,1.5 C 165.127,1.65668 163.793,1.49001 162.5,1C 164.066,0.235015 165.399,0.401682 166.5,1.5 Z"/></g>
    <g><path style="opacity:0.776" fill="#ffcf11" d="M 119.5,-0.5 C 129.5,-0.5 139.5,-0.5 149.5,-0.5C 153.758,0.402166 158.091,1.40217 162.5,2.5C 162.389,3.11742 162.056,3.61742 161.5,4C 162.737,4.23209 163.737,4.73209 164.5,5.5C 162.139,5.32588 159.806,4.99255 157.5,4.5C 155.031,3.6829 152.365,3.1829 149.5,3C 138.5,2.33333 127.5,2.33333 116.5,3C 109.617,3.81357 102.951,5.48024 96.5,8C 94.4453,8.68722 92.7786,9.85389 91.5,11.5C 92.0047,12.9185 93.0047,13.5852 94.5,13.5C 94.5,13.8333 94.5,14.1667 94.5,14.5C 95.5,16.1667 96.8333,17.5 98.5,18.5C 98.3284,19.4916 98.6618,20.1583 99.5,20.5C 99.8333,21.1667 100.167,21.8333 100.5,22.5C 100.5,23.1667 100.5,23.8333 100.5,24.5C 97.7404,23.577 95.7404,21.7437 94.5,19C 93.255,18.2086 91.9217,17.7086 90.5,17.5C 90.4982,13.8355 89.1648,10.8355 86.5,8.5C 86.5,7.83333 86.5,7.16667 86.5,6.5C 87.4822,7.14083 88.4822,7.80749 89.5,8.5C 99.1581,3.92467 109.158,0.924674 119.5,-0.5 Z"/></g>
    <g><path style="opacity:0.016" fill="#ffcf00" d="M 166.5,1.5 C 167.552,1.35055 168.552,1.51722 169.5,2C 168.251,2.74012 167.251,2.57346 166.5,1.5 Z"/></g>
    <g><path style="opacity:0.008" fill="#ffd651" d="M 82.5,2.5 C 82.5,2.16667 82.5,1.83333 82.5,1.5C 85.4596,2.03204 85.7929,2.69871 83.5,3.5C 83.5,2.83333 83.1667,2.5 82.5,2.5 Z"/></g>
    <g><path style="opacity:1" fill="#ffae0c" d="M 157.5,4.5 C 156.448,4.35055 155.448,4.51722 154.5,5C 155.833,5.33333 157.167,5.66667 158.5,6C 156.942,6.21003 155.609,6.71003 154.5,7.5C 142.519,6.46742 130.519,6.30075 118.5,7C 114.57,7.24155 110.903,8.07488 107.5,9.5C 104.848,9.40953 102.515,10.0762 100.5,11.5C 98.2972,11.6036 96.2972,12.2702 94.5,13.5C 93.0047,13.5852 92.0047,12.9185 91.5,11.5C 92.7786,9.85389 94.4453,8.68722 96.5,8C 102.951,5.48024 109.617,3.81357 116.5,3C 127.5,2.33333 138.5,2.33333 149.5,3C 152.365,3.1829 155.031,3.6829 157.5,4.5 Z"/></g>
    <g><path style="opacity:0.004" fill="#ff7e07" d="M 55.5,5.5 C 54.8333,5.5 54.5,5.83333 54.5,6.5C 52.0248,6.2533 52.0248,5.58664 54.5,4.5C 55.1067,4.62358 55.44,4.95691 55.5,5.5 Z"/></g>
    <g><path style="opacity:0.769" fill="#ffd538" d="M 162.5,2.5 C 175.309,3.84349 185.143,9.84349 192,20.5C 190.95,27.5927 193.117,33.2593 198.5,37.5C 198.328,38.4916 198.662,39.1583 199.5,39.5C 199.5,48.5 199.5,57.5 199.5,66.5C 198.662,66.8417 198.328,67.5084 198.5,68.5C 197.662,68.8417 197.328,69.5084 197.5,70.5C 197.167,70.5 196.833,70.5 196.5,70.5C 196.365,65.711 196.365,60.711 196.5,55.5C 197.851,53.6085 198.518,51.4418 198.5,49C 198.486,47.6153 198.152,46.4486 197.5,45.5C 197.17,41.9793 195.67,38.9793 193,36.5C 192.667,39.8333 192.333,43.1667 192,46.5C 191.581,47.6721 190.915,48.6721 190,49.5C 189.501,44.8452 189.334,40.1785 189.5,35.5C 190.756,33.059 190.756,30.7257 189.5,28.5C 190.123,22.5789 188.123,17.7456 183.5,14C 177.547,10.0811 171.214,7.24775 164.5,5.5C 163.737,4.73209 162.737,4.23209 161.5,4C 162.056,3.61742 162.389,3.11742 162.5,2.5 Z"/></g>
    <g><path style="opacity:1" fill="#ffd941" d="M 76.5,8.5 C 78.0269,8.42702 79.0269,9.09368 79.5,10.5C 56.1878,34.1458 32.8545,57.8125 9.5,81.5C 8.5,81.1667 7.83333,80.5 7.5,79.5C 30.7808,56.2176 53.7808,32.5509 76.5,8.5 Z"/></g>
    <g><path style="opacity:1" fill="#ffe068" d="M 154.5,7.5 C 157.167,8.16667 159.833,8.83333 162.5,9.5C 144.294,10.813 125.961,10.813 107.5,9.5C 110.903,8.07488 114.57,7.24155 118.5,7C 130.519,6.30075 142.519,6.46742 154.5,7.5 Z"/></g>
    <g><path style="opacity:1" fill="#ffdc53" d="M 71.5,8.5 C 71.5,8.83333 71.5,9.16667 71.5,9.5C 50.2486,29.9188 29.4152,50.9188 9,72.5C 8.51722,73.448 8.35055,74.448 8.5,75.5C 8.16667,75.5 7.83333,75.5 7.5,75.5C 7.1588,71.8405 7.82547,68.5072 9.5,65.5C 9.51731,67.0281 10.184,67.5281 11.5,67C 29.5,48.3333 47.5,29.6667 65.5,11C 64.9056,10.5357 64.2389,10.369 63.5,10.5C 65.8383,8.96046 68.5049,8.29379 71.5,8.5 Z"/></g>
    <g><path style="opacity:1" fill="#ffdb4d" d="M 71.5,9.5 C 51.1957,32.1382 30.1957,54.1382 8.5,75.5C 8.35055,74.448 8.51722,73.448 9,72.5C 29.4152,50.9188 50.2486,29.9188 71.5,9.5 Z"/></g>
    <g><path style="opacity:1" fill="#ffde5a" d="M 63.5,10.5 C 64.2389,10.369 64.9056,10.5357 65.5,11C 47.5,29.6667 29.5,48.3333 11.5,67C 10.184,67.5281 9.51731,67.0281 9.5,65.5C 9.32842,64.5084 9.66175,63.8417 10.5,63.5C 23.0572,51.4442 35.5572,39.1109 48,26.5C 52.0688,21.9404 55.9021,17.2738 59.5,12.5C 60.5137,11.3263 61.847,10.6596 63.5,10.5 Z"/></g>
    <g><path style="opacity:1" fill="#ffdf60" d="M 107.5,9.5 C 125.961,10.813 144.294,10.813 162.5,9.5C 164.894,10.0147 167.228,10.6814 169.5,11.5C 168.737,12.2679 167.737,12.7679 166.5,13C 145.167,13.6667 123.833,13.6667 102.5,13C 101.584,12.7216 100.918,12.2216 100.5,11.5C 102.515,10.0762 104.848,9.40953 107.5,9.5 Z"/></g>
    <g><path style="opacity:1" fill="#ffd737" d="M 79.5,10.5 C 81.1042,11.287 81.7709,12.6203 81.5,14.5C 79.1667,14.8333 77.8333,16.1667 77.5,18.5C 62.889,32.6104 48.389,46.9437 34,61.5C 30.9583,65.0372 28.125,68.7039 25.5,72.5C 21.4302,75.0604 17.7635,78.2271 14.5,82C 14.8333,82.3333 15.1667,82.6667 15.5,83C 14.2068,83.49 12.8734,83.6567 11.5,83.5C 11.1667,83.5 10.8333,83.5 10.5,83.5C 10.1667,82.8333 9.83333,82.1667 9.5,81.5C 32.8545,57.8125 56.1878,34.1458 79.5,10.5 Z"/></g>
    <g><path style="opacity:1" fill="#ff9c0b" d="M 84.5,8.5 C 86.8906,11.1623 87.8906,14.329 87.5,18C 87.2199,22.6703 86.2199,27.1703 84.5,31.5C 82.8333,34.8333 81.1667,38.1667 79.5,41.5C 78.5,40.8333 77.5,40.1667 76.5,39.5C 81.0467,31.7537 83.2134,23.4204 83,14.5C 82.8019,16.3817 82.3019,18.0484 81.5,19.5C 81.5,17.8333 81.5,16.1667 81.5,14.5C 81.7709,12.6203 81.1042,11.287 79.5,10.5C 79.0269,9.09368 78.0269,8.42702 76.5,8.5C 74.8333,8.5 73.1667,8.5 71.5,8.5C 68.5049,8.29379 65.8383,8.96046 63.5,10.5C 61.847,10.6596 60.5137,11.3263 59.5,12.5C 57.1815,12.9925 55.1815,13.9925 53.5,15.5C 53.1667,15.5 52.8333,15.5 52.5,15.5C 51.5987,14.7095 50.9321,13.7095 50.5,12.5C 59.0383,5.78179 68.705,3.28179 79.5,5C 81.3464,6.02978 83.0131,7.19645 84.5,8.5 Z"/></g>
    <g><path style="opacity:1" fill="#ffde5a" d="M 100.5,11.5 C 100.918,12.2216 101.584,12.7216 102.5,13C 123.833,13.6667 145.167,13.6667 166.5,13C 167.737,12.7679 168.737,12.2679 169.5,11.5C 171.284,11.8925 172.95,12.5592 174.5,13.5C 162.018,14.8325 149.185,15.4992 136,15.5C 122.136,15.4739 108.303,15.1406 94.5,14.5C 94.5,14.1667 94.5,13.8333 94.5,13.5C 96.2972,12.2702 98.2972,11.6036 100.5,11.5 Z"/></g>
    <g><path style="opacity:0.761" fill="#ffd629" d="M 82.5,2.5 C 83.1667,2.5 83.5,2.83333 83.5,3.5C 84.6935,4.27187 85.6935,5.27187 86.5,6.5C 86.5,7.16667 86.5,7.83333 86.5,8.5C 85.8333,8.5 85.1667,8.5 84.5,8.5C 83.0131,7.19645 81.3464,6.02978 79.5,5C 68.705,3.28179 59.0383,5.78179 50.5,12.5C 44.5487,16.45 38.8821,20.7833 33.5,25.5C 34.5,23.5 35.5,21.5 36.5,19.5C 37.3065,18.2719 38.3065,17.2719 39.5,16.5C 40.1667,16.5 40.5,16.1667 40.5,15.5C 45.1893,12.4661 49.856,9.46612 54.5,6.5C 55.1667,6.5 55.5,6.16667 55.5,5.5C 61.3727,3.43215 67.3727,1.76548 73.5,0.5C 76.4466,1.42259 79.4466,2.08926 82.5,2.5 Z"/></g>
    <g><path style="opacity:0.008" fill="#feff00" d="M 40.5,15.5 C 39.8333,15.5 39.5,15.8333 39.5,16.5C 37.0248,16.2533 37.0248,15.5866 39.5,14.5C 40.1067,14.6236 40.44,14.9569 40.5,15.5 Z"/></g>
    <g><path style="opacity:1" fill="#ffdf61" d="M 59.5,12.5 C 55.9021,17.2738 52.0688,21.9404 48,26.5C 35.5572,39.1109 23.0572,51.4442 10.5,63.5C 11.3257,60.5152 12.659,57.8485 14.5,55.5C 19.4182,52.1282 24.2516,47.7948 29,42.5C 37.1635,33.3366 45.6635,24.5033 54.5,16C 54.2716,15.6012 53.9382,15.4346 53.5,15.5C 55.1815,13.9925 57.1815,12.9925 59.5,12.5 Z"/></g>
    <g><path style="opacity:1" fill="#ffdc53" d="M 174.5,13.5 C 176.882,14.3507 178.882,15.684 180.5,17.5C 153.093,17.1758 125.759,17.5092 98.5,18.5C 96.8333,17.5 95.5,16.1667 94.5,14.5C 108.303,15.1406 122.136,15.4739 136,15.5C 149.185,15.4992 162.018,14.8325 174.5,13.5 Z"/></g>
    <g><path style="opacity:1" fill="#ffd32a" d="M 81.5,14.5 C 81.5,16.1667 81.5,17.8333 81.5,19.5C 81.5,20.5 81.5,21.5 81.5,22.5C 80.5768,21.6971 79.5768,21.5304 78.5,22C 59.1667,42 39.8333,62 20.5,82C 21.056,82.3826 21.3893,82.8826 21.5,83.5C 18.1667,84.8333 14.8333,84.8333 11.5,83.5C 12.8734,83.6567 14.2068,83.49 15.5,83C 15.1667,82.6667 14.8333,82.3333 14.5,82C 17.7635,78.2271 21.4302,75.0604 25.5,72.5C 43.5551,55.1131 60.8885,37.1131 77.5,18.5C 77.8333,16.1667 79.1667,14.8333 81.5,14.5 Z"/></g>
    <g><path style="opacity:1" fill="#ffdb4d" d="M 180.5,17.5 C 181.5,17.8333 182.167,18.5 182.5,19.5C 181.504,19.5858 180.671,19.2524 180,18.5C 153.167,19.1709 126.333,19.8376 99.5,20.5C 98.6618,20.1583 98.3284,19.4916 98.5,18.5C 125.759,17.5092 153.093,17.1758 180.5,17.5 Z"/></g>
    <g><path style="opacity:1" fill="#ffd530" d="M 77.5,18.5 C 60.8885,37.1131 43.5551,55.1131 25.5,72.5C 28.125,68.7039 30.9583,65.0372 34,61.5C 48.389,46.9437 62.889,32.6104 77.5,18.5 Z"/></g>
    <g><path style="opacity:0.005" fill="#ffd7fa" d="M 34.5,20.5 C 33.8333,20.5 33.5,20.8333 33.5,21.5C 32.8333,21.5 32.5,21.8333 32.5,22.5C 30.4076,21.7145 30.7409,20.7145 33.5,19.5C 34.1067,19.6236 34.44,19.9569 34.5,20.5 Z"/></g>
    <g><path style="opacity:1" fill="#ffda48" d="M 182.5,19.5 C 183.5,19.8333 184.167,20.5 184.5,21.5C 156.426,21.1756 128.426,21.5089 100.5,22.5C 100.167,21.8333 99.8333,21.1667 99.5,20.5C 126.333,19.8376 153.167,19.1709 180,18.5C 180.671,19.2524 181.504,19.5858 182.5,19.5 Z"/></g>
    <g><path style="opacity:1" fill="#ffd222" d="M 81.5,22.5 C 81.3404,24.153 80.6737,25.4863 79.5,26.5C 79.1034,25.475 78.4368,25.3083 77.5,26C 60.3333,43.8333 43.1667,61.6667 26,79.5C 25.3083,80.4368 25.475,81.1034 26.5,81.5C 25.0697,82.5375 23.403,83.2041 21.5,83.5C 21.3893,82.8826 21.056,82.3826 20.5,82C 39.8333,62 59.1667,42 78.5,22C 79.5768,21.5304 80.5768,21.6971 81.5,22.5 Z"/></g>
    <g><path style="opacity:1" fill="#fed840" d="M 184.5,21.5 C 185.11,22.391 185.443,23.391 185.5,24.5C 157.5,24.5 129.5,24.5 101.5,24.5C 101.167,24.5 100.833,24.5 100.5,24.5C 100.5,23.8333 100.5,23.1667 100.5,22.5C 128.426,21.5089 156.426,21.1756 184.5,21.5 Z"/></g>
    <g><path style="opacity:1" fill="#ffe069" d="M 52.5,15.5 C 52.8333,15.5 53.1667,15.5 53.5,15.5C 53.9382,15.4346 54.2716,15.6012 54.5,16C 45.6635,24.5033 37.1635,33.3366 29,42.5C 24.2516,47.7948 19.4182,52.1282 14.5,55.5C 16.1023,51.9046 18.1023,48.5712 20.5,45.5C 29.5803,33.7513 40.247,23.7513 52.5,15.5 Z"/></g>
    <g><path style="opacity:1" fill="#ffe3a9" d="M 84.5,8.5 C 85.1667,8.5 85.8333,8.5 86.5,8.5C 89.1648,10.8355 90.4982,13.8355 90.5,17.5C 90.702,19.9496 90.3686,22.283 89.5,24.5C 89.3713,26.2161 89.038,27.8828 88.5,29.5C 87.8333,30.5 87.1667,31.5 86.5,32.5C 86.5912,30.3023 85.9245,29.9689 84.5,31.5C 86.2199,27.1703 87.2199,22.6703 87.5,18C 87.8906,14.329 86.8906,11.1623 84.5,8.5 Z"/></g>
    <g><path style="opacity:1" fill="#ffb006" d="M 50.5,12.5 C 50.9321,13.7095 51.5987,14.7095 52.5,15.5C 40.247,23.7513 29.5803,33.7513 20.5,45.5C 19.2279,45.9576 18.2279,45.2909 17.5,43.5C 22.3734,37.0829 27.7067,31.0829 33.5,25.5C 38.8821,20.7833 44.5487,16.45 50.5,12.5 Z"/></g>
    <g><path style="opacity:1" fill="#fc8f02" d="M 90.5,17.5 C 91.9217,17.7086 93.255,18.2086 94.5,19C 95.7404,21.7437 97.7404,23.577 100.5,24.5C 100.833,24.5 101.167,24.5 101.5,24.5C 101.5,25.1667 101.5,25.8333 101.5,26.5C 101.806,29.3854 101.473,32.0521 100.5,34.5C 97.4372,30.4342 93.7706,27.1009 89.5,24.5C 90.3686,22.283 90.702,19.9496 90.5,17.5 Z"/></g>
    <g><path style="opacity:1" fill="#ffd11c" d="M 79.5,26.5 C 79.5979,28.5529 78.9313,30.2196 77.5,31.5C 76.7611,31.369 76.0944,31.5357 75.5,32C 61.0292,47.4714 46.1959,62.638 31,77.5C 30.5172,78.448 30.3505,79.448 30.5,80.5C 29.2921,81.2341 27.9587,81.5674 26.5,81.5C 25.475,81.1034 25.3083,80.4368 26,79.5C 43.1667,61.6667 60.3333,43.8333 77.5,26C 78.4368,25.3083 79.1034,25.475 79.5,26.5 Z"/></g>
    <g><path style="opacity:1" fill="#fed636" d="M 185.5,24.5 C 185.371,26.2161 185.038,27.8828 184.5,29.5C 184.167,29.5 183.833,29.5 183.5,29.5C 156.833,28.1667 130.167,28.1667 103.5,29.5C 102.833,28.5 102.167,27.5 101.5,26.5C 101.5,25.8333 101.5,25.1667 101.5,24.5C 129.5,24.5 157.5,24.5 185.5,24.5 Z"/></g>
    <g><path style="opacity:1" fill="#fe6b01" d="M 89.5,24.5 C 93.7706,27.1009 97.4372,30.4342 100.5,34.5C 100.606,37.0786 99.9395,39.412 98.5,41.5C 94.0427,38.3813 90.7094,34.3813 88.5,29.5C 89.038,27.8828 89.3713,26.2161 89.5,24.5 Z"/></g>
    <g><path style="opacity:1" fill="#fed42d" d="M 183.5,29.5 C 183.167,30.5 182.5,31.1667 181.5,31.5C 155.5,30.1667 129.5,30.1667 103.5,31.5C 103.5,30.8333 103.5,30.1667 103.5,29.5C 130.167,28.1667 156.833,28.1667 183.5,29.5 Z"/></g>
    <g><path style="opacity:1" fill="#ff9c0e" d="M 157.5,4.5 C 159.806,4.99255 162.139,5.32588 164.5,5.5C 171.214,7.24775 177.547,10.0811 183.5,14C 188.123,17.7456 190.123,22.5789 189.5,28.5C 187.833,34.8333 183.833,38.8333 177.5,40.5C 177.511,38.9826 178.177,37.8159 179.5,37C 179.272,36.6012 178.938,36.4346 178.5,36.5C 181.213,34.7865 183.213,32.4532 184.5,29.5C 185.038,27.8828 185.371,26.2161 185.5,24.5C 185.443,23.391 185.11,22.391 184.5,21.5C 184.167,20.5 183.5,19.8333 182.5,19.5C 182.167,18.5 181.5,17.8333 180.5,17.5C 178.882,15.684 176.882,14.3507 174.5,13.5C 172.95,12.5592 171.284,11.8925 169.5,11.5C 167.228,10.6814 164.894,10.0147 162.5,9.5C 159.833,8.83333 157.167,8.16667 154.5,7.5C 155.609,6.71003 156.942,6.21003 158.5,6C 157.167,5.66667 155.833,5.33333 154.5,5C 155.448,4.51722 156.448,4.35055 157.5,4.5 Z"/></g>
    <g><path style="opacity:1" fill="#ffd328" d="M 181.5,31.5 C 181.167,32.5 180.5,33.1667 179.5,33.5C 154.339,32.5023 129.005,32.1689 103.5,32.5C 103.5,32.1667 103.5,31.8333 103.5,31.5C 129.5,30.1667 155.5,30.1667 181.5,31.5 Z"/></g>
    <g><path style="opacity:1" fill="#ffda48" d="M 71.5,8.5 C 73.1667,8.5 74.8333,8.5 76.5,8.5C 53.7808,32.5509 30.7808,56.2176 7.5,79.5C 7.5,78.1667 7.5,76.8333 7.5,75.5C 7.83333,75.5 8.16667,75.5 8.5,75.5C 30.1957,54.1382 51.1957,32.1382 71.5,9.5C 71.5,9.16667 71.5,8.83333 71.5,8.5 Z"/></g>
    <g><path style="opacity:1" fill="#ffcd11" d="M 77.5,31.5 C 66.9615,52.7061 51.2949,69.0394 30.5,80.5C 30.3505,79.448 30.5172,78.448 31,77.5C 46.1959,62.638 61.0292,47.4714 75.5,32C 76.0944,31.5357 76.7611,31.369 77.5,31.5 Z"/></g>
    <g><path style="opacity:0.016" fill="#ffb9ff" d="M 22.5,32.5 C 21.8333,32.5 21.5,32.8333 21.5,33.5C 20.2875,32.5029 20.4542,31.5029 22,30.5C 22.4643,31.0944 22.631,31.7611 22.5,32.5 Z"/></g>
    <g><path style="opacity:1" fill="#fed222" d="M 103.5,32.5 C 129.005,32.1689 154.339,32.5023 179.5,33.5C 178.609,34.1098 177.609,34.4431 176.5,34.5C 152.143,33.8432 128.143,34.5098 104.5,36.5C 104.672,37.4916 104.338,38.1583 103.5,38.5C 103.5,36.5 103.5,34.5 103.5,32.5 Z"/></g>
    <g><path style="opacity:1" fill="#fed11c" d="M 176.5,34.5 C 174.574,36.2927 172.241,37.2927 169.5,37.5C 147.909,36.5116 126.242,36.1783 104.5,36.5C 128.143,34.5098 152.143,33.8432 176.5,34.5 Z"/></g>
    <g><path style="opacity:1" fill="#fe9908" d="M 88.5,29.5 C 90.7094,34.3813 94.0427,38.3813 98.5,41.5C 98.4431,42.609 98.1098,43.609 97.5,44.5C 97.5,44.8333 97.5,45.1667 97.5,45.5C 96.6873,47.2608 95.6873,48.9275 94.5,50.5C 91.2456,46.8472 87.9123,43.1806 84.5,39.5C 84.8782,37.079 85.5448,34.7457 86.5,32.5C 87.1667,31.5 87.8333,30.5 88.5,29.5 Z"/></g>
    <g><path style="opacity:1" fill="#fecf14" d="M 104.5,36.5 C 126.242,36.1783 147.909,36.5116 169.5,37.5C 166.592,39.6048 163.258,40.6048 159.5,40.5C 142.837,39.1827 126.171,39.1827 109.5,40.5C 107.435,40.4828 105.435,40.1495 103.5,39.5C 103.5,39.1667 103.5,38.8333 103.5,38.5C 104.338,38.1583 104.672,37.4916 104.5,36.5 Z"/></g>
    <g><path style="opacity:0.016" fill="#feff3f" d="M 199.5,36.5 C 199.5,36.8333 199.5,37.1667 199.5,37.5C 198.83,37.0187 198.83,36.6853 199.5,36.5 Z"/></g>
    <g><path style="opacity:0.863" fill="#ffd71d" d="M 36.5,19.5 C 35.5,21.5 34.5,23.5 33.5,25.5C 27.7067,31.0829 22.3734,37.0829 17.5,43.5C 8.65067,53.869 3.65067,65.869 2.5,79.5C 1.83333,79.8333 1.16667,80.1667 0.5,80.5C 0.67158,79.5084 0.338246,78.8417 -0.5,78.5C -0.5,77.1667 -0.5,75.8333 -0.5,74.5C 0.461384,72.7354 0.794717,70.7354 0.5,68.5C 5.41259,55.5859 12.4126,43.9193 21.5,33.5C 22.1667,33.5 22.5,33.1667 22.5,32.5C 25.5,28.8333 28.8333,25.5 32.5,22.5C 33.1667,22.5 33.5,22.1667 33.5,21.5C 34.1667,21.5 34.5,21.1667 34.5,20.5C 35.1667,20.1667 35.8333,19.8333 36.5,19.5 Z"/></g>
    <g><path style="opacity:1" fill="#97630e" d="M 101.5,26.5 C 102.167,27.5 102.833,28.5 103.5,29.5C 103.5,30.1667 103.5,30.8333 103.5,31.5C 103.5,31.8333 103.5,32.1667 103.5,32.5C 103.5,34.5 103.5,36.5 103.5,38.5C 103.5,38.8333 103.5,39.1667 103.5,39.5C 103.5,40.1667 103.5,40.8333 103.5,41.5C 102.566,42.5676 102.232,43.901 102.5,45.5C 100.883,44.962 99.2161,44.6287 97.5,44.5C 98.1098,43.609 98.4431,42.609 98.5,41.5C 99.9395,39.412 100.606,37.0786 100.5,34.5C 101.473,32.0521 101.806,29.3854 101.5,26.5 Z"/></g>
    <g><path style="opacity:1" fill="#fdc907" d="M 84.5,39.5 C 87.9123,43.1806 91.2456,46.8472 94.5,50.5C 93.2411,54.0246 91.2411,57.0246 88.5,59.5C 85.1675,57 82.3342,54 80,50.5C 79.4926,49.0039 79.9926,47.8373 81.5,47C 80.944,46.6174 80.6107,46.1174 80.5,45.5C 81.3507,43.1184 82.684,41.1184 84.5,39.5 Z"/></g>
    <g><path style="opacity:1" fill="#ff7500" d="M 183.5,29.5 C 183.833,29.5 184.167,29.5 184.5,29.5C 183.213,32.4532 181.213,34.7865 178.5,36.5C 167.226,41.4162 155.559,44.4162 143.5,45.5C 129.893,46.2788 116.56,44.9454 103.5,41.5C 103.5,40.8333 103.5,40.1667 103.5,39.5C 105.435,40.1495 107.435,40.4828 109.5,40.5C 126.153,44.4142 142.82,44.4142 159.5,40.5C 163.258,40.6048 166.592,39.6048 169.5,37.5C 172.241,37.2927 174.574,36.2927 176.5,34.5C 177.609,34.4431 178.609,34.1098 179.5,33.5C 180.5,33.1667 181.167,32.5 181.5,31.5C 182.5,31.1667 183.167,30.5 183.5,29.5 Z"/></g>
    <g><path style="opacity:1" fill="#ffca0b" d="M 159.5,40.5 C 142.82,44.4142 126.153,44.4142 109.5,40.5C 126.171,39.1827 142.837,39.1827 159.5,40.5 Z"/></g>
    <g><path style="opacity:1" fill="#ffa20a" d="M 178.5,36.5 C 178.938,36.4346 179.272,36.6012 179.5,37C 178.177,37.8159 177.511,38.9826 177.5,40.5C 167.259,45.8096 156.259,48.4763 144.5,48.5C 146.658,46.78 149.325,45.9467 152.5,46C 149.518,45.502 146.518,45.3354 143.5,45.5C 155.559,44.4162 167.226,41.4162 178.5,36.5 Z"/></g>
    <g><path style="opacity:1" fill="#fead0f" d="M 103.5,41.5 C 116.56,44.9454 129.893,46.2788 143.5,45.5C 146.518,45.3354 149.518,45.502 152.5,46C 149.325,45.9467 146.658,46.78 144.5,48.5C 144.5,48.8333 144.5,49.1667 144.5,49.5C 130.277,50.274 116.277,48.9407 102.5,45.5C 102.232,43.901 102.566,42.5676 103.5,41.5 Z"/></g>
    <g><path style="opacity:1" fill="#fd7402" d="M 185.5,39.5 C 185.592,44.1909 185.592,49.1909 185.5,54.5C 181.909,58.0644 177.575,60.3977 172.5,61.5C 172.5,56.5 172.5,51.5 172.5,46.5C 177.065,44.6022 181.399,42.2689 185.5,39.5 Z"/></g>
    <g><path style="opacity:1" fill="#ffe9bf" d="M 189.5,28.5 C 190.756,30.7257 190.756,33.059 189.5,35.5C 187.833,36.5 186.5,37.8333 185.5,39.5C 181.399,42.2689 177.065,44.6022 172.5,46.5C 170.5,47.1667 168.5,47.8333 166.5,48.5C 162.574,49.5515 158.574,50.2182 154.5,50.5C 151.375,49.5206 148.042,49.1872 144.5,49.5C 144.5,49.1667 144.5,48.8333 144.5,48.5C 156.259,48.4763 167.259,45.8096 177.5,40.5C 183.833,38.8333 187.833,34.8333 189.5,28.5 Z"/></g>
    <g><path style="opacity:1" fill="#fa980d" d="M 189.5,35.5 C 189.334,40.1785 189.501,44.8452 190,49.5C 190.915,48.6721 191.581,47.6721 192,46.5C 192.333,43.1667 192.667,39.8333 193,36.5C 195.67,38.9793 197.17,41.9793 197.5,45.5C 196.693,50.8163 194.026,54.983 189.5,58C 186.233,60.1287 182.899,61.962 179.5,63.5C 174.6,64.9747 169.6,65.9747 164.5,66.5C 173.656,64.1703 181.823,59.837 189,53.5C 189.667,52.8333 189.667,52.1667 189,51.5C 187.961,52.7101 186.794,53.7101 185.5,54.5C 185.592,49.1909 185.592,44.1909 185.5,39.5C 186.5,37.8333 187.833,36.5 189.5,35.5 Z"/></g>
    <g><path style="opacity:1" fill="#fdf0d7" d="M 97.5,44.5 C 99.2161,44.6287 100.883,44.962 102.5,45.5C 116.277,48.9407 130.277,50.274 144.5,49.5C 148.042,49.1872 151.375,49.5206 154.5,50.5C 153.508,50.3284 152.842,50.6618 152.5,51.5C 142.527,52.3655 132.527,52.6988 122.5,52.5C 119.713,51.5233 116.713,51.19 113.5,51.5C 109.687,50.2133 105.687,49.2133 101.5,48.5C 99.9236,47.8571 98.5903,46.8571 97.5,45.5C 97.5,45.1667 97.5,44.8333 97.5,44.5 Z"/></g>
    <g><path style="opacity:1" fill="#fea304" d="M 172.5,46.5 C 172.5,51.5 172.5,56.5 172.5,61.5C 170.833,62.1667 169.167,62.8333 167.5,63.5C 167.726,58.4376 167.392,53.4376 166.5,48.5C 168.5,47.8333 170.5,47.1667 172.5,46.5 Z"/></g>
    <g><path style="opacity:1" fill="#feca0a" d="M 166.5,48.5 C 167.392,53.4376 167.726,58.4376 167.5,63.5C 164.598,64.5778 161.598,65.2444 158.5,65.5C 157.791,64.596 156.791,64.2627 155.5,64.5C 155.234,60.4295 155.567,56.4295 156.5,52.5C 155.311,51.5713 153.978,51.238 152.5,51.5C 152.842,50.6618 153.508,50.3284 154.5,50.5C 158.574,50.2182 162.574,49.5515 166.5,48.5 Z"/></g>
    <g><path style="opacity:1" fill="#fecb2b" d="M 101.5,48.5 C 105.687,49.2133 109.687,50.2133 113.5,51.5C 115.292,52.3091 117.292,52.8091 119.5,53C 117.273,53.121 115.44,53.9544 114,55.5C 113.619,58.4015 113.786,61.4015 114.5,64.5C 113.209,64.2627 112.209,64.596 111.5,65.5C 107.11,64.8083 102.776,63.8083 98.5,62.5C 99.815,57.9061 100.815,53.2394 101.5,48.5 Z"/></g>
    <g><path style="opacity:1" fill="#fed32b" d="M 113.5,51.5 C 116.713,51.19 119.713,51.5233 122.5,52.5C 128.75,53.3493 135.75,53.8493 143.5,54C 138.845,54.4992 134.179,54.6658 129.5,54.5C 127.167,54.5 124.833,54.5 122.5,54.5C 122.5,58.1667 122.5,61.8333 122.5,65.5C 120.265,65.2053 118.265,65.5386 116.5,66.5C 114.708,66.634 113.042,66.3007 111.5,65.5C 112.209,64.596 113.209,64.2627 114.5,64.5C 113.786,61.4015 113.619,58.4015 114,55.5C 115.44,53.9544 117.273,53.121 119.5,53C 117.292,52.8091 115.292,52.3091 113.5,51.5 Z"/></g>
    <g><path style="opacity:1" fill="#ff7600" d="M 76.5,39.5 C 65.1204,57.2131 50.4538,71.5464 32.5,82.5C 27.7299,84.6448 22.7299,85.9781 17.5,86.5C 14.447,86.7689 11.7803,85.9355 9.5,84C 9.72845,83.6012 10.0618,83.4346 10.5,83.5C 10.8333,83.5 11.1667,83.5 11.5,83.5C 14.8333,84.8333 18.1667,84.8333 21.5,83.5C 23.403,83.2041 25.0697,82.5375 26.5,81.5C 27.9587,81.5674 29.2921,81.2341 30.5,80.5C 51.2949,69.0394 66.9615,52.7061 77.5,31.5C 78.9313,30.2196 79.5979,28.5529 79.5,26.5C 80.6737,25.4863 81.3404,24.153 81.5,22.5C 81.5,21.5 81.5,20.5 81.5,19.5C 82.3019,18.0484 82.8019,16.3817 83,14.5C 83.2134,23.4204 81.0467,31.7537 76.5,39.5 Z"/></g>
    <g><path style="opacity:1" fill="#fcd023" d="M 129.5,54.5 C 130.27,58.4495 130.27,62.2828 129.5,66C 136.158,66.4996 142.825,66.6663 149.5,66.5C 141.684,67.4924 133.684,67.8257 125.5,67.5C 122.287,67.81 119.287,67.4767 116.5,66.5C 118.265,65.5386 120.265,65.2053 122.5,65.5C 122.5,61.8333 122.5,58.1667 122.5,54.5C 124.833,54.5 127.167,54.5 129.5,54.5 Z"/></g>
    <g><path style="opacity:1" fill="#fecf14" d="M 152.5,51.5 C 153.978,51.238 155.311,51.5713 156.5,52.5C 155.567,56.4295 155.234,60.4295 155.5,64.5C 156.791,64.2627 157.791,64.596 158.5,65.5C 155.57,66.299 152.57,66.6323 149.5,66.5C 142.825,66.6663 136.158,66.4996 129.5,66C 130.27,62.2828 130.27,58.4495 129.5,54.5C 134.179,54.6658 138.845,54.4992 143.5,54C 135.75,53.8493 128.75,53.3493 122.5,52.5C 132.527,52.6988 142.527,52.3655 152.5,51.5 Z"/></g>
    <g><path style="opacity:1" fill="#ffa40d" d="M 17.5,43.5 C 18.2279,45.2909 19.2279,45.9576 20.5,45.5C 18.1023,48.5712 16.1023,51.9046 14.5,55.5C 12.659,57.8485 11.3257,60.5152 10.5,63.5C 9.66175,63.8417 9.32842,64.5084 9.5,65.5C 7.82547,68.5072 7.1588,71.8405 7.5,75.5C 7.5,76.8333 7.5,78.1667 7.5,79.5C 6.68618,77.369 6.18618,75.0356 6,72.5C 5.33333,81.8333 4.66667,81.8333 4,72.5C 3.50335,74.8098 3.33669,77.1432 3.5,79.5C 3.16667,79.5 2.83333,79.5 2.5,79.5C 3.65067,65.869 8.65067,53.869 17.5,43.5 Z"/></g>
    <g><path style="opacity:1" fill="#ffe5ab" d="M 197.5,45.5 C 198.152,46.4486 198.486,47.6153 198.5,49C 198.518,51.4418 197.851,53.6085 196.5,55.5C 194.142,57.5293 191.808,59.5293 189.5,61.5C 186.833,62.8333 184.167,64.1667 181.5,65.5C 181.5,64.1667 180.833,63.5 179.5,63.5C 182.899,61.962 186.233,60.1287 189.5,58C 194.026,54.983 196.693,50.8163 197.5,45.5 Z"/></g>
    <g><path style="opacity:1" fill="#fdcf16" d="M 80.5,45.5 C 80.6107,46.1174 80.944,46.6174 81.5,47C 79.9926,47.8373 79.4926,49.0039 80,50.5C 82.3342,54 85.1675,57 88.5,59.5C 86.588,63.4167 84.2546,67.0834 81.5,70.5C 80.5,70.8333 79.8333,71.5 79.5,72.5C 77.8058,73.5274 76.4725,74.8608 75.5,76.5C 73.8333,77.1667 72.1667,77.8333 70.5,78.5C 68.066,75.5624 65.3993,72.7291 62.5,70C 64,68.5 65.5,67 67,65.5C 67.6917,64.5632 67.525,63.8966 66.5,63.5C 71.5796,57.762 76.2462,51.762 80.5,45.5 Z"/></g>
    <g><path style="opacity:1" fill="#965e07" d="M 97.5,45.5 C 98.5903,46.8571 99.9236,47.8571 101.5,48.5C 100.815,53.2394 99.815,57.9061 98.5,62.5C 98.8333,63.1667 99.1667,63.8333 99.5,64.5C 98.5,64.5 97.5,64.5 96.5,64.5C 95.6629,68.1763 94.3296,71.6763 92.5,75C 96.7436,78.2885 101.41,80.7885 106.5,82.5C 113.302,84.8007 120.302,86.134 127.5,86.5C 134.078,87.4601 140.745,87.7934 147.5,87.5C 147.5,87.8333 147.5,88.1667 147.5,88.5C 137.448,88.7838 127.448,88.4504 117.5,87.5C 112.756,85.5583 107.756,84.0583 102.5,83C 99.0061,81.4205 95.6728,79.5872 92.5,77.5C 91.4777,77.8555 90.811,78.5222 90.5,79.5C 86.4784,77.4784 83.4784,74.4784 81.5,70.5C 84.2546,67.0834 86.588,63.4167 88.5,59.5C 91.2411,57.0246 93.2411,54.0246 94.5,50.5C 95.6873,48.9275 96.6873,47.2608 97.5,45.5 Z"/></g>
    <g><path style="opacity:1" fill="#ffac19" d="M 76.5,39.5 C 77.5,40.1667 78.5,40.8333 79.5,41.5C 69.4786,58.8547 55.812,72.5214 38.5,82.5C 36.2589,82.9539 34.2589,82.9539 32.5,82.5C 50.4538,71.5464 65.1204,57.2131 76.5,39.5 Z"/></g>
    <g><path style="opacity:0.016" fill="#ffea28" d="M -0.5,65.5 C 0.403972,66.209 0.737305,67.209 0.5,68.5C 0.166667,68.5 -0.166667,68.5 -0.5,68.5C -0.5,67.5 -0.5,66.5 -0.5,65.5 Z"/></g>
    <g><path style="opacity:1" fill="#a96e08" d="M 164.5,66.5 C 158.631,67.954 152.631,68.6207 146.5,68.5C 139.313,68.8245 132.313,68.4912 125.5,67.5C 133.684,67.8257 141.684,67.4924 149.5,66.5C 152.57,66.6323 155.57,66.299 158.5,65.5C 161.598,65.2444 164.598,64.5778 167.5,63.5C 169.167,62.8333 170.833,62.1667 172.5,61.5C 177.575,60.3977 181.909,58.0644 185.5,54.5C 186.794,53.7101 187.961,52.7101 189,51.5C 189.667,52.1667 189.667,52.8333 189,53.5C 181.823,59.837 173.656,64.1703 164.5,66.5 Z"/></g>
    <g><path style="opacity:1" fill="#fe7702" d="M 189.5,61.5 C 189.666,66.5111 189.499,71.5111 189,76.5C 186.838,78.4962 184.338,79.8295 181.5,80.5C 180.833,80.5 180.167,80.5 179.5,80.5C 179.774,75.737 179.441,71.0704 178.5,66.5C 179.391,65.8902 180.391,65.5569 181.5,65.5C 184.167,64.1667 186.833,62.8333 189.5,61.5 Z"/></g>
    <g><path style="opacity:1" fill="#fb9c0d" d="M 99.5,64.5 C 102.018,65.2638 104.351,66.2638 106.5,67.5C 106.365,72.711 106.365,77.711 106.5,82.5C 101.41,80.7885 96.7436,78.2885 92.5,75C 94.3296,71.6763 95.6629,68.1763 96.5,64.5C 97.5,64.5 98.5,64.5 99.5,64.5 Z"/></g>
    <g><path style="opacity:1" fill="#a89a85" d="M 98.5,62.5 C 102.776,63.8083 107.11,64.8083 111.5,65.5C 113.042,66.3007 114.708,66.634 116.5,66.5C 119.287,67.4767 122.287,67.81 125.5,67.5C 132.313,68.4912 139.313,68.8245 146.5,68.5C 137.348,69.4936 128.015,69.8269 118.5,69.5C 114.462,69.0422 110.462,68.3755 106.5,67.5C 104.351,66.2638 102.018,65.2638 99.5,64.5C 99.1667,63.8333 98.8333,63.1667 98.5,62.5 Z"/></g>
    <g><path style="opacity:1" fill="#ffa906" d="M 178.5,66.5 C 179.441,71.0704 179.774,75.737 179.5,80.5C 177.786,81.7384 175.786,82.405 173.5,82.5C 173.5,77.8333 173.5,73.1667 173.5,68.5C 174.93,67.4625 176.597,66.7959 178.5,66.5 Z"/></g>
    <g><path style="opacity:0.008" fill="#ff8e00" d="M 198.5,68.5 C 198.833,68.5 199.167,68.5 199.5,68.5C 199.5,69.1667 199.5,69.8333 199.5,70.5C 199.167,70.5 198.833,70.5 198.5,70.5C 198.5,69.8333 198.5,69.1667 198.5,68.5 Z"/></g>
    <g><path style="opacity:0.999" fill="#ffd226" d="M 66.5,63.5 C 67.525,63.8966 67.6917,64.5632 67,65.5C 65.5,67 64,68.5 62.5,70C 65.3993,72.7291 68.066,75.5624 70.5,78.5C 69.1879,80.4788 67.5212,82.1455 65.5,83.5C 63.0163,81.517 60.6829,79.3504 58.5,77C 57.255,76.2086 55.9217,75.7086 54.5,75.5C 58.1667,71.1667 62.1667,67.1667 66.5,63.5 Z"/></g>
    <g><path style="opacity:1" fill="#fcf3de" d="M 179.5,63.5 C 180.833,63.5 181.5,64.1667 181.5,65.5C 180.391,65.5569 179.391,65.8902 178.5,66.5C 176.597,66.7959 174.93,67.4625 173.5,68.5C 169.193,69.3266 164.86,69.9933 160.5,70.5C 156.846,70.9422 153.179,71.2756 149.5,71.5C 149.167,71.5 148.833,71.5 148.5,71.5C 138.476,71.6656 128.476,71.3323 118.5,70.5C 118.5,70.1667 118.5,69.8333 118.5,69.5C 128.015,69.8269 137.348,69.4936 146.5,68.5C 152.631,68.6207 158.631,67.954 164.5,66.5C 169.6,65.9747 174.6,64.9747 179.5,63.5 Z"/></g>
    <g><path style="opacity:1" fill="#fecc07" d="M 173.5,68.5 C 173.5,73.1667 173.5,77.8333 173.5,82.5C 170.781,83.913 167.781,84.5797 164.5,84.5C 163.085,80.804 162.085,76.9707 161.5,73C 162.833,72.6667 164.167,72.3333 165.5,72C 163.618,71.8019 161.952,71.3019 160.5,70.5C 164.86,69.9933 169.193,69.3266 173.5,68.5 Z"/></g>
    <g><path style="opacity:0.016" fill="#febf00" d="M 197.5,70.5 C 197.833,70.5 198.167,70.5 198.5,70.5C 198.315,71.1701 197.981,71.1701 197.5,70.5 Z"/></g>
    <g><path style="opacity:0.02" fill="#fe9900" d="M 196.5,71.5 C 196.833,71.5 197.167,71.5 197.5,71.5C 197.315,72.1701 196.981,72.1701 196.5,71.5 Z"/></g>
    <g><path style="opacity:1" fill="#fcc92a" d="M 106.5,67.5 C 110.462,68.3755 114.462,69.0422 118.5,69.5C 118.5,69.8333 118.5,70.1667 118.5,70.5C 119.609,71.29 120.942,71.79 122.5,72C 121.833,72.3333 121.167,72.6667 120.5,73C 120.603,76.4687 120.769,79.9687 121,83.5C 123.533,83.9496 125.7,84.9496 127.5,86.5C 120.302,86.134 113.302,84.8007 106.5,82.5C 106.365,77.711 106.365,72.711 106.5,67.5 Z"/></g>
    <g><path style="opacity:0.016" fill="#fe8000" d="M 195.5,72.5 C 195.833,72.5 196.167,72.5 196.5,72.5C 196.315,73.1701 195.981,73.1701 195.5,72.5 Z"/></g>
    <g><path style="opacity:1" fill="#fff5de" d="M 86.5,32.5 C 85.5448,34.7457 84.8782,37.079 84.5,39.5C 82.684,41.1184 81.3507,43.1184 80.5,45.5C 76.2462,51.762 71.5796,57.762 66.5,63.5C 62.1667,67.1667 58.1667,71.1667 54.5,75.5C 51.8908,76.4431 49.8908,78.1097 48.5,80.5C 46.1475,81.3403 44.1475,82.6736 42.5,84.5C 39.9959,85.5839 37.6626,86.9172 35.5,88.5C 34.8333,88.5 34.1667,88.5 33.5,88.5C 31.3023,88.5912 30.9689,87.9245 32.5,86.5C 34.7952,85.5254 36.7952,84.1921 38.5,82.5C 55.812,72.5214 69.4786,58.8547 79.5,41.5C 81.1667,38.1667 82.8333,34.8333 84.5,31.5C 85.9245,29.9689 86.5912,30.3023 86.5,32.5 Z"/></g>
    <g><path style="opacity:1" fill="#fdd129" d="M 118.5,70.5 C 128.476,71.3323 138.476,71.6656 148.5,71.5C 144.353,72.3247 140.019,72.8247 135.5,73C 139.167,73.3333 142.833,73.6667 146.5,74C 143.183,74.4983 139.85,74.665 136.5,74.5C 137.221,77.8175 137.388,81.1508 137,84.5C 134.595,85.2744 132.095,85.7744 129.5,86C 137.159,86.4997 144.826,86.6664 152.5,86.5C 151.081,87.4511 149.415,87.7845 147.5,87.5C 140.745,87.7934 134.078,87.4601 127.5,86.5C 125.7,84.9496 123.533,83.9496 121,83.5C 120.769,79.9687 120.603,76.4687 120.5,73C 121.167,72.6667 121.833,72.3333 122.5,72C 120.942,71.79 119.609,71.29 118.5,70.5 Z"/></g>
    <g><path style="opacity:1" fill="#fed017" d="M 148.5,71.5 C 148.833,71.5 149.167,71.5 149.5,71.5C 152.305,72.3195 155.305,72.8195 158.5,73C 156.527,73.4955 154.527,73.6621 152.5,73.5C 152.5,77.1667 152.5,80.8333 152.5,84.5C 154.95,84.298 157.283,84.6314 159.5,85.5C 157.393,86.4682 155.059,86.8016 152.5,86.5C 144.826,86.6664 137.159,86.4997 129.5,86C 132.095,85.7744 134.595,85.2744 137,84.5C 137.388,81.1508 137.221,77.8175 136.5,74.5C 139.85,74.665 143.183,74.4983 146.5,74C 142.833,73.6667 139.167,73.3333 135.5,73C 140.019,72.8247 144.353,72.3247 148.5,71.5 Z"/></g>
    <g><path style="opacity:1" fill="#fece11" d="M 160.5,70.5 C 161.952,71.3019 163.618,71.8019 165.5,72C 164.167,72.3333 162.833,72.6667 161.5,73C 162.085,76.9707 163.085,80.804 164.5,84.5C 163.081,85.4511 161.415,85.7845 159.5,85.5C 157.283,84.6314 154.95,84.298 152.5,84.5C 152.5,80.8333 152.5,77.1667 152.5,73.5C 154.527,73.6621 156.527,73.4955 158.5,73C 155.305,72.8195 152.305,72.3195 149.5,71.5C 153.179,71.2756 156.846,70.9422 160.5,70.5 Z"/></g>
    <g><path style="opacity:0.016" fill="#fe8000" d="M 194.5,73.5 C 194.833,73.5 195.167,73.5 195.5,73.5C 195.315,74.1701 194.981,74.1701 194.5,73.5 Z"/></g>
    <g><path style="opacity:1" fill="#926505" d="M 79.5,72.5 C 81.5831,76.9177 84.9164,79.9177 89.5,81.5C 89.5,81.8333 89.5,82.1667 89.5,82.5C 87.4083,85.681 85.075,88.681 82.5,91.5C 81.0613,89.6397 79.3947,87.973 77.5,86.5C 77.6716,85.5084 77.3382,84.8417 76.5,84.5C 76.2041,82.597 75.5375,80.9303 74.5,79.5C 74.5,79.1667 74.5,78.8333 74.5,78.5C 75.1667,78.5 75.5,78.1667 75.5,77.5C 75.5,77.1667 75.5,76.8333 75.5,76.5C 76.4725,74.8608 77.8058,73.5274 79.5,72.5 Z"/></g>
    <g><path style="opacity:0.999" fill="#ffd52a" d="M 54.5,75.5 C 55.9217,75.7086 57.255,76.2086 58.5,77C 60.6829,79.3504 63.0163,81.517 65.5,83.5C 67.5212,82.1455 69.1879,80.4788 70.5,78.5C 72.1667,77.8333 73.8333,77.1667 75.5,76.5C 75.5,76.8333 75.5,77.1667 75.5,77.5C 74.8333,77.5 74.5,77.8333 74.5,78.5C 73.8333,78.5 73.5,78.8333 73.5,79.5C 72.8333,79.5 72.5,79.8333 72.5,80.5C 69.4552,83.5466 66.1219,86.2133 62.5,88.5C 61.2928,87.8112 59.9594,87.6446 58.5,88C 54.9644,85.6123 51.6311,83.1123 48.5,80.5C 49.8908,78.1097 51.8908,76.4431 54.5,75.5 Z"/></g>
    <g><path style="opacity:1" fill="#978a69" d="M 81.5,70.5 C 83.4784,74.4784 86.4784,77.4784 90.5,79.5C 90.1667,80.1667 89.8333,80.8333 89.5,81.5C 84.9164,79.9177 81.5831,76.9177 79.5,72.5C 79.8333,71.5 80.5,70.8333 81.5,70.5 Z"/></g>
    <g><path style="opacity:0.998" fill="#ffd42e" d="M 48.5,80.5 C 51.6311,83.1123 54.9644,85.6123 58.5,88C 59.9594,87.6446 61.2928,87.8112 62.5,88.5C 58.4654,91.8573 54.1321,94.8573 49.5,97.5C 49.5743,95.5891 50.5743,94.4224 52.5,94C 50.1279,90.9696 47.7945,87.9696 45.5,85C 44.552,84.5172 43.552,84.3505 42.5,84.5C 44.1475,82.6736 46.1475,81.3403 48.5,80.5 Z"/></g>
    <g><path style="opacity:0.006" fill="#5f4e1c" d="M 73.5,79.5 C 73.8333,79.5 74.1667,79.5 74.5,79.5C 74.6547,82.8531 73.9881,83.1864 72.5,80.5C 73.1667,80.5 73.5,80.1667 73.5,79.5 Z"/></g>
    <g><path style="opacity:0.637" fill="#ffe76e" d="M 2.5,79.5 C 2.83333,79.5 3.16667,79.5 3.5,79.5C 4.02315,82.878 5.35648,85.878 7.5,88.5C 7.5,89.1667 7.5,89.8333 7.5,90.5C 7.16667,90.5 6.83333,90.5 6.5,90.5C 4.47266,89.1394 2.806,87.4727 1.5,85.5C 0.962003,83.8828 0.628669,82.2161 0.5,80.5C 1.16667,80.1667 1.83333,79.8333 2.5,79.5 Z"/></g>
    <g><path style="opacity:1" fill="#f49c22" d="M 117.5,87.5 C 107.876,86.8438 98.8764,84.1771 90.5,79.5C 90.811,78.5222 91.4777,77.8555 92.5,77.5C 95.6728,79.5872 99.0061,81.4205 102.5,83C 107.756,84.0583 112.756,85.5583 117.5,87.5 Z"/></g>
    <g><path style="opacity:1" fill="#ff990c" d="M 7.5,79.5 C 7.83333,80.5 8.5,81.1667 9.5,81.5C 9.83333,82.1667 10.1667,82.8333 10.5,83.5C 10.0618,83.4346 9.72845,83.6012 9.5,84C 11.7803,85.9355 14.447,86.7689 17.5,86.5C 22.7299,85.9781 27.7299,84.6448 32.5,82.5C 34.2589,82.9539 36.2589,82.9539 38.5,82.5C 36.7952,84.1921 34.7952,85.5254 32.5,86.5C 24.3876,90.679 16.0543,91.3457 7.5,88.5C 5.35648,85.878 4.02315,82.878 3.5,79.5C 3.33669,77.1432 3.50335,74.8098 4,72.5C 4.66667,81.8333 5.33333,81.8333 6,72.5C 6.18618,75.0356 6.68618,77.369 7.5,79.5 Z"/></g>
    <g><path style="opacity:0.012" fill="#efa33b" d="M 193.5,74.5 C 193.833,74.5 194.167,74.5 194.5,74.5C 194.817,78.7016 194.483,82.7016 193.5,86.5C 193.5,82.5 193.5,78.5 193.5,74.5 Z"/></g>
    <g><path style="opacity:1" fill="#f28e05" d="M 196.5,55.5 C 196.365,60.711 196.365,65.711 196.5,70.5C 196.5,70.8333 196.5,71.1667 196.5,71.5C 195.833,71.5 195.5,71.8333 195.5,72.5C 194.833,72.5 194.5,72.8333 194.5,73.5C 193.833,73.5 193.5,73.8333 193.5,74.5C 192.662,74.8417 192.328,75.5084 192.5,76.5C 191.027,77.7401 189.36,78.7401 187.5,79.5C 186.508,83.7828 186.174,88.1161 186.5,92.5C 186.027,93.9063 185.027,94.573 183.5,94.5C 183.5,90.5 183.5,86.5 183.5,82.5C 182.5,82.5 181.5,82.5 180.5,82.5C 180.833,81.8333 181.167,81.1667 181.5,80.5C 184.338,79.8295 186.838,78.4962 189,76.5C 189.499,71.5111 189.666,66.5111 189.5,61.5C 191.808,59.5293 194.142,57.5293 196.5,55.5 Z"/></g>
    <g><path style="opacity:1" fill="#fe920d" d="M 89.5,82.5 C 92.1667,83.5 94.8333,84.5 97.5,85.5C 97.0825,86.2216 96.4158,86.7216 95.5,87C 97.0561,91.4006 96.7228,95.5673 94.5,99.5C 89.5051,98.3352 85.5051,95.6685 82.5,91.5C 85.075,88.681 87.4083,85.681 89.5,82.5 Z"/></g>
    <g><path style="opacity:1" fill="#ac9d84" d="M 179.5,80.5 C 180.167,80.5 180.833,80.5 181.5,80.5C 181.167,81.1667 180.833,81.8333 180.5,82.5C 177.982,83.2638 175.649,84.2638 173.5,85.5C 172.041,85.4326 170.708,85.7659 169.5,86.5C 168.167,86.8333 166.833,87.1667 165.5,87.5C 163.5,87.8333 161.5,88.1667 159.5,88.5C 155.5,88.5 151.5,88.5 147.5,88.5C 147.5,88.1667 147.5,87.8333 147.5,87.5C 149.415,87.7845 151.081,87.4511 152.5,86.5C 155.059,86.8016 157.393,86.4682 159.5,85.5C 161.415,85.7845 163.081,85.4511 164.5,84.5C 167.781,84.5797 170.781,83.913 173.5,82.5C 175.786,82.405 177.786,81.7384 179.5,80.5 Z"/></g>
    <g><path style="opacity:1" fill="#fc7207" d="M 180.5,82.5 C 181.5,82.5 182.5,82.5 183.5,82.5C 183.5,86.5 183.5,90.5 183.5,94.5C 181.244,97.4053 178.244,99.072 174.5,99.5C 174.819,94.6367 174.486,89.97 173.5,85.5C 175.649,84.2638 177.982,83.2638 180.5,82.5 Z"/></g>
    <g><path style="opacity:0.004" fill="#ffe9d3" d="M 1.5,85.5 C 1.63101,86.2389 1.46434,86.9056 1,87.5C 0.308314,86.5632 0.474981,85.8966 1.5,85.5 Z"/></g>
    <g><path style="opacity:0.999" fill="#fe9904" d="M 173.5,85.5 C 174.486,89.97 174.819,94.6367 174.5,99.5C 173.07,100.537 171.403,101.204 169.5,101.5C 169.5,96.5 169.5,91.5 169.5,86.5C 170.708,85.7659 172.041,85.4326 173.5,85.5 Z"/></g>
    <g><path style="opacity:0.993" fill="#ffb41c" d="M 42.5,84.5 C 43.552,84.3505 44.552,84.5172 45.5,85C 47.7945,87.9696 50.1279,90.9696 52.5,94C 50.5743,94.4224 49.5743,95.5891 49.5,97.5C 48.8333,97.5 48.5,97.8333 48.5,98.5C 47.8333,98.5 47.5,98.8333 47.5,99.5C 46.1667,99.8333 44.8333,100.167 43.5,100.5C 41.8354,95.9913 38.8354,92.4913 34.5,90C 35.056,89.6174 35.3893,89.1174 35.5,88.5C 37.6626,86.9172 39.9959,85.5839 42.5,84.5 Z"/></g>
    <g><path style="opacity:1" fill="#ffb520" d="M 97.5,85.5 C 100.699,86.8991 104.032,87.8991 107.5,88.5C 106.737,89.2679 105.737,89.7679 104.5,90C 105.622,93.4085 105.789,96.9085 105,100.5C 104.005,101.066 103.172,101.733 102.5,102.5C 99.4582,102.267 96.7916,101.267 94.5,99.5C 96.7228,95.5673 97.0561,91.4006 95.5,87C 96.4158,86.7216 97.0825,86.2216 97.5,85.5 Z"/></g>
    <g><path style="opacity:1" fill="#f9eed5" d="M 90.5,79.5 C 98.8764,84.1771 107.876,86.8438 117.5,87.5C 127.448,88.4504 137.448,88.7838 147.5,88.5C 151.5,88.5 155.5,88.5 159.5,88.5C 155.409,89.8951 151.076,90.7285 146.5,91C 138.507,91.4997 130.507,91.6664 122.5,91.5C 119.713,90.5233 116.713,90.19 113.5,90.5C 111.626,89.7148 109.626,89.0482 107.5,88.5C 104.032,87.8991 100.699,86.8991 97.5,85.5C 94.8333,84.5 92.1667,83.5 89.5,82.5C 89.5,82.1667 89.5,81.8333 89.5,81.5C 89.8333,80.8333 90.1667,80.1667 90.5,79.5 Z"/></g>
    <g><path style="opacity:1" fill="#ffc706" d="M 169.5,86.5 C 169.5,91.5 169.5,96.5 169.5,101.5C 167.299,102.566 164.965,103.233 162.5,103.5C 160.019,102.742 157.352,102.742 154.5,103.5C 155.165,99.8632 155.832,96.1965 156.5,92.5C 159.062,91.3591 161.728,90.5257 164.5,90C 165.252,89.3292 165.586,88.4959 165.5,87.5C 166.833,87.1667 168.167,86.8333 169.5,86.5 Z"/></g>
    <g><path style="opacity:0.008" fill="#fe807f" d="M 197.5,91.5 C 196.833,90.1667 196.833,90.1667 197.5,91.5 Z"/></g>
    <g><path style="opacity:1" fill="#ffeab1" d="M 32.5,86.5 C 30.9689,87.9245 31.3023,88.5912 33.5,88.5C 29.0528,91.5341 24.0528,93.2007 18.5,93.5C 14.3344,94.0561 10.6677,93.0561 7.5,90.5C 7.5,89.8333 7.5,89.1667 7.5,88.5C 16.0543,91.3457 24.3876,90.679 32.5,86.5 Z"/></g>
    <g><path style="opacity:1" fill="#ffd132" d="M 107.5,88.5 C 109.626,89.0482 111.626,89.7148 113.5,90.5C 113.91,94.5453 114.244,98.3787 114.5,102C 109.614,102.667 109.614,103.833 114.5,105.5C 110.2,105.245 106.2,104.245 102.5,102.5C 103.172,101.733 104.005,101.066 105,100.5C 105.789,96.9085 105.622,93.4085 104.5,90C 105.737,89.7679 106.737,89.2679 107.5,88.5 Z"/></g>
    <g><path style="opacity:1" fill="#fece10" d="M 165.5,87.5 C 165.586,88.4959 165.252,89.3292 164.5,90C 161.728,90.5257 159.062,91.3591 156.5,92.5C 155.832,96.1965 155.165,99.8632 154.5,103.5C 151.5,103.5 148.5,103.5 145.5,103.5C 145.5,100.167 145.5,96.8333 145.5,93.5C 138.255,92.5009 130.255,92.1676 121.5,92.5C 121.5,91.8333 121.833,91.5 122.5,91.5C 130.507,91.6664 138.507,91.4997 146.5,91C 151.076,90.7285 155.409,89.8951 159.5,88.5C 161.5,88.1667 163.5,87.8333 165.5,87.5 Z"/></g>
    <g><path style="opacity:0.004" fill="#feff00" d="M 197.5,91.5 C 198.833,92.1667 198.833,92.1667 197.5,91.5 Z"/></g>
    <g><path style="opacity:0.334" fill="#febf21" d="M 192.5,76.5 C 192.187,80.0419 192.521,83.3752 193.5,86.5C 192.953,88.712 193.953,90.3787 196.5,91.5C 196.427,93.0269 197.094,94.0269 198.5,94.5C 198.328,95.4916 198.662,96.1583 199.5,96.5C 199.5,96.8333 199.5,97.1667 199.5,97.5C 198.833,98.1667 198.167,98.8333 197.5,99.5C 196.649,97.2903 195.316,95.2903 193.5,93.5C 192.775,97.5319 191.942,101.532 191,105.5C 190,106.5 189,107.5 188,108.5C 187.077,104.21 186.577,99.8766 186.5,95.5C 187.476,94.1851 188.476,92.8518 189.5,91.5C 189.333,91.1667 189.167,90.8333 189,90.5C 188.292,91.3805 187.458,92.0472 186.5,92.5C 186.174,88.1161 186.508,83.7828 187.5,79.5C 189.36,78.7401 191.027,77.7401 192.5,76.5 Z"/></g>
    <g><path style="opacity:0.998" fill="#ff960b" d="M 33.5,88.5 C 34.1667,88.5 34.8333,88.5 35.5,88.5C 35.3893,89.1174 35.056,89.6174 34.5,90C 38.8354,92.4913 41.8354,95.9913 43.5,100.5C 41.4261,101.514 39.4261,102.514 37.5,103.5C 35.901,103.232 34.5676,103.566 33.5,104.5C 31.396,104.201 29.396,104.534 27.5,105.5C 24.4557,108.873 21.4557,112.207 18.5,115.5C 16.5,115.5 14.5,115.5 12.5,115.5C 18.2113,112.294 23.2113,108.127 27.5,103C 23.553,100.558 20.553,97.3913 18.5,93.5C 24.0528,93.2007 29.0528,91.5341 33.5,88.5 Z"/></g>
    <g><path style="opacity:0.008" fill="#fe807f" d="M 199.5,93.5 C 199.5,93.8333 199.5,94.1667 199.5,94.5C 198.83,94.0187 198.83,93.6853 199.5,93.5 Z"/></g>
    <g><path style="opacity:0.998" fill="#ffbf0b" d="M 6.5,90.5 C 6.83333,90.5 7.16667,90.5 7.5,90.5C 10.6677,93.0561 14.3344,94.0561 18.5,93.5C 20.553,97.3913 23.553,100.558 27.5,103C 23.2113,108.127 18.2113,112.294 12.5,115.5C 12.1667,115.5 11.8333,115.5 11.5,115.5C 9.0202,116.242 6.68686,117.242 4.5,118.5C 8.66392,113.503 13.3306,109.003 18.5,105C 16.1582,103.608 16.1582,102.775 18.5,102.5C 14.1938,98.8604 10.1938,94.8604 6.5,90.5 Z M 18.5,102.5 C 19.9217,102.709 21.255,103.209 22.5,104C 20.6476,104.773 19.3143,104.273 18.5,102.5 Z"/></g>
    <g><path style="opacity:0.298" fill="#feb409" d="M 76.5,84.5 C 77.3382,84.8417 77.6716,85.5084 77.5,86.5C 79.0948,90.4154 81.4282,93.7488 84.5,96.5C 84.2062,98.2755 84.0395,100.276 84,102.5C 83.5,103 83,103.5 82.5,104C 83.4231,106.041 83.7564,108.208 83.5,110.5C 82.8333,110.5 82.1667,110.5 81.5,110.5C 79.8277,107.978 78.3277,105.312 77,102.5C 76.5005,96.5092 76.3338,90.5092 76.5,84.5 Z"/></g>
    <g><path style="opacity:0.004" fill="#ffce18" d="M 48.5,98.5 C 50.9752,98.7467 50.9752,99.4134 48.5,100.5C 47.8933,100.376 47.56,100.043 47.5,99.5C 48.1667,99.5 48.5,99.1667 48.5,98.5 Z"/></g>
    <g><path style="opacity:0.268" fill="#fd7d02" d="M 182.5,98.5 C 183.933,102.986 184.933,107.653 185.5,112.5C 180.647,115.093 175.647,117.426 170.5,119.5C 170.879,115.418 169.879,111.751 167.5,108.5C 168.63,107.378 169.297,106.044 169.5,104.5C 173.889,102.808 178.222,100.808 182.5,98.5 Z"/></g>
    <g><path style="opacity:0.02" fill="#ff8dfd" d="M 37.5,103.5 C 39.1033,103.312 40.4366,103.812 41.5,105C 40.9056,105.464 40.2389,105.631 39.5,105.5C 38.8333,104.833 38.1667,104.167 37.5,103.5 Z"/></g>
    <g><path style="opacity:0.259" fill="#fff2d5" d="M 77.5,86.5 C 79.3947,87.973 81.0613,89.6397 82.5,91.5C 85.5051,95.6685 89.5051,98.3352 94.5,99.5C 96.7916,101.267 99.4582,102.267 102.5,102.5C 106.2,104.245 110.2,105.245 114.5,105.5C 115.167,105.5 115.833,105.5 116.5,105.5C 120.634,106.485 124.968,106.818 129.5,106.5C 140.796,107.111 151.796,106.111 162.5,103.5C 164.965,103.233 167.299,102.566 169.5,101.5C 171.403,101.204 173.07,100.537 174.5,99.5C 178.244,99.072 181.244,97.4053 183.5,94.5C 185.027,94.573 186.027,93.9063 186.5,92.5C 187.458,92.0472 188.292,91.3805 189,90.5C 189.167,90.8333 189.333,91.1667 189.5,91.5C 188.476,92.8518 187.476,94.1851 186.5,95.5C 185.128,96.5116 183.795,97.5116 182.5,98.5C 178.222,100.808 173.889,102.808 169.5,104.5C 162.235,106.22 154.902,107.553 147.5,108.5C 146.167,108.5 144.833,108.5 143.5,108.5C 132.034,108.99 120.701,108.324 109.5,106.5C 105.416,105.812 101.416,104.812 97.5,103.5C 92.9347,101.602 88.6013,99.2689 84.5,96.5C 81.4282,93.7488 79.0948,90.4154 77.5,86.5 Z"/></g>
    <g><path style="opacity:0.999" fill="#ffd11a" d="M 145.5,93.5 C 145.5,96.8333 145.5,100.167 145.5,103.5C 148.5,103.5 151.5,103.5 154.5,103.5C 157.352,102.742 160.019,102.742 162.5,103.5C 151.796,106.111 140.796,107.111 129.5,106.5C 131.969,105.683 134.635,105.183 137.5,105C 134.629,104.882 131.962,104.216 129.5,103C 130.747,100.098 130.747,96.9311 129.5,93.5C 134.833,93.5 140.167,93.5 145.5,93.5 Z"/></g>
    <g><path style="opacity:0.999" fill="#ffd32b" d="M 121.5,92.5 C 130.255,92.1676 138.255,92.5009 145.5,93.5C 140.167,93.5 134.833,93.5 129.5,93.5C 130.747,96.9311 130.747,100.098 129.5,103C 131.962,104.216 134.629,104.882 137.5,105C 134.635,105.183 131.969,105.683 129.5,106.5C 124.968,106.818 120.634,106.485 116.5,105.5C 119.247,105.813 121.914,105.48 124.5,104.5C 122.867,100.672 121.867,96.6715 121.5,92.5 Z"/></g>
    <g><path style="opacity:0.999" fill="#ffd429" d="M 113.5,90.5 C 116.713,90.19 119.713,90.5233 122.5,91.5C 121.833,91.5 121.5,91.8333 121.5,92.5C 121.867,96.6715 122.867,100.672 124.5,104.5C 121.914,105.48 119.247,105.813 116.5,105.5C 115.833,105.5 115.167,105.5 114.5,105.5C 109.614,103.833 109.614,102.667 114.5,102C 114.244,98.3787 113.91,94.5453 113.5,90.5 Z"/></g>
    <g><path style="opacity:0.254" fill="#f6910b" d="M 197.5,99.5 C 196.447,109.397 191.113,115.897 181.5,119C 176.008,121.221 170.341,122.721 164.5,123.5C 169.017,121.599 173.683,119.766 178.5,118C 181.266,116.629 183.599,114.796 185.5,112.5C 184.933,107.653 183.933,102.986 182.5,98.5C 183.795,97.5116 185.128,96.5116 186.5,95.5C 186.577,99.8766 187.077,104.21 188,108.5C 189,107.5 190,106.5 191,105.5C 191.942,101.532 192.775,97.5319 193.5,93.5C 195.316,95.2903 196.649,97.2903 197.5,99.5 Z"/></g>
    <g><path style="opacity:0.234" fill="#fe9205" d="M 84.5,96.5 C 88.6013,99.2689 92.9347,101.602 97.5,103.5C 98.09,108.604 98.09,113.604 97.5,118.5C 97.1667,118.5 96.8333,118.5 96.5,118.5C 91.4072,117.118 87.0739,114.451 83.5,110.5C 83.7564,108.208 83.4231,106.041 82.5,104C 83,103.5 83.5,103 84,102.5C 84.0395,100.276 84.2062,98.2755 84.5,96.5 Z"/></g>
    <g><path style="opacity:0.231" fill="#ffd136" d="M 109.5,106.5 C 120.701,108.324 132.034,108.99 143.5,108.5C 137.681,109.328 131.681,109.828 125.5,110C 131.5,110.333 137.5,110.667 143.5,111C 140.183,111.498 136.85,111.665 133.5,111.5C 126.857,112.165 120.191,112.665 113.5,113C 111.018,114.628 109.018,113.961 107.5,111C 109.141,109.354 108.807,108.354 106.5,108C 107.737,107.768 108.737,107.268 109.5,106.5 Z"/></g>
    <g><path style="opacity:0.18" fill="#fecd0f" d="M 47.5,109.5 C 56.7277,115.06 65.3943,121.394 73.5,128.5C 73.5,128.833 73.5,129.167 73.5,129.5C 71.8297,129.249 70.3297,128.582 69,127.5C 62.7341,128.149 56.5674,128.815 50.5,129.5C 46.5172,127.194 42.5172,124.861 38.5,122.5C 39.6869,117.81 42.5203,114.476 47,112.5C 47.4828,111.552 47.6495,110.552 47.5,109.5 Z"/></g>
    <g><path style="opacity:0.214" fill="#ff7703" d="M 33.5,104.5 C 35.5,104.833 37.5,105.167 39.5,105.5C 40.2905,106.401 41.2905,107.068 42.5,107.5C 40.0313,111.308 36.6979,113.974 32.5,115.5C 31.8728,116.417 31.5394,117.417 31.5,118.5C 27.3111,116.882 22.9777,115.882 18.5,115.5C 21.4557,112.207 24.4557,108.873 27.5,105.5C 29.396,104.534 31.396,104.201 33.5,104.5 Z"/></g>
    <g><path style="opacity:0.189" fill="#fdc810" d="M 169.5,104.5 C 169.297,106.044 168.63,107.378 167.5,108.5C 169.879,111.751 170.879,115.418 170.5,119.5C 156.477,123.502 142.144,125.169 127.5,124.5C 124.287,124.81 121.287,124.477 118.5,123.5C 127.839,123.666 137.173,123.5 146.5,123C 144.5,122.667 142.5,122.333 140.5,122C 140.833,121.667 141.167,121.333 141.5,121C 146.167,120.667 150.833,120.333 155.5,120C 151.5,119.667 147.5,119.333 143.5,119C 143.833,118.667 144.167,118.333 144.5,118C 142.616,117.784 140.949,117.117 139.5,116C 140.549,115.508 141.549,115.674 142.5,116.5C 144.208,114.309 146.208,113.976 148.5,115.5C 151.076,114.117 150.742,113.283 147.5,113C 153.528,112.359 159.528,112.526 165.5,113.5C 165.649,112.448 165.483,111.448 165,110.5C 159.026,111.14 153.026,111.473 147,111.5C 146.5,111.167 146,110.833 145.5,110.5C 146.243,109.818 146.909,109.151 147.5,108.5C 154.902,107.553 162.235,106.22 169.5,104.5 Z"/></g>
    <g><path style="opacity:0.208" fill="#fec620" d="M 97.5,103.5 C 101.416,104.812 105.416,105.812 109.5,106.5C 108.737,107.268 107.737,107.768 106.5,108C 108.807,108.354 109.141,109.354 107.5,111C 109.018,113.961 111.018,114.628 113.5,113C 120.191,112.665 126.857,112.165 133.5,111.5C 133.389,112.117 133.056,112.617 132.5,113C 137.508,113.869 137.175,114.536 131.5,115C 124.804,115.242 118.138,115.742 111.5,116.5C 110.446,116.32 109.446,115.987 108.5,115.5C 108.574,117.444 107.908,119.444 106.5,121.5C 103.327,120.958 100.327,119.958 97.5,118.5C 98.09,113.604 98.09,108.604 97.5,103.5 Z"/></g>
    <g><path style="opacity:0.194" fill="#fed020" d="M 143.5,108.5 C 144.833,108.5 146.167,108.5 147.5,108.5C 146.909,109.151 146.243,109.818 145.5,110.5C 146,110.833 146.5,111.167 147,111.5C 153.026,111.473 159.026,111.14 165,110.5C 165.483,111.448 165.649,112.448 165.5,113.5C 159.528,112.526 153.528,112.359 147.5,113C 150.742,113.283 151.076,114.117 148.5,115.5C 146.208,113.976 144.208,114.309 142.5,116.5C 141.549,115.674 140.549,115.508 139.5,116C 140.949,117.117 142.616,117.784 144.5,118C 144.167,118.333 143.833,118.667 143.5,119C 147.5,119.333 151.5,119.667 155.5,120C 150.833,120.333 146.167,120.667 141.5,121C 141.167,121.333 140.833,121.667 140.5,122C 142.5,122.333 144.5,122.667 146.5,123C 137.173,123.5 127.839,123.666 118.5,123.5C 114.418,123.108 110.418,122.442 106.5,121.5C 107.908,119.444 108.574,117.444 108.5,115.5C 109.446,115.987 110.446,116.32 111.5,116.5C 118.138,115.742 124.804,115.242 131.5,115C 137.175,114.536 137.508,113.869 132.5,113C 133.056,112.617 133.389,112.117 133.5,111.5C 136.85,111.665 140.183,111.498 143.5,111C 137.5,110.667 131.5,110.333 125.5,110C 131.681,109.828 137.681,109.328 143.5,108.5 Z"/></g>
    <g><path style="opacity:0.18" fill="#ffab10" d="M 42.5,107.5 C 44.2838,107.893 45.9505,108.559 47.5,109.5C 47.6495,110.552 47.4828,111.552 47,112.5C 42.5203,114.476 39.6869,117.81 38.5,122.5C 35.9684,121.404 33.6351,120.071 31.5,118.5C 31.5394,117.417 31.8728,116.417 32.5,115.5C 36.6979,113.974 40.0313,111.308 42.5,107.5 Z"/></g>
    <g><path style="opacity:0.18" fill="#a36d0a" d="M 81.5,110.5 C 82.1667,110.5 82.8333,110.5 83.5,110.5C 87.0739,114.451 91.4072,117.118 96.5,118.5C 95.8333,118.5 95.5,118.833 95.5,119.5C 93.7162,119.107 92.0495,118.441 90.5,117.5C 87.8333,115.833 85.1667,114.167 82.5,112.5C 82.1667,111.833 81.8333,111.167 81.5,110.5 Z"/></g>
    <g><path style="opacity:0.179" fill="#ffb90c" d="M 199.5,106.5 C 199.5,112.167 199.5,117.833 199.5,123.5C 198.662,123.842 198.328,124.508 198.5,125.5C 197.094,125.973 196.427,126.973 196.5,128.5C 196.167,128.5 195.833,128.5 195.5,128.5C 195.489,126.983 194.823,125.816 193.5,125C 194.308,124.692 194.975,124.192 195.5,123.5C 194.593,120.579 194.26,117.579 194.5,114.5C 196.181,111.797 197.847,109.131 199.5,106.5 Z"/></g>
    <g><path style="opacity:0.163" fill="#fe9c12" d="M 11.5,117.5 C 28.2873,119.062 42.6207,125.729 54.5,137.5C 51.1501,137.665 47.8168,137.498 44.5,137C 42.9069,136.051 41.5736,134.885 40.5,133.5C 42.8418,133.225 42.8418,132.392 40.5,131C 31.9247,125.363 22.5914,122.363 12.5,122C 11.2625,122.232 10.2625,122.732 9.5,123.5C 5.33828,127.719 4.33828,132.719 6.5,138.5C 4.97049,137.933 3.47049,137.267 2,136.5C -0.0225985,127.326 3.14407,120.992 11.5,117.5 Z"/></g>
    <g><path style="opacity:0.173" fill="#ffdf75" d="M 81.5,110.5 C 81.8333,111.167 82.1667,111.833 82.5,112.5C 79.0881,117.639 78.7547,122.972 81.5,128.5C 80.5084,128.328 79.8417,128.662 79.5,129.5C 78.5,128.167 77.5,126.833 76.5,125.5C 75.6495,119.561 77.3162,114.561 81.5,110.5 Z"/></g>
    <g><path style="opacity:0.18" fill="#a36609" d="M 185.5,112.5 C 183.599,114.796 181.266,116.629 178.5,118C 173.683,119.766 169.017,121.599 164.5,123.5C 157.575,124.751 150.575,125.417 143.5,125.5C 137.974,125.821 132.64,125.488 127.5,124.5C 142.144,125.169 156.477,123.502 170.5,119.5C 175.647,117.426 180.647,115.093 185.5,112.5 Z"/></g>
    <g><path style="opacity:0.004" fill="#fe0000" d="M -0.5,121.5 C 0.166667,121.5 0.5,121.833 0.5,122.5C 0.166667,122.167 -0.166667,121.833 -0.5,121.5 Z"/></g>
    <g><path style="opacity:0.158" fill="#ff7a00" d="M 40.5,133.5 C 32.719,128.015 24.0523,124.682 14.5,123.5C 12.8333,123.5 11.1667,123.5 9.5,123.5C 10.2625,122.732 11.2625,122.232 12.5,122C 22.5914,122.363 31.9247,125.363 40.5,131C 42.8418,132.392 42.8418,133.225 40.5,133.5 Z"/></g>
    <g><path style="opacity:0.123" fill="#fe7703" d="M 190.5,117.5 C 191.219,122.676 191.219,127.843 190.5,133C 186.5,133.667 182.5,133.667 178.5,133C 180.18,132.653 181.18,131.653 181.5,130C 180.393,128.56 180.393,127.06 181.5,125.5C 181.058,124.261 180.391,123.261 179.5,122.5C 183.29,121.105 186.957,119.438 190.5,117.5 Z"/></g>
    <g><path style="opacity:0.145" fill="#ffefcc" d="M 199.5,97.5 C 199.5,100.5 199.5,103.5 199.5,106.5C 197.847,109.131 196.181,111.797 194.5,114.5C 192.77,115.026 191.436,116.026 190.5,117.5C 186.957,119.438 183.29,121.105 179.5,122.5C 177.579,123.363 175.579,124.029 173.5,124.5C 158.4,128.065 143.067,129.398 127.5,128.5C 125.5,127.833 123.5,127.167 121.5,126.5C 129.019,126.825 136.352,126.492 143.5,125.5C 150.575,125.417 157.575,124.751 164.5,123.5C 170.341,122.721 176.008,121.221 181.5,119C 191.113,115.897 196.447,109.397 197.5,99.5C 198.167,98.8333 198.833,98.1667 199.5,97.5 Z"/></g>
    <g><path style="opacity:0.004" fill="#ff9cf6" d="M 74.5,129.5 C 74.5,128.833 74.1667,128.5 73.5,128.5C 74.2515,125.253 74.7515,121.919 75,118.5C 75.8099,122.358 75.6433,126.024 74.5,129.5 Z"/></g>
    <g><path style="opacity:0.126" fill="#f89807" d="M 90.5,117.5 C 92.0495,118.441 93.7162,119.107 95.5,119.5C 100.167,121.167 104.833,122.833 109.5,124.5C 108.402,125.397 108.402,126.23 109.5,127C 106.972,128.316 106.972,129.483 109.5,130.5C 107.615,131.197 107.282,132.197 108.5,133.5C 107.619,134.971 106.286,135.804 104.5,136C 106.058,136.21 107.391,136.71 108.5,137.5C 105.244,139.448 101.91,140.114 98.5,139.5C 94.441,138.636 90.7743,136.97 87.5,134.5C 88.1408,133.518 88.8075,132.518 89.5,131.5C 87.8608,130.084 87.0275,128.417 87,126.5C 87.3333,126.833 87.6667,127.167 88,127.5C 89.5095,126.91 91.0095,126.244 92.5,125.5C 91.675,124.614 90.675,124.281 89.5,124.5C 89.6741,122.139 90.0074,119.806 90.5,117.5 Z"/></g>
    <g><path style="opacity:0.133" fill="#bbb09a" d="M 95.5,119.5 C 95.5,118.833 95.8333,118.5 96.5,118.5C 96.8333,118.5 97.1667,118.5 97.5,118.5C 100.327,119.958 103.327,120.958 106.5,121.5C 110.418,122.442 114.418,123.108 118.5,123.5C 121.287,124.477 124.287,124.81 127.5,124.5C 132.64,125.488 137.974,125.821 143.5,125.5C 136.352,126.492 129.019,126.825 121.5,126.5C 120.5,126.5 119.5,126.5 118.5,126.5C 115.402,126.244 112.402,125.578 109.5,124.5C 104.833,122.833 100.167,121.167 95.5,119.5 Z"/></g>
    <g><path style="opacity:0.004" fill="#fe0000" d="M 198.5,125.5 C 198.833,125.5 199.167,125.5 199.5,125.5C 199.5,125.833 199.5,126.167 199.5,126.5C 199.167,126.167 198.833,125.833 198.5,125.5 Z"/></g>
    <g><path style="opacity:0.109" fill="#f49608" d="M 194.5,114.5 C 194.26,117.579 194.593,120.579 195.5,123.5C 194.975,124.192 194.308,124.692 193.5,125C 194.823,125.816 195.489,126.983 195.5,128.5C 195.5,128.833 195.5,129.167 195.5,129.5C 194.833,129.5 194.5,129.833 194.5,130.5C 193.094,130.973 192.427,131.973 192.5,133.5C 188.993,136.425 184.993,137.925 180.5,138C 180.833,137.667 181.167,137.333 181.5,137C 179.899,136.727 178.399,136.227 177,135.5C 174.96,131.87 173.793,128.203 173.5,124.5C 175.579,124.029 177.579,123.363 179.5,122.5C 180.391,123.261 181.058,124.261 181.5,125.5C 180.393,127.06 180.393,128.56 181.5,130C 181.18,131.653 180.18,132.653 178.5,133C 182.5,133.667 186.5,133.667 190.5,133C 191.219,127.843 191.219,122.676 190.5,117.5C 191.436,116.026 192.77,115.026 194.5,114.5 Z"/></g>
    <g><path style="opacity:0.004" fill="#fe0000" d="M 196.5,128.5 C 197.833,129.167 197.833,129.167 196.5,128.5 Z"/></g>
    <g><path style="opacity:0.095" fill="#ffd534" d="M 9.5,123.5 C 11.1667,123.5 12.8333,123.5 14.5,123.5C 16.1484,124.927 18.1484,125.76 20.5,126C 20.1667,126.333 19.8333,126.667 19.5,127C 20.1905,128.067 20.6905,129.234 21,130.5C 22.0113,129.663 23.1779,129.33 24.5,129.5C 24.0338,131.201 24.0338,132.701 24.5,134C 28.5,134.333 32.5,134.667 36.5,135C 29.2071,135.015 22.0404,135.849 15,137.5C 13.2108,136.591 11.3774,136.424 9.5,137C 10.4158,137.278 11.0825,137.778 11.5,138.5C 9.83333,138.5 8.16667,138.5 6.5,138.5C 4.33828,132.719 5.33828,127.719 9.5,123.5 Z"/></g>
    <g><path style="opacity:0.097" fill="#fca30c" d="M 82.5,112.5 C 85.1667,114.167 87.8333,115.833 90.5,117.5C 90.0074,119.806 89.6741,122.139 89.5,124.5C 90.675,124.281 91.675,124.614 92.5,125.5C 91.0095,126.244 89.5095,126.91 88,127.5C 87.6667,127.167 87.3333,126.833 87,126.5C 87.0275,128.417 87.8608,130.084 89.5,131.5C 88.8075,132.518 88.1408,133.518 87.5,134.5C 85.1667,132.833 83.1667,130.833 81.5,128.5C 78.7547,122.972 79.0881,117.639 82.5,112.5 Z"/></g>
    <g><path style="opacity:0.096" fill="#ffd330" d="M 118.5,126.5 C 119.5,126.5 120.5,126.5 121.5,126.5C 123.5,127.167 125.5,127.833 127.5,128.5C 136.675,129.167 146.009,129.833 155.5,130.5C 149.345,130.539 143.178,130.539 137,130.5C 131.258,131.931 125.425,132.765 119.5,133C 120.167,133.333 120.833,133.667 121.5,134C 130.494,134.5 139.494,134.666 148.5,134.5C 142.69,135.49 136.69,135.823 130.5,135.5C 125.156,135.666 119.823,135.499 114.5,135C 117.167,133.667 117.167,132.333 114.5,131C 115.337,129.989 115.67,128.822 115.5,127.5C 116.791,127.737 117.791,127.404 118.5,126.5 Z"/></g>
    <g><path style="opacity:0.004" fill="#fe0000" d="M 195.5,129.5 C 195.833,129.5 196.167,129.5 196.5,129.5C 196.315,130.17 195.981,130.17 195.5,129.5 Z"/></g>
    <g><path style="opacity:0.004" fill="#fe0000" d="M 194.5,130.5 C 194.833,130.5 195.167,130.5 195.5,130.5C 195.315,131.17 194.981,131.17 194.5,130.5 Z"/></g>
    <g><path style="opacity:0.078" fill="#fec91e" d="M 76.5,125.5 C 77.5,126.833 78.5,128.167 79.5,129.5C 82.8483,133.847 86.8483,137.514 91.5,140.5C 82.5063,140.934 73.5063,141.6 64.5,142.5C 59.8594,138.195 55.1927,133.861 50.5,129.5C 56.5674,128.815 62.7341,128.149 69,127.5C 70.3297,128.582 71.8297,129.249 73.5,129.5C 73.8333,129.5 74.1667,129.5 74.5,129.5C 74.7828,130.289 75.2828,130.956 76,131.5C 76.4955,129.527 76.6621,127.527 76.5,125.5 Z"/></g>
    <g><path style="opacity:0.078" fill="#fdc71a" d="M 173.5,124.5 C 173.793,128.203 174.96,131.87 177,135.5C 178.399,136.227 179.899,136.727 181.5,137C 181.167,137.333 180.833,137.667 180.5,138C 184.993,137.925 188.993,136.425 192.5,133.5C 192.5,135.833 192.5,138.167 192.5,140.5C 186.47,140.964 180.47,141.131 174.5,141C 175.328,140.085 176.328,139.419 177.5,139C 174.853,138.685 174.187,137.518 175.5,135.5C 175.192,134.692 174.692,134.025 174,133.5C 166.284,134.106 157.784,134.439 148.5,134.5C 139.494,134.666 130.494,134.5 121.5,134C 120.833,133.667 120.167,133.333 119.5,133C 125.425,132.765 131.258,131.931 137,130.5C 143.178,130.539 149.345,130.539 155.5,130.5C 146.009,129.833 136.675,129.167 127.5,128.5C 143.067,129.398 158.4,128.065 173.5,124.5 Z"/></g>
    <g><path style="opacity:0.078" fill="#fec91f" d="M 109.5,124.5 C 112.402,125.578 115.402,126.244 118.5,126.5C 117.791,127.404 116.791,127.737 115.5,127.5C 115.67,128.822 115.337,129.989 114.5,131C 117.167,132.333 117.167,133.667 114.5,135C 119.823,135.499 125.156,135.666 130.5,135.5C 130.631,136.239 130.464,136.906 130,137.5C 127.684,136.861 125.184,136.861 122.5,137.5C 123.325,138.386 124.325,138.719 125.5,138.5C 121.617,141.06 117.617,141.06 113.5,138.5C 111.38,140.009 109.713,139.676 108.5,137.5C 107.391,136.71 106.058,136.21 104.5,136C 106.286,135.804 107.619,134.971 108.5,133.5C 107.282,132.197 107.615,131.197 109.5,130.5C 106.972,129.483 106.972,128.316 109.5,127C 108.402,126.23 108.402,125.397 109.5,124.5 Z"/></g>
    <g><path style="opacity:0.063" fill="#fec91d" d="M 14.5,123.5 C 24.0523,124.682 32.719,128.015 40.5,133.5C 41.5736,134.885 42.9069,136.051 44.5,137C 47.8168,137.498 51.1501,137.665 54.5,137.5C 55.8717,138.512 57.205,139.512 58.5,140.5C 48.0266,141.468 37.36,141.635 26.5,141C 27.8333,140.667 29.1667,140.333 30.5,140C 27.975,139.104 25.8083,139.604 24,141.5C 22.9326,140.809 21.7659,140.309 20.5,140C 20.8333,139.667 21.1667,139.333 21.5,139C 18.1832,138.502 14.8499,138.335 11.5,138.5C 11.0825,137.778 10.4158,137.278 9.5,137C 11.3774,136.424 13.2108,136.591 15,137.5C 22.0404,135.849 29.2071,135.015 36.5,135C 32.5,134.667 28.5,134.333 24.5,134C 24.0338,132.701 24.0338,131.201 24.5,129.5C 23.1779,129.33 22.0113,129.663 21,130.5C 20.6905,129.234 20.1905,128.067 19.5,127C 19.8333,126.667 20.1667,126.333 20.5,126C 18.1484,125.76 16.1484,124.927 14.5,123.5 Z"/></g>
    <g><path style="opacity:0.043" fill="#fee8b5" d="M 81.5,128.5 C 83.1667,130.833 85.1667,132.833 87.5,134.5C 90.7743,136.97 94.441,138.636 98.5,139.5C 101.33,140.735 104.33,141.735 107.5,142.5C 108.167,143.167 108.833,143.833 109.5,144.5C 106.167,144.5 102.833,144.5 99.5,144.5C 97.4691,142.245 94.8025,140.912 91.5,140.5C 86.8483,137.514 82.8483,133.847 79.5,129.5C 79.8417,128.662 80.5084,128.328 81.5,128.5 Z"/></g>
    <g><path style="opacity:0.039" fill="#fff3cf" d="M 11.5,115.5 C 11.8333,115.5 12.1667,115.5 12.5,115.5C 14.5,115.5 16.5,115.5 18.5,115.5C 22.9777,115.882 27.3111,116.882 31.5,118.5C 33.6351,120.071 35.9684,121.404 38.5,122.5C 42.5172,124.861 46.5172,127.194 50.5,129.5C 55.1927,133.861 59.8594,138.195 64.5,142.5C 64.2648,143.097 63.7648,143.43 63,143.5C 61.3566,142.685 59.8566,141.685 58.5,140.5C 57.205,139.512 55.8717,138.512 54.5,137.5C 42.6207,125.729 28.2873,119.062 11.5,117.5C 10.4937,117.062 10.4937,116.396 11.5,115.5 Z"/></g>
    <g><path style="opacity:0.043" fill="#fecd20" d="M 192.5,140.5 C 191.833,141.833 191.167,143.167 190.5,144.5C 187.833,144.5 185.167,144.5 182.5,144.5C 180.167,143.167 177.833,143.167 175.5,144.5C 174.833,144.5 174.167,144.5 173.5,144.5C 173.279,143.265 172.612,142.265 171.5,141.5C 172.025,140.808 172.692,140.308 173.5,140C 157.033,139.67 141.033,139.17 125.5,138.5C 124.325,138.719 123.325,138.386 122.5,137.5C 125.184,136.861 127.684,136.861 130,137.5C 130.464,136.906 130.631,136.239 130.5,135.5C 136.69,135.823 142.69,135.49 148.5,134.5C 157.784,134.439 166.284,134.106 174,133.5C 174.692,134.025 175.192,134.692 175.5,135.5C 174.187,137.518 174.853,138.685 177.5,139C 176.328,139.419 175.328,140.085 174.5,141C 180.47,141.131 186.47,140.964 192.5,140.5 Z"/></g>
    <g><path style="opacity:0.027" fill="#fcb724" d="M 108.5,137.5 C 109.713,139.676 111.38,140.009 113.5,138.5C 117.617,141.06 121.617,141.06 125.5,138.5C 141.033,139.17 157.033,139.67 173.5,140C 172.692,140.308 172.025,140.808 171.5,141.5C 172.612,142.265 173.279,143.265 173.5,144.5C 172.5,144.5 171.5,144.5 170.5,144.5C 168.698,143.542 166.698,142.875 164.5,142.5C 144.781,141.546 125.115,141.046 105.5,141C 106.416,141.278 107.082,141.778 107.5,142.5C 104.33,141.735 101.33,140.735 98.5,139.5C 101.91,140.114 105.244,139.448 108.5,137.5 Z"/></g>
    <g><path style="opacity:0.02" fill="#f8b332" d="M 11.5,115.5 C 10.4937,116.396 10.4937,117.062 11.5,117.5C 3.14407,120.992 -0.0225985,127.326 2,136.5C 3.47049,137.267 4.97049,137.933 6.5,138.5C 8.16667,138.5 9.83333,138.5 11.5,138.5C 14.8499,138.335 18.1832,138.502 21.5,139C 21.1667,139.333 20.8333,139.667 20.5,140C 21.7659,140.309 22.9326,140.809 24,141.5C 25.8083,139.604 27.975,139.104 30.5,140C 29.1667,140.333 27.8333,140.667 26.5,141C 37.36,141.635 48.0266,141.468 58.5,140.5C 59.8566,141.685 61.3566,142.685 63,143.5C 63.7648,143.43 64.2648,143.097 64.5,142.5C 73.5063,141.6 82.5063,140.934 91.5,140.5C 94.8025,140.912 97.4691,142.245 99.5,144.5C 84.8333,144.5 70.1667,144.5 55.5,144.5C 54.5,143.167 53.5,143.167 52.5,144.5C 35.8333,144.5 19.1667,144.5 2.5,144.5C 1.30766,142.887 0.307663,141.22 -0.5,139.5C -0.5,134.5 -0.5,129.5 -0.5,124.5C 0.338246,124.158 0.67158,123.492 0.5,122.5C 1.4725,120.861 2.80584,119.527 4.5,118.5C 6.68686,117.242 9.0202,116.242 11.5,115.5 Z"/></g>
    <g><path style="opacity:0.02" fill="#f2aa24" d="M 164.5,142.5 C 162.585,142.216 160.919,142.549 159.5,143.5C 158.833,143.5 158.5,143.833 158.5,144.5C 147.5,144.5 136.5,144.5 125.5,144.5C 125.167,143.167 124.833,143.167 124.5,144.5C 121.5,144.5 118.5,144.5 115.5,144.5C 115.167,143.167 114.833,143.167 114.5,144.5C 112.833,144.5 111.167,144.5 109.5,144.5C 108.833,143.833 108.167,143.167 107.5,142.5C 107.082,141.778 106.416,141.278 105.5,141C 125.115,141.046 144.781,141.546 164.5,142.5 Z"/></g>
    <g><path style="opacity:0.005" fill="#feff00" d="M 164.5,142.5 C 166.698,142.875 168.698,143.542 170.5,144.5C 166.833,144.5 163.167,144.5 159.5,144.5C 159.5,144.167 159.5,143.833 159.5,143.5C 160.919,142.549 162.585,142.216 164.5,142.5 Z"/></g>
</svg>
