<?xml version="1.0" encoding="UTF-8"?>
<svg width="16px" height="16px" viewBox="0 0 16 16" version="1.1" xmlns="http://www.w3.org/2000/svg">
    <title>icons/16/comment</title>
    <desc>Created with Sketch.</desc>
    <g id="icons/16/comment" stroke="none" stroke-width="1" fill="none" fill-rule="evenodd">
        <path d="M14,1 C15.1045695,1 16,1.8954305 16,3 L16,10.992571 C16,12.0469328 15.1841222,12.9107361 14.1492623,12.9870853 L13.9925848,12.9925573 L4.54391134,12.9575252 L3.32935996,14.0380466 C2.50410495,14.7722318 1.23992886,14.6984052 0.505743627,13.8731501 C0.179970753,13.5069678 0,13.0339101 0,12.5437902 L0,3 C0,1.8954305 0.8954305,1 2,1 L14,1 Z M14,2 L2,2 C1.44771525,2 1,2.44771525 1,3 L1,12.5437902 C1,12.7888501 1.08998538,13.025379 1.25287181,13.2084702 C1.61996443,13.6210977 2.25205247,13.658011 2.66467998,13.2909184 L4.1650565,11.9561136 L13.9576809,11.9931666 L14.075685,11.9897958 C14.5945268,11.951517 15,11.5168945 15,10.992571 L15,3 C15,2.44771525 14.5522847,2 14,2 Z"
              id="Combined-Shape" fill="#888888"/>
    </g>
</svg>
