<?xml version="1.0" encoding="UTF-8"?>
<svg width="24px" height="24px" viewBox="0 0 24 24" version="1.1" xmlns="http://www.w3.org/2000/svg">
    <g id="icons2/24/control" stroke="none" stroke-width="1" fill="none" fill-rule="evenodd">
        <path d="M13,2.10769231 L13,-5.69230769 L11.4615385,-5.69230769 L11.4615385,2.10769231 C10.121569,2.47184447 9.19153809,3.68835365 9.19153809,5.07692308 C9.19153809,6.46549251 10.121569,7.68200168 11.4615385,8.04615385 L11.4615385,15.8461538 L13,15.8461538 L13,8.04615385 C14.3399695,7.68200168 15.2700004,6.46549251 15.2700004,5.07692308 C15.2700004,3.68835365 14.3399695,2.47184447 13,2.10769231 Z M12.2307692,6.61538462 C11.3811004,6.61538462 10.6923077,5.92659192 10.6923077,5.07692308 C10.6923077,4.22725423 11.3811004,3.53846154 12.2307692,3.53846154 C13.0804381,3.53846154 13.7692308,4.22725423 13.7692308,5.07692308 C13.7692308,5.92659192 13.0804381,6.61538462 12.2307692,6.61538462 Z"
              id="Shape" fill="currentColor" fill-rule="nonzero"
              transform="translate(12.230769, 5.076923) rotate(90.000000) translate(-12.230769, -5.076923) "></path>
        <path d="M13,15.1846154 L13,1.23076923 L11.4615385,1.23076923 L11.4615385,15.1846154 C10.121569,15.5487676 9.19153809,16.7652767 9.19153809,18.1538462 C9.19153809,19.5424156 10.121569,20.7589248 11.4615385,21.1230769 L11.4615385,22.7692308 L13,22.7692308 L13,21.1230769 C14.3399695,20.7589248 15.2700004,19.5424156 15.2700004,18.1538462 C15.2700004,16.7652767 14.3399695,15.5487676 13,15.1846154 Z M12.2307692,19.6923077 C11.3811004,19.6923077 10.6923077,19.003515 10.6923077,18.1538462 C10.6923077,17.3041773 11.3811004,16.6153846 12.2307692,16.6153846 C13.0804381,16.6153846 13.7692308,17.3041773 13.7692308,18.1538462 C13.7692308,19.003515 13.0804381,19.6923077 12.2307692,19.6923077 Z"
              id="Shape" fill="currentColor" fill-rule="nonzero"
              transform="translate(12.230769, 12.000000) rotate(90.000000) translate(-12.230769, -12.000000) "></path>
        <path d="M15.2888463,12.7880767 C15.2843023,11.3887252 14.3360794,10.1686783 12.981154,9.81884597 L12.981154,8.17269212 L11.4426925,8.17269212 L11.4426925,9.81884597 C10.102723,10.1829981 9.17269212,11.3995073 9.17269212,12.7880767 C9.17269212,14.1766462 10.102723,15.3931553 11.4426925,15.7573075 L11.4426925,29.7111537 L12.981154,29.7111537 L12.981154,15.7573075 C14.3360794,15.4074752 15.2843023,14.1874283 15.2888463,12.7880767 Z M12.2119233,14.3265383 C11.3622544,14.3265383 10.6734617,13.6377456 10.6734617,12.7880767 C10.6734617,11.9384079 11.3622544,11.2496152 12.2119233,11.2496152 C13.0615921,11.2496152 13.7503848,11.9384079 13.7503848,12.7880767 C13.7503848,13.1961021 13.5882974,13.5874158 13.2997798,13.8759333 C13.0112623,14.1644508 12.6199486,14.3265383 12.2119233,14.3265383 Z"
              id="Shape" fill="currentColor" fill-rule="nonzero"
              transform="translate(12.230769, 18.941923) rotate(90.000000) translate(-12.230769, -18.941923) "></path>
    </g>
</svg>
