<?xml version="1.0" encoding="iso-8859-1"?>
<!-- Generator: Adobe Illustrator 19.0.0, SVG Export Plug-In . SVG Version: 6.00 Build 0)  -->
<svg fill="currentColor" version="1.1" id="Layer_1" xmlns="http://www.w3.org/2000/svg"
     x="0px" y="0px"
     viewBox="0 0 512 512" style="enable-background:new 0 0 512 512;" xml:space="preserve">
<g>
	<g>
		<path d="M145.241,0C65.155,0,0,65.155,0,145.241s65.155,145.241,145.241,145.241s145.241-65.155,145.241-145.241
			S225.327,0,145.241,0z M145.241,269.584c-68.563,0-124.343-55.78-124.343-124.343S76.678,20.898,145.241,20.898
			s124.343,55.78,124.343,124.343S213.804,269.584,145.241,269.584z"/>
	</g>
</g>
    <g>
	<g>
		<path d="M225.036,65.444c-43.983-43.983-115.548-43.983-159.533,0c-17.504,17.505-28.555,39.685-31.959,64.142
			c-3.29,23.65,1.104,48.194,12.375,69.112c2.738,5.08,9.076,6.979,14.155,4.242c5.081-2.738,6.98-9.075,4.243-14.155
			c-19.091-35.43-12.527-80.073,15.964-108.563c35.837-35.836,94.145-35.833,129.978-0.001c35.836,35.836,35.836,94.145,0,129.98
			c-28.49,28.49-73.135,35.054-108.563,15.963c-5.084-2.737-11.419-0.838-14.156,4.242c-2.737,5.08-0.837,11.418,4.242,14.155
			c16.389,8.831,35.001,13.441,53.668,13.441c5.159,0,10.325-0.353,15.444-1.066c24.458-3.402,46.637-14.454,64.142-31.958
			C269.018,180.994,269.018,109.428,225.036,65.444z"/>
	</g>
</g>
    <g>
	<g>
		<path d="M80.252,210.223c-4.079-4.079-10.729-4.047-14.81,0.033c-4.08,4.081-4.08,10.698,0,14.778
			c2.041,2.041,4.714,3.06,7.388,3.06s5.348-1.02,7.39-3.062l0.066-0.066C84.367,220.887,84.333,214.303,80.252,210.223z"/>
	</g>
</g>
    <g>
	<g>
		<path d="M155.69,135.569V98.323c6.972,3.233,11.726,9.589,11.726,16.89c0,5.771,4.679,10.449,10.449,10.449
			c5.77,0,10.449-4.678,10.449-10.449c0-18.736-13.908-34.504-32.624-38.859v-3.065c0-5.771-4.679-10.449-10.449-10.449
			c-5.77,0-10.449,4.678-10.449,10.449v3.065c-18.716,4.354-32.624,20.122-32.624,38.859c0,18.737,13.908,34.504,32.624,38.859
			v37.246c-6.972-3.233-11.726-9.589-11.726-16.89c0-5.771-4.679-10.449-10.449-10.449c-5.77,0-10.449,4.678-10.449,10.449
			c0,18.736,13.908,34.504,32.624,38.859v4.198c0,5.771,4.679,10.449,10.449,10.449c5.77,0,10.449-4.678,10.449-10.449v-4.198
			c18.716-4.354,32.624-20.122,32.624-38.859C188.314,155.691,174.406,139.924,155.69,135.569z M134.792,132.102
			c-6.972-3.232-11.726-9.588-11.726-16.89c0-7.301,4.754-13.657,11.726-16.89V132.102z M155.69,191.318v-33.779
			c6.972,3.233,11.726,9.589,11.726,16.89C167.416,181.729,162.661,188.085,155.69,191.318z"/>
	</g>
</g>
    <g>
	<g>
		<path d="M395.014,409.993c-5.699,3.392-11.819,5.112-18.185,5.112c-14.727,0-27.657-9.321-34.866-23.269h27.415
			c5.77,0,10.449-4.678,10.449-10.449c0-5.771-4.679-10.449-10.449-10.449h-33.285c-0.119-1.515-0.187-3.048-0.187-4.6
			c0-0.905,0.024-1.804,0.066-2.696h43.211c5.77,0,10.449-4.678,10.449-10.449c0-5.771-4.679-10.449-10.449-10.449H341.03
			c6.988-14.996,20.412-25.173,35.799-25.173c6.368,0,12.487,1.72,18.185,5.112c4.96,2.952,11.371,1.324,14.323-3.635
			c2.951-4.959,1.324-11.372-3.635-14.323c-8.851-5.267-18.834-8.052-28.874-8.052c-26.742,0-49.567,19.235-58.165,46.071h-9.285
			c-5.77,0-10.449,4.678-10.449,10.449c0,5.771,4.679,10.449,10.449,10.449h5.689c-0.03,0.896-0.061,1.792-0.061,2.696
			c0,1.547,0.062,3.077,0.149,4.6h-5.778c-5.77,0-10.449,4.678-10.449,10.449c0,5.771,4.679,10.449,10.449,10.449h9.936
			c9.051,25.833,31.411,44.167,57.513,44.167c10.038,0,20.022-2.785,28.874-8.052c4.959-2.951,6.587-9.363,3.635-14.323
			C406.386,408.67,399.975,407.042,395.014,409.993z"/>
	</g>
</g>
    <g>
	<g>
		<path d="M366.759,221.518c-80.086,0-145.241,65.155-145.241,145.241S286.673,512,366.759,512S512,446.845,512,366.759
			S446.845,221.518,366.759,221.518z M366.759,491.102c-68.563,0-124.343-55.78-124.343-124.343s55.78-124.343,124.343-124.343
			s124.343,55.78,124.343,124.343S435.322,491.102,366.759,491.102z"/>
	</g>
</g>
    <g>
	<g>
		<path d="M446.554,286.962c-43.983-43.982-115.548-43.984-159.533,0c-17.504,17.505-28.555,39.685-31.959,64.142
			c-3.29,23.65,1.105,48.194,12.375,69.112c2.738,5.08,9.075,6.981,14.155,4.242c5.081-2.738,6.98-9.075,4.243-14.155
			c-19.091-35.43-12.527-80.073,15.964-108.563c35.837-35.836,94.145-35.833,129.978-0.001c35.836,35.836,35.836,94.145,0,129.98
			c-28.49,28.49-73.134,35.054-108.563,15.963c-5.084-2.737-11.419-0.838-14.156,4.242c-2.737,5.08-0.837,11.418,4.242,14.155
			c16.389,8.831,35.001,13.441,53.668,13.441c5.159,0,10.325-0.353,15.444-1.066c24.458-3.402,46.637-14.454,64.142-31.958
			C490.537,402.512,490.537,330.946,446.554,286.962z"/>
	</g>
</g>
    <g>
	<g>
		<path d="M301.771,431.741c-4.079-4.079-10.729-4.047-14.81,0.033c-4.08,4.081-4.08,10.698,0,14.778
			c2.041,2.041,4.714,3.06,7.388,3.06c2.675,0,5.348-1.02,7.39-3.062l0.066-0.066C305.885,442.406,305.851,435.822,301.771,431.741z
			"/>
	</g>
</g>
    <g>
	<g>
		<path d="M166.51,426.59c-33.437-17.508-56.376-37.372-71.827-62.648l0.401,0.136c5.461,1.855,11.399-1.068,13.256-6.533
			c1.856-5.464-1.068-11.399-6.533-13.255l-24.504-8.324c-5.376-1.832-11.437,1.156-13.256,6.533l-8.324,24.503
			c-1.856,5.464,1.069,11.399,6.533,13.255c1.114,0.378,2.248,0.558,3.362,0.558c4.352,0,8.416-2.742,9.893-7.092l0.228-0.672
			c17.39,29.427,43.225,52.23,81.076,72.052c1.546,0.81,3.204,1.194,4.838,1.194c3.764,0,7.399-2.039,9.265-5.604
			C173.596,435.581,171.621,429.267,166.51,426.59z"/>
	</g>
</g>
    <g>
	<g>
		<g>
			<path d="M449.377,132.055c0.667,0.226,1.329,0.451,1.519,0.516C450.755,132.524,450.308,132.372,449.377,132.055
				c-0.112-0.038-0.206-0.07-0.304-0.103C449.172,131.986,449.274,132.02,449.377,132.055c-5.469-1.856-11.399,1.069-13.256,6.531
				l-0.266,0.785c-19.237-31.836-48.155-56.724-87.76-75.658c-5.21-2.49-11.446-0.286-13.935,4.92
				c-2.489,5.207-0.285,11.445,4.92,13.934c35.505,16.973,60.727,38.209,77.805,65.781l-0.338-0.115
				c-5.464-1.854-11.4,1.07-13.256,6.533c-1.856,5.464,1.068,11.399,6.533,13.256l22.813,7.75c6.308,2.14,13.359-0.646,15.297-7.066
				c2.369-7.844,7.971-23.396,7.971-23.396C457.766,139.845,454.841,133.911,449.377,132.055z"/>
            <path d="M448.764,131.847c-0.081-0.028-0.166-0.056-0.236-0.08C448.604,131.793,448.682,131.82,448.764,131.847z"/>
            <path d="M449.072,131.952c-0.106-0.036-0.208-0.071-0.308-0.105C448.859,131.88,448.961,131.914,449.072,131.952z"/>
            <path d="M448.284,131.684c-0.068-0.023-0.125-0.042-0.178-0.06C448.16,131.642,448.219,131.662,448.284,131.684z"/>
            <path d="M448.528,131.767c-0.087-0.03-0.169-0.057-0.244-0.083C448.357,131.709,448.436,131.736,448.528,131.767z"/>
            <path d="M450.896,132.571C450.967,132.595,450.963,132.594,450.896,132.571L450.896,132.571z"/>
            <path d="M448.106,131.624c-0.077-0.026-0.142-0.048-0.192-0.065C447.96,131.575,448.026,131.597,448.106,131.624z"/>
            <path d="M447.914,131.559C447.753,131.504,447.774,131.511,447.914,131.559L447.914,131.559z"/>
		</g>
	</g>
</g>
    <g>
</g>
    <g>
</g>
    <g>
</g>
    <g>
</g>
    <g>
</g>
    <g>
</g>
    <g>
</g>
    <g>
</g>
    <g>
</g>
    <g>
</g>
    <g>
</g>
    <g>
</g>
    <g>
</g>
    <g>
</g>
    <g>
</g>
</svg>
