<?xml version="1.0" encoding="UTF-8"?>
<svg width="36px" height="36px" viewBox="0 0 36 36" version="1.1" xmlns="http://www.w3.org/2000/svg" xmlns:xlink="http://www.w3.org/1999/xlink">
    <!-- Generator: Sketch 63.1 (92452) - https://sketch.com -->
    <title>Group 64</title>
    <desc>Created with Sketch.</desc>
    <g id="NEW" stroke="none" stroke-width="1" fill="none" fill-rule="evenodd">
        <g id="Group-64">
            <circle id="Oval" fill="#FFFFFF" cx="18" cy="18" r="17"></circle>
            <g id="dark-mode" fill="#194D9B" fill-rule="nonzero">
                <path d="M18,0 C8.11335937,0 0,8.11335937 0,18 C0,27.8866406 8.11335937,36 18,36 C27.8866406,36 36,27.8866406 36,18 C36,8.11335937 27.8866406,0 18,0 Z M16.9453125,4.2890625 L19.0546875,4.2890625 L19.0546875,8.5078125 L16.9453125,8.5078125 L16.9453125,4.2890625 Z M12.0581016,5.59814063 L14.1674766,9.25249219 L12.3403359,10.3071797 L10.2309609,6.65282813 L12.0581016,5.59814063 Z M6.65282813,10.2309609 L10.3071797,12.3403359 L9.25249219,14.1674766 L5.59814063,12.0581016 L6.65282813,10.2309609 Z M4.2890625,19.0546875 L4.2890625,16.9453125 L8.5078125,16.9453125 L8.5078125,19.0546875 L4.2890625,19.0546875 Z M5.59814063,23.9418984 L9.25249219,21.8325234 L10.3071797,23.6596641 L6.65282813,25.7690391 L5.59814063,23.9418984 Z M12.0581016,30.4018594 L10.2309609,29.3471719 L12.3403359,25.6928203 L14.1674766,26.7475078 L12.0581016,30.4018594 Z M19.0546875,31.7109375 L16.9453125,31.7109375 L16.9453125,27.4921875 L19.0546875,27.4921875 L19.0546875,31.7109375 Z M24.328125,25.3828125 C23.1964453,25.3828125 22.1357109,25.1059922 21.1761563,24.6488203 C20.1872812,25.1211797 19.1043984,25.3828125 18,25.3828125 C13.9295391,25.3828125 10.6171875,22.0704609 10.6171875,18 C10.6171875,13.9295391 13.9295391,10.6171875 18,10.6171875 C19.1043984,10.6171875 20.1874219,10.8788203 21.1761563,11.3511797 C22.1357109,10.8940078 23.1964453,10.6171875 24.328125,10.6171875 C28.3985859,10.6171875 31.7109375,13.9295391 31.7109375,18 C31.7109375,22.0704609 28.3985859,25.3828125 24.328125,25.3828125 Z" id="Shape"></path>
                <circle id="Oval" cx="24.328125" cy="18" r="5.2734375"></circle>
            </g>
        </g>
    </g>
</svg>