<svg width="36" height="36" viewBox="0 0 36 36" fill="none" xmlns="http://www.w3.org/2000/svg">
<rect width="36" height="36" rx="18" fill="#184B9F"/>
<path d="M21.0153 9.51654C19.9823 9.95443 14.259 8.5313 14.594 10.9123C13.226 10.967 13.9519 13.5396 14.0915 14.1143C14.0915 14.3333 14.0636 14.5522 14.0636 14.7712C14.0636 17.07 15.8224 18.931 17.9722 18.931C20.1499 18.931 21.9087 17.07 21.9087 14.7712C21.9087 14.5522 21.9087 14.3333 21.8808 14.1143C22.5229 12.2807 22.2158 8.99656 21.0153 9.51654ZM18.0001 17.9732C16.4087 17.9732 15.0966 16.5774 15.0407 14.8533L15.2641 14.8806C15.4037 14.8806 15.5153 14.7712 15.5153 14.6343C15.4316 14.0049 15.3199 12.4723 15.8783 12.6091C16.5762 12.7733 17.3301 12.9922 18.0001 12.9922C18.6702 12.9922 19.424 12.8007 20.1219 12.6091C20.6803 12.4723 20.5407 14.0322 20.4849 14.6343C20.457 14.7712 20.5966 14.8806 20.7361 14.8806L20.9595 14.8533C20.9037 16.5774 19.5915 17.9732 18.0001 17.9732Z" fill="white"/>
<path d="M18 5C11.9416 5 7 9.84409 7 15.7829C7 20.1344 9.62436 23.8837 13.4213 25.5805C14.1193 23.7469 15.9061 22.4606 18 22.4606C20.0939 22.4606 21.8807 23.7469 22.5787 25.5532C26.3756 23.8564 29 20.107 29 15.7555C29 9.84409 24.0584 5 18 5ZM24.5609 22.2143C24.198 20.5449 22.9695 19.1765 21.3782 18.5744C20.4848 19.4228 19.3122 19.9428 18 19.9428C16.6878 19.9428 15.5152 19.4228 14.6218 18.5744C13.0305 19.1765 11.802 20.5449 11.4391 22.2143C9.76396 20.5723 8.70305 18.2734 8.70305 15.7829C8.70305 10.7472 12.8909 6.66943 18 6.66943C23.1371 6.66943 27.297 10.7472 27.297 15.7829C27.297 18.3007 26.236 20.5723 24.5609 22.2143Z" fill="white"/>
<path d="M18.0002 23.501C15.8783 23.501 14.1753 25.1704 14.1753 27.2504C14.1753 29.3303 15.8783 30.9997 18.0002 30.9997C20.122 30.9997 21.825 29.3303 21.825 27.2504C21.825 25.1704 20.122 23.501 18.0002 23.501ZM19.5357 28.044C19.7311 28.2356 19.7311 28.5914 19.5357 28.783C19.424 28.8924 19.2844 28.9472 19.1448 28.9472C19.0052 28.9472 18.8656 28.8924 18.754 28.783L18.0002 27.9893L17.2184 28.7556C17.1068 28.8651 16.9672 28.9198 16.8276 28.9198C16.688 28.9198 16.5484 28.8651 16.4367 28.7556C16.2413 28.564 16.2413 28.2082 16.4367 28.0167L17.2184 27.2504L16.4367 26.4841C16.2413 26.2925 16.2413 25.9367 16.4367 25.7451C16.6321 25.5536 16.9951 25.5536 17.1905 25.7451L17.9722 26.5114L18.754 25.7451C18.9494 25.5536 19.3123 25.5536 19.5078 25.7451C19.7032 25.9367 19.7032 26.2925 19.5078 26.4841L18.7261 27.2504L19.5357 28.044Z" fill="white"/>
</svg>
