<?xml version="1.0" encoding="UTF-8"?>
<svg width="9px" height="16px" viewBox="0 0 9 16" version="1.1" xmlns="http://www.w3.org/2000/svg">
    <!-- Generator: Sketch 58 (84663) - https://sketch.com -->
    <title>icons2/16/dollar_sign</title>
    <desc>Created with Sketch.</desc>
    <g id="icons2/16/dollar_sign" stroke="none" stroke-width="1" fill="none" fill-rule="evenodd">
        <g id="coin-of-dollar" fill="currentColor" fill-rule="nonzero">
            <path d="M8.53558728,8.4922 C8.84473926,9.00785 9,9.6094 9,10.29845 C9,11.35625 8.6798413,12.2375 8.04104555,12.9422 C7.40224981,13.64845 6.47981537,14.0641 5.27353934,14.1891 L5.27353934,16 L3.73599644,16 L3.73599644,14.19845 C1.72455576,13.99535 0.480238056,12.8422 0,10.7422 L2.37760445,10.13125 C2.5979418,11.45155 3.32707383,12.11095 4.56500054,12.11095 C5.14353827,12.11095 5.57153243,11.97035 5.84416441,11.6875 C6.11679638,11.40465 6.25308701,11.06405 6.25308701,10.66405 C6.25308701,10.25 6.11674566,9.9359 5.84416441,9.7234 C5.57153243,9.5094 4.96443808,9.239 4.02450447,8.9109 C3.17967504,8.6219 2.51866296,8.33745 2.04314207,8.05315 C1.56762118,7.7719 1.18086419,7.3766 0.884443493,6.86875 C0.588022791,6.35935 0.439051607,5.7656 0.439051607,5.0906 C0.439051607,4.20465 0.705343305,3.4062 1.23478192,2.69685 C1.76422054,1.98905 2.5979418,1.5562 3.73604716,1.3984 L3.73604716,0 L5.27359006,0 L5.27359006,1.39845 C6.99180554,1.6016 8.10454978,2.5594 8.61014895,4.27345 L6.49249593,5.1297 C6.07880544,3.9547 5.44153136,3.3672 4.57615943,3.3672 C4.14182499,3.3672 3.79310967,3.49845 3.53158586,3.76095 C3.26843894,4.02345 3.1369162,4.3422 3.1369162,4.71565 C3.1369162,5.0969 3.26372177,5.3891 3.51733291,5.5938 C3.76937166,5.79695 4.31306323,6.0485 5.14363971,6.35005 C6.05663982,6.6782 6.77309129,6.9891 7.29142174,7.2813 C7.81122314,7.57345 8.22496435,7.97815 8.53558728,8.4922 Z"
                  id="Shape"></path>
        </g>
    </g>
</svg>
