<?xml version="1.0" encoding="UTF-8"?>
<svg width="24px" height="24px" viewBox="0 0 24 24" version="1.1" xmlns="http://www.w3.org/2000/svg">
    <title>icons2/24/drag</title>
    <desc>Created with Sketch.</desc>
    <g id="icons2/24/drag" stroke="none" stroke-width="1" fill="none" fill-rule="evenodd">
        <path d="M23.5,15 C23.7761424,15 24,15.2238576 24,15.5 C24,15.7761424 23.7761424,16 23.5,16 L0.5,16 C0.223857625,16 3.38176876e-17,15.7761424 0,15.5 C-3.38176876e-17,15.2238576 0.223857625,15 0.5,15 L23.5,15 Z M23.5,12 C23.7761424,12 24,12.2238576 24,12.5 C24,12.7761424 23.7761424,13 23.5,13 L0.5,13 C0.223857625,13 3.38176876e-17,12.7761424 0,12.5 C-3.38176876e-17,12.2238576 0.223857625,12 0.5,12 L23.5,12 Z M23.5,9 C23.7761424,9 24,9.22385763 24,9.5 C24,9.77614237 23.7761424,10 23.5,10 L0.5,10 C0.223857625,10 3.38176876e-17,9.77614237 0,9.5 C-3.38176876e-17,9.22385763 0.223857625,9 0.5,9 L23.5,9 Z"
              id="Combined-Shape" fill="currentColor"/>
    </g>
</svg>
