<?xml version="1.0" encoding="UTF-8"?>
<svg width="24px" height="24px" viewBox="0 0 24 24" version="1.1" xmlns="http://www.w3.org/2000/svg">
    <!-- Generator: Sketch 57.1 (83088) - https://sketch.com -->
    <title>icons2/24/facebook</title>
    <desc>Created with Sketch.</desc>
    <g id="icons2/24/facebook" stroke="none" stroke-width="1" fill="none" fill-rule="evenodd">
        <g id="002-facebook-copy" fill="currentColor" fill-rule="nonzero">
            <path d="M20.7658696,0 L3.2340717,0 C1.44797877,0 0,1.44790943 0,3.23404797 L0,20.7658346 C0,22.5519731 1.44792006,24 3.2340717,24 L11.8806708,24 L11.8954071,15.423623 L9.66728231,15.423623 C9.37772179,15.423623 9.14270338,15.189487 9.14158788,14.8999286 L9.13090255,12.1354443 C9.12978705,11.8443007 9.36550999,11.6076989 9.6566557,11.6076989 L11.8807295,11.6076989 L11.8807295,8.93650499 C11.8807295,5.83660969 13.7739692,4.14869321 16.5392957,4.14869321 L18.8084592,4.14869321 C19.098783,4.14869321 19.3342124,4.38406215 19.3342124,4.6744425 L19.3342124,7.00546983 C19.3342124,7.29573275 19.0989591,7.53104299 18.8087528,7.53121912 L17.4161968,7.53186493 C15.9123256,7.53186493 15.6211211,8.24648473 15.6211211,9.29522393 L15.6211211,11.6077576 L18.9256455,11.6077576 C19.2405103,11.6077576 19.484805,11.8826971 19.4476999,12.1953873 L19.1200362,14.9598716 C19.0886848,15.2244195 18.8643517,15.4237404 18.5979818,15.4237404 L15.6358575,15.4237404 L15.6211211,24 L20.765987,24 C22.5520799,24 24,22.5520906 24,20.7660107 L24,3.23404797 C24,1.44790943 22.5520212,0 20.7658696,0 Z"
                  id="Path"/>
        </g>
    </g>
</svg>
