<?xml version="1.0" encoding="UTF-8"?>
<svg width="36px" height="36px" viewBox="0 0 36 36" version="1.1" xmlns="http://www.w3.org/2000/svg" xmlns:xlink="http://www.w3.org/1999/xlink">
    <!-- Generator: Sketch 63.1 (92452) - https://sketch.com -->
    <title>Group 54</title>
    <desc>Created with Sketch.</desc>
    <g id="NEW" stroke="none" stroke-width="1" fill="none" fill-rule="evenodd">
        <g id="Group-54">
            <rect id="Rectangle" fill="#194D9B" x="0" y="0" width="36" height="36" rx="18"></rect>
            <g id="heart-(1)" transform="translate(8.500000, 10.000000)" fill="#FFFFFF" fill-rule="nonzero">
                <path d="M13.4610495,0.0212721649 C12.5751402,0.0212721649 11.7284454,0.224356701 10.9445093,0.624923711 C10.4108639,0.89754433 9.92066392,1.25975876 9.5,1.68951134 C9.07933608,1.25975876 8.58913608,0.89754433 8.05549072,0.624923711 C7.27151546,0.224356701 6.42482062,0.0212721649 5.53891134,0.0212721649 C2.48476907,0.0212721649 0,2.50604124 0,5.56022268 C0,7.72344124 1.14246804,10.0209526 3.39563299,12.3890186 C5.27690722,14.366233 7.58017732,16.0144144 9.18107423,17.0489155 L9.5,17.2550165 L9.81892577,17.0489155 C11.4198227,16.0144536 13.7230928,14.366233 15.604367,12.3890186 C17.857532,10.0209526 19,7.72344124 19,5.56022268 C19,2.50604124 16.5152309,0.0212721649 13.4610495,0.0212721649 Z" id="Path"></path>
            </g>
        </g>
    </g>
</svg>