<?xml version="1.0"?>
<svg xmlns="http://www.w3.org/2000/svg"
     version="1.1" width="512" height="512" x="0" y="0" viewBox="0 0 256 256" style="enable-background:new 0 0 512 512"
     xml:space="preserve" class=""><g transform="matrix(-6.123233995736766e-17,1,-1,-6.123233995736766e-17,255.97251510620117,0.02751159667970171)"><path xmlns="http://www.w3.org/2000/svg" d="m51.495 252c-5.629 0-10.192-4.563-10.192-10.192v-227.616c0-5.629 4.563-10.192 10.192-10.192 5.629 0 10.192 4.563 10.192 10.192v227.616c0 5.629-4.563 10.192-10.192 10.192z" fill="#000" data-original="#f4efed" style="" class=""/><path
        xmlns="http://www.w3.org/2000/svg"
        d="m51.495 254c-6.723 0-12.192-5.469-12.192-12.192v-227.616c0-6.723 5.469-12.192 12.192-12.192s12.192 5.469 12.192 12.192v227.616c0 6.723-5.469 12.192-12.192 12.192zm0-248c-4.517 0-8.192 3.675-8.192 8.192v227.616c0 4.517 3.675 8.192 8.192 8.192s8.192-3.675 8.192-8.192v-227.616c0-4.517-3.675-8.192-8.192-8.192z"
        fill="#000000" data-original="#690589" style="" class=""/><path xmlns="http://www.w3.org/2000/svg"
                                                                        d="m49.93 136.47c-1.104 0-2-.896-2-2v-12.94c0-1.104.896-2 2-2s2 .896 2 2v12.939c0 1.105-.896 2.001-2 2.001z"
                                                                        fill="#000000" data-original="#690589" style=""
                                                                        class=""/><ellipse
        xmlns="http://www.w3.org/2000/svg" cx="51.443" cy="29.339" fill="#fff" rx="25.339" ry="25.339"
        transform="matrix(.707 -.707 .707 .707 -5.679 44.969)" data-original="#ff4397" style="" class=""/><path
        xmlns="http://www.w3.org/2000/svg"
        d="m51.443 4c-1.097 0-2.175.077-3.235.213 12.466 1.59 22.104 12.229 22.104 25.126 0 12.898-9.639 23.537-22.104 25.126 1.06.135 2.138.213 3.235.213 13.994 0 25.339-11.345 25.339-25.339.001-13.994-11.344-25.339-25.339-25.339z"
        fill="#fff" data-original="#e12579" style="" class=""/><path xmlns="http://www.w3.org/2000/svg"
                                                                     d="m204.608 252c-5.629 0-10.192-4.563-10.192-10.192v-227.616c0-5.629 4.563-10.192 10.192-10.192 5.629 0 10.192 4.563 10.192 10.192v227.616c0 5.629-4.563 10.192-10.192 10.192z"
                                                                     fill="#000" data-original="#f4efed" style=""
                                                                     class=""/><path xmlns="http://www.w3.org/2000/svg"
                                                                                     d="m204.608 254c-6.723 0-12.192-5.469-12.192-12.192v-227.616c.001-6.723 5.47-12.192 12.192-12.192s12.191 5.469 12.191 12.192v227.616c.001 6.723-5.468 12.192-12.191 12.192zm0-248c-4.517 0-8.192 3.675-8.192 8.192v227.616c0 4.517 3.675 8.192 8.192 8.192s8.191-3.675 8.191-8.192v-227.616c.001-4.517-3.674-8.192-8.191-8.192z"
                                                                                     fill="#000000"
                                                                                     data-original="#690589" style=""
                                                                                     class=""/><ellipse
        xmlns="http://www.w3.org/2000/svg" cx="204.557" cy="226.661" fill="#ffffff" rx="25.339" ry="25.339"
        transform="matrix(.707 -.707 .707 .707 -100.36 211.031)" data-original="#7bac51" style="" class=""/><path
        xmlns="http://www.w3.org/2000/svg"
        d="m204.556 201.322c-1.097 0-2.175.077-3.235.213 12.466 1.59 22.104 12.229 22.104 25.127s-9.639 23.537-22.104 25.126c1.06.135 2.138.213 3.235.213 13.994 0 25.339-11.345 25.339-25.339.001-13.996-11.344-25.34-25.339-25.34z"
        fill="#ffffff" data-original="#5d8e33" style="" class=""/><path xmlns="http://www.w3.org/2000/svg"
                                                                        d="m204.556 252c1.097 0 2.175-.077 3.235-.213-12.466-1.59-22.104-12.229-22.104-25.126 0-12.898 9.639-23.537 22.104-25.127-1.06-.135-2.138-.213-3.235-.213-13.994 0-25.339 11.345-25.339 25.339 0 13.995 11.345 25.34 25.339 25.34z"
                                                                        fill="#ffffff" data-original="#99ca6f" style=""
                                                                        class=""/><path
        xmlns="http://www.w3.org/2000/svg"
        d="m128.052 252c-5.629 0-10.192-4.563-10.192-10.192v-227.616c0-5.629 4.563-10.192 10.192-10.192 5.629 0 10.192 4.563 10.192 10.192v227.616c-.001 5.629-4.564 10.192-10.192 10.192z"
        fill="#000" data-original="#f4efed" style="" class=""/><path xmlns="http://www.w3.org/2000/svg"
                                                                     d="m128.052 254c-6.723 0-12.192-5.469-12.192-12.192v-227.616c0-6.723 5.469-12.192 12.192-12.192s12.192 5.469 12.192 12.192v227.616c0 6.723-5.47 12.192-12.192 12.192zm0-248c-4.517 0-8.192 3.675-8.192 8.192v227.616c0 4.517 3.675 8.192 8.192 8.192s8.192-3.675 8.192-8.192v-227.616c0-4.517-3.675-8.192-8.192-8.192z"
                                                                     fill="#000000" data-original="#690589" style=""
                                                                     class=""/><circle
        xmlns="http://www.w3.org/2000/svg" cx="128" cy="126.383" fill="#ffffff" r="25.339" data-original="#fcc24c"
        style="" class=""/><path xmlns="http://www.w3.org/2000/svg"
                                 d="m204.557 254c-15.075 0-27.339-12.264-27.339-27.339s12.264-27.339 27.339-27.339 27.339 12.264 27.339 27.339-12.265 27.339-27.339 27.339zm0-50.678c-12.869 0-23.339 10.47-23.339 23.339s10.47 23.339 23.339 23.339 23.339-10.47 23.339-23.339-10.47-23.339-23.339-23.339z"
                                 fill="#000000" data-original="#690589" style="" class=""/><path
        xmlns="http://www.w3.org/2000/svg"
        d="m128 101.044c-1.097 0-2.175.077-3.235.213 12.466 1.59 22.104 12.229 22.104 25.126s-9.639 23.537-22.104 25.126c1.06.135 2.138.213 3.235.213 13.994 0 25.339-11.345 25.339-25.339s-11.345-25.339-25.339-25.339z"
        fill="#ffffff" data-original="#dea42e" style="" class=""/><path xmlns="http://www.w3.org/2000/svg"
                                                                        d="m128 151.722c1.097 0 2.175-.077 3.235-.213-12.466-1.59-22.104-12.229-22.104-25.126s9.639-23.537 22.104-25.126c-1.06-.135-2.138-.213-3.235-.213-13.994 0-25.339 11.345-25.339 25.339s11.345 25.339 25.339 25.339z"
                                                                        fill="#ffffff" data-original="#fce06a" style=""
                                                                        class=""/><path
        xmlns="http://www.w3.org/2000/svg"
        d="m51.443 54.678c1.097 0 2.175-.077 3.235-.213-12.466-1.59-22.104-12.229-22.104-25.126 0-12.898 9.639-23.537 22.104-25.126-1.06-.136-2.138-.213-3.235-.213-13.994 0-25.339 11.345-25.339 25.339 0 13.995 11.345 25.339 25.339 25.339z"
        fill="#ffffff" data-original="#ff61b5" style="" class=""/><g xmlns="http://www.w3.org/2000/svg" fill="#690589"><path d="m128 153.722c-15.075 0-27.339-12.264-27.339-27.339s12.264-27.339 27.339-27.339 27.339 12.264 27.339 27.339-12.264 27.339-27.339 27.339zm0-50.679c-12.869 0-23.339 10.47-23.339 23.339s10.47 23.339 23.339 23.339 23.339-10.47 23.339-23.339-10.47-23.339-23.339-23.339z" fill="#000000" data-original="#690589" style="" class=""/>
    <path d="m51.443 56.678c-15.075 0-27.339-12.264-27.339-27.339s12.265-27.339 27.339-27.339c15.075 0 27.339 12.264 27.339 27.339.001 15.075-12.263 27.339-27.339 27.339zm0-50.678c-12.869 0-23.339 10.47-23.339 23.339s10.47 23.339 23.339 23.339 23.339-10.47 23.339-23.339-10.47-23.339-23.339-23.339z"
          fill="#000000" data-original="#690589" style="" class=""/></g></g></svg>
