<?xml version="1.0" encoding="UTF-8"?>
<svg width="16px" height="16px" viewBox="0 0 16 16" version="1.1" xmlns="http://www.w3.org/2000/svg">
    <g id="icons2/16/following_icon" stroke="none" stroke-width="1" fill="none" fill-rule="evenodd">
        <path d="M7.27247166,1.6 C9.067565,1.6 10.5207861,3.05362275 10.5207861,4.84831444 C10.5207861,6.64300612 9.067565,8.09662887 7.27247166,8.09662887 C5.47737831,8.09662887 4.02415722,6.64300612 4.02415722,4.84831444 C4.02415722,3.05362275 5.47737831,1.6 7.27247166,1.6 Z M7.27247166,2.4 C5.91925561,2.4 4.82415722,3.49540107 4.82415722,4.84831444 C4.82415722,6.20122781 5.91925561,7.29662887 7.27247166,7.29662887 C8.6256877,7.29662887 9.72078609,6.20122781 9.72078609,4.84831444 C9.72078609,3.49540107 8.6256877,2.4 7.27247166,2.4 Z"
              id="Path" fill="currentColor" fill-rule="nonzero"/>
        <path d="M13.802584,8.07942391 C13.9057512,7.97352536 14.072882,7.97352536 14.1760491,8.07942391 L14.1760491,8.07942391 L14.9227214,8.84626177 C15.0257595,8.95216032 15.0257595,9.12384834 14.9227214,9.22961452 L14.9227214,9.22961452 L11.8215799,12.4145127 C11.7202073,12.5908954 11.5587919,12.7540184 11.3464191,12.9016685 L9.69343638,14.5974796 C9.59026923,14.7032458 9.4230095,14.7032458 9.3199713,14.5974796 L9.3199713,14.5974796 L8.48205831,13.7374524 C8.09673598,13.774124 7.69135675,13.7932577 7.27247166,13.7932577 C4.56956987,13.7932577 2.6,13.0770505 2.6,11.9691005 C2.6,10.1620698 4.58176516,8.72078609 7.27247166,8.72078609 C8.24558883,8.72078609 9.13600676,8.91893993 9.87253205,9.25873369 C10.5433705,9.56822303 11.086542,9.99521464 11.4482529,10.4970067 Z M7.27247166,9.52078609 C4.97862789,9.52078609 3.4,10.6688791 3.4,11.9691005 C3.4,12.4147766 4.99082318,12.9932577 7.27247166,12.9932577 C7.4334712,12.9932577 7.59190773,12.989937 7.74727452,12.9836161 L7.07763326,12.2957746 C7.02798408,12.2449433 7,12.1758445 7,12.1038335 C7,12.0318225 7.02798408,11.9627237 7.07763326,11.9118924 L7.07763326,11.9118924 L7.82636888,11.1479667 C7.92940708,11.0424653 8.09627993,11.0424653 8.19931813,11.1479667 L8.19931813,11.1479667 L9.50747761,12.4882452 L10.8777603,11.08174 C10.328333,10.1959631 8.97880054,9.52078609 7.27247166,9.52078609 Z"
              id="Combined-Shape" fill="currentColor" fill-rule="nonzero"/>
    </g>
</svg>
