<?xml version="1.0" encoding="UTF-8"?>
<svg width="24px" height="24px" viewBox="0 0 24 24" version="1.1" xmlns="http://www.w3.org/2000/svg">
    <!-- Generator: Sketch 57.1 (83088) - https://sketch.com -->
    <title>icons2/24/globe</title>
    <desc>Created with Sketch.</desc>
    <g id="icons2/24/globe" stroke="none" stroke-width="1" fill="none" fill-rule="evenodd">
        <path d="M12,0 C5.37265625,0 0,5.37265625 0,12 C0,18.6273438 5.37265625,24 12,24 C18.6273438,24 24,18.6273438 24,12 C23.9925781,5.37578125 18.6242188,0.0074219 12,0 Z M22.3783203,16.2039062 L18.965625,16.7927734 C19.35625,15.3601562 19.5671875,13.8845703 19.5935547,12.4 L23.190039,12.4 C23.1449219,13.7058594 22.8701172,14.9935547 22.3783203,16.2039062 L22.3783203,16.2039062 Z M0.80996095,12.4 L4.4064453,12.4 C4.4328125,13.8845703 4.64375,15.3601562 5.034375,16.7927734 L1.6216797,16.2039062 C1.1298828,14.9935547 0.8550781,13.7058594 0.80996095,12.4 Z M1.6216797,7.79609375 L5.034375,7.20722655 C4.64375,8.63984375 4.4328125,10.1154297 4.4064453,11.6 L0.80996095,11.6 C0.8550781,10.2941406 1.1298828,9.0064453 1.6216797,7.79609375 Z M12.4,6.42246095 C13.8373047,6.4408203 15.2710938,6.5716797 16.688086,6.8140625 L18.1,7.0576172 C18.5337891,8.53378905 18.7671875,10.0615235 18.7939453,11.6 L12.4,11.6 L12.4,6.42246095 Z M16.8244141,6.02558595 C15.3625,5.77578125 13.8830078,5.6408203 12.4,5.62246095 L12.4,0.82246095 C14.6931641,1.04277345 16.6851563,3.1423828 17.8140625,6.1980469 L16.8244141,6.02558595 Z M11.6,5.62246095 C10.1169922,5.6408203 8.6378906,5.77578125 7.17597655,6.02558595 L6.1859375,6.196875 C7.31484375,3.1404297 9.30683595,1.04003905 11.6,0.8207031 L11.6,5.62246095 Z M7.3123047,6.8140625 C8.72910155,6.5716797 10.1626953,6.4408203 11.6,6.42246095 L11.6,11.6 L5.2060547,11.6 C5.2328125,10.0615235 5.46621095,8.53378905 5.9,7.0576172 L7.3123047,6.8140625 Z M5.2060547,12.4 L11.6,12.4 L11.6,17.5775391 C10.1626953,17.5591797 8.72890625,17.4283203 7.31191405,17.1859375 L5.9,16.9423828 C5.46621095,15.466211 5.2328125,13.9384766 5.2060547,12.4 L5.2060547,12.4 Z M7.17558595,17.9744141 C8.6375,18.2246094 10.1167969,18.3601563 11.6,18.3796875 L11.6,23.1796875 C9.30683595,22.9591797 7.31484375,20.8595703 6.1859375,17.8039063 L7.17558595,17.9744141 Z M12.4,18.3796875 C13.8830078,18.3601562 15.3621094,18.2246094 16.8240234,17.9744141 L17.8140625,17.803125 C16.6851562,20.8595703 14.6931641,22.959961 12.4,23.1792969 L12.4,18.3796875 Z M16.6876953,17.1859375 C15.2708985,17.4283203 13.8373047,17.5591797 12.4,17.5775391 L12.4,12.4 L18.7939453,12.4 C18.7671875,13.9384766 18.5337891,15.466211 18.1,16.9423828 L16.6876953,17.1859375 Z M19.5935547,11.6 C19.5671875,10.1154297 19.35625,8.63984375 18.965625,7.20722655 L22.3783203,7.79609375 C22.8701172,9.0064453 23.1449219,10.2941406 23.190039,11.6 L19.5935547,11.6 Z M21.9736328,6.9144531 L18.7023437,6.35 C18.1142578,4.4314453 17.0140625,2.7095703 15.5199219,1.3699219 C18.3138672,2.30234375 20.6308594,4.29277345 21.9736328,6.9144531 Z M8.4800781,1.3699219 C6.9859375,2.7095703 5.8857422,4.4314453 5.29765625,6.35 L2.0263672,6.9144531 C3.3691406,4.29277345 5.6861328,2.30234375 8.4800781,1.3699219 Z M2.0263672,17.0855469 L5.29765625,17.65 C5.8857422,19.5685547 6.9859375,21.2904297 8.4800781,22.6300781 C5.6861328,21.6976563 3.3691406,19.7072266 2.0263672,17.0855469 Z M15.5199219,22.6300781 C17.0140625,21.2904297 18.1142578,19.5685547 18.7023438,17.65 L21.9736328,17.0855469 C20.6308594,19.7072266 18.3138672,21.6976563 15.5199219,22.6300781 Z"
              id="Shape" fill="currentColor"></path>
    </g>
</svg>
