<?xml version="1.0" encoding="UTF-8"?>
<svg width="24px" height="24px" viewBox="0 0 24 24" version="1.1" xmlns="http://www.w3.org/2000/svg">
    <!-- Generator: Sketch 57.1 (83088) - https://sketch.com -->
    <title>icons2/24/group</title>
    <desc>Created with Sketch.</desc>
    <g id="icons2/24/group" stroke="none" stroke-width="1" fill="none" fill-rule="evenodd">
        <g id="Group" transform="translate(4.000000, 4.000000)" fill="currentColor" fill-rule="nonzero">
            <path d="M7.93333333,0.394693201 C7.93333333,0.176625207 7.75670813,0 7.53864013,0 L0.394693201,0 C0.176625207,0 0,0.176625207 0,0.394693201 L0,7.53864013 C0,7.75670813 0.176625207,7.93333333 0.394693201,7.93333333 L7.53864013,7.93333333 C7.75670813,7.93333333 7.93333333,7.75670813 7.93333333,7.53864013 L7.93333333,0.394693201 Z M7.14394693,7.14394693 L0.789386401,7.14394693 L0.789386401,0.789386401 L7.14394693,0.789386401 L7.14394693,7.14394693 Z"
                  id="Shape"></path>
            <path d="M17,0.394693201 C17,0.176625207 16.8233748,0 16.6053068,0 L9.46135987,0 C9.24329187,0 9.06666667,0.176625207 9.06666667,0.394693201 L9.06666667,7.53864013 C9.06666667,7.75670813 9.24329187,7.93333333 9.46135987,7.93333333 L16.6053068,7.93333333 C16.8233748,7.93333333 17,7.75670813 17,7.53864013 L17,0.394693201 Z M16.2106136,7.14394693 L9.85605307,7.14394693 L9.85605307,0.789386401 L16.2106136,0.789386401 L16.2106136,7.14394693 Z"
                  id="Shape"></path>
            <path d="M7.93333333,9.46135987 C7.93333333,9.24329187 7.75670813,9.06666667 7.53864013,9.06666667 L0.394693201,9.06666667 C0.176625207,9.06666667 0,9.24329187 0,9.46135987 L0,16.6053068 C0,16.8233748 0.176625207,17 0.394693201,17 L7.53864013,17 C7.75670813,17 7.93333333,16.8233748 7.93333333,16.6053068 L7.93333333,9.46135987 Z M7.14394693,16.1711443 L0.789386401,16.1711443 L0.789386401,9.85605307 L7.14394693,9.85605307 L7.14394693,16.1711443 Z"
                  id="Shape"></path>
            <path d="M17,9.46135987 C17,9.24329187 16.8233748,9.06666667 16.6053068,9.06666667 L9.46135987,9.06666667 C9.24329187,9.06666667 9.06666667,9.24329187 9.06666667,9.46135987 L9.06666667,16.6053068 C9.06666667,16.8233748 9.24329187,17 9.46135987,17 L16.6053068,17 C16.8233748,17 17,16.8233748 17,16.6053068 L17,9.46135987 Z M16.2106136,16.1711443 L9.85605307,16.1711443 L9.85605307,9.85605307 L16.2106136,9.85605307 L16.2106136,16.1711443 Z"
                  id="Shape"></path>
            <path d="M3.96666667,5.1 C4.74888033,5.1 5.38333333,4.46456424 5.38333333,3.68115995 C5.38333333,2.89775567 4.74887093,2.26666667 3.96666667,2.26666667 C3.1844624,2.26666667 2.55,2.90210243 2.55,3.68115995 C2.55,4.46021748 3.18445301,5.1 3.96666667,5.1 Z M3.96666667,2.6366115 C4.54028313,2.6366115 5.00961508,3.10665407 5.00961508,3.68115995 C5.00961508,4.25566584 4.54028313,4.725699 3.96666667,4.725699 C3.3930502,4.725699 2.92371825,4.25565643 2.92371825,3.68115055 C2.92371825,3.10664466 3.39304081,2.6366115 3.96666667,2.6366115 Z"
                  id="Shape"></path>
            <path d="M1.33338599,7.46111111 L6.59994735,7.46111111 C6.71160511,7.46111111 6.8,7.38171217 6.8,7.28141783 C6.8,6.34115156 5.94860704,5.57222222 4.89715138,5.57222222 L3.03618196,5.57222222 C1.98938289,5.57222222 1.13333333,6.33696887 1.13333333,7.28141783 C1.13333333,7.38171217 1.22172822,7.46111111 1.33338599,7.46111111 Z M3.03618196,5.93160879 L4.89715138,5.93160879 C5.66014944,5.93160879 6.28822687,6.44144591 6.38593496,7.10171551 L1.54739838,7.10171551 C1.6450964,6.4456286 2.27318389,5.93160879 3.03618196,5.93160879 Z"
                  id="Shape"></path>
            <path d="M13.0333333,5.1 C13.815547,5.1 14.45,4.46456424 14.45,3.68115995 C14.45,2.89775567 13.8155376,2.26666667 13.0333333,2.26666667 C12.2511291,2.26666667 11.6166667,2.90210243 11.6166667,3.68115995 C11.6166667,4.46021748 12.2511197,5.1 13.0333333,5.1 Z M13.0333333,2.6366115 C13.6069498,2.6366115 14.0762817,3.10665407 14.0762817,3.68115995 C14.0762817,4.25566584 13.6069498,4.725699 13.0333333,4.725699 C12.4597169,4.725699 11.9903849,4.25565643 11.9903849,3.68115055 C11.9903849,3.10664466 12.4597075,2.6366115 13.0333333,2.6366115 Z"
                  id="Shape"></path>
            <path d="M10.4000527,7.46111111 L15.666614,7.46111111 C15.7782718,7.46111111 15.8666667,7.38171217 15.8666667,7.28141783 C15.8666667,6.34115156 15.0152737,5.57222222 13.963818,5.57222222 L12.1028486,5.57222222 C11.0560496,5.57222222 10.2,6.33696887 10.2,7.28141783 C10.2,7.38171217 10.2883949,7.46111111 10.4000527,7.46111111 Z M12.1028486,5.93160879 L13.963818,5.93160879 C14.7268161,5.93160879 15.3548935,6.44144591 15.4526016,7.10171551 L10.614065,7.10171551 C10.7117631,6.4456286 11.3398506,5.93160879 12.1028486,5.93160879 Z"
                  id="Shape"></path>
            <path d="M13.0333333,14.1666667 C13.815547,14.1666667 14.45,13.5312309 14.45,12.7478266 C14.45,11.9644223 13.8155376,11.3333333 13.0333333,11.3333333 C12.2511291,11.3333333 11.6166667,11.9687691 11.6166667,12.7478266 C11.6166667,13.5268841 12.2511197,14.1666667 13.0333333,14.1666667 Z M13.0333333,11.7032782 C13.6069498,11.7032782 14.0762817,12.1733207 14.0762817,12.7478266 C14.0762817,13.3223325 13.6069498,13.7923657 13.0333333,13.7923657 C12.4597169,13.7923657 11.9903849,13.3223231 11.9903849,12.7478172 C11.9903849,12.1733113 12.4597075,11.7032782 13.0333333,11.7032782 Z"
                  id="Shape"></path>
            <path d="M10.4000527,16.5277778 L15.666614,16.5277778 C15.7782718,16.5277778 15.8666667,16.4483788 15.8666667,16.3480845 C15.8666667,15.4078182 15.0152737,14.6388889 13.963818,14.6388889 L12.1028486,14.6388889 C11.0560496,14.6388889 10.2,15.4036355 10.2,16.3480845 C10.2,16.4483788 10.2883949,16.5277778 10.4000527,16.5277778 Z M12.1028486,14.9982755 L13.963818,14.9982755 C14.7268161,14.9982755 15.3548935,15.5081126 15.4526016,16.1683822 L10.614065,16.1683822 C10.7117631,15.5122953 11.3398506,14.9982755 12.1028486,14.9982755 Z"
                  id="Shape"></path>
            <path d="M3.96666667,14.1666667 C4.74888033,14.1666667 5.38333333,13.5312309 5.38333333,12.7478266 C5.38333333,11.9644223 4.74887093,11.3333333 3.96666667,11.3333333 C3.1844624,11.3333333 2.55,11.9687691 2.55,12.7478266 C2.55,13.5268841 3.18445301,14.1666667 3.96666667,14.1666667 Z M3.96666667,11.7032782 C4.54028313,11.7032782 5.00961508,12.1733207 5.00961508,12.7478266 C5.00961508,13.3223325 4.54028313,13.7923657 3.96666667,13.7923657 C3.3930502,13.7923657 2.92371825,13.3223231 2.92371825,12.7478172 C2.92371825,12.1733113 3.39304081,11.7032782 3.96666667,11.7032782 Z"
                  id="Shape"></path>
            <path d="M1.33338599,16.5277778 L6.59994735,16.5277778 C6.71160511,16.5277778 6.8,16.4483788 6.8,16.3480845 C6.8,15.4078182 5.94860704,14.6388889 4.89715138,14.6388889 L3.03618196,14.6388889 C1.98938289,14.6388889 1.13333333,15.4036355 1.13333333,16.3480845 C1.13333333,16.4483788 1.22172822,16.5277778 1.33338599,16.5277778 Z M3.03618196,14.9982755 L4.89715138,14.9982755 C5.66014944,14.9982755 6.28822687,15.5081126 6.38593496,16.1683822 L1.54739838,16.1683822 C1.6450964,15.5122953 2.27318389,14.9982755 3.03618196,14.9982755 Z"
                  id="Shape"></path>
        </g>
    </g>
</svg>
