<?xml version="1.0" encoding="UTF-8"?>
<svg width="16px" height="16px" viewBox="0 0 16 16" version="1.1" xmlns="http://www.w3.org/2000/svg">
    <!-- Generator: Sketch 57.1 (83088) - https://sketch.com -->
    <title>icons2/16/heart</title>
    <desc>Created with Sketch.</desc>
    <g id="icons2/16/heart" stroke="none" stroke-width="1" fill="none" fill-rule="evenodd">
        <path d="M7.92833862,14.4142143 L7.92883167,14.4146765 C7.95288522,14.4372429 7.97727367,14.4470588 8,14.4470588 C8.02271836,14.4470588 8.04734255,14.4371557 8.07150745,14.4145056 C8.61249431,13.9077694 9.05616654,13.4999737 9.90181544,12.7282938 C12.1718234,10.6561626 13.0046991,9.83879608 13.7805024,8.8360624 C14.7598383,7.57041095 15.2,6.41219698 15.2,5.15038671 C15.2,3.92800651 14.8138356,2.81490209 14.1245243,2.01403034 C13.4470692,1.22701673 12.5311753,0.8 11.5303955,0.8 C10.7955616,0.8 10.1296031,1.04623709 9.52679101,1.54560657 C9.21144267,1.80680647 8.92179576,2.13078076 8.66294947,2.51401768 L7.99986514,3.49575246 L7.33696605,2.51389259 C7.07844685,2.13098419 6.78873551,1.80693783 6.47329094,1.54557334 C5.87051894,1.04623709 5.20456048,0.8 4.46972656,0.8 C3.468873,0.8 2.55308506,1.22697934 1.87562503,2.01399869 C1.1862288,2.81496909 0.8,3.92810112 0.8,5.15038671 C0.8,6.41209279 1.24021149,7.57032991 2.21962301,8.83619748 C2.99553398,9.83896561 3.82874615,10.6566067 6.10144625,12.7311391 C6.95641619,13.5114905 7.38984972,13.909873 7.92833862,14.4142143 Z"
              id="Shape" stroke="currentColor" stroke-width="0.7" fill-rule="nonzero"></path>
    </g>
</svg>
