<?xml version="1.0" encoding="UTF-8"?>
<svg width="21px" height="26px" viewBox="0 0 21 26" version="1.1" xmlns="http://www.w3.org/2000/svg"
>
    <title>i-pin-03</title>
    <desc>Created with Sketch.</desc>
    <g id="desktop" stroke="none" stroke-width="1" fill="none" fill-rule="evenodd">
        <g id="easy-desktop-list-L" transform="translate(-271.000000, -607.000000)" fill="currentColor" stroke="#FFFFFF">
            <g id="Group-3" transform="translate(16.000000, 208.000000)">
                <g id="i-pin-03" transform="translate(255.000000, 399.000000)">
                    <g transform="translate(1.000000, 1.000000)" id="Combined-Shape">
                        <path d="M13.1023336,18.6928704 L10.2424029,24.048781 C10.0937857,24.3269229 9.80387061,24.5 9.48867953,24.5 C9.17348844,24.5 8.88357338,24.3269229 8.73487051,24.0486207 L5.86964723,18.6815746 C2.04260797,17.2002427 -0.5,13.5244457 -0.5,9.43323772 C-0.5,3.9546161 3.98611924,-0.5 9.5,-0.5 C15.013996,-0.5 19.5,3.95473066 19.5,9.43394017 C19.5,13.5376967 16.9455157,17.2183117 13.1023336,18.6928704 Z M9.5,7.5 C8.3974698,7.5 7.5,8.39752996 7.5,9.5 C7.5,10.6023045 8.39774446,11.5 9.5,11.5 C10.6022555,11.5 11.5,10.6023045 11.5,9.5 C11.5,8.39752996 10.6025302,7.5 9.5,7.5 Z"
                        />
                    </g>
                    <circle cx="10" cy="10" r="4" stroke="none"/>
                    <g transform="translate(4.500000, 5.50000)  scale(0.8, 0.8)" class="currentLayer" style="">
                        <title>Layer 1</title>
                        <g id="destinations_card_view_icon" stroke="none" stroke-width="1" fill="none"
                           fill-rule="evenodd" class="">
                            <path d="M13.576068633846958,5.015178401502306 L13.576068633846958,1.2360901724062678 C13.576068633846958,0.5545237752781901 13.007465128197502,-1.3423971226278475e-8 12.3085933741874,-1.3423971226278475e-8 L2.1124588123205847,-1.3423971226278475e-8 C1.4135870194845719,-1.3423971226278475e-8 0.8449835249282335,0.5545237752781901 0.8449835249282335,1.2360901724062678 L0.8449835249282335,5.015178401502306 C0.35317669238847954,5.185355414141565 -1.1102230246251565e-16,5.64330962544302 -1.1102230246251565e-16,6.180450887994432 L-1.1102230246251565e-16,11.124811675687853 C-1.1102230246251565e-16,11.35239384960294 0.18913108404212686,11.53684171359618 0.4224917624641169,11.53684171359618 L2.1124588123205847,11.53684171359618 C2.3458194907425742,11.53684171359618 2.534950574784702,11.35239384960294 2.534950574784702,11.124811675687853 L2.534950574784702,9.888721451031707 L11.886101583990488,9.888721451031707 L11.886101583990488,11.124811675687853 C11.886101583990488,11.35239384960294 12.075232684672294,11.53684171359618 12.3085933741874,11.53684171359618 L13.998560424043866,11.53684171359618 C14.231921058093391,11.53684171359618 14.42105215877519,11.35239384960294 14.42105215877519,11.124811675687853 L14.42105215877519,6.180450887994432 C14.42105215877519,5.64330962544302 14.067875488572946,5.185355414141565 13.576068633846958,5.015178401502306 zM2.1124588123205847,0.8240601123117076 L12.308593318721812,0.8240601123117076 C12.541513944283736,0.8240601123117076 12.731085108918723,1.0089371468171926 12.731085108918723,1.2360901724062678 L12.731085108918723,4.944360724350426 L11.813485817950195,4.944360724350426 C11.860356012364939,4.8153867487813535 11.886101583990488,4.676755771099739 11.886101583990488,4.532330664255866 L11.886101583990488,3.708270544066745 C11.886101583990488,3.026704146938668 11.317498078341032,2.472180358236508 10.618626268865347,2.472180358236508 L8.900493129244062,2.472180358236508 C8.201621319768375,2.472180358236508 7.633017869584505,3.026704146938668 7.633017869584505,3.708270544066745 L7.633017869584505,4.532330664255866 C7.633017869584505,4.676755771099739 7.658763441210054,4.8153867487813535 7.7056336356248,4.944360724350426 L6.71541852315039,4.944360724350426 C6.762288717565136,4.8153867487813535 6.788034289190685,4.676755771099739 6.788034289190685,4.532330664255866 L6.788034289190685,3.708270544066745 C6.788034289190685,3.026704146938668 6.219430839006815,2.472180358236508 5.520559029531128,2.472180358236508 L3.802425862177053,2.472180358236508 C3.1035540693410386,2.472180358236508 2.534950574784702,3.026704146938668 2.534950574784702,3.708270544066745 L2.534950574784702,4.532330664255866 C2.534950574784702,4.676755771099739 2.56069615195681,4.8153867487813535 2.607566346371556,4.944360724350426 L1.6899670498564678,4.944360724350426 L1.6899670498564678,1.2360901724062678 C1.6899670498564678,1.0089371468171926 1.8795382311311286,0.8240601123117076 2.1124588123205847,0.8240601123117076 zM8.478001339047154,4.532330664255866 L8.478001339047154,3.708270544066745 C8.478001339047154,3.481117518477671 8.667572559147725,3.296240478425627 8.900493129244062,3.296240478425627 L10.61862632433093,3.296240478425627 C10.851546894427267,3.296240478425627 11.041118059062256,3.481117518477671 11.041118059062256,3.708270544066745 L11.041118059062256,4.532330664255866 C11.041118059062256,4.7594836898449415 10.851546894427267,4.944360724350426 10.61862632433093,4.944360724350426 L8.900493129244062,4.944360724350426 C8.667572559147725,4.944360724350426 8.478001339047154,4.7594836898449415 8.478001339047154,4.532330664255866 zM3.3799340997129352,4.532330664255866 L3.3799340997129352,3.708270544066745 C3.3799340997129352,3.481117518477671 3.569505280987597,3.296240478425627 3.802425862177053,3.296240478425627 L5.520559029531128,3.296240478425627 C5.753479599627465,3.296240478425627 5.943050819728037,3.481117518477671 5.943050819728037,3.708270544066745 L5.943050819728037,4.532330664255866 C5.943050819728037,4.7594836898449415 5.753479599627465,4.944360724350426 5.520559029531128,4.944360724350426 L3.802425862177053,4.944360724350426 C3.569505280987597,4.944360724350426 3.3799340997129352,4.7594836898449415 3.3799340997129352,4.532330664255866 zM1.2674752873923512,5.768420850086105 L13.153576899115635,5.768420850086105 C13.386497469211971,5.768420850086105 13.576068633846958,5.953297906777824 13.576068633846958,6.180450887994432 L13.576068633846958,7.416541112650579 L0.8449835249282335,7.416541112650579 L0.8449835249282335,6.180450887994432 C0.8449835249282335,5.953297906777824 1.0345547062028952,5.768420850086105 1.2674752873923512,5.768420850086105 zM12.731085108918723,10.712781582313943 L12.731085108918723,9.47669141312338 C12.731085108918723,9.249109183742709 12.541954008236921,9.064661319749469 12.3085933741874,9.064661319749469 L2.1124588123205847,9.064661319749469 C1.8790981338985944,9.064661319749469 1.6899670498564678,9.249109183742709 1.6899670498564678,9.47669141312338 L1.6899670498564678,10.712781582313943 L0.8449835249282335,10.712781582313943 L0.8449835249282335,8.240601243932817 L13.576068633846958,8.240601243932817 L13.576068633846958,10.712781582313943 L12.731085108918723,10.712781582313943 z"
                                  id="Shape-Copy-4" fill="#ffffff" fill-rule="nonzero"/>
                        </g>
                    </g>
                </g>
            </g>
        </g>
    </g>
</svg>
