<?xml version="1.0" encoding="UTF-8"?>
<svg width="39px" height="29px" viewBox="0 0 39 29" version="1.1" xmlns="http://www.w3.org/2000/svg" xmlns:xlink="http://www.w3.org/1999/xlink">
    <!-- Generator: Sketch 63.1 (92452) - https://sketch.com -->
    <title>bed</title>
    <desc>Created with Sketch.</desc>
    <g id="NEW" stroke="none" stroke-width="1" fill="none" fill-rule="evenodd">
        <g id="new_header-copy-5" transform="translate(-216.000000, -170.000000)" fill="currentColor" fill-rule="nonzero">
            <g id="bed" transform="translate(216.000000, 170.000000)">
                <path d="M0,25.4203125 L0,27.847099 C0,28.4727135 0.507197917,28.9799115 1.1328125,28.9799115 C1.75842708,28.9799115 2.265625,28.4727135 2.265625,27.847099 L2.265625,26.553125 L36.4010417,26.553125 L36.4010417,27.847099 C36.4010417,28.4727135 36.9082396,28.9799115 37.5338542,28.9799115 C38.1594687,28.9799115 38.6666667,28.4727135 38.6666667,27.847099 L38.6666667,25.4203125 L38.6666667,21.6996276 L0,21.6996276 L0,25.4203125 Z" id="Path"></path>
                <path d="M34.5004844,12.1537943 L4.16618229,12.1537943 C1.86898958,12.1537943 0,14.0227839 0,16.3200521 L0,19.4340026 L38.6666667,19.4340026 L38.6666667,16.3200521 C38.6666667,14.0227839 36.7976771,12.1537943 34.5004844,12.1537943 L34.5004844,12.1537943 Z" id="Path"></path>
                <path d="M15.0866458,7.13921094 C14.0385677,7.13921094 13.1859375,7.99176563 13.1859375,9.03976823 L13.1859375,9.88809375 L25.4807292,9.88809375 L25.4807292,9.03976823 C25.4807292,7.99176563 24.6281745,7.13921094 23.5801719,7.13921094 L15.0866458,7.13921094 Z" id="Path"></path>
                <path d="M10.9203125,9.03976823 C10.9203125,6.7425 12.7893021,4.87358594 15.0866458,4.87358594 L23.5802474,4.87358594 C25.8775156,4.87358594 27.7464297,6.7425 27.7464297,9.03976823 L27.7464297,9.88809375 L33.8133203,9.88809375 L33.8133203,4.18627083 C33.8133203,1.8890026 31.9443307,0.0200885417 29.646987,0.0200885417 L9.01975521,0.0200885417 C6.72248698,0.0200885417 4.85357292,1.8890026 4.85357292,4.18627083 L4.85357292,9.88809375 L10.9203125,9.88809375 L10.9203125,9.03976823 Z" id="Path"></path>
            </g>
        </g>
    </g>
</svg>