<?xml version="1.0" encoding="UTF-8"?>
<svg width="48px" height="48px" viewBox="0 0 48 48" version="1.1" xmlns="http://www.w3.org/2000/svg">
    <!-- Generator: Sketch 59.1 (86144) - https://sketch.com -->
    <title>Group 14</title>
    <desc>Created with Sketch.</desc>
    <g id="New-post" stroke="none" stroke-width="1" fill="none" fill-rule="evenodd">
        <g id="5.1_add" transform="translate(-163.000000, -510.000000)">
            <g id="Group-14" transform="translate(163.000000, 510.000000)">
                <g id="Group-7" fill="#5EC3ED" fill-rule="nonzero">
                    <g id="Group-4">
                        <circle id="Oval-Copy-7" cx="24" cy="24" r="24"></circle>
                    </g>
                </g>
                <g id="camera" transform="translate(11.500000, 11.000000)" fill="#FFFFFF" stroke="#5EC3ED"
                   stroke-width="0.3">
                    <path d="M8.275,15.437575 C8.27504054,18.0470689 10.3904966,20.1625 13,20.1625 C15.6095284,20.1625 17.725,18.0470284 17.725,15.4375 C17.725,12.8279716 15.6095284,10.7125 13.00015,10.7124999 C10.3916466,10.7151086 8.27764912,12.8290811 8.275,15.437575 Z M13,12.0375 C14.8777568,12.0375 16.4,13.5597432 16.4,15.4375 C16.4,17.3152568 14.8777568,18.8375 13,18.8375 C11.1222432,18.8375 9.6,17.3152568 9.6,15.4375 C9.6,13.5597432 11.1222432,12.0375 13,12.0375 Z"
                          id="Shape"></path>
                    <rect id="Rectangle" x="19.65" y="9.0875" width="2.95" height="1.325"></rect>
                    <rect id="Rectangle" x="24.525" y="12.3375" width="1.325" height="1.325"></rect>
                    <rect id="Rectangle" x="24.525" y="15.5875" width="1.325" height="1.325"></rect>
                    <path d="M17.579946,2.5875 L13.15,2.5875 L13.15,3.9125 L16.4279375,3.9125 L16.5734589,4.02611966 L17.357554,7.1625 L24.375,7.1625 L24.525,7.3125 L24.525,10.4125 L25.85,10.4125 L25.85,5.8375 L18.5095625,5.8375 L18.3640411,5.72388034 L17.579946,2.5875 Z"
                          id="Path"></path>
                    <path d="M1.475,11.525 L0.15,11.525 L0.15,23.4125 L25.85,23.4125 L25.85,18.8375 L24.525,18.8375 L24.525,21.9375 L24.375,22.0875 L1.625,22.0875 L1.475,21.9375 L1.475,11.525 Z"
                          id="Path"></path>
                    <path d="M3.4,11.225 L7.975,11.225 L7.975,8.125 L8.125,7.975 L11.225,7.975 L11.225,3.4 L8.125,3.4 L7.975,3.25 L7.975,0.15 L3.4,0.15 L3.4,3.25 L3.25,3.4 L0.15,3.4 L0.15,7.975 L3.25,7.975 L3.4,8.125 L3.4,11.225 Z M4.725,4.725 L4.725,1.625 L4.875,1.475 L6.5,1.475 L6.65,1.625 L6.65,4.725 L9.75,4.725 L9.9,4.875 L9.9,6.5 L9.75,6.65 L6.65,6.65 L6.65,9.75 L6.5,9.9 L4.875,9.9 L4.725,9.75 L4.725,6.65 L1.625,6.65 L1.475,6.5 L1.475,4.875 L1.625,4.725 L4.725,4.725 Z"
                          id="Shape"></path>
                </g>
            </g>
        </g>
    </g>
</svg>
