<?xml version="1.0" standalone="no"?>
<!DOCTYPE svg PUBLIC "-//W3C//DTD SVG 20010904//EN"
        "http://www.w3.org/TR/2001/REC-SVG-20010904/DTD/svg10.dtd">
<svg version="1.0" xmlns="http://www.w3.org/2000/svg"
     width="512.000000pt" height="512.000000pt" viewBox="0 0 512.000000 512.000000"
     preserveAspectRatio="xMidYMid meet">

    <g transform="translate(0.000000,560.000000) scale(0.100000,-0.100000)"
       fill="currentColor" stroke="none">
        <path d="M322 4114 c-56 -28 -90 -63 -125 -128 l-22 -41 0 -1385 0 -1385 31
-55 c35 -62 96 -114 152 -130 52 -14 4352 -14 4404 0 56 16 117 68 152 130
l31 55 0 1385 0 1385 -22 41 c-35 65 -69 100 -125 128 l-52 26 -2186 0 -2186
0 -52 -26z m4418 -127 c13 -7 35 -28 48 -47 18 -28 22 -45 20 -91 l-3 -56
-1075 -918 c-591 -505 -1088 -926 -1105 -936 -38 -24 -92 -24 -130 0 -16 10
-514 431 -1105 936 l-1075 918 -3 56 c-2 46 2 63 20 91 13 19 35 40 48 47 37
19 4323 19 4360 0z m-3765 -942 c341 -290 621 -531 623 -534 1 -3 -288 -296
-643 -651 l-645 -645 0 1199 0 1199 23 -20 c12 -11 301 -258 642 -548z m3835
-632 l0 -1198 -645 645 c-355 355 -644 648 -643 651 2 3 251 217 553 475 303
258 591 504 640 546 50 43 91 78 93 78 1 0 2 -539 2 -1197z m-2738 -303 c372
-317 391 -330 488 -330 97 0 116 13 488 330 194 165 355 300 359 300 5 0 298
-290 653 -645 l645 -645 -2145 0 -2145 0 645 645 c355 355 648 645 652 645 4
0 166 -135 360 -300z"/>
    </g>
</svg>
