<svg xmlns="http://www.w3.org/2000/svg" width="309.12" height="230.332" viewBox="0 0 309.12 230.332">
  <g id="Exploring-rafiki-2" transform="translate(0 -55)">
    <g id="freepik--background-complete--inject-293" transform="translate(0 55)">
      <rect id="Rectangle_2373" data-name="Rectangle 2373" width="309.12" height="0.157" transform="translate(0 201.961)" fill="#ebebeb"/>
      <rect id="Rectangle_2374" data-name="Rectangle 2374" width="20.807" height="0.157" transform="translate(63.001 212.069)" fill="#ebebeb"/>
      <rect id="Rectangle_2375" data-name="Rectangle 2375" width="27.359" height="0.157" transform="translate(105.643 207.313)" fill="#ebebeb"/>
      <rect id="Rectangle_2376" data-name="Rectangle 2376" width="30.507" height="0.157" transform="translate(32.957 206.239)" fill="#ebebeb"/>
      <rect id="Rectangle_2377" data-name="Rectangle 2377" width="21.542" height="0.157" transform="translate(152.9 208.363)" fill="#ebebeb"/>
      <rect id="Rectangle_2378" data-name="Rectangle 2378" width="4.674" height="0.157" transform="translate(272.972 208.363)" fill="#ebebeb"/>
      <rect id="Rectangle_2379" data-name="Rectangle 2379" width="30.513" height="0.157" transform="translate(179.472 208.363)" fill="#ebebeb"/>
      <rect id="Rectangle_2380" data-name="Rectangle 2380" width="58.852" height="0.157" transform="translate(201.178 211.014)" fill="#ebebeb"/>
      <path id="Path_4271" data-name="Path 4271" d="M163.095,232.662H41.8a3.587,3.587,0,0,1-3.587-3.587V58.556A3.587,3.587,0,0,1,41.8,55h121.3a3.587,3.587,0,0,1,3.587,3.587V229.075A3.587,3.587,0,0,1,163.095,232.662ZM41.8,55.126a3.436,3.436,0,0,0-3.43,3.43V229.075a3.436,3.436,0,0,0,3.43,3.43h121.3a3.436,3.436,0,0,0,3.43-3.43V58.556a3.436,3.436,0,0,0-3.43-3.43Z" transform="translate(-14.206 -55)" fill="#ebebeb"/>
      <path id="Path_4272" data-name="Path 4272" d="M379.4,232.662H258.087a3.593,3.593,0,0,1-3.587-3.587V58.556A3.593,3.593,0,0,1,258.087,55H379.4a3.587,3.587,0,0,1,3.575,3.556V229.075A3.587,3.587,0,0,1,379.4,232.662ZM258.087,55.126a3.436,3.436,0,0,0-3.43,3.43V229.075a3.436,3.436,0,0,0,3.43,3.43H379.4a3.436,3.436,0,0,0,3.43-3.43V58.556a3.436,3.436,0,0,0-3.43-3.43Z" transform="translate(-99.609 -55)" fill="#ebebeb"/>
      <path id="Path_4273" data-name="Path 4273" d="M334.637,181.985c-4.291,2.513-12.784.986-26.706-1.181-8.167-1.256-12.232,1.332-17.892,3.688-2.268.942-12.225,4.222.779,4.222l9.486-.031h62.822c20.047,0,1.4-3.581-1.816-4.95l-.163-.075C351.592,179.472,338.927,179.472,334.637,181.985Z" transform="translate(-109.623 -102.983)" fill="#f5f5f5"/>
      <path id="Path_4274" data-name="Path 4274" d="M328.914,97.609h60.592c5.3,0-.232-3.493-7.539-4.19s-13.947-5.842-23.464-7.262-9.781,6.282-22.283,6.213C326.106,92.313,318.586,97.609,328.914,97.609Z" transform="translate(-125.436 -66.518)" fill="#f5f5f5"/>
      <path id="Path_4275" data-name="Path 4275" d="M84.331,231.946c-1.885,7.262-10.68,1.087-15-4.253,3.769-2.356,9.568-3.279,12.853-1.256q-2.45-4-5.233-7.765a6.522,6.522,0,0,1,0,1.577c-.949,7.463-10.485,2.394-15.479-2.419,3.443-2.814,9.1-4.442,12.634-2.827-.7-.873-1.426-1.74-2.155-2.6-5.3.126-5.334-7.928-3.336-12.872,5.133,3.593,9.1,11.465,4.731,12.678q2.858,3.392,5.422,6.986c-.553-3.769,1.822-9.21,5.063-12.269,5.491,7.275,6.527,19.293-.967,16.723a7.714,7.714,0,0,1-1.47-.628q2.6,3.97,4.844,8.117c-.069-3.8,2.978-8.871,6.578-11.5,4.492,7.847,4.014,19.858-3.085,16.4a7.753,7.753,0,0,1-1.382-.792q2.073,4.234,3.769,8.619c.415-3.769,4.071-8.406,7.972-10.567,3.468,8.3,1.5,20.16-5.114,15.856a7.778,7.778,0,0,1-1.256-.955q1.527,4.448,2.676,9.015c.873-3.688,5.082-7.84,9.216-9.5,2.412,8.657-1,20.223-7.036,15.077a7.7,7.7,0,0,1-1.143-1.106q.961,4.617,1.545,9.31c1.319-3.568,6.012-7.174,10.322-8.305,1.319,8.908-3.505,20.034-8.858,14.173a7.272,7.272,0,0,1-.993-1.256c.251,3.141.377,6.32.364,9.5,1.759-3.4,6.86-6.414,11.308-7,.207,9.059-5.993,19.619-10.567,13.054a7.884,7.884,0,0,1-.829-1.369q-.207,4.693-.817,9.423a.6.6,0,1,1-1.181-.144,112.08,112.08,0,0,0,.917-15.448,6.282,6.282,0,0,1-.892,1.307c-5.133,5.541-9.913-4.247-11.138-10.962,4.435-.264,9.97,1.684,11.892,5.026q-.245-4.693-.88-9.329a6.434,6.434,0,0,1-.722,1.395c-4.4,6.087-10.366-2.928-12.407-9.423,4.366-.817,10.1.421,12.42,3.493q-.823-4.6-2.023-9.1a6.2,6.2,0,0,1-.547,1.47c-3.619,6.565-10.642-1.589-13.469-7.765,4.234-1.357,10.052-.842,12.753,1.885q-1.382-4.448-3.141-8.764a6.383,6.383,0,0,1-.364,1.527c-2.777,6.954-10.749-.251-14.33-6.044,4.027-1.885,9.888-2.079,12.891.32q-1.922-4.241-4.2-8.324A6.313,6.313,0,0,1,84.331,231.946Z" transform="translate(-22.853 -112.452)" fill="#f5f5f5"/>
      <path id="Path_4276" data-name="Path 4276" d="M298.21,243.487c-1.973,4.284-6.747-.509-8.827-4.291,2.595-1.049,6.282-.98,8.1.628q-1.074-2.739-2.381-5.4a4.069,4.069,0,0,1-.157.98c-1.407,4.517-6.76.327-9.323-3.2,2.444-1.363,6.125-1.746,8.136-.358-.339-.628-.685-1.256-1.043-1.853-3.3-.5-2.431-5.5-.628-8.343,2.783,2.8,4.4,8.11,1.533,8.374q1.395,2.419,2.588,4.932c.075-2.406,2.142-5.51,4.486-7.049,2.6,5.12,1.916,12.678-2.438,10.259a4.235,4.235,0,0,1-.842-.547q1.168,2.739,2.1,5.566c.377-2.362,2.827-5.17,5.346-6.4,1.922,5.352.3,12.747-3.719,9.819a4.4,4.4,0,0,1-.766-.628c.54,1.885,1.005,3.82,1.388,5.761.672-2.293,3.449-4.762,6.1-5.654,1.256,5.522-1.288,12.659-4.913,9.26a4.874,4.874,0,0,1-.685-.729q.465,2.921.666,5.88c.949-2.193,4.014-4.3,6.76-4.869.54,5.654-2.852,12.414-6.025,8.582a4.724,4.724,0,0,1-.591-.81q.094,2.965-.069,5.937c1.212-2.061,4.517-3.769,7.313-4-.163,5.654-4.4,12.024-7.049,7.8a4.4,4.4,0,0,1-.477-.886c-.195,1.979-.465,3.958-.823,5.924,1.464-1.916,4.957-3.216,7.759-3.091-.867,5.654-5.874,11.49-7.978,6.91a4.322,4.322,0,0,1-.364-.942c-.433,1.922-.949,3.838-1.545,5.736a.377.377,0,1,1-.71-.226,70.543,70.543,0,0,0,2.268-9.467,4.113,4.113,0,0,1-.7.71c-3.769,2.865-5.654-3.719-5.692-8.016,2.777.32,5.987,2.142,6.81,4.435q.364-2.94.484-5.88a3.769,3.769,0,0,1-.628.785c-3.4,3.286-6.094-2.953-6.647-7.193,2.8-.031,6.207,1.37,7.306,3.531q0-2.94-.245-5.861a4.006,4.006,0,0,1-.5.848c-2.965,3.669-6.42-2.155-7.488-6.282,2.77-.377,6.332.591,7.689,2.588-.245-1.935-.565-3.864-.974-5.773a3.712,3.712,0,0,1-.39.9c-2.513,4-6.634-1.338-8.217-5.327,2.708-.71,6.358-.195,7.96,1.621-.484-1.885-1.049-3.769-1.69-5.616a3.964,3.964,0,0,1-.264.924Z" transform="translate(-109.282 -119.544)" fill="#f5f5f5"/>
      <path id="Path_4277" data-name="Path 4277" d="M51.61,318.271A46.732,46.732,0,0,1,64.84,324.7a34.55,34.55,0,0,1,4.328-22.465s8.676,7.834,13.193,18.407a27.063,27.063,0,0,1,4.529-4.253,42.393,42.393,0,0,1-1.175-6.332,59.987,59.987,0,0,1,16.906,8.211,44.133,44.133,0,0,1,5.522-28.691s11.076,10.008,16.849,23.514a32.5,32.5,0,0,1,7.495-6.59s5.842,9.913,6.4,20.669a39.372,39.372,0,0,1,11.785-.817s-.232,12.784-8.657,19.758a20.35,20.35,0,0,1-2.544,1.778H62.415a39.949,39.949,0,0,1-9.869-9.423,24.951,24.951,0,0,1,6.8-1.049A40,40,0,0,1,51.61,318.271Z" transform="translate(-19.187 -145.931)" fill="#f0f0f0"/>
      <circle id="Ellipse_39" data-name="Ellipse 39" cx="24.004" cy="24.004" r="24.004" transform="translate(68.733 18.771)" fill="#fafafa"/>
      <path id="Path_4278" data-name="Path 4278" d="M130.742,122.216c-4.3-.415-8.23-3.449-13.821-4.284-2.777-.415-4.4.628-6.044,1.608a13.807,13.807,0,0,1-7.74,1.809,40.206,40.206,0,0,1-12.188-2.236c-3.549-1.206-7.25-2.651-10.052-2.136-5.214.955-5.359,4.4-9.675,4.888s-5.089,2.821-1.52,2.821h65.473C138.305,124.685,135.014,122.605,130.742,122.216Z" transform="translate(-25.074 -78.696)" fill="#f5f5f5"/>
      <path id="Path_4279" data-name="Path 4279" d="M374.983,256.41c-7.539-6.282,14.192-50.044,33.434-52.89s11.591,46.363,3.769,52.205C403.322,262.322,383.219,263.232,374.983,256.41Z" transform="translate(-143.832 -112.364)" fill="#f5f5f5"/>
      <path id="Path_4280" data-name="Path 4280" d="M401.435,262.74h-5.654a313.119,313.119,0,0,0-12.451,75.173h5.654a312.812,312.812,0,0,1,12.451-75.173Z" transform="translate(-146.574 -135.952)" fill="#e6e6e6"/>
      <path id="Path_4281" data-name="Path 4281" d="M295.963,346.308s16.372-12.9,22.239-26.385c8.5-19.563-21.36,4.09-26.3-.942s23.558-28.327,8.217-32.862-25.06,12.564-35.853,25.085c-17.672,20.505-1.175-31.581-27.755-6.577-17.326,16.3-17.364,41.777-17.364,41.777Z" transform="translate(-84.693 -144.366)" fill="#ebebeb"/>
      <path id="Path_4282" data-name="Path 4282" d="M231.354,215.62c11.446-8.293-6.992-66.24-31.794-70s-26.266,61.371-17.282,69.1C192.423,223.448,218.883,224.654,231.354,215.62Z" transform="translate(-68.059 -90.146)" fill="#e6e6e6"/>
      <path id="Path_4283" data-name="Path 4283" d="M216.652,224h9.662a312.1,312.1,0,0,1-9.178,99.511H207.48A311.915,311.915,0,0,0,216.652,224Z" transform="translate(-79.345 -121.55)" fill="#f5f5f5"/>
    </g>
    <g id="freepik--Shadow--inject-293" transform="translate(35.25 271.109)">
      <ellipse id="freepik--path--inject-293" cx="119.31" cy="7.111" rx="119.31" ry="7.111" fill="#f5f5f5"/>
    </g>
    <g id="freepik--Jungle--inject-293" transform="translate(31.737 153.982)">
      <path id="Path_4284" data-name="Path 4284" d="M344.042,250.909c1.885,7.262,10.68,1.087,15-4.253-3.769-2.362-9.562-3.286-12.847-1.256q2.444-3.989,5.233-7.784a6.512,6.512,0,0,0-.038,1.577c.949,7.47,10.491,2.394,15.479-2.419-3.443-2.808-9.1-4.435-12.627-2.821q1.055-1.319,2.155-2.6c5.3.119,5.334-7.934,3.336-12.872-5.139,3.593-9.1,11.465-4.73,12.671q-2.858,3.4-5.422,6.992c.553-3.769-1.822-9.21-5.063-12.275-5.491,7.281-6.527,19.3.967,16.73a7.651,7.651,0,0,0,1.464-.628q-2.588,3.958-4.837,8.117c.069-3.8-2.978-8.871-6.577-11.5-4.5,7.865-4,19.864,3.085,16.409a7.69,7.69,0,0,0,1.376-.792q-2.067,4.234-3.769,8.619c-.408-3.769-4.065-8.412-7.966-10.573-3.468,8.305-1.508,20.166,5.114,15.856a7.675,7.675,0,0,0,1.256-.949q-1.527,4.448-2.676,9.015c-.873-3.694-5.082-7.84-9.222-9.5-2.406,8.657,1.005,20.216,7.042,15.109a7.643,7.643,0,0,0,1.137-1.106c-.628,3.072-1.156,6.182-1.539,9.31-1.319-3.575-6.012-7.174-10.322-8.305-1.326,8.908,3.5,20.034,8.858,14.166a7.822,7.822,0,0,0,.993-1.256q-.383,4.724-.371,9.5c-1.759-3.411-6.86-6.414-11.308-7-.207,9.065,5.993,19.619,10.56,13.061a7.347,7.347,0,0,0,.829-1.376q.214,4.693.823,9.423a.628.628,0,1,0,1.175-.151,112,112,0,0,1-.917-15.442,6.575,6.575,0,0,0,.9,1.307c5.133,5.535,9.907-4.247,11.138-10.963-4.435-.27-9.97,1.684-11.892,5.026.163-3.141.452-6.245.879-9.329a6.17,6.17,0,0,0,.722,1.395c4.4,6.087,10.366-2.928,12.407-9.423-4.4-.817-10.1.415-12.42,3.487q.823-4.592,2.023-9.1a6.408,6.408,0,0,0,.547,1.47c3.619,6.565,10.642-1.589,13.469-7.765-4.234-1.357-10.052-.842-12.753,1.885q1.376-4.448,3.141-8.764a6.285,6.285,0,0,0,.358,1.52c2.783,6.961,10.755-.245,14.336-6.037-4.033-1.885-9.888-2.079-12.9.32q1.922-4.247,4.2-8.324A6.314,6.314,0,0,0,344.042,250.909Z" transform="translate(-154.661 -218.48)" fill="#5dc0ec"/>
      <path id="Path_4285" data-name="Path 4285" d="M344.042,250.909c1.885,7.262,10.68,1.087,15-4.253-3.769-2.362-9.562-3.286-12.847-1.256q2.444-3.989,5.233-7.784a6.512,6.512,0,0,0-.038,1.577c.949,7.47,10.491,2.394,15.479-2.419-3.443-2.808-9.1-4.435-12.627-2.821q1.055-1.319,2.155-2.6c5.3.119,5.334-7.934,3.336-12.872-5.139,3.593-9.1,11.465-4.73,12.671q-2.858,3.4-5.422,6.992c.553-3.769-1.822-9.21-5.063-12.275-5.491,7.281-6.527,19.3.967,16.73a7.651,7.651,0,0,0,1.464-.628q-2.588,3.958-4.837,8.117c.069-3.8-2.978-8.871-6.577-11.5-4.5,7.865-4,19.864,3.085,16.409a7.69,7.69,0,0,0,1.376-.792q-2.067,4.234-3.769,8.619c-.408-3.769-4.065-8.412-7.966-10.573-3.468,8.305-1.508,20.166,5.114,15.856a7.675,7.675,0,0,0,1.256-.949q-1.527,4.448-2.676,9.015c-.873-3.694-5.082-7.84-9.222-9.5-2.406,8.657,1.005,20.216,7.042,15.109a7.643,7.643,0,0,0,1.137-1.106c-.628,3.072-1.156,6.182-1.539,9.31-1.319-3.575-6.012-7.174-10.322-8.305-1.326,8.908,3.5,20.034,8.858,14.166a7.822,7.822,0,0,0,.993-1.256q-.383,4.724-.371,9.5c-1.759-3.411-6.86-6.414-11.308-7-.207,9.065,5.993,19.619,10.56,13.061a7.347,7.347,0,0,0,.829-1.376q.214,4.693.823,9.423a.628.628,0,1,0,1.175-.151,112,112,0,0,1-.917-15.442,6.575,6.575,0,0,0,.9,1.307c5.133,5.535,9.907-4.247,11.138-10.963-4.435-.27-9.97,1.684-11.892,5.026.163-3.141.452-6.245.879-9.329a6.17,6.17,0,0,0,.722,1.395c4.4,6.087,10.366-2.928,12.407-9.423-4.4-.817-10.1.415-12.42,3.487q.823-4.592,2.023-9.1a6.408,6.408,0,0,0,.547,1.47c3.619,6.565,10.642-1.589,13.469-7.765-4.234-1.357-10.052-.842-12.753,1.885q1.376-4.448,3.141-8.764a6.285,6.285,0,0,0,.358,1.52c2.783,6.961,10.755-.245,14.336-6.037-4.033-1.885-9.888-2.079-12.9.32q1.922-4.247,4.2-8.324A6.314,6.314,0,0,0,344.042,250.909Z" transform="translate(-154.661 -218.48)" fill="#fff" opacity="0.7"/>
      <path id="Path_4286" data-name="Path 4286" d="M107.468,347.2h8.688A90.056,90.056,0,0,0,167.6,331.315c9.028-6.282,15.706-13.588,12.382-20.323-8.1-16.39-25.839,14.656-32.8,5.836s31.757-18.847,25.311-28.961-34.741,23.125-42.826,8.305,38.284-13.023,31.832-24.023-36.073,13.469-43.461,4.486,37.725-13.921,27.642-23.8-32.781,24.7-43.787,17.515,41.092-21.221,23.131-27.786-31.7,19.161-40.665,17.182,19.33-16.152,11.471-20.625-22.943-.792-33.076,12.967c-11.66,15.882-16.164,33.3-8.305,40.489S66.043,276,73.871,279.386c16.617,7.143-15.605,21.29-10.68,31.411s21.36-19.079,30.645-15.04c17.4,7.539-33.717,26.078-24.249,31.543,10.887,6.282,36.6-21.441,44.968-11.785,12.5,14.449-33.516,8.261-32.165,20.342S107.468,347.2,107.468,347.2Z" transform="translate(-50.519 -225.485)" fill="#5dc0ec"/>
      <path id="Path_4287" data-name="Path 4287" d="M107.468,347.2h8.688A90.056,90.056,0,0,0,167.6,331.315c9.028-6.282,15.706-13.588,12.382-20.323-8.1-16.39-25.839,14.656-32.8,5.836s31.757-18.847,25.311-28.961-34.741,23.125-42.826,8.305,38.284-13.023,31.832-24.023-36.073,13.469-43.461,4.486,37.725-13.921,27.642-23.8-32.781,24.7-43.787,17.515,41.092-21.221,23.131-27.786-31.7,19.161-40.665,17.182,19.33-16.152,11.471-20.625-22.943-.792-33.076,12.967c-11.66,15.882-16.164,33.3-8.305,40.489S66.043,276,73.871,279.386c16.617,7.143-15.605,21.29-10.68,31.411s21.36-19.079,30.645-15.04c17.4,7.539-33.717,26.078-24.249,31.543,10.887,6.282,36.6-21.441,44.968-11.785,12.5,14.449-33.516,8.261-32.165,20.342S107.468,347.2,107.468,347.2Z" transform="translate(-50.519 -225.485)" fill="#fff" opacity="0.4"/>
      <path id="Path_4288" data-name="Path 4288" d="M111.729,287.317c1.885,6.037-7.187,5.516-12.64,3.593,1.659-3.355,5.4-6.59,8.651-6.6q-3.518-1.784-7.2-3.26a5.29,5.29,0,0,1,.729,1.118c2.626,5.773-6.458,6.358-12.169,5.12,1.219-3.537,4.555-7.206,7.8-7.614-.892-.32-1.8-.628-2.7-.917-3.769,2.438-7.338-3.317-8.092-7.746,5.271.3,11.6,4.19,9,6.992q3.562,1.169,6.986,2.607c-2.067-2.469-2.777-7.413-1.809-11.044,7.162,2.789,13.23,10.944,6.722,12.42a6.207,6.207,0,0,1-1.326.207q3.619,1.7,7.061,3.675c-1.728-2.7-1.79-7.677-.377-11.157,6.7,3.625,11.679,12.451,5.057,13.124a6.523,6.523,0,0,1-1.338.044q3.355,2.123,6.527,4.5c-1.376-2.884-.81-7.834,1.03-11.107,6.157,4.4,10.008,13.783,3.355,13.632a6.773,6.773,0,0,1-1.332-.119c2.048,1.671,4.021,3.436,5.918,5.277-1.011-3.034.163-7.872,2.4-10.893,5.56,5.133,8.236,14.933,1.646,13.947a6.359,6.359,0,0,1-1.307-.289q2.733,2.884,5.227,5.993c-.628-3.141,1.137-7.809,3.725-10.529,4.894,5.8,6.364,15.913-.069,14.085a6.37,6.37,0,0,1-1.256-.452q2.368,3.216,4.473,6.64c-.245-3.216,2.079-7.633,4.982-10.014,4.165,6.4,4.4,16.717-1.784,14.041a6.766,6.766,0,0,1-1.206-.628q1.929,3.455,3.581,7.1a.509.509,0,1,1-.911.415,93.6,93.6,0,0,0-6.188-11.478,5.4,5.4,0,0,1-.063,1.332c-1.225,6.245-8.984,1.351-12.841-2.921,3.059-2.161,7.89-3.21,10.755-1.652q-2.249-3.26-4.756-6.282a5.536,5.536,0,0,1,.094,1.319c-.459,6.32-8.726,2.513-13.061-1.256,2.764-2.513,7.419-4.178,10.447-3q-2.626-2.927-5.478-5.654a5.653,5.653,0,0,1,.258,1.294c.314,6.282-8.337,3.581-13.1.4,2.431-2.846,6.848-5.064,9.989-4.278-1.973-1.715-4.021-3.348-6.125-4.9a5.365,5.365,0,0,1,.415,1.256c1.087,6.219-7.815,4.586-12.954,2.017,2.061-3.141,6.169-5.868,9.386-5.484q-3.26-2.136-6.7-4.071a5.692,5.692,0,0,1,.559,1.194Z" transform="translate(-63.751 -237.474)" fill="#5dc0ec"/>
      <path id="Path_4289" data-name="Path 4289" d="M111.729,287.317c1.885,6.037-7.187,5.516-12.64,3.593,1.659-3.355,5.4-6.59,8.651-6.6q-3.518-1.784-7.2-3.26a5.29,5.29,0,0,1,.729,1.118c2.626,5.773-6.458,6.358-12.169,5.12,1.219-3.537,4.555-7.206,7.8-7.614-.892-.32-1.8-.628-2.7-.917-3.769,2.438-7.338-3.317-8.092-7.746,5.271.3,11.6,4.19,9,6.992q3.562,1.169,6.986,2.607c-2.067-2.469-2.777-7.413-1.809-11.044,7.162,2.789,13.23,10.944,6.722,12.42a6.207,6.207,0,0,1-1.326.207q3.619,1.7,7.061,3.675c-1.728-2.7-1.79-7.677-.377-11.157,6.7,3.625,11.679,12.451,5.057,13.124a6.523,6.523,0,0,1-1.338.044q3.355,2.123,6.527,4.5c-1.376-2.884-.81-7.834,1.03-11.107,6.157,4.4,10.008,13.783,3.355,13.632a6.773,6.773,0,0,1-1.332-.119c2.048,1.671,4.021,3.436,5.918,5.277-1.011-3.034.163-7.872,2.4-10.893,5.56,5.133,8.236,14.933,1.646,13.947a6.359,6.359,0,0,1-1.307-.289q2.733,2.884,5.227,5.993c-.628-3.141,1.137-7.809,3.725-10.529,4.894,5.8,6.364,15.913-.069,14.085a6.37,6.37,0,0,1-1.256-.452q2.368,3.216,4.473,6.64c-.245-3.216,2.079-7.633,4.982-10.014,4.165,6.4,4.4,16.717-1.784,14.041a6.766,6.766,0,0,1-1.206-.628q1.929,3.455,3.581,7.1a.509.509,0,1,1-.911.415,93.6,93.6,0,0,0-6.188-11.478,5.4,5.4,0,0,1-.063,1.332c-1.225,6.245-8.984,1.351-12.841-2.921,3.059-2.161,7.89-3.21,10.755-1.652q-2.249-3.26-4.756-6.282a5.536,5.536,0,0,1,.094,1.319c-.459,6.32-8.726,2.513-13.061-1.256,2.764-2.513,7.419-4.178,10.447-3q-2.626-2.927-5.478-5.654a5.653,5.653,0,0,1,.258,1.294c.314,6.282-8.337,3.581-13.1.4,2.431-2.846,6.848-5.064,9.989-4.278-1.973-1.715-4.021-3.348-6.125-4.9a5.365,5.365,0,0,1,.415,1.256c1.087,6.219-7.815,4.586-12.954,2.017,2.061-3.141,6.169-5.868,9.386-5.484q-3.26-2.136-6.7-4.071a5.692,5.692,0,0,1,.559,1.194Z" transform="translate(-63.751 -237.474)" fill="#fff" opacity="0.7"/>
      <path id="Path_4290" data-name="Path 4290" d="M177.423,303.506c6.169-25.33,23.345,49.309,38.008,16.145,18.011-40.747,55.02-54.4,45.125-23.213s3.3,41.99,39.189,7.068c26.021-25.324-14.688,50.6.923,47.745,13.193-2.444,31.763-7.865,27.523,3.575a11.462,11.462,0,0,1-11.063,7.96l-115.386.031c-9.505,0-19.7-10.165-22.7-22.616C176.323,328.955,174.558,315.3,177.423,303.506Z" transform="translate(-102.146 -241.104)" fill="#5dc0ec"/>
      <g id="Group_3921" data-name="Group 3921" transform="translate(73.812 38.231)" opacity="0.3">
        <path id="Path_4291" data-name="Path 4291" d="M177.423,303.506c6.169-25.33,23.345,49.309,38.008,16.145,18.011-40.747,55.02-54.4,45.125-23.213s3.3,41.99,39.189,7.068c26.021-25.324-14.688,50.6.923,47.745,13.193-2.444,31.763-7.865,27.523,3.575a11.462,11.462,0,0,1-11.063,7.96l-115.386.031c-9.505,0-19.7-10.165-22.7-22.616C176.323,328.955,174.558,315.3,177.423,303.506Z" transform="translate(-175.957 -279.335)"/>
      </g>
      <path id="Path_4292" data-name="Path 4292" d="M317.6,367.177s-7.256-6.816,4.272-16.8c10.68-9.273,25.971-.157,25.971-.157s.245-10.78,15.077-12.527,6.031,13.557,6.031,13.557c12.684-5.447,10.893.8,8.374,5.466,3.141-1.413,6.546-1.885,8.167,1.508,3.694,7.7-5.447,12.96-5.447,12.96s8.211,2.651,5.246,8.732a8.713,8.713,0,0,1-7.884,4.768H319.951c-10.372,0-12.389-14.77-2.375-17.5Z" transform="translate(-152.363 -262.747)" fill="#5dc0ec"/>
      <path id="Path_4293" data-name="Path 4293" d="M317.6,367.177s-7.256-6.816,4.272-16.8c10.68-9.273,25.971-.157,25.971-.157s.245-10.78,15.077-12.527,6.031,13.557,6.031,13.557c12.684-5.447,10.893.8,8.374,5.466,3.141-1.413,6.546-1.885,8.167,1.508,3.694,7.7-5.447,12.96-5.447,12.96s8.211,2.651,5.246,8.732a8.713,8.713,0,0,1-7.884,4.768H319.951c-10.372,0-12.389-14.77-2.375-17.5Z" transform="translate(-152.363 -262.747)" fill="#fff" opacity="0.3"/>
    </g>
    <g id="freepik--Character--inject-293" transform="translate(127.203 81.013)">
      <path id="Path_4294" data-name="Path 4294" d="M267.446,159.33l1.156,8.94c.4,2.959.823,5.943,1.4,8.707l.364,1.577a1.313,1.313,0,0,0,.32.591,4.85,4.85,0,0,0,2.557,1.049,29.8,29.8,0,0,0,8.255-.163l1.212,3.644a25.959,25.959,0,0,1-4.687,1.721,20.588,20.588,0,0,1-5.177.741,13.935,13.935,0,0,1-2.934-.3,9.424,9.424,0,0,1-3.173-1.351,7.89,7.89,0,0,1-2.595-2.909,9.648,9.648,0,0,1-.628-1.577c-.132-.4-.283-.823-.4-1.212a82.209,82.209,0,0,1-2.117-9.348c-.528-3.1-.949-6.15-1.256-9.3Z" transform="translate(-226.532 -120.645)" fill="#ffc3bd"/>
      <path id="Path_4295" data-name="Path 4295" d="M254.406,147.864c-2.513,3.964,3.091,18.3,3.091,18.3l10.68-3.235a60.062,60.062,0,0,0-3.235-12.389C262.58,144.78,257.152,143.517,254.406,147.864Z" transform="translate(-224.304 -115.207)" fill="#1f3486"/>
      <path id="Path_4296" data-name="Path 4296" d="M250.763,147.575c1.156,5.365,2.865,17.816.27,37.945l-26.166,1.8c-.415-3.656.81-21.247-1.577-38.793a4.976,4.976,0,0,1,4.46-5.654c1.137-.107,2.356-.188,3.562-.22a97.527,97.527,0,0,1,11.145.276,44.483,44.483,0,0,1,4.5.779A5.026,5.026,0,0,1,250.763,147.575Z" transform="translate(-212.959 -113.581)" fill="#1f3486"/>
      <path id="Path_4297" data-name="Path 4297" d="M237.5,122.78c.628,3.606,1.15,10.19-1.414,12.52,0,0,1.351,3.675,8.01,3.838,6.087.151,3.141-3.562,3.141-3.562-3.977-1.049-3.8-4.014-3.034-6.785Z" transform="translate(-217.736 -106.212)" fill="#ffc3bd"/>
      <path id="Path_4298" data-name="Path 4298" d="M242.582,126.69l3.964,3.549a11.772,11.772,0,0,0-.39,1.973c-1.344,1.206-3.581-1.985-3.706-3.587A5.484,5.484,0,0,1,242.582,126.69Z" transform="translate(-220.088 -107.666)" opacity="0.2"/>
      <path id="Path_4299" data-name="Path 4299" d="M230.081,142.025c-1.068-.766-3.9-.465-6.471.038a5.422,5.422,0,0,0-4.347,5.868c.792,7.991,2.224,24.061,1.709,30.971,4.077,4.058,11.848,5.365,11.848,5.365S236.891,146.95,230.081,142.025Z" transform="translate(-211.47 -113.194)" fill="#5dc0ec"/>
      <path id="Path_4300" data-name="Path 4300" d="M254.485,142.231a11.817,11.817,0,0,1,5.026.842,5.12,5.12,0,0,1,3.2,3.587,92.216,92.216,0,0,1,1.5,32.925c-4.077,4.058-6.446,3.242-6.446,3.242s.465-30.431-3.958-39.377a.854.854,0,0,1,.685-1.219Z" transform="translate(-224.289 -113.438)" fill="#5dc0ec"/>
      <path id="Path_4301" data-name="Path 4301" d="M291.631,191.921l3.21-1.621-.76,5.528s-2.84,1.294-3.9-1.457Z" transform="translate(-237.845 -132.439)" fill="#ffc3bd"/>
      <path id="Path_4302" data-name="Path 4302" d="M256.724,107.607c2.481,1.527,1.382,9.926-1.508,7.589S255.1,106.615,256.724,107.607Z" transform="translate(-224.379 -100.532)" fill="#263238"/>
      <path id="Path_4303" data-name="Path 4303" d="M237.865,110.061c.176,4.862.038,7.715,2.425,10.271,3.6,3.838,9.643,1.759,10.925-3.059,1.15-4.335.66-11.559-4.046-13.607a6.634,6.634,0,0,0-9.3,6.4Z" transform="translate(-218.393 -98.896)" fill="#ffc3bd"/>
      <path id="Path_4304" data-name="Path 4304" d="M239.433,109.836a5.177,5.177,0,0,1-3.462,3.348c-1.929-2.884-2.676-4.071-.9-6.094-.98-1.985,9.128-6.565,13.193-4.4s1.633,4.3-.182,4.781a13.054,13.054,0,0,1-4.768-.05A3.524,3.524,0,0,0,239.433,109.836Z" transform="translate(-216.983 -98.533)" fill="#263238"/>
      <path id="Path_4305" data-name="Path 4305" d="M233.38,118.651a4.617,4.617,0,0,0,2.513,2.456c1.514.584,2.425-.729,2.136-2.236-.264-1.357-1.363-3.3-2.94-3.242A2.06,2.06,0,0,0,233.38,118.651Z" transform="translate(-216.653 -103.554)" fill="#ffc3bd"/>
      <path id="Path_4306" data-name="Path 4306" d="M257.3,210.92s12.433,38.234,15.442,52.89c3.141,15.247,11.547,62.232,11.547,62.232l-7.407,2.89s-14.449-45.684-18.407-60.435c-4.316-16.064-18.376-56.4-18.376-56.4Z" transform="translate(-219.227 -142.7)" fill="#1f3486"/>
      <path id="Path_4307" data-name="Path 4307" d="M248.111,216.78l-1.671,9.065c2.664,7.815,6.232,18.407,9.285,27.943A124.458,124.458,0,0,0,248.111,216.78Z" transform="translate(-221.584 -142.875)" opacity="0.3"/>
      <path id="Path_4308" data-name="Path 4308" d="M237.2,211.94s.528,40.131-1.558,54.348c-2.287,15.561-15.662,62.358-15.662,62.358H211s9.2-44.648,10.052-59.964c.936-16.617-.741-55.585-.741-55.585Z" transform="translate(-208.408 -143.08)" fill="#1f3486"/>
      <path id="Path_4309" data-name="Path 4309" d="M245.944,141.36s2.513,21.152-21.724,47.381V191.5s10.391-6.961,17.955-23.552c8.33-18.294,5.93-25.556,5.93-25.556Z" transform="translate(-213.323 -113.12)" fill="#5dc0ec"/>
      <path id="Path_4310" data-name="Path 4310" d="M245.944,141.36s2.513,21.152-21.724,47.381V191.5s10.391-6.961,17.955-23.552c8.33-18.294,5.93-25.556,5.93-25.556Z" transform="translate(-213.323 -113.12)" opacity="0.3"/>
      <path id="Path_4311" data-name="Path 4311" d="M221.471,213.144c-1.665.22-2.381,2.117-2.821,4.925s-2.161,6.238,3.053,8.242,6.691-.377,7.124-3.838S232.32,211.73,221.471,213.144Z" transform="translate(-211.02 -141.198)" fill="#5dc0ec"/>
      <path id="Path_4312" data-name="Path 4312" d="M229.324,218.729s-3.047,2.777-6.414,2.23-3.2-2.469-3.2-2.469-.98,2.381,2.959,3.311S229.324,218.729,229.324,218.729Z" transform="translate(-211.604 -143.239)" opacity="0.3"/>
      <ellipse id="Ellipse_40" data-name="Ellipse 40" cx="0.352" cy="0.785" rx="0.352" ry="0.785" transform="translate(10.093 75.203)" opacity="0.3"/>
      <path id="Path_4313" data-name="Path 4313" d="M280.731,149.761l-10.133,4.46-13.633-1.973L243.176,147.7l-6.6,28.892-6.044,27.29,16.139.3,17.075-.9,7.413-4.052.779-24.042Z" transform="translate(-215.669 -116.307)" fill="#5dc0ec"/>
      <path id="Path_4314" data-name="Path 4314" d="M280.731,149.761l-10.133,4.46-13.633-1.973L243.176,147.7l-6.6,28.892-6.044,27.29,16.139.3,17.075-.9,7.413-4.052.779-24.042Z" transform="translate(-215.669 -116.307)" fill="#fff" opacity="0.9"/>
      <path id="Path_4315" data-name="Path 4315" d="M249.708,149.7,240.8,176.9l12.747,2.953,9.769-25.072Z" transform="translate(-219.487 -116.95)" fill="#ffc917"/>
      <path id="Path_4316" data-name="Path 4316" d="M284.4,160.274l-9.09,23.7-14.223-1.118,9.769-25.072Z" transform="translate(-227.03 -120.045)" fill="#ffc917"/>
      <path id="Path_4317" data-name="Path 4317" d="M284.4,160.274l-9.09,23.7-14.223-1.118,9.769-25.072Z" transform="translate(-226.019 -120.045)" fill="#ac870f" opacity="0.1"/>
      <path id="Path_4318" data-name="Path 4318" d="M292.82,159.345l-9.09,23.7,9.624-2.7,9.769-25.066Z" transform="translate(-235.447 -119.089)" fill="#ffc917"/>
      <path id="Path_4319" data-name="Path 4319" d="M292.82,159.345l-9.09,23.7,9.624-2.7,9.769-25.066Z" transform="translate(-235.645 -119.089)" opacity="0.2"/>
      <path id="Path_4320" data-name="Path 4320" d="M234.01,221.524l4.266-28.534,12.747,2.953-2.513,26.429Z" transform="translate(-216.962 -133.63)" fill="#ffc917"/>
      <path id="Path_4321" data-name="Path 4321" d="M274.184,223.868l-.358-25.06L259.6,197.69l-2.513,26.429Z" transform="translate(-225.543 -135.418)" fill="#ffc917"/>
      <path id="Path_4322" data-name="Path 4322" d="M274.184,223.868l-.358-25.06L259.6,197.69l-2.513,26.429Z" transform="translate(-224.217 -135.418)" fill="#ac870f" opacity="0.1"/>
      <path id="Path_4323" data-name="Path 4323" d="M284.088,222.935l-.358-25.06,9.624-2.7-.917,19.833Z" transform="translate(-235.447 -134.462)" fill="#ac870f"/>
      <path id="Path_4324" data-name="Path 4324" d="M249.54,116.214c0,.4.188.716.446.722s.477-.308.49-.7-.195-.716-.452-.722S249.546,115.818,249.54,116.214Z" transform="translate(-222.736 -103.51)" fill="#263238"/>
      <path id="Path_4325" data-name="Path 4325" d="M256.65,116.384c0,.4.195.722.452.729s.471-.308.484-.7-.195-.722-.452-.729S256.663,115.988,256.65,116.384Z" transform="translate(-225.379 -103.573)" fill="#263238"/>
      <path id="Path_4326" data-name="Path 4326" d="M254.332,117.06a14.162,14.162,0,0,0,1.8,3.43,2.28,2.28,0,0,1-1.885.308Z" transform="translate(-224.487 -104.086)" fill="#ed847e"/>
      <path id="Path_4327" data-name="Path 4327" d="M250.746,123.786a.119.119,0,1,0,0-.232,3.141,3.141,0,0,1-2.513-1.256.113.113,0,0,0-.157-.038.107.107,0,0,0-.038.157A3.3,3.3,0,0,0,250.746,123.786Z" transform="translate(-222.17 -106.013)" fill="#263238"/>
      <path id="Path_4328" data-name="Path 4328" d="M247.316,113.517a.232.232,0,0,0,.188-.088,1.822,1.822,0,0,1,1.508-.735.239.239,0,0,0,.251-.214.232.232,0,0,0-.207-.251,2.3,2.3,0,0,0-1.916.911.232.232,0,0,0,.038.327A.22.22,0,0,0,247.316,113.517Z" transform="translate(-221.825 -102.289)" fill="#263238"/>
      <path id="Path_4329" data-name="Path 4329" d="M258.858,113.43a.3.3,0,0,0,.1,0,.239.239,0,0,0,.094-.314,2.306,2.306,0,0,0-1.721-1.256.233.233,0,0,0-.251.214.239.239,0,0,0,.214.251h0a1.841,1.841,0,0,1,1.351.993.226.226,0,0,0,.214.113Z" transform="translate(-225.539 -102.152)" fill="#263238"/>
      <path id="Path_4330" data-name="Path 4330" d="M219.185,156.73l-2.808,9.53c-.459,1.589-.88,3.173-1.3,4.743s-.766,3.141-1.037,4.617l-.163.98c0,.088-.031.119-.05.132s-.075.138.188.415a4.731,4.731,0,0,0,1.256.854,12.639,12.639,0,0,0,1.922.748,48.788,48.788,0,0,0,9.317,1.615l.258,3.832a36.561,36.561,0,0,1-5.327.591,30.439,30.439,0,0,1-5.51-.251,18.445,18.445,0,0,1-2.928-.678,10.618,10.618,0,0,1-3.141-1.571,7.791,7.791,0,0,1-1.545-1.514,6.911,6.911,0,0,1-1.125-2.155,7.306,7.306,0,0,1-.314-2.368v-.81l.057-.722a78.612,78.612,0,0,1,1.922-10.422c.829-3.355,1.759-6.615,2.846-9.913Z" transform="translate(-206.874 -118.755)" fill="#ffc3bd"/>
      <path id="Path_4331" data-name="Path 4331" d="M216.3,145.338c-4.586.993-8.8,17.389-8.8,17.389l10.1,4.825a117.047,117.047,0,0,0,5.478-13.727C224.9,147.737,221.208,144.276,216.3,145.338Z" transform="translate(-207.107 -115.166)" fill="#1f3486"/>
      <path id="Path_4332" data-name="Path 4332" d="M234.818,194.551l3.418-3.191,1.3,5.566s-3.078,2.689-5.566.678Z" transform="translate(-216.948 -132.853)" fill="#ffc3bd"/>
      <path id="Path_4333" data-name="Path 4333" d="M245.189,190.53l.93,5.095-4.058.993-1.3-5.566Z" transform="translate(-219.472 -132.529)" fill="#ffc3bd"/>
      <path id="Path_4334" data-name="Path 4334" d="M297.466,396.54l8.468-2.789-3.675-17.169a.754.754,0,0,0-.949-.521l-9.423,2.934a.754.754,0,0,0-.484.974Z" transform="translate(-238.284 -204.083)" fill="#5dc0ec"/>
      <path id="Path_4335" data-name="Path 4335" d="M209.11,396.937l8.726,1.206,5.1-17.113a.81.81,0,0,0-.722-.974l-10.428-.9a.666.666,0,0,0-.729.584Z" transform="translate(-207.705 -205.246)" fill="#5dc0ec"/>
      <path id="Path_4336" data-name="Path 4336" d="M216.614,403.389l-7.539,1.005a.49.49,0,0,0-.49.421l-.8,5.415a.986.986,0,0,0,.98,1.074c2.412.057,3.681-.044,6.722-.044,1.885,0,7.306.377,9.869.195s2.513-2.72,1.457-2.877c-4.844-.685-7.488-3.644-9.185-4.881A1.571,1.571,0,0,0,216.614,403.389Z" transform="translate(-207.212 -214.255)" fill="#5dc0ec"/>
      <path id="Path_4337" data-name="Path 4337" d="M306.071,398.512l-6.282,2.249a.534.534,0,0,0-.352.572l1.194,6.747a.892.892,0,0,0,1.194.729c2.255-.854,5.484-2.161,8.33-3.179,3.336-1.194,4.467-1.457,8.374-2.852,2.362-.848,2.167-3.474,1.1-3.336-4.856.628-7.256.031-12.012-.974A2.807,2.807,0,0,0,306.071,398.512Z" transform="translate(-241.285 -212.394)" fill="#5dc0ec"/>
      <path id="Path_4338" data-name="Path 4338" d="M300.254,191.469l-.867,4.963-3-.6.76-5.528Z" transform="translate(-240.154 -132.441)" fill="#ffc3bd"/>
      <path id="Path_4339" data-name="Path 4339" d="M251.5,103.814c.107.383-4.969,2.149-11.339,3.933s-11.622,2.921-11.735,2.513,4.969-2.149,11.346-3.933S251.4,103.425,251.5,103.814Z" transform="translate(-214.887 -99.133)" fill="#263238"/>
      <path id="Path_4340" data-name="Path 4340" d="M240.33,96.7c-3.644,1.024-5.874,4.454-4.969,7.664l13.193-3.707C247.668,97.446,243.98,95.674,240.33,96.7Z" transform="translate(-217.39 -96.408)" fill="#5dc0ec"/>
      <path id="Path_4341" data-name="Path 4341" d="M234.8,107.476a5.6,5.6,0,0,1,.038-2.544c2.092-.584,6.86-1.256,8.519-.207C239.34,106.176,234.8,107.476,234.8,107.476Z" transform="translate(-217.21 -99.296)" fill="#1f3486"/>
      <path id="Path_4342" data-name="Path 4342" d="M250.876,101.054a5.49,5.49,0,0,0-2.18-2.884c-2.042.754-7.363,3.336-8.016,6.125C244.789,103.089,250.876,101.054,250.876,101.054Z" transform="translate(-219.442 -97.063)" fill="#1f3486"/>
      <path id="Path_4343" data-name="Path 4343" d="M239.223,103.866c-10.4,2.921-10.906,5.5-10.8,5.88-.107-.383,4.969-2.149,11.346-3.933s11.622-2.928,11.729-2.513C251.4,102.886,249.626,100.951,239.223,103.866Z" transform="translate(-214.882 -98.594)" fill="#5dc0ec"/>
    </g>
  </g>
</svg>
