<svg xmlns="http://www.w3.org/2000/svg" width="309.117" height="230.329" viewBox="0 0 309.117 230.329">
  <g id="Around_the_world-rafiki-2" data-name="Around the world-rafiki-2" transform="translate(0 -55)">
    <g id="freepik--background-complete--inject-202" transform="translate(0 55)">
      <rect id="Rectangle_2337" data-name="Rectangle 2337" width="309.117" height="0.155" transform="translate(0 202.41)" fill="#ebebeb"/>
      <rect id="Rectangle_2338" data-name="Rectangle 2338" width="20.476" height="0.155" transform="translate(257.668 212.357)" fill="#ebebeb"/>
      <rect id="Rectangle_2339" data-name="Rectangle 2339" width="5.372" height="0.155" transform="translate(199.399 214.039)" fill="#ebebeb"/>
      <rect id="Rectangle_2340" data-name="Rectangle 2340" width="11.864" height="0.155" transform="translate(245.185 206.62)" fill="#ebebeb"/>
      <rect id="Rectangle_2341" data-name="Rectangle 2341" width="26.702" height="0.155" transform="translate(32.433 207.659)" fill="#ebebeb"/>
      <rect id="Rectangle_2342" data-name="Rectangle 2342" width="3.913" height="0.155" transform="translate(64.643 207.659)" fill="#ebebeb"/>
      <rect id="Rectangle_2343" data-name="Rectangle 2343" width="57.916" height="0.155" transform="translate(81.279 210.268)" fill="#ebebeb"/>
      <path id="Path_3993" data-name="Path 3993" d="M161.109,229.837H41.734a3.53,3.53,0,0,1-3.524-3.53V58.5A3.53,3.53,0,0,1,41.734,55H161.109a3.53,3.53,0,0,1,3.53,3.53V226.306A3.53,3.53,0,0,1,161.109,229.837ZM41.734,55.124A3.376,3.376,0,0,0,38.365,58.5V226.306a3.376,3.376,0,0,0,3.369,3.376H161.109a3.382,3.382,0,0,0,3.376-3.376V58.5a3.382,3.382,0,0,0-3.376-3.376Z" transform="translate(-14.587 -55)" fill="#ebebeb"/>
      <path id="Path_3994" data-name="Path 3994" d="M377.411,229.837H258.03a3.536,3.536,0,0,1-3.53-3.53V58.5a3.536,3.536,0,0,1,3.53-3.5H377.411a3.53,3.53,0,0,1,3.518,3.5V226.306A3.53,3.53,0,0,1,377.411,229.837ZM258.03,55.124a3.382,3.382,0,0,0-3.376,3.376V226.306a3.382,3.382,0,0,0,3.376,3.376H377.411a3.382,3.382,0,0,0,3.376-3.376V58.5a3.382,3.382,0,0,0-3.376-3.376Z" transform="translate(-97.159 -55)" fill="#ebebeb"/>
      <path id="Path_3995" data-name="Path 3995" d="M297.4,329.83v-6.776h-6.559V292.817h-5.218V282.665h-4.1V264.922h-4.056V244.44H276v20.482h-2.331v-4.179h-3.957v4.179H266.75v17.743h-7.209v-15.3h-3.209v-2.832h-3.487v2.832h-4.569v15.3h-7.215v24.748h-12.21v-6.219h-2.584v14.652H223.01v-4.927h-4.624v-4.587H221.7v-1.255h-3.314v-5.595H215.7V277.818h-1.657v-11.1h-1.861v11.1h-3.524v21.663h-15v15.332h-8.971v-6.244h-4.779V292.236h-2.065v16.334H176.7v13.793h-7.5v-7.685h-3.011v-7.184h-.742v7.184h-4.235v-5.805h-9.28v-2.764h-3.277v-6.627H147.1v6.627H139.82v8.569h-4.389v-8.915H123.326v8.915H119.74v-4.223h-7.122v-29.15h-1.465v29.15h-3.524v4.223h-1.8V298.016h-3.481v-6.547H88.191v3.771h-5.9v19.437H77.91V294.746H65.8v19.932H62.213V301.423H50.108v13.255H48.3V283.71H41.978v30.967H39.734v8.377H35.66v6.776Z" transform="translate(-13.614 -127.322)" fill="#f5f5f5"/>
      <circle id="Ellipse_37" data-name="Ellipse 37" cx="17.181" cy="17.181" r="17.181" transform="translate(47.669 45.728) rotate(-69.08)" fill="#ebebeb"/>
      <path id="Path_3996" data-name="Path 3996" d="M223.642,75.589a2.992,2.992,0,0,0-3.845-2.862,6.312,6.312,0,0,0-6.257-7.24,6.022,6.022,0,0,0-1.162.111,5.527,5.527,0,0,0-10.25,2.794h-.093a5.094,5.094,0,1,0,0,10.188h18.7a2.98,2.98,0,0,0,2.906-2.992Z" transform="translate(-75.185 -58.031)" fill="#ebebeb"/>
      <path id="Path_3997" data-name="Path 3997" d="M193.182,226.949a2.986,2.986,0,0,0-2.986-2.986,3.042,3.042,0,0,0-.859.124,6.312,6.312,0,0,0-6.256-7.24,6.023,6.023,0,0,0-1.162.111,5.527,5.527,0,0,0-10.25,2.794h-.093a5.094,5.094,0,0,0,0,10.189h18.72A2.98,2.98,0,0,0,193.182,226.949Z" transform="translate(-63.556 -115.816)" fill="#ebebeb"/>
      <path id="Path_3998" data-name="Path 3998" d="M431.385,138.339a2.986,2.986,0,0,0-3.839-2.862,6.355,6.355,0,0,0-6.257-7.24,6.039,6.039,0,0,0-1.168.111,5.527,5.527,0,0,0-10.25,2.794h-.087a5.094,5.094,0,0,0,0,10.188h18.7A2.98,2.98,0,0,0,431.385,138.339Z" transform="translate(-154.497 -81.987)" fill="#ebebeb"/>
      <path id="Path_3999" data-name="Path 3999" d="M86.12,178.656a2.986,2.986,0,0,1,3.017-2.986,2.807,2.807,0,0,1,.859.13,6.46,6.46,0,0,1-.068-.921,6.325,6.325,0,0,1,6.325-6.325,6.622,6.622,0,0,1,1.168.111,5.521,5.521,0,0,1,10.244,2.794h.093a5.094,5.094,0,1,1,0,10.189H89.026A2.992,2.992,0,0,1,86.12,178.656Z" transform="translate(-32.878 -97.377)" fill="#ebebeb"/>
      <path id="Path_4000" data-name="Path 4000" d="M84.02,255.93a1.865,1.865,0,0,0-2.386-1.78,4.255,4.255,0,0,0,.037-.569,3.932,3.932,0,0,0-3.932-3.932,3.986,3.986,0,0,0-.723.068,3.431,3.431,0,0,0-6.368,1.737h-.062a3.165,3.165,0,1,0,0,6.331H82.214A1.855,1.855,0,0,0,84.02,255.93Z" transform="translate(-25.739 -128.704)" fill="#ebebeb"/>
      <path id="Path_4001" data-name="Path 4001" d="M350.11,88.237a1.855,1.855,0,0,1,1.855-1.855,1.953,1.953,0,0,1,.538.08,3.473,3.473,0,0,1-.043-.569,3.932,3.932,0,0,1,3.932-3.932,3.988,3.988,0,0,1,.723.068,3.437,3.437,0,0,1,6.374,1.737h.056a3.172,3.172,0,0,1,0,6.337H351.9A1.855,1.855,0,0,1,350.11,88.237Z" transform="translate(-133.66 -64.689)" fill="#ebebeb"/>
      <path id="Path_4002" data-name="Path 4002" d="M91.139,96.253c-16.81,5.564-29.385,13.212-28.086,17.15.575,1.737,3.753,2.473,8.575,2.244-1.335-.3-2.195-.822-2.473-1.576-1.07-3.252,9.274-9.583,23.165-14.145s25.966-5.626,27.029-2.374c.253.76-.13,1.688-1.026,2.72,4.006-2.689,6.139-5.162,5.564-6.9C122.626,89.434,107.949,90.726,91.139,96.253Z" transform="translate(-24.036 -68.779)" fill="#f5f5f5"/>
    </g>
    <g id="freepik--Shadow--inject-202" transform="translate(34.689 271.332)">
      <ellipse id="freepik--path--inject-202" cx="119.869" cy="6.998" rx="119.869" ry="6.998" fill="#f5f5f5"/>
    </g>
    <g id="freepik--Globe--inject-202" transform="translate(119.62 84.78)">
      <rect id="Rectangle_2344" data-name="Rectangle 2344" width="4.946" height="36.334" transform="translate(73.788 156.512)" fill="#1f3486"/>
      <path id="Path_4003" data-name="Path 4003" d="M316.9,391.035l-.42-2.275H305.07l-.42,2.275a3.8,3.8,0,0,1-3.709,3.091h0v7.184h19.709v-7.178h0A3.8,3.8,0,0,1,316.9,391.035Z" transform="translate(-234.509 -212.198)" fill="#5dc0ec"/>
      <path id="Path_4004" data-name="Path 4004" d="M316.9,391.035l-.42-2.275H305.07l-.42,2.275a3.8,3.8,0,0,1-3.709,3.091h0v7.184h19.709v-7.178h0A3.8,3.8,0,0,1,316.9,391.035Z" transform="translate(-234.509 -212.198)" fill="#1f3486" opacity="0.5"/>
      <path id="Path_4005" data-name="Path 4005" d="M326.082,406.45H277.86l5.014-7.419a3.938,3.938,0,0,1,3.264-1.731h31.684a3.938,3.938,0,0,1,3.264,1.731Z" transform="translate(-225.698 -215.459)" fill="#5dc0ec"/>
      <path id="Path_4006" data-name="Path 4006" d="M326.082,406.45H277.86l5.014-7.419a3.938,3.938,0,0,1,3.264-1.731h31.684a3.938,3.938,0,0,1,3.264,1.731Z" transform="translate(-225.698 -215.459)" fill="#1f3486" opacity="0.3"/>
      <path id="Path_4007" data-name="Path 4007" d="M259.079,408.67H328.81a2.238,2.238,0,0,1,2.238,2.238v2.04H256.86v-2.04a2.238,2.238,0,0,1,2.22-2.238Z" transform="translate(-217.68 -219.799)" fill="#5dc0ec"/>
      <path id="Path_4008" data-name="Path 4008" d="M259.079,408.67H328.81a2.238,2.238,0,0,1,2.238,2.238v2.04H256.86v-2.04a2.238,2.238,0,0,1,2.22-2.238Z" transform="translate(-217.68 -219.799)" fill="#1f3486" opacity="0.5"/>
      <path id="Path_4009" data-name="Path 4009" d="M288.945,265.48a82.1,82.1,0,0,1-42.485-11.814l2.547-4.235a77.744,77.744,0,0,0,80.154-133.236l2.553-4.235a82.67,82.67,0,0,1-42.769,153.52Z" transform="translate(-213.71 -106.526)" fill="#5dc0ec"/>
      <g id="Group_3914" data-name="Group 3914" transform="translate(32.75 5.434)">
        <path id="Path_4010" data-name="Path 4010" d="M288.945,265.48a82.1,82.1,0,0,1-42.485-11.814l2.547-4.235a77.744,77.744,0,0,0,80.154-133.236l2.553-4.235a82.67,82.67,0,0,1-42.769,153.52Z" transform="translate(-246.46 -111.96)" fill="#1f3486"/>
      </g>
      <rect id="Rectangle_2345" data-name="Rectangle 2345" width="172.122" height="1.855" transform="translate(30.202 149.545) rotate(-58.96)" fill="#1f3486"/>
      <path id="Path_4011" data-name="Path 4011" d="M387.776,107.021a2.541,2.541,0,1,1-.866-3.487,2.541,2.541,0,0,1,.866,3.487Z" transform="translate(-265.859 -103.17)" fill="#5dc0ec"/>
      <path id="Path_4012" data-name="Path 4012" d="M244.246,345.621a2.541,2.541,0,1,1-.866-3.487A2.541,2.541,0,0,1,244.246,345.621Z" transform="translate(-211.064 -194.259)" fill="#5dc0ec"/>
      <g id="Group_3915" data-name="Group 3915" transform="translate(117.199)" opacity="0.3">
        <path id="Path_4013" data-name="Path 4013" d="M387.776,107.021a2.541,2.541,0,1,1-.866-3.487,2.541,2.541,0,0,1,.866,3.487Z" transform="translate(-383.058 -103.17)" fill="#1f3486"/>
      </g>
      <g id="Group_3916" data-name="Group 3916" transform="translate(28.464 147.511)" opacity="0.3">
        <path id="Path_4014" data-name="Path 4014" d="M244.246,345.621a2.541,2.541,0,1,1-.866-3.487A2.541,2.541,0,0,1,244.246,345.621Z" transform="translate(-239.528 -341.77)" fill="#1f3486"/>
      </g>
      <path id="Path_4015" data-name="Path 4015" d="M201.761,145.864a72.428,72.428,0,0,1,3.709-6.43,75.357,75.357,0,0,1,97.681-26.374c.408.21.816.42,1.236.618a75.115,75.115,0,0,1,21.4,17.039h0a75.424,75.424,0,0,1,13.341,76.661,76.4,76.4,0,0,1-3.159,7.036,75.364,75.364,0,0,1-134.2-68.624Z" transform="translate(-193.487 -103.792)" fill="#5dc0ec"/>
      <g id="Group_3917" data-name="Group 3917" transform="translate(0 1.009)" opacity="0.6">
        <path id="Path_4016" data-name="Path 4016" d="M201.761,145.864a72.428,72.428,0,0,1,3.709-6.43,75.357,75.357,0,0,1,97.681-26.374c.408.21.816.42,1.236.618a75.115,75.115,0,0,1,21.4,17.039h0a75.424,75.424,0,0,1,13.341,76.661,76.4,76.4,0,0,1-3.159,7.036,75.364,75.364,0,0,1-134.2-68.624Z" transform="translate(-193.487 -104.801)" fill="#fff"/>
      </g>
      <path id="Path_4017" data-name="Path 4017" d="M223.479,239.838c-1.317-.532-2.683.717-3.592,1.855l-4.093,5.07c1.743,2.275.093,4.983-1.972,6.331a75.425,75.425,0,0,1-12.08-85.823,72.434,72.434,0,0,1,3.709-6.43h.223c2.269.087,2.893,2.393,3.814,3.988.2.359,3.2,4.389,3.53,3.876a20,20,0,0,0-2.473,5.385.618.618,0,0,0,0,.439c.167.315.618.111.9-.142.618-.618,1.168-1.4,1.855-2.009a3.091,3.091,0,0,1,2.473-.9c.9.161,1.6.884,2.473,1.193a3.753,3.753,0,0,0,3.19-.532,12.426,12.426,0,0,0,2.349-2.207c-.148,2.59,2.918,2.541,3.444,4.946.173.779.3,1.855,1.1,1.923s1.379-.958,2.09-.692c.5.185.575.878.4,1.379a5.663,5.663,0,0,0-.532,1.49,1.379,1.379,0,0,0,1.41,1.391,4.4,4.4,0,0,0,1.774-.9c.581-.34,1.478-.4,1.774.2a1.064,1.064,0,0,1,.093.458c0,1.138-1.088,1.947-2.127,2.417a5.581,5.581,0,0,0-2.794,1.855.934.934,0,0,0,1.28.359,1.576,1.576,0,0,1,.445-.266c.371-.08.618.321.828.649a6.8,6.8,0,0,0,4.13,3.172l3.524-5.935c.47.223.76.34,1.181-.043.754,2.281,1.323,4.612,2.306,6.831a1.416,1.416,0,0,1,.185.841c-.068.291-.315.513-.439.791-.408.915.662,1.768,1.564,2.207.185.278-.185.618-.519.618a7.729,7.729,0,0,0-.989-.087,1.28,1.28,0,0,0-.866,1.107,3.314,3.314,0,0,0,2.726,3.753.964.964,0,0,0,.618-.068c.4-.216.414-.767.581-1.187.662-1.663,2.17-.408,2.733.433.754,1.15.538,3.029.148,4.253-.445,1.434-3.988,10.658-.451,10.967a1.5,1.5,0,0,0,.927-.3c.835-.575,1.3-1.539,2.04-2.226s2.1-.946,2.658-.105c.223.34.253.773.451,1.125.544.983,2.077.94,2.776,1.855a9.678,9.678,0,0,1,.649,1.4c.241.457.8.853,1.236.618s.495-1.076.977-1.4,1.236.173,1.286.785a1.576,1.576,0,0,1-1.014,1.391,2.077,2.077,0,0,0-.822.464c-.365.439-.105,1.094.161,1.6.42.8.847,1.607,1.274,2.411a1.335,1.335,0,0,1-1.41.42c-.507-.111-.977-.359-1.5-.445-2.473-.4-4.117,2.757-6.578.692a1.515,1.515,0,0,0-.785-2.294c-1.15-.278-2.566.835-3.425,0-.3-.278-.408-.723-.723-1-.859-.742-2.127.513-2.739,1.014-2.022,1.657-.729,2.652-1.781,4.525-.476.859-1.5,1.236-2.108,2.034s-.7,1.669-1.236,2.4c-1.428,2.034-3.629-.8-4.779-1.713.049,1.6-1.768,2.566-3.338,2.838-2.423.414-2.065.457-3.27,2.244a1.558,1.558,0,0,1-1.434.754c-.983-.136-1.366-1.379-2.195-1.917-.4-.26-.9-.352-1.274-.618-1-.754-.68-2.294-.952-3.512a3.425,3.425,0,0,0-2.046-2.393,7,7,0,0,0-.89,1.688l1.236,2.09a4.747,4.747,0,0,1,.8,1.978,3.821,3.821,0,0,0,.111,1.193c.3.736,1.236.884,1.985,1.206,1.768.779,4.006,3.3,5.379,4.7,1.459,1.5,1.428,3.06,2.757,4.464a.581.581,0,0,1-.216.859,1.317,1.317,0,0,1-1,0,3.567,3.567,0,0,1-1.855-1.4c.575.859-2.8,1.583-3.277,1.459-.779-.21-1.447-1.236-2.139-1.632-1.725-1.008-2.93-1.187-2.77,1.335.062.964.093,2.17-.76,2.621a1.236,1.236,0,0,0-1.564-.148,2.615,2.615,0,0,0-.989,1.354,1.694,1.694,0,0,0-.117,1.125,2.839,2.839,0,0,1,.223.575c.068.668-.89.853-1.552.779" transform="translate(-193.487 -125.186)" fill="#5dc0ec" opacity="0.4" style="mix-blend-mode: normal;isolation: isolate"/>
      <path id="Path_4018" data-name="Path 4018" d="M373.939,188.338c-.334-.7-1.286-.773-2.059-.692s-1.669.179-2.195-.389l1.236-2.411a.68.68,0,0,0,.1-.482.618.618,0,0,0-.383-.321l-1.577-.73c-.674.247.223,1.44-.266,1.966-.216.229-.581.185-.9.192-2.7.037-2.584,3.091-2.294,4.865.34,2.059-.785,4.043-1.855,5.836-.389.618-.853,1.329-1.583,1.5A5.307,5.307,0,0,1,360,197.29c-1.236-.253-2.535.315-3.815.284-4.495-.1-4.859-5.15-2.127-7.561,1.416-1.236,1.521-.816,2.04-2.665.223-.773.878-1.471.4-2.325a1.44,1.44,0,0,0-2.442-.037,6.175,6.175,0,0,0-1.274,2.708c-.853-.94-2.238-1.348-3.394-1.947a1.706,1.706,0,0,1-2.9.346c.3-.507.532-1.3,0-1.564a.927.927,0,0,0-.5-.068c-.717.037-1.428.216-2.145.185-1.107-.049-3.555-1.57-4.575-.581-.179.173-.3.4-.488.569a1.119,1.119,0,0,1-1.453-.105,1.515,1.515,0,0,1-.321-1.49,10.411,10.411,0,0,0,.377-1c.414-1.855-1.9-1.434-2.423-2.257a15.731,15.731,0,0,1-.136-4.266,4.223,4.223,0,0,1-3.746.037c-1.236-.73-1.274-2.04-.915-3.437s1.181-3.054,1.391-4.161c.111-.618.3-1.286.872-1.49.711-.26,1.583.433,2.213,0a1.966,1.966,0,0,0,.47-.538,2.665,2.665,0,0,1,3.709-.352c.525-.056.828-.618,1.094-1.07s.773-.94,1.236-.729.439,1.082.148,1.62a7.085,7.085,0,0,1-1.107,1.5,2.213,2.213,0,0,0-.773,1.131,1.793,1.793,0,0,0,.266,1.008,4.093,4.093,0,0,0,1.626,1.9,1.743,1.743,0,0,0,2.257-.488,3.489,3.489,0,0,1,.321-.618c.383-.439,1.119-.278,1.6.056a5.186,5.186,0,0,0,1.44.983c.563.161,1.329-.284,1.162-.841.81.111,1.855.5,1.768,1.317a2.146,2.146,0,0,1-.291.723c-.723,1.447,0,4.451,1.985,3.58,1.317-.569.872-3.091,2.726-3.147.89,0,1.645.8,2.535.748.34-.142.155-.668-.124-.921a3.431,3.431,0,0,0-3.283-.711c0-1.051,1.292-1.954.9-2.918s-2.1-.964-2.238-1.991a1.669,1.669,0,0,1,.2-.853c.581-1.348,2.22-3.518.5-4.686a3.09,3.09,0,0,1-.618-.439c-.507-.575-.037-1.453.427-2.059.841.062,1.311.952,1.793,1.651s1.5,1.3,2.1.7c.427-.427.359-1.274.915-1.515.26-.111.575-.037.816-.179.587-.34.068-1.236.235-1.917.223-.9,1.57-.866,2.368-.371s1.576,1.236,2.473,1.107c.291-.049.563-.185.847-.26a3.871,3.871,0,0,1,2.615.618c1.3.618,1.131-6.182,1.267-6.535,1.057-2.578,4.266-2.578,6.529-3.394a16.491,16.491,0,0,0,3.3-1.805,76.006,76.006,0,0,1,14.59,73.236,25.036,25.036,0,0,1-1.267,3.332c-1.3-1.236-3.091-3.6-5.119-3.481-2.578.161-2.671,3.821-5.391,3.5-.556-.3.087-1.138,0-1.762a2.244,2.244,0,0,0-.538-.9c-.21-.284-.322-.723-.056-.958-.291-.618-1.236-.5-1.9-.309a4.593,4.593,0,0,1-2.473.142c-1.663-.464-2.473-2.257-3.456-3.678a23.118,23.118,0,0,0-2.831-3.2c.563.34,1.28-.315,1.335-.971a6.8,6.8,0,0,0-.4-1.923c-.235-1.1.717-1.743.618-2.838-.124-1.354-1.014-2.726-.495-3.981.618-1.527,2.72-1.62,4.359-1.453.136-2.022-1.236-4.161-.291-5.96a5.224,5.224,0,0,1,1.632-1.638l3.827-2.85a2.782,2.782,0,0,0,1.236-1.49,2.811,2.811,0,0,0-.767-2.114l-1.471-2.04a1.713,1.713,0,0,0-.76-.68,1.484,1.484,0,0,0-1.063.179,8.037,8.037,0,0,0-4.025,4.266,32.593,32.593,0,0,1-5.886-5.49c-.464,1.49-1.811,2.7-2.053,4.2" transform="translate(-245.592 -119.819)" fill="#5dc0ec" opacity="0.4" style="mix-blend-mode: normal;isolation: isolate"/>
      <path id="Path_4019" data-name="Path 4019" d="M298.706,180.339a2.986,2.986,0,0,0-2.189,1.317,12.8,12.8,0,0,0-.587,1.515,1.49,1.49,0,0,1-1.187.989c-.692,0-1.15-.692-1.465-1.311a2.238,2.238,0,0,1-.365-1.607,11.482,11.482,0,0,1,.587-1.082,3.561,3.561,0,0,0-.3-2.368c-.241-.779-.253-1.818.458-2.207.47-.26,1.082-.124,1.564-.359,1.175-.569.618-2.529,1.62-3.091,1.236-.655,2.621.736,3.289,1.731a10.085,10.085,0,0,1,1.113,3.474C301.965,180.642,301.476,179.938,298.706,180.339Z" transform="translate(-231.434 -129.434)" fill="#5dc0ec" opacity="0.4" style="mix-blend-mode: normal;isolation: isolate"/>
      <path id="Path_4020" data-name="Path 4020" d="M290.245,106.187c16.229-3.883,34.436-.754,49.143,6.763.408.21.816.42,1.236.618.8,3.184-.321,7.845-4.556,6.627-.216.414-.031.618,0,1.088.056.7-.841,1.07-1.533,1.008-2.287-.2-4.55-1.434-5.564,1.236-1.236,3.227,1.236,2.04,2.226,3.963a4.063,4.063,0,0,1,.216.909c.272,1.119,1.453,1.725,2.5,2.189a1.311,1.311,0,0,1,1.57-1.119,2.17,2.17,0,0,0,.8.185c.587-.087.618-.983.26-1.434s-.983-.662-1.416-1.076-.575-1.236-.049-1.515a1.057,1.057,0,0,1,.73,0A3.215,3.215,0,0,1,338,127.677a1.3,1.3,0,0,1,2.121,1.372c-.284.8-1.317,1.546-.835,2.238a1.855,1.855,0,0,0-1.923-.34c-2.5,1.02-3.889,5.947-7.592,3.091a18.266,18.266,0,0,0-1.725-1.447,1.719,1.719,0,0,0-2.083.08c-.21-1.688-2.547-2.572-2.59-4.272a1.805,1.805,0,0,1,1.36-1.756.9.9,0,0,0,.377-.136c.2-.179.124-.513.216-.767.155-.445.773-.538,1.045-.921.377-.538-.1-1.236-.618-1.7s-1.07-1.008-.89-1.645c.068-.21.216-.4.278-.618a1.138,1.138,0,0,0-.513-1.168,3.351,3.351,0,0,0-1.274-.433c-.383.087-.495.618-.389.964a7.189,7.189,0,0,1,.383,1.094c0,.216-2.306,3.406-2,3.45-1.465-.216-4.142-1.527-4.569.618-.155.754-.124,1.632-.7,2.139,1,.21,2,.427,2.986.662.068.389-.482.618-.872.5a1.793,1.793,0,0,0-1.156-.167,1.237,1.237,0,0,0-.563.618l-1.391,2.349c-.507.847-1.144,1.787-2.121,1.9-1.113.13-2.046-.921-2.368-2a1.038,1.038,0,0,0-.389-.68,1.008,1.008,0,0,0-.711,0,4.08,4.08,0,0,1-3.641-.686,2.652,2.652,0,0,1-.538-3.456c.3-.4.76-.822.575-1.28-.111-.272-.439-.464-.4-.754s.55-.377.915-.439a1.459,1.459,0,0,0,1.193-1.372c0-.34-1.892-2.584-2.362-2.6-1.082-.031-2.127,2.355-2.7,3.19a1.465,1.465,0,0,1-.866.736c-.618.1-1.051-.563-1.168-1.162a4.117,4.117,0,0,0-.445-1.75,2.5,2.5,0,0,0-.841-.618,2.683,2.683,0,0,0-2.034-.495c-.315.1-.587.321-.909.427a2.071,2.071,0,0,1-2.034-.767c-.519-.563-.89-1.236-1.459-1.774-1.2-1.1-3.141-1.236-4.08-2.6-.458-.618-.445-1.762.309-2,.618-.2,1.527.346,1.947-.185s-.563-2.059-.544-2.683c0-.495.81-1,.742-1.966C291.1,107.677,290.307,107.034,290.245,106.187Z" transform="translate(-229.718 -103.683)" fill="#5dc0ec" opacity="0.4" style="mix-blend-mode: normal;isolation: isolate"/>
      <path id="Path_4021" data-name="Path 4021" d="M339.436,317.812c1.07-.124,2.121.037,2.968-.915,1.15-1.292.674-2.343-1.094-2.559a.73.73,0,0,1-.439-.155c-.352-.359.278-.835.742-1.039a3.413,3.413,0,0,0,1.855-2.7c.037-.266,4.26,1.805,4.587,2.294,1.15,1.719-1.682,4.6.482,4.989.8-1.237,1.434-2.621,2.127-3.938l1.941.921c-.482-.229,1.063-2.516,1.36-2.7,1.162-.7,2.869.736,3.709-1.3,1.063-2.578-3.45-5.564-4.328-2.436a13.948,13.948,0,0,1-5.045-1.818c-.3.482-.587.977-.878,1.459a1.515,1.515,0,0,1-1.28-.55,4.253,4.253,0,0,1,2.436-4.019c-.111-1.119,1.113-1.855,2.151-2.287a3.353,3.353,0,1,1,5.416.847,5.459,5.459,0,0,1,2.065,2.646,7.141,7.141,0,0,1,7.6-3.3c1.447.34,2.955,1.144,4.328.618.618-.235,1.113-.717,1.713-1,1.36-.618,2.93-.062,4.291.55q1.366.618,2.677,1.329a75.424,75.424,0,0,1-44.655,24.865,3.041,3.041,0,0,1-1.236-.909,3.3,3.3,0,0,1,0-2.776c1.094-3.573,2.473-5.428,6.182-6.077Z" transform="translate(-246.6 -176.873)" fill="#5dc0ec" opacity="0.4" style="mix-blend-mode: normal;isolation: isolate"/>
      <path id="Path_4022" data-name="Path 4022" d="M223.479,239.838c-1.317-.532-2.683.717-3.592,1.855l-4.093,5.07c1.743,2.275.093,4.983-1.972,6.331a75.425,75.425,0,0,1-12.08-85.823,72.434,72.434,0,0,1,3.709-6.43h.223c2.269.087,2.893,2.393,3.814,3.988.2.359,3.2,4.389,3.53,3.876a20,20,0,0,0-2.473,5.385.618.618,0,0,0,0,.439c.167.315.618.111.9-.142.618-.618,1.168-1.4,1.855-2.009a3.091,3.091,0,0,1,2.473-.9c.9.161,1.6.884,2.473,1.193a3.753,3.753,0,0,0,3.19-.532,12.426,12.426,0,0,0,2.349-2.207c-.148,2.59,2.918,2.541,3.444,4.946.173.779.3,1.855,1.1,1.923s1.379-.958,2.09-.692c.5.185.575.878.4,1.379a5.663,5.663,0,0,0-.532,1.49,1.379,1.379,0,0,0,1.41,1.391,4.4,4.4,0,0,0,1.774-.9c.581-.34,1.478-.4,1.774.2a1.064,1.064,0,0,1,.093.458c0,1.138-1.088,1.947-2.127,2.417a5.581,5.581,0,0,0-2.794,1.855.934.934,0,0,0,1.28.359,1.576,1.576,0,0,1,.445-.266c.371-.08.618.321.828.649a6.8,6.8,0,0,0,4.13,3.172l3.524-5.935c.47.223.76.34,1.181-.043.754,2.281,1.323,4.612,2.306,6.831a1.416,1.416,0,0,1,.185.841c-.068.291-.315.513-.439.791-.408.915.662,1.768,1.564,2.207.185.278-.185.618-.519.618a7.729,7.729,0,0,0-.989-.087,1.28,1.28,0,0,0-.866,1.107,3.314,3.314,0,0,0,2.726,3.753.964.964,0,0,0,.618-.068c.4-.216.414-.767.581-1.187.662-1.663,2.17-.408,2.733.433.754,1.15.538,3.029.148,4.253-.445,1.434-3.988,10.658-.451,10.967a1.5,1.5,0,0,0,.927-.3c.835-.575,1.3-1.539,2.04-2.226s2.1-.946,2.658-.105c.223.34.253.773.451,1.125.544.983,2.077.94,2.776,1.855a9.678,9.678,0,0,1,.649,1.4c.241.457.8.853,1.236.618s.495-1.076.977-1.4,1.236.173,1.286.785a1.576,1.576,0,0,1-1.014,1.391,2.077,2.077,0,0,0-.822.464c-.365.439-.105,1.094.161,1.6.42.8.847,1.607,1.274,2.411a1.335,1.335,0,0,1-1.41.42c-.507-.111-.977-.359-1.5-.445-2.473-.4-4.117,2.757-6.578.692a1.515,1.515,0,0,0-.785-2.294c-1.15-.278-2.566.835-3.425,0-.3-.278-.408-.723-.723-1-.859-.742-2.127.513-2.739,1.014-2.022,1.657-.729,2.652-1.781,4.525-.476.859-1.5,1.236-2.108,2.034s-.7,1.669-1.236,2.4c-1.428,2.034-3.629-.8-4.779-1.713.049,1.6-1.768,2.566-3.338,2.838-2.423.414-2.065.457-3.27,2.244a1.558,1.558,0,0,1-1.434.754c-.983-.136-1.366-1.379-2.195-1.917-.4-.26-.9-.352-1.274-.618-1-.754-.68-2.294-.952-3.512a3.425,3.425,0,0,0-2.046-2.393,7,7,0,0,0-.89,1.688l1.236,2.09a4.747,4.747,0,0,1,.8,1.978,3.821,3.821,0,0,0,.111,1.193c.3.736,1.236.884,1.985,1.206,1.768.779,4.006,3.3,5.379,4.7,1.459,1.5,1.428,3.06,2.757,4.464a.581.581,0,0,1-.216.859,1.317,1.317,0,0,1-1,0,3.567,3.567,0,0,1-1.855-1.4c.575.859-2.8,1.583-3.277,1.459-.779-.21-1.447-1.236-2.139-1.632-1.725-1.008-2.93-1.187-2.77,1.335.062.964.093,2.17-.76,2.621a1.236,1.236,0,0,0-1.564-.148,2.615,2.615,0,0,0-.989,1.354,1.694,1.694,0,0,0-.117,1.125,2.839,2.839,0,0,1,.223.575c.068.668-.89.853-1.552.779" transform="translate(-193.487 -125.186)" fill="#fff" opacity="0.7" style="mix-blend-mode: normal;isolation: isolate"/>
      <path id="Path_4023" data-name="Path 4023" d="M373.939,188.338c-.334-.7-1.286-.773-2.059-.692s-1.669.179-2.195-.389l1.236-2.411a.68.68,0,0,0,.1-.482.618.618,0,0,0-.383-.321l-1.577-.73c-.674.247.223,1.44-.266,1.966-.216.229-.581.185-.9.192-2.7.037-2.584,3.091-2.294,4.865.34,2.059-.785,4.043-1.855,5.836-.389.618-.853,1.329-1.583,1.5A5.307,5.307,0,0,1,360,197.29c-1.236-.253-2.535.315-3.815.284-4.495-.1-4.859-5.15-2.127-7.561,1.416-1.236,1.521-.816,2.04-2.665.223-.773.878-1.471.4-2.325a1.44,1.44,0,0,0-2.442-.037,6.175,6.175,0,0,0-1.274,2.708c-.853-.94-2.238-1.348-3.394-1.947a1.706,1.706,0,0,1-2.9.346c.3-.507.532-1.3,0-1.564a.927.927,0,0,0-.5-.068c-.717.037-1.428.216-2.145.185-1.107-.049-3.555-1.57-4.575-.581-.179.173-.3.4-.488.569a1.119,1.119,0,0,1-1.453-.105,1.515,1.515,0,0,1-.321-1.49,10.411,10.411,0,0,0,.377-1c.414-1.855-1.9-1.434-2.423-2.257a15.731,15.731,0,0,1-.136-4.266,4.223,4.223,0,0,1-3.746.037c-1.236-.73-1.274-2.04-.915-3.437s1.181-3.054,1.391-4.161c.111-.618.3-1.286.872-1.49.711-.26,1.583.433,2.213,0a1.966,1.966,0,0,0,.47-.538,2.665,2.665,0,0,1,3.709-.352c.525-.056.828-.618,1.094-1.07s.773-.94,1.236-.729.439,1.082.148,1.62a7.085,7.085,0,0,1-1.107,1.5,2.213,2.213,0,0,0-.773,1.131,1.793,1.793,0,0,0,.266,1.008,4.093,4.093,0,0,0,1.626,1.9,1.743,1.743,0,0,0,2.257-.488,3.489,3.489,0,0,1,.321-.618c.383-.439,1.119-.278,1.6.056a5.186,5.186,0,0,0,1.44.983c.563.161,1.329-.284,1.162-.841.81.111,1.855.5,1.768,1.317a2.146,2.146,0,0,1-.291.723c-.723,1.447,0,4.451,1.985,3.58,1.317-.569.872-3.091,2.726-3.147.89,0,1.645.8,2.535.748.34-.142.155-.668-.124-.921a3.431,3.431,0,0,0-3.283-.711c0-1.051,1.292-1.954.9-2.918s-2.1-.964-2.238-1.991a1.669,1.669,0,0,1,.2-.853c.581-1.348,2.22-3.518.5-4.686a3.09,3.09,0,0,1-.618-.439c-.507-.575-.037-1.453.427-2.059.841.062,1.311.952,1.793,1.651s1.5,1.3,2.1.7c.427-.427.359-1.274.915-1.515.26-.111.575-.037.816-.179.587-.34.068-1.236.235-1.917.223-.9,1.57-.866,2.368-.371s1.576,1.236,2.473,1.107c.291-.049.563-.185.847-.26a3.871,3.871,0,0,1,2.615.618c1.3.618,1.131-6.182,1.267-6.535,1.057-2.578,4.266-2.578,6.529-3.394a16.491,16.491,0,0,0,3.3-1.805,76.006,76.006,0,0,1,14.59,73.236,25.036,25.036,0,0,1-1.267,3.332c-1.3-1.236-3.091-3.6-5.119-3.481-2.578.161-2.671,3.821-5.391,3.5-.556-.3.087-1.138,0-1.762a2.244,2.244,0,0,0-.538-.9c-.21-.284-.322-.723-.056-.958-.291-.618-1.236-.5-1.9-.309a4.593,4.593,0,0,1-2.473.142c-1.663-.464-2.473-2.257-3.456-3.678a23.118,23.118,0,0,0-2.831-3.2c.563.34,1.28-.315,1.335-.971a6.8,6.8,0,0,0-.4-1.923c-.235-1.1.717-1.743.618-2.838-.124-1.354-1.014-2.726-.495-3.981.618-1.527,2.72-1.62,4.359-1.453.136-2.022-1.236-4.161-.291-5.96a5.224,5.224,0,0,1,1.632-1.638l3.827-2.85a2.782,2.782,0,0,0,1.236-1.49,2.811,2.811,0,0,0-.767-2.114l-1.471-2.04a1.713,1.713,0,0,0-.76-.68,1.484,1.484,0,0,0-1.063.179,8.037,8.037,0,0,0-4.025,4.266,32.593,32.593,0,0,1-5.886-5.49c-.464,1.49-1.811,2.7-2.053,4.2" transform="translate(-245.592 -119.819)" fill="#fff" opacity="0.7" style="mix-blend-mode: normal;isolation: isolate"/>
      <path id="Path_4024" data-name="Path 4024" d="M298.706,180.339a2.986,2.986,0,0,0-2.189,1.317,12.8,12.8,0,0,0-.587,1.515,1.49,1.49,0,0,1-1.187.989c-.692,0-1.15-.692-1.465-1.311a2.238,2.238,0,0,1-.365-1.607,11.482,11.482,0,0,1,.587-1.082,3.561,3.561,0,0,0-.3-2.368c-.241-.779-.253-1.818.458-2.207.47-.26,1.082-.124,1.564-.359,1.175-.569.618-2.529,1.62-3.091,1.236-.655,2.621.736,3.289,1.731a10.085,10.085,0,0,1,1.113,3.474C301.965,180.642,301.476,179.938,298.706,180.339Z" transform="translate(-231.434 -129.434)" fill="#fff" opacity="0.7" style="mix-blend-mode: normal;isolation: isolate"/>
      <path id="Path_4025" data-name="Path 4025" d="M290.245,106.187c16.229-3.883,34.436-.754,49.143,6.763.408.21.816.42,1.236.618.8,3.184-.321,7.845-4.556,6.627-.216.414-.031.618,0,1.088.056.7-.841,1.07-1.533,1.008-2.287-.2-4.55-1.434-5.564,1.236-1.236,3.227,1.236,2.04,2.226,3.963a4.063,4.063,0,0,1,.216.909c.272,1.119,1.453,1.725,2.5,2.189a1.311,1.311,0,0,1,1.57-1.119,2.17,2.17,0,0,0,.8.185c.587-.087.618-.983.26-1.434s-.983-.662-1.416-1.076-.575-1.236-.049-1.515a1.057,1.057,0,0,1,.73,0A3.215,3.215,0,0,1,338,127.677a1.3,1.3,0,0,1,2.121,1.372c-.284.8-1.317,1.546-.835,2.238a1.855,1.855,0,0,0-1.923-.34c-2.5,1.02-3.889,5.947-7.592,3.091a18.266,18.266,0,0,0-1.725-1.447,1.719,1.719,0,0,0-2.083.08c-.21-1.688-2.547-2.572-2.59-4.272a1.805,1.805,0,0,1,1.36-1.756.9.9,0,0,0,.377-.136c.2-.179.124-.513.216-.767.155-.445.773-.538,1.045-.921.377-.538-.1-1.236-.618-1.7s-1.07-1.008-.89-1.645c.068-.21.216-.4.278-.618a1.138,1.138,0,0,0-.513-1.168,3.351,3.351,0,0,0-1.274-.433c-.383.087-.495.618-.389.964a7.189,7.189,0,0,1,.383,1.094c0,.216-2.306,3.406-2,3.45-1.465-.216-4.142-1.527-4.569.618-.155.754-.124,1.632-.7,2.139,1,.21,2,.427,2.986.662.068.389-.482.618-.872.5a1.793,1.793,0,0,0-1.156-.167,1.237,1.237,0,0,0-.563.618l-1.391,2.349c-.507.847-1.144,1.787-2.121,1.9-1.113.13-2.046-.921-2.368-2a1.038,1.038,0,0,0-.389-.68,1.008,1.008,0,0,0-.711,0,4.08,4.08,0,0,1-3.641-.686,2.652,2.652,0,0,1-.538-3.456c.3-.4.76-.822.575-1.28-.111-.272-.439-.464-.4-.754s.55-.377.915-.439a1.459,1.459,0,0,0,1.193-1.372c0-.34-1.892-2.584-2.362-2.6-1.082-.031-2.127,2.355-2.7,3.19a1.465,1.465,0,0,1-.866.736c-.618.1-1.051-.563-1.168-1.162a4.117,4.117,0,0,0-.445-1.75,2.5,2.5,0,0,0-.841-.618,2.683,2.683,0,0,0-2.034-.495c-.315.1-.587.321-.909.427a2.071,2.071,0,0,1-2.034-.767c-.519-.563-.89-1.236-1.459-1.774-1.2-1.1-3.141-1.236-4.08-2.6-.458-.618-.445-1.762.309-2,.618-.2,1.527.346,1.947-.185s-.563-2.059-.544-2.683c0-.495.81-1,.742-1.966C291.1,107.677,290.307,107.034,290.245,106.187Z" transform="translate(-229.718 -103.683)" fill="#fff" opacity="0.7" style="mix-blend-mode: normal;isolation: isolate"/>
      <path id="Path_4026" data-name="Path 4026" d="M339.436,317.812c1.07-.124,2.121.037,2.968-.915,1.15-1.292.674-2.343-1.094-2.559a.73.73,0,0,1-.439-.155c-.352-.359.278-.835.742-1.039a3.413,3.413,0,0,0,1.855-2.7c.037-.266,4.26,1.805,4.587,2.294,1.15,1.719-1.682,4.6.482,4.989.8-1.237,1.434-2.621,2.127-3.938l1.941.921c-.482-.229,1.063-2.516,1.36-2.7,1.162-.7,2.869.736,3.709-1.3,1.063-2.578-3.45-5.564-4.328-2.436a13.948,13.948,0,0,1-5.045-1.818c-.3.482-.587.977-.878,1.459a1.515,1.515,0,0,1-1.28-.55,4.253,4.253,0,0,1,2.436-4.019c-.111-1.119,1.113-1.855,2.151-2.287a3.353,3.353,0,1,1,5.416.847,5.459,5.459,0,0,1,2.065,2.646,7.141,7.141,0,0,1,7.6-3.3c1.447.34,2.955,1.144,4.328.618.618-.235,1.113-.717,1.713-1,1.36-.618,2.93-.062,4.291.55q1.366.618,2.677,1.329a75.424,75.424,0,0,1-44.655,24.865,3.041,3.041,0,0,1-1.236-.909,3.3,3.3,0,0,1,0-2.776c1.094-3.573,2.473-5.428,6.182-6.077Z" transform="translate(-246.6 -176.873)" fill="#fff" opacity="0.7" style="mix-blend-mode: normal;isolation: isolate"/>
      <path id="Path_4027" data-name="Path 4027" d="M320.464,131.986l3.277,3.351,3.338-3.3a4.686,4.686,0,0,0,.074-6.627h0a4.68,4.68,0,0,0-6.627-.074h0a4.686,4.686,0,0,0-.062,6.652Zm1.991-1.947a1.9,1.9,0,1,1,2.689,0A1.9,1.9,0,0,1,322.454,130.038Z" transform="translate(-241.445 -111.12)" fill="#ffc917"/>
      <path id="Path_4028" data-name="Path 4028" d="M320.559,125.375a4.674,4.674,0,0,1,3.357-1.335l-.031,2.782a1.935,1.935,0,0,0-1.385.538,1.91,1.91,0,0,0,1.342,3.27l-.049,4.692v.031L320.516,132a4.686,4.686,0,0,1,.043-6.627Z" transform="translate(-241.466 -111.137)" opacity="0.2" style="mix-blend-mode: normal;isolation: isolate"/>
      <path id="Path_4029" data-name="Path 4029" d="M222.625,285.682l3.277,3.351,3.351-3.277a4.686,4.686,0,0,0,.074-6.627h0a4.686,4.686,0,0,0-6.627-.074h0a4.686,4.686,0,0,0-.074,6.627Zm1.991-1.941a1.9,1.9,0,1,1,2.689.031,1.9,1.9,0,0,1-2.689-.031Z" transform="translate(-204.101 -169.807)" fill="#ffc917"/>
      <path id="Path_4030" data-name="Path 4030" d="M222.7,279.055a4.7,4.7,0,0,1,3.357-1.335l-.031,2.782a1.9,1.9,0,1,0-.043,3.808l-.049,4.711h-.031l-3.277-3.351A4.686,4.686,0,0,1,222.7,279.055Z" transform="translate(-204.105 -169.807)" opacity="0.2" style="mix-blend-mode: normal;isolation: isolate"/>
      <path id="Path_4031" data-name="Path 4031" d="M218.9,185.5l3.277,3.351,3.357-3.277a4.692,4.692,0,0,0,.074-6.627h0a4.686,4.686,0,0,0-6.627-.074h0A4.686,4.686,0,0,0,218.9,185.5Zm1.991-1.941a1.9,1.9,0,1,1,1.341.575A1.9,1.9,0,0,1,220.888,183.561Z" transform="translate(-202.679 -131.561)" fill="#ffc917"/>
      <path id="Path_4032" data-name="Path 4032" d="M218.987,178.875a4.668,4.668,0,0,1,3.357-1.335l-.031,2.782a1.9,1.9,0,0,0-.043,3.808l-.056,4.692v.031l-3.27-3.351a4.68,4.68,0,0,1,.043-6.627Z" transform="translate(-202.689 -131.561)" opacity="0.2" style="mix-blend-mode: normal;isolation: isolate"/>
      <path id="Path_4033" data-name="Path 4033" d="M358.1,293.662l3.277,3.351,3.351-3.277a4.68,4.68,0,0,0,.074-6.627h0a4.686,4.686,0,0,0-6.628-.074h0A4.692,4.692,0,0,0,358.1,293.662Zm1.991-1.941a1.9,1.9,0,1,1,1.341.575A1.9,1.9,0,0,1,360.087,291.721Z" transform="translate(-255.82 -172.853)" fill="#ffc917"/>
      <path id="Path_4034" data-name="Path 4034" d="M358.139,287.035A4.7,4.7,0,0,1,361.5,285.7l-.031,2.788a1.855,1.855,0,0,0-1.385.538,1.9,1.9,0,0,0,1.342,3.264l-.056,4.692v.031l-3.277-3.351a4.686,4.686,0,0,1,.043-6.627Z" transform="translate(-255.813 -172.853)" opacity="0.2" style="mix-blend-mode: normal;isolation: isolate"/>
      <path id="Path_4035" data-name="Path 4035" d="M416.255,198.454l3.277,3.351,3.351-3.277a4.686,4.686,0,0,0,.074-6.627h0a4.692,4.692,0,0,0-6.628-.074h0A4.686,4.686,0,0,0,416.255,198.454Zm1.991-1.941a1.9,1.9,0,1,1,2.689.031,1.9,1.9,0,0,1-2.689-.031Z" transform="translate(-278.022 -136.507)" fill="#ffc917"/>
      <path id="Path_4036" data-name="Path 4036" d="M416.345,191.829A4.668,4.668,0,0,1,419.7,190.5l-.031,2.782a1.855,1.855,0,0,0-1.385.538,1.91,1.91,0,0,0,0,2.7,1.855,1.855,0,0,0,1.366.569l-.049,4.7h-.031l-3.277-3.351A4.686,4.686,0,0,1,416.345,191.829Z" transform="translate(-278.037 -136.509)" opacity="0.2" style="mix-blend-mode: normal;isolation: isolate"/>
      <path id="Path_4037" data-name="Path 4037" d="M343.865,186.741l3.277,3.351,3.351-3.277a4.686,4.686,0,0,0,.074-6.627h0a4.686,4.686,0,0,0-6.627-.08h0A4.692,4.692,0,0,0,343.865,186.741Zm1.991-1.947a1.9,1.9,0,1,1,1.341.575,1.9,1.9,0,0,1-1.341-.575Z" transform="translate(-250.386 -132.033)" fill="#ffc917"/>
      <path id="Path_4038" data-name="Path 4038" d="M343.937,180.109a4.668,4.668,0,0,1,3.357-1.329l-.031,2.782a1.855,1.855,0,0,0-1.379.538,1.9,1.9,0,0,0,0,2.7,1.855,1.855,0,0,0,1.366.569l-.105,4.68-.031.031-3.277-3.351a4.692,4.692,0,0,1,.1-6.615Z" transform="translate(-250.384 -132.035)" opacity="0.2" style="mix-blend-mode: normal;isolation: isolate"/>
      <path id="Path_4039" data-name="Path 4039" d="M315.08,159.25l3.172-4.94,4.025,4.94Z" transform="translate(-239.907 -122.693)" fill="#5dc0ec"/>
      <path id="Path_4040" data-name="Path 4040" d="M315.08,159.25l3.172-4.94,4.025,4.94Z" transform="translate(-239.907 -122.693)" fill="#fff" opacity="0.8"/>
      <path id="Path_4041" data-name="Path 4041" d="M319.921,155.44l-.321,4.927h.8Z" transform="translate(-241.632 -123.125)" opacity="0.2" style="mix-blend-mode: normal;isolation: isolate"/>
      <path id="Path_4042" data-name="Path 4042" d="M307.59,160.671l2.862,3.709H321.08l2.9-4.841A97.794,97.794,0,0,1,307.59,160.671Z" transform="translate(-237.048 -124.69)" fill="#fff"/>
      <path id="Path_4043" data-name="Path 4043" d="M276.456,278.21l-3.172-4.94-4.025,4.94Z" transform="translate(-222.414 -168.108)" fill="#5dc0ec"/>
      <path id="Path_4044" data-name="Path 4044" d="M276.456,278.21l-3.172-4.94-4.025,4.94Z" transform="translate(-222.414 -168.108)" fill="#fff" opacity="0.8"/>
      <path id="Path_4045" data-name="Path 4045" d="M275.562,274.4l.322,4.934h-.8Z" transform="translate(-224.636 -168.54)" opacity="0.2" style="mix-blend-mode: normal;isolation: isolate"/>
      <path id="Path_4046" data-name="Path 4046" d="M278.269,279.628l-2.856,3.709H264.78l-2.9-4.847A97.062,97.062,0,0,0,278.269,279.628Z" transform="translate(-219.597 -170.101)" fill="#fff"/>
      <path id="Path_4047" data-name="Path 4047" d="M391.35,290.68l3.165-4.94,4.031,4.94Z" transform="translate(-269.024 -172.869)" fill="#5dc0ec"/>
      <path id="Path_4048" data-name="Path 4048" d="M391.35,290.68l3.165-4.94,4.031,4.94Z" transform="translate(-269.024 -172.869)" fill="#fff" opacity="0.8"/>
      <path id="Path_4049" data-name="Path 4049" d="M396.191,286.87l-.322,4.934h.8Z" transform="translate(-270.75 -173.3)" opacity="0.2" style="mix-blend-mode: normal;isolation: isolate"/>
      <path id="Path_4050" data-name="Path 4050" d="M383.85,292.1l2.862,3.709h10.634l2.9-4.847a97.153,97.153,0,0,1-16.4,1.138Z" transform="translate(-266.161 -174.862)" fill="#fff"/>
      <path id="Path_4051" data-name="Path 4051" d="M320.526,171.885l-1.236-.26c.2-.977.365-1.521.371-1.546l1.187.346S320.724,170.946,320.526,171.885Z" transform="translate(-241.514 -128.714)" fill="#5dc0ec"/>
      <path id="Path_4052" data-name="Path 4052" d="M359.665,242.19a20.579,20.579,0,0,0-1.818-2.473l.946-.791a21.022,21.022,0,0,1,1.929,2.646Zm-5.329-6.065c-.723-.655-1.5-1.329-2.393-2.065l.785-.952c.9.748,1.7,1.434,2.436,2.1Zm-6.374-5.212q-1.236-.952-2.535-1.929l.748-.983,2.541,1.929Zm-6.6-5.02c-.835-.649-1.675-1.3-2.516-1.978l.773-.964c.835.668,1.669,1.317,2.5,1.96Zm-6.454-5.255c-.841-.73-1.638-1.459-2.38-2.151l.847-.9c.729.686,1.521,1.4,2.343,2.121Zm-5.991-5.818c-.736-.822-1.44-1.645-2.083-2.473l.971-.767c.618.791,1.311,1.6,2.034,2.4Zm-5.045-6.683q-.844-1.372-1.576-2.825l1.107-.556c.47.927.983,1.855,1.521,2.739Zm-3.6-7.58c-.359-1.008-.68-2.046-.958-3.091l1.193-.321c.272,1.008.587,2.015.927,2.992Zm-2.009-8.142c-.155-1.051-.278-2.133-.359-3.209l1.236-.1c.08,1.051.2,2.1.352,3.091Zm.754-8.334-1.236-.037c.031-1.07.093-2.151.2-3.215l1.236.111c-.105,1.032-.167,2.09-.2,3.134Z" transform="translate(-240.938 -132.818)" fill="#5dc0ec"/>
      <path id="Path_4053" data-name="Path 4053" d="M389.528,288.764l-1.236-.049a8.653,8.653,0,0,0-.062-1.44l1.236-.155a10.514,10.514,0,0,1,.062,1.645Z" transform="translate(-267.833 -173.396)" fill="#5dc0ec"/>
      <path id="Path_4054" data-name="Path 4054" d="M402.866,217.071l-1.076-.618c.476-.835.7-1.317.7-1.323l1.119.532S403.366,216.187,402.866,217.071Z" transform="translate(-273.01 -145.912)" fill="#5dc0ec"/>
      <path id="Path_4055" data-name="Path 4055" d="M300.52,259.673l-.21-1.236c.977-.161,1.941-.334,2.887-.519l.235,1.236C302.474,259.333,301.5,259.512,300.52,259.673Zm7.549-1.508-.284-1.206c.964-.223,1.91-.457,2.844-.7l.315,1.2C310.01,257.7,309.039,257.936,308.069,258.165Zm7.419-2.009-.365-1.181c.946-.291,1.855-.618,2.788-.9l.4,1.168q-1.366.47-2.807.915Zm7.277-2.535-.451-1.15c.909-.352,1.818-.723,2.714-1.107l.482,1.138c-.89.414-1.818.76-2.733,1.119Zm7.066-3.091-.538-1.113c.878-.427,1.762-.872,2.615-1.317l.569,1.094c-.828.464-1.737.915-2.634,1.348Zm6.8-3.641-.618-1.063q1.28-.76,2.473-1.533l.661,1.045c-.8.532-1.651,1.051-2.51,1.564Zm6.467-4.21-.717-1.008c.791-.563,1.583-1.15,2.349-1.743l.754.983c-.773.612-1.576,1.206-2.38,1.781Zm6.065-4.767-.8-.94c.736-.618,1.471-1.292,2.176-1.947l.841.9c-.711.68-1.453,1.348-2.207,2Zm5.6-5.323-.853-.841c.668-.7,1.335-1.428,1.972-2.151l.927.816c-.68.736-1.354,1.484-2.04,2.189Zm5.039-5.861-.946-.742c.618-.779,1.181-1.57,1.725-2.355l1.014.711c-.581.8-1.175,1.6-1.787,2.4Z" transform="translate(-234.268 -149.157)" fill="#5dc0ec"/>
      <path id="Path_4056" data-name="Path 4056" d="M290.458,282.488l-.148-1.236,1.527-.192L292,282.3Z" transform="translate(-230.451 -171.082)" fill="#5dc0ec"/>
      <path id="Path_4057" data-name="Path 4057" d="M231.181,148.072c-.525-.519-.866-.909-1.051-1.119l.9-.853v.037c.173.2.5.569.989,1.057Z" transform="translate(-207.476 -119.559)" fill="#5dc0ec"/>
      <path id="Path_4058" data-name="Path 4058" d="M269.857,161.6v-1.236c1.02,0,2.071-.049,3.091-.1L273,161.5C271.953,161.518,270.877,161.549,269.857,161.6Zm-5.051-.074c-1.063-.049-2.127-.117-3.159-.2l.111-1.236c1.014.093,2.059.161,3.091.2Zm-8.148-.859c-1.057-.173-2.1-.371-3.091-.618l.266-1.206c.989.216,2.015.408,3.048.575Zm-8.037-1.9c-1.02-.328-2.028-.686-2.992-1.07l.457-1.15c.94.377,1.917.723,2.912,1.045Zm-7.6-3.227c-.952-.526-1.855-1.082-2.726-1.657l.692-1.026c.828.556,1.712,1.094,2.634,1.6Z" transform="translate(-210.591 -122.136)" fill="#5dc0ec"/>
      <path id="Path_4059" data-name="Path 4059" d="M302.554,165.317l-.124-1.236,1.527-.161.142,1.236Z" transform="translate(-235.078 -126.362)" fill="#5dc0ec"/>
      <path id="Path_4060" data-name="Path 4060" d="M275.5,291.64c-.371-.847-.618-1.342-.618-1.342l1.088-.618s.291.538.68,1.447Z" transform="translate(-224.56 -174.373)" fill="#5dc0ec"/>
      <path id="Path_4061" data-name="Path 4061" d="M276.045,319.034,275,318.378a20.477,20.477,0,0,0,1.4-2.683l1.138.488A21.56,21.56,0,0,1,276.045,319.034Zm2.93-7.777-1.236-.2a23.056,23.056,0,0,0,.3-3.029l1.236.043a24.454,24.454,0,0,1-.3,3.19Zm-1.236-8.1c-.155-.989-.359-2-.618-3l1.193-.309a31.48,31.48,0,0,1,.649,3.091Z" transform="translate(-224.606 -178.256)" fill="#5dc0ec"/>
      <path id="Path_4062" data-name="Path 4062" d="M269.142,337.92l-.822-.927c.377-.334.748-.68,1.094-1.032l.878.872C269.927,337.221,269.538,337.567,269.142,337.92Z" transform="translate(-222.056 -192.041)" fill="#5dc0ec"/>
      <path id="Path_4063" data-name="Path 4063" d="M337.836,164.6c-.989,0-1.558-.043-1.576-.043l.074-1.236s.556.037,1.508.043Z" transform="translate(-247.993 -126.133)" fill="#5dc0ec"/>
      <path id="Path_4064" data-name="Path 4064" d="M347.581,157.09l-.111-1.236c1.119-.093,2.244-.223,3.332-.383l.173,1.236C349.863,156.873,348.719,157,347.581,157.09Zm8.773-1.428-.3-1.2c1.1-.278,2.182-.618,3.215-.921l.383,1.175c-1.063.359-2.17.674-3.3.958Zm8.4-3-.544-1.107a31.674,31.674,0,0,0,2.9-1.614l.655,1.045a31.246,31.246,0,0,1-3.011,1.688Zm7.382-5.063-.841-.878a23.491,23.491,0,0,0,2.219-2.436l.971.767a23.932,23.932,0,0,1-2.349,2.559Z" transform="translate(-252.272 -118.864)" fill="#5dc0ec"/>
      <path id="Path_4065" data-name="Path 4065" d="M395.138,136.67,394,136.145c.21-.445.408-.915.618-1.385l1.156.445C395.564,135.706,395.354,136.2,395.138,136.67Z" transform="translate(-270.036 -115.23)" fill="#5dc0ec"/>
      <path id="Path_4066" data-name="Path 4066" d="M333.533,202.3l-1.113-.538a11.942,11.942,0,0,0,.575-1.348l1.175.4A13.21,13.21,0,0,1,333.533,202.3Z" transform="translate(-246.527 -140.293)" fill="#5dc0ec"/>
      <path id="Path_4067" data-name="Path 4067" d="M295.464,200.843a12.273,12.273,0,0,1-3.184-.507l.346-1.187a10.9,10.9,0,0,0,2.862.457Zm5.026-1.236-.618-1.076a10.256,10.256,0,0,0,2.275-1.781l.884.866a11.574,11.574,0,0,1-2.541,1.96Zm-12.81-1.36c-.526-.328-1.063-.686-1.6-1.07-.328-.235-.655-.47-.971-.711l.742-.989c.309.229.618.464.946.692.513.371,1.032.711,1.533,1.02Zm-6.423-4.909c-.748-.618-1.5-1.335-2.294-2.077l.866-.934c.779.736,1.515,1.41,2.25,2.053Zm-5.818-5.527-.476-.476-1.7-1.694.872-.878c.556.55,1.125,1.113,1.7,1.7l.476.47Zm-5.737-5.478a25.74,25.74,0,0,0-2.4-1.8l.674-1.032a25.59,25.59,0,0,1,2.516,1.861Zm-6.665-3.709a11.127,11.127,0,0,0-2.881-.291l-.037-1.236a12.551,12.551,0,0,1,3.2.321Z" transform="translate(-218.925 -131.391)" fill="#5dc0ec"/>
      <path id="Path_4068" data-name="Path 4068" d="M250.095,180.429l-.495-1.138c.5-.21,1-.408,1.478-.581l.414,1.168C251.034,180.039,250.564,180.225,250.095,180.429Z" transform="translate(-214.909 -132.008)" fill="#5dc0ec"/>
      <path id="Path_4069" data-name="Path 4069" d="M351.771,304.656l-.371-1.181c.952-.3,1.515-.445,1.515-.445l.3,1.2S352.643,304.372,351.771,304.656Z" transform="translate(-253.773 -179.47)" fill="#5dc0ec"/>
      <path id="Path_4070" data-name="Path 4070" d="M313.519,324.579l-1.2-.3a16.912,16.912,0,0,1,1.057-2.974l1.119.519A15.762,15.762,0,0,0,313.519,324.579Zm3.493-6.726-.952-.779a25.054,25.054,0,0,1,2.121-2.287l.853.9A25.279,25.279,0,0,0,317.012,317.853Zm5.731-5.181-.73-1.014c.822-.575,1.694-1.138,2.6-1.675l.618,1.063C324.382,311.571,323.535,312.115,322.743,312.672Zm6.8-3.876-.526-1.119q1.372-.64,2.819-1.236l.464,1.144q-1.428.584-2.776,1.212Z" transform="translate(-238.853 -180.771)" fill="#5dc0ec"/>
      <path id="Path_4071" data-name="Path 4071" d="M311.757,344.973c-.08-.532-.136-1.07-.167-1.589l1.236-.074c.031.488.08.983.155,1.484Z" transform="translate(-238.575 -194.847)" fill="#5dc0ec"/>
      <path id="Path_4072" data-name="Path 4072" d="M310.06,140.782l-.08-1.236c.934-.062,1.5-.136,1.5-.136l.161,1.236S311.037,140.721,310.06,140.782Z" transform="translate(-237.96 -117.005)" fill="#5dc0ec"/>
      <path id="Path_4073" data-name="Path 4073" d="M291.553,135.5c-1.107-.068-2.189-.185-3.209-.34l.185-1.236c.989.155,2.028.26,3.091.328Zm-8.241-1.638a16.976,16.976,0,0,1-2.955-1.41l.618-1.057a16.924,16.924,0,0,0,2.751,1.311Zm-6.856-4.946a11.876,11.876,0,0,1-1.5-2.974l1.175-.4a10.411,10.411,0,0,0,1.335,2.658Z" transform="translate(-224.59 -111.714)" fill="#5dc0ec"/>
      <path id="Path_4074" data-name="Path 4074" d="M275.036,116.786l-1.236-.037a15.6,15.6,0,0,1,.111-1.589l1.236.13C275.086,115.791,275.055,116.3,275.036,116.786Z" transform="translate(-224.148 -107.747)" fill="#5dc0ec"/>
    </g>
    <g id="freepik--Backpack--inject-202" transform="translate(32.033 227.012)">
      <path id="Path_4075" data-name="Path 4075" d="M100.631,362.74a97.835,97.835,0,0,1,8.006,19.944c2.819,10.665,1.267,14.436-9.422,11.388v-.791s5.663,1.855,7.512.791.482-10.071-4.946-19.351S100.631,362.74,100.631,362.74Z" transform="translate(-69.839 -344.497)" fill="#5dc0ec"/>
      <path id="Path_4076" data-name="Path 4076" d="M100.631,362.74a97.835,97.835,0,0,1,8.006,19.944c2.819,10.665,1.267,14.436-9.422,11.388v-.791s5.663,1.855,7.512.791.482-10.071-4.946-19.351S100.631,362.74,100.631,362.74Z" transform="translate(-69.839 -344.497)" opacity="0.4"/>
      <path id="Path_4077" data-name="Path 4077" d="M81.21,391.171c-1.7,0-4.878-.093-8.457-.192-7.654-.21-17.137-.538-17.867-.618-2.819-.346-.853-9.181,0-15.32s-.427-21.02,2.349-23.641c.618-.618,2.436-1.045,4.828-1.323,7.957-.934,22.516-.1,23.134,2.09C86,355.01,86.545,391.226,81.21,391.171Z" transform="translate(-52.427 -339.518)" fill="#5dc0ec"/>
      <path id="Path_4078" data-name="Path 4078" d="M81.21,391.171c-1.7,0-4.878-.093-8.457-.192-7.654-.21-17.137-.538-17.867-.618-2.819-.346-.853-9.181,0-15.32s-.427-21.02,2.349-23.641c.618-.618,2.436-1.045,4.828-1.323,7.957-.934,22.516-.1,23.134,2.09C86,355.01,86.545,391.226,81.21,391.171Z" transform="translate(-52.427 -339.518)" opacity="0.2"/>
      <path id="Path_4079" data-name="Path 4079" d="M74.814,390.315a6.862,6.862,0,0,1-2.022.927c-7.654-.21-17.137-.538-17.867-.618-2.819-.346-.853-9.181,0-15.32s-.427-21.02,2.349-23.641c.618-.618,2.436-1.045,4.828-1.323,6.4.031,15.573.661,16.13,1.663C79.067,353.518,76.391,388.8,74.814,390.315Z" transform="translate(-52.442 -339.763)" fill="#fff" opacity="0.1" style="mix-blend-mode: normal;isolation: isolate"/>
      <path id="Path_4080" data-name="Path 4080" d="M53.95,384.181s10.825-1.929,19.524,0c0,0-.723,14.893-1.941,16.426s-18.664.964-19.289,0S51.31,387.383,53.95,384.181Z" transform="translate(-51.813 -352.355)" fill="#5dc0ec"/>
      <path id="Path_4081" data-name="Path 4081" d="M54.15,383.75c-1.014.105-3.369,5.768-.266,7.376s12.08,1.855,13.366-.618,3.765-7.376,6.423-6.733c0,0,1.434-1.02-6.8-1.5S54.15,383.75,54.15,383.75Z" transform="translate(-52.013 -351.924)" fill="#5dc0ec"/>
      <path id="Path_4082" data-name="Path 4082" d="M54.15,383.75c-1.014.105-3.369,5.768-.266,7.376s12.08,1.855,13.366-.618,3.765-7.376,6.423-6.733c0,0,1.434-1.02-6.8-1.5S54.15,383.75,54.15,383.75Z" transform="translate(-52.013 -351.924)" fill="#fff" opacity="0.2" style="mix-blend-mode: normal;isolation: isolate"/>
      <path id="Path_4083" data-name="Path 4083" d="M94.206,384.223s-.371,12.835-1.5,16.309c0,0,5.082,1.818,6.949.427s1.045-15.666,1.045-15.666S98.861,383.8,94.206,384.223Z" transform="translate(-67.426 -352.669)" fill="#5dc0ec"/>
      <path id="Path_4084" data-name="Path 4084" d="M94.206,384.223s-.371,12.835-1.5,16.309c0,0,5.082,1.818,6.949.427s1.045-15.666,1.045-15.666S98.861,383.8,94.206,384.223Z" transform="translate(-67.426 -352.669)" fill="#fff" opacity="0.1" style="mix-blend-mode: normal;isolation: isolate"/>
      <path id="Path_4085" data-name="Path 4085" d="M59.693,368.427c.346,1.181,4.383.427,7.32.371s6.955,1.552,8.179.618,3.283-10.3-3.753-12.773S57.22,359.926,59.693,368.427Z" transform="translate(-54.631 -341.949)" fill="#5dc0ec"/>
      <path id="Path_4086" data-name="Path 4086" d="M81.816,345.679c-.464-.062-.964-.148-1.484-.26-7.085-1.552-21.867,1.471-24.278-.921s-1.44-8.934,2.244-9.4c13.3-1.675,20.7-1.539,24.859-.495s5.107,3.091,5.453,5.07C89.247,343.342,87.664,346.47,81.816,345.679Z" transform="translate(-52.928 -333.457)" fill="#ffc917"/>
      <path id="Path_4087" data-name="Path 4087" d="M97.235,346.159c-4.389-4.062-.934-9.614,1.342-11.079,4.216,1.07,5.107,3.091,5.453,5.07C104.667,343.822,103.084,346.95,97.235,346.159Z" transform="translate(-68.347 -333.937)" fill="#fff" opacity="0.2" style="mix-blend-mode: normal;isolation: isolate"/>
      <path id="Path_4088" data-name="Path 4088" d="M99.81,346.56a.31.31,0,1,0,.056-.618,3.091,3.091,0,0,1-2.572-3.524c.117-1.6,1.125-3.351,2.473-3.406,2.145-.1,3.258,1.088,3.406,3.6a2.386,2.386,0,0,1-1.632,2.294,1.854,1.854,0,0,1-2.164-1.1c-.563-.958-.618-1.929,0-2.473a1.774,1.774,0,0,1,2.164-.093c.315.229.445.47.383.7a.927.927,0,0,1-.73.618.272.272,0,0,1-.3-.1.3.3,0,0,0-.42-.111.315.315,0,0,0-.117.42.884.884,0,0,0,.927.4,1.533,1.533,0,0,0,1.236-1.057,1.236,1.236,0,0,0-.618-1.354,2.368,2.368,0,0,0-2.943.136c-.828.742-.878,1.96-.13,3.24a2.393,2.393,0,0,0,2.875,1.385,3.048,3.048,0,0,0,2.071-2.924c-.21-3.586-2.318-4.241-4.049-4.179s-2.906,2.121-3.042,3.975a3.7,3.7,0,0,0,3.091,4.179Z" transform="translate(-68.938 -335.21)" fill="#cca012"/>
      <path id="Path_4089" data-name="Path 4089" d="M83.134,346.6s-1.3-11.555,4.81-12.983a3.153,3.153,0,0,0-3.011,0c-1.539.884-4.816,6.677-3.017,12.983Z" transform="translate(-63.105 -333.231)" fill="#5dc0ec"/>
      <path id="Path_4090" data-name="Path 4090" d="M69.7,334.289c-1.768.161-5.669,4.748-4.111,12.556h-1.57s-2.652-8.272,3.042-12.544c0,0,.414-.5,1.527-.253Z" transform="translate(-56.237 -333.517)" fill="#5dc0ec"/>
      <path id="Path_4091" data-name="Path 4091" d="M83.134,346.6s-1.3-11.555,4.81-12.983a3.153,3.153,0,0,0-3.011,0c-1.539.884-4.816,6.677-3.017,12.983Z" transform="translate(-63.105 -333.231)" fill="#cca012"/>
      <path id="Path_4092" data-name="Path 4092" d="M69.7,334.289c-1.768.161-5.669,4.748-4.111,12.556h-1.57s-2.652-8.272,3.042-12.544c0,0,.414-.5,1.527-.253Z" transform="translate(-56.237 -333.517)" fill="#cca012"/>
    </g>
    <g id="freepik--Character--inject-202" transform="translate(48.374 95.13)">
      <g id="freepik--group--inject-202">
        <path id="Path_4093" data-name="Path 4093" d="M145.066,155.064s13.805-4.13,16.117-4.692,11.258-8.433,12.983-10.43c0,0,.043-.618,1.014-1.2s6.331-1.818,7.122-1.236-.3,4.532-1.5,4.748-4.915,1.521-5.564.563c0,0-7.592,8.655-12.674,11.666s-18.868,9.131-18.868,9.131Z" transform="translate(-103.233 -126.57)" fill="#b97964"/>
        <path id="Path_4094" data-name="Path 4094" d="M146.092,172.809s3.629-.414,8.76-4.7l-2.442-8.21-10.51,2.825Z" transform="translate(-102.546 -135.177)" fill="#5dc0ec"/>
        <path id="Path_4095" data-name="Path 4095" d="M152.41,159.9l-10.51,2.825,3.487,8.414.4.964v.062l.266.618a10.806,10.806,0,0,0,2.794-.89,24.661,24.661,0,0,0,5.966-3.814Z" transform="translate(-102.546 -135.177)" fill="#fff" opacity="0.3" style="mix-blend-mode: normal;isolation: isolate"/>
        <path id="Path_4096" data-name="Path 4096" d="M149.743,178.112s.767-1.07-.068-1.391-.909,1.094-.909,1.094-.791-.618-1.236-.253l.4.964.093.031-.068.031.266.618a10.807,10.807,0,0,0,2.794-.89C150.912,177.759,149.743,178.112,149.743,178.112Z" transform="translate(-104.696 -141.58)" fill="#fff" opacity="0.4"/>
        <path id="Path_4097" data-name="Path 4097" d="M149.19,179.3a.427.427,0,1,1-.049.68A.5.5,0,0,1,149.19,179.3Z" transform="translate(-105.268 -142.556)" opacity="0.2"/>
        <path id="Path_4098" data-name="Path 4098" d="M151.58,161.709h0l.192-.291,2.281-.618c.173.253.55.934,0,1.354-.717.525-1-1-1-1s-.878,1.484-1.354.767a.754.754,0,0,1-.124-.216Z" transform="translate(-106.242 -135.52)" fill="#fff" opacity="0.4"/>
        <path id="Path_4099" data-name="Path 4099" d="M157.1,170.936s.68,1-.074,1.453-.909-1.07-.909-1.07-1,1.4-1.416.649.742-1.4.742-1.4-1-.161-.711-.779,1.329-.049,1.329-.049-.136-1.416.742-1.236.26,1.372.26,1.372,1.236-.544,1.329.136S157.1,170.936,157.1,170.936Z" transform="translate(-107.399 -138.454)" fill="#fff" opacity="0.4"/>
        <path id="Path_4100" data-name="Path 4100" d="M156.746,171.2a.427.427,0,1,1-.125.478A.427.427,0,0,1,156.746,171.2Z" transform="translate(-108.156 -139.377)" opacity="0.2"/>
        <path id="Path_4101" data-name="Path 4101" d="M160.865,168.35l-2.535-8.977,1.1-.253,2.374,8.439Z" transform="translate(-108.819 -134.879)" fill="#5dc0ec"/>
        <path id="Path_4102" data-name="Path 4102" d="M171.737,399.384l-5.113.538-2.114-11.054,5.119-.538Z" transform="translate(-111.178 -222.384)" fill="#e4897b"/>
        <path id="Path_4103" data-name="Path 4103" d="M127.724,400.546l-5.008-.192L121.56,388.8l5.014.192Z" transform="translate(-94.781 -222.563)" fill="#e4897b"/>
        <path id="Path_4104" data-name="Path 4104" d="M172.3,406.36h-6.09a.439.439,0,0,0-.427.346l-.989,4.464a.736.736,0,0,0,.569.872h.167c1.966-.031,3.4-.155,5.879-.155,1.521,0,6.121.161,8.223.161s2.38-2.077,1.521-2.269c-3.864-.841-6.8-2.009-8.037-3.122A1.236,1.236,0,0,0,172.3,406.36Z" transform="translate(-111.279 -229.267)" fill="#263238"/>
        <path id="Path_4105" data-name="Path 4105" d="M177.442,406.807a.117.117,0,0,1-.093-.1.124.124,0,0,1,.056-.117c.179-.111,1.8-1.107,2.355-.822a.352.352,0,0,1,.2.334.711.711,0,0,1-.247.618,1.49,1.49,0,0,1-.964.253,5.83,5.83,0,0,1-1.311-.167Zm.34-.167a2.473,2.473,0,0,0,1.787-.087.482.482,0,0,0,.161-.427c0-.1-.043-.142-.074-.142a.278.278,0,0,0-.155,0,4.947,4.947,0,0,0-1.719.655Z" transform="translate(-116.079 -229.022)" fill="#5dc0ec"/>
        <path id="Path_4106" data-name="Path 4106" d="M177.406,406.131a.13.13,0,0,1-.056-.105c0-.068.13-1.515.711-1.984a.618.618,0,0,1,.5-.155.39.39,0,0,1,.383.315c.105.525-.9,1.632-1.416,1.91h-.056A.124.124,0,0,1,177.406,406.131Zm.8-1.947a2.782,2.782,0,0,0-.618,1.57c.513-.389,1.15-1.237,1.088-1.552,0,0,0-.124-.173-.124h-.056a.408.408,0,0,0-.241.105Z" transform="translate(-116.08 -228.32)" fill="#5dc0ec"/>
        <path id="Path_4107" data-name="Path 4107" d="M128.066,406.1h-6.09a.439.439,0,0,0-.427.346l-.989,4.464a.748.748,0,0,0,.575.878h.161c1.972-.031,3.406-.155,5.879-.155,1.521,0,6.121.161,8.223.161s2.38-2.077,1.521-2.269c-3.864-.841-6.8-2.009-8.037-3.091a1.236,1.236,0,0,0-.816-.334Z" transform="translate(-94.394 -229.168)" fill="#263238"/>
        <path id="Path_4108" data-name="Path 4108" d="M133.212,406.547a.116.116,0,0,1-.031-.216c.179-.111,1.8-1.107,2.349-.822a.352.352,0,0,1,.2.334.68.68,0,0,1-.247.618,1.49,1.49,0,0,1-.964.254A5.878,5.878,0,0,1,133.212,406.547Zm.346-.161a2.43,2.43,0,0,0,1.781-.093.482.482,0,0,0,.161-.427c0-.093-.043-.142-.074-.142a.328.328,0,0,0-.155-.031,4.761,4.761,0,0,0-1.713.717Z" transform="translate(-99.194 -228.922)" fill="#5dc0ec"/>
        <path id="Path_4109" data-name="Path 4109" d="M133.182,405.88a.136.136,0,0,1-.062-.111c0-.068.13-1.508.711-1.985a.618.618,0,0,1,.5-.148.377.377,0,0,1,.383.309c.105.532-.9,1.632-1.416,1.917h-.056a.118.118,0,0,1-.062.018Zm.8-1.954a2.794,2.794,0,0,0-.618,1.57c.513-.389,1.15-1.236,1.088-1.552,0-.031,0-.124-.173-.124h0A.42.42,0,0,0,133.986,403.926Z" transform="translate(-99.194 -228.224)" fill="#5dc0ec"/>
        <path id="Path_4110" data-name="Path 4110" d="M169.629,388.33l-5.119.538,1.094,5.706,5.119-.544Z" transform="translate(-111.178 -222.384)" opacity="0.2" style="mix-blend-mode: normal;isolation: isolate"/>
        <path id="Path_4111" data-name="Path 4111" d="M126.574,389l-5.014-.192.6,5.96,5.014.192Z" transform="translate(-94.781 -222.567)" opacity="0.2" style="mix-blend-mode: normal;isolation: isolate"/>
        <path id="Path_4112" data-name="Path 4112" d="M148.865,329.593H139.7s-8.513-34.522-12.451-50.312c-.89-3.567-2.009-8.872-3.184-14.838-.934-4.767-1.91-9.947-2.838-14.986-2.219,18.949.971,78.472.971,78.472l-8.859,1.113A921.023,921.023,0,0,1,104.16,223.77h29.675c.4,3.456,4.612,40.408,7.3,57.261C143.585,296.548,148.865,329.593,148.865,329.593Z" transform="translate(-88.138 -159.56)" fill="#1f3486"/>
        <path id="Path_4113" data-name="Path 4113" d="M116.745,393.18l11.1-.062-.21-3.122-11.542-.136Z" transform="translate(-92.693 -222.968)" fill="#5dc0ec"/>
        <path id="Path_4114" data-name="Path 4114" d="M159.4,392.953H170.22l-.334-3.2-11.246-.21Z" transform="translate(-108.937 -222.846)" fill="#5dc0ec"/>
        <path id="Path_4115" data-name="Path 4115" d="M134.55,207.618h0a67.325,67.325,0,0,1-21.749,3.017h-1.57c-.723,0-1.422-.043-2.09-.08-2.559-.124-4.723-.34-6.312-.532a.71.71,0,0,0,0-.117.749.749,0,0,1,0-.117v-.235c.068-1.206.13-2.4.173-3.573,0-.544.049-1.082.068-1.614s.037-1.057.049-1.576,0-1.045.043-1.558h0v-10.5c0-.767,0-1.521-.049-2.257,0-.538,0-1.07-.049-1.6s-.037-1.15-.056-1.7v-.4c0-.68-.062-1.348-.087-2a.3.3,0,0,1,0-.074c0-.476-.043-.94-.068-1.391s-.056-.89-.08-1.329a5.119,5.119,0,0,0-.049-.872l-.056-.853c0-.451-.056-.89-.093-1.329a2.916,2.916,0,0,0-.043-.618,13.081,13.081,0,0,0-.111-1.342v-.427c-.08-.94-.155-1.774-.223-2.522,0-.359-.074-.7-.1-1.014s-.068-.618-.093-.866a.117.117,0,0,1,0-.049.784.784,0,0,0-.031-.272,4.438,4.438,0,0,0-.08-.7V169a1,1,0,0,0-.037-.3,1.853,1.853,0,0,1,0-.241h0v-.34a96.2,96.2,0,0,0,13.521-2.733c.971-.074,2.7-.223,4.754-.451.8-.087,1.651-.192,2.529-.309.482-.062.977-.136,1.471-.21.76-.111,1.533-.235,2.294-.371,1-.179,1.991-.377,2.924-.618l.111.581c.155.76.3,1.546.433,2.355.08.445.155.89.235,1.354.105.618.216,1.292.315,1.947a2.748,2.748,0,0,0,.08.495h0l.093.618c.031.21.062.427.1.618s.08.544.117.816.1.655.142.983l.074.507.037.247v.247h0l.093.655c.031.247.068.495.1.742.062.427.111.847.173,1.28.087.711.185,1.434.272,2.158.167,1.3.321,2.609.476,3.92l.093.8.037.352c.062.495.117.983.167,1.478.346,3.091.662,6.139.94,9.026a4.757,4.757,0,0,0,.062.618c.111,1.138.21,2.238.315,3.314a1.8,1.8,0,0,0,.043.482l.074.822c.031.309.056.618.08.921s.056.618.08.9a.436.436,0,0,1,0,.087l.037.371a1.268,1.268,0,0,0,.031.34c.031.111,0,.08,0,.124l.056.618v.229c0,.278.049.55.068.816v.427a.136.136,0,0,1,0,.068c0,.235.043.476.062.711C134.445,206.239,134.5,206.962,134.55,207.618Z" transform="translate(-87.258 -136.521)" fill="#5dc0ec"/>
        <path id="Path_4116" data-name="Path 4116" d="M134.546,207.568h0a67.324,67.324,0,0,1-21.749,3.017h-1.57c-.723,0-1.422-.043-2.09-.08-2.559-.124-4.723-.34-6.312-.532a3.624,3.624,0,0,1-.043.686,6.322,6.322,0,0,1,.037-.686.688.688,0,0,0,0-.117.748.748,0,0,1,0-.117V209.5c.068-1.206.13-2.4.173-3.573,0-.544.049-1.082.068-1.614s.037-1.057.049-1.576,0-1.045.043-1.558V190.6c0-.767,0-1.521-.049-2.257,0-.538,0-1.07-.049-1.6s-.037-1.15-.056-1.7v-.4c0-.68-.062-1.348-.087-2a.3.3,0,0,1,0-.074c0-.476-.043-.94-.068-1.391s-.056-.89-.08-1.329a5.119,5.119,0,0,0-.049-.872l-.056-.853c0-.451-.056-.89-.093-1.329a2.916,2.916,0,0,0-.043-.618,13.078,13.078,0,0,0-.111-1.342v-.427c-.08-.94-.155-1.774-.223-2.522,0-.359-.074-.7-.1-1.014s-.068-.618-.093-.866a.117.117,0,0,1,0-.049.784.784,0,0,0-.031-.272,5.3,5.3,0,0,0-.08-.7v-.124a1,1,0,0,0-.037-.3,1.856,1.856,0,0,1,0-.241h0v-.34h0a96.2,96.2,0,0,0,13.521-2.733c.971-.074,2.7-.223,4.754-.451.8-.087,1.651-.192,2.529-.309.482-.062.977-.136,1.471-.21.76-.111,1.533-.235,2.294-.371,1-.179,1.991-.377,2.924-.618l.111.581c.155.76.3,1.546.433,2.355.08.445.155.89.235,1.354.105.618.216,1.292.315,1.947a2.748,2.748,0,0,0,.08.495h0l.093.618c.031.21.062.427.1.618s.08.544.117.816.1.655.142.983l.074.507.037.247.037.247a4.975,4.975,0,0,0,.087.661c.031.223.068.495.1.742.062.427.111.847.173,1.28.087.711.185,1.434.272,2.158.167,1.3.322,2.609.476,3.92l.093.8a.92.92,0,0,0,.043.34h0c.056.495.111.989.161,1.484.346,3.091.662,6.139.94,9.026a4.752,4.752,0,0,0,.062.618c.111,1.138.21,2.238.315,3.314a1.8,1.8,0,0,0,.043.482l.074.822c.031.309.056.618.08.921s.056.618.08.9a.441.441,0,0,1,0,.087l.037.371a1.267,1.267,0,0,0,.031.34.876.876,0,0,1,0,.284v.637c0,.291.049.581.074.859v.433a.136.136,0,0,1,0,.068c0,.235.043.476.062.711C134.441,206.189,134.5,206.913,134.546,207.568Z" transform="translate(-87.254 -136.471)" fill="#fff" opacity="0.4" style="mix-blend-mode: normal;isolation: isolate"/>
        <path id="Path_4117" data-name="Path 4117" d="M147.7,194.379c-.488.47-1.7.328-1.7.328s1.36,2.077-.08,2.294-1.508-1.935-1.508-1.935-1.36,1.583-2.046.618,1.138-2.151,1.138-2.151-1.811-1.094-1.094-2.257,2.2,1.082,2.2,1.082.291-2.733,1.515-1.855.155,2.473.087,2.578a2.015,2.015,0,0,1,1.354.155c.043.383.087.76.136,1.144Z" transform="translate(-102.665 -146.794)" fill="#fff" opacity="0.4"/>
        <path id="Path_4118" data-name="Path 4118" d="M146.945,195.371c-.037.476-.371.8-.742.723a.921.921,0,0,1-.618-1c.037-.482.365-.8.742-.73A.927.927,0,0,1,146.945,195.371Z" transform="translate(-103.949 -148.33)" opacity="0.2"/>
        <path id="Path_4119" data-name="Path 4119" d="M138.732,213.345s-1.811-1.094-1.094-2.257,2.2,1.088,2.2,1.088.291-2.739,1.515-1.855.08,2.578.08,2.578,1.583-.359,1.682.754-1.892.878-1.892.878,1.366,2.077-.074,2.294-1.508-1.929-1.508-1.929-1.36,1.576-2.046.618S138.732,213.345,138.732,213.345Z" transform="translate(-100.844 -154.359)" fill="#fff" opacity="0.4"/>
        <path id="Path_4120" data-name="Path 4120" d="M142.151,215.231c-.037.476-.371.8-.748.723a.921.921,0,0,1-.618-1c.031-.482.365-.8.742-.73A.94.94,0,0,1,142.151,215.231Z" transform="translate(-102.117 -155.912)" opacity="0.2"/>
        <path id="Path_4121" data-name="Path 4121" d="M153.258,226.642c-.464.359-1.119.7-1.533.111-.686-.977,1.138-2.151,1.138-2.151s-1.811-1.094-1.094-2.257c.291-.47.7-.377,1.1-.105C153.011,223.811,153.14,225.282,153.258,226.642Z" transform="translate(-106.238 -158.89)" fill="#fff" opacity="0.4"/>
        <path id="Path_4122" data-name="Path 4122" d="M117.052,238.225h-1.57c-.723,0-1.422-.043-2.09-.08a1.236,1.236,0,0,1-.241-1.521c.711-1.162,2.195,1.082,2.195,1.082s.291-2.739,1.521-1.855C117.843,236.544,117.324,237.768,117.052,238.225Z" transform="translate(-91.51 -164.105)" fill="#fff" opacity="0.4"/>
        <path id="Path_4123" data-name="Path 4123" d="M117.416,239.757h-.4a.538.538,0,0,1,.3,0Z" transform="translate(-93.048 -165.656)" opacity="0.2"/>
        <path id="Path_4124" data-name="Path 4124" d="M109.486,203.886s1.743,1.236.934,2.3-2.139-1.236-2.139-1.236-.495,2.683-1.663,1.713.111-2.553.111-2.553-1.62.247-1.638-.859,1.972-.736,1.972-.736-1.236-2.145.247-2.257,1.379,2.015,1.379,2.015,1.484-1.459,2.1-.445S109.486,203.886,109.486,203.886Z" transform="translate(-88.493 -150.582)" fill="#fff" opacity="0.4"/>
        <path id="Path_4125" data-name="Path 4125" d="M108.717,204.926c.068-.47.427-.767.8-.668a.921.921,0,0,1,.55,1.039c-.074.47-.433.767-.8.668a.915.915,0,0,1-.544-1.039Z" transform="translate(-89.87 -152.104)" opacity="0.2"/>
        <path id="Path_4126" data-name="Path 4126" d="M105.794,226.965s.692,1.929-.723,2.151-1.02-2.189-1.02-2.189l-.21.136c.037-1.057.068-2.108.087-3.141a4.427,4.427,0,0,1,.7.581s.371-2.226,1.706-1.366-.161,2.238-.161,2.238,2.244-.043,2.1,1.039S105.794,226.965,105.794,226.965Z" transform="translate(-88.016 -159.244)" fill="#fff" opacity="0.4"/>
        <path id="Path_4127" data-name="Path 4127" d="M104.362,226.593a.835.835,0,0,1,1.125.062.736.736,0,0,1-.216,1.051.847.847,0,0,1-1.131-.062.742.742,0,0,1,.223-1.051Z" transform="translate(-88.081 -160.566)" opacity="0.2"/>
        <path id="Path_4128" data-name="Path 4128" d="M138.091,165.08c-.142,1.088-2.473.556-2.473.556s.692,1.923-.723,2.145-1.02-2.182-1.02-2.182-2.2,1.49-2.559.093a1.187,1.187,0,0,1,0-.482c.8-.087,1.651-.192,2.529-.309.482-.062.977-.136,1.471-.21.76-.111,1.533-.235,2.294-.371a.711.711,0,0,1,.482.76Z" transform="translate(-98.496 -136.864)" fill="#fff" opacity="0.4"/>
        <path id="Path_4129" data-name="Path 4129" d="M136.861,164.92a.816.816,0,0,1-.284.359.828.828,0,0,1-1.125-.062.438.438,0,0,1-.062-.087C135.872,165.068,136.385,164.969,136.861,164.92Z" transform="translate(-100.061 -137.093)" opacity="0.2"/>
        <path id="Path_4130" data-name="Path 4130" d="M111.548,181.195s.686,1.929-.73,2.151-1.02-2.189-1.02-2.189-2.195,1.5-2.553.1,1.787-1.657,1.787-1.657-1.552-.866-.835-1.626,2.17.76,2.17.76.383-2.226,1.713-1.366-.161,2.232-.161,2.232,2.244-.037,2.1,1.045S111.548,181.195,111.548,181.195Z" transform="translate(-89.301 -141.77)" fill="#fff" opacity="0.4"/>
        <path id="Path_4131" data-name="Path 4131" d="M111.552,180.822a.828.828,0,0,1,1.125.062.736.736,0,0,1-.216,1.051.847.847,0,0,1-1.131-.062.742.742,0,0,1,.223-1.051Z" transform="translate(-90.826 -143.091)" opacity="0.2"/>
        <path id="Path_4132" data-name="Path 4132" d="M124.908,191.092s.538,1.5-.569,1.675-.791-1.675-.791-1.675-1.719,1.168-2,.074,1.391-1.286,1.391-1.286-1.206-.68-.618-1.274,1.694.618,1.694.618.3-1.737,1.335-1.07-.124,1.75-.124,1.75,1.75-.031,1.632.81S124.908,191.092,124.908,191.092Z" transform="translate(-94.766 -145.906)" fill="#fff" opacity="0.4"/>
        <path id="Path_4133" data-name="Path 4133" d="M124.911,190.771a.618.618,0,0,1,.878.049.569.569,0,0,1-.167.816.655.655,0,0,1-.884-.049.575.575,0,0,1,.173-.816Z" transform="translate(-95.956 -146.902)" opacity="0.2"/>
        <path id="Path_4134" data-name="Path 4134" d="M147.012,178.334a.742.742,0,0,1-.513.278c-1.107.179-.791-1.706-.791-1.706s-1.719,1.168-2,.08,1.391-1.292,1.391-1.292-1.206-.68-.618-1.267,1.694.587,1.694.587a2.634,2.634,0,0,1,.26-.754c.068.42.13.847.2,1.274.037.266.08.544.117.816C146.827,177,146.919,177.666,147.012,178.334Z" transform="translate(-103.226 -140.659)" fill="#fff" opacity="0.4"/>
        <path id="Path_4135" data-name="Path 4135" d="M147.918,177.1a.706.706,0,0,1-.136.136.662.662,0,0,1-.878-.049.575.575,0,0,1,.167-.822.717.717,0,0,1,.73-.08C147.838,176.546,147.881,176.824,147.918,177.1Z" transform="translate(-104.416 -141.406)" opacity="0.2"/>
        <path id="Path_4136" data-name="Path 4136" d="M124.084,220.3s.476,1.335-.507,1.49-.686-1.49-.686-1.49-1.521,1.032-1.768.068,1.236-1.144,1.236-1.144-1.07-.618-.575-1.125,1.5.525,1.5.525.26-1.539,1.181-.946-.111,1.546-.111,1.546,1.552,0,1.453.723S124.084,220.3,124.084,220.3Z" transform="translate(-94.604 -157.182)" fill="#fff" opacity="0.4"/>
        <path id="Path_4137" data-name="Path 4137" d="M124.071,220.047a.581.581,0,0,1,.785.037.513.513,0,0,1-.155.73.581.581,0,0,1-.779-.043.507.507,0,0,1,.148-.723Z" transform="translate(-95.648 -158.087)" opacity="0.2"/>
        <path id="Path_4138" data-name="Path 4138" d="M135.638,200.5a.581.581,0,0,1-.73.519.791.791,0,0,1-.618-.8.575.575,0,0,1,.73-.513A.791.791,0,0,1,135.638,200.5Z" transform="translate(-99.641 -150.365)" fill="#5dc0ec"/>
        <path id="Path_4139" data-name="Path 4139" d="M137.954,224.968a.618.618,0,0,1-.736.519.785.785,0,0,1-.618-.8.575.575,0,0,1,.73-.513.791.791,0,0,1,.624.791Z" transform="translate(-100.523 -159.707)" fill="#5dc0ec"/>
        <path id="Path_4140" data-name="Path 4140" d="M103.4,238.76a3.657,3.657,0,0,1-.043.686,6.321,6.321,0,0,1,.037-.686Z" transform="translate(-87.833 -165.283)" fill="#5dc0ec"/>
        <path id="Path_4141" data-name="Path 4141" d="M124.811,160.293a26.635,26.635,0,0,1-2.949,4.853l-9.546-2.584c4.025-2.708-.847-9.892-.847-9.892l8.414.587a17,17,0,0,0,1.453,4.736C122.926,161.078,124.811,160.293,124.811,160.293Z" transform="translate(-90.929 -132.417)" fill="#b97964"/>
        <path id="Path_4142" data-name="Path 4142" d="M122.207,158.3a8.847,8.847,0,0,1-8.457-3.456l6.139-1.335.866.056A17,17,0,0,0,122.207,158.3Z" transform="translate(-91.8 -132.737)" opacity="0.2" style="mix-blend-mode: normal;isolation: isolate"/>
        <path id="Path_4143" data-name="Path 4143" d="M99.626,142.8c-1.96-1.818,10.844-21.675,17.929-19.209S104.318,147.144,99.626,142.8Z" transform="translate(-86.33 -121.234)" fill="#5dc0ec"/>
        <path id="Path_4144" data-name="Path 4144" d="M117.609,131.7c-1.3,1.929.34,3.654,5.669,5.236.785-2.788-1.28-8.878-3-9.391S118.74,130.023,117.609,131.7Z" transform="translate(-93.111 -122.802)" fill="#263238"/>
        <path id="Path_4145" data-name="Path 4145" d="M121.476,138.792a15.835,15.835,0,0,1,.359,1.774c.618,4.767-3.988,8.835-8.593,6.8h-.049c-3.091-1.4-4-4.006-5.954-8.291a6.423,6.423,0,0,1,5.966-9.138C117.513,129.976,120.413,134.736,121.476,138.792Z" transform="translate(-89.084 -123.738)" fill="#b97964"/>
        <path id="Path_4146" data-name="Path 4146" d="M118.96,142.048c.136.359.439.575.674.482s.309-.445.167-.8-.433-.575-.662-.488S118.824,141.7,118.96,142.048Z" transform="translate(-93.764 -128.045)" fill="#263238"/>
        <path id="Path_4147" data-name="Path 4147" d="M125.488,139.547c.136.352.439.569.668.482s.315-.451.179-.81-.439-.575-.674-.482S125.352,139.188,125.488,139.547Z" transform="translate(-96.255 -127.089)" fill="#263238"/>
        <path id="Path_4148" data-name="Path 4148" d="M123.49,141.15a13.544,13.544,0,0,0,2.875,2.4,2.207,2.207,0,0,1-1.583.971Z" transform="translate(-95.518 -128.019)" fill="#a24e3f"/>
        <path id="Path_4149" data-name="Path 4149" d="M116.176,140.077a.2.2,0,0,1-.3-.253,2.2,2.2,0,0,1,1.372-1.521.223.223,0,0,1,.278.13h0a.229.229,0,0,1-.155.278h0a1.781,1.781,0,0,0-1.07,1.236.247.247,0,0,1-.13.13Z" transform="translate(-92.606 -126.927)" fill="#263238"/>
        <path id="Path_4150" data-name="Path 4150" d="M126.4,136.074a.235.235,0,0,1-.241-.049,1.774,1.774,0,0,0-1.539-.495.223.223,0,0,1-.272-.167.229.229,0,0,1,.161-.272,2.257,2.257,0,0,1,1.96.618.223.223,0,0,1,0,.309h0A.235.235,0,0,1,126.4,136.074Z" transform="translate(-95.843 -125.693)" fill="#263238"/>
        <path id="Path_4151" data-name="Path 4151" d="M110.272,125.8c-5.762-.507-11.394,4.439-9.5,10.671,1.076,3.53,4.779,7.079,6.461,6.491,1-3.623.365-8.334-.427-9.366a3.369,3.369,0,0,1,.148-2.553s4.637-.754,5.527-1.267a10.349,10.349,0,0,0,1.546-1.094l1.515,1.335S116.065,126.3,110.272,125.8Z" transform="translate(-86.702 -122.144)" fill="#263238"/>
        <path id="Path_4152" data-name="Path 4152" d="M106.126,149.608a4.439,4.439,0,0,0,2.943,1.737c1.552.21,2.108-1.236,1.5-2.584-.556-1.236-2.034-2.794-3.5-2.374A1.988,1.988,0,0,0,106.126,149.608Z" transform="translate(-88.708 -129.991)" fill="#b97964"/>
        <path id="Path_4153" data-name="Path 4153" d="M124.348,148.585a12.366,12.366,0,0,0-.266,1.811h-.321c-1.459.111-2.17-.315-2.516-.822a1.818,1.818,0,0,1-.3-.841,1.657,1.657,0,0,1,0-.513,6.868,6.868,0,0,0,2.9.371A4.067,4.067,0,0,0,124.348,148.585Z" transform="translate(-94.54 -130.718)" fill="#263238"/>
        <path id="Path_4154" data-name="Path 4154" d="M123.847,148.631l-.087.532a4.281,4.281,0,0,1-2.813-.389,1.657,1.657,0,0,1,0-.513A6.868,6.868,0,0,0,123.847,148.631Z" transform="translate(-94.54 -130.733)" fill="#fff"/>
        <path id="Path_4155" data-name="Path 4155" d="M123.956,151.267c-1.459.111-2.17-.315-2.516-.822a4.637,4.637,0,0,1,1.638.192A1.855,1.855,0,0,1,123.956,151.267Z" transform="translate(-94.735 -131.564)" fill="#de5753"/>
        <path id="Path_4156" data-name="Path 4156" d="M110.363,122.995,99.488,134.624l-1.274-2.294-1.645-2.968c1.564-8.161,9.539-9.453,9.539-9.453l3.493,2.553Z" transform="translate(-85.241 -119.91)" fill="#5dc0ec"/>
        <path id="Path_4157" data-name="Path 4157" d="M100.438,143.258c-1.1-.983,5.644-18.065,17.589-19.4,0,0-1.478-2.164-10.7,2.065a19.481,19.481,0,0,0-7.27,8.1s-1.576,6.43-.532,8.748Z" transform="translate(-86.234 -121.206)" fill="#5dc0ec"/>
        <path id="Path_4158" data-name="Path 4158" d="M111.378,124.556a43.16,43.16,0,0,0-4.019,1.632,19.481,19.481,0,0,0-7.277,8.093s-.074.309-.185.822l-.668-1.212c1.422-2.862,4.946-8.427,11.413-9.892Z" transform="translate(-86.256 -121.471)" fill="#fff" opacity="0.6" style="mix-blend-mode: normal;isolation: isolate"/>
        <path id="Path_4159" data-name="Path 4159" d="M100.438,143.258c-1.1-.983,5.644-18.065,17.589-19.4,0,0-1.478-2.164-10.7,2.065a19.481,19.481,0,0,0-7.27,8.1s-1.576,6.43-.532,8.748Z" transform="translate(-86.234 -121.206)" fill="#fff" opacity="0.2" style="mix-blend-mode: normal;isolation: isolate"/>
        <path id="Path_4160" data-name="Path 4160" d="M112.105,164.226a26.943,26.943,0,0,0,8.655,3.6s.94-3.821.352-5.9l3.326,1.855s1.416.81.464,5.626l-3.678-.73-1.5,4.389s-8.427-2.646-9.892-6.64Z" transform="translate(-90.303 -135.948)" fill="#5dc0ec"/>
        <path id="Path_4161" data-name="Path 4161" d="M112.105,164.226a26.943,26.943,0,0,0,8.655,3.6s.94-3.821.352-5.9l3.326,1.855s1.416.81.464,5.626l-3.678-.73-1.5,4.389s-8.427-2.646-9.892-6.64Z" transform="translate(-90.303 -135.948)" fill="#fff" opacity="0.2" style="mix-blend-mode: normal;isolation: isolate"/>
        <path id="Path_4162" data-name="Path 4162" d="M130.934,173.13a.661.661,0,1,1-.16-.485A.662.662,0,0,1,130.934,173.13Z" transform="translate(-97.856 -139.956)" fill="#5dc0ec"/>
        <path id="Path_4163" data-name="Path 4163" d="M103.962,213.251c.117-5.15.068-9.892-.062-14.052.618-1.768,1.063-2.918,1.063-2.918S107.813,205.894,103.962,213.251Z" transform="translate(-88.039 -149.065)" opacity="0.2" style="mix-blend-mode: normal;isolation: isolate"/>
        <path id="Path_4164" data-name="Path 4164" d="M97.6,211.537c.872.08,3.944-2.158,5.564-2.04s2.578-.173,2.875.55-1.323,5.626-1.8,5.706a12.483,12.483,0,0,1-2.312-.278,5.482,5.482,0,0,1-5.471-.711C93.954,212.7,97.6,211.537,97.6,211.537Z" transform="translate(-84.863 -154.11)" fill="#b97964"/>
        <path id="Path_4165" data-name="Path 4165" d="M88.09,183.25s-9.614,12.161-9.842,16.2,12.21,6.071,12.21,6.071l1.051-2.621s-7.709-3.709-7.981-4.451,7.913-9.453,7.913-9.453Z" transform="translate(-78.245 -144.091)" fill="#b97964"/>
        <path id="Path_4166" data-name="Path 4166" d="M95.376,171.19S90.2,174.281,85.07,184.668l7.289,6.98,4.049-3.382S98.974,173.187,95.376,171.19Z" transform="translate(-80.851 -139.487)" fill="#5dc0ec"/>
        <path id="Path_4167" data-name="Path 4167" d="M96.476,187.861h0l-.068.4L94.3,190.056l-1.91,1.6-7.32-6.974a50.076,50.076,0,0,1,4.618-7.672,32.15,32.15,0,0,1,3.054-3.58,15.246,15.246,0,0,1,2.634-2.226C98.628,172.993,96.854,185.444,96.476,187.861Z" transform="translate(-80.851 -139.491)" fill="#fff" opacity="0.3" style="mix-blend-mode: normal;isolation: isolate"/>
        <path id="Path_4168" data-name="Path 4168" d="M95.189,177.567s.964,1.379-.056,1.682-1.088-1.23-1.088-1.23-.958,1.286-1.447.618a.562.562,0,0,1-.1-.247,32.153,32.153,0,0,1,3.054-3.58c.315.618-.2,1.484-.241,1.558.074,0,1.119-.383,1.187.39S95.189,177.567,95.189,177.567Z" transform="translate(-83.687 -140.869)" fill="#fff" opacity="0.4"/>
        <path id="Path_4169" data-name="Path 4169" d="M95.868,177.894a.587.587,0,0,1-.525.618.581.581,0,0,1-.439-.674.587.587,0,0,1,.526-.618A.575.575,0,0,1,95.868,177.894Z" transform="translate(-84.601 -141.789)" opacity="0.2"/>
        <path id="Path_4170" data-name="Path 4170" d="M101.713,197.978h0l-.068.4-2.108,1.793c-.309-.185-1.051-.73-.618-1.465.507-.915,1.558.569,1.558.569s.2-2.015,1.063-1.49a.9.9,0,0,1,.173.192Z" transform="translate(-86.087 -149.607)" fill="#fff" opacity="0.4"/>
        <path id="Path_4171" data-name="Path 4171" d="M89.247,189.707s-1.28-.618-.773-1.533,1.552.569,1.552.569.2-2.022,1.07-1.5.062,1.855.062,1.855,1.119-.42,1.187.377-1.335.828-1.335.828.964,1.379-.056,1.682-1.063-1.236-1.063-1.236-.964,1.286-1.447.618S89.247,189.707,89.247,189.707Z" transform="translate(-82.097 -145.583)" fill="#fff" opacity="0.4"/>
        <path id="Path_4172" data-name="Path 4172" d="M91.671,190.9a.587.587,0,0,1-.526.618.575.575,0,0,1-.433-.674.587.587,0,0,1,.525-.618A.569.569,0,0,1,91.671,190.9Z" transform="translate(-83 -146.756)" opacity="0.2"/>
        <path id="Path_4173" data-name="Path 4173" d="M84.687,191.85l7.827,7.716-.977.9L84.18,193.2Z" transform="translate(-80.511 -147.374)" fill="#5dc0ec"/>
        <path id="Path_4174" data-name="Path 4174" d="M131,181.952a2,2,0,1,1-2.269-1.675A2,2,0,0,1,131,181.952Z" transform="translate(-96.868 -142.947)" fill="#263238"/>
        <path id="Path_4175" data-name="Path 4175" d="M129.838,174.281a1.991,1.991,0,1,1-.787-1.309A2,2,0,0,1,129.838,174.281Z" transform="translate(-96.425 -140.019)" fill="#263238"/>
        <path id="Path_4176" data-name="Path 4176" d="M129.439,181.813a.309.309,0,0,1-.3-.26l-.68-4.352a1.644,1.644,0,0,1-.223-1.465l-.655-4.328a.313.313,0,1,1,.618-.093l.668,4.439a.3.3,0,0,1-.037.2,1.022,1.022,0,0,0,.192.983.3.3,0,0,1,.043.124l.668,4.4a.315.315,0,0,1-.26.352Z" transform="translate(-97.077 -139.433)" fill="#263238"/>
        <path id="Path_4177" data-name="Path 4177" d="M199.09,132.141l3.233-5.051,4.124,5.051Z" transform="translate(-124.38 -122.651)" fill="#5dc0ec"/>
        <path id="Path_4178" data-name="Path 4178" d="M199.09,132.141l3.233-5.051,4.124,5.051Z" transform="translate(-124.38 -122.651)" fill="#fff" opacity="0.7"/>
        <path id="Path_4179" data-name="Path 4179" d="M204.034,128.25l-.334,5.045h.822Z" transform="translate(-126.139 -123.094)" opacity="0.2" style="mix-blend-mode: normal;isolation: isolate"/>
        <path id="Path_4180" data-name="Path 4180" d="M191.42,133.585l2.924,3.771h10.875l2.961-4.946A99.869,99.869,0,0,1,191.42,133.585Z" transform="translate(-121.451 -124.682)" fill="#5dc0ec"/>
        <path id="Path_4181" data-name="Path 4181" d="M191.42,133.585l2.924,3.771h10.875l2.961-4.946A99.869,99.869,0,0,1,191.42,133.585Z" transform="translate(-121.451 -124.682)" fill="#fff" opacity="0.8"/>
      </g>
    </g>
  </g>
</svg>
