<svg xmlns="http://www.w3.org/2000/svg" width="309.12" height="230.332" viewBox="0 0 309.12 230.332">
  <g id="Customer_Survey-rafiki-2" data-name="Customer Survey-rafiki-2" transform="translate(0 -55)">
    <g id="freepik--background-complete--inject-122" transform="translate(0 55)">
      <rect id="Rectangle_2346" data-name="Rectangle 2346" width="309.12" height="0.161" transform="translate(0 201.222)" fill="#ebebeb"/>
      <rect id="Rectangle_2347" data-name="Rectangle 2347" width="21.349" height="0.161" transform="translate(255.478 211.594)" fill="#ebebeb"/>
      <rect id="Rectangle_2348" data-name="Rectangle 2348" width="5.601" height="0.161" transform="translate(199.251 213.347)" fill="#ebebeb"/>
      <rect id="Rectangle_2349" data-name="Rectangle 2349" width="12.37" height="0.161" transform="translate(244.771 205.612)" fill="#ebebeb"/>
      <rect id="Rectangle_2350" data-name="Rectangle 2350" width="27.839" height="0.161" transform="translate(33.815 206.695)" fill="#ebebeb"/>
      <rect id="Rectangle_2351" data-name="Rectangle 2351" width="4.08" height="0.161" transform="translate(64.608 206.695)" fill="#ebebeb"/>
      <rect id="Rectangle_2352" data-name="Rectangle 2352" width="60.384" height="0.161" transform="translate(80.482 209.415)" fill="#ebebeb"/>
      <path id="Path_4182" data-name="Path 4182" d="M166.346,237.288H41.884a3.681,3.681,0,0,1-3.674-3.681V58.648A3.681,3.681,0,0,1,41.884,55H166.346a3.681,3.681,0,0,1,3.681,3.681V233.607A3.681,3.681,0,0,1,166.346,237.288ZM41.884,55.129a3.519,3.519,0,0,0-3.513,3.519V233.607a3.519,3.519,0,0,0,3.513,3.519H166.346a3.526,3.526,0,0,0,3.519-3.519V58.648a3.526,3.526,0,0,0-3.519-3.519Z" transform="translate(-13.581 -55)" fill="#ebebeb"/>
      <path id="Path_4183" data-name="Path 4183" d="M382.649,237.288H258.181a3.687,3.687,0,0,1-3.681-3.681V58.648A3.687,3.687,0,0,1,258.181,55H382.649a3.681,3.681,0,0,1,3.668,3.648V233.607A3.681,3.681,0,0,1,382.649,237.288ZM258.181,55.129a3.526,3.526,0,0,0-3.519,3.519V233.607a3.526,3.526,0,0,0,3.519,3.519H382.649a3.526,3.526,0,0,0,3.519-3.519V58.648a3.526,3.526,0,0,0-3.519-3.519Z" transform="translate(-103.625 -55)" fill="#ebebeb"/>
      <rect id="Rectangle_2353" data-name="Rectangle 2353" width="22.625" height="84.266" transform="translate(187.645 201.222) rotate(180)" fill="#e6e6e6"/>
      <path id="Path_4184" data-name="Path 4184" d="M271.544,378.217H267.78V370.63H275.5Z" transform="translate(-102.401 -176.995)" fill="#f0f0f0"/>
      <rect id="Rectangle_2354" data-name="Rectangle 2354" width="22.625" height="84.266" transform="translate(274.145 201.222) rotate(180)" fill="#e6e6e6"/>
      <rect id="Rectangle_2355" data-name="Rectangle 2355" width="95.372" height="81.353" transform="translate(257.96 198.309) rotate(180)" fill="#f0f0f0"/>
      <rect id="Rectangle_2356" data-name="Rectangle 2356" width="89.526" height="22.309" transform="translate(255.126 146.317) rotate(180)" fill="#e6e6e6"/>
      <path id="Path_4185" data-name="Path 4185" d="M329.844,263.8H338.3c3.674,0,7.187-2.752,9.714-7.612H320.13C322.657,261.063,326.17,263.8,329.844,263.8Z" transform="translate(-123.012 -132.407)" fill="#f0f0f0"/>
      <path id="Path_4186" data-name="Path 4186" d="M407.721,378.217h3.764V370.63H403.77Z" transform="translate(-156.678 -176.995)" fill="#f0f0f0"/>
      <rect id="Rectangle_2357" data-name="Rectangle 2357" width="89.526" height="22.309" transform="translate(255.126 170.97) rotate(180)" fill="#e6e6e6"/>
      <path id="Path_4187" data-name="Path 4187" d="M329.844,304.023H338.3c3.674,0,7.187-2.752,9.714-7.612H320.13C322.657,301.3,326.17,304.023,329.844,304.023Z" transform="translate(-123.012 -147.881)" fill="#f0f0f0"/>
      <rect id="Rectangle_2358" data-name="Rectangle 2358" width="89.526" height="22.309" transform="translate(255.126 194.706) rotate(180)" fill="#e6e6e6"/>
      <path id="Path_4188" data-name="Path 4188" d="M329.844,344.233H338.3c3.674,0,7.187-2.752,9.714-7.613H320.13C322.657,341.48,326.17,344.233,329.844,344.233Z" transform="translate(-123.012 -164.907)" fill="#f0f0f0"/>
      <rect id="Rectangle_2359" data-name="Rectangle 2359" width="86.4" height="87.425" transform="translate(133.864 107.658) rotate(180)" fill="#e6e6e6"/>
      <rect id="Rectangle_2360" data-name="Rectangle 2360" width="90.809" height="87.425" transform="translate(135.078 107.658) rotate(180)" fill="#f0f0f0"/>
      <rect id="Rectangle_2361" data-name="Rectangle 2361" width="72.212" height="75.59" transform="translate(124.709 27.839) rotate(90)" fill="#fff"/>
      <path id="Path_4189" data-name="Path 4189" d="M127.785,112.883l-13.871,13.9a17.926,17.926,0,0,0,0,25.319l13.871,13.878a.728.728,0,0,0,1.031,0L142.694,152.1a17.926,17.926,0,0,0,0-25.319l-13.871-13.9a.741.741,0,0,0-1.038,0Zm-12.84,38.159a16.463,16.463,0,0,1,0-23.25Zm26.718,0V127.818a16.463,16.463,0,0,1,0,23.25Z" transform="translate(-41.886 -77.646)" fill="#f0f0f0"/>
      <path id="Path_4190" data-name="Path 4190" d="M378.715,205H330.442l-2.752,28.5h48.273Z" transform="translate(-126.723 -113.183)" fill="#e6e6e6"/>
      <path id="Path_4191" data-name="Path 4191" d="M375.853,249.22l-.193,1.579H327.38l.2-1.579Z" transform="translate(-126.507 -129.57)" fill="#e6e6e6"/>
      <path id="Path_4192" data-name="Path 4192" d="M376.411,205H328.139l-2.759,28.5h48.273Z" transform="translate(-125.829 -113.183)" fill="#f0f0f0"/>
      <path id="Path_4193" data-name="Path 4193" d="M373.61,232.358l2.018-24.713a.606.606,0,0,0-.6-.645H330.649a.606.606,0,0,0-.606.554L328,232.261a.606.606,0,0,0,.606.645h44.379A.6.6,0,0,0,373.61,232.358Z" transform="translate(-126.715 -113.894)" fill="#fff"/>
      <path id="Path_4194" data-name="Path 4194" d="M351.342,249.22l-.193,1.579H297.99l.193-1.579Z" transform="translate(-115.318 -129.57)" fill="#f0f0f0"/>
      <rect id="Rectangle_2362" data-name="Rectangle 2362" width="90.647" height="60.262" transform="translate(260.923 81.449) rotate(180)" fill="#e6e6e6"/>
      <rect id="Rectangle_2363" data-name="Rectangle 2363" width="90.647" height="60.262" transform="translate(259.026 81.449) rotate(180)" fill="#f5f5f5"/>
      <rect id="Rectangle_2364" data-name="Rectangle 2364" width="52.134" height="83.415" transform="translate(255.518 25.255) rotate(90)" fill="#fff"/>
      <rect id="Rectangle_2365" data-name="Rectangle 2365" width="52.134" height="1.521" transform="translate(176.182 25.248) rotate(90)" fill="#e6e6e6"/>
      <rect id="Rectangle_2366" data-name="Rectangle 2366" width="87.657" height="5.453" transform="translate(257.576 67.543) rotate(180)" fill="#f5f5f5"/>
      <path id="Path_4195" data-name="Path 4195" d="M270.541,77.45H371.1a.561.561,0,0,1,.554.554h0a.554.554,0,0,1-.554.554H270.541A.554.554,0,0,1,269.98,78h0a.561.561,0,0,1,.561-.554Z" transform="translate(-109.127 -62.979)" fill="#e6e6e6"/>
      <path id="Path_4196" data-name="Path 4196" d="M267.83,77.542a1.392,1.392,0,1,0,.41-.987A1.392,1.392,0,0,0,267.83,77.542Z" transform="translate(-102.308 -62.517)" fill="#e6e6e6"/>
      <path id="Path_4197" data-name="Path 4197" d="M419.138,81.437h0a.754.754,0,0,0,.754-.741V79.084a.754.754,0,0,0-.754-.754h0a.748.748,0,0,0-.748.754V80.7a.754.754,0,0,0,.748.741Z" transform="translate(-161.874 -63.292)" fill="#e6e6e6"/>
      <path id="Path_4198" data-name="Path 4198" d="M283.444,81.437h0a.761.761,0,0,0,.728-.741V79.084a.754.754,0,0,0-.754-.754h0a.748.748,0,0,0-.748.754V80.7a.754.754,0,0,0,.774.741Z" transform="translate(-107.947 -63.292)" fill="#e6e6e6"/>
      <rect id="Rectangle_2367" data-name="Rectangle 2367" width="92.916" height="58.547" transform="translate(257.647 73.572) rotate(180)" fill="#e0e0e0" opacity="0.4"/>
      <path id="Path_4199" data-name="Path 4199" d="M403.51,77.542A1.392,1.392,0,1,0,404.9,76.15,1.392,1.392,0,0,0,403.51,77.542Z" transform="translate(-156.586 -62.517)" fill="#e6e6e6"/>
      <rect id="Rectangle_2368" data-name="Rectangle 2368" width="7.451" height="64.632" transform="translate(130.666 197.045) rotate(180)" fill="#f0f0f0"/>
      <rect id="Rectangle_2369" data-name="Rectangle 2369" width="85.42" height="4.093" transform="translate(133.183 201.138) rotate(180)" fill="#f0f0f0"/>
      <rect id="Rectangle_2370" data-name="Rectangle 2370" width="83.692" height="64.632" transform="translate(44.902 132.413)" fill="#f5f5f5"/>
      <rect id="Rectangle_2371" data-name="Rectangle 2371" width="71.974" height="21.194" rx="7.12" transform="translate(48.09 142.889)" fill="#f0f0f0"/>
      <rect id="Rectangle_2372" data-name="Rectangle 2372" width="71.974" height="21.194" rx="7.12" transform="translate(48.09 167.891)" fill="#f0f0f0"/>
      <path id="Path_4200" data-name="Path 4200" d="M109.587,305.087h31.185a1.457,1.457,0,0,0,1.457-1.45h0a1.463,1.463,0,0,0-1.457-1.457H109.587a1.463,1.463,0,0,0-1.457,1.457h0a1.457,1.457,0,0,0,1.457,1.45Z" transform="translate(-41.617 -149.946)" fill="#f5f5f5"/>
      <path id="Path_4201" data-name="Path 4201" d="M109.587,347.787h31.185a1.457,1.457,0,0,0,1.457-1.45h0a1.463,1.463,0,0,0-1.457-1.457H109.587a1.463,1.463,0,0,0-1.457,1.457h0a1.457,1.457,0,0,0,1.457,1.45Z" transform="translate(-41.617 -167.842)" fill="#f5f5f5"/>
    </g>
    <g id="freepik--Shadow--inject-122" transform="translate(36.167 270.738)">
      <ellipse id="freepik--path--inject-122" cx="118.393" cy="7.297" rx="118.393" ry="7.297" fill="#f5f5f5"/>
    </g>
    <g id="freepik--Survey--inject-122" transform="translate(64.86 77.29)">
      <path id="Path_4202" data-name="Path 4202" d="M227.169,101.45H108.05l9.256,162.222H236.418Z" transform="translate(-108.05 -93.799)" fill="#263238"/>
      <path id="Path_4203" data-name="Path 4203" d="M230.759,101.45H111.64L120.9,263.672H240.015Z" transform="translate(-109.326 -93.799)" fill="#1f3486"/>
      <path id="Path_4204" data-name="Path 4204" d="M225.556,109.91H120.09l7.561,146.842H235.857Z" transform="translate(-112.329 -96.806)" opacity="0.5"/>
      <path id="Path_4205" data-name="Path 4205" d="M120.09,109.91c7.838,48.949,2.462,97.9,10.313,146.842H238.6c-7.838-48.943-2.462-97.893-10.313-146.842Z" transform="translate(-112.329 -96.806)" fill="#fff"/>
      <g id="Group_3918" data-name="Group 3918" transform="translate(19.538 55.279)">
        <path id="Path_4206" data-name="Path 4206" d="M148.706,177.164a9.327,9.327,0,0,1,9.243,8.915A8.47,8.47,0,0,1,149.4,194.9a9.243,9.243,0,0,1-9.16-8.876,8.528,8.528,0,0,1,2.34-6.246,8.412,8.412,0,0,1,6.124-2.578m-.064-1.863a10.217,10.217,0,0,0-10.268,10.719,11.158,11.158,0,0,0,11.055,10.719,10.313,10.313,0,0,0,10.391-10.719A11.261,11.261,0,0,0,148.641,175.34Z" transform="translate(-138.361 -175.34)" fill="#1f3486" opacity="0.158"/>
      </g>
      <path id="Path_4207" data-name="Path 4207" d="M227.374,302.92H193.212a1.8,1.8,0,0,0-1.818,2h0a2.262,2.262,0,0,0,2.2,2h34.163a1.786,1.786,0,0,0,1.8-2h0A2.25,2.25,0,0,0,227.374,302.92Z" transform="translate(-137.668 -165.405)" fill="#e0e0e0"/>
      <path id="Path_4208" data-name="Path 4208" d="M245.252,289.87H192.125a1.824,1.824,0,0,0-1.85,2h0a2.192,2.192,0,0,0,2.153,2h53.1a1.824,1.824,0,0,0,1.869-1.985h0a2.185,2.185,0,0,0-2.146-2.018Z" transform="translate(-137.271 -160.767)" fill="#e0e0e0"/>
      <g id="Group_3919" data-name="Group 3919" transform="translate(20.537 89.932)">
        <path id="Path_4209" data-name="Path 4209" d="M150.346,230.969a9.192,9.192,0,0,1,9.121,8.876,8.547,8.547,0,0,1-2.379,6.246,8.444,8.444,0,0,1-6.149,2.578,9.25,9.25,0,0,1-9.179-8.876,8.534,8.534,0,0,1,8.586-8.824m0-1.869h0a10.371,10.371,0,0,0-10.429,10.719,11.171,11.171,0,0,0,11.1,10.726,10.313,10.313,0,0,0,10.346-10.726A11.093,11.093,0,0,0,150.346,229.1Z" transform="translate(-139.911 -229.1)" fill="#1f3486" opacity="0.158"/>
      </g>
      <path id="Path_4210" data-name="Path 4210" d="M206.579,186.283H188.3a2.1,2.1,0,0,1-2.076-2h0a1.934,1.934,0,0,1,1.934-2h18.267a2.108,2.108,0,0,1,2.088,2h0a1.934,1.934,0,0,1-1.94,2Z" transform="translate(-135.836 -122.527)" fill="#e0e0e0"/>
      <path id="Path_4211" data-name="Path 4211" d="M242.547,186.283H230.171a2.1,2.1,0,0,1-2.082-2h0a1.934,1.934,0,0,1,1.934-2h12.382a2.1,2.1,0,0,1,2.082,2h0a1.934,1.934,0,0,1-1.94,2Z" transform="translate(-150.714 -122.527)" fill="#e0e0e0"/>
      <path id="Path_4212" data-name="Path 4212" d="M237.811,199.333H188.759a2.082,2.082,0,0,1-2.069-2h0a1.934,1.934,0,0,1,1.934-2h49.046a2.076,2.076,0,0,1,2.063,2h0a1.934,1.934,0,0,1-1.921,2Z" transform="translate(-136 -127.166)" fill="#e0e0e0"/>
      <g id="Group_3920" data-name="Group 3920" transform="translate(22.291 124.589)">
        <path id="Path_4213" data-name="Path 4213" d="M152.712,284.732a9.772,9.772,0,0,1,9.54,8.882,8.154,8.154,0,0,1-2,6.24,7.87,7.87,0,0,1-5.969,2.578,9.952,9.952,0,0,1-9.733-8.876,8.044,8.044,0,0,1,2.1-6.246,8.16,8.16,0,0,1,6.066-2.578m-.09-1.863a9.8,9.8,0,0,0-9.946,10.719,12.044,12.044,0,0,0,11.783,10.719,9.6,9.6,0,0,0,9.669-10.719,11.757,11.757,0,0,0-11.5-10.719Z" transform="translate(-142.632 -282.867)" fill="#1f3486" opacity="0.158"/>
      </g>
      <path id="Path_4214" data-name="Path 4214" d="M246.724,249.13h-56.6a1.934,1.934,0,0,0-1.934,2h0a2.088,2.088,0,0,0,2.069,2h56.626a1.934,1.934,0,0,0,1.934-2h0a2.076,2.076,0,0,0-2.095-2Z" transform="translate(-136.533 -146.287)" fill="#e0e0e0"/>
      <path id="Path_4215" data-name="Path 4215" d="M233.175,236.07H189.743a1.934,1.934,0,0,0-1.934,2h0a2.069,2.069,0,0,0,2.056,2H233.3a1.934,1.934,0,0,0,1.934-2h0a2.063,2.063,0,0,0-2.063-2Z" transform="translate(-136.398 -141.645)" fill="#e0e0e0"/>
      <path id="Path_4216" data-name="Path 4216" d="M152.006,193.513l-.761-1.25c-1.669-2.727-5.157-5.157-6.356-5.872l.9-1.6a24.649,24.649,0,0,1,6.24,5.389A60.129,60.129,0,0,1,164.2,178.63l1.167,1.508c-5.8,4.364-9.914,8.38-12.55,12.2C152.548,192.733,152.277,193.127,152.006,193.513Z" transform="translate(-121.144 -121.23)" fill="#1f3486"/>
      <path id="Path_4217" data-name="Path 4217" d="M153.51,247.31c-.251-.419-.509-.838-.767-1.25-1.676-2.727-5.157-5.157-6.343-5.879l.915-1.6a24.713,24.713,0,0,1,6.207,5.389c2.746-3.674,6.781-7.464,12.286-11.551l1.141,1.508c-5.879,4.364-10.017,8.38-12.64,12.2Z" transform="translate(-121.68 -140.348)" fill="#1f3486"/>
      <path id="Path_4218" data-name="Path 4218" d="M156.7,301.233l-.851-1.25a23.612,23.612,0,0,0-6.691-5.872l.838-1.6a27.1,27.1,0,0,1,6.5,5.382c2.527-3.674,6.368-7.464,11.706-11.544l1.205,1.508c-5.7,4.364-9.611,8.38-11.989,12.2Z" transform="translate(-122.661 -159.516)" fill="#1f3486"/>
      <path id="Path_4219" data-name="Path 4219" d="M222.177,129q-1.7,3.713-3.487,7.419a15.953,15.953,0,0,1,8.792,12.943h8.566C235.481,140.6,229.848,132.977,222.177,129Z" transform="translate(-147.374 -103.591)" fill="#ffc917"/>
      <path id="Path_4220" data-name="Path 4220" d="M173.441,149.631h8.566a13.646,13.646,0,0,1,5.956-12.486q-2.5-3.713-5.079-7.426C176.631,133.768,172.893,141.187,173.441,149.631Z" transform="translate(-131.272 -103.847)" fill="#ffc917" opacity="0.822"/>
      <path id="Path_4221" data-name="Path 4221" d="M199.722,124.539a21.1,21.1,0,0,0-11.6,3.339q2.578,3.713,5.079,7.426a13.536,13.536,0,0,1,7.516-2.2,15.631,15.631,0,0,1,7.09,1.747q1.779-3.713,3.487-7.419A25.268,25.268,0,0,0,199.722,124.539Z" transform="translate(-136.508 -102.005)" fill="#5dc0ec"/>
      <path id="Path_4222" data-name="Path 4222" d="M199.722,124.539a21.1,21.1,0,0,0-11.6,3.339q2.578,3.713,5.079,7.426a13.536,13.536,0,0,1,7.516-2.2,15.631,15.631,0,0,1,7.09,1.747q1.779-3.713,3.487-7.419A25.268,25.268,0,0,0,199.722,124.539Z" transform="translate(-136.508 -102.005)" fill="#deaf14"/>
      <path id="Path_4223" data-name="Path 4223" d="M216.636,151.51s-8.65,3.539-9.566,4.183a2.056,2.056,0,0,0-.367,2.92,2.159,2.159,0,0,0,2.952.561C210.6,158.491,216.649,151.51,216.636,151.51Zm-9.089,6.446a1.012,1.012,0,0,1,.18-1.437,1.076,1.076,0,0,1,1.457.277,1.012,1.012,0,0,1-.18,1.437,1.076,1.076,0,0,1-1.457-.251Z" transform="translate(-142.954 -111.591)" fill="#1f3486"/>
      <path id="Path_4224" data-name="Path 4224" d="M234.905,143.486a2.746,2.746,0,0,1-2.785,3.042,3.384,3.384,0,0,1-3.3-3.042,2.727,2.727,0,0,1,2.759-3.036,3.4,3.4,0,0,1,3.326,3.036Z" transform="translate(-150.968 -107.66)" fill="#fff"/>
      <path id="Path_4225" data-name="Path 4225" d="M231.885,143.813a.438.438,0,0,1-.438.483.535.535,0,0,1-.529-.483.432.432,0,0,1,.438-.483.535.535,0,0,1,.529.483Z" transform="translate(-151.719 -108.684)" fill="#263238"/>
      <path id="Path_4226" data-name="Path 4226" d="M235.462,143.813a.438.438,0,0,1-.445.483.548.548,0,0,1-.529-.483.432.432,0,0,1,.445-.483A.535.535,0,0,1,235.462,143.813Z" transform="translate(-152.987 -108.684)" fill="#263238"/>
      <path id="Path_4227" data-name="Path 4227" d="M232.783,147.4h0a2.578,2.578,0,0,1-1.721-.677.239.239,0,0,1,0-.335.232.232,0,0,1,.335,0,2.1,2.1,0,0,0,1.4.554h0a1.715,1.715,0,0,0,1.289-.541.239.239,0,1,1,.348.329A2.179,2.179,0,0,1,232.783,147.4Z" transform="translate(-151.746 -109.746)" fill="#263238"/>
      <path id="Path_4228" data-name="Path 4228" d="M208.249,129.426a2.675,2.675,0,0,1-2.707,3.042,3.487,3.487,0,0,1-3.378-3.042,2.643,2.643,0,0,1,2.681-3.036,3.519,3.519,0,0,1,3.4,3.036Z" transform="translate(-141.489 -102.662)" fill="#fff"/>
      <path id="Path_4229" data-name="Path 4229" d="M205.2,129.733a.425.425,0,0,1-.425.483.561.561,0,0,1-.541-.483.419.419,0,0,1,.425-.483A.554.554,0,0,1,205.2,129.733Z" transform="translate(-142.235 -103.679)" fill="#263238"/>
      <path id="Path_4230" data-name="Path 4230" d="M208.771,129.733a.425.425,0,0,1-.432.483.567.567,0,0,1-.541-.483.425.425,0,0,1,.432-.483A.561.561,0,0,1,208.771,129.733Z" transform="translate(-143.501 -103.679)" fill="#263238"/>
      <path id="Path_4231" data-name="Path 4231" d="M207.633,132.733h-3.017a.245.245,0,0,1,0-.483h3.017a.245.245,0,0,1,0,.483Z" transform="translate(-142.299 -104.746)" fill="#263238"/>
      <path id="Path_4232" data-name="Path 4232" d="M184.505,143.486a2.746,2.746,0,0,1-2.785,3.042,3.384,3.384,0,0,1-3.3-3.042,2.727,2.727,0,0,1,2.759-3.036A3.41,3.41,0,0,1,184.505,143.486Z" transform="translate(-133.055 -107.66)" fill="#fff"/>
      <path id="Path_4233" data-name="Path 4233" d="M181.465,143.813a.438.438,0,0,1-.438.483.535.535,0,0,1-.529-.483.432.432,0,0,1,.438-.483A.535.535,0,0,1,181.465,143.813Z" transform="translate(-133.798 -108.684)" fill="#263238"/>
      <path id="Path_4234" data-name="Path 4234" d="M185.045,143.813a.432.432,0,0,1-.438.483.548.548,0,0,1-.529-.483.432.432,0,0,1,.438-.483.529.529,0,0,1,.529.483Z" transform="translate(-135.071 -108.684)" fill="#263238"/>
      <path id="Path_4235" data-name="Path 4235" d="M180.873,147.4a.226.226,0,0,1-.161-.064.238.238,0,0,1,0-.335,2.211,2.211,0,0,1,1.631-.7,2.578,2.578,0,0,1,1.721.683.232.232,0,0,1,0,.335.251.251,0,0,1-.342,0,2.063,2.063,0,0,0-1.405-.554,1.727,1.727,0,0,0-1.289.535A.251.251,0,0,1,180.873,147.4Z" transform="translate(-133.851 -109.739)" fill="#263238"/>
      <path id="Path_4236" data-name="Path 4236" d="M219.607,103.1a13.017,13.017,0,0,0-11.764-7.039H197.53a4.022,4.022,0,0,1-3.577-1.869c-1.437-2.694-4.867-4.615-8.76-4.615s-7.09,1.934-8.225,4.615a3.529,3.529,0,0,1-3.365,1.869H163.29c-5.06,0-9.437,2.8-10.958,7.039a1.044,1.044,0,0,0-.064.464,1.289,1.289,0,0,0,1.289,1.225h65.025a1.154,1.154,0,0,0,1.025-1.689Zm-34-5.872a3.081,3.081,0,0,1-3.01-2.868,2.681,2.681,0,0,1,2.707-2.868,3.075,3.075,0,0,1,3.036,2.868,2.681,2.681,0,0,1-2.733,2.868Z" transform="translate(-123.764 -89.58)" fill="#5dc0ec"/>
    </g>
    <g id="freepik--Character--inject-122" transform="translate(169.877 82.495)">
      <path id="Path_4237" data-name="Path 4237" d="M359.577,408.481a2.062,2.062,0,0,1-1.431-.354.445.445,0,0,1-.045-.49.477.477,0,0,1,.329-.264c.761-.213,2.52.728,2.578.773a.11.11,0,0,1,.064.116.1.1,0,0,1-.077.09A8.332,8.332,0,0,1,359.577,408.481Zm-.851-.915a.714.714,0,0,0-.213,0,.29.29,0,0,0-.206.155.31.31,0,0,0,0,.251c.258.3,1.457.309,2.32.187A5.577,5.577,0,0,0,358.726,407.566Z" transform="translate(-306.379 -217.537)" fill="#5dc0ec"/>
      <path id="Path_4238" data-name="Path 4238" d="M361.589,407.732h-.045c-.6-.258-1.85-1.289-1.824-1.818,0-.129.077-.284.387-.316a.916.916,0,0,1,.645.193,3.642,3.642,0,0,1,.941,1.824.116.116,0,0,1,0,.1.11.11,0,0,1-.1.013Zm-1.373-1.934h-.064c-.2,0-.206.1-.206.122,0,.322.844,1.128,1.47,1.476a3,3,0,0,0-.793-1.457.644.644,0,0,0-.406-.129Z" transform="translate(-306.974 -216.916)" fill="#5dc0ec"/>
      <path id="Path_4239" data-name="Path 4239" d="M367.133,402.691H362.4l-1.7-10.971h4.738Z" transform="translate(-307.322 -211.985)" fill="#ffc3bd"/>
      <path id="Path_4240" data-name="Path 4240" d="M358.622,407.89h5.157a.477.477,0,0,1,.438.322l1.405,4.209a.645.645,0,0,1-.587.838c-1.869,0-4.577-.135-6.923-.135-2.739,0-2.495.148-5.711.148-1.934,0-2.7-1.966-1.934-2.146,3.616-.806,4.035-.9,7.013-2.868a1.991,1.991,0,0,1,1.141-.367Z" transform="translate(-303.581 -217.732)" fill="#263238"/>
      <path id="Path_4241" data-name="Path 4241" d="M360.7,391.73l.877,5.653h4.738l-.877-5.653Z" transform="translate(-307.322 -211.989)" opacity="0.2"/>
      <path id="Path_4242" data-name="Path 4242" d="M368.063,225.45l-3.223,3.255,4.937,1.747s1.934-2.656.574-4.473Z" transform="translate(-308.794 -152.89)" fill="#ffc3bd"/>
      <path id="Path_4243" data-name="Path 4243" d="M363.16,235.051l4.931.722,1.1-3.526-4.937-1.747Z" transform="translate(-308.197 -154.684)" fill="#ffc3bd"/>
      <path id="Path_4244" data-name="Path 4244" d="M368.716,163.27c.419.9.754,1.669,1.089,2.507s.645,1.644.967,2.469c.612,1.657,1.16,3.345,1.669,5.054a53.367,53.367,0,0,1,1.289,5.253l.245,1.354.2,1.379c.071.458.116.935.155,1.405s.1.9.1,1.489v1.579l-.039.728-.071.69c-.084.928-.206,1.8-.322,2.681-.258,1.74-.554,3.442-.883,5.157-.683,3.371-1.431,6.665-2.333,9.985l-5.872-1.16c.374-3.274.761-6.6,1.07-9.875.148-1.637.309-3.268.4-4.867.039-.786.084-1.586.084-2.34v-1.611l-.045-.425a9.662,9.662,0,0,0-.142-1.012c-.058-.361-.11-.722-.193-1.089l-.239-1.1-.277-1.109c-.4-1.483-.851-2.972-1.367-4.46s-1.089-2.972-1.7-4.441c-.3-.741-.606-1.476-.928-2.2s-.645-1.476-.96-2.1Z" transform="translate(-307.294 -130.79)" fill="#1f3486"/>
      <path id="Path_4245" data-name="Path 4245" d="M338.65,221.87s.786,36.251,2.913,50.69c2.217,15.019,10.313,63.356,10.313,63.356H359.9s-2.875-46-3.79-60.784c-1-16.115-.78-53.262-.78-53.262Z" transform="translate(-299.485 -151.617)" fill="#5dc0ec"/>
      <path id="Path_4246" data-name="Path 4246" d="M356.179,393.84c-.039,0,.825,3.332.825,3.332h9.759l-.071-2.971Z" transform="translate(-305.715 -212.739)" fill="#263238"/>
      <ellipse id="Ellipse_38" data-name="Ellipse 38" cx="0.728" cy="0.477" rx="0.728" ry="0.477" transform="matrix(0.061, -0.998, 0.998, 0.061, 36.361, 12.155)" fill="#263238"/>
      <path id="Path_4247" data-name="Path 4247" d="M334.417,131.78a14.956,14.956,0,0,1-2.037,3.429,2.269,2.269,0,0,0,1.9.361Z" transform="translate(-297.257 -119.597)" fill="#ed847e"/>
      <path id="Path_4248" data-name="Path 4248" d="M337.014,126.7a.277.277,0,0,1-.142-.039,1.818,1.818,0,0,0-1.657-.309.232.232,0,0,1-.3-.135.239.239,0,0,1,.148-.3,2.288,2.288,0,0,1,2.1.361.238.238,0,0,1,.045.329A.245.245,0,0,1,337.014,126.7Z" transform="translate(-298.152 -117.474)" fill="#263238"/>
      <path id="Path_4249" data-name="Path 4249" d="M349.149,137.52c-.8,3.468-1.7,9.817.645,12.125,0,0-1.07,3.513-7.509,3.513-7.09,0-3.255-3.513-3.255-3.513,3.867-.922,3.9-3.784,3.32-6.478Z" transform="translate(-299.252 -121.638)" fill="#ffc3bd"/>
      <path id="Path_4250" data-name="Path 4250" d="M351.368,156.531c.7-1.412,1.463-3.036,0-3.539-1.6-.561-10.436-1.128-13.536-.084a3.223,3.223,0,0,0-2.327,3.919Z" transform="translate(-298.332 -126.9)" fill="#5dc0ec"/>
      <path id="Path_4251" data-name="Path 4251" d="M367.415,158.127c4.08,1.882,6.156,16.153,6.156,16.153l-8.218,2.578a83.468,83.468,0,0,1-3.565-11.6C360.525,159.3,363.238,156.206,367.415,158.127Z" transform="translate(-307.598 -128.76)" fill="#1f3486"/>
      <path id="Path_4252" data-name="Path 4252" d="M288.36,191.092l-3.79-3.262-3.41,4.963s3.062,2.456,6.446,1.45Z" transform="translate(-279.052 -139.519)" fill="#ffc3bd"/>
      <path id="Path_4253" data-name="Path 4253" d="M278.412,185.38l-.522,4.905L280,191.923l3.41-4.963Z" transform="translate(-277.89 -138.648)" fill="#ffc3bd"/>
      <path id="Path_4254" data-name="Path 4254" d="M348.784,125.337c-.477,4.925-.509,7.825-3.088,10.352a6.446,6.446,0,0,1-10.868-3.371c-.9-4.422,0-11.731,4.918-13.691a6.5,6.5,0,0,1,9.037,6.71Z" transform="translate(-298.017 -114.734)" fill="#ffc3bd"/>
      <path id="Path_4255" data-name="Path 4255" d="M339.177,125.063c-.432-3.4-.361-4.693,1.457-5.447-1.889-.374-3.526-.425-4.306-1.528s-.967-3.919,2.823-5.208c-.348.645.754,1.985,4.241.773s8.566-1.341,9.024,2.2c1.843-.645,4.931,5.047,1.289,9.2-3.036,3.481-5.06,5.885-5.659,7.735a.645.645,0,0,1-.883.387c-1.257-.587-3.507-.084-4.512.187a.645.645,0,0,1-.735-.329A30.1,30.1,0,0,1,339.177,125.063Z" transform="translate(-298.498 -112.88)" fill="#263238"/>
      <path id="Path_4256" data-name="Path 4256" d="M360.48,117.552s1.5-2.108,4.364-.541a12.994,12.994,0,0,0-4.364.541Z" transform="translate(-307.244 -114.142)" fill="#263238"/>
      <path id="Path_4257" data-name="Path 4257" d="M360.86,116.819s2.082-1.289.458-3.719A9.366,9.366,0,0,1,360.86,116.819Z" transform="translate(-307.379 -112.958)" fill="#263238"/>
      <path id="Path_4258" data-name="Path 4258" d="M342.543,130.822a5.9,5.9,0,0,1-1.727,3.191c-1.193,1.128-2.224.329-2.256-1.122-.032-1.289.548-3.468,1.934-4.048S342.788,129.365,342.543,130.822Z" transform="translate(-299.453 -118.498)" fill="#ffc3bd"/>
      <path id="Path_4259" data-name="Path 4259" d="M339.68,253.12c.464,10.816,1.192,23.372,2.25,30.547.406,2.733,1,6.562,1.708,11C346.487,279.122,348.188,259.089,339.68,253.12Z" transform="translate(-299.851 -162.724)" opacity="0.3"/>
      <path id="Path_4260" data-name="Path 4260" d="M333.368,408.481c-.606,0-1.193-.084-1.379-.355a.438.438,0,0,1,0-.49.645.645,0,0,1,.367-.264c.793-.213,2.417.728,2.488.774a.1.1,0,0,1,.045.116.116.116,0,0,1-.09.09A8.655,8.655,0,0,1,333.368,408.481Zm-.715-.915a.759.759,0,0,0-.219,0,.342.342,0,0,0-.226.155c-.084.142-.058.213-.032.251.213.3,1.405.309,2.295.187a4.906,4.906,0,0,0-1.818-.593Z" transform="translate(-297.091 -217.537)" fill="#5dc0ec"/>
      <path id="Path_4261" data-name="Path 4261" d="M335.514,407.73h-.045c-.561-.258-1.663-1.289-1.553-1.818,0-.129.116-.284.425-.316a.832.832,0,0,1,.645.193,2.991,2.991,0,0,1,.645,1.824.135.135,0,0,1-.052.1.122.122,0,0,1-.064.013Zm-1.089-1.934h-.064c-.206,0-.219.1-.226.122-.064.322.677,1.128,1.25,1.476a2.578,2.578,0,0,0-.574-1.457.593.593,0,0,0-.387-.129Z" transform="translate(-297.8 -216.915)" fill="#5dc0ec"/>
      <path id="Path_4262" data-name="Path 4262" d="M341.821,402.691H337.09L337,391.72h4.738Z" transform="translate(-298.899 -211.985)" fill="#ffc3bd"/>
      <path id="Path_4263" data-name="Path 4263" d="M330.822,407.89h5.157a.387.387,0,0,1,.387.322l.793,4.209a.716.716,0,0,1-.715.838c-1.863,0-4.557-.135-6.9-.135-2.746,0-5.118.148-8.334.148-1.934,0-2.411-1.966-1.592-2.146,3.732-.806,6.762-.9,10.03-2.868A2.3,2.3,0,0,1,330.822,407.89Z" transform="translate(-292.585 -217.732)" fill="#263238"/>
      <path id="Path_4264" data-name="Path 4264" d="M337.01,391.73l.039,5.653h4.738l-.039-5.653Z" transform="translate(-298.902 -211.989)" opacity="0.2"/>
      <path id="Path_4265" data-name="Path 4265" d="M324.495,221.87s-1.934,35.407-1.9,49.845c0,15.019,7.606,64.2,7.606,64.2h8.019s-2.088-48.3-1.186-63.04c.96-16.115,5.614-50.993,5.614-50.993Z" transform="translate(-293.78 -151.617)" fill="#5dc0ec"/>
      <path id="Path_4266" data-name="Path 4266" d="M332.178,393.84c-.039,0,.329,3.332.329,3.332h9.759l.374-2.971Z" transform="translate(-297.184 -212.739)" fill="#263238"/>
      <path id="Path_4267" data-name="Path 4267" d="M325.219,157.56s-8.07,20.388-4.557,55.627h29.47c.309-3.867-2.772-37.553,1.624-55.872a65.339,65.339,0,0,0-8.444-1.07,93.65,93.65,0,0,0-10.764,0,48.242,48.242,0,0,0-7.329,1.315Z" transform="translate(-292.777 -128.238)" fill="#1f3486"/>
      <path id="Path_4268" data-name="Path 4268" d="M321.181,182.916c-.438,3.223-.8,6.9-1.031,10.958,5.724-5.26,7.683-18.364,7.683-18.364Z" transform="translate(-292.91 -135.14)" opacity="0.2"/>
      <path id="Path_4269" data-name="Path 4269" d="M316.908,171.76c-1.16,3.017-2.333,5.924-3.623,8.844s-2.623,5.8-4.125,8.689l-.587,1.076-.3.541c-.122.219-.11.232-.445.793a6.3,6.3,0,0,1-2.327,2.166,6.936,6.936,0,0,1-2.52.761,10.61,10.61,0,0,1-3.61-.29,19.984,19.984,0,0,1-2.733-.889,35.547,35.547,0,0,1-4.622-2.321c-.728-.419-1.424-.87-2.114-1.289s-1.315-.954-2.056-1.47l3.481-5.337a45.29,45.29,0,0,0,7.832,3.4,11.824,11.824,0,0,0,1.76.4,2.475,2.475,0,0,0,1.031,0c.039,0-.084-.039-.3.071a1.734,1.734,0,0,0-.645.567c-.135.226.039-.11.1-.238l.232-.509.464-1.012c1.225-2.733,2.359-5.563,3.461-8.38s2.172-5.756,3.158-8.6Z" transform="translate(-281.43 -132.73)" fill="#1f3486"/>
      <path id="Path_4270" data-name="Path 4270" d="M329.356,160.343c1.508,4.216-9.166,21.187-9.166,21.187l-6.33-6.272s1.618-5.331,3.751-11.751C319.713,157.2,327.918,156.314,329.356,160.343Z" transform="translate(-290.674 -128.881)" fill="#1f3486"/>
    </g>
  </g>
</svg>
