<svg xmlns="http://www.w3.org/2000/svg" width="289.66" height="231.62" viewBox="0 0 289.66 231.62">
  <g id="Group_3960" data-name="Group 3960" transform="translate(-481.584 -1984.94)">
    <g id="Refund-rafiki-2" transform="translate(471.414 1921.94)">
      <g id="freepik--background-complete--inject-2" transform="translate(10.17 13.359)">
        <rect id="Rectangle_4476" data-name="Rectangle 4476" width="289.66" height="0.145" transform="translate(0 242.415)" fill="#ebebeb"/>
        <rect id="Rectangle_4477" data-name="Rectangle 4477" width="19.187" height="0.145" transform="translate(241.449 251.736)" fill="#ebebeb"/>
        <rect id="Rectangle_4478" data-name="Rectangle 4478" width="5.034" height="0.145" transform="translate(186.848 253.312)" fill="#ebebeb"/>
        <rect id="Rectangle_4479" data-name="Rectangle 4479" width="11.117" height="0.145" transform="translate(229.752 246.36)" fill="#ebebeb"/>
        <rect id="Rectangle_4480" data-name="Rectangle 4480" width="25.021" height="0.145" transform="translate(30.391 247.333)" fill="#ebebeb"/>
        <rect id="Rectangle_4481" data-name="Rectangle 4481" width="3.667" height="0.145" transform="translate(60.574 247.333)" fill="#ebebeb"/>
        <rect id="Rectangle_4482" data-name="Rectangle 4482" width="54.271" height="0.145" transform="translate(76.163 249.778)" fill="#ebebeb"/>
        <path id="Path_4695" data-name="Path 4695" d="M193.17,69.956l6.326,5.237,2.138-7.8Z" transform="translate(-81.263 -7.467)" fill="#ebebeb"/>
        <path id="Path_4696" data-name="Path 4696" d="M212.66,63.911l6.691,4.42.655-7.311Z" transform="translate(-89.462 -4.787)" fill="#ebebeb"/>
        <path id="Path_4697" data-name="Path 4697" d="M105.31,78.98l4.768,10.2,5.561-10.057Z" transform="translate(-44.302 -12.342)" fill="#ebebeb"/>
        <path id="Path_4698" data-name="Path 4698" d="M124.47,78.819l7.641,8.464,4.438-9.153Z" transform="translate(-52.362 -11.985)" fill="#ebebeb"/>
        <path id="Path_4699" data-name="Path 4699" d="M148.23,77.178l7,7,2.856-8.192Z" transform="translate(-62.358 -11.085)" fill="#ebebeb"/>
        <path id="Path_4700" data-name="Path 4700" d="M170.25,74.472l8.655,6.651,2.23-8.273Z" transform="translate(-71.621 -9.764)" fill="#ebebeb"/>
        <path id="Path_4701" data-name="Path 4701" d="M128.475,66.112c-26.243,3.169-52.718,1.263-53.135,1.234l.087-1.159c.7.052,69.808,5.023,94.927-14.628l.713.915C161.259,60.146,144.9,64.125,128.475,66.112Z" transform="translate(-31.694 -0.807)" fill="#e0e0e0"/>
        <path id="Path_4702" data-name="Path 4702" d="M299.6,69.956l-6.332,5.237-2.132-7.8Z" transform="translate(-122.477 -7.467)" fill="#ebebeb"/>
        <path id="Path_4703" data-name="Path 4703" d="M280.926,63.911l-6.691,4.42-.655-7.311Z" transform="translate(-115.09 -4.787)" fill="#ebebeb"/>
        <path id="Path_4704" data-name="Path 4704" d="M386.109,78.98l-4.774,10.2L375.78,79.119Z" transform="translate(-158.083 -12.342)" fill="#ebebeb"/>
        <path id="Path_4705" data-name="Path 4705" d="M365.673,78.819l-7.641,8.464L353.6,78.13Z" transform="translate(-148.753 -11.985)" fill="#ebebeb"/>
        <path id="Path_4706" data-name="Path 4706" d="M343.53,77.178l-7,7L333.67,75.99Z" transform="translate(-140.369 -11.085)" fill="#ebebeb"/>
        <path id="Path_4707" data-name="Path 4707" d="M320.755,74.472l-8.649,6.651L309.87,72.85Z" transform="translate(-130.356 -9.764)" fill="#ebebeb"/>
        <path id="Path_4708" data-name="Path 4708" d="M300.932,66.112c26.243,3.169,52.718,1.263,53.135,1.234l-.087-1.159c-.7.052-69.808,5.023-94.927-14.628l-.713.915C268.148,60.146,284.5,64.125,300.932,66.112Z" transform="translate(-108.679 -0.807)" fill="#e0e0e0"/>
        <path id="Path_4710" data-name="Path 4710" d="M345.613,356.541l-6.871-34.371H333.7l-6.877,34.371h4.588l4.351-21.081,4.814,21.081Z" transform="translate(-137.487 -114.648)" fill="#e0e0e0"/>
        <path id="Path_4723" data-name="Path 4723" d="M304.592,263.755a.371.371,0,0,1,.081.2.458.458,0,0,1,0,.162,14.593,14.593,0,0,1-1.24,2.9,2.132,2.132,0,0,1-1.628,1.159,1.159,1.159,0,0,1-.967-.307,1.466,1.466,0,0,1-.44-.956,8.957,8.957,0,0,1,.313-2.618c.272-1.159.631-2.6,1.095-4.281a.307.307,0,0,1,.11-.2.388.388,0,0,1,.2-.081.435.435,0,0,1,.284.064.29.29,0,0,1,.139.232v.145l-.33,1.332q-.759,3.094-.927,3.922a4.5,4.5,0,0,0-.127,1.321,1.008,1.008,0,0,0,.18.55.458.458,0,0,0,.423.133,1.582,1.582,0,0,0,1.2-.979,18.411,18.411,0,0,0,1.025-2.532.394.394,0,0,1,.33-.266h.145A.336.336,0,0,1,304.592,263.755Zm-2.317-5.162a.8.8,0,1,0,.023,0Z" transform="translate(-126.37 -87.453)" fill="#e0e0e0"/>
        <path id="Path_4724" data-name="Path 4724" d="M312.988,266.709a2.028,2.028,0,0,1-1.373.765,2.051,2.051,0,0,1-1.385-.342,5.329,5.329,0,0,1-1.049,1.269,2.144,2.144,0,0,1-1.159.579c-1.025.1-1.593-.44-1.709-1.622a9.078,9.078,0,0,1,1.025-4.849,4.634,4.634,0,0,1,1.037-1.5,2.207,2.207,0,0,1,1.257-.579,1.738,1.738,0,0,1,1.356.406,1.952,1.952,0,0,1,.579,1.3,6.639,6.639,0,0,1-.18,2.033,10.788,10.788,0,0,1-.771,2.317,1.072,1.072,0,0,0,.933.284,1.425,1.425,0,0,0,.979-.626,5.469,5.469,0,0,0,.782-1.7.29.29,0,0,1,.116-.18.353.353,0,0,1,.191-.081.394.394,0,0,1,.429.33.741.741,0,0,1,0,.145,6.221,6.221,0,0,1-1.06,2.051Zm-2.81-2.068a.336.336,0,0,1,.081.319.7.7,0,0,1-.029.238v.174a9.271,9.271,0,0,0,.481-1.738,5.724,5.724,0,0,0,.087-1.489,1.159,1.159,0,0,0-.371-.805,1.031,1.031,0,0,0-.776-.214,1.431,1.431,0,0,0-.9.5,4.285,4.285,0,0,0-.759,1.159,8.377,8.377,0,0,0-.962,4.414c.069.713.365,1.049.881,1a1.611,1.611,0,0,0,.933-.533,5.556,5.556,0,0,0,.886-1.2,2.236,2.236,0,0,1-.226-.828,3.155,3.155,0,0,1,0-.84.3.3,0,0,1,.1-.214.44.44,0,0,1,.243-.1A.353.353,0,0,1,310.179,264.641Z" transform="translate(-128.852 -88.669)" fill="#e0e0e0"/>
        <path id="Path_4725" data-name="Path 4725" d="M325.514,263.205a.712.712,0,0,1,0,.162,12.9,12.9,0,0,1-1.338,3.024,2.074,2.074,0,0,1-1.512,1,1.159,1.159,0,0,1-.979-.313,1.663,1.663,0,0,1-.434-1.037,4.4,4.4,0,0,1,.064-1.217c.081-.434.2-.956.371-1.564s.29-1.159.359-1.529a3.891,3.891,0,0,0,.058-1.054.817.817,0,0,0-1.008-.823c-.481.046-.973.521-1.466,1.414a12.1,12.1,0,0,0-1.118,2.752l-.886,3.609a.342.342,0,0,1-.162.238.44.44,0,0,1-.29.058.405.405,0,0,1-.226-.162.336.336,0,0,1-.046-.29l1.008-4.1.939-3.771a.342.342,0,0,1,.324-.284.359.359,0,0,1,.324.127.336.336,0,0,1,.081.33l-.1.365a2.346,2.346,0,0,1,1.547-1.025,1.471,1.471,0,0,1,1.819,1.489,4.264,4.264,0,0,1-.058,1.159c-.081.417-.2.991-.382,1.7-.151.579-.266,1.089-.342,1.477a3.538,3.538,0,0,0-.064,1.02.944.944,0,0,0,.18.55.446.446,0,0,0,.423.133,1.512,1.512,0,0,0,1.078-.846,15.06,15.06,0,0,0,1.13-2.659.376.376,0,0,1,.307-.266.671.671,0,0,1,.162,0,.348.348,0,0,1,.243.336Z" transform="translate(-133.308 -88.102)" fill="#e0e0e0"/>
        <path id="Path_4726" data-name="Path 4726" d="M335.652,263.718a3.013,3.013,0,0,1-1.049,1.2,3.4,3.4,0,0,1-1.576.579,2.677,2.677,0,0,1-1.367-.214,2.625,2.625,0,0,1-1.06-.834,2.456,2.456,0,0,1-.487-1.257,3.117,3.117,0,0,1,.527-1.981,2.149,2.149,0,0,1,1.6-.881,1.547,1.547,0,0,1,1.222.4,1.952,1.952,0,0,1,.649,1.211.371.371,0,0,1-.081.272.382.382,0,0,1-.255.133.365.365,0,0,1-.406-.336,1.124,1.124,0,0,0-.371-.707.869.869,0,0,0-.637-.237,1.471,1.471,0,0,0-1.106.649,2.23,2.23,0,0,0-.377,1.4,1.738,1.738,0,0,0,.7,1.257,1.952,1.952,0,0,0,1.408.382,2.5,2.5,0,0,0,1.7-.828,2.363,2.363,0,0,0,.539-1.813,3.18,3.18,0,0,0-.353-1.06c-.191-.342-.579-.921-1.159-1.738a3.8,3.8,0,0,0-.313.44.347.347,0,0,1-.266.168.371.371,0,0,1-.429-.348.446.446,0,0,1,.064-.238c.191-.266.365-.5.533-.713a2.978,2.978,0,0,1-.377-1.159,1.929,1.929,0,0,1,.261-1.228,1.106,1.106,0,0,1,.852-.579.759.759,0,0,1,.62.2,1.159,1.159,0,0,1,.319.637,2.364,2.364,0,0,1-.168,1.072,4.692,4.692,0,0,1-.608,1.118l.5.73a14.1,14.1,0,0,1,.921,1.46,3.476,3.476,0,0,1,.342,1.159,3.291,3.291,0,0,1-.307,1.68Zm-1.553-6.506a1.552,1.552,0,0,0,.093-.655c0-.122-.052-.174-.122-.168s-.151.07-.249.185a1.06,1.06,0,0,0-.185.8,2.139,2.139,0,0,0,.145.579A3.475,3.475,0,0,0,334.1,257.212Z" transform="translate(-138.869 -86.667)" fill="#e0e0e0"/>
        <path id="Path_4741" data-name="Path 4741" d="M303.47,311.9l1.361-.139.139,1.367-1.361.133Z" transform="translate(-127.664 -110.269)" fill="#e0e0e0"/>
        <path id="Path_4742" data-name="Path 4742" d="M311.282,304.651a2.175,2.175,0,1,1-4.328.435l-.492-4.942a2.178,2.178,0,0,1,3.545-1.9,2.109,2.109,0,0,1,.776,1.466Zm-1.912-4.826a.805.805,0,0,0-.869-.713.759.759,0,0,0-.527.29.747.747,0,0,0-.174.579l.5,4.947a.753.753,0,0,0,.284.533.736.736,0,0,0,.579.174.776.776,0,0,0,.533-.284.759.759,0,0,0,.174-.579Z" transform="translate(-128.918 -104.376)" fill="#e0e0e0"/>
        <path id="Path_4743" data-name="Path 4743" d="M320.779,303.7a2.174,2.174,0,1,1-4.328.429l-.492-4.936a2.074,2.074,0,0,1,.481-1.6,2.12,2.12,0,0,1,1.466-.788,2.178,2.178,0,0,1,2.375,1.952Zm-1.906-4.826a.73.73,0,0,0-.284-.533.782.782,0,0,0-.579-.18.759.759,0,0,0-.527.29.747.747,0,0,0-.174.579l.492,4.942a.8.8,0,0,0,.284.539.77.77,0,0,0,.579.174.759.759,0,0,0,.533-.29.747.747,0,0,0,.174-.579Z" transform="translate(-132.911 -103.972)" fill="#e0e0e0"/>
        <path id="Path_4744" data-name="Path 4744" d="M330.271,302.739a2.074,2.074,0,0,1-.481,1.6,2.178,2.178,0,0,1-3.059.3,2.08,2.08,0,0,1-.782-1.466l-.5-4.936a2.172,2.172,0,0,1,3.545-1.9,2.08,2.08,0,0,1,.782,1.466Zm-1.912-4.826a.776.776,0,0,0-.284-.533.788.788,0,0,0-.579-.174.747.747,0,0,0-.533.29.759.759,0,0,0-.168.579l.492,4.947a.789.789,0,0,0,1.57-.156Z" transform="translate(-136.906 -103.571)" fill="#e0e0e0"/>
        <path id="Path_4745" data-name="Path 4745" d="M74.285,128.564a6.813,6.813,0,0,1-5.845-2.653,5.519,5.519,0,0,1-.817-5.706,7.885,7.885,0,0,1-1.159-1.159,4.594,4.594,0,0,1-.817-4.791,5.132,5.132,0,0,1,.579-1.037,6.626,6.626,0,0,1-2.763-7.05,5.434,5.434,0,0,1,.921-2.068c-2.317-4.762.2-13.029.307-13.4l1.112.336c0,.087-2.317,7.792-.539,12.2a4.258,4.258,0,0,1,3.314-.579c2.022.388,4.287,2.01,4.055,3.435-.11.736-.834,1.547-3.644,1.24a5.48,5.48,0,0,1-3.963-2.143,5.005,5.005,0,0,0-.458,1.246,5.493,5.493,0,0,0,2.4,5.9,4.924,4.924,0,0,1,2.694-1.327,3.476,3.476,0,0,1,3.366,1.524c.782,1.078.458,1.738.2,2.057-.915,1.066-3.516.579-5.5-.434-.191-.093-.377-.2-.579-.3a4.6,4.6,0,0,0-.452.828,3.476,3.476,0,0,0,.637,3.627,7.051,7.051,0,0,0,.875.886l.127-.156a3.682,3.682,0,0,1,4.49-1.025c1.049.579,1.159,1.315,1.095,1.7a2.126,2.126,0,0,1-1.668,1.616,4.953,4.953,0,0,1-3.684-.5,4.388,4.388,0,0,0,.776,4.38c2.9,4.009,9.779,1.211,9.848,1.159l.446,1.072a15.554,15.554,0,0,1-5.353,1.124Zm-5.075-8.69a3.76,3.76,0,0,0,2.746.371c.527-.156.823-.44.846-.631s-.18-.371-.51-.579a2.5,2.5,0,0,0-3.053.782Zm-1.217-6.859.272.139c2.033,1.031,3.806,1.049,4.1.713.035-.041,0-.249-.255-.631a2.358,2.358,0,0,0-2.317-1.043,3.6,3.6,0,0,0-1.8.811Zm-2.19-8.69a4.316,4.316,0,0,0,3.319,1.918c1.889.2,2.364-.162,2.375-.261.064-.429-1.234-1.738-3.146-2.126a3.07,3.07,0,0,0-2.549.429Z" transform="translate(-26.618 -17.273)" fill="#e0e0e0"/>
        <path id="Path_4746" data-name="Path 4746" d="M47.421,132.492c-3.036-.979-4.467-4.4-4.513-7.16a7.456,7.456,0,0,1,.342-2.456,6.494,6.494,0,0,1-1.025-5.324,7.265,7.265,0,0,1,.95-2.387,9.541,9.541,0,0,1,.081-5.1,6.442,6.442,0,0,1,1.112-2.242c-.093-4.739,6.181-10.428,6.494-10.694l.77.863c-.064.064-5.33,4.832-6.037,8.84a3.117,3.117,0,0,1,4.339,2.445,2.642,2.642,0,0,1-1.547,2.752c-.637.214-1.9.278-3.262-1.738a4.507,4.507,0,0,1-.411-.77,6.487,6.487,0,0,0-.336.9,9,9,0,0,0-.255,3.7,2.984,2.984,0,0,1,1.738-.753,2.543,2.543,0,0,1,2.549,1.471,2.451,2.451,0,0,1-.359,2.676,2.482,2.482,0,0,1-2.839.33,3.169,3.169,0,0,1-1.46-1.327,6.5,6.5,0,0,0-.417,1.28,5.486,5.486,0,0,0,.458,3.864,3.806,3.806,0,0,1,1.906-1.57,2.47,2.47,0,0,1,3.065.753A2.642,2.642,0,0,1,48.58,124c-.388.434-1.529,1.338-3.713.209a5.254,5.254,0,0,1-.684-.423,6.894,6.894,0,0,0-.139,1.529c.041,2.364,1.217,5.272,3.708,6.077ZM44.6,122.643a4.09,4.09,0,0,0,.823.579c1.043.539,1.865.579,2.317.052a1.5,1.5,0,0,0,.087-1.738c-.324-.481-.933-.579-1.738-.313a2.746,2.746,0,0,0-1.489,1.4Zm-.122-7.247a2.387,2.387,0,0,0,1.2,1.356c.7.284,1.257.261,1.57-.058a1.321,1.321,0,0,0,.139-1.4,1.39,1.39,0,0,0-1.437-.788,2.178,2.178,0,0,0-1.471.869Zm1.095-7.126a3.325,3.325,0,0,0,.521,1.373c.672,1,1.39,1.495,1.923,1.315a1.564,1.564,0,0,0,.782-1.57,1.738,1.738,0,0,0-1.611-1.6,1.807,1.807,0,0,0-1.616.463Z" transform="translate(-17.684 -19.978)" fill="#e0e0e0"/>
        <path id="Path_4747" data-name="Path 4747" d="M81.5,82.643C70.648,94.363,54.809,74.5,61.761,65.2S92.523,70.744,81.5,82.643Z" transform="translate(-25.264 -5.317)" fill="#e0e0e0"/>
        <path id="Path_4748" data-name="Path 4748" d="M53.741,92.942C37.879,91,44.7,66.514,56.313,66.7S69.834,94.889,53.741,92.942Z" transform="translate(-18.692 -7.176)" fill="#ebebeb"/>
        <path id="Path_4749" data-name="Path 4749" d="M260.963,62.4c-6.8,7.352-16.754-5.1-12.4-10.932S267.868,54.947,260.963,62.4Z" transform="translate(-104.118 0)" fill="#e0e0e0"/>
        <path id="Path_4750" data-name="Path 4750" d="M228.417,62.4c6.807,7.352,16.754-5.1,12.4-10.932S221.511,54.947,228.417,62.4Z" transform="translate(-95.336)" fill="#e0e0e0"/>
        <path id="Path_4751" data-name="Path 4751" d="M248.005,68.176c9.941-1.217,5.666-16.569-1.611-16.447S237.913,69.41,248.005,68.176Z" transform="translate(-101.252 -0.878)" fill="#ebebeb"/>
        <path id="Path_4752" data-name="Path 4752" d="M411.778,128.594a15.554,15.554,0,0,1-5.388-1.083l.44-1.072c.07,0,6.952,2.827,9.848-1.159a4.4,4.4,0,0,0,.776-4.38,4.953,4.953,0,0,1-3.684.5,2.126,2.126,0,0,1-1.668-1.616,1.729,1.729,0,0,1,1.095-1.7,3.682,3.682,0,0,1,4.49,1.025l.127.156a7.028,7.028,0,0,0,.869-.886,3.476,3.476,0,0,0,.637-3.627,4.241,4.241,0,0,0-.446-.828,5.4,5.4,0,0,1-.579.3c-1.987,1.008-4.588,1.506-5.5.434-.261-.3-.579-.979.2-2.057a3.476,3.476,0,0,1,3.366-1.524,4.941,4.941,0,0,1,2.694,1.327,5.482,5.482,0,0,0,2.4-5.9,5.012,5.012,0,0,0-.452-1.246,5.492,5.492,0,0,1-3.963,2.143c-2.815.313-3.534-.5-3.644-1.24-.214-1.425,2.051-3.047,4.055-3.435a4.258,4.258,0,0,1,3.314.579c1.8-4.409-.51-12.114-.539-12.2l1.107-.336c.116.371,2.6,8.638.313,13.4a5.434,5.434,0,0,1,.921,2.068,6.635,6.635,0,0,1-2.763,7.05,5.133,5.133,0,0,1,.579,1.037,4.594,4.594,0,0,1-.817,4.791,7.629,7.629,0,0,1-1.159,1.159,5.5,5.5,0,0,1-.811,5.706A6.878,6.878,0,0,1,411.778,128.594Zm2.978-9.767a2.045,2.045,0,0,0-.991.249c-.324.185-.521.394-.5.579s.319.475.846.631a3.76,3.76,0,0,0,2.746-.371l-.029-.035a2.827,2.827,0,0,0-2.068-1.054Zm1.159-6.639a2.358,2.358,0,0,0-1.964,1.066c-.272.382-.29.579-.255.631.284.336,2.062.319,4.1-.713l.272-.139a3.621,3.621,0,0,0-1.825-.823,2.852,2.852,0,0,0-.319-.023Zm2.613-8.429a4.212,4.212,0,0,0-.823.087c-1.912.365-3.215,1.7-3.146,2.126,0,.1.481.463,2.375.261a4.316,4.316,0,0,0,3.319-1.918,2.74,2.74,0,0,0-1.721-.556Z" transform="translate(-170.961 -17.302)" fill="#e0e0e0"/>
        <path id="Path_4753" data-name="Path 4753" d="M443.552,132.471l-.359-1.1c2.5-.805,3.673-3.713,3.713-6.077a6.9,6.9,0,0,0-.139-1.529,5.678,5.678,0,0,1-.684.423c-2.184,1.13-3.325.226-3.713-.209a2.642,2.642,0,0,1-.185-3.157,2.47,2.47,0,0,1,3.065-.753,3.806,3.806,0,0,1,1.906,1.57,5.515,5.515,0,0,0,.458-3.864,6.144,6.144,0,0,0-.423-1.28,3.128,3.128,0,0,1-1.46,1.3,2.48,2.48,0,0,1-2.839-.33,2.451,2.451,0,0,1-.359-2.676,2.543,2.543,0,0,1,2.549-1.471,2.978,2.978,0,0,1,1.738.747,8.88,8.88,0,0,0-.249-3.69,7.331,7.331,0,0,0-.336-.9,4.508,4.508,0,0,1-.411.771c-1.361,2.045-2.624,1.987-3.262,1.738A2.642,2.642,0,0,1,441,109.228a3.117,3.117,0,0,1,4.339-2.445c-.707-4.009-5.973-8.777-6.042-8.84l.776-.863c.313.284,6.581,5.955,6.494,10.694a6.442,6.442,0,0,1,1.112,2.242,9.6,9.6,0,0,1,.081,5.1,7.266,7.266,0,0,1,.967,2.387,6.494,6.494,0,0,1-1.025,5.324,7.456,7.456,0,0,1,.342,2.456C448.019,128.074,446.588,131.492,443.552,132.471Zm.533-11.465a1.066,1.066,0,0,0-.939.463,1.5,1.5,0,0,0,.087,1.738c.452.5,1.275.487,2.317-.052a4.091,4.091,0,0,0,.823-.579,2.764,2.764,0,0,0-1.518-1.443,2.346,2.346,0,0,0-.771-.127Zm.834-6.541a1.35,1.35,0,0,0-1.327.794,1.309,1.309,0,0,0,.139,1.4c.313.319.869.342,1.564.058a2.346,2.346,0,0,0,1.2-1.367,2.155,2.155,0,0,0-1.466-.881Zm-.771-6.761a1.935,1.935,0,0,0-.359.035,1.738,1.738,0,0,0-1.61,1.6,1.564,1.564,0,0,0,.782,1.57c.533.18,1.251-.313,1.923-1.315a3.325,3.325,0,0,0,.521-1.373,1.825,1.825,0,0,0-1.263-.521Z" transform="translate(-184.805 -19.957)" fill="#e0e0e0"/>
        <path id="Path_4754" data-name="Path 4754" d="M400.3,82.643c10.856,11.72,26.718-8.145,19.772-17.443S389.282,70.744,400.3,82.643Z" transform="translate(-167.194 -5.317)" fill="#e0e0e0"/>
        <path id="Path_4755" data-name="Path 4755" d="M430.513,92.942C446.375,91,439.556,66.514,427.941,66.7S414.4,94.889,430.513,92.942Z" transform="translate(-176.192 -7.176)" fill="#ebebeb"/>
        <path id="Path_4756" data-name="Path 4756" d="M269.71,137.28l-2.3,2.983L272,142.332Z" transform="translate(-112.494 -36.868)" fill="#f0f0f0"/>
        <path id="Path_4757" data-name="Path 4757" d="M296.371,240.873l2.955-2.335-3.945-3.128Z" transform="translate(-124.261 -78.15)" fill="#f0f0f0"/>
        <path id="Path_4758" data-name="Path 4758" d="M229.316,128.32l-.22-3.76-4.826,1.448Z" transform="translate(-94.346 -31.517)" fill="#f0f0f0"/>
        <path id="Path_4759" data-name="Path 4759" d="M255.43,237.64l-2.3,2.983,4.594,2.068Z" transform="translate(-106.487 -79.088)" fill="#f0f0f0"/>
        <path id="Path_4760" data-name="Path 4760" d="M250.707,168.22l3.679.226-.458,4.136-4.368-1.147Z" transform="translate(-104.985 -49.884)" fill="#f0f0f0"/>
        <path id="Path_4761" data-name="Path 4761" d="M268.482,209.117l-1.744,3.244-3.569-2.143,2.868-3.488Z" transform="translate(-110.711 -66.084)" fill="#f0f0f0"/>
        <path id="Path_4763" data-name="Path 4763" d="M284.048,178.53l2.317.458s-3.447,2.317-1.836,4.142-1.159,3.447-1.159,3.447l-2.08-1.4s1.842-1.379.921-3.221S284.048,178.53,284.048,178.53Z" transform="translate(-118.333 -54.221)" fill="#f0f0f0"/>
        <path id="Path_4764" data-name="Path 4764" d="M292.629,126.78,290.52,129.9l4.716,1.784Z" transform="translate(-122.216 -32.451)" fill="#f0f0f0"/>
        <path id="Path_4765" data-name="Path 4765" d="M320.675,109.539l1.28-3.54-5.005-.579Z" transform="translate(-133.335 -23.465)" fill="#f0f0f0"/>
        <path id="Path_4766" data-name="Path 4766" d="M321.73,134.257l.678-3.627,4.049.962-1.668,4.194Z" transform="translate(-135.346 -34.071)" fill="#f0f0f0"/>
        <path id="Path_4767" data-name="Path 4767" d="M326.513,165.073l-2.317.255s2.59-3.233.5-4.5.046-3.632.046-3.632l2.387.684s-1.332,1.871.1,3.343S326.513,165.073,326.513,165.073Z" transform="translate(-136.206 -45.248)" fill="#f0f0f0"/>
        <path id="Path_4769" data-name="Path 4769" d="M317.67,258.21l-2.3,2.989,4.6,2.068Z" transform="translate(-132.67 -87.741)" fill="#f0f0f0"/>
        <path id="Path_4770" data-name="Path 4770" d="M332.543,213.46l3.673.232-.458,4.136-4.368-1.147Z" transform="translate(-139.409 -68.916)" fill="#f0f0f0"/>
        <path id="Path_4772" data-name="Path 4772" d="M259.875,114.217l-1.443.342s.614-3.065-1.159-4.125-1.159-3.314-1.159-3.314l1.8.521a3.673,3.673,0,0,0,1.188,3.047C260.489,111.969,259.875,114.217,259.875,114.217Z" transform="translate(-107.7 -24.18)" fill="#f0f0f0"/>
        <path id="Path_4773" data-name="Path 4773" d="M232.541,210.527l-2.167.881s1.611-3.818-.742-4.467-.938-3.511-.938-3.511h2.485s-.747,2.178.991,3.227S232.541,210.527,232.541,210.527Z" transform="translate(-96.03 -64.696)" fill="#f0f0f0"/>
        <path id="Path_4774" data-name="Path 4774" d="M216.886,175.878a1.738,1.738,0,1,1-1.738-1.738,1.738,1.738,0,0,1,1.738,1.738Z" transform="translate(-89.778 -52.374)" fill="#f0f0f0"/>
        <path id="Path_4775" data-name="Path 4775" d="M292.966,103.128a1.738,1.738,0,1,1-1.738-1.738A1.738,1.738,0,0,1,292.966,103.128Z" transform="translate(-121.783 -21.77)" fill="#f0f0f0"/>
        <path id="Path_4776" data-name="Path 4776" d="M199.476,129.2l-2.746,2.584,4.212,2.775Z" transform="translate(-82.761 -33.469)" fill="#f0f0f0"/>
        <path id="Path_4777" data-name="Path 4777" d="M184.85,235.028l1.825-3.3-4.855-1.361Z" transform="translate(-76.488 -76.029)" fill="#f0f0f0"/>
        <path id="Path_4778" data-name="Path 4778" d="M146.677,247.22l-.967,3.638,5.04.133Z" transform="translate(-61.297 -83.118)" fill="#f0f0f0"/>
        <path id="Path_4779" data-name="Path 4779" d="M147.842,215.7l-.353,3.667-4.119-.6,1.292-4.322Z" transform="translate(-60.313 -69.332)" fill="#f0f0f0"/>
        <path id="Path_4780" data-name="Path 4780" d="M180.1,182.753l2.317-.463s-2.288,3.476-.093,4.524.272,3.627.272,3.627l-2.445-.475s1.159-1.981-.394-3.319S180.1,182.753,180.1,182.753Z" transform="translate(-75.363 -55.803)" fill="#f0f0f0"/>
        <path id="Path_4781" data-name="Path 4781" d="M147.254,175.657l2.028-3.18-4.762-1.657Z" transform="translate(-60.797 -50.978)" fill="#f0f0f0"/>
        <path id="Path_4782" data-name="Path 4782" d="M169.684,152.387,166,152.48l.093-4.16,4.449.759Z" transform="translate(-69.833 -41.512)" fill="#f0f0f0"/>
        <path id="Path_4783" data-name="Path 4783" d="M164.827,107.49l-2.317-.255s3.227-2.59,1.466-4.281.84-3.534.84-3.534L167,100.579s-1.738,1.535-.637,3.291S164.827,107.49,164.827,107.49Z" transform="translate(-68.365 -20.941)" fill="#f0f0f0"/>
        <path id="Path_4785" data-name="Path 4785" d="M57.911,216.781a5.631,5.631,0,0,1-6.552-2.9L48.3,207.831l1.564-.782,3.059,6.036a3.916,3.916,0,0,0,5.214,1.773l5.283-2.514a3.939,3.939,0,0,0,1.958-5.029l-1.159-2.9,1.611-.649,1.159,2.9a5.677,5.677,0,0,1-2.821,7.253l-5.289,2.514a6.371,6.371,0,0,1-.967.348Z" transform="translate(-20.319 -64.839)" fill="#e6e6e6"/>
        <path id="Path_4786" data-name="Path 4786" d="M76.338,181.195l-3.082,1.39-1.112.51-3.406,1.541-1.118.5-3.238,1.466-1.124.51-3,1.356-1.135.516-2.873,1.3-1.124.51-2.879,1.3-1.118.51-2.891,1.309-1.106.5-.8.359L43.12,190.9l2.364-4.733.846-1.686,2.265-4.536.846-1.686,2.271-4.53.84-1.686,2.265-4.542.852-1.686,1.825-3.65.956.967,1.483,1.495,4.478,4.53,1.495,1.5,4.7,4.75,1.506,1.518Z" transform="translate(-18.14 -47.339)" fill="#f0f0f0"/>
        <path id="Path_4787" data-name="Path 4787" d="M40.886,211.77l-3.076,1.489,4.4,5.278,1.889-2.9Z" transform="translate(-15.906 -68.205)" fill="#e6e6e6"/>
        <path id="Path_4788" data-name="Path 4788" d="M48.046,200.69l1.912,9.426-1.106.5L47.2,202.376Z" transform="translate(-19.856 -63.543)" fill="#e6e6e6"/>
        <path id="Path_4789" data-name="Path 4789" d="M53.416,189.95l2.81,13.828-1.118.51L52.57,191.636Z" transform="translate(-22.115 -59.025)" fill="#e6e6e6"/>
        <path id="Path_4790" data-name="Path 4790" d="M58.79,179.22l3.7,18.237-1.124.51L57.95,180.906Z" transform="translate(-24.378 -54.511)" fill="#e6e6e6"/>
        <path id="Path_4791" data-name="Path 4791" d="M64.162,168.47l4.594,22.651-1.135.516-4.31-21.481Z" transform="translate(-26.633 -49.989)" fill="#e6e6e6"/>
        <path id="Path_4792" data-name="Path 4792" d="M71.063,165.335l4.449,21.974-1.124.51L69.58,163.84Z" transform="translate(-29.271 -48.041)" fill="#e6e6e6"/>
        <path id="Path_4793" data-name="Path 4793" d="M81.365,175.74,84.2,189.714l-1.118.5L79.87,174.24Z" transform="translate(-33.6 -52.416)" fill="#e6e6e6"/>
        <path id="Path_4794" data-name="Path 4794" d="M92.066,186.548l1.147,5.654-1.112.51L90.56,185.03Z" transform="translate(-38.097 -56.956)" fill="#e6e6e6"/>
        <path id="Path_4795" data-name="Path 4795" d="M75.91,150.387l1.564-10.347,2.057.539Z" transform="translate(-31.934 -38.029)" fill="#e6e6e6"/>
        <path id="Path_4796" data-name="Path 4796" d="M88.29,152.532l8.777-13.782,2.619,2.288Z" transform="translate(-37.142 -37.486)" fill="#e6e6e6"/>
        <path id="Path_4797" data-name="Path 4797" d="M99.17,166.479l13.18-8.5,1.217,3.233Z" transform="translate(-41.719 -45.576)" fill="#e6e6e6"/>
        <path id="Path_4798" data-name="Path 4798" d="M101.9,180.385l14.807-1.495.046,3.87Z" transform="translate(-42.867 -54.373)" fill="#e6e6e6"/>
        <path id="Path_4799" data-name="Path 4799" d="M63.76,301.926a5.625,5.625,0,0,1-4.3-5.729l.266-6.766,1.738.07-.266,6.766a3.922,3.922,0,0,0,3.679,4.055l5.84.377a3.939,3.939,0,0,0,4.154-3.406l.382-3.111,1.738.214-.417,3.105a5.672,5.672,0,0,1-6,4.965l-5.84-.377A5.665,5.665,0,0,1,63.76,301.926Z" transform="translate(-25.009 -100.875)" fill="#e6e6e6"/>
        <path id="Path_4800" data-name="Path 4800" d="M88.66,282.341l-3.372-.284-1.217-.1-3.725-.313-1.222-.1-3.54-.3-1.234-.1-3.279-.278-1.24-.1-3.14-.267-1.234-.1-3.146-.267-1.222-.1-3.163-.266-1.211-.1-.875-.075-.921-4.947,4.368-2.978,1.553-1.066,4.194-2.856,1.558-1.06,4.183-2.85,1.558-1.066,4.194-2.862,1.558-1.066,3.372-2.294.365,1.309.568,2.028,1.709,6.135.574,2.039,1.8,6.436.574,2.062Z" transform="translate(-23.104 -87.043)" fill="#f0f0f0"/>
        <path id="Path_4801" data-name="Path 4801" d="M52.436,287.647l-3.406-.2L50.3,294.2l3.059-1.616Z" transform="translate(-20.626 -100.042)" fill="#e6e6e6"/>
        <path id="Path_4802" data-name="Path 4802" d="M62.145,280.81l-2.914,9.165-1.211-.1,2.572-8Z" transform="translate(-24.408 -97.248)" fill="#e6e6e6"/>
        <path id="Path_4803" data-name="Path 4803" d="M71.074,274.05,66.792,287.5l-1.222-.1,3.945-12.287Z" transform="translate(-27.584 -94.405)" fill="#e6e6e6"/>
        <path id="Path_4804" data-name="Path 4804" d="M79.987,267.29l-5.643,17.727-1.234-.1,5.318-16.563Z" transform="translate(-30.756 -91.561)" fill="#e6e6e6"/>
        <path id="Path_4805" data-name="Path 4805" d="M88.915,260.51,81.9,282.536l-1.24-.1,6.7-20.855Z" transform="translate(-33.932 -88.709)" fill="#e6e6e6"/>
        <path id="Path_4806" data-name="Path 4806" d="M96.5,260.838,89.694,282.2l-1.234-.1,7.473-23.289Z" transform="translate(-37.213 -87.993)" fill="#e6e6e6"/>
        <path id="Path_4807" data-name="Path 4807" d="M102.25,274.939l-4.328,13.585-1.222-.1,4.976-15.52Z" transform="translate(-40.68 -93.921)" fill="#e6e6e6"/>
        <path id="Path_4808" data-name="Path 4808" d="M108.212,289.592l-1.755,5.5-1.217-.1,2.4-7.462Z" transform="translate(-44.272 -100.075)" fill="#e6e6e6"/>
        <path id="Path_4809" data-name="Path 4809" d="M109.79,250.7l6.4-8.278,1.529,1.471Z" transform="translate(-46.187 -81.098)" fill="#e6e6e6"/>
        <path id="Path_4810" data-name="Path 4810" d="M118.34,261.147l14.373-7.757,1.176,3.267Z" transform="translate(-49.783 -85.713)" fill="#e6e6e6"/>
        <path id="Path_4811" data-name="Path 4811" d="M122.92,280.188l15.653-1.008-.516,3.412Z" transform="translate(-51.71 -96.563)" fill="#e6e6e6"/>
        <path id="Path_4812" data-name="Path 4812" d="M121.01,289.95l13.66,5.9-1.842,3.406Z" transform="translate(-50.907 -101.093)" fill="#e6e6e6"/>
        <path id="Path_4813" data-name="Path 4813" d="M422.968,216.794a5.643,5.643,0,0,0,6.558-2.9l3.059-6.036-1.553-.782-3.059,6.036a3.91,3.91,0,0,1-5.214,1.773l-5.283-2.514a3.934,3.934,0,0,1-1.958-5.029l1.159-2.9-1.61-.649-1.159,2.9a5.671,5.671,0,0,0,2.821,7.253l5.283,2.514A6.606,6.606,0,0,0,422.968,216.794Z" transform="translate(-173.948 -64.852)" fill="#e6e6e6"/>
        <path id="Path_4814" data-name="Path 4814" d="M394.29,181.195l3.082,1.39,1.112.51,3.406,1.541,1.118.5,3.233,1.466,1.13.51,3,1.356,1.13.516,2.873,1.3,1.13.51,2.879,1.3,1.118.51,2.885,1.309,1.107.5.805.359,3.215-3.864-2.369-4.733-.84-1.686-2.271-4.536-.846-1.686-2.265-4.53-.84-1.686-2.271-4.542-.846-1.686-1.825-3.65-.962.967-1.477,1.495-4.484,4.53-1.489,1.5-4.7,4.75-1.5,1.518Z" transform="translate(-165.87 -47.339)" fill="#f0f0f0"/>
        <path id="Path_4815" data-name="Path 4815" d="M449.3,211.77l3.076,1.489-4.4,5.278-1.889-2.9Z" transform="translate(-187.657 -68.205)" fill="#e6e6e6"/>
        <path id="Path_4816" data-name="Path 4816" d="M444.7,200.69l-1.918,9.426,1.107.5,1.651-8.238Z" transform="translate(-186.269 -63.543)" fill="#e6e6e6"/>
        <path id="Path_4817" data-name="Path 4817" d="M438.674,189.95l-2.8,13.828,1.118.51,2.532-12.652Z" transform="translate(-183.362 -59.025)" fill="#e6e6e6"/>
        <path id="Path_4818" data-name="Path 4818" d="M432.658,179.22l-3.708,18.237,1.13.51,3.418-17.061Z" transform="translate(-180.451 -54.511)" fill="#e6e6e6"/>
        <path id="Path_4819" data-name="Path 4819" d="M426.634,168.47l-4.594,22.651,1.13.516,4.31-21.481Z" transform="translate(-177.544 -49.989)" fill="#e6e6e6"/>
        <path id="Path_4820" data-name="Path 4820" d="M419.375,165.335l-4.455,21.974,1.13.51,4.8-23.978Z" transform="translate(-174.549 -48.041)" fill="#e6e6e6"/>
        <path id="Path_4821" data-name="Path 4821" d="M410.243,175.74l-2.833,13.973,1.118.5,3.2-15.978Z" transform="translate(-171.39 -52.416)" fill="#e6e6e6"/>
        <path id="Path_4822" data-name="Path 4822" d="M400.757,186.548,399.61,192.2l1.112.51,1.535-7.682Z" transform="translate(-168.108 -56.956)" fill="#e6e6e6"/>
        <path id="Path_4823" data-name="Path 4823" d="M416.2,150.387l-1.564-10.347-2.051.539Z" transform="translate(-173.569 -38.029)" fill="#e6e6e6"/>
        <path id="Path_4824" data-name="Path 4824" d="M398.185,152.532l-8.777-13.782-2.618,2.288Z" transform="translate(-162.715 -37.486)" fill="#e6e6e6"/>
        <path id="Path_4825" data-name="Path 4825" d="M385.12,166.479l-13.18-8.5-1.211,3.233Z" transform="translate(-155.959 -45.576)" fill="#e6e6e6"/>
        <path id="Path_4826" data-name="Path 4826" d="M382.064,180.385l-14.807-1.495-.046,3.87Z" transform="translate(-154.478 -54.373)" fill="#e6e6e6"/>
        <path id="Path_4827" data-name="Path 4827" d="M418.246,301.926a5.631,5.631,0,0,0,4.31-5.729l-.266-6.766-1.738.07.266,6.766a3.91,3.91,0,0,1-3.673,4.055l-5.845.377a3.934,3.934,0,0,1-4.154-3.441l-.388-3.111-1.738.214.382,3.105a5.666,5.666,0,0,0,6,4.965l5.84-.377a5.52,5.52,0,0,0,1.008-.127Z" transform="translate(-170.384 -100.875)" fill="#e6e6e6"/>
        <path id="Path_4828" data-name="Path 4828" d="M381.59,282.341l3.372-.284,1.217-.1,3.725-.313,1.222-.1,3.54-.3,1.234-.1,3.273-.278,1.24-.1,3.146-.267,1.228-.1,3.152-.267,1.222-.1,3.157-.266,1.211-.1.875-.075.927-4.947-4.368-2.978L409.4,270.6l-4.188-2.856-1.564-1.06-4.183-2.85-1.558-1.066-4.188-2.862-1.564-1.066-3.366-2.294-.371,1.309-.562,2.028-1.715,6.135-.574,2.039-1.79,6.436-.574,2.062Z" transform="translate(-160.528 -87.043)" fill="#f0f0f0"/>
        <path id="Path_4829" data-name="Path 4829" d="M439.157,287.647l3.412-.2-1.275,6.755-3.065-1.616Z" transform="translate(-184.355 -100.042)" fill="#e6e6e6"/>
        <path id="Path_4830" data-name="Path 4830" d="M429.6,280.81l2.914,9.165,1.211-.1-2.566-8Z" transform="translate(-180.724 -97.248)" fill="#e6e6e6"/>
        <path id="Path_4831" data-name="Path 4831" d="M419.67,274.05l4.287,13.446,1.222-.1-3.945-12.287Z" transform="translate(-176.547 -94.405)" fill="#e6e6e6"/>
        <path id="Path_4832" data-name="Path 4832" d="M409.76,267.29l5.648,17.727,1.228-.1-5.318-16.563Z" transform="translate(-172.378 -91.561)" fill="#e6e6e6"/>
        <path id="Path_4833" data-name="Path 4833" d="M399.83,260.51l7.016,22.026,1.24-.1-6.691-20.855Z" transform="translate(-168.201 -88.709)" fill="#e6e6e6"/>
        <path id="Path_4834" data-name="Path 4834" d="M392.41,260.838l6.807,21.359,1.234-.1-7.479-23.289Z" transform="translate(-165.079 -87.993)" fill="#e6e6e6"/>
        <path id="Path_4835" data-name="Path 4835" d="M388.46,274.939l4.333,13.585,1.222-.1-4.982-15.52Z" transform="translate(-163.418 -93.921)" fill="#e6e6e6"/>
        <path id="Path_4836" data-name="Path 4836" d="M384.38,289.592l1.755,5.5,1.217-.1-2.4-7.462Z" transform="translate(-161.701 -100.075)" fill="#e6e6e6"/>
        <path id="Path_4837" data-name="Path 4837" d="M379.2,250.7l-6.407-8.278-1.529,1.471Z" transform="translate(-156.182 -81.098)" fill="#e6e6e6"/>
        <path id="Path_4838" data-name="Path 4838" d="M365.119,261.147,350.74,253.39l-1.17,3.267Z" transform="translate(-147.057 -85.713)" fill="#e6e6e6"/>
        <path id="Path_4839" data-name="Path 4839" d="M360.457,280.188,344.81,279.18l.51,3.412Z" transform="translate(-145.055 -96.563)" fill="#e6e6e6"/>
        <path id="Path_4840" data-name="Path 4840" d="M363.816,289.95l-13.666,5.9L352,299.254Z" transform="translate(-147.301 -101.093)" fill="#e6e6e6"/>
      </g>
      <g id="freepik--Shadow--inject-76" transform="translate(36.088 280.059)">
        <ellipse id="freepik--path--inject-76" cx="124.705" cy="7.281" rx="124.705" ry="7.281" fill="#f5f5f5"/>
      </g>
      <g id="freepik--Character--inject-76" transform="translate(114.667 110.647)">
        <path id="Path_5009" data-name="Path 5009" d="M240.691,174.353l2.058.148,2.084.129c1.383.077,2.766.154,4.078.154.643,0,1.286,0,1.872-.051a5.593,5.593,0,0,0,.791-.077c.225-.032.424-.064.5-.071s.039,0,.032,0a.193.193,0,0,0-.051.051l.077-.039a1.981,1.981,0,0,0,.379-.341,9.193,9.193,0,0,0,.958-1.286,29.708,29.708,0,0,0,1.8-3.505c.553-1.286,1.074-2.573,1.576-3.891.99-2.65,1.93-5.416,2.8-8.123l3.589.643a69.557,69.557,0,0,1-1.325,8.921c-.322,1.479-.688,2.959-1.145,4.444a30.09,30.09,0,0,1-1.743,4.5,14.562,14.562,0,0,1-1.428,2.425,9.325,9.325,0,0,1-1.132,1.248,7.538,7.538,0,0,1-.791.643c-.174.109-.347.219-.527.322l-.47.232a10.578,10.578,0,0,1-1.6.566,13.5,13.5,0,0,1-1.37.3c-.868.148-1.692.238-2.5.3a49.15,49.15,0,0,1-9.3-.264Z" transform="translate(-200.27 -147.204)" fill="#e4897b"/>
        <path id="Path_5010" data-name="Path 5010" d="M237.749,181.43l9.693.9-3.711,11.043s-7.319,2.637-10.033-1.068S230.59,181.514,237.749,181.43Z" transform="translate(-197.411 -155.761)" fill="#5dc0ec"/>
        <path id="Path_5011" data-name="Path 5011" d="M247.433,182.345l-3.7,11.043s-.572.206-1.466.424a13.134,13.134,0,0,1-5.744.264h0a4.682,4.682,0,0,1-2.817-1.756c-2.714-3.7-3.1-10.767,4.039-10.85Z" transform="translate(-197.415 -155.775)" fill="#8ed3f2" opacity="0.7"/>
        <path id="Path_5012" data-name="Path 5012" d="M244.523,197.225a13.133,13.133,0,0,1-5.744.264h0c-1.331-2.817.077-7.364,1.93-6.194C242.709,192.524,243.924,195.373,244.523,197.225Z" transform="translate(-199.683 -159.213)" opacity="0.2"/>
        <path id="Path_5013" data-name="Path 5013" d="M270.45,155.62l3.344-3.66,2.065,5.094s-3.184,3.087-4.7,1.383Z" transform="translate(-211.171 -145.245)" fill="#e4897b"/>
        <path id="Path_5014" data-name="Path 5014" d="M280.364,149.82l.283,4.985-2.933,1.486L275.65,151.2Z" transform="translate(-213.026 -144.481)" fill="#e4897b"/>
        <path id="Path_5015" data-name="Path 5015" d="M237.767,403.039l4.8-.836-.553-11.313-4.8.836Z" transform="translate(-199.313 -230.502)" fill="#e4897b"/>
        <path id="Path_5016" data-name="Path 5016" d="M181.1,403.24l4.785.849,3.332-10.844-4.785-.855Z" transform="translate(-179.288 -231.037)" fill="#e4897b"/>
        <path id="Path_5017" data-name="Path 5017" d="M242.014,390.9l.289,5.827-4.8.836-.289-5.827Z" transform="translate(-199.31 -230.505)" opacity="0.2"/>
        <path id="Path_5018" data-name="Path 5018" d="M185.317,392.4l4.792.849-1.717,5.589-4.792-.849Z" transform="translate(-180.18 -231.041)" opacity="0.2"/>
        <path id="Path_5019" data-name="Path 5019" d="M236.521,343.316l-8.13,1.447s-1.286-27.335-1.878-42.449a158.548,158.548,0,0,0-2.18-17.945c-1.441-8.689-3.338-18.105-4.907-25.482-1.659-7.77-2.946-13.275-2.946-13.275l17.115-.412s6.149,38.507,6.432,53.345C240.322,313.923,236.521,343.316,236.521,343.316Z" transform="translate(-191.913 -178.516)" fill="#1f3486"/>
        <path id="Path_5020" data-name="Path 5020" d="M225.967,289.793c-1.441-8.689-3.338-18.105-4.907-25.482l1.981-3.73C226.99,265.815,227.26,281.432,225.967,289.793Z" transform="translate(-193.547 -184.004)" opacity="0.2"/>
        <path id="Path_5021" data-name="Path 5021" d="M211.763,245.48s-4.4,41.87-6.721,55.956c-2.541,15.436-15.1,44.276-15.1,44.276l-8.766-1.563s8.361-26.563,9.879-42.012c1.73-17.276,3.91-56.252,3.91-56.252Z" transform="translate(-179.317 -178.615)" fill="#1f3486"/>
        <path id="Path_5022" data-name="Path 5022" d="M190.659,399.164l-10.329-1.833.585-3.081,10.889,1.293Z" transform="translate(-179.013 -231.701)" fill="#5dc0ec"/>
        <path id="Path_5023" data-name="Path 5023" d="M243.6,395.971l-9.712,1.55-.47-3.126,10.651-1.865Z" transform="translate(-197.957 -231.087)" fill="#5dc0ec"/>
        <path id="Path_5024" data-name="Path 5024" d="M242.446,406.788l-5.325-.148a.437.437,0,0,0-.424.322l-1.119,4.284a.7.7,0,0,0,.643.881c1.93,0,4.7,0,7.113.051,2.817.077,4.612-.064,7.924,0,2,.051,2.624-1.93,1.794-2.148-3.782-.933-6.252-.753-9.474-2.862a2.226,2.226,0,0,0-1.132-.379Z" transform="translate(-198.719 -236.122)" fill="#263238"/>
        <path id="Path_5025" data-name="Path 5025" d="M246.859,407.284a.109.109,0,0,1,.064-.116c.225-.109,2.219-1.048,2.8-.7a.354.354,0,0,1,.174.315.643.643,0,0,1-.232.553c-.553.457-1.93.225-2.721.051h0a.116.116,0,0,1-.09-.1Zm.482-.051a3.134,3.134,0,0,0,2.18-.077.437.437,0,0,0,.154-.367.142.142,0,0,0-.071-.122h-.045A4.521,4.521,0,0,0,247.342,407.233Z" transform="translate(-202.753 -236.033)" fill="#5dc0ec"/>
        <path id="Path_5026" data-name="Path 5026" d="M246.9,406.714a.1.1,0,0,1-.045-.1,3.243,3.243,0,0,1,.823-1.846.823.823,0,0,1,.643-.18c.315.039.4.2.418.328.071.553-1.132,1.569-1.73,1.82h-.064Zm1.4-1.93a.643.643,0,0,0-.476.135,2.682,2.682,0,0,0-.695,1.479c.611-.347,1.434-1.145,1.389-1.479,0,0,0-.071-.1-.109Z" transform="translate(-202.752 -235.386)" fill="#5dc0ec"/>
        <path id="Path_5027" data-name="Path 5027" d="M198.59,181.313a107.983,107.983,0,0,1,2.27,16.079c.27,3.782.36,7.384.367,10.644,0,7.654-.457,13.468-.328,15.436l26.023-.74c4.946-27.438-1.055-41.954-1.055-41.954a49.75,49.75,0,0,0-6.168-1.023c-.437-.045-.881-.084-1.338-.109a95.831,95.831,0,0,0-11.063.315c-.7.051-1.4.122-2.09.206C201.69,180.593,198.59,181.313,198.59,181.313Z" transform="translate(-185.529 -155.11)" fill="#5dc0ec"/>
        <path id="Path_5028" data-name="Path 5028" d="M198.59,181.313a107.983,107.983,0,0,1,2.27,16.079c.27,3.782.36,7.384.367,10.644,0,7.654-.457,13.468-.328,15.436l26.023-.74c4.946-27.438-1.055-41.954-1.055-41.954a49.75,49.75,0,0,0-6.168-1.023c-.437-.045-.881-.084-1.338-.109a95.831,95.831,0,0,0-11.063.315c-.7.051-1.4.122-2.09.206C201.69,180.593,198.59,181.313,198.59,181.313Z" transform="translate(-185.529 -155.11)" fill="#5dc0ec" opacity="0.7"/>
        <path id="Path_5031" data-name="Path 5031" d="M220.7,176.386a10.966,10.966,0,0,1-8.593-3.145,5.39,5.39,0,0,0,1.286-2.618c.714-3.016.122-7.242-.437-9.853l6.895,5.6a12.753,12.753,0,0,0-.244,1.37c-.3,2.315.212,4.5,3.544,5.184C223.88,174.09,223.764,176.232,220.7,176.386Z" transform="translate(-190.353 -148.388)" fill="#e4897b"/>
        <path id="Path_5032" data-name="Path 5032" d="M220.483,182.445s-1.113,1.518-2.431,3.023c-2.045-1-6.863-3.685-6.773-6.342a2.669,2.669,0,0,1,1.235-1.286A28.737,28.737,0,0,0,220.483,182.445Z" transform="translate(-190.057 -154.48)" fill="#7fcdf0"/>
        <path id="Path_5033" data-name="Path 5033" d="M225.59,182.644a14.15,14.15,0,0,1,2.727,2.824c1.409-1.068.405-5.962-.161-6.49a3.4,3.4,0,0,0-1.994-.579S227.88,182,225.59,182.644Z" transform="translate(-195.164 -154.679)" fill="#7fcdf0"/>
        <path id="Path_5034" data-name="Path 5034" d="M220.355,166.366a12.754,12.754,0,0,0-.244,1.37,7.313,7.313,0,0,1-6.213,2.888c.714-3.016.122-7.242-.437-9.853Z" transform="translate(-190.835 -148.388)" opacity="0.2"/>
        <path id="Path_5035" data-name="Path 5035" d="M205.445,149.535c-.72,1.82-.643,5.679,2.026,4.618S206.686,146.377,205.445,149.535Z" transform="translate(-187.837 -144.081)" fill="#263238"/>
        <path id="Path_5036" data-name="Path 5036" d="M218.7,151.6c-.058,4.824.161,7.647-2.148,10.214-3.473,3.859-9.532,1.9-10.934-2.856-1.248-4.277-.952-11.442,3.666-13.545A6.657,6.657,0,0,1,218.7,151.6Z" transform="translate(-187.811 -142.696)" fill="#e4897b"/>
        <path id="Path_5037" data-name="Path 5037" d="M214.535,157.538c0,.392-.174.72-.431.727s-.476-.3-.5-.688.167-.72.424-.727S214.5,157.146,214.535,157.538Z" transform="translate(-190.888 -146.99)" fill="#263238"/>
        <path id="Path_5038" data-name="Path 5038" d="M207.642,157.818c0,.392-.174.72-.431.727s-.482-.3-.5-.688.174-.72.431-.727S207.616,157.426,207.642,157.818Z" transform="translate(-188.426 -147.09)" fill="#263238"/>
        <path id="Path_5039" data-name="Path 5039" d="M209.393,158.41a13.546,13.546,0,0,1-1.743,3.312,2.354,2.354,0,0,0,1.884.238Z" transform="translate(-188.762 -147.546)" fill="#de5753"/>
        <path id="Path_5040" data-name="Path 5040" d="M213.643,165.27a4.114,4.114,0,0,1-.508.051.129.129,0,0,1-.026-.257,3.081,3.081,0,0,0,2.476-1.286.116.116,0,0,1,.154-.045.122.122,0,0,1,.045.161A3.216,3.216,0,0,1,213.643,165.27Z" transform="translate(-190.671 -149.441)" fill="#263238"/>
        <path id="Path_5041" data-name="Path 5041" d="M215.957,154.919a.238.238,0,0,1-.219-.077,1.865,1.865,0,0,0-1.511-.708.232.232,0,0,1-.257-.206.225.225,0,0,1,.2-.251,2.29,2.29,0,0,1,1.93.868.225.225,0,0,1-.135.373Z" transform="translate(-191.016 -145.856)" fill="#263238"/>
        <path id="Path_5042" data-name="Path 5042" d="M204.917,155.074a.2.2,0,0,1-.135,0,.232.232,0,0,1-.122-.3,2.27,2.27,0,0,1,1.589-1.364.232.232,0,0,1,.084.457,1.769,1.769,0,0,0-1.248,1.093.225.225,0,0,1-.167.116Z" transform="translate(-187.689 -145.761)" fill="#263238"/>
        <path id="Path_5043" data-name="Path 5043" d="M210.645,146.858s1.286-1,1.93,0,.707,3.73.707,3.73l.251-.5s1.93,6.014,4.354,4.386,5.827-7.93-.077-10.857c0,0-.675-1.441-4.5-2.02s-8.361,1.93-9.075,4.5a4.276,4.276,0,0,0,.47,3.917,3.659,3.659,0,0,1,.643-1.524,1.582,1.582,0,0,0,1,1.126,2.7,2.7,0,0,1,.257-1.5,3.113,3.113,0,0,0,.688,1.19c.174-2.611,1.93-3.216,2.483-3.216A.945.945,0,0,1,210.645,146.858Z" transform="translate(-187.461 -141.519)" fill="#263238"/>
        <path id="Path_5044" data-name="Path 5044" d="M226.972,159.936a4.5,4.5,0,0,1-2.122,2.766c-1.4.785-2.489-.379-2.431-1.9.051-1.37.843-3.428,2.405-3.589a2.077,2.077,0,0,1,2.148,2.721Z" transform="translate(-194.031 -147.118)" fill="#e4897b"/>
        <path id="Path_5045" data-name="Path 5045" d="M185.176,406.788l-5.325-.148a.437.437,0,0,0-.425.322l-1.119,4.284a.7.7,0,0,0,.643.881c1.93,0,4.7,0,7.113.051,2.824.077,4.618-.064,7.924,0,2,.051,2.631-1.93,1.794-2.148-3.782-.933-6.252-.753-9.474-2.862a2.226,2.226,0,0,0-1.132-.379Z" transform="translate(-178.283 -236.122)" fill="#263238"/>
        <path id="Path_5046" data-name="Path 5046" d="M189.61,407.284a.122.122,0,0,1,.064-.116c.225-.109,2.219-1.048,2.8-.7a.373.373,0,0,1,.18.315.643.643,0,0,1-.238.553c-.553.457-1.93.225-2.721.051h0a.109.109,0,0,1-.09-.1Zm.482-.051a3.134,3.134,0,0,0,2.18-.077.418.418,0,0,0,.161-.373.142.142,0,0,0-.071-.122h-.039A4.629,4.629,0,0,0,190.092,407.233Z" transform="translate(-182.325 -236.033)" fill="#5dc0ec"/>
        <path id="Path_5047" data-name="Path 5047" d="M189.654,406.714a.1.1,0,0,1-.045-.1,3.243,3.243,0,0,1,.823-1.846.83.83,0,0,1,.643-.18c.315.039.4.2.418.328.071.553-1.132,1.569-1.73,1.82h-.084Zm1.4-1.93a.643.643,0,0,0-.476.135,2.727,2.727,0,0,0-.695,1.479c.611-.347,1.434-1.145,1.389-1.479,0,0,0-.071-.1-.109Z" transform="translate(-182.324 -235.386)" fill="#5dc0ec"/>
        <path id="Path_5048" data-name="Path 5048" d="M229.482,207.882a4.182,4.182,0,0,1-.032.643c-.064,1.4-.167,2.849-.3,4.348-.045.521-.1,1.048-.148,1.582-.1.913-.206,1.846-.334,2.8-.161,1.286-.36,2.6-.579,3.962-.1.592-.206,1.19-.309,1.794-7.834.225-23.064.489-26.878.592v-1.82c0-1.042.077-2.373.135-3.956.032-.855.064-1.794.1-2.791,0-.508,0-1.029.039-1.569,0-1.357.058-2.817.058-4.354v-.939c0-1.814-.032-3.737-.109-5.731-.051-1.6-.135-3.216-.257-4.92-.1-1.531-.238-3.094-.418-4.669a100.646,100.646,0,0,0-1.852-11.436s3.1-.714,6.6-1.138a84.037,84.037,0,0,1,13.359,16.311,30.22,30.22,0,0,0,1.73-16.658,50.166,50.166,0,0,1,5.576.958S230.215,190.2,229.482,207.882Z" transform="translate(-185.529 -155.225)" fill="#5dc0ec"/>
        <path id="Path_5049" data-name="Path 5049" d="M229.942,238c-.161,1.286-.36,2.6-.579,3.962l-27.193.566c0-1.042.077-2.373.135-3.955Z" transform="translate(-186.807 -175.946)" fill="#fff" opacity="0.4"/>
        <path id="Path_5050" data-name="Path 5050" d="M230.553,231.19c-.045.521-.1,1.048-.148,1.582l-27.875.579c0-.508,0-1.029.039-1.569Z" transform="translate(-186.935 -173.516)" fill="#fff" opacity="0.4"/>
        <path id="Path_5051" data-name="Path 5051" d="M230.941,223.39a4.186,4.186,0,0,1-.032.643l-28.229.585v-.643Z" transform="translate(-186.989 -170.733)" fill="#fff" opacity="0.4"/>
        <path id="Path_5052" data-name="Path 5052" d="M202.145,208.737c-.051-1.6-.135-3.216-.257-4.92-.1-1.531-.238-3.094-.418-4.669a4.719,4.719,0,0,1,3.467-1.582S206.242,206.518,202.145,208.737Z" transform="translate(-186.557 -161.515)" opacity="0.2"/>
        <path id="Path_5053" data-name="Path 5053" d="M197.176,191.284c-1.286,2.952-2.573,6.072-3.7,9.114-.572,1.524-1.074,3.061-1.524,4.567a24.059,24.059,0,0,0-.913,4.264,7.867,7.867,0,0,0-.039.817c0,.109,0,.206,0,.27v.1a.135.135,0,0,0,0-.039c-.064-.1-.129-.141-.109-.09a1.016,1.016,0,0,0,.309.3,6.387,6.387,0,0,0,1.589.727,18.188,18.188,0,0,0,2.122.553,69.192,69.192,0,0,0,9.648,1.042l.379,3.627a41.164,41.164,0,0,1-10.728,1.016,23.373,23.373,0,0,1-2.894-.334,12.824,12.824,0,0,1-3.216-1.035,7.8,7.8,0,0,1-1.762-1.19,6.265,6.265,0,0,1-1.544-2.174l-.064-.309-.09-.283a5.2,5.2,0,0,1-.142-.54,8.605,8.605,0,0,1-.167-.99,12.581,12.581,0,0,1-.084-1.73,27.919,27.919,0,0,1,.836-5.789c.418-1.788.939-3.492,1.492-5.184s1.164-3.332,1.827-4.952,1.325-3.216,2.116-4.85Z" transform="translate(-180.411 -158.173)" fill="#e4897b"/>
        <path id="Path_5054" data-name="Path 5054" d="M192.061,182.545c-4.219,1.994-7.821,15.436-7.821,15.436l11.423,3.422a68.132,68.132,0,0,0,3.628-11.738C200.551,183.227,197.168,180.127,192.061,182.545Z" transform="translate(-180.409 -155.866)" fill="#5dc0ec"/>
        <path id="Path_5055" data-name="Path 5055" d="M192.061,182.545c-4.219,1.994-7.821,15.436-7.821,15.436l11.423,3.422a68.132,68.132,0,0,0,3.628-11.738C200.551,183.227,197.168,180.127,192.061,182.545Z" transform="translate(-180.409 -155.866)" fill="#8ed3f2" opacity="0.7"/>
        <path id="Path_5056" data-name="Path 5056" d="M214,224.982l4.02-2.862,1.126,6.136s-3.949,1.672-5.062-.341Z" transform="translate(-191.028 -170.28)" fill="#e4897b"/>
        <path id="Path_5057" data-name="Path 5057" d="M224.239,222.294l.695,5.12-3.608.843L220.2,222.12Z" transform="translate(-193.24 -170.28)" fill="#e4897b"/>
      </g>
      <g id="freepik--Device--inject-76" transform="translate(175.631 117.04)">
        <rect id="Rectangle_4555" data-name="Rectangle 4555" width="88.037" height="169.688" rx="6.73" fill="#263238"/>
        <path id="Path_5058" data-name="Path 5058" d="M360.316,157.723v153.86a2.508,2.508,0,0,1-2.541,2.508h-79.67a2.1,2.1,0,0,1-.579-.077,2.071,2.071,0,0,1-1.016-.566,2.277,2.277,0,0,1-.682-1.659V157.517a2.02,2.02,0,0,1,1.93-2.1h22.62a1.582,1.582,0,0,1,1.479,1.016l.945,2.3a1.582,1.582,0,0,0,1.454,1.01h27.689a1.582,1.582,0,0,0,1.454-.99l.939-2.315a1.6,1.6,0,0,1,1.46-1.023h22.3a2.283,2.283,0,0,1,2.219,2.3Z" transform="translate(-274.054 -152.873)" fill="#bee5f7"/>
        <rect id="Rectangle_4556" data-name="Rectangle 4556" width="1.177" height="1.569" transform="translate(13.455 9.435) rotate(180)" fill="#fff" opacity="0.6" style="mix-blend-mode: normal;isolation: isolate"/>
        <rect id="Rectangle_4557" data-name="Rectangle 4557" width="1.177" height="2.09" transform="translate(11.545 9.442) rotate(180)" fill="#fff" opacity="0.6" style="mix-blend-mode: normal;isolation: isolate"/>
        <rect id="Rectangle_4558" data-name="Rectangle 4558" width="1.177" height="2.618" transform="translate(9.622 9.442) rotate(180)" fill="#fff" opacity="0.6" style="mix-blend-mode: normal;isolation: isolate"/>
        <rect id="Rectangle_4559" data-name="Rectangle 4559" width="1.177" height="3.139" transform="translate(7.699 9.442) rotate(180)" fill="#fff" opacity="0.6" style="mix-blend-mode: normal;isolation: isolate"/>
        <rect id="Rectangle_4560" data-name="Rectangle 4560" width="0.695" height="1.569" transform="translate(74.775 7.3)" fill="#fff" opacity="0.6" style="mix-blend-mode: normal;isolation: isolate"/>
        <rect id="Rectangle_4561" data-name="Rectangle 4561" width="5.557" height="2.714" transform="translate(81.516 9.435) rotate(180)" fill="#fff" opacity="0.6" style="mix-blend-mode: normal;isolation: isolate"/>
        <rect id="Rectangle_4562" data-name="Rectangle 4562" width="84.481" height="135.31" transform="translate(1.775 13.327)" fill="#e0f3fb" opacity="0.829" style="mix-blend-mode: normal;isolation: isolate"/>
        <rect id="Rectangle_4564" data-name="Rectangle 4564" width="84.481" height="8.271" transform="translate(1.775 13.327)" fill="#fff" opacity="0.3" style="mix-blend-mode: normal;isolation: isolate"/>
        <circle id="Ellipse_54" data-name="Ellipse 54" cx="25.431" cy="25.431" r="25.431" transform="translate(13.42 103.753) rotate(-76.72)" fill="#5dc0ec"/>
        <g id="Group_3955" data-name="Group 3955" transform="translate(1.775 2.541)" opacity="0.1" style="mix-blend-mode: normal;isolation: isolate">
          <path id="Path_5073" data-name="Path 5073" d="M313.841,159.745l-24.325,91.1h0l-.27,1.023h0l-.444,1.685h0l-.277,1.023-12.7,47.595V244.547l23.8-89.137h.753a1.589,1.589,0,0,1,1.479,1.023l.939,2.3a1.589,1.589,0,0,0,1.454,1.01Z" transform="translate(-275.83 -155.41)" fill="#fff"/>
          <path id="Path_5074" data-name="Path 5074" d="M391.222,234.49v57.57L377.805,342.3H362.44l.283-1.074.405-1.505.8-3.01.4-1.505.8-3.016.405-1.5,12.651-47.363v-.006l.579-2.187Z" transform="translate(-306.735 -183.628)" fill="#fff"/>
          <path id="Path_5075" data-name="Path 5075" d="M323.095,162.15l-24.17,90.533-.148.54-1.331,4.965-.148.54-15.436,57.763H279a2.1,2.1,0,0,1-.579-.077l15.4-57.686.154-.54,1.318-4.965.148-.54,24.17-90.533Z" transform="translate(-276.754 -157.815)" fill="#fff"/>
        </g>
        <g id="Group_3960-2" data-name="Group 3960" transform="translate(-11.582 -48.839)">
          <ellipse id="Ellipse_45" data-name="Ellipse 45" cx="5.587" cy="6.042" rx="5.587" ry="6.042" transform="matrix(0.693, -0.721, 0.721, 0.693, 37.052, 132.813)" fill="#f5f5f5"/>
          <path id="Path_4650" data-name="Path 4650" d="M249.6,351.392a5.3,5.3,0,0,1-5.358,5.813,6.4,6.4,0,0,1-6.276-5.812,5.3,5.3,0,0,1,5.358-5.812A6.4,6.4,0,0,1,249.6,351.392Z" transform="translate(-182.443 -210.581)" fill="#f5f5f5"/>
          <ellipse id="Ellipse_46" data-name="Ellipse 46" cx="5.587" cy="6.042" rx="5.587" ry="6.042" transform="matrix(0.693, -0.721, 0.721, 0.693, 51.68, 124.154)" fill="#f5f5f5"/>
          <path id="Path_4651" data-name="Path 4651" d="M229.612,334.679a.7.7,0,0,1-.342-.091l-16.065-9.217a.706.706,0,0,1-.359-.559.593.593,0,0,1,.269-.559l14.631-9.208a.68.68,0,0,1,.905.225.624.624,0,0,1-.152.892l-13.743,8.662,15.094,8.662a.684.684,0,0,1,.295.892A.593.593,0,0,1,229.612,334.679Z" transform="translate(-168.215 -191.896)" fill="#f5f5f5"/>
        </g>
      </g>
      <g id="freepik--coins-3--inject-76" transform="translate(53.735 236.089)">
        <rect id="Rectangle_4597" data-name="Rectangle 4597" width="39.356" height="6.252" rx="1.35" transform="translate(26.852 44.385)" fill="#ffc917"/>
        <path id="Path_5102" data-name="Path 5102" d="M164.162,406.438v4.5a.868.868,0,0,1-.875.868H125.668a.862.862,0,0,1-.868-.868v-4.5a.862.862,0,0,1,.868-.868h37.613a.868.868,0,0,1,.881.868Z" transform="translate(-97.941 -361.185)" fill="#fff" opacity="0" style="mix-blend-mode: normal;isolation: isolate"/>
        <path id="Path_5103" data-name="Path 5103" d="M177.722,411.647h0a.322.322,0,0,1-.322-.315V406.5a.322.322,0,0,1,.322-.315h0a.315.315,0,0,1,.315.315v4.837A.315.315,0,0,1,177.722,411.647Z" transform="translate(-116.71 -361.402)" opacity="0.2"/>
        <path id="Path_5104" data-name="Path 5104" d="M170.732,411.647h0a.322.322,0,0,1-.322-.315V406.5a.322.322,0,0,1,.322-.315h0a.315.315,0,0,1,.315.315v4.837A.315.315,0,0,1,170.732,411.647Z" transform="translate(-114.216 -361.402)" opacity="0.2"/>
        <path id="Path_5105" data-name="Path 5105" d="M162.985,411.647h0a.315.315,0,0,1-.315-.315V406.5a.315.315,0,0,1,.315-.315h0a.322.322,0,0,1,.322.315v4.837A.322.322,0,0,1,162.985,411.647Z" transform="translate(-111.454 -361.402)" opacity="0.2"/>
        <path id="Path_5106" data-name="Path 5106" d="M183.455,411.647h0a.315.315,0,0,1-.315-.315V406.5a.315.315,0,0,1,.315-.315h0a.315.315,0,0,1,.322.315v4.837a.315.315,0,0,1-.322.315Z" transform="translate(-118.759 -361.402)" opacity="0.2"/>
        <path id="Path_5107" data-name="Path 5107" d="M132.7,406.18h0a.315.315,0,0,1,.315.315v4.837a.315.315,0,0,1-.315.315h0a.315.315,0,0,1-.322-.315V406.5a.315.315,0,0,1,.322-.315Z" transform="translate(-100.646 -361.402)" opacity="0.2"/>
        <path id="Path_5108" data-name="Path 5108" d="M139.685,406.18h0a.315.315,0,0,1,.322.315v4.837a.315.315,0,0,1-.322.315h0a.315.315,0,0,1-.315-.315V406.5A.315.315,0,0,1,139.685,406.18Z" transform="translate(-103.14 -361.402)" opacity="0.2"/>
        <path id="Path_5109" data-name="Path 5109" d="M147.435,406.18h0a.322.322,0,0,1,.322.315v4.837a.322.322,0,0,1-.322.315h0a.315.315,0,0,1-.315-.315V406.5A.315.315,0,0,1,147.435,406.18Z" transform="translate(-105.906 -361.402)" opacity="0.2"/>
        <path id="Path_5110" data-name="Path 5110" d="M126.962,406.18h0a.315.315,0,0,1,.315.315v4.837a.315.315,0,0,1-.315.315h0a.322.322,0,0,1-.322-.315V406.5A.322.322,0,0,1,126.962,406.18Z" transform="translate(-98.598 -361.402)" opacity="0.2"/>
        <path id="Path_5111" data-name="Path 5111" d="M155.212,411.647h0a.315.315,0,0,1-.322-.315V406.5a.315.315,0,0,1,.322-.315h0a.315.315,0,0,1,.315.315v4.837A.315.315,0,0,1,155.212,411.647Z" transform="translate(-108.678 -361.402)" opacity="0.2"/>
        <rect id="Rectangle_4598" data-name="Rectangle 4598" width="39.356" height="6.252" rx="1.35" transform="translate(27.984 38.044)" fill="#ffc917"/>
        <rect id="Rectangle_4599" data-name="Rectangle 4599" width="39.349" height="6.252" rx="1.35" transform="translate(27.991 38.044)" fill="#fff" opacity="0" style="mix-blend-mode: normal;isolation: isolate"/>
        <path id="Path_5112" data-name="Path 5112" d="M179.482,401.787h0a.322.322,0,0,1-.322-.315v-4.837a.322.322,0,0,1,.322-.315h0a.315.315,0,0,1,.315.315v4.837A.315.315,0,0,1,179.482,401.787Z" transform="translate(-117.338 -357.884)" opacity="0.2"/>
        <path id="Path_5113" data-name="Path 5113" d="M172.492,401.787h0a.322.322,0,0,1-.322-.315v-4.837a.322.322,0,0,1,.322-.315h0a.315.315,0,0,1,.315.315v4.837A.315.315,0,0,1,172.492,401.787Z" transform="translate(-114.844 -357.884)" opacity="0.2"/>
        <path id="Path_5114" data-name="Path 5114" d="M164.745,401.787h0a.315.315,0,0,1-.315-.315v-4.837a.315.315,0,0,1,.315-.315h0a.322.322,0,0,1,.322.315v4.837A.322.322,0,0,1,164.745,401.787Z" transform="translate(-112.082 -357.884)" opacity="0.2"/>
        <path id="Path_5115" data-name="Path 5115" d="M185.215,401.787h0a.315.315,0,0,1-.315-.315v-4.837a.315.315,0,0,1,.315-.315h0a.315.315,0,0,1,.322.315v4.837a.315.315,0,0,1-.322.315Z" transform="translate(-119.387 -357.884)" opacity="0.2"/>
        <path id="Path_5116" data-name="Path 5116" d="M134.462,396.32h0a.315.315,0,0,1,.315.315v4.837a.315.315,0,0,1-.315.315h0a.315.315,0,0,1-.322-.315v-4.837a.315.315,0,0,1,.322-.315Z" transform="translate(-101.274 -357.884)" opacity="0.2"/>
        <path id="Path_5117" data-name="Path 5117" d="M141.445,396.32h0a.315.315,0,0,1,.322.315v4.837a.315.315,0,0,1-.322.315h0a.315.315,0,0,1-.315-.315v-4.837A.315.315,0,0,1,141.445,396.32Z" transform="translate(-103.768 -357.884)" opacity="0.2"/>
        <path id="Path_5118" data-name="Path 5118" d="M149.2,396.32h0a.322.322,0,0,1,.322.315v4.837a.322.322,0,0,1-.322.315h0a.315.315,0,0,1-.315-.315v-4.837A.315.315,0,0,1,149.2,396.32Z" transform="translate(-106.534 -357.884)" opacity="0.2"/>
        <path id="Path_5119" data-name="Path 5119" d="M128.722,396.32h0a.315.315,0,0,1,.315.315v4.837a.315.315,0,0,1-.315.315h0a.322.322,0,0,1-.322-.315v-4.837A.322.322,0,0,1,128.722,396.32Z" transform="translate(-99.226 -357.884)" opacity="0.2"/>
        <path id="Path_5120" data-name="Path 5120" d="M156.972,401.787h0a.315.315,0,0,1-.322-.315v-4.837a.315.315,0,0,1,.322-.315h0a.315.315,0,0,1,.315.315v4.837A.315.315,0,0,1,156.972,401.787Z" transform="translate(-109.306 -357.884)" opacity="0.2"/>
        <rect id="Rectangle_4600" data-name="Rectangle 4600" width="39.356" height="6.252" rx="1.35" transform="translate(29.116 31.702)" fill="#ffc917"/>
        <rect id="Rectangle_4601" data-name="Rectangle 4601" width="39.349" height="6.252" rx="1.35" transform="translate(29.123 31.702)" fill="#fff" opacity="0" style="mix-blend-mode: normal;isolation: isolate"/>
        <path id="Path_5121" data-name="Path 5121" d="M181.242,391.971h0a.328.328,0,0,1-.322-.322v-4.824a.322.322,0,0,1,.322-.315h0a.315.315,0,0,1,.315.315v4.837a.322.322,0,0,1-.315.309Z" transform="translate(-117.966 -354.384)" opacity="0.2"/>
        <path id="Path_5122" data-name="Path 5122" d="M174.252,391.971h0a.328.328,0,0,1-.322-.322v-4.824a.322.322,0,0,1,.322-.315h0a.315.315,0,0,1,.315.315v4.837a.322.322,0,0,1-.315.309Z" transform="translate(-115.472 -354.384)" opacity="0.2"/>
        <path id="Path_5123" data-name="Path 5123" d="M166.505,391.971h0a.322.322,0,0,1-.315-.322v-4.824a.315.315,0,0,1,.315-.315h0a.322.322,0,0,1,.322.315v4.837A.328.328,0,0,1,166.505,391.971Z" transform="translate(-112.71 -354.384)" opacity="0.2"/>
        <path id="Path_5124" data-name="Path 5124" d="M186.975,391.97h0a.322.322,0,0,1-.315-.322v-4.824a.315.315,0,0,1,.315-.315h0a.315.315,0,0,1,.322.315v4.837a.322.322,0,0,1-.322.309Z" transform="translate(-120.015 -354.384)" opacity="0.2"/>
        <path id="Path_5125" data-name="Path 5125" d="M136.221,386.46h0a.315.315,0,0,1,.315.315v4.837a.322.322,0,0,1-.315.322h0a.322.322,0,0,1-.322-.322v-4.8a.315.315,0,0,1,.322-.347Z" transform="translate(-101.901 -354.366)" opacity="0.2"/>
        <path id="Path_5126" data-name="Path 5126" d="M143.2,386.46h0a.315.315,0,0,1,.322.315v4.837a.322.322,0,0,1-.322.322h0a.322.322,0,0,1-.315-.322v-4.8a.315.315,0,0,1,.315-.347Z" transform="translate(-104.395 -354.366)" opacity="0.2"/>
        <path id="Path_5127" data-name="Path 5127" d="M150.954,386.46h0a.322.322,0,0,1,.322.315v4.837a.328.328,0,0,1-.322.322h0a.322.322,0,0,1-.315-.322v-4.8a.315.315,0,0,1,.315-.347Z" transform="translate(-107.161 -354.366)" opacity="0.2"/>
        <path id="Path_5128" data-name="Path 5128" d="M130.481,386.46h0a.315.315,0,0,1,.315.315v4.837a.322.322,0,0,1-.315.322h0a.328.328,0,0,1-.322-.322v-4.8a.322.322,0,0,1,.322-.347Z" transform="translate(-99.853 -354.366)" opacity="0.2"/>
        <path id="Path_5129" data-name="Path 5129" d="M158.732,391.97h0a.322.322,0,0,1-.322-.322v-4.824a.315.315,0,0,1,.322-.315h0a.315.315,0,0,1,.315.315v4.837a.322.322,0,0,1-.315.309Z" transform="translate(-109.934 -354.384)" opacity="0.2"/>
        <rect id="Rectangle_4602" data-name="Rectangle 4602" width="39.356" height="6.252" rx="1.35" transform="translate(24.46 25.36)" fill="#ffc917"/>
        <rect id="Rectangle_4603" data-name="Rectangle 4603" width="39.356" height="6.258" rx="1.35" transform="translate(24.46 25.36)" fill="#fff" opacity="0" style="mix-blend-mode: normal;isolation: isolate"/>
        <path id="Path_5130" data-name="Path 5130" d="M174,382.073h0a.315.315,0,0,1-.315-.322v-4.83A.315.315,0,0,1,174,376.6h0a.322.322,0,0,1,.322.322v4.83a.322.322,0,0,1-.322.322Z" transform="translate(-115.383 -350.847)" opacity="0.2"/>
        <path id="Path_5131" data-name="Path 5131" d="M167.005,382.073h0a.315.315,0,0,1-.315-.322v-4.83a.315.315,0,0,1,.315-.322h0a.322.322,0,0,1,.322.322v4.83a.322.322,0,0,1-.322.322Z" transform="translate(-112.889 -350.847)" opacity="0.2"/>
        <path id="Path_5132" data-name="Path 5132" d="M159.262,382.073h0a.322.322,0,0,1-.322-.322v-4.83a.322.322,0,0,1,.322-.322h0a.315.315,0,0,1,.315.322v4.83a.315.315,0,0,1-.315.322Z" transform="translate(-110.123 -350.847)" opacity="0.2"/>
        <path id="Path_5133" data-name="Path 5133" d="M179.732,382.073h0a.322.322,0,0,1-.322-.322v-4.83a.322.322,0,0,1,.322-.322h0a.315.315,0,0,1,.315.322v4.83a.315.315,0,0,1-.315.322Z" transform="translate(-117.428 -350.847)" opacity="0.2"/>
        <path id="Path_5134" data-name="Path 5134" d="M128.972,376.6h0a.315.315,0,0,1,.315.322v4.83a.315.315,0,0,1-.315.322h0a.322.322,0,0,1-.322-.322v-4.83A.322.322,0,0,1,128.972,376.6Z" transform="translate(-99.315 -350.847)" opacity="0.2"/>
        <path id="Path_5135" data-name="Path 5135" d="M135.962,376.6h0a.315.315,0,0,1,.315.322v4.83a.315.315,0,0,1-.315.322h0a.322.322,0,0,1-.322-.322v-4.83A.322.322,0,0,1,135.962,376.6Z" transform="translate(-101.809 -350.847)" opacity="0.2"/>
        <path id="Path_5136" data-name="Path 5136" d="M143.712,376.6h0a.315.315,0,0,1,.315.322v4.83a.315.315,0,0,1-.315.322h0a.322.322,0,0,1-.322-.322v-4.83A.322.322,0,0,1,143.712,376.6Z" transform="translate(-104.575 -350.847)" opacity="0.2"/>
        <path id="Path_5137" data-name="Path 5137" d="M123.235,376.6h0a.322.322,0,0,1,.322.322v4.83a.322.322,0,0,1-.322.322h0a.315.315,0,0,1-.315-.322v-4.83a.315.315,0,0,1,.315-.322Z" transform="translate(-97.27 -350.847)" opacity="0.2"/>
        <path id="Path_5138" data-name="Path 5138" d="M151.485,382.073h0a.315.315,0,0,1-.315-.322v-4.83a.315.315,0,0,1,.315-.322h0a.315.315,0,0,1,.315.322v4.83a.315.315,0,0,1-.315.322Z" transform="translate(-107.351 -350.847)" opacity="0.2"/>
        <rect id="Rectangle_4604" data-name="Rectangle 4604" width="39.356" height="6.252" rx="1.35" transform="translate(26.235 19.025)" fill="#ffc917"/>
        <path id="Path_5139" data-name="Path 5139" d="M163.169,367.008v4.5a.875.875,0,0,1-.862.868H124.682a.868.868,0,0,1-.862-.868v-4.5a.862.862,0,0,1,.862-.868h37.626a.868.868,0,0,1,.862.868Z" transform="translate(-97.591 -347.115)" fill="#fff" opacity="0" style="mix-blend-mode: normal;isolation: isolate"/>
        <path id="Path_5140" data-name="Path 5140" d="M176.755,372.213h0a.315.315,0,0,1-.315-.322v-4.83a.322.322,0,0,1,.315-.322h0a.328.328,0,0,1,.322.322v4.83A.322.322,0,0,1,176.755,372.213Z" transform="translate(-116.368 -347.329)" opacity="0.2"/>
        <path id="Path_5141" data-name="Path 5141" d="M169.765,372.213h0a.315.315,0,0,1-.315-.322v-4.83a.322.322,0,0,1,.315-.322h0a.322.322,0,0,1,.322.322v4.83A.322.322,0,0,1,169.765,372.213Z" transform="translate(-113.874 -347.329)" opacity="0.2"/>
        <path id="Path_5142" data-name="Path 5142" d="M162.022,372.213h0a.322.322,0,0,1-.322-.322v-4.83a.322.322,0,0,1,.322-.322h0a.322.322,0,0,1,.315.322v4.83a.315.315,0,0,1-.315.322Z" transform="translate(-111.108 -347.329)" opacity="0.2"/>
        <path id="Path_5143" data-name="Path 5143" d="M182.492,372.213h0a.322.322,0,0,1-.322-.322v-4.83a.328.328,0,0,1,.322-.322h0a.322.322,0,0,1,.315.322v4.83a.315.315,0,0,1-.315.322Z" transform="translate(-118.412 -347.329)" opacity="0.2"/>
        <path id="Path_5144" data-name="Path 5144" d="M131.732,366.74h0a.322.322,0,0,1,.315.322v4.83a.315.315,0,0,1-.315.322h0a.322.322,0,0,1-.322-.322v-4.83a.328.328,0,0,1,.322-.322Z" transform="translate(-100.3 -347.329)" opacity="0.2"/>
        <path id="Path_5145" data-name="Path 5145" d="M138.722,366.74h0a.322.322,0,0,1,.315.322v4.83a.315.315,0,0,1-.315.322h0a.322.322,0,0,1-.322-.322v-4.83a.328.328,0,0,1,.322-.322Z" transform="translate(-102.794 -347.329)" opacity="0.2"/>
        <path id="Path_5146" data-name="Path 5146" d="M146.472,366.74h0a.322.322,0,0,1,.315.322v4.83a.315.315,0,0,1-.315.322h0a.322.322,0,0,1-.322-.322v-4.83A.322.322,0,0,1,146.472,366.74Z" transform="translate(-105.559 -347.329)" opacity="0.2"/>
        <path id="Path_5147" data-name="Path 5147" d="M126,366.74h0a.322.322,0,0,1,.322.322v4.83a.322.322,0,0,1-.322.322h0a.315.315,0,0,1-.315-.322v-4.83a.322.322,0,0,1,.315-.322Z" transform="translate(-98.255 -347.329)" opacity="0.2"/>
        <path id="Path_5148" data-name="Path 5148" d="M154.245,372.213h0a.315.315,0,0,1-.315-.322v-4.83a.322.322,0,0,1,.315-.322h0a.328.328,0,0,1,.322.322v4.83A.322.322,0,0,1,154.245,372.213Z" transform="translate(-108.336 -347.329)" opacity="0.2"/>
        <path id="Path_5149" data-name="Path 5149" d="M123.83,371.531v-4.5a.862.862,0,0,1,.862-.868h16.722l2.933,6.252H124.692a.868.868,0,0,1-.862-.881Z" transform="translate(-97.595 -347.122)" opacity="0.2"/>
        <path id="Path_5150" data-name="Path 5150" d="M146.314,382.259H121.938a.868.868,0,0,1-.868-.868v-4.5a.868.868,0,0,1,.868-.868h21.443Z" transform="translate(-96.61 -350.64)" opacity="0.2"/>
        <path id="Path_5151" data-name="Path 5151" d="M129.188,385.85H148.94l2.926,6.252H129.188a.862.862,0,0,1-.868-.868v-4.5a.868.868,0,0,1,.868-.881Z" transform="translate(-99.197 -354.148)" opacity="0.2"/>
        <path id="Path_5152" data-name="Path 5152" d="M127.422,395.71h23.862l2.939,6.252h-26.8a.862.862,0,0,1-.862-.868v-4.5a.862.862,0,0,1,.862-.881Z" transform="translate(-98.569 -357.666)" opacity="0.2"/>
        <path id="Path_5153" data-name="Path 5153" d="M156.561,411.829H125.688a.862.862,0,0,1-.868-.868v-4.5a.862.862,0,0,1,.868-.868h27.952Z" transform="translate(-97.948 -361.192)" opacity="0.2"/>
        <rect id="Rectangle_4605" data-name="Rectangle 4605" width="39.356" height="6.252" rx="1.35" transform="translate(1.113 44.385)" fill="#ffc917"/>
        <rect id="Rectangle_4606" data-name="Rectangle 4606" width="39.356" height="6.252" rx="1.35" transform="translate(1.113 44.385)" fill="#fff" opacity="0" style="mix-blend-mode: normal;isolation: isolate"/>
        <path id="Path_5154" data-name="Path 5154" d="M137.7,411.647h0a.315.315,0,0,1-.315-.315V406.5a.315.315,0,0,1,.315-.315h0a.322.322,0,0,1,.322.315v4.837A.322.322,0,0,1,137.7,411.647Z" transform="translate(-102.43 -361.402)" opacity="0.2"/>
        <path id="Path_5155" data-name="Path 5155" d="M130.705,411.647h0a.315.315,0,0,1-.315-.315V406.5a.315.315,0,0,1,.315-.315h0a.315.315,0,0,1,.322.315v4.837a.315.315,0,0,1-.322.315Z" transform="translate(-99.936 -361.402)" opacity="0.2"/>
        <path id="Path_5156" data-name="Path 5156" d="M122.962,411.647h0a.315.315,0,0,1-.322-.315V406.5a.315.315,0,0,1,.322-.315h0a.315.315,0,0,1,.315.315v4.837A.315.315,0,0,1,122.962,411.647Z" transform="translate(-97.17 -361.402)" opacity="0.2"/>
        <path id="Path_5157" data-name="Path 5157" d="M143.432,411.647h0a.322.322,0,0,1-.322-.315V406.5a.322.322,0,0,1,.322-.315h0a.315.315,0,0,1,.315.315v4.837A.315.315,0,0,1,143.432,411.647Z" transform="translate(-104.475 -361.402)" opacity="0.2"/>
        <path id="Path_5158" data-name="Path 5158" d="M92.675,406.18h0a.315.315,0,0,1,.315.315v4.837a.315.315,0,0,1-.315.315h0a.315.315,0,0,1-.315-.315V406.5A.315.315,0,0,1,92.675,406.18Z" transform="translate(-86.366 -361.402)" opacity="0.2"/>
        <path id="Path_5159" data-name="Path 5159" d="M99.662,406.18h0a.315.315,0,0,1,.315.315v4.837a.315.315,0,0,1-.315.315h0a.322.322,0,0,1-.322-.315V406.5A.322.322,0,0,1,99.662,406.18Z" transform="translate(-88.856 -361.402)" opacity="0.2"/>
        <path id="Path_5160" data-name="Path 5160" d="M107.412,406.18h0a.315.315,0,0,1,.315.315v4.837a.315.315,0,0,1-.315.315h0a.315.315,0,0,1-.322-.315V406.5a.315.315,0,0,1,.322-.315Z" transform="translate(-91.622 -361.402)" opacity="0.2"/>
        <path id="Path_5161" data-name="Path 5161" d="M86.935,406.18h0a.315.315,0,0,1,.322.315v4.837a.315.315,0,0,1-.322.315h0a.315.315,0,0,1-.315-.315V406.5A.315.315,0,0,1,86.935,406.18Z" transform="translate(-84.317 -361.402)" opacity="0.2"/>
        <path id="Path_5162" data-name="Path 5162" d="M115.185,411.647h0a.315.315,0,0,1-.315-.315V406.5a.315.315,0,0,1,.315-.315h0a.322.322,0,0,1,.322.315v4.837A.322.322,0,0,1,115.185,411.647Z" transform="translate(-94.398 -361.402)" opacity="0.2"/>
        <rect id="Rectangle_4607" data-name="Rectangle 4607" width="39.356" height="6.252" rx="1.35" transform="translate(2.245 38.044)" fill="#ffc917"/>
        <rect id="Rectangle_4608" data-name="Rectangle 4608" width="39.356" height="6.252" rx="1.35" transform="translate(2.245 38.044)" fill="#fff" opacity="0" style="mix-blend-mode: normal;isolation: isolate"/>
        <path id="Path_5163" data-name="Path 5163" d="M139.455,401.787h0a.315.315,0,0,1-.315-.315v-4.837a.315.315,0,0,1,.315-.315h0a.322.322,0,0,1,.322.315v4.837A.322.322,0,0,1,139.455,401.787Z" transform="translate(-103.058 -357.884)" opacity="0.2"/>
        <path id="Path_5164" data-name="Path 5164" d="M132.465,401.787h0a.315.315,0,0,1-.315-.315v-4.837a.315.315,0,0,1,.315-.315h0a.315.315,0,0,1,.322.315v4.837a.315.315,0,0,1-.322.315Z" transform="translate(-100.564 -357.884)" opacity="0.2"/>
        <path id="Path_5165" data-name="Path 5165" d="M124.722,401.787h0a.315.315,0,0,1-.322-.315v-4.837a.315.315,0,0,1,.322-.315h0a.315.315,0,0,1,.315.315v4.837A.315.315,0,0,1,124.722,401.787Z" transform="translate(-97.798 -357.884)" opacity="0.2"/>
        <path id="Path_5166" data-name="Path 5166" d="M145.192,401.787h0a.322.322,0,0,1-.322-.315v-4.837a.322.322,0,0,1,.322-.315h0a.315.315,0,0,1,.315.315v4.837A.315.315,0,0,1,145.192,401.787Z" transform="translate(-105.103 -357.884)" opacity="0.2"/>
        <path id="Path_5167" data-name="Path 5167" d="M94.435,396.32h0a.315.315,0,0,1,.315.315v4.837a.315.315,0,0,1-.315.315h0a.315.315,0,0,1-.315-.315v-4.837A.315.315,0,0,1,94.435,396.32Z" transform="translate(-86.994 -357.884)" opacity="0.2"/>
        <path id="Path_5168" data-name="Path 5168" d="M101.422,396.32h0a.315.315,0,0,1,.315.315v4.837a.315.315,0,0,1-.315.315h0a.322.322,0,0,1-.322-.315v-4.837A.322.322,0,0,1,101.422,396.32Z" transform="translate(-89.484 -357.884)" opacity="0.2"/>
        <path id="Path_5169" data-name="Path 5169" d="M109.172,396.32h0a.315.315,0,0,1,.315.315v4.837a.315.315,0,0,1-.315.315h0a.315.315,0,0,1-.322-.315v-4.837a.315.315,0,0,1,.322-.315Z" transform="translate(-92.25 -357.884)" opacity="0.2"/>
        <path id="Path_5170" data-name="Path 5170" d="M88.7,396.32h0a.315.315,0,0,1,.322.315v4.837a.315.315,0,0,1-.322.315h0a.315.315,0,0,1-.315-.315v-4.837A.315.315,0,0,1,88.7,396.32Z" transform="translate(-84.945 -357.884)" opacity="0.2"/>
        <path id="Path_5171" data-name="Path 5171" d="M116.945,401.787h0a.315.315,0,0,1-.315-.315v-4.837a.315.315,0,0,1,.315-.315h0a.322.322,0,0,1,.322.315v4.837A.322.322,0,0,1,116.945,401.787Z" transform="translate(-95.026 -357.884)" opacity="0.2"/>
        <rect id="Rectangle_4609" data-name="Rectangle 4609" width="39.356" height="6.252" rx="1.35" transform="translate(0.154 31.702)" fill="#ffc917"/>
        <rect id="Rectangle_4610" data-name="Rectangle 4610" width="39.356" height="6.252" rx="1.35" transform="translate(0.154 31.702)" fill="#fff" opacity="0" style="mix-blend-mode: normal;isolation: isolate"/>
        <path id="Path_5172" data-name="Path 5172" d="M136.212,391.971h0a.328.328,0,0,1-.322-.322v-4.824a.322.322,0,0,1,.322-.315h0a.315.315,0,0,1,.315.315v4.837a.322.322,0,0,1-.315.309Z" transform="translate(-101.898 -354.384)" opacity="0.2"/>
        <path id="Path_5173" data-name="Path 5173" d="M129.225,391.971h0a.322.322,0,0,1-.315-.322v-4.824a.315.315,0,0,1,.315-.315h0a.315.315,0,0,1,.315.315v4.837a.322.322,0,0,1-.315.309Z" transform="translate(-99.408 -354.384)" opacity="0.2"/>
        <path id="Path_5174" data-name="Path 5174" d="M121.475,391.971h0a.322.322,0,0,1-.315-.322v-4.824a.315.315,0,0,1,.315-.315h0a.322.322,0,0,1,.322.315v4.837A.328.328,0,0,1,121.475,391.971Z" transform="translate(-96.642 -354.384)" opacity="0.2"/>
        <path id="Path_5175" data-name="Path 5175" d="M141.952,391.97h0a.322.322,0,0,1-.322-.322v-4.824a.315.315,0,0,1,.322-.315h0a.315.315,0,0,1,.315.315v4.837a.322.322,0,0,1-.315.309Z" transform="translate(-103.947 -354.384)" opacity="0.2"/>
        <path id="Path_5176" data-name="Path 5176" d="M91.191,386.46h0a.315.315,0,0,1,.315.315v4.837a.322.322,0,0,1-.315.322h0a.322.322,0,0,1-.322-.322v-4.8a.315.315,0,0,1,.322-.347Z" transform="translate(-85.833 -354.366)" opacity="0.2"/>
        <path id="Path_5177" data-name="Path 5177" d="M98.181,386.46h0a.315.315,0,0,1,.315.315v4.837a.322.322,0,0,1-.315.322h0a.322.322,0,0,1-.322-.322v-4.8a.315.315,0,0,1,.322-.347Z" transform="translate(-88.327 -354.366)" opacity="0.2"/>
        <path id="Path_5178" data-name="Path 5178" d="M105.924,386.46h0a.322.322,0,0,1,.322.315v4.837a.328.328,0,0,1-.322.322h0a.322.322,0,0,1-.315-.322v-4.8a.315.315,0,0,1,.315-.347Z" transform="translate(-91.093 -354.366)" opacity="0.2"/>
        <path id="Path_5179" data-name="Path 5179" d="M85.454,386.46h0a.315.315,0,0,1,.315.315v4.837a.322.322,0,0,1-.315.322h0a.322.322,0,0,1-.315-.322v-4.8a.315.315,0,0,1,.315-.347Z" transform="translate(-83.788 -354.366)" opacity="0.2"/>
        <path id="Path_5180" data-name="Path 5180" d="M113.7,391.971h0a.328.328,0,0,1-.322-.322v-4.824a.322.322,0,0,1,.322-.315h0a.315.315,0,0,1,.315.315v4.837a.322.322,0,0,1-.315.309Z" transform="translate(-93.866 -354.384)" opacity="0.2"/>
        <rect id="Rectangle_4611" data-name="Rectangle 4611" width="39.356" height="6.252" rx="1.35" transform="translate(0 25.36)" fill="#ffc917"/>
        <rect id="Rectangle_4612" data-name="Rectangle 4612" width="39.356" height="6.252" rx="1.35" transform="translate(0 25.36)" fill="#fff" opacity="0" style="mix-blend-mode: normal;isolation: isolate"/>
        <path id="Path_5181" data-name="Path 5181" d="M135.972,382.073h0a.322.322,0,0,1-.322-.322v-4.83a.322.322,0,0,1,.322-.322h0a.315.315,0,0,1,.315.322v4.83a.315.315,0,0,1-.315.322Z" transform="translate(-101.813 -350.847)" opacity="0.2"/>
        <path id="Path_5182" data-name="Path 5182" d="M128.982,382.073h0a.322.322,0,0,1-.322-.322v-4.83a.322.322,0,0,1,.322-.322h0a.315.315,0,0,1,.315.322v4.83a.315.315,0,0,1-.315.322Z" transform="translate(-99.319 -350.847)" opacity="0.2"/>
        <path id="Path_5183" data-name="Path 5183" d="M121.235,382.073h0a.315.315,0,0,1-.315-.322v-4.83a.315.315,0,0,1,.315-.322h0a.322.322,0,0,1,.322.322v4.83a.322.322,0,0,1-.322.322Z" transform="translate(-96.557 -350.847)" opacity="0.2"/>
        <path id="Path_5184" data-name="Path 5184" d="M141.705,382.073h0a.315.315,0,0,1-.315-.322v-4.83a.315.315,0,0,1,.315-.322h0a.322.322,0,0,1,.322.322v4.83a.322.322,0,0,1-.322.322Z" transform="translate(-103.861 -350.847)" opacity="0.2"/>
        <path id="Path_5185" data-name="Path 5185" d="M90.952,376.6h0a.315.315,0,0,1,.315.322v4.83a.315.315,0,0,1-.315.322h0a.322.322,0,0,1-.322-.322v-4.83A.322.322,0,0,1,90.952,376.6Z" transform="translate(-85.748 -350.847)" opacity="0.2"/>
        <path id="Path_5186" data-name="Path 5186" d="M97.935,376.6h0a.322.322,0,0,1,.322.322v4.83a.322.322,0,0,1-.322.322h0a.315.315,0,0,1-.315-.322v-4.83a.315.315,0,0,1,.315-.322Z" transform="translate(-88.243 -350.847)" opacity="0.2"/>
        <path id="Path_5187" data-name="Path 5187" d="M105.685,376.6h0a.322.322,0,0,1,.322.322v4.83a.322.322,0,0,1-.322.322h0a.315.315,0,0,1-.315-.322v-4.83a.315.315,0,0,1,.315-.322Z" transform="translate(-91.008 -350.847)" opacity="0.2"/>
        <path id="Path_5188" data-name="Path 5188" d="M85.212,376.6h0a.315.315,0,0,1,.315.322v4.83a.315.315,0,0,1-.315.322h0a.322.322,0,0,1-.322-.322v-4.83A.322.322,0,0,1,85.212,376.6Z" transform="translate(-83.7 -350.847)" opacity="0.2"/>
        <path id="Path_5189" data-name="Path 5189" d="M113.462,382.073h0a.322.322,0,0,1-.322-.322v-4.83a.322.322,0,0,1,.322-.322h0a.315.315,0,0,1,.315.322v4.83a.315.315,0,0,1-.315.322Z" transform="translate(-93.781 -350.847)" opacity="0.2"/>
        <rect id="Rectangle_4613" data-name="Rectangle 4613" width="39.356" height="6.252" rx="1.35" transform="translate(1.775 19.025)" fill="#ffc917"/>
        <rect id="Rectangle_4614" data-name="Rectangle 4614" width="39.356" height="6.252" rx="1.35" transform="translate(1.775 19.025)" fill="#fff" opacity="0" style="mix-blend-mode: normal;isolation: isolate"/>
        <path id="Path_5190" data-name="Path 5190" d="M138.732,372.213h0a.322.322,0,0,1-.322-.322v-4.83a.328.328,0,0,1,.322-.322h0a.322.322,0,0,1,.315.322v4.83a.315.315,0,0,1-.315.322Z" transform="translate(-102.798 -347.329)" opacity="0.2"/>
        <path id="Path_5191" data-name="Path 5191" d="M131.742,372.213h0a.322.322,0,0,1-.322-.322v-4.83a.328.328,0,0,1,.322-.322h0a.322.322,0,0,1,.315.322v4.83a.315.315,0,0,1-.315.322Z" transform="translate(-100.303 -347.329)" opacity="0.2"/>
        <path id="Path_5192" data-name="Path 5192" d="M124,372.213h0a.315.315,0,0,1-.315-.322v-4.83a.322.322,0,0,1,.315-.322h0a.328.328,0,0,1,.322.322v4.83A.322.322,0,0,1,124,372.213Z" transform="translate(-97.541 -347.329)" opacity="0.2"/>
        <path id="Path_5193" data-name="Path 5193" d="M144.465,372.213h0a.315.315,0,0,1-.315-.322v-4.83a.322.322,0,0,1,.315-.322h0a.322.322,0,0,1,.322.322v4.83A.322.322,0,0,1,144.465,372.213Z" transform="translate(-104.846 -347.329)" opacity="0.2"/>
        <path id="Path_5194" data-name="Path 5194" d="M93.712,366.74h0a.322.322,0,0,1,.315.322v4.83a.315.315,0,0,1-.315.322h0a.322.322,0,0,1-.322-.322v-4.83A.322.322,0,0,1,93.712,366.74Z" transform="translate(-86.733 -347.329)" opacity="0.2"/>
        <path id="Path_5195" data-name="Path 5195" d="M100.7,366.74h0a.322.322,0,0,1,.322.322v4.83a.322.322,0,0,1-.322.322h0a.315.315,0,0,1-.315-.322v-4.83a.322.322,0,0,1,.315-.322Z" transform="translate(-89.227 -347.329)" opacity="0.2"/>
        <path id="Path_5196" data-name="Path 5196" d="M108.445,366.74h0a.328.328,0,0,1,.322.322v4.83a.322.322,0,0,1-.322.322h0a.315.315,0,0,1-.315-.322v-4.83a.322.322,0,0,1,.315-.322Z" transform="translate(-91.993 -347.329)" opacity="0.2"/>
        <path id="Path_5197" data-name="Path 5197" d="M87.972,366.74h0a.322.322,0,0,1,.315.322v4.83a.315.315,0,0,1-.315.322h0a.322.322,0,0,1-.322-.322v-4.83a.328.328,0,0,1,.322-.322Z" transform="translate(-84.685 -347.329)" opacity="0.2"/>
        <path id="Path_5198" data-name="Path 5198" d="M116.222,372.213h0a.322.322,0,0,1-.322-.322v-4.83a.322.322,0,0,1,.322-.322h0a.322.322,0,0,1,.315.322v4.83a.315.315,0,0,1-.315.322Z" transform="translate(-94.765 -347.329)" opacity="0.2"/>
        <rect id="Rectangle_4615" data-name="Rectangle 4615" width="39.356" height="6.252" rx="1.35" transform="translate(0.334 12.683)" fill="#ffc917"/>
        <rect id="Rectangle_4616" data-name="Rectangle 4616" width="39.356" height="6.252" rx="1.35" transform="translate(0.334 12.683)" fill="#fff" opacity="0" style="mix-blend-mode: normal;isolation: isolate"/>
        <path id="Path_5199" data-name="Path 5199" d="M136.492,362.357h0a.315.315,0,0,1-.322-.315v-4.837a.315.315,0,0,1,.322-.315h0a.315.315,0,0,1,.315.315v4.837A.315.315,0,0,1,136.492,362.357Z" transform="translate(-101.998 -343.814)" opacity="0.2"/>
        <path id="Path_5200" data-name="Path 5200" d="M129.5,362.357h0a.315.315,0,0,1-.322-.315v-4.837a.315.315,0,0,1,.322-.315h0a.315.315,0,0,1,.315.315v4.837A.315.315,0,0,1,129.5,362.357Z" transform="translate(-99.504 -343.814)" opacity="0.2"/>
        <path id="Path_5201" data-name="Path 5201" d="M121.752,362.357h0a.322.322,0,0,1-.322-.315v-4.837a.322.322,0,0,1,.322-.315h0a.315.315,0,0,1,.315.315v4.837A.315.315,0,0,1,121.752,362.357Z" transform="translate(-96.739 -343.814)" opacity="0.2"/>
        <path id="Path_5202" data-name="Path 5202" d="M142.225,362.357h0a.315.315,0,0,1-.315-.315v-4.837a.315.315,0,0,1,.315-.315h0a.322.322,0,0,1,.322.315v4.837A.322.322,0,0,1,142.225,362.357Z" transform="translate(-104.046 -343.814)" opacity="0.2"/>
        <path id="Path_5203" data-name="Path 5203" d="M91.465,356.89h0a.322.322,0,0,1,.322.315v4.837a.322.322,0,0,1-.322.315h0a.315.315,0,0,1-.315-.315v-4.837A.315.315,0,0,1,91.465,356.89Z" transform="translate(-85.934 -343.814)" opacity="0.2"/>
        <path id="Path_5204" data-name="Path 5204" d="M98.455,356.89h0a.322.322,0,0,1,.322.315v4.837a.322.322,0,0,1-.322.315h0a.315.315,0,0,1-.315-.315v-4.837A.315.315,0,0,1,98.455,356.89Z" transform="translate(-88.428 -343.814)" opacity="0.2"/>
        <path id="Path_5205" data-name="Path 5205" d="M106.2,356.89h0a.315.315,0,0,1,.315.315v4.837a.315.315,0,0,1-.315.315h0a.322.322,0,0,1-.322-.315v-4.837A.322.322,0,0,1,106.2,356.89Z" transform="translate(-91.19 -343.814)" opacity="0.2"/>
        <path id="Path_5206" data-name="Path 5206" d="M85.732,356.89h0a.315.315,0,0,1,.315.315v4.837a.315.315,0,0,1-.315.315h0a.315.315,0,0,1-.322-.315v-4.837a.315.315,0,0,1,.322-.315Z" transform="translate(-83.886 -343.814)" opacity="0.2"/>
        <path id="Path_5207" data-name="Path 5207" d="M113.975,362.357h0a.315.315,0,0,1-.315-.315v-4.837a.315.315,0,0,1,.315-.315h0a.315.315,0,0,1,.322.315v4.837a.315.315,0,0,1-.322.315Z" transform="translate(-93.966 -343.814)" opacity="0.2"/>
        <rect id="Rectangle_4617" data-name="Rectangle 4617" width="39.356" height="6.252" rx="1.35" transform="translate(2.11 6.342)" fill="#ffc917"/>
        <rect id="Rectangle_4618" data-name="Rectangle 4618" width="39.356" height="6.252" rx="1.35" transform="translate(2.11 6.342)" fill="#fff" opacity="0" style="mix-blend-mode: normal;isolation: isolate"/>
        <path id="Path_5208" data-name="Path 5208" d="M139.252,352.5h0a.315.315,0,0,1-.322-.315v-4.837a.315.315,0,0,1,.322-.315h0a.315.315,0,0,1,.315.315v4.811a.315.315,0,0,1-.315.341Z" transform="translate(-102.983 -340.296)" opacity="0.2"/>
        <path id="Path_5209" data-name="Path 5209" d="M132.262,352.5h0a.315.315,0,0,1-.322-.315v-4.837a.315.315,0,0,1,.322-.315h0a.315.315,0,0,1,.315.315v4.811a.315.315,0,0,1-.315.341Z" transform="translate(-100.489 -340.296)" opacity="0.2"/>
        <path id="Path_5210" data-name="Path 5210" d="M124.515,352.5h0a.315.315,0,0,1-.315-.315v-4.837a.315.315,0,0,1,.315-.315h0a.315.315,0,0,1,.315.315v4.811a.315.315,0,0,1-.315.341Z" transform="translate(-97.727 -340.296)" opacity="0.2"/>
        <path id="Path_5211" data-name="Path 5211" d="M144.985,352.5h0a.315.315,0,0,1-.315-.315v-4.837a.315.315,0,0,1,.315-.315h0a.322.322,0,0,1,.322.315v4.811a.322.322,0,0,1-.322.341Z" transform="translate(-105.031 -340.296)" opacity="0.2"/>
        <path id="Path_5212" data-name="Path 5212" d="M94.225,347h0a.315.315,0,0,1,.322.315v4.83a.315.315,0,0,1-.322.315h0a.315.315,0,0,1-.315-.315v-4.837a.315.315,0,0,1,.315-.309Z" transform="translate(-86.919 -340.285)" opacity="0.2"/>
        <path id="Path_5213" data-name="Path 5213" d="M101.215,347h0a.322.322,0,0,1,.322.315v4.83a.322.322,0,0,1-.322.315h0a.315.315,0,0,1-.315-.315v-4.837A.315.315,0,0,1,101.215,347Z" transform="translate(-89.413 -340.285)" opacity="0.2"/>
        <path id="Path_5214" data-name="Path 5214" d="M108.965,347h0a.315.315,0,0,1,.315.315v4.83a.315.315,0,0,1-.315.315h0a.315.315,0,0,1-.315-.315v-4.837a.315.315,0,0,1,.315-.309Z" transform="translate(-92.178 -340.285)" opacity="0.2"/>
        <path id="Path_5215" data-name="Path 5215" d="M88.492,347h0a.315.315,0,0,1,.315.315v4.83a.315.315,0,0,1-.315.315h0a.322.322,0,0,1-.322-.315v-4.837a.322.322,0,0,1,.322-.309Z" transform="translate(-84.871 -340.285)" opacity="0.2"/>
        <path id="Path_5216" data-name="Path 5216" d="M116.735,352.5h0a.315.315,0,0,1-.315-.315v-4.837a.315.315,0,0,1,.315-.315h0a.315.315,0,0,1,.322.315v4.811a.315.315,0,0,1-.322.341Z" transform="translate(-94.951 -340.296)" opacity="0.2"/>
        <rect id="Rectangle_4619" data-name="Rectangle 4619" width="39.356" height="6.252" rx="1.35" transform="translate(1.955)" fill="#ffc917"/>
        <rect id="Rectangle_4620" data-name="Rectangle 4620" width="39.356" height="6.252" rx="1.35" transform="translate(1.955)" fill="#fff" opacity="0" style="mix-blend-mode: normal;isolation: isolate"/>
        <path id="Path_5217" data-name="Path 5217" d="M139.005,342.637h0a.315.315,0,0,1-.315-.315v-4.837a.315.315,0,0,1,.315-.315h0a.315.315,0,0,1,.322.315v4.837a.315.315,0,0,1-.322.315Z" transform="translate(-102.897 -336.778)" opacity="0.2"/>
        <path id="Path_5218" data-name="Path 5218" d="M132.022,342.637h0a.315.315,0,0,1-.322-.315v-4.837a.315.315,0,0,1,.322-.315h0a.315.315,0,0,1,.315.315v4.837a.315.315,0,0,1-.315.315Z" transform="translate(-100.403 -336.778)" opacity="0.2"/>
        <path id="Path_5219" data-name="Path 5219" d="M124.272,342.637h0a.322.322,0,0,1-.322-.315v-4.837a.322.322,0,0,1,.322-.315h0a.315.315,0,0,1,.315.315v4.837a.315.315,0,0,1-.315.315Z" transform="translate(-97.638 -336.778)" opacity="0.2"/>
        <path id="Path_5220" data-name="Path 5220" d="M144.745,342.637h0a.315.315,0,0,1-.315-.315v-4.837a.315.315,0,0,1,.315-.315h0a.322.322,0,0,1,.322.315v4.837A.322.322,0,0,1,144.745,342.637Z" transform="translate(-104.946 -336.778)" opacity="0.2"/>
        <path id="Path_5221" data-name="Path 5221" d="M93.985,337.17h0a.322.322,0,0,1,.322.315v4.837a.322.322,0,0,1-.322.315h0a.315.315,0,0,1-.315-.315v-4.837A.315.315,0,0,1,93.985,337.17Z" transform="translate(-86.833 -336.778)" opacity="0.2"/>
        <path id="Path_5222" data-name="Path 5222" d="M100.975,337.17h0a.322.322,0,0,1,.322.315v4.837a.322.322,0,0,1-.322.315h0a.315.315,0,0,1-.315-.315v-4.837A.315.315,0,0,1,100.975,337.17Z" transform="translate(-89.327 -336.778)" opacity="0.2"/>
        <path id="Path_5223" data-name="Path 5223" d="M108.722,337.17h0a.315.315,0,0,1,.315.315v4.837a.315.315,0,0,1-.315.315h0a.322.322,0,0,1-.322-.315v-4.837A.322.322,0,0,1,108.722,337.17Z" transform="translate(-92.089 -336.778)" opacity="0.2"/>
        <path id="Path_5224" data-name="Path 5224" d="M88.252,337.17h0a.315.315,0,0,1,.315.315v4.837a.315.315,0,0,1-.315.315h0a.315.315,0,0,1-.322-.315v-4.837a.315.315,0,0,1,.322-.315Z" transform="translate(-84.785 -336.778)" opacity="0.2"/>
        <path id="Path_5225" data-name="Path 5225" d="M116.5,342.637h0a.315.315,0,0,1-.315-.315v-4.837a.315.315,0,0,1,.315-.315h0a.315.315,0,0,1,.322.315v4.837a.315.315,0,0,1-.322.315Z" transform="translate(-94.865 -336.778)" opacity="0.2"/>
      </g>
      <g id="freepik--coin-2--inject-76" transform="translate(46.938 173.209)">
        <circle id="Ellipse_55" data-name="Ellipse 55" cx="19.675" cy="19.675" r="19.675" transform="matrix(0.552, -0.834, 0.834, 0.552, 0, 32.802)" fill="#ffc917"/>
        <path id="Path_5226" data-name="Path 5226" d="M121.13,279.878a19.668,19.668,0,0,1-26.139,7.911c-.219-.1-.424-.219-.643-.334a19.675,19.675,0,0,1,11.641-36.744,18.361,18.361,0,0,1,3.332.643,19.185,19.185,0,0,1,4.213,1.743A19.681,19.681,0,0,1,121.13,279.878Z" transform="translate(-76.682 -243.008)" fill="#fff" opacity="0.003" style="mix-blend-mode: normal;isolation: isolate"/>
        <path id="Path_5227" data-name="Path 5227" d="M107.783,273.714c.257,1.286,1.531,1.64,3.177,1.782L110,270.73C108.149,271.412,107.545,272.537,107.783,273.714Z" transform="translate(-85.054 -250.19)" opacity="0.1"/>
        <path id="Path_5228" data-name="Path 5228" d="M117.36,283.36l.965,4.74c1.93-.688,2.573-1.769,2.309-2.92C120.344,283.868,119.058,283.489,117.36,283.36Z" transform="translate(-88.489 -254.696)" opacity="0.1"/>
        <path id="Path_5229" data-name="Path 5229" d="M101.509,253.991a17.726,17.726,0,1,0,20.9,13.848,17.726,17.726,0,0,0-20.9-13.848Zm8.007,10.677a11.326,11.326,0,0,0-4.631-.566l1.093,5.409c3.119.122,6.554.4,7.306,4.123.553,2.733-.978,5.5-5.094,6.779l.643,3-2.2.444-.6-2.971a11.923,11.923,0,0,1-7.011-.894l.643-2.946a10.516,10.516,0,0,0,5.789.945l-1.087-5.358c-3.119-.122-6.5-.437-7.255-4.161-.56-2.733.939-5.518,5.036-6.766l-.611-3.029,2.2-.444.6,2.971a11.712,11.712,0,0,1,5.789.534Z" transform="translate(-77.765 -244.089)" opacity="0.1"/>
        <g id="Group_3956" data-name="Group 3956" transform="translate(7.589 7.703)" opacity="0.1">
          <path id="Path_5230" data-name="Path 5230" d="M100.877,251,88.464,282.567A19.668,19.668,0,0,1,100.877,251Z" transform="translate(-84.271 -250.852)" fill="#fff"/>
          <path id="Path_5231" data-name="Path 5231" d="M113.674,251.42,99.338,287.849c-.219-.1-.424-.219-.643-.334a18.922,18.922,0,0,1-2.245-1.46l13.886-35.284A18.362,18.362,0,0,1,113.674,251.42Z" transform="translate(-88.617 -250.77)" fill="#fff"/>
        </g>
      </g>
      <g id="freepik--coin-1--inject-76" transform="translate(71.529 128.2)">
        <circle id="Ellipse_56" data-name="Ellipse 56" cx="19.675" cy="19.675" r="19.675" transform="translate(0 14.957) rotate(-22.34)" fill="#ffc917"/>
        <path id="Path_5232" data-name="Path 5232" d="M157.876,205.372A19.668,19.668,0,0,1,132.792,216.2c-.225-.077-.444-.167-.643-.257a18.872,18.872,0,0,1-2.393-1.2,19.231,19.231,0,0,1-4.033-3.145,19.675,19.675,0,0,1,8.747-32.8,19.444,19.444,0,0,1,5.068-.714,18.265,18.265,0,0,1,3.383.264,19.175,19.175,0,0,1,4.386,1.286A19.681,19.681,0,0,1,157.876,205.372Z" transform="translate(-114.035 -172.123)" fill="#fff" opacity="0" style="mix-blend-mode: normal;isolation: isolate"/>
        <path id="Path_5233" data-name="Path 5233" d="M147.979,199.162c-.5,1.209.347,2.219,1.634,3.254l1.872-4.5C149.58,197.457,148.442,198.049,147.979,199.162Z" transform="translate(-123.954 -179.142)" opacity="0.1"/>
        <path id="Path_5234" data-name="Path 5234" d="M150.455,211.91l-1.865,4.5c1.93.489,3.1-.045,3.55-1.126C152.655,214.02,151.787,212.971,150.455,211.91Z" transform="translate(-124.224 -184.192)" opacity="0.1"/>
        <path id="Path_5235" data-name="Path 5235" d="M147.626,182.529a17.726,17.726,0,1,0,9.532,23.186,17.726,17.726,0,0,0-9.532-23.186Zm.643,13.333a11.23,11.23,0,0,0-3.518-3.068l-2.129,5.094c2.515,1.852,5.2,4.007,3.737,7.512-1.074,2.573-3.891,4-8.02,2.753l-1.164,2.824-2.065-.862,1.171-2.8a11.758,11.758,0,0,1-5.306-4.676l2.193-2.071a10.542,10.542,0,0,0,4.245,4.02l2.11-5.042c-2.515-1.852-5.145-4.013-3.679-7.519,1.074-2.573,3.859-4.039,7.975-2.772l1.19-2.849,2.065.862-1.183,2.791a11.764,11.764,0,0,1,4.5,3.679Z" transform="translate(-115.124 -173.218)" opacity="0.1"/>
        <g id="Group_3957" data-name="Group 3957" transform="translate(5.987 5.966)" opacity="0.1">
          <path id="Path_5236" data-name="Path 5236" d="M134.451,179.24l-8.747,32.8a19.675,19.675,0,0,1,8.747-32.8Z" transform="translate(-120.015 -178.5)" fill="#fff"/>
          <path id="Path_5237" data-name="Path 5237" d="M148.31,178.379l-10.1,37.825c-.225-.077-.444-.167-.643-.257a18.872,18.872,0,0,1-2.393-1.2l9.783-36.661A18.268,18.268,0,0,1,148.31,178.379Z" transform="translate(-125.423 -178.089)" fill="#fff"/>
        </g>
      </g>
    </g>
    <g id="freepik--Rewards--inject-2" transform="translate(618.666 1867.464)">
      <path id="Path_4844" data-name="Path 4844" d="M107.034,353.24c-2.785.289-12.024.993-15.231-2.624a4.576,4.576,0,0,1-.986-4.455c.671-2.764,2.751-4.14,5.656-4.14h0c3.8,0,8.83,2.6,11.406,5.73,1.718-2.986,5.079-7.508,10.132-6.991,3.67.369,6.441,3.16,6.18,6.227-.141,1.651-1.691,6.844-15.473,6.206l-1.027,2.717ZM96.48,345.048h0c-1.5,0-2.328.49-2.684,1.892a1.49,1.49,0,0,0,.309,1.624c1.711,1.932,7.8,2.187,11.99,1.818C104.558,347.926,99.835,345.048,96.48,345.048Zm13.5,5.12c8.521.215,11.064-2.087,11.178-3.442.1-1.2-1.342-2.684-3.422-2.905a3.853,3.853,0,0,0-.476,0c-3.663-.027-6.227,4.227-7.28,6.347Z" transform="translate(-11.281 -48.584)" fill="#1f3486"/>
      <rect id="Rectangle_4492" data-name="Rectangle 4492" width="59.824" height="41.097" transform="translate(126.651 344.096) rotate(180)" fill="#5dc0ec"/>
      <rect id="Rectangle_4493" data-name="Rectangle 4493" width="59.824" height="41.097" transform="translate(126.651 344.096) rotate(180)" fill="#4a95cd" opacity="0.793"/>
      <rect id="Rectangle_4495" data-name="Rectangle 4495" width="23.772" height="41.097" transform="translate(126.645 344.096) rotate(180)" fill="#3d79b8"/>
      <rect id="Rectangle_4496" data-name="Rectangle 4496" width="4.858" height="41.097" transform="translate(86.776 344.096) rotate(180)" fill="#1f3486"/>
      <rect id="Rectangle_4497" data-name="Rectangle 4497" width="3.57" height="41.097" transform="translate(118.251 344.096) rotate(180)" fill="#1f3486"/>
    </g>
  </g>
</svg>
