<?xml version="1.0" encoding="UTF-8"?>
<svg width="36px" height="36px" viewBox="0 0 36 36" version="1.1" xmlns="http://www.w3.org/2000/svg" xmlns:xlink="http://www.w3.org/1999/xlink">
    <!-- Generator: Sketch 63.1 (92452) - https://sketch.com -->
    <title>Group 60</title>
    <desc>Created with Sketch.</desc>
    <g id="NEW" stroke="none" stroke-width="1" fill="none" fill-rule="evenodd">
        <g id="Group-60">
            <rect id="Rectangle" fill="#194D9B" x="0" y="0" width="36" height="36" rx="18"></rect>
            <g id="language-(1)" transform="translate(8.000000, 8.000000)" fill="#FFFFFF" fill-rule="nonzero">
                <polygon id="Path" points="5.41835938 5.3515625 5.16757812 5.3515625 4.69894531 7.6953125 5.88699219 7.6953125"></polygon>
                <path d="M14.8974219,10.0390625 C15.1504297,10.7187109 15.4869531,11.2688672 15.859375,11.7369922 C16.2317969,11.2688672 16.6073828,10.7186719 16.8603906,10.0390625 L14.8974219,10.0390625 Z" id="Path"></path>
                <path d="M18.2421875,3.5546875 L10.9655078,3.5546875 L12.4827734,15.7296484 C12.5096094,16.2276172 12.3734766,16.6964453 12.0484766,17.0634766 L9.47902344,20 L18.2421875,20 C19.2114844,20 20,19.2114844 20,18.2421875 L20,5.3515625 C20,4.38226563 19.2114844,3.5546875 18.2421875,3.5546875 Z M18.2421875,10.0390625 L18.0857031,10.0390625 C17.7523047,11.1087109 17.2235938,11.9457031 16.6741406,12.6055469 C17.1045703,12.9990625 17.5648438,13.321875 18.0224609,13.6834375 C18.2748047,13.8854297 18.3160156,14.2539062 18.1134375,14.5068359 C17.9117969,14.759375 17.541875,14.8003125 17.2900391,14.5978125 C16.7928125,14.2053516 16.3260937,13.8768359 15.859375,13.4485547 C15.3926563,13.8768359 14.965,14.2053516 14.4677734,14.5978125 C14.2159375,14.8003125 13.8460156,14.759375 13.644375,14.5068359 C13.4417969,14.2539062 13.4830078,13.8854297 13.7353516,13.6834375 C14.1929687,13.321875 14.6141797,12.9990625 15.0446094,12.6055469 C14.4951563,11.9457422 14.0054688,11.10875 13.6721094,10.0390625 L13.515625,10.0390625 C13.1917578,10.0390625 12.9296875,9.77699219 12.9296875,9.453125 C12.9296875,9.12925781 13.1917578,8.8671875 13.515625,8.8671875 L15.2734375,8.8671875 L15.2734375,8.28125 C15.2734375,7.95738281 15.5355078,7.6953125 15.859375,7.6953125 C16.1832422,7.6953125 16.4453125,7.95738281 16.4453125,8.28125 L16.4453125,8.8671875 L18.2421875,8.8671875 C18.5660547,8.8671875 18.828125,9.12925781 18.828125,9.453125 C18.828125,9.77699219 18.5660547,10.0390625 18.2421875,10.0390625 Z" id="Shape"></path>
                <path d="M9.53765625,1.53980469 C9.42835937,0.66203125 8.67820313,0 7.79359375,0 L1.7578125,0 C0.788515625,0 0,0.788515625 0,1.7578125 L0,14.7265625 C0,15.6958594 0.788515625,16.484375 1.7578125,16.484375 C5.26054688,16.484375 7.78035156,16.484375 10.9980859,16.484375 C11.1690234,16.2889844 11.3123047,16.1666406 11.3183603,15.9116016 C11.3198438,15.8476562 9.54558594,1.60324219 9.53765625,1.53980469 Z M7.1853125,11.1994922 C6.87460938,11.2634375 6.55988281,11.0617188 6.49582031,10.74 L6.12132813,8.8671875 L4.46464844,8.8671875 L4.09015625,10.74 C4.02722656,11.0569922 3.72164063,11.2652734 3.40066406,11.1994922 C3.08367188,11.1359766 2.87765625,10.8275781 2.94117187,10.51 L4.11300781,4.650625 C4.16792969,4.37710937 4.40828125,4.1796875 4.6875,4.1796875 L5.8984375,4.1796875 C6.17765625,4.1796875 6.41800781,4.37710937 6.47292969,4.650625 L7.64480469,10.51 C7.70832031,10.8275781 7.50234375,11.1359766 7.1853125,11.1994922 Z" id="Shape"></path>
                <path d="M6.84613281,17.65625 L6.94667969,18.4601953 C7.01371094,18.9985938 7.37144531,19.5476172 7.95988281,19.8217578 C9.07035156,18.5993359 8.39851563,19.3388672 9.92703125,17.65625 L6.84613281,17.65625 Z" id="Path"></path>
            </g>
        </g>
    </g>
</svg>