<?xml version="1.0" encoding="UTF-8"?>
<svg width="16px" height="16px" viewBox="0 0 16 16" version="1.1" xmlns="http://www.w3.org/2000/svg">
    <!-- Generator: Sketch 57.1 (83088) - https://sketch.com -->
    <title>icons2/16/like</title>
    <desc>Created with Sketch.</desc>
    <g id="icons2/16/like" stroke="none" stroke-width="1" fill="none" fill-rule="evenodd" stroke-linejoin="round">
        <path d="M15.5406407,8.66383889 C16.3511482,7.86562014 16.1007139,6.25102042 14.6968176,6.25102042 L11.0029126,6.25346925 C11.1431888,5.47963683 11.346383,4.1968545 11.3383377,4.07573911 C11.2607733,2.92866315 10.5216416,1.53262211 10.4896669,1.47548259 C10.3548573,1.22712972 9.67420843,0.890414664 8.98922748,1.03469196 C8.10363097,1.22223205 8.01317347,1.78107701 8.01678351,1.93514966 C8.01678351,1.93514966 8.05494689,3.46393805 8.05866008,3.87187345 C7.63525294,4.7918198 6.17534926,7.20943391 5.73286044,7.39574958 C5.62703444,7.33238593 5.50697453,7.29830628 5.38206685,7.29830628 L0.715202214,7.29830628 C0.31881887,7.29830628 0,7.61543065 0,8.00571401 L0.000618865487,14.3862603 C0.0283646681,14.7302198 0.323769794,15 0.672706784,15 L4.86448901,15 C5.23622088,15 5.53843353,14.7010378 5.53843353,14.3333042 L5.53843353,14.1214798 C5.53843353,14.1214798 5.69418134,14.1099499 5.7649383,14.1549472 C6.03445422,14.3242231 6.36750699,14.5372719 6.80195056,14.5372719 L13.0573398,14.5372719 C15.3960324,14.5372719 15.1449793,12.4837182 14.9313676,12.2036325 C15.3265132,11.778045 15.5708619,11.0273745 15.2372934,10.4343479 C15.4932975,10.1658942 15.9438315,9.427978 15.5406407,8.66383889 Z M4.72049964,14.3320798 L0.671469053,14.3320798 L0.671469053,7.96428785 L4.72049964,7.96428785 L4.72049964,14.3320798 Z M14.4494777,8.60904617 L14.4113143,8.76669004 C15.4889654,9.06983562 14.9153802,10.2985395 14.1423141,10.3782287 L14.1041507,10.5358726 C15.1374498,10.7958574 14.6445234,12.0609877 13.8351505,12.1474113 L13.7969872,12.3044429 C14.6408102,12.4414757 14.4364815,13.8660865 13.1581117,13.8660865 L6.79555562,13.8685354 C6.34625928,13.8685354 5.9369829,13.3620343 5.60650873,13.3620343 L5.31811742,13.3620343 L5.31811742,8.46048341 C5.67757512,8.24008809 6.11944508,7.95398233 6.36503153,7.7475658 C6.8290775,7.35605802 8.72837568,4.31990854 8.72837568,3.9399307 C8.72837568,3.55995286 8.68649911,1.91617117 8.68649911,1.91617117 C8.68649911,1.91617117 9.05884985,1.44130091 9.89029563,1.78770928 C9.89029563,1.78770928 10.5900262,3.08569481 10.661402,4.12012428 C10.661402,4.12012428 10.3462963,6.25102042 10.1770366,6.91955286 L14.5880004,6.91955286 C15.671737,6.92077728 15.4649328,8.4514023 14.4494777,8.60904617 Z"
              id="Shape-Copy-7" fill="#888888" fill-rule="nonzero"></path>
    </g>
</svg>
