<?xml version="1.0" encoding="UTF-8"?>
<svg width="16px" height="16px" viewBox="0 0 16 16" version="1.1" xmlns="http://www.w3.org/2000/svg">
    <!-- Generator: Sketch 59.1 (86144) - https://sketch.com -->
    <title>16/ copy</title>
    <desc>Created with Sketch.</desc>
    <g id="/16/-copy" stroke="none" stroke-width="1" fill="none" fill-rule="evenodd">
        <g id="like" fill-rule="nonzero">
            <path d="M9.94384306,8.23029032 L6.56065934,8.23029032 C6.38434503,8.23029032 6.22984227,8.07611492 6.18335609,7.85378385 C6.13686992,7.63145279 6.20990475,7.39595335 6.36167456,7.27866299 C7.83572361,6.13999038 8.60139205,4.81172048 8.70238106,3.21797353 C8.73759707,2.66486801 9.11443181,2.22306412 9.54220354,2.23037988 C9.97869468,2.23949906 10.3876221,2.46822717 10.6938946,2.87450708 C11.0004015,3.28116129 11.1693238,3.81966932 11.16948,4.39077502 L11.16948,4.56278046 C11.16948,5.95787898 10.8533948,6.84740741 10.2701833,8.00084766 C10.1976951,8.14413448 10.0751808,8.23029032 9.94384306,8.23029032 Z"
                  id="Path" fill="#FFC380"/>
            <path d="M15.985871,8.54322751 C15.985871,7.81928296 15.3044839,7.23029032 14.4669032,7.23029032 L6.65429032,7.23029032 C6.56748387,7.23029032 6.48225806,7.25042158 6.40758065,7.28862078 C5.85916129,7.56889696 5.30541935,7.79962571 4.86048387,7.98507306 C4.70529032,8.04973288 4.55870968,8.11082372 4.4253871,8.16842923 C4.26116129,8.2394184 4.15741935,8.38449171 4.15741935,8.54322751 L4.15741935,13.906702 C4.15741935,14.0654378 4.26116129,14.2105111 4.4253871,14.2815003 C6.38419355,15.1279332 8.01245161,15.2302903 9.91119355,15.2302903 C10.2052258,15.2302903 10.5059355,15.2278367 10.8151613,15.2253272 C11.1571613,15.222539 11.5107419,15.2196392 11.8814516,15.2196392 L13.414,15.2196392 C14.2515484,15.2196392 14.9329677,14.6306744 14.9329677,13.906702 C14.9329677,13.6632866 14.8559677,13.435151 14.7218387,13.2394986 C15.1582581,13.0085746 15.4500645,12.5926495 15.4500645,12.1188679 C15.4500645,11.8754525 15.3730645,11.6473168 15.2389355,11.4516644 C15.6753548,11.2207405 15.9671613,10.8048154 15.9671613,10.3310337 C15.9671613,9.99053109 15.8164194,9.67989073 15.5696129,9.44637372 C15.8383871,9.20153636 15.985871,8.88219662 15.985871,8.54322751 Z"
                  id="Path" fill="#FFCF99"/>
            <g id="Group" transform="translate(5.193548, 0.000000)" fill="#5EC3ED">
                <path d="M8.52541935,4.55216129 L7.49122581,4.55216129 C7.22351613,4.55216129 7.00645161,4.33509677 7.00645161,4.0673871 C7.00645161,3.79967742 7.22351613,3.5826129 7.49122581,3.5826129 L8.52541935,3.5826129 C8.79312903,3.5826129 9.01019355,3.79967742 9.01019355,4.0673871 C9.01019355,4.33509677 8.79316129,4.55216129 8.52541935,4.55216129 Z"
                      id="Path"/>
                <path d="M1.72541935,4.55216129 L0.691225806,4.55216129 C0.423516129,4.55216129 0.206451613,4.33509677 0.206451613,4.0673871 C0.206451613,3.79967742 0.423516129,3.5826129 0.691225806,3.5826129 L1.72541935,3.5826129 C1.99312903,3.5826129 2.21019355,3.79967742 2.21019355,4.0673871 C2.21019355,4.33509677 1.99319355,4.55216129 1.72541935,4.55216129 Z"
                      id="Path"/>
                <path d="M3.09641935,1.86535484 C2.92883871,1.86535484 2.76593548,1.77841935 2.67616129,1.62290323 L2.15906452,0.727258065 C2.02519355,0.495419355 2.10464516,0.198903226 2.33648387,0.0650645161 C2.56832258,-0.0688064516 2.86483871,0.0106451613 2.99867742,0.242483871 L3.51577419,1.13812903 C3.64964516,1.36996774 3.57019355,1.66648387 3.33835484,1.80032258 C3.26203226,1.84441935 3.17864516,1.86535484 3.09641935,1.86535484 Z"
                      id="Path"/>
                <path d="M6.19803226,1.86535484 C6.11577419,1.86535484 6.03241935,1.84441935 5.95609677,1.80032258 C5.72425806,1.66645161 5.64480645,1.36996774 5.77867742,1.13812903 L6.29577419,0.242483871 C6.4296129,0.0106451613 6.72612903,-0.0688709677 6.95796774,0.0650645161 C7.18980645,0.198935484 7.26925806,0.495419355 7.1353871,0.727258065 L6.61829032,1.62290323 C6.52858065,1.77841935 6.36558065,1.86535484 6.19803226,1.86535484 Z"
                      id="Path"/>
            </g>
            <path d="M4.63564516,7.23029032 L0.498903226,7.23029032 C0.231322581,7.23029032 0.0141290323,7.41815042 0.0141290323,7.64959251 L0.0141290323,14.8056869 C0.0141290323,15.037408 0.231322581,15.2249891 0.498903226,15.2302903 L3.60145161,15.2302903 C4.19577419,15.2249891 4.71125806,14.9283972 4.96045161,14.4973485 C5.06290323,14.3209559 5.12041935,14.1216562 5.12041935,13.9111681 L5.12041935,7.64959251 C5.12041935,7.41812252 4.90322581,7.23029032 4.63564516,7.23029032 Z"
                  id="Path" fill="#5EC3ED"/>
        </g>
    </g>
</svg>
