<?xml version="1.0" encoding="UTF-8"?>
<svg width="36px" height="36px" viewBox="0 0 36 36" version="1.1" xmlns="http://www.w3.org/2000/svg" xmlns:xlink="http://www.w3.org/1999/xlink">
    <!-- Generator: Sketch 63.1 (92452) - https://sketch.com -->
    <title>Group 66</title>
    <desc>Created with Sketch.</desc>
    <g id="NEW" stroke="none" stroke-width="1" fill="none" fill-rule="evenodd">
        <g id="Group-66">
            <circle id="Oval" fill="#FFFFFF" cx="18" cy="18" r="17"></circle>
            <g id="logout-(2)" fill="#194D9B" fill-rule="nonzero">
                <path d="M18,0 C8.07475781,0 0,8.07475781 0,18 C0,27.9252422 8.07475781,36 18,36 C27.9252422,36 36,27.9252422 36,18 C36,8.07475781 27.9252422,0 18,0 Z M23.8161797,24.9638203 C21.9412266,26.8599375 19.4404219,27.9041484 16.7744531,27.9041484 C11.3132812,27.9041484 6.87023437,23.4611719 6.87023437,18 C6.87023437,12.5388281 11.3132812,8.09585156 16.7744531,8.09585156 C19.4404219,8.09585156 21.9411563,9.1400625 23.8161094,11.0361094 C24.1437656,11.3674219 24.1408125,11.9016563 23.8094297,12.2293125 C23.4781172,12.5569687 22.9438125,12.5540156 22.6162266,12.2226328 C21.0607031,10.6496016 18.9861328,9.78335156 16.7744531,9.78335156 C12.2437266,9.78335156 8.55780469,13.4693438 8.55780469,18 C8.55780469,22.5306562 12.2437969,26.2166484 16.7744531,26.2166484 C18.9861328,26.2166484 21.0607031,25.3503281 22.6162266,23.7772969 C22.9438828,23.4459844 23.4781172,23.4428906 23.8094297,23.7706172 C24.1408125,24.0982734 24.1438359,24.6325078 23.8161797,24.9638203 L23.8161797,24.9638203 Z M28.8825469,18.5966016 L25.9244297,21.5547188 C25.7596875,21.7194609 25.5437578,21.8018672 25.3278281,21.8018672 C25.1118984,21.8018672 24.8959688,21.7195313 24.7312266,21.5547188 C24.4017422,21.2252344 24.4016719,20.691 24.7312266,20.3614453 L26.2489922,18.84375 L16.7744531,18.84375 C16.3084922,18.84375 15.9307031,18.4659609 15.9307031,18 C15.9307031,17.5340391 16.3084922,17.15625 16.7744531,17.15625 L26.2489219,17.15625 L24.7312266,15.6385547 C24.4017422,15.3090703 24.4016719,14.7748359 24.7312266,14.4452813 C25.0607813,14.1157266 25.5949453,14.1157266 25.9245,14.4452813 L28.8826172,17.4033281 C29.0408203,17.5615313 29.1297656,17.7761953 29.1297656,17.9999297 C29.1297656,18.2236641 29.0408203,18.4383984 28.8825469,18.5966016 L28.8825469,18.5966016 Z" id="Shape"></path>
            </g>
        </g>
    </g>
</svg>