<?xml version="1.0" encoding="UTF-8"?>
<svg width="24px" height="24px" viewBox="0 0 24 24" version="1.1" xmlns="http://www.w3.org/2000/svg">
    <!-- Generator: Sketch 57.1 (83088) - https://sketch.com -->
    <title>icons2/24/map</title>
    <desc>Created with Sketch.</desc>
    <g id="icons2/24/map" stroke="none" stroke-width="1" fill="none" fill-rule="evenodd">
        <path d="M18.25,4 C16.5239062,4 15.125,5.43481571 15.125,7.20512821 C15.125,7.68341346 15.2275391,8.13786058 15.410625,8.54479167 L18.25,14.2564103 L21.089375,8.5447516 C21.2724609,8.13786058 21.375,7.68341346 21.375,7.20512821 C21.375,5.43481571 19.9760938,4 18.25,4 Z M18.25,9.12820513 C17.2148438,9.12820513 16.375,8.26682692 16.375,7.20512821 C16.375,6.14342949 17.2148438,5.28205128 18.25,5.28205128 C19.2851562,5.28205128 20.125,6.14342949 20.125,7.20512821 C20.125,8.26682692 19.2851562,9.12820513 18.25,9.12820513 Z M19.1850781,15.1966747 L20.3227734,17.5291667 L17.4382422,19.0077724 L16.4714453,14.0473558 L16.6337891,13.8808494 L16.6508984,13.8633013 L16.0551953,12.6613782 L15.75,12.974359 L12,10.4102564 L8.25,12.974359 L5.75,10.4102564 L2,18.1025641 L7,20.6666667 L12,18.1025641 L17,20.6666667 L22,18.1025641 L19.890625,13.776883 L19.1850781,15.1966747 Z M6.56054688,19.0077724 L3.67722656,17.5291667 L6.09179688,12.5737179 L7.36621094,13.8808093 L7.52855469,14.0473157 L6.56054688,19.0077724 Z M11.375,16.9895433 L7.87890625,18.7824119 L8.78222656,14.151242 L8.94335938,14.0410657 L11.375,12.3784054 L11.375,16.9895433 Z M12.625,16.9895433 L12.625,12.3784054 L15.0566406,14.0410657 L15.2165625,14.151242 L16.1198828,18.7824119 L12.625,16.9895433 Z"
              id="Shape" fill="currentColor" fill-rule="nonzero"></path>
    </g>
</svg>
