<?xml version="1.0" encoding="UTF-8"?>
<svg width="24px" height="24px" viewBox="0 0 24 24" version="1.1" xmlns="http://www.w3.org/2000/svg">
    <!-- Generator: Sketch 57.1 (83088) - https://sketch.com -->
    <title>icons2/24/message</title>
    <desc>Created with Sketch.</desc>
    <g id="icons2/24/message" stroke="none" stroke-width="1" fill="none" fill-rule="evenodd">
        <path d="M21.4117647,4 C22.8412076,4 24,5.13138854 24,6.52702703 L24,18.472973 C24,19.8686115 22.8412076,21 21.4117647,21 L2.58823529,21 C1.15879241,21 0,19.8686115 0,18.472973 L0,6.52702703 C0,5.13138854 1.15879241,4 2.58823529,4 L21.4117647,4 Z M1.41176471,6.52702703 L1.41176471,18.472973 C1.41176471,19.1073541 1.93848853,19.6216216 2.58823529,19.6216216 L21.4117647,19.6216216 C22.0615115,19.6216216 22.5882353,19.1073541 22.5882353,18.472973 L22.5882353,6.52702703 C22.5882353,6.44488953 22.5794052,6.36476563 22.5626213,6.28751088 L15.115,12.234 L18.8014147,15.8601246 C19.054911,16.1087252 19.0673828,16.5267684 18.8292289,16.7923267 C18.7085931,16.9264793 18.5434294,17 18.3709896,17 C18.2117587,17 18.057543,16.9370605 17.9408838,16.8211081 L14.1987699,13.1402523 C14.1658445,13.1079628 14.1369853,13.0728148 14.1122103,13.0355168 L13.5457313,13.4879288 C13.128092,13.8214173 12.5766981,14 12.0058335,14 C11.4350139,14 10.8829381,13.8214701 10.4658558,13.4885232 L9.89179231,13.0292492 C9.86624819,13.0686093 9.83620443,13.1056308 9.80168537,13.1394958 L6.06006494,16.8199552 C5.94229158,16.9370529 5.7881147,17 5.62892392,17 C5.45701136,17 5.29130478,16.9263583 5.17051802,16.7919872 C4.93270628,16.5267109 4.94517487,16.1086169 5.19831463,15.8602736 L8.889,12.228 L1.43981842,6.27654689 C1.42145156,6.35717594 1.41176471,6.44099699 1.41176471,6.52702703 Z M21.4117647,5.37837838 L2.58823529,5.37837838 C2.53868127,5.37837838 2.48984283,5.38136967 2.44189905,5.3871774 L11.3788817,12.5284745 C11.7117931,12.7942703 12.2996762,12.7942703 12.6320259,12.5285071 L21.5711542,5.38883102 C21.519031,5.38193826 21.4658236,5.37837838 21.4117647,5.37837838 Z"
              id="icons/24px/message" stroke="currentColor" stroke-width="0" fill="currentColor"></path>
    </g>
</svg>
