<svg fill="currentColor" id="money_1_" data-name="money (1)" xmlns="http://www.w3.org/2000/svg" width="24.304" height="20.894" viewBox="0 0 24.304 20.894">
  <g id="Group_2889" data-name="Group 2889">
    <g id="Group_2888" data-name="Group 2888">
      <path id="Path_3332" data-name="Path 3332" d="M24.27,40.411h0L19.681,28.889a.477.477,0,0,0-.62-.267h0L.445,36.035a.468.468,0,0,0-.191.152A.472.472,0,0,0,0,36.6v12.4a.477.477,0,0,0,.477.477H20.515a.477.477,0,0,0,.477-.477V42.231L24,41.031A.477.477,0,0,0,24.27,40.411Zm-4.232,8.117H.954V37.078H20.038ZM7.96,36.126l7.988-3.183a3.8,3.8,0,0,0,2.735,1.179l.8,2Zm13.032,5.08V36.6a.477.477,0,0,0-.477-.477h-.008L19.5,33.585a.4.4,0,0,0-.039-.06.471.471,0,0,0-.5-.367,2.853,2.853,0,0,1-2.5-1.077.473.473,0,0,0-.612-.107.536.536,0,0,0-.067.012L6.025,35.869a.471.471,0,0,0-.262.255H2.8l16.17-6.438,4.236,10.637Z" transform="translate(0 -28.588)"/>
      <path id="Path_3333" data-name="Path 3333" d="M32.341,194.22a2.853,2.853,0,0,1,1.926,1.924.477.477,0,0,0,.457.341.436.436,0,0,0,.073-.011.446.446,0,0,0,.065.013h11.45a.415.415,0,0,0,.058-.012.444.444,0,0,0,.537-.327v0a2.852,2.852,0,0,1,1.926-1.926.471.471,0,0,0,.327-.525.481.481,0,0,0,.014-.071v-3.817a.431.431,0,0,0-.014-.071.47.47,0,0,0-.327-.525,2.85,2.85,0,0,1-1.925-1.927.471.471,0,0,0-.529-.327.455.455,0,0,0-.067-.013H34.863a.451.451,0,0,0-.071.014.471.471,0,0,0-.525.327,2.853,2.853,0,0,1-1.926,1.926.471.471,0,0,0-.327.525.481.481,0,0,0-.013.071v3.817a.441.441,0,0,0,.013.066A.472.472,0,0,0,32.341,194.22ZM32.954,190a3.786,3.786,0,0,0,2.1-2.1H46.119a3.787,3.787,0,0,0,2.1,2.1v3.429a3.79,3.79,0,0,0-2.1,2.1H35.056a3.79,3.79,0,0,0-2.1-2.1Z" transform="translate(-30.092 -177.501)"/>
      <path id="Path_3334" data-name="Path 3334" d="M130.863,224.67A2.863,2.863,0,1,0,128,221.808,2.863,2.863,0,0,0,130.863,224.67Zm0-4.771a1.908,1.908,0,1,1-1.908,1.908A1.908,1.908,0,0,1,130.863,219.9Z" transform="translate(-120.367 -207.593)"/>
      <path id="Path_3335" data-name="Path 3335" d="M76.716,256.376a.716.716,0,1,0-.716-.716A.716.716,0,0,0,76.716,256.376Zm0-.954a.239.239,0,1,1-.239.239A.239.239,0,0,1,76.716,255.422Z" transform="translate(-71.468 -241.446)"/>
      <path id="Path_3336" data-name="Path 3336" d="M252.716,256.376a.716.716,0,1,0-.716-.716A.716.716,0,0,0,252.716,256.376Zm0-.954a.239.239,0,1,1-.239.239A.239.239,0,0,1,252.716,255.422Z" transform="translate(-236.972 -241.446)"/>
    </g>
  </g>
</svg>
