<?xml version="1.0" encoding="UTF-8"?>
<svg width="32px" height="52px" viewBox="0 0 32 52" version="1.1" xmlns="http://www.w3.org/2000/svg"
>
    <!-- Generator: Sketch 59 (86127) - https://sketch.com -->
    <title>i-pin-user</title>
    <desc>Created with Sketch.</desc>
    <g id="desktop" stroke="none" stroke-width="1" fill="none" fill-rule="evenodd">
        <g id="easy-desktop-list-L" transform="translate(-273.000000, -460.000000)">
            <g id="Group-3" transform="translate(16.000000, 208.000000)">
                <g id="i-pin-user" transform="translate(265.000000, 252.000000)">
                    <circle id="i-map-user" stroke-opacity="0.1" stroke="#D60061" stroke-width="16" fill="#D60061"
                            cx="8" cy="36" r="8"></circle>
                    <g id="011-woman-1" transform="translate(4.000000, 0.000000)" fill-rule="nonzero">
                        <path d="M0.104912102,16 C0.104912102,16 -0.0443752155,17.6178847 0.0132154229,17.6974951 C0.0708060613,17.7771055 0.335541526,18 0.39894994,18 C0.462358354,18 0.926125784,17.7544546 0.980247106,17.586675 C1.02678931,17.4422105 0.992736643,17.0773601 0.860475658,16.8580072 C0.708573011,16.6060427 0.728214674,16.1632051 0.728214674,16.1632051 L0.104912102,16 Z"
                              id="Shape" fill="#FFB657"></path>
                        <path d="M1.68182676,33.2864406 C1.68182676,33.2864406 -0.361122793,35.6338152 0.0562257444,35.93472 C0.637433579,36.3535954 3,34.6250026 3,34.4861299 C3,34.3474245 2.83271024,33 2.83271024,33 L1.68182676,33.2864406 Z"
                              id="Shape" fill="#492D0A"></path>
                        <path d="M4.61232006,35.2622619 C4.61232006,35.2622619 2.53187586,37.5660487 3.09747454,37.9434425 C3.69811098,38.3442609 6,36.487682 6,36.3606848 C6,36.2336876 5.82388912,35 5.82388912,35 L4.61232006,35.2622619 Z"
                              id="Shape" fill="#492D0A"></path>
                        <path d="M8.00001362,22.0092314 C8.00553407,20.6368824 7.58868836,19.1277065 6.74947648,17.4817036 L1,18 L1.5597256,33.5416528 C1.5597256,33.5416528 1.52568245,33.9435641 2.18512256,34.0066162 C2.81114274,34.0665711 2.96102611,33.6698957 2.96102611,33.6698957 C2.96102611,33.6698957 3.64547276,24.962284 4.04464242,23.3691666 L4.48806039,23.4670264 L4.91846874,35.4169931 C4.91846874,35.4169931 4.88442558,35.9313659 5.5438657,35.9944918 C6.16988587,36.0544466 6.3220284,35.6051909 6.3220284,35.6051909 C6.3220284,35.6051909 7.99380453,23.5497685 8.00001362,22.0092314 Z"
                              id="Shape" fill="#222222"></path>
                        <path d="M6.22630274,19.3306571 C6.22630274,19.3306571 5.97219964,20.1060062 6.00251121,20.2494722 C6.03273414,20.3930002 6.25404403,20.5355975 6.25404403,20.5355975 C6.25404403,20.5355975 6.23401358,20.8832791 6.42651862,20.9833702 C6.61902366,21.0834613 7.73443615,20.7041328 7.90558128,20.5811442 C8.14612395,20.4083273 7.85116227,19.1628664 7.85116227,19.1628664 C7.85116227,19.1628664 6.50495645,18.7020626 6.22630274,19.3306571 Z"
                              id="Shape" fill="#FFB657"></path>
                        <path d="M7.99337496,13.7148941 C7.93216831,10.2711998 7.56050751,9.12712113 7.17573645,8.76658788 C4.62563725,5.26099118 1.44403483,6.0840274 1.44403483,6.0840274 C1.44403483,6.0840274 0.185601732,5.94919675 0.225694755,9.39649416 C0.191623308,9.64460849 0.173787248,9.87859838 0.173787248,10.0921223 C0.173787248,10.3106906 0.213880271,10.5274573 0.27630648,10.7414136 C0.402378457,14.3770127 0,16.1871015 0,16.1871015 C0,16.1871015 0.0943634268,16.4914253 0.647128831,16.4914253 C0.660772655,16.4914253 0.672739584,16.4908488 0.68584985,16.4905605 C0.612523827,16.9416775 0.556119194,18.2088165 0.556119194,18.2088165 C0.941957373,19.877661 3.83147526,20.5474904 6.2904886,19.0915933 C6.28347613,20.2670196 6.31465112,19.5747304 6.31465112,19.5747304 C6.31465112,19.5747304 6.85903206,20.4779011 7.99764342,19.6518382 C7.99749098,19.6519824 8.00526567,14.3865971 7.99337496,13.7148941 Z"
                              id="Shape" fill="#868686"></path>
                        <path d="M3.01049723,7.16059663 L3.01049723,7 C3.01049723,7 1.82203989,10.206073 2.02287967,12.5353023 L2,19.5627732 C2.28612438,19.7736382 2.63028343,19.9225158 3.01043296,20 L2.89314253,17.4691575 C2.82084021,15.909065 2.9349172,14.3445779 3.23196727,12.8231889 L3.23196727,12.8231889 L5,7.77075586 L3.01049723,7.16059663 Z"
                              id="Shape" fill="#FFFFFF"></path>
                        <path d="M3.19836938,5.72530214 C3.19836938,5.72530214 3.0655635,6.80884913 3.00217619,7.40426357 C2.95528613,7.844694 3.67584377,8.12854397 4.22669844,7.94156698 C4.77743485,7.75452613 5,7.31460657 5,7.31460657 C4.7402421,6.36975972 4.75709414,5 4.75709414,5 L3.19836938,5.72530214 Z"
                              id="Shape" fill="#FFB657"></path>
                        <path d="M1.01287546,3.87272761 C1.01287546,3.87272761 1.18480018,6.41328372 1.81632108,6.86622121 C2.44784197,7.3191587 4.64379308,6.59790413 5.53416433,5.06697856 C6.42453558,3.53605299 6.08546396,0.356523058 4.10983234,0.044627062 C1.80206466,-0.319658022 0.877555059,1.59907266 1.01287546,3.87272761 Z"
                              id="Shape" fill="#FEC377"></path>
                        <path d="M5.98265177,2.77744779 C5.9717979,2.2630448 5.7764957,1.58595388 5.58065419,1.18116612 C5.32049845,0.644288062 4.89470326,0.196915969 4.37729065,0.0761026346 C4.18515697,0.0313102234 3.88273183,-0.0073311172 3.6868229,0.00118574972 C3.34745415,0.0160902668 2.69952547,0.24833261 2.28714593,0.536407748 C1.68843044,0.954522825 1.30052266,1.69407077 1.09032168,2.4717869 C0.829896284,3.4352969 1.19771429,4.53184351 1.37542109,5.52066753 C1.82811499,3.84308133 2.47894253,3.85774927 3.07833218,3.10156189 C3.31266785,2.8059162 3.70563177,2.40262678 3.96430437,1.96408699 C3.96774255,1.96661051 3.97118074,1.96921289 3.97475375,1.9717364 C3.94536067,2.16533741 3.97023692,2.39915695 4.06852846,2.66278552 C4.14767405,2.87515518 4.27535868,3.05676948 4.38517824,3.24950302 C5.03270243,4.38516414 4.76567033,5.22857054 4.85371475,7 C5.74946216,6.26187153 6.08350509,3.13231724 5.98265177,2.77744779 Z"
                              id="Shape" fill="#D07400"></path>
                    </g>
                </g>
            </g>
        </g>
    </g>
</svg>