<?xml version="1.0" encoding="UTF-8"?>
<svg width="32px" height="32px" viewBox="0 0 32 32" version="1.1" xmlns="http://www.w3.org/2000/svg" xmlns:xlink="http://www.w3.org/1999/xlink">
    <!-- Generator: Sketch 63.1 (92452) - https://sketch.com -->
    <title>around</title>
    <desc>Created with Sketch.</desc>
    <g id="NEW" stroke="none" stroke-width="1" fill="none" fill-rule="evenodd">
        <g id="new_header-copy-5" transform="translate(-301.000000, -168.000000)" fill="currentColor" fill-rule="nonzero">
            <g id="around" transform="translate(301.000000, 168.000000)">
                <path d="M30.7047797,11.0151735 C28.1175205,2.75069006 19.2911969,-1.86785185 11.0250916,0.718346979 C2.76004678,3.30560624 -1.85905653,12.1340507 0.727703704,20.3985341 L1.74334503,20.0804055 C-0.668382066,12.3761404 3.63789474,4.14565302 11.3432203,1.7334269 C15.0759298,0.565645224 19.0400624,0.921013645 22.5041092,2.73366082 C25.9697154,4.54736842 28.5213567,7.601154 29.6896998,11.3333645 C30.8574815,15.0655127 30.5026121,19.0291462 28.6894659,22.4942534 C26.8768187,25.9598596 23.8230331,28.511501 20.0903236,29.6798441 C13.8427135,31.6350253 6.99446394,29.1659103 3.43254581,23.6743236 L2.53978947,24.253193 C5.48403899,28.7935127 10.523384,31.4079064 15.7473684,31.4073451 C17.3008967,31.4073451 18.8719532,31.1764211 20.4079532,30.694425 C24.4114464,29.4414971 27.6871735,26.7042183 29.6322495,22.9874776 C31.5773255,19.2706745 31.9577076,15.018729 30.7047797,11.0151735 Z" id="Path"></path>
                <path d="M12.6328265,7.44845224 L12.93823,6.42906823 L7.61793372,4.83299805 C7.43173489,4.77660819 7.22794542,4.82769591 7.08909162,4.96654971 L6.02504483,6.03059649 C5.90109942,6.15454191 5.84626901,6.33169591 5.87820663,6.50410916 C5.91014425,6.67646004 6.02504483,6.82173879 6.18516959,6.89303704 L10.9734425,9.0211306 L11.4054737,8.04859259 L7.32538012,6.23488499 L7.61693567,5.94332943 L12.6328265,7.44845224 Z" id="Path"></path>
                <path d="M17.5748636,4.27920468 C17.5748636,3.98552827 17.3370136,3.74718129 17.0428382,3.74718129 C17.0422768,3.74718129 17.0422768,3.74718129 17.0417778,3.74718129 C15.8713138,3.74718129 14.7705263,4.20310331 13.9427057,5.03098635 L9.4311423,9.54205068 L7.59510331,9.08288499 C7.4137076,9.03766082 7.22214425,9.09030799 7.08965302,9.22279922 L6.02560624,10.286846 C5.90964522,10.402807 5.85325536,10.565614 5.87346589,10.727922 C5.89367641,10.8901676 5.98730604,11.034885 6.12778168,11.1189708 L8.67405848,12.646924 L10.2020117,15.1932008 C10.2860975,15.3336764 10.4302534,15.427306 10.5930604,15.4475166 C10.6143314,15.4501988 10.6361637,15.4512593 10.6579961,15.4512593 C10.7979103,15.4512593 10.9335828,15.3959298 11.0346979,15.2959376 L12.0987446,14.2318908 C12.2306745,14.0993996 12.283883,13.9078986 12.2386589,13.7264405 L11.7800546,11.8925224 L16.3634776,7.35432359 C17.1455127,6.53548538 17.575922,5.45977388 17.5748636,4.27920468 Z" id="Shape"></path>
                <path d="M16.487922,13.7732242 L14.8918519,8.38381287 L13.8714074,8.68603509 L15.3711657,13.7498947 L15.0482339,14.0350877 L13.2744483,9.92037427 L12.2971072,10.3417388 L14.3613879,15.1300117 C14.4289435,15.2864561 14.5672982,15.4013567 14.7337856,15.4385965 C14.7726472,15.4470799 14.8114464,15.451384 14.850308,15.451384 C14.9785575,15.451384 15.1040624,15.4050994 15.2019961,15.3183938 L16.3299181,14.3235244 C16.4852398,14.1866043 16.5464327,13.9722105 16.487922,13.7732242 Z" id="Path"></path>
                <path d="M10.1429396,29.3355789 C6.35384016,31.1311345 3.38139571,31.3631189 1.98961404,29.9718986 C-0.422612086,27.5596725 2.19708382,20.5512982 8.08290058,13.6689903 L7.27423002,12.9773411 C0.818651072,20.5257232 -1.66431189,27.8235322 1.23683431,30.7241793 C2.04712671,31.5339103 3.19151657,31.9377466 4.61093177,31.9377466 C6.26551267,31.9377466 8.29361404,31.3892554 10.5983626,30.2969513 L10.1429396,29.3355789 Z" id="Path"></path>
                <path d="M28.1526394,18.3922651 C28.0600702,18.2193528 27.8797349,18.1113762 27.6833684,18.1113762 L25.8840702,18.1113762 L24.4348382,15.2134113 C24.3443899,15.033076 24.1603119,14.9191735 23.9586433,14.9191735 L18.638347,14.9191735 C18.3441092,14.9191735 18.1063236,15.1575205 18.1063236,15.4511969 L18.1063236,19.7074464 C18.1063236,20.0016842 18.3441715,20.2394698 18.638347,20.2394698 L20.2344172,20.2394698 L20.2344172,26.0917895 C20.2344172,26.3860273 20.4722027,26.6238129 20.7664405,26.6238129 L23.4265575,26.6238129 C23.5675322,26.6238129 23.7027057,26.567922 23.8032593,26.4673684 L25.9313528,24.3392749 C26.031345,24.2397817 26.0872359,24.1046706 26.0872359,23.9631345 L26.0872359,21.9962261 L28.1259415,18.9381365 C28.2345419,18.7753294 28.2452086,18.5651774 28.1526394,18.3922651 Z" id="Shape"></path>
                <path d="M28.5234776,13.8551267 L26.5485848,10.3990643 C26.4538947,10.233076 26.2772398,10.1309006 26.0867992,10.1309006 L22.8946589,10.1309006 C22.7169435,10.1309006 22.5509552,10.2197271 22.4520234,10.3676257 L21.5459805,11.7269708 L20.2345419,11.7269708 L20.2345419,9.0668538 L22.8946589,9.0668538 C23.0361949,9.0668538 23.170807,9.01096296 23.2707992,8.91097076 L25.2430097,6.93876023 L27.6828694,6.93876023 L27.6828694,5.87471345 L25.0227524,5.87471345 C24.8812164,5.87471345 24.7466043,5.93060429 24.6466121,6.03059649 L22.6744016,8.00280702 L19.7025185,8.00280702 C19.4082807,8.00280702 19.1704951,8.241154 19.1704951,8.53483041 L19.1704951,12.2589942 C19.1704951,12.5526706 19.4083431,12.7910175 19.7025185,12.7910175 L21.8306121,12.7910175 C22.0083275,12.7910175 22.1743158,12.702191 22.2732476,12.5542924 L23.1792904,11.1949474 L25.7782768,11.1949474 L27.7531696,14.6510097 C27.8478596,14.8169981 28.0245146,14.9191735 28.2149552,14.9191735 L30.3430487,14.9191735 L30.3430487,13.8551267 L28.5234776,13.8551267 Z" id="Path"></path>
                <path d="M15.4462066,19.175423 L12.4743236,19.175423 L11.0341365,17.7352359 C10.9346433,17.6351813 10.7989708,17.5793528 10.6579961,17.5793528 L7.99787914,17.5793528 C7.70420273,17.5793528 7.46585575,17.8172008 7.46585575,18.1113762 L7.46585575,21.83554 C7.46585575,22.1297778 7.70420273,22.3675634 7.99787914,22.3675634 L10.1259727,22.3675634 L10.1259727,27.6878596 C10.1259727,27.8895283 10.2398129,28.0736062 10.4202105,28.1639922 C10.4952515,28.201232 10.577154,28.219883 10.6580585,28.219883 C10.7708382,28.219883 10.8831189,28.1842651 10.9772476,28.1134659 L13.1053411,26.5173957 C13.2393918,26.4168421 13.3181754,26.2588382 13.3181754,26.0917895 L13.3181754,24.7510955 L15.778807,22.7831267 C15.9048733,22.6820741 15.9782924,22.5293723 15.9782924,22.3676257 L15.9782924,19.7075088 C15.9782924,19.413271 15.739883,19.175423 15.4462066,19.175423 Z" id="Shape"></path>
                <path d="M4.72957505,11.4530682 L3.13350487,8.79295127 C3.03775439,8.63282651 2.8642807,8.53489279 2.67758285,8.53489279 L2.14555945,8.53489279 L2.14555945,9.59893957 L2.37648343,9.59893957 L3.60389864,11.6445692 L2.30150487,12.946963 C2.20145029,13.0464561 2.14562183,13.1821287 2.14562183,13.3231033 L2.14562183,14.9191735 L0.549426901,14.9191735 L0.549426901,15.9832203 L2.67752047,15.9832203 C2.97119688,15.9832203 3.20954386,15.7448733 3.20954386,15.4511969 L3.20954386,13.5433606 L4.64973099,12.1031735 C4.82214425,11.9302612 4.8551423,11.6626589 4.72957505,11.4530682 Z" id="Path"></path>
                <path d="M16.5108148,0.554479532 L16.5108148,1.20352437 L14.7854347,1.63499415 C14.7263626,1.64990253 14.6699727,1.67491618 14.6194464,1.70841326 L13.2803119,2.60116959 L10.3642573,1.14289279 L9.88812476,2.09465887 L13.0802651,3.69072904 C13.155306,3.72796881 13.2367096,3.74661988 13.3181131,3.74661988 C13.4213489,3.74661988 13.5240234,3.71630409 13.6128499,3.65723197 L15.1323197,2.6442729 L17.1715867,2.1345809 C17.4083119,2.07550877 17.5748616,1.86273684 17.5748616,1.61852632 L17.5748616,0.554479532 L16.5108148,0.554479532 Z" id="Path"></path>
            </g>
        </g>
    </g>
</svg>