<?xml version="1.0" encoding="UTF-8"?>
<svg width="28px" height="28px" viewBox="0 0 28 28" version="1.1" xmlns="http://www.w3.org/2000/svg">
    <!-- Generator: Sketch 57.1 (83088) - https://sketch.com -->
    <title>icons2/28/nav_home_grey</title>
    <desc>Created with Sketch.</desc>
    <g id="icons2/28/nav_home_grey" stroke="none" stroke-width="1" fill="none" fill-rule="evenodd">
        <g id="Group" transform="translate(1.000000, 1.000000)" stroke="currentColor">
            <path d="M18.2228785,14.9712326 C18.223335,16.8465711 18.2484422,18.7225721 18.2134747,20.5973426 C18.1941193,21.6406381 17.9815752,22.66207 17.4034698,23.5451279 C16.3799165,25.1088879 14.8691003,25.5004432 13.1584306,25.3780644 C11.950088,25.2916516 10.8351444,24.8466207 9.71490543,24.4213711 C9.34204024,24.279779 9.18418423,24.0408896 9.35354391,23.6215081 C9.55138889,23.1316145 9.73243484,22.6340545 9.90699857,22.1346962 C10.01674,21.8206569 10.1818086,21.7401122 10.4945078,21.8614499 C11.3011346,22.174448 12.107944,22.4938821 12.9881579,22.5209511 C13.4066726,22.5338231 13.8070188,22.4653933 14.1874618,22.2947445 C14.9533693,21.9511753 15.1597051,21.2697159 15.1622614,20.4848072 C15.1738564,16.8760063 15.1802473,13.2672055 15.1887382,9.65849925 C15.1891946,9.46939426 15.1796996,9.27924815 15.195403,9.09156287 C15.2332008,8.63905488 15.4956855,8.37669301 15.9371162,8.36628182 C16.4536861,8.35407234 16.970895,8.35473487 17.4876475,8.36448353 C18.0117951,8.37442148 18.2204134,8.60072279 18.2212351,9.15573363 C18.2243393,11.0942017 18.222422,13.0327645 18.2228785,14.9712326"
                  id="Fill-9-Copy"></path>
            <path d="M7.42857143,12.4952955 C7.42857143,11.3921831 7.42850295,10.288976 7.42868555,9.18586356 C7.42877685,8.53951823 7.59357158,8.36082442 8.19605381,8.35855289 C8.66733935,8.3567546 9.13853359,8.35665995 9.60991043,8.3583636 C10.1942242,8.36044583 10.3577407,8.52778198 10.3588363,9.15027623 C10.3621231,11.1202618 10.3823914,13.0904367 10.3520802,15.0599491 C10.3342769,16.220607 10.7375446,16.7774161 12.0258651,16.7787412 C12.4819037,16.7792144 12.9384901,16.7886791 13.3937983,16.769939 C13.7138927,16.7566884 13.8236341,16.8948732 13.8187039,17.2162949 C13.8076568,17.9410081 13.8151433,18.6660052 13.822995,19.390813 C13.8262818,19.694441 13.7355305,19.8541108 13.4029282,19.848148 C12.3999172,19.8300704 11.3929803,19.8910231 10.3940777,19.8202271 C9.27548212,19.7410074 8.45936018,19.120974 7.936582,18.077016 C7.52464082,17.2543431 7.43891104,16.3738407 7.43288531,15.4738411 C7.42622048,14.4809925 7.43133322,13.488144 7.43133322,12.4952955 L7.42857143,12.4952955 Z"
                  id="Fill-11-Copy"></path>
            <polyline id="Path-2" stroke-linecap="round" stroke-linejoin="round"
                      points="0 13 13 2.04281037e-14 26 13"></polyline>
        </g>
    </g>
</svg>
