<?xml version="1.0" encoding="UTF-8"?>
<svg width="28px" height="28px" viewBox="0 0 28 28" version="1.1" xmlns="http://www.w3.org/2000/svg">
    <!-- Generator: Sketch 57.1 (83088) - https://sketch.com -->
    <title>icons2/28/nav_list_grey</title>
    <desc>Created with Sketch.</desc>
    <g id="icons2/28/nav_list_grey" stroke="none" stroke-width="1" fill="none" fill-rule="evenodd">
        <g id="list"
           transform="translate(14.000000, 13.846154) scale(-1, 1) translate(-14.000000, -13.846154) translate(3.000000, 2.000000)"
           fill="currentColor" fill-rule="nonzero">
            <path d="M2.99152071,0 C1.3515476,0 0.0166857729,1.33486183 0.0166857729,2.97483494 C0.0166857729,4.61480804 1.3515476,5.94966987 2.99152071,5.94966987 C4.63149382,5.94966987 5.96635565,4.61480804 5.96635565,2.97483494 C5.96635565,1.33486183 4.63149382,0 2.99152071,0 Z M2.99152071,5.01049923 C1.87119024,5.01049923 0.960623782,4.09993277 0.960623782,2.9796023 C0.960623782,1.85927184 1.87119024,0.948705372 2.99152071,0.948705372 C4.11185117,0.948705372 5.02241764,1.85927184 5.02241764,2.9796023 C5.02241764,4.09993277 4.11185117,5.01049923 2.99152071,5.01049923 Z"
                  id="Shape"></path>
            <path d="M2.99152071,8.76718181 C1.3515476,8.76718181 0.0166857729,10.1020436 0.0166857729,11.7420167 C0.0166857729,13.3819899 1.3515476,14.7168517 2.99152071,14.7168517 C4.63149382,14.7168517 5.96635565,13.3819899 5.96635565,11.7420167 C5.96635565,10.1020436 4.63149382,8.76718181 2.99152071,8.76718181 Z M2.99152071,13.7729137 C1.87119024,13.7729137 0.960623782,12.8623472 0.960623782,11.7420167 C0.960623782,10.6216863 1.87119024,9.71111982 2.99152071,9.71111982 C4.11185117,9.71111982 5.02241764,10.6216863 5.02241764,11.7420167 C5.02241764,12.8623472 4.11185117,13.7729137 2.99152071,13.7729137 Z"
                  id="Shape"></path>
            <path d="M2.99152071,17.5295963 C1.3515476,17.5295963 0.0166857729,18.8644581 0.0166857729,20.5044312 C0.0166857729,22.1444043 1.3515476,23.4792661 2.99152071,23.4792661 C4.63149382,23.4792661 5.96635565,22.1444043 5.96635565,20.5044312 C5.96635565,18.8644581 4.63149382,17.5295963 2.99152071,17.5295963 Z M2.99152071,22.5400955 C1.87119024,22.5400955 0.960623782,21.629529 0.960623782,20.5091986 C0.960623782,19.3888681 1.87119024,18.4783016 2.99152071,18.4783016 C4.11185117,18.4783016 5.02241764,19.3888681 5.02241764,20.5091986 C5.02241764,21.6247617 4.11185117,22.5400955 2.99152071,22.5400955 Z"
                  id="Shape"></path>
            <path d="M21.5556349,2.81751194 C21.5556349,2.55530693 21.3458709,2.34554293 21.0836659,2.34554293 L9.16525668,2.34554293 C8.90305167,2.34554293 8.69328767,2.55530693 8.69328767,2.81751194 C8.69328767,3.07971694 8.90305167,3.28948094 9.16525668,3.28948094 L21.0836659,3.28948094 C21.3458709,3.28948094 21.5556349,3.07971694 21.5556349,2.81751194 Z"
                  id="Path"></path>
            <path d="M9.00316631,11.2700477 C8.74096131,11.2700477 8.53119731,11.4798117 8.53119731,11.7420167 C8.53119731,12.0042217 8.74096131,12.2139858 9.00316631,12.2139858 L20.9215755,12.2139858 C21.1837805,12.2139858 21.3935445,12.0042217 21.3935445,11.7420167 C21.3935445,11.4798117 21.1837805,11.2700477 20.9215755,11.2700477 L9.00316631,11.2700477 L9.00316631,11.2700477 Z"
                  id="Path"></path>
            <path d="M21.3935445,20.5044312 C21.3935445,20.2422262 21.1837805,20.0324622 20.9215755,20.0324622 L9.00316631,20.0324622 C8.74096131,20.0324622 8.53119731,20.2422262 8.53119731,20.5044312 C8.53119731,20.7666362 8.74096131,20.9764002 9.00316631,20.9764002 L20.9215755,20.9764002 C21.1837805,20.9764002 21.3935445,20.7666362 21.3935445,20.5044312 Z"
                  id="Path"></path>
        </g>
    </g>
</svg>
