<?xml version="1.0" encoding="UTF-8"?>
<svg width="32px" height="32px" viewBox="0 0 32 32" version="1.1" xmlns="http://www.w3.org/2000/svg" xmlns:xlink="http://www.w3.org/1999/xlink">
    <!-- Generator: Sketch 63.1 (92452) - https://sketch.com -->
    <title>nearby</title>
    <desc>Created with Sketch.</desc>
    <g id="NEW" stroke="none" stroke-width="1" fill="none" fill-rule="evenodd">
        <g id="new_header-copy-5" transform="translate(-138.000000, -166.000000)" fill="currentColor" fill-rule="nonzero">
            <g id="nearby" transform="translate(138.000000, 166.000000)">
                <path d="M25.3035561,15.03168 C25.1054865,15.4350039 24.8936671,15.8322581 24.6718142,16.2217084 C24.5820697,16.3792723 24.6478452,16.5795097 24.8126555,16.6551948 C27.8742503,18.060449 29.7310761,20.1261213 29.7310761,22.2967742 C29.7310761,23.1761342 29.4310606,23.9570787 29.0084748,24.621089 C28.9213316,24.7580284 28.9560155,24.9394374 29.0873187,25.0348181 C29.4384929,25.2899923 29.7458787,25.6015897 29.9965316,25.9562323 C30.1200929,26.1310142 30.3804697,26.1306426 30.5027303,25.9548697 C33.0140903,22.3442787 31.6961032,17.6749006 25.7119587,14.8891045 C25.5597832,14.8183123 25.377569,14.880991 25.3035561,15.03168 L25.3035561,15.03168 Z" id="Path"></path>
                <path d="M26.7581729,26.2606452 C25.7482529,26.2606452 24.9153445,27.0162581 24.7924645,27.9928568 C24.7006761,28.0044387 24.6089497,28.0284697 24.5198245,28.0673032 C18.9767226,30.4853884 10.9240568,30.273569 5.83512774,27.3909677 C0.0677574194,24.1218271 1.07092645,19.3291974 6.90190452,16.6553187 C7.06696258,16.5796335 7.13304774,16.3793342 7.04317935,16.2215845 C6.82138839,15.8321961 6.60963097,15.4350658 6.41156129,15.0318039 C6.33748645,14.880991 6.15508645,14.8183742 6.0027871,14.8893523 C-1.41931355,18.350431 -2.13838452,25.1512568 4.85840516,29.1152516 C10.5564697,32.3436387 19.2848516,32.5147045 25.3125987,29.8844903 C25.3809755,29.8546374 25.4437781,29.8174142 25.5015639,29.7751123 C26.7774348,30.8225032 28.7401084,29.9275355 28.7401084,28.2425187 C28.7401084,27.1479948 27.8527587,26.2606452 26.7581729,26.2606452 L26.7581729,26.2606452 Z" id="Path"></path>
                <path d="M9.44225032,20.8109419 C9.52097032,20.7806555 9.60229161,20.7506168 9.68615226,20.7209497 C9.88719484,20.6497858 9.9560671,20.4005574 9.8216671,20.2349419 C9.53304774,19.8793703 9.24232258,19.5072619 8.95395097,19.120289 C8.86996645,19.0076284 8.72076387,18.9646452 8.59020387,19.0165471 C4.64454194,20.5849394 4.74840774,23.2487226 7.05463742,24.7909161 C7.17541161,24.8714323 7.30733419,24.9222194 7.44173419,24.9445161 C7.52924903,25.9757419 8.40774194,26.7823897 9.46770581,26.7554477 C10.6566194,26.7252852 11.5546219,25.6338581 11.3743897,24.4583226 C11.1522271,23.0091561 9.42063484,22.2866168 8.22274065,23.1917419 C8.16947613,23.1478916 7.43430194,22.6920465 7.43430194,22.2967742 C7.43430194,21.9530323 8.05117935,21.3423484 9.44225032,20.8109419 L9.44225032,20.8109419 Z" id="Path"></path>
                <path d="M26.262689,22.2967742 C26.262689,20.6727019 24.6593652,19.6267974 23.1251613,19.0167329 C22.9942916,18.9647071 22.8452129,19.0075045 22.7611045,19.1204129 C22.4730426,19.5069523 22.1821316,19.8792465 21.8932026,20.2348181 C21.7577497,20.4015484 21.8295948,20.650529 22.0321858,20.7221265 C23.5928981,21.2735381 24.2807535,21.9336465 24.2807535,22.2967742 C24.2807535,22.656 23.6205213,23.2858839 22.1718503,23.8197677 C19.7112774,24.7256981 16.3772903,24.9197419 13.7110916,24.6792465 C13.5357523,24.6634529 13.3837006,24.7967381 13.3750297,24.9725729 C13.3536,25.4049445 13.2637935,25.8229471 13.1092645,26.2174761 C13.0346323,26.4079277 13.1640774,26.6171458 13.3676594,26.6369032 C19.1313755,27.1951277 26.262689,25.7341935 26.262689,22.2967742 L26.262689,22.2967742 Z" id="Path"></path>
                <circle id="Oval" cx="15.8575277" cy="8.91870968" r="2.97290323"></circle>
                <path d="M15.201631,23.04 C15.5739252,23.3680723 16.1359897,23.3725935 16.5134245,23.04 C16.8553084,22.7377548 24.897631,15.5668645 24.897631,9.04010323 C24.897631,4.05553548 20.8420955,0 15.8575277,0 C10.87296,0 6.81742452,4.05553548 6.81742452,9.04010323 C6.81742452,15.5668645 14.859809,22.7377548 15.201631,23.04 Z M10.902689,8.91870968 C10.902689,6.18673548 13.1255535,3.96387097 15.8575277,3.96387097 C18.5895019,3.96387097 20.8123665,6.18673548 20.8123665,8.91870968 C20.8123665,11.6506839 18.5895019,13.8735484 15.8575277,13.8735484 C13.1255535,13.8735484 10.902689,11.6506839 10.902689,8.91870968 Z" id="Shape"></path>
            </g>
        </g>
    </g>
</svg>