<svg xmlns="http://www.w3.org/2000/svg" viewBox="0 0 27 27">
    <title>Asset 4</title>
    <g id="Layer_2" data-name="Layer 2" fill="currentColor">
        <g id="Layer_1-2" data-name="Layer 1">
            <path
                    d="M12.49,15.93c-.05-.46-.08-.88-.15-1.3,0-.07-.15-.16-.23-.16a23.18,23.18,0,0,0-4.29.59H7.75l-.37-1.21a24.45,24.45,0,0,1,4.83-.69c-.09-.54-.15-1-.27-1.49s-.35-1.12-.55-1.66a7,7,0,0,1-.32-3.19c.06-.52.08-1.06.1-1.59a.68.68,0,0,1,.42-.68,5,5,0,0,1,1.05-.3,5.51,5.51,0,0,1,2.64.23c.45.19.53.33.56.89,0,.73.06,1.47.13,2.2a4.33,4.33,0,0,1-.15,1.57c-.15.49-.25,1-.43,1.47A12.72,12.72,0,0,0,14.75,14c-.14,1.31-.29,2.62-.44,3.93a.85.85,0,0,1-.76.79.8.8,0,0,1-.8-.71c-.05-.24-.07-.48-.12-.78-.37,0-.74,0-1.1.08a10.59,10.59,0,0,0-3.67,1,4.4,4.4,0,0,0-.89.61c-.37.33-.36.57,0,1a.37.37,0,0,0,.1.06L6.44,21a1.94,1.94,0,0,1-.32-2.89,4.78,4.78,0,0,1,2.14-1.36A14.82,14.82,0,0,1,12.19,16Z"/>
            <path
                    d="M2.38,16l.69.92c-.38.35-.8.68-1.17,1.07A2.75,2.75,0,0,0,1.08,20a2.66,2.66,0,0,0,.69,1.68,6.83,6.83,0,0,0,2.39,1.82,17.53,17.53,0,0,0,5.45,1.66,27,27,0,0,0,5.16.25c.38,0,.75,0,1.12-.06l.29,1.23L16,26.6a28.07,28.07,0,0,1-6.54-.2,17.87,17.87,0,0,1-6.18-2A7.18,7.18,0,0,1,.67,22.1a3.9,3.9,0,0,1,0-4.35A5.91,5.91,0,0,1,2.38,16Z"/>
            <path
                    d="M15.76,16c.57.1,1.11.19,1.65.31a7.7,7.7,0,0,1,2.57,1,4.59,4.59,0,0,1,.92.79,1.88,1.88,0,0,1,0,2.51A4.44,4.44,0,0,1,18.87,22a15.07,15.07,0,0,1-5.47.86h-.87l.24-1.29h1.34a12.31,12.31,0,0,0,4.87-1,4.48,4.48,0,0,0,1.09-.72c.33-.29.32-.58,0-.91a4.13,4.13,0,0,0-1.83-1c-.78-.22-1.58-.37-2.37-.54-.2,0-.27-.11-.23-.35S15.71,16.42,15.76,16Z"/>
            <path
                    d="M19.28,27a2.74,2.74,0,0,1-1.73-.7,1.3,1.3,0,0,1,0-2A2.53,2.53,0,0,1,18,24a3.27,3.27,0,0,1,1.93-.39,2.91,2.91,0,0,1,1.47.5,1.35,1.35,0,0,1,0,2.39A3.35,3.35,0,0,1,19.28,27Z"/>
            <path
                    d="M9.4,23.12A2.4,2.4,0,0,1,8,22.66a1.07,1.07,0,0,1,0-1.85,2.52,2.52,0,0,1,3.07,0,1.06,1.06,0,0,1,0,1.8A2.58,2.58,0,0,1,9.4,23.12Z"/>
            <path
                    d="M26.31,17.74a3.77,3.77,0,0,1,.43,3.56,5,5,0,0,1-1.31,1.88A9.68,9.68,0,0,1,23.2,24.7l-.52-1.12.23-.14a7,7,0,0,0,2.2-1.65,4.46,4.46,0,0,0,.69-1.18,2.08,2.08,0,0,0-.14-1.77c-.06-.13-.13-.25-.19-.36Z"/>
            <path
                    d="M15.93,14.49l.14-1.22A21.12,21.12,0,0,1,22,14.6c-.2.35-.39.68-.59,1a.17.17,0,0,1-.18,0A21.59,21.59,0,0,0,16,14.55S16,14.53,15.93,14.49Z"/>
            <path
                    d="M14.69,1.61a3,3,0,0,1-.51,1.6.73.73,0,0,1-1.31,0,2.87,2.87,0,0,1-.54-2.07A1.23,1.23,0,0,1,13.62,0C14.25.07,14.7.71,14.69,1.61Z"/>
            <path
                    d="M24,17.44a1.8,1.8,0,0,1-1.21-.38.84.84,0,0,1,0-1.39,2.1,2.1,0,0,1,2.43,0,.84.84,0,0,1,0,1.39A1.88,1.88,0,0,1,24,17.44Z"/>
            <path
                    d="M5,16.21a1.8,1.8,0,0,1-1.21-.4.83.83,0,0,1,0-1.35,2.12,2.12,0,0,1,2.48,0,.85.85,0,0,1,0,1.38A2,2,0,0,1,5,16.21Z"/>
        </g>
    </g>
</svg>
