<?xml version="1.0" encoding="UTF-8"?>
<svg width="24px" height="24px" viewBox="0 0 24 24" version="1.1" xmlns="http://www.w3.org/2000/svg">
    <!-- Generator: Sketch 59.1 (86144) - https://sketch.com -->
    <title>notification_follow</title>
    <desc>Created with Sketch.</desc>
    <g id="Notifications" stroke="none" stroke-width="1" fill="none" fill-rule="evenodd">
        <g id="notification_follow" fill-rule="nonzero">
            <g id="Group-11-Copy" fill="#5CC3EE">
                <g id="Rectangle-2">
                    <rect id="Rectangle" x="0" y="0" width="24" height="24" rx="12"></rect>
                </g>
            </g>
            <g id="followers-(2)" transform="translate(4.000000, 4.000000)" fill="#FFFFFF" stroke="#5CC3EE"
               stroke-width="0.2">
                <path d="M6.40037891,12.8825156 L1.65131641,12.8825156 C1.47486719,12.8825156 1.31408594,12.8007305 1.210125,12.6581055 C1.10613672,12.5154258 1.07750781,12.3371992 1.13153906,12.1691172 C1.67108594,10.4916875 3.31652344,9.32014453 5.13291406,9.32014453 C5.97808203,9.32014453 6.78969922,9.57466016 7.48004687,10.0561289 C7.72731641,10.2285859 8.06752734,10.1679648 8.24006641,9.92069531 C8.41249609,9.67342578 8.351875,9.3331875 8.10460547,9.16070312 C7.76286328,8.92234766 7.39776953,8.72790625 7.01585937,8.57945703 C7.52398828,8.11745703 7.86108203,7.47053125 7.91965234,6.74611328 C8.69011719,5.99558203 9.70003125,5.58433203 10.7826523,5.58433203 C11.6278203,5.58433203 12.4394375,5.83884766 13.1297852,6.32031641 C13.3770547,6.49277344 13.717293,6.43215234 13.8898047,6.18488281 C14.0622344,5.93761328 14.0016133,5.597375 13.7543437,5.42489062 C13.4126016,5.18653516 13.0475078,4.99209375 12.6655977,4.84364453 C13.2261172,4.33401172 13.5784961,3.59933984 13.5784961,2.78389453 C13.5785234,1.24887109 12.3296523,-1.77635684e-15 10.7946016,-1.77635684e-15 C9.25952344,-1.77635684e-15 8.01067969,1.24887109 8.01067969,2.78394922 C8.01067969,3.59608594 8.36024219,4.32813281 8.91682422,4.83751953 C8.84067187,4.86683203 8.76506641,4.89800391 8.69000781,4.93103516 C8.34842969,5.08134375 8.02716797,5.26585937 7.72854687,5.48291406 C7.31653125,4.45984766 6.31361719,3.73583984 5.14483594,3.73583984 C3.60975781,3.73583984 2.36091406,4.98471094 2.36091406,6.51978906 C2.36091406,7.32954687 2.70845312,8.05967969 3.26216406,8.568875 C1.78155469,9.12373437 0.581027344,10.3153203 0.0922851562,11.8349219 C-0.0698085938,12.3388945 0.0160507812,12.8733281 0.327878906,13.3011758 C0.639652344,13.7289687 1.12199609,13.9743242 1.65134375,13.9743242 L6.40040625,13.9743242 C6.70189844,13.9743242 6.94626953,13.7299258 6.94626953,13.4284609 C6.94626953,13.1269961 6.70184375,12.8825156 6.40037891,12.8825156 Z M10.7946289,1.09172656 C11.727707,1.09172656 12.4868242,1.85084375 12.4868242,2.78392187 C12.4868242,3.717 11.727707,4.47611719 10.7946289,4.47611719 C9.86155078,4.47611719 9.10243359,3.717 9.10243359,2.78392187 C9.10243359,1.85084375 9.86155078,1.09172656 10.7946289,1.09172656 Z M5.14486328,4.82753906 C6.07794141,4.82753906 6.83705859,5.58665625 6.83705859,6.51973437 C6.83705859,7.4528125 6.07794141,8.21192969 5.14486328,8.21192969 C4.21178516,8.21192969 3.45266797,7.4528125 3.45266797,6.51973437 C3.45266797,5.58665625 4.21178516,4.82753906 5.14486328,4.82753906 Z"
                      id="Shape"></path>
                <path d="M13.7598398,8.91630469 C13.5147031,8.7408125 13.1736992,8.79725 12.9982344,9.04241406 L10.3076094,12.8007305 C10.2341367,12.8859336 10.142043,12.9043359 10.0927148,12.9076172 C10.0419375,12.9110898 9.94333594,12.9045 9.85878906,12.8240273 L8.11691016,11.1514648 C7.89941797,10.9426133 7.55382031,10.9496953 7.34510547,11.1671328 C7.13628125,11.3845703 7.14330859,11.7301406 7.36074609,11.9389375 L9.104375,13.6131406 C9.36550781,13.8617227 9.71408594,14.0000273 10.0727266,14.0000273 C10.103543,14.0000273 10.1344414,13.9990156 10.1653398,13.9969375 C10.5560273,13.9709062 10.920793,13.7809219 11.1660938,13.4757109 C11.1724648,13.4678086 11.1785352,13.4597422 11.1844688,13.4515117 L13.8860039,9.67791016 C14.0614414,9.43277344 14.0050039,9.09179687 13.7598398,8.91630469 Z"
                      id="Path"></path>
            </g>
        </g>
    </g>
</svg>
