<?xml version="1.0" encoding="UTF-8"?>
<svg width="24px" height="24px" viewBox="0 0 24 24" version="1.1" xmlns="http://www.w3.org/2000/svg">
    <!-- Generator: Sketch 59.1 (86144) - https://sketch.com -->
    <title>Group 11</title>
    <desc>Created with Sketch.</desc>
    <g id="Notifications" stroke="none" stroke-width="1" fill="none" fill-rule="evenodd">
        <g id="Group-11" fill-rule="nonzero">
            <g id="Rectangle-2" fill="#5CC3EE">
                <rect id="Rectangle" x="0" y="0" width="24" height="24" rx="12"></rect>
            </g>
            <path d="M19.5406407,11.6638389 C20.3511482,10.8656201 20.1007139,9.25102042 18.6968176,9.25102042 L15.0029126,9.25346925 C15.1431888,8.47963683 15.346383,7.1968545 15.3383377,7.07573911 C15.2607733,5.92866315 14.5216416,4.53262211 14.4896669,4.47548259 C14.3548573,4.22712972 13.6742084,3.89041466 12.9892275,4.03469196 C12.103631,4.22223205 12.0131735,4.78107701 12.0167835,4.93514966 C12.0167835,4.93514966 12.0549469,6.46393805 12.0586601,6.87187345 C11.6352529,7.7918198 10.1753493,10.2094339 9.73286044,10.3957496 C9.62703444,10.3323859 9.50697453,10.2983063 9.38206685,10.2983063 L4.71520221,10.2983063 C4.31881887,10.2983063 4,10.6154306 4,11.005714 L4.00061887,17.3862603 C4.02836467,17.7302198 4.32376979,18 4.67270678,18 L8.86448901,18 C9.23622088,18 9.53843353,17.7010378 9.53843353,17.3333042 L9.53843353,17.1214798 C9.53843353,17.1214798 9.69418134,17.1099499 9.7649383,17.1549472 C10.0344542,17.3242231 10.367507,17.5372719 10.8019506,17.5372719 L17.0573398,17.5372719 C19.3960324,17.5372719 19.1449793,15.4837182 18.9313676,15.2036325 C19.3265132,14.778045 19.5708619,14.0273745 19.2372934,13.4343479 C19.4932975,13.1658942 19.9438315,12.427978 19.5406407,11.6638389 Z M8.72049964,17.3320798 L4.67146905,17.3320798 L4.67146905,10.9642879 L8.72049964,10.9642879 L8.72049964,17.3320798 Z M18.4494777,11.6090462 L18.4113143,11.76669 C19.4889654,12.0698356 18.9153802,13.2985395 18.1423141,13.3782287 L18.1041507,13.5358726 C19.1374498,13.7958574 18.6445234,15.0609877 17.8351505,15.1474113 L17.7969872,15.3044429 C18.6408102,15.4414757 18.4364815,16.8660865 17.1581117,16.8660865 L10.7955556,16.8685354 C10.3462593,16.8685354 9.9369829,16.3620343 9.60650873,16.3620343 L9.31811742,16.3620343 L9.31811742,11.4604834 C9.67757512,11.2400881 10.1194451,10.9539823 10.3650315,10.7475658 C10.8290775,10.356058 12.7283757,7.31990854 12.7283757,6.9399307 C12.7283757,6.55995286 12.6864991,4.91617117 12.6864991,4.91617117 C12.6864991,4.91617117 13.0588498,4.44130091 13.8902956,4.78770928 C13.8902956,4.78770928 14.5900262,6.08569481 14.661402,7.12012428 C14.661402,7.12012428 14.3462963,9.25102042 14.1770366,9.91955286 L18.5880004,9.91955286 C19.671737,9.92077728 19.4649328,11.4514023 18.4494777,11.6090462 Z"
                  id="like" stroke="#FFFFFF" stroke-width="0.3" fill="#FFFFFF" stroke-linejoin="round"
                  transform="translate(12.000000, 11.000000) scale(-1, 1) translate(-12.000000, -11.000000) "></path>
        </g>
    </g>
</svg>
