<?xml version="1.0" encoding="UTF-8"?>
<svg width="24px" height="24px" viewBox="0 0 24 24" version="1.1" xmlns="http://www.w3.org/2000/svg">
    <!-- Generator: Sketch 59.1 (86144) - https://sketch.com -->
    <title>Group 3</title>
    <desc>Created with Sketch.</desc>
    <g id="Notifications" stroke="none" stroke-width="1" fill="none" fill-rule="evenodd">
        <g id="Group-3" fill-rule="nonzero">
            <g id="Rectangle-2-Copy" fill="#5CC3EE">
                <rect id="Rectangle" x="0" y="0" width="24" height="24" rx="12"></rect>
            </g>
            <g id="review" transform="translate(4.000000, 3.000000)" fill="#FFFFFF">
                <path d="M12.8297188,8.6688125 C12.4370313,8.6688125 12.1175625,8.98825 12.1175625,9.38090625 C12.1175625,9.7735625 12.4370313,10.093 12.8297188,10.093 C13.222375,10.093 13.5418125,9.7735625 13.5418125,9.38090625 C13.5418125,8.98825 13.2223438,8.6688125 12.8297188,8.6688125 Z M12.8297188,9.62340625 C12.6960313,9.62340625 12.58725,9.514625 12.58725,9.38096875 C12.58725,9.2473125 12.6960313,9.13853125 12.8297188,9.13853125 C12.9634063,9.13853125 13.0721563,9.2473125 13.0721563,9.38096875 C13.0721563,9.514625 12.963375,9.62340625 12.8297188,9.62340625 Z"
                      id="Shape"></path>
                <path d="M10.272625,14.1973125 C10.2412187,14.1004687 10.1510312,14.035 10.0493125,14.035 L8.654375,14.035 L8.2233125,12.7083437 C8.19225,12.6126875 8.10053125,12.5460625 7.99996875,12.5460625 C7.89940625,12.5460625 7.80771875,12.6126562 7.776625,12.7083437 L7.3455625,14.035 L5.95065625,14.035 C5.8489375,14.035 5.75875,14.1005 5.7273125,14.1972812 C5.695875,14.2940312 5.7303125,14.4000625 5.812625,14.4598125 L6.941125,15.27975 L6.5100625,16.6064062 C6.47996875,16.6989375 6.51159375,16.8031562 6.58803125,16.863375 C6.6696875,16.9277187 6.7873125,16.9300625 6.8714375,16.8689375 L7.9999375,16.049 L9.1284375,16.8689375 C9.2166875,16.9330625 9.34075,16.9269062 9.4223125,16.8545625 C9.49146875,16.7932187 9.518375,16.6943437 9.48978125,16.6064375 L9.05871875,15.2797812 L10.1872187,14.4598437 C10.269625,14.4000937 10.3040625,14.2940625 10.272625,14.1973125 Z M8.64471875,15.0000312 C8.56240625,15.0598125 8.52796875,15.1658125 8.55940625,15.2625625 L8.81984375,16.064125 L8.13796875,15.56875 C8.05659375,15.5095937 7.94328125,15.5095937 7.8619375,15.56875 L7.1800625,16.064125 L7.4405,15.2625625 C7.4719375,15.1658125 7.4375,15.0597812 7.3551875,15.0000312 L6.67334375,14.5046562 L7.51615625,14.5046562 C7.617875,14.5046562 7.7080625,14.4391562 7.7395,14.342375 L7.9999375,13.5408125 L8.260375,14.342375 C8.2918125,14.4391562 8.382,14.5046562 8.48371875,14.5046562 L9.32653125,14.5046562 L8.64471875,15.0000312 Z"
                      id="Shape"></path>
                <path d="M15.9884687,14.19725 C15.9570312,14.1004688 15.8668437,14.0349688 15.765125,14.0349688 L14.3702187,14.0349688 L13.9391562,12.7083125 C13.9080937,12.6126563 13.816375,12.5460313 13.7158125,12.5460313 C13.61525,12.5460313 13.5235625,12.612625 13.4924687,12.7083125 L13.0614062,14.0349688 L11.6665,14.0349688 C11.5647812,14.0349688 11.4745937,14.1004688 11.4431562,14.19725 C11.4117187,14.294 11.4461562,14.4000313 11.5284687,14.4597813 L12.6569687,15.2797188 L12.2259062,16.606375 C12.1958125,16.6989063 12.2274375,16.803125 12.303875,16.8633438 C12.3855312,16.9276875 12.5031562,16.9300313 12.5872812,16.8689063 L13.7157812,16.0489688 L14.8442812,16.8689063 C14.9325625,16.9330313 15.0565937,16.926875 15.1381875,16.8545313 C15.2073437,16.7931875 15.23425,16.6943125 15.2056562,16.6064063 L14.7745937,15.27975 L15.9030937,14.4598125 C15.9855,14.4000313 16.0199375,14.294 15.9884687,14.19725 Z M14.3605625,15.0000313 C14.27825,15.0598125 14.2438125,15.1658125 14.27525,15.2625625 L14.5356562,16.064125 L13.8538437,15.56875 C13.7715,15.5089375 13.6600625,15.5089063 13.5777812,15.56875 L12.8959062,16.064125 L13.1563437,15.2625625 C13.1877812,15.1658125 13.1533437,15.0597813 13.0710312,15.0000313 L12.3891875,14.5046563 L13.2320312,14.5046563 C13.33375,14.5046563 13.4239375,14.4391563 13.455375,14.342375 L13.7158125,13.5408125 L13.97625,14.342375 C14.0076875,14.4391563 14.097875,14.5046563 14.1995937,14.5046563 L15.0424062,14.5046563 L14.3605625,15.0000313 Z"
                      id="Shape"></path>
                <path d="M4.55684375,14.1973125 C4.525375,14.1004688 4.4351875,14.035 4.33346875,14.035 L2.9385625,14.035 L2.5075,12.7083438 C2.4760625,12.6115625 2.385875,12.5460625 2.28415625,12.5460625 C2.1824375,12.5460625 2.09225,12.6115625 2.0608125,12.7083438 L1.62975,14.035 L0.23484375,14.035 C0.133125,14.035 0.0429375,14.1005 0.0115,14.1972813 C-0.0199375,14.2940313 0.0145,14.4000625 0.0968125,14.4598125 L1.2253125,15.27975 L0.79425,16.6064063 C0.7628125,16.7031563 0.79725,16.8091875 0.8795625,16.8689375 C0.96184375,16.92875 1.0733125,16.92875 1.155625,16.8689375 L2.284125,16.049 L3.412625,16.8689375 C3.50090625,16.9330625 3.6249375,16.9269063 3.7065,16.8545625 C3.77565625,16.7932188 3.8025625,16.6943438 3.77396875,16.6064375 L3.34290625,15.2797813 L4.47140625,14.4598438 C4.55384375,14.4000938 4.58828125,14.2940625 4.55684375,14.1973125 Z M2.92890625,15.0000313 C2.84659375,15.0598125 2.81215625,15.1658125 2.84359375,15.2625625 L3.10403125,16.064125 L2.42215625,15.56875 C2.34078125,15.5095938 2.22746875,15.5095938 2.14609375,15.56875 L1.46428125,16.0640938 L1.7246875,15.2625313 C1.756125,15.1657813 1.7216875,15.05975 1.639375,15 L0.95753125,14.504625 L1.80034375,14.504625 C1.9020625,14.504625 1.99225,14.439125 2.0236875,14.3423438 L2.284125,13.5407813 L2.5445625,14.3423438 C2.576,14.439125 2.6661875,14.504625 2.76790625,14.504625 L3.61071875,14.504625 L2.92890625,15.0000313 Z"
                      id="Shape"></path>
                <path d="M14.0989687,5.8780625 C14.3415312,5.682875 14.497,5.38359375 14.497,5.04875 C14.497,4.46196875 14.019625,3.98459375 13.432875,3.98459375 L9.6555,3.98459375 C9.77290625,3.72859375 9.9084375,3.338625 9.98590625,2.79653125 C10.1658437,1.536875 9.8939375,0.86825 9.63415625,0.52915625 C9.41428125,0.24215625 9.118875,0.06859375 8.7799375,0.02728125 C8.4939375,-0.00784375 8.23278125,0.2193125 8.22515625,0.506625 C8.1811875,0.9583125 8.02034375,2.19746875 7.78996875,2.65828125 C7.198125,3.84196875 5.7870625,4.5476875 5.35125,4.7429375 C5.19875,4.611875 5.0006875,4.53240625 4.7843125,4.53240625 L2.875125,4.53240625 C2.39475,4.53240625 2.0039375,4.9231875 2.0039375,5.40359375 L2.0039375,10.1764375 C2.0039375,10.6568438 2.39475,11.047625 2.875125,11.047625 L4.78425,11.047625 C5.04128125,11.047625 5.272625,10.9356563 5.4321875,10.7580313 C5.68003125,10.9145 6.08003125,11.0888125 6.6324375,11.0888125 L12.7694062,11.0888125 C13.3561875,11.0888125 13.8335313,10.6114375 13.8335313,10.0246875 C13.8335313,9.75571875 13.7332187,9.50971875 13.5680313,9.32215625 C13.9214063,9.148875 14.1652188,8.78534375 14.1652188,8.366 C14.1652188,8.09703125 14.0649062,7.8510625 13.8997188,7.66346875 C14.2530938,7.49021875 14.497,7.1266875 14.497,6.70734375 C14.497,6.37253125 14.3415,6.07325 14.0989687,5.8780625 Z M4.78425,10.5779375 L2.875125,10.5779375 C2.65371875,10.5779375 2.47359375,10.3978125 2.47359375,10.1764063 L2.47359375,5.4035625 C2.47359375,5.18215625 2.65371875,5.00203125 2.875125,5.00203125 L4.78425,5.00203125 C4.896375,5.00203125 4.99778125,5.04834375 5.0706875,5.12271875 L5.0706875,10.3595938 C5.0706875,10.3876875 5.07578125,10.41525 5.08540625,10.441125 C5.01175,10.5247813 4.90421875,10.5779375 4.78425,10.5779375 Z M12.4462187,6.112875 L13.4329687,6.112875 C13.7607812,6.112875 14.0274375,6.37959375 14.0274375,6.70734375 C14.0274375,7.03509375 13.76075,7.3018125 13.4329687,7.3018125 L12.4462187,7.3018125 C12.3165312,7.3018125 12.211375,7.4069375 12.211375,7.53665625 C12.211375,7.666375 12.3165312,7.7715 12.4462187,7.7715 L13.1012187,7.7715 C13.4290312,7.7715 13.6956875,8.03821875 13.6956875,8.36596875 C13.6956875,8.69371875 13.429,8.9604375 13.1012187,8.9604375 L12.2661875,8.9604375 C12.1365,8.9604375 12.0313437,9.0655625 12.0313437,9.19528125 C12.0313437,9.325 12.1365,9.430125 12.2661875,9.430125 L12.7694687,9.430125 C13.09725,9.430125 13.3639375,9.69684375 13.3639375,10.024625 C13.3639375,10.3524062 13.09725,10.6190937 12.7694687,10.6190937 L6.6325,10.6190937 C6.1478125,10.6190937 5.81921875,10.4567187 5.6408125,10.3348125 C5.6503125,10.283375 5.65553125,10.2304687 5.65553125,10.1763437 L5.65553125,5.4035625 C5.65553125,5.31175 5.64115625,5.22328125 5.61471875,5.14015625 C6.16496875,4.887625 7.5736875,4.14096875 8.21003125,2.8683125 C8.5283125,2.23178125 8.687,0.61084375 8.69359375,0.54215625 C8.69428125,0.53471875 8.69465625,0.5271875 8.69465625,0.51971875 C8.69465625,0.51171875 8.69771875,0.50490625 8.70375,0.49959375 C8.7121875,0.4921875 8.7203125,0.493125 8.72303125,0.49346875 C8.87003125,0.51140625 9.08275,0.58171875 9.26134375,0.81478125 C9.466375,1.08240625 9.67784375,1.6319375 9.52096875,2.730125 C9.388,3.66096875 9.07271875,4.0681875 9.07075,4.07071875 C8.94765625,4.22115625 9.0585,4.45428125 9.25246875,4.45428125 L13.4329375,4.45428125 C13.76075,4.45428125 14.0274375,4.721 14.0274375,5.04878125 C14.0274375,5.37659375 13.7607187,5.64325 13.4329375,5.64325 L12.4461875,5.64325 C12.3165,5.64325 12.2113437,5.748375 12.2113437,5.87809375 C12.2113437,6.0078125 12.3165,6.112875 12.4462187,6.112875 Z"
                      id="Shape" stroke="#FFFFFF" stroke-width="0.4"
                      transform="translate(8.250469, 5.556251) scale(-1, 1) translate(-8.250469, -5.556251) "></path>
            </g>
        </g>
    </g>
</svg>
