<?xml version="1.0" encoding="UTF-8"?>
<svg width="24px" height="24px" viewBox="0 0 24 24" version="1.1" xmlns="http://www.w3.org/2000/svg">
    <!-- Generator: Sketch 57.1 (83088) - https://sketch.com -->
    <title>icons2/24/phone</title>
    <desc>Created with Sketch.</desc>
    <g id="icons2/24/phone" stroke="none" stroke-width="1" fill="none" fill-rule="evenodd">
        <path d="M19.2891887,24 C18.2906337,24 17.0846181,23.7497558 15.7583239,23.2492674 C12.8506478,22.1530364 9.68707687,19.986406 6.85043786,17.149767 C4.0129916,14.3123208 1.84636123,11.1479426 0.749322979,8.24026651 C-0.247617596,5.59655769 -0.250039314,3.42669837 0.743672304,2.43379399 C0.886553666,2.29091263 1.03185675,2.13753715 1.18200326,1.97931824 C2.08853303,1.02596859 3.11291975,-0.046852482 4.4706963,0.00158187798 C5.40628669,0.0403293659 6.31281646,0.621541685 7.24114169,1.77670117 C9.98414095,5.18809459 8.74745029,6.40379703 7.31621495,7.8132369 L7.06354904,8.06348109 C6.82944963,8.2975805 6.38708248,9.38170292 10.5023886,13.497009 C11.8456348,14.8402553 12.9911075,15.8234728 13.9065169,16.4184082 C14.4828857,16.7929672 15.5137304,17.3596492 15.9367238,16.9366558 L16.1910042,16.6799537 C17.5988296,15.2519474 18.814532,14.0192929 22.2235037,16.7598704 C23.3786632,17.6881957 23.9590683,18.5939182 23.9978158,19.5311231 C24.0535153,20.8880924 22.9726218,21.9149008 22.0184649,22.8206233 C21.8610532,22.9707699 21.7076778,23.1160729 21.5647964,23.2581471 C21.0715732,23.7521775 20.2829004,24 19.2891887,24 Z M4.37382758,0.807206732 C3.40917658,0.807206732 2.53816534,1.72423061 1.76725178,2.53550614 C1.61226183,2.69856849 1.46211531,2.8567874 1.31439051,3.0045122 C0.574152044,3.74394342 0.649225302,5.6869685 1.50489899,7.95611826 C2.56238252,10.7588532 4.6636265,13.8215193 7.4219633,16.5798561 C10.1794929,19.3365784 13.2405444,21.4378224 16.0440866,22.4944986 C18.3132364,23.3517868 20.2562615,23.4244384 20.9948854,22.6858144 C21.1426102,22.5380896 21.3008292,22.3879431 21.4638915,22.2337603 C22.2929263,21.4458948 23.2333601,20.553088 23.1921909,19.5626054 C23.1639375,18.8821026 22.6682926,18.1499366 21.7189791,17.3870954 C18.8783039,15.1026081 18.0839804,15.9090402 16.7665658,17.2450213 L16.5082492,17.5057596 C15.8786026,18.1362135 14.8558303,17.9965611 13.4673787,17.0940675 C12.5043421,16.4676498 11.3144714,15.4489137 9.93247763,14.0661128 C6.51704801,10.6514904 5.42485319,8.56154776 6.49363807,7.49034117 L6.75114742,7.23606078 C8.09035747,5.91864619 8.89840404,5.12351544 6.61310949,2.28122575 C5.84865384,1.33271954 5.11729501,0.837074587 4.43679225,0.808013971 C4.41580403,0.807206732 4.39481581,0.807206732 4.37382758,0.807206732 Z"
              id="Shape" fill="currentColor" stroke="currentColor" stroke-width="0.5"></path>
    </g>
</svg>
