<?xml version="1.0" encoding="UTF-8"?>
<svg width="36px" height="36px" viewBox="0 0 36 36" version="1.1" xmlns="http://www.w3.org/2000/svg" xmlns:xlink="http://www.w3.org/1999/xlink">
    <!-- Generator: Sketch 63.1 (92452) - https://sketch.com -->
    <title>Group 63</title>
    <desc>Created with Sketch.</desc>
    <g id="NEW" stroke="none" stroke-width="1" fill="none" fill-rule="evenodd">
        <g id="Group-63">
            <rect id="Rectangle" fill="#194D9B" x="0" y="0" width="36" height="36" rx="18"></rect>
            <g id="privacy-policy" transform="translate(8.700000, 8.000000)" fill="#FFFFFF" fill-rule="nonzero">
                <path d="M12.758875,0.0197178348 L5.86009917,0.0197178348 C5.12067301,0.0197178348 4.40763515,0.284158842 3.8179293,0.852003738 L0.874762983,3.75222581 C0.347790823,4.27908307 0.00812133937,5.00638358 0.00812133937,5.82869848 L0.00812133937,15.1471374 C0.00812133937,16.7688694 1.32955601,18.090304 2.95128791,18.090304 L10.9654701,18.090304 C10.9568811,18.0817151 10.9568811,18.0731262 10.9482923,18.0645373 C9.66121335,15.7477847 9.81570889,13.0620758 9.90149322,12.2469677 C9.9616156,11.5261804 10.382053,10.8912299 11.0255924,10.5479879 L14.5007467,8.6688506 C14.8181172,8.49722961 15.1699481,8.41144529 15.521779,8.41144529 C15.5819014,8.41144529 15.6504031,8.41144529 15.7105254,8.42003422 L15.7105254,2.96283207 C15.7105254,1.3411 14.3890912,0.0197178348 12.758875,0.0197178348 Z M6.81252506,12.7960816 L4.27272242,12.7960816 C3.8007516,12.7960816 3.41466979,12.4099998 3.41466979,11.938029 C3.41466979,11.4575215 3.8007516,11.0799763 4.27272242,11.0799763 L6.81252506,11.0799763 C7.29298004,11.0799763 7.67057768,11.4575215 7.67057768,11.938029 C7.67057768,12.4099998 7.29298004,12.7960816 6.81252506,12.7960816 Z M9.36102098,8.85764938 L4.27272242,8.85764938 C3.8007516,8.85764938 3.41466979,8.47151523 3.41466979,7.99959676 C3.41466979,7.51908935 3.8007516,7.14154414 4.27272242,7.14154414 L9.36102098,7.14154414 C9.83288711,7.14154414 10.2190736,7.51908935 10.2190736,7.99959676 C10.2190736,8.47151523 9.83288702,8.85764938 9.36102098,8.85764938 Z" id="Shape"></path>
                <path d="M12.2439604,12.101061 C12.1153363,12.1697199 12.0294473,12.2898598 12.0208583,12.4357141 C11.9437676,13.1479124 11.8235229,15.3960061 12.8617323,17.2665545 C12.9476214,17.4209977 13.0419946,17.5754409 13.1449567,17.7212952 C13.7713184,18.6308813 14.7066711,19.3945083 16.1051964,19.7892314 C20.5585439,18.5278668 20.0351444,13.5254577 19.8635758,12.4185363 C19.846398,12.2812709 19.7605089,12.1697199 19.6404737,12.101061 L16.1481409,10.2133348 C16.0195168,10.1447282 15.8564323,10.1447282 15.7277035,10.2133348 L15.7105257,10.2219237 C15.6238167,10.2689271 12.0177643,12.2236755 12.2439604,12.101061 L12.2439604,12.101061 Z" id="Path"></path>
            </g>
        </g>
    </g>
</svg>