<?xml version="1.0" encoding="UTF-8"?>
<svg width="36px" height="36px" viewBox="0 0 36 36" version="1.1" xmlns="http://www.w3.org/2000/svg" xmlns:xlink="http://www.w3.org/1999/xlink">
    <!-- Generator: Sketch 63.1 (92452) - https://sketch.com -->
    <title>Group 56</title>
    <desc>Created with Sketch.</desc>
    <g id="NEW" stroke="none" stroke-width="1" fill="none" fill-rule="evenodd">
        <g id="Group-56">
            <rect id="Rectangle" fill="#194D9B" x="0" y="0" width="36" height="36" rx="18"></rect>
            <g id="security" transform="translate(10.000000, 8.000000)" fill="#FFFFFF" fill-rule="nonzero">
                <path d="M7.5166994,19.6671672 C7.57582103,19.6947669 7.63891298,19.7105519 7.69803457,19.7105519 C7.76112651,19.7105519 7.82419437,19.6947669 7.88334005,19.6671672 C12.5077722,17.2544179 15.381776,12.5117185 15.381776,7.2919795 L15.381776,3.56245669 C15.381776,3.40475092 15.2911084,3.26283013 15.1452414,3.19976227 L7.85574034,0.034000356 C7.75718024,-0.00936033141 7.6428592,-0.00936033141 7.54429911,0.034000356 L0.254773991,3.19976227 C0.108906977,3.26283013 0.0182393741,3.40475092 0.0182393741,3.56245669 L0.0182393741,7.2919795 C0.0182393741,12.5117185 2.89224321,17.2544179 7.5166994,19.6671672 Z M2.92001134,10.3814151 L4.32179776,8.97962864 C4.47579791,8.82562848 4.72527816,8.82562848 4.87927831,8.97962864 L6.12995207,10.2301099 L10.5201115,5.84033551 C10.6741116,5.68633535 10.9235919,5.68633535 11.077592,5.84033551 L12.4793784,7.24212193 C12.6333786,7.39612208 12.6333786,7.64560233 12.4793784,7.79960248 L6.40869233,13.8704811 C6.33477226,13.9444011 6.23447967,13.9859812 6.12995203,13.9859812 C6.0254244,13.9859812 5.92513181,13.9444011 5.85121173,13.8704811 L2.9200113,10.9388956 C2.76601119,10.7848955 2.76601119,10.5354152 2.92001134,10.3814151 L2.92001134,10.3814151 Z" id="Shape"></path>
            </g>
        </g>
    </g>
</svg>