<?xml version="1.0" encoding="UTF-8"?>
<svg width="36px" height="36px" viewBox="0 0 36 36" version="1.1" xmlns="http://www.w3.org/2000/svg" xmlns:xlink="http://www.w3.org/1999/xlink">
    <!-- Generator: Sketch 63.1 (92452) - https://sketch.com -->
    <title>Group 57</title>
    <desc>Created with Sketch.</desc>
    <g id="NEW" stroke="none" stroke-width="1" fill="none" fill-rule="evenodd">
        <g id="Group-57">
            <rect id="Rectangle" fill="#194D9B" x="0" y="0" width="36" height="36" rx="18"></rect>
            <g id="hiking" transform="translate(10.000000, 6.000000)" fill="#FFFFFF" fill-rule="nonzero">
                <path d="M8.7672283,4.03817363 C9.88300965,4.03817363 10.7867781,3.13409646 10.7867781,2.01882958 C10.7867781,0.903974277 9.88300965,5.14469453e-05 8.7672283,5.14469453e-05 C7.65329904,5.14469453e-05 6.74834727,0.903974277 6.74834727,2.01882958 C6.74834727,3.13409646 7.65329904,4.03817363 8.7672283,4.03817363 Z" id="Path"></path>
                <path d="M15.979627,10.4364244 C15.979627,9.86099035 15.513209,9.39457235 14.937672,9.39457235 L11.4146367,9.39457235 L9.42775563,6.57363344 L9.43428939,6.52563344 C9.50518328,5.98677814 9.35845659,5.44180064 9.0272926,5.01082958 C8.69592283,4.57980707 8.20763987,4.2981865 7.66868167,4.2272926 C7.07210289,4.14955627 6.50639228,4.34171061 6.08144051,4.70189068 L6.08144051,2.35518971 C6.08144051,1.95148553 5.75413505,1.62376849 5.34960772,1.62376849 L3.3229582,1.62376849 C2.91822508,1.62376849 2.5911254,1.95148553 2.5911254,2.35518971 L2.5911254,11.0473055 C2.5911254,12.1112283 3.40506752,12.9753312 4.44213505,13.0766817 L4.28558199,13.4405659 L3.05810932,18.0777878 L0.293864952,21.7916399 C-0.118019293,22.3456206 -0.00421864952,23.1285916 0.550276527,23.5408875 C0.773967846,23.7078328 1.03609003,23.7883987 1.29579421,23.7883987 C1.67763344,23.7883987 2.05355627,23.6142508 2.29957556,23.2844759 L5.20781994,19.3773376 C5.30304823,19.2495434 5.37311897,19.1047203 5.41376206,18.9508939 L6.25059807,15.7913312 L8.54106752,17.894328 L8.22847588,22.4526817 C8.18129904,23.1417106 8.7006045,23.7383408 9.39014791,23.7855691 C9.41854662,23.787627 9.44797428,23.7884502 9.47714469,23.7884502 C10.128463,23.7884502 10.677865,23.2832926 10.7225723,22.6235884 L11.0766302,17.4653119 C11.1027653,17.0864566 10.9546495,16.715627 10.6745723,16.4588039 L8.30832154,14.2867653 L9.0281672,9.62500322 L10.0226881,11.0364502 C10.2182379,11.3135949 10.535717,11.4784823 10.8742379,11.4784823 L14.5209003,11.4784823 L14.5897878,23.429299 C14.5897878,23.6596785 14.7763344,23.8460707 15.0065595,23.8460707 C15.2369904,23.8460707 15.4233312,23.659627 15.4233312,23.429299 L15.3544437,11.3888617 C15.7215691,11.2280386 15.979627,10.8630225 15.979627,10.4364244 Z" id="Path"></path>
            </g>
        </g>
    </g>
</svg>