<?xml version="1.0" encoding="UTF-8"?>
<svg width="32px" height="32px" viewBox="0 0 32 32" version="1.1" xmlns="http://www.w3.org/2000/svg" xmlns:xlink="http://www.w3.org/1999/xlink">
    <!-- Generator: Sketch 63.1 (92452) - https://sketch.com -->
    <title>restaurant (1)</title>
    <desc>Created with Sketch.</desc>
    <g id="NEW" stroke="none" stroke-width="1" fill="none" fill-rule="evenodd">
        <g id="new_header-copy-5" transform="translate(-41.000000, -170.000000)" fill="currentColor" fill-rule="nonzero">
            <g id="restaurant-(1)" transform="translate(41.000000, 170.000000)">
                <path d="M10.0118065,19.6545806 C9.87754839,19.665871 9.7436129,19.6716774 9.60935484,19.6716774 C9.24206452,19.6716774 8.88483871,19.6183871 8.53503226,19.5374194 L0.440903226,27.6318065 C0.0436129032,28.0285161 0.0436129032,28.6729032 0.440903226,29.0696774 L2.53574194,31.1650323 C2.93303226,31.5618065 3.57670968,31.5618065 3.97290323,31.1650323 L13.7009677,21.4387742 L11.898129,19.4936129 L10.0118065,19.6545806 Z" id="XMLID_98_"></path>
                <path d="M31.3125806,6.68703226 C30.9327097,6.30735484 30.3179355,6.30735484 29.938129,6.68703226 L24.6927742,11.9322581 C24.1964516,12.4280645 23.3925161,12.4280645 22.8961935,11.9322581 C22.4020645,11.4368387 22.4020645,10.6335484 22.8961935,10.1382581 L28.1156129,4.91993548 C28.5099355,4.52522581 28.5099355,3.88535484 28.1156129,3.48974194 C27.7194194,3.09554839 27.0798065,3.09554839 26.6854839,3.48974194 L21.4681935,8.70754839 C20.971871,9.20387097 20.1688387,9.20387097 19.6725161,8.70754839 C19.1772258,8.21232258 19.1772258,7.40845161 19.6725161,6.9136129 L24.9167742,1.66890323 C25.2976774,1.28864516 25.2976774,0.672709677 24.9167742,0.291935484 C24.5369032,-0.0883870968 23.9210323,-0.0883870968 23.540129,0.291935484 L17.6396129,6.19277419 C16.2209677,7.61232258 15.7728387,9.60490323 16.232129,11.418 L20.1876129,15.3737419 C22.0005806,15.8313548 23.994129,15.3830323 25.4111613,13.9646452 L31.3125161,8.06412903 C31.6934839,7.68387097 31.6934839,7.06729032 31.3125806,6.68703226 Z" id="XMLID_97_"></path>
                <path d="M2.65116129,0.825225806 C2.44896774,0.622967742 2.17554839,0.512064516 1.89477419,0.512064516 C1.83503226,0.512064516 1.77496774,0.51716129 1.71632258,0.526967742 C1.37470968,0.584774194 1.0816129,0.804064516 0.931032258,1.11619355 C-0.797354839,4.68864516 -0.0750322581,8.96335484 2.73064516,11.7691613 L7.75006452,16.7879355 C8.24529032,17.2837419 8.91490323,17.5581935 9.60935484,17.5581935 C9.6836129,17.5581935 9.75806452,17.5550968 9.83232258,17.5489677 L12.7465806,17.3002581 L25.4543871,31.0092258 C25.6516774,31.2223226 25.9280645,31.3460645 26.2192258,31.3518065 C26.2252258,31.3518065 26.2314839,31.3518065 26.2378065,31.3518065 C26.5224516,31.3518065 26.7949677,31.2393548 26.9972258,31.0385806 L29.1736129,28.8617419 C29.3747097,28.6610968 29.4870968,28.3887742 29.4870968,28.1049677 C29.4870968,27.8212258 29.3747097,27.5487097 29.1744516,27.3480645 L2.65116129,0.825225806 Z" id="XMLID_96_"></path>
            </g>
        </g>
    </g>
</svg>