<svg xmlns="http://www.w3.org/2000/svg" width="105.644" height="135.928" viewBox="0 0 105.644 135.928"><defs><style>.a,.d{fill:#67c3e7;}.a{opacity:0.347;}.b{fill:#fff;}.c{fill:#2b48a4;}</style></defs><g transform="translate(-453.374 -340.338)"><path class="a" d="M1693.311,717.758c-.23-4.072-6.984-4.242-6.984-4.242s-5.838,5.809-7.156,5.7,4.021-5.941,4.021-5.941c-2.437-.766-9.421.944-9.421.944s-1.26,7.949-2.51,7.518,1.475-6.982,1.475-6.982c-2.56.214-5.4,2.548-5.4,2.548-3.775,3.981,1.532,8.623,1.532,8.623a13.086,13.086,0,0,1-2.843,5.519h0a9.479,9.479,0,0,0-1.1,1.4l.656.139q.136-.247.286-.472l0,0,0-.006c.066-.092.161-.223.279-.381h0c.283-.35.48-.612.61-.8v0c.861-1.105,2.066-2.528,2.714-2.743a1.3,1.3,0,0,1-.077-.331l.077.331c.615,2.645,6.148,4.233,9.413,4.252s2.088-1.152.7-2.941-4.993-2.157-5.918-2.939.719-1.022,2.771-.421,2.655,2.908,5.958,3.941,7.21-4.764,7.21-4.764c-2.48.231-6.382-1.935-6.373-2.771s6.172.549,7.185.512S1693.54,721.83,1693.311,717.758Z" transform="translate(-1137.811 -345.551)"/><path class="a" d="M1721.623,490.678s4.066-14.592,13.051-22.289a1.682,1.682,0,0,1,2.744,1.575q-.007.039-.015.078C1736.9,472.678,1726.643,482.549,1721.623,490.678Z" transform="translate(-1188.217 -127.644)"/><path class="a" d="M1707.363,519.049s10.455-17.411,24.687-23.63a1.784,1.784,0,0,1,2.322.821,2.831,2.831,0,0,1-.274,2.53C1732.56,501.88,1716.4,510.651,1707.363,519.049Z" transform="translate(-1175.539 -151.902)"/><path class="a" d="M1692.49,1327.508s15.869-7.953,18.74-5.183S1692.49,1327.508,1692.49,1327.508Z" transform="translate(-1162.316 -886.699)"/><path class="a" d="M1669.215,1379.211s21.248-1.866,21.581,2.562S1669.215,1379.211,1669.215,1379.211Z" transform="translate(-1141.622 -937.449)"/><path class="a" d="M1001.109,493.355c2.71-8.356,16.87-5.008,16.87-5.008s8.976,15.3,11.781,15.788-5.12-14.577-5.12-14.577c5.5-.261,19.1,7.128,19.1,7.128s-1.731,17.247,1.109,17.033.754-15.349.754-15.349c5.215,1.848,9.852,8.265,9.852,8.265,5.681,10.36-7.915,17.12-7.915,17.12a28.179,28.179,0,0,0,2.9,13.053h0a20.436,20.436,0,0,1,1.518,3.513l-1.443-.071q-.148-.589-.337-1.139a.009.009,0,0,0,0-.007l-.005-.016c-.088-.228-.215-.552-.373-.947h0v0c-.4-.885-.665-1.537-.831-2.006a.012.012,0,0,1,0,0c-1.188-2.774-2.917-6.4-4.15-7.2a2.8,2.8,0,0,0,.341-.647l-.341.647c-2.73,5.172-15.123,5.447-21.935,3.7s-3.717-3.543.143-6.511,11.582-1.756,13.936-2.879-.937-2.522-5.542-2.394-7.123,4.6-14.568,4.944-12.406-13.873-12.406-13.873c5.038,1.839,14.351-.533,14.791-2.28s-13.154-2.238-15.245-2.871S998.4,501.711,1001.109,493.355Z" transform="translate(-546.746 -145.161)"/><path class="a" d="M1618.467,1077.905c-1.349-4.981-9.754-3.424-9.754-3.424s-5.707,8.716-7.367,8.924,3.424-8.405,3.424-8.405c-3.217-.311-11.414,3.632-11.414,3.632s.519,10.169-1.141,9.961,0-9.028,0-9.028c-3.113.934-6.019,4.566-6.019,4.566-3.632,5.915,4.151,10.273,4.151,10.273a16.553,16.553,0,0,1-2.075,7.575h0a12.011,12.011,0,0,0-.992,2.017h.849c.069-.228.146-.448.23-.659a.005.005,0,0,1,0,0l0-.009c.058-.131.142-.318.246-.545h0c.259-.508.434-.882.545-1.153v0c.777-1.593,1.9-3.669,2.642-4.1a1.65,1.65,0,0,1-.181-.389l.181.389c1.453,3.113,8.716,3.632,12.764,2.8s2.283-1.972.1-3.824-6.745-1.364-8.094-2.09.623-1.453,3.321-1.245,4.047,2.906,8.4,3.321,7.679-7.782,7.679-7.782c-3.009.934-8.405-.726-8.613-1.764s7.783-.934,9.028-1.245S1619.816,1082.886,1618.467,1077.905Z" transform="translate(-1066.953 -666.663)"/><path class="a" d="M1087.035,1030.858c2.989-5.663,12.74-1.491,12.74-1.491s4.537,12.105,6.49,12.808-1.858-11.107-1.858-11.107c3.979.5,12.83,7.5,12.83,7.5s-3.4,12.17-1.329,12.37,2.457-10.929,2.457-10.929c3.515,1.978,6.044,7.165,6.044,7.165,2.787,8.149-7.821,11.307-7.821,11.307a20.539,20.539,0,0,0,.451,9.735h0a14.906,14.906,0,0,1,.652,2.712l-1.027-.231c-.022-.294-.055-.581-.1-.86a.006.006,0,0,0,0-.005l0-.012c-.035-.175-.085-.423-.149-.727h0c-.176-.685-.286-1.187-.346-1.545a.013.013,0,0,1,0,0c-.507-2.14-1.3-4.958-2.082-5.689a2.031,2.031,0,0,0,.326-.422l-.326.422c-2.606,3.374-11.541,2.025-16.214-.082s-2.227-3.008.915-4.658,8.536.184,10.367-.328-.358-1.928-3.681-2.411-5.69,2.416-11.079,1.732-7.178-11.511-7.178-11.511c3.389,1.95,10.373,1.408,10.907.208s-9.167-3.249-10.59-3.964S1084.046,1036.52,1087.035,1030.858Z" transform="translate(-622.629 -625.441)"/><path class="a" d="M1072.62,1376.018c-1.58-3.426,3.864-6.5,3.864-6.5s7.29,2.21,8.318,1.548-5.864-3.107-5.864-3.107c1.658-1.684,8.1-3.319,8.1-3.319s4.48,5.946,5.314,5.051-4.236-5.063-4.236-5.063c2.184-.937,5.517-.263,5.517-.263,4.812,1.613,2.492,7.708,2.492,7.708a12.1,12.1,0,0,0,4.718,3.274h0a8.759,8.759,0,0,1,1.5.666l-.476.4q-.219-.143-.438-.262h0l-.006,0c-.094-.046-.229-.112-.394-.19h0c-.383-.163-.658-.291-.847-.391h0a9.527,9.527,0,0,0-3.408-1.062,1.2,1.2,0,0,0-.081-.3l.081.3c.646,2.427-3.184,6.126-5.843,7.56s-2.205-.035-1.852-2.1,3.142-3.929,3.558-4.97-1.031-.523-2.446.86-.906,3.528-3.156,5.806-7.957-.762-7.957-.762c2.125-.888,4.373-4.351,4-5.03s-4.8,3.128-5.647,3.537S1074.2,1379.444,1072.62,1376.018Z" transform="translate(-610.948 -924.392)"/><g transform="translate(476.764 359.063)"><path class="b" d="M1277.243,722.357a1.307,1.307,0,0,0,.02,1.55.622.622,0,0,1,.071.118c6.39,3.839,25.556,19.37,25.556,30.317v22.678h-57.843V754.334c0-11.017,19.427-26.8,25.676-30.426h0a1.326,1.326,0,0,0,.266-.783,1.365,1.365,0,0,0-.266-.794c-6.264-3.712-25.678-19.374-25.678-30.391V669.262h57.843v22.687C1302.89,702.948,1283.526,718.693,1277.243,722.357Z" transform="translate(-1241.269 -665.66)"/><path class="c" d="M5.842,0h53.5a5.6,5.6,0,0,1,5.6,5.6v.24a0,0,0,0,1,0,0H0a0,0,0,0,1,0,0v0A5.842,5.842,0,0,1,5.842,0Z" transform="translate(0 111.362)"/><path class="b" d="M1261.6,755.737c-.3,5.076.669,16.025.582,21.284h-17.139V754.334c0-11.017,19.427-26.8,25.676-30.426h0a1.326,1.326,0,0,0,.266-.783,1.365,1.365,0,0,0-.266-.794c-6.264-3.712-25.678-19.374-25.678-30.391V669.262h11.466l8.185,2.24v17.934a21.709,21.709,0,0,0,1.219,10.239c2.029,5.073,6.387,21.351,6.319,23.466S1262.112,747.036,1261.6,755.737Z" transform="translate(-1241.269 -665.66)"/><path class="d" d="M1317.3,805.17c-3.507.053-9.535.685-19.288,3.145-6.677,1.684-18.191.416-24.28-.457a3.544,3.544,0,0,0-4.047,3.508v2.614c0,7.2,19.378,22.8,24.5,26.8a3.2,3.2,0,0,1,1.23,2.52v40.05a4.183,4.183,0,0,1-1.795,3.425c-4.03,2.821-10.821,11.075-10.821,11.075h25.683s-6.887-7.965-10.753-10.922a3.564,3.564,0,0,1-1.4-2.83V843.293a3.225,3.225,0,0,1,1.21-2.518c5.024-4.024,23.979-19.682,23.979-26.879v-4.572A4.154,4.154,0,0,0,1317.3,805.17Z" transform="translate(-1263.169 -786.492)"/><path class="c" d="M0,0H64.939a0,0,0,0,1,0,0V0A5.842,5.842,0,0,1,59.1,5.842H5.633A5.633,5.633,0,0,1,0,.209V0A0,0,0,0,1,0,0Z" transform="translate(0 0)"/></g></g></svg>