<?xml version="1.0" encoding="UTF-8"?>
<svg width="21px" height="26px" viewBox="0 0 21 26" version="1.1" xmlns="http://www.w3.org/2000/svg"
>
    <!-- Generator: Sketch 59 (86127) - https://sketch.com -->
    <title>i-pin-03-hover</title>
    <desc>Created with Sketch.</desc>
    <g id="desktop" stroke="none" stroke-width="1" fill="none" fill-rule="evenodd">
        <g id="easy-desktop-list-L" transform="translate(-66.000000, -254.000000)" fill="#D60061" fill-rule="nonzero"
           stroke="#FFFFFF">
            <g id="Group-3" transform="translate(16.000000, 208.000000)">
                <g id="i-pin-03-hover" transform="translate(51.000000, 47.000000)">
                    <path d="M13.1023336,18.6928704 L10.2424029,24.048781 C10.0937857,24.3269229 9.80387061,24.5 9.48867953,24.5 C9.17348844,24.5 8.88357338,24.3269229 8.73487051,24.0486207 L5.86964723,18.6815746 C2.04260797,17.2002427 -0.5,13.5244457 -0.5,9.43323772 C-0.5,3.9546161 3.98611924,-0.5 9.5,-0.5 C15.013996,-0.5 19.5,3.95473066 19.5,9.43394017 C19.5,13.5376967 16.9455157,17.2183117 13.1023336,18.6928704 Z M9.5,7.5 C8.3974698,7.5 7.5,8.39752996 7.5,9.5 C7.5,10.6023045 8.39774446,11.5 9.5,11.5 C10.6022555,11.5 11.5,10.6023045 11.5,9.5 C11.5,8.39752996 10.6025302,7.5 9.5,7.5 Z"
                          id="Combined-Shape"></path>
                </g>
            </g>
        </g>
    </g>
</svg>