<?xml version="1.0" encoding="UTF-8"?>
<svg width="28px" height="28px" viewBox="0 0 28 28" version="1.1" xmlns="http://www.w3.org/2000/svg">
    <!-- Generator: Sketch 59.1 (86144) - https://sketch.com -->
    <title>Group 6</title>
    <desc>Created with Sketch.</desc>
    <defs>
        <linearGradient x1="50%" y1="96.9965259%" x2="50%" y2="1.49872449%" id="linearGradient-1">
            <stop stop-color="#7BC0DD" offset="0%"></stop>
            <stop stop-color="#3FBBEE" offset="100%"></stop>
        </linearGradient>
    </defs>
    <g id="Components-Symbols" stroke="none" stroke-width="1" fill="none" fill-rule="evenodd">
        <g id="header2/chat2" transform="translate(-12.000000, -9.000000)">
            <g id="Group-8">
                <g id="Group-6" transform="translate(12.000000, 9.000000)">
                    <g id="Group-3" fill="url(#linearGradient-1)">
                        <circle id="Oval-2" cx="14" cy="14" r="14"></circle>
                    </g>
                    <g id="send"
                       transform="translate(14.000000, 14.000000) scale(-1, 1) translate(-14.000000, -14.000000) translate(6.461538, 6.461538)"
                       fill="#FFFFFF">
                        <path d="M15.074101,0.284559345 C15.0718062,0.267184333 15.0691835,0.250464982 15.0639382,0.233417801 C15.0583651,0.214731468 15.0508249,0.197684286 15.0423013,0.180309275 C15.0377117,0.170802193 15.0360725,0.16063945 15.0304994,0.151460199 C15.0268932,0.145559251 15.0209922,0.141625286 15.0167304,0.136052169 C15.005912,0.120971971 14.9931265,0.107858754 14.9796854,0.0944177073 C14.9662443,0.0809766606 14.9528032,0.068519105 14.9373951,0.0577007015 C14.9318219,0.0537667366 14.9282158,0.0481936196 14.9226427,0.0449153155 C14.9134634,0.0393421986 14.9033006,0.0380308769 14.8937934,0.0334412512 C14.8757627,0.0245898301 14.8580598,0.0170497307 14.8390455,0.0114766138 C14.8229817,0.00721481845 14.8072458,0.00492000558 14.7908542,0.00295302312 C14.7715121,0.000658210258 14.7528257,-0.000653111379 14.7334836,0.000330379849 C14.7154529,0.00131387108 14.6980778,0.00492000558 14.6803748,0.0091818009 C14.6692285,0.0118044442 14.6577544,0.0108209529 14.6466081,0.0147549179 L0.222001986,4.93221106 C0.0915248666,4.97614033 0.00268240594,5.09776542 0,5.23578202 C-0.00256290539,5.37379862 0.0813620759,5.49870201 0.210527867,5.5482044 L6.94976943,8.1377368 L9.86190071,14.8792413 C9.914026,14.9995551 10.0327012,15.0769231 10.1628505,15.0769231 C10.1684236,15.0769231 10.1736689,15.0769231 10.1792421,15.0765952 C10.315948,15.0697108 10.4336396,14.9789018 10.4752743,14.8487531 L15.0649217,0.424215099 C15.0682,0.414052356 15.0672165,0.403561783 15.0691835,0.39307121 C15.0731175,0.374712707 15.076068,0.357009865 15.0767237,0.338323532 C15.0773793,0.319965029 15.0763958,0.302590017 15.074101,0.284559345 Z M1.28975067,5.2603693 L13.5234559,1.08971083 L7.11466891,7.4984675 L1.28975067,5.2603693 Z M10.1159705,13.8144482 L7.58510777,7.95546309 L14.0312676,1.50900592 L10.1159705,13.8144482 Z"
                              id="Shape" fill-rule="nonzero"></path>
                        <path d="M5.28592856,9.79099605 C5.15434614,9.65941157 4.94166048,9.65941157 4.81007805,9.79099605 L0.0986868199,14.5024609 C-0.0328956066,14.6340454 -0.0328956066,14.8467344 0.0986868199,14.9783188 C0.164309769,15.0439428 0.250460923,15.0769231 0.336612077,15.0769231 C0.422763231,15.0769231 0.508914385,15.0439428 0.574537334,14.9783188 L5.28592856,10.266854 C5.41751099,10.1352695 5.41751099,9.92258054 5.28592856,9.79099605 Z"
                              id="Path"></path>
                        <path d="M5.84871353,11.9514202 L3.33603261,14.4641709 C3.19568144,14.6045259 3.19568144,14.8313914 3.33603261,14.9717465 C3.40602872,15.0417446 3.49792106,15.0769231 3.58981339,15.0769231 C3.68170572,15.0769231 3.77359805,15.0417446 3.84359416,14.9717465 L6.35627508,12.4589958 C6.49662626,12.3186407 6.49662626,12.0917752 6.35627508,11.9514202 C6.2159239,11.8110651 5.98906471,11.8110651 5.84871353,11.9514202 Z"
                              id="Path"></path>
                        <path d="M0.359044156,11.8461538 C0.450936486,11.8461538 0.542828817,11.8109753 0.612824929,11.7409773 L3.12550585,9.22822657 C3.26585703,9.08787149 3.26585703,8.861006 3.12550585,8.72065092 C2.98515467,8.58029585 2.75829548,8.58029585 2.6179443,8.72065092 L0.105263383,11.2334016 C-0.0350877943,11.3737567 -0.0350877943,11.6006222 0.105263383,11.7409773 C0.175259494,11.8109753 0.267151825,11.8461538 0.359044156,11.8461538 Z"
                              id="Path"></path>
                    </g>
                </g>
            </g>
        </g>
    </g>
</svg>
