<?xml version="1.0" encoding="UTF-8"?>
<svg xmlns="http://www.w3.org/2000/svg" xmlns:xlink="http://www.w3.org/1999/xlink" width="35px" height="35px" viewBox="0 0 35 35" version="1.1">
<g id="surface1">
<path style=" stroke:none;fill-rule:nonzero;fill:currentColor;fill-opacity:1;" d="M 15.542969 1.398438 C 15.199219 1.398438 14.910156 1.648438 14.851562 1.988281 L 14.171875 6.15625 C 13.355469 6.394531 12.574219 6.714844 11.835938 7.113281 L 8.398438 4.65625 C 8.121094 4.460938 7.738281 4.492188 7.496094 4.730469 L 4.773438 7.453125 C 4.53125 7.691406 4.5 8.070312 4.695312 8.347656 L 7.113281 11.8125 C 6.707031 12.550781 6.378906 13.335938 6.136719 14.164062 L 1.984375 14.851562 C 1.648438 14.910156 1.402344 15.203125 1.402344 15.542969 L 1.402344 19.394531 C 1.402344 19.734375 1.644531 20.023438 1.976562 20.082031 L 6.132812 20.820312 C 6.375 21.644531 6.699219 22.429688 7.109375 23.171875 L 4.65625 26.597656 C 4.460938 26.875 4.492188 27.257812 4.730469 27.5 L 7.453125 30.222656 C 7.695312 30.464844 8.070312 30.496094 8.347656 30.300781 L 11.816406 27.875 C 12.554688 28.277344 13.339844 28.601562 14.160156 28.839844 L 14.851562 33.015625 C 14.910156 33.351562 15.203125 33.601562 15.542969 33.601562 L 19.394531 33.601562 C 19.734375 33.601562 20.023438 33.355469 20.082031 33.023438 L 20.828125 28.832031 C 21.644531 28.585938 22.421875 28.257812 23.15625 27.855469 L 26.648438 30.304688 C 26.925781 30.5 27.304688 30.464844 27.546875 30.226562 L 30.269531 27.5 C 30.511719 27.257812 30.542969 26.875 30.339844 26.597656 L 27.851562 23.140625 C 28.25 22.410156 28.570312 21.636719 28.808594 20.824219 L 33.019531 20.085938 C 33.355469 20.027344 33.597656 19.734375 33.597656 19.394531 L 33.597656 15.542969 C 33.597656 15.203125 33.351562 14.910156 33.011719 14.855469 L 28.808594 14.167969 C 28.566406 13.355469 28.246094 12.582031 27.847656 11.851562 L 30.300781 8.355469 C 30.496094 8.074219 30.464844 7.695312 30.222656 7.457031 L 27.5 4.734375 C 27.257812 4.492188 26.875 4.460938 26.597656 4.660156 L 23.152344 7.140625 C 22.417969 6.738281 21.636719 6.410156 20.816406 6.167969 L 20.082031 1.980469 C 20.027344 1.644531 19.734375 1.398438 19.394531 1.398438 Z M 16.140625 2.800781 L 18.804688 2.800781 L 19.503906 6.78125 C 19.550781 7.050781 19.753906 7.273438 20.023438 7.339844 C 21.046875 7.59375 22.007812 8 22.886719 8.53125 C 23.125 8.675781 23.429688 8.664062 23.65625 8.5 L 26.933594 6.144531 L 28.816406 8.03125 L 26.484375 11.355469 C 26.324219 11.582031 26.316406 11.878906 26.457031 12.117188 C 26.984375 12.992188 27.382812 13.949219 27.636719 14.964844 C 27.707031 15.238281 27.929688 15.441406 28.203125 15.488281 L 32.199219 16.140625 L 32.199219 18.808594 L 28.195312 19.511719 C 27.921875 19.558594 27.703125 19.761719 27.636719 20.03125 C 27.386719 21.050781 26.988281 22.003906 26.460938 22.878906 C 26.316406 23.121094 26.328125 23.421875 26.492188 23.648438 L 28.855469 26.933594 L 26.972656 28.820312 L 23.652344 26.492188 C 23.425781 26.332031 23.125 26.320312 22.886719 26.464844 C 22.015625 26.996094 21.050781 27.402344 20.03125 27.664062 C 19.765625 27.730469 19.5625 27.949219 19.515625 28.21875 L 18.808594 32.199219 L 16.136719 32.199219 L 15.476562 28.238281 C 15.433594 27.960938 15.226562 27.738281 14.957031 27.671875 C 13.929688 27.417969 12.964844 27.015625 12.082031 26.484375 C 11.84375 26.34375 11.546875 26.355469 11.320312 26.511719 L 8.027344 28.820312 L 6.140625 26.929688 L 8.46875 23.675781 C 8.632812 23.449219 8.640625 23.144531 8.496094 22.90625 C 7.960938 22.019531 7.554688 21.054688 7.300781 20.027344 C 7.234375 19.757812 7.015625 19.554688 6.742188 19.507812 L 2.800781 18.808594 L 2.800781 16.136719 L 6.738281 15.480469 C 7.015625 15.4375 7.238281 15.230469 7.304688 14.960938 C 7.5625 13.929688 7.96875 12.964844 8.503906 12.078125 C 8.644531 11.84375 8.636719 11.542969 8.476562 11.316406 L 6.179688 8.027344 L 8.066406 6.140625 L 11.328125 8.472656 C 11.558594 8.636719 11.859375 8.648438 12.097656 8.503906 C 12.976562 7.976562 13.945312 7.574219 14.96875 7.324219 C 15.242188 7.257812 15.449219 7.035156 15.492188 6.757812 Z M 17.5 11.898438 C 14.414062 11.898438 11.898438 14.414062 11.898438 17.5 C 11.898438 20.585938 14.414062 23.101562 17.5 23.101562 C 20.585938 23.101562 23.101562 20.585938 23.101562 17.5 C 23.101562 14.414062 20.585938 11.898438 17.5 11.898438 Z M 17.5 13.300781 C 19.828125 13.300781 21.699219 15.171875 21.699219 17.5 C 21.699219 19.828125 19.828125 21.699219 17.5 21.699219 C 15.171875 21.699219 13.300781 19.828125 13.300781 17.5 C 13.300781 15.171875 15.171875 13.300781 17.5 13.300781 Z M 17.5 13.300781 "/>
</g>
</svg>
