<?xml version="1.0" encoding="UTF-8"?>
<svg width="36px" height="36px" viewBox="0 0 36 36" version="1.1" xmlns="http://www.w3.org/2000/svg" xmlns:xlink="http://www.w3.org/1999/xlink">
    <!-- Generator: Sketch 63.1 (92452) - https://sketch.com -->
    <title>Group 61</title>
    <desc>Created with Sketch.</desc>
    <g id="NEW" stroke="none" stroke-width="1" fill="none" fill-rule="evenodd">
        <g id="Group-61">
            <rect id="Rectangle" fill="#194D9B" x="0" y="0" width="36" height="36" rx="18"></rect>
            <g id="support-(1)" transform="translate(8.000000, 8.000000)" fill="#FFFFFF">
                <path d="M12.0179688,17.6261328 C12.0179688,16.9348828 11.4575781,16.3744922 10.7663281,16.3744922 L9.23367188,16.3744922 C8.90171875,16.3744922 8.58335938,16.5063672 8.34863281,16.7410938 C8.11390625,16.9758203 7.98203125,17.2941797 7.98203125,17.6261328 C7.98203125,18.3173828 8.54242188,18.8777734 9.23367188,18.8777734 L10.7663281,18.8777734 C11.4575781,18.8777734 12.0179688,18.3173828 12.0179688,17.6261328 L12.0179688,17.6261328 Z M2.63128906,14.3986719 C2.84035156,14.4146484 3.09328125,14.4238281 3.34734375,14.4089453 C3.48269531,15.0953516 3.81894531,15.7319922 4.32085938,16.2339453 C4.9871875,16.9002344 5.89089844,17.2745703 6.83320313,17.2745703 L7.31078125,17.2745703 C7.28972656,17.3898047 7.27890625,17.5074219 7.27890625,17.6261328 C7.27890625,17.7461719 7.28972656,17.8637109 7.31046875,17.9776953 L6.83320313,17.9776953 C5.70441406,17.9776953 4.62183594,17.5292969 3.82367188,16.7311328 C3.18691406,16.0943359 2.77273438,15.2765625 2.63128906,14.3986719 L2.63128906,14.3986719 Z M2.27363281,13.6505078 C1.71851563,13.5569141 1.20195313,13.2930078 0.798710938,12.8897266 C0.287304688,12.3783203 6.9388939e-16,11.6846875 6.9388939e-16,10.9614453 L6.9388939e-16,9.29960937 C6.9388939e-16,8.57636719 0.287304688,7.88273438 0.798710938,7.37132812 C1.31011719,6.85992187 2.00375,6.57257812 2.72699219,6.57257812 L2.90851563,6.57257812 C3.19867188,2.91023437 6.2628125,0.0284765625 10,0.0284765625 C13.7371875,0.0284765625 16.8013281,2.91023437 17.0914844,6.57257812 L17.2730078,6.57257812 C17.99625,6.57257812 18.6898828,6.85992187 19.2012891,7.37132812 C19.7126953,7.88273438 20,8.57636719 20,9.29960937 L20,10.9614453 C20,11.6846875 19.7126953,12.3783203 19.2012891,12.8897266 C18.6898828,13.4011719 17.99625,13.6884766 17.2730078,13.6884766 L16.4682813,13.6884766 C16.1345313,13.6884766 15.8639844,13.4178906 15.8639844,13.0841797 L15.8639844,7.14246094 C15.8639844,3.90386719 13.2385937,1.27847656 10,1.27847656 C6.76140625,1.27847656 4.13601563,3.90386719 4.13601563,7.14246094 L4.13601563,13.0841797 C4.13601563,13.3198047 4.00113281,13.5239844 3.80433594,13.6236328 C3.26261719,13.8116016 2.4225,13.675625 2.27363281,13.6505078 Z" id="Shape"></path>
            </g>
        </g>
    </g>
</svg>