<?xml version="1.0" encoding="UTF-8"?>
<svg width="50px" height="50px" viewBox="0 0 50 50" version="1.1" xmlns="http://www.w3.org/2000/svg">
    <!-- Generator: Sketch 59.1 (86144) - https://sketch.com -->
    <title>logo2/sw_logo_color</title>
    <desc>Created with Sketch.</desc>
    <g id="1.0_login" stroke="none" stroke-width="1" fill="none" fill-rule="evenodd">
        <g id="1.1_splash" transform="translate(-158.000000, -319.000000)">
            <g id="logo2/sw_logo_color" transform="translate(88.000000, 307.000000)">
                <path d="M79.5885697,25.3277422 C79.5885697,22.4233161 79.5883894,19.5186407 79.5888702,16.6142146 C79.5891106,14.9124277 80.0230048,14.4419381 81.6093029,14.4359573 C82.8501683,14.4312225 84.0907933,14.4309733 85.331899,14.4354589 C86.8703606,14.4409413 87.3008894,14.8815269 87.303774,16.5205154 C87.3124279,21.7073644 87.3657933,26.8947119 87.2859856,32.0803149 C87.2391106,35.1362546 88.3008894,36.6022983 91.6929567,36.6057871 C92.8936779,36.6070331 94.0958413,36.6319531 95.2946394,36.5826115 C96.1374279,36.5477235 96.4263702,36.9115555 96.4133894,37.7578388 C96.3843029,39.6659632 96.4040144,41.5748353 96.4246875,43.483209 C96.4333413,44.2826427 96.194399,44.7030431 95.3186779,44.6873435 C92.6778125,44.6397463 90.0266106,44.8002311 87.3965625,44.6138295 C84.4513702,44.4052491 82.3025721,42.7727398 80.9261298,40.0240637 C79.8415144,37.8580172 79.6157933,35.5397095 79.5999279,33.1700665 C79.5823798,30.5559584 79.5958413,27.9418503 79.5958413,25.3277422 L79.5885697,25.3277422 Z"
                      id="Combined-Shape" fill="@startColor"></path>
                <path d="M 105.92 13.973 C 107.3 13.999 107.849 14.595 107.851 16.056 C 107.859 21.16 107.854 26.264 107.855 31.368 C 107.857 36.305 107.923 41.245 107.831 46.181 C 107.78 48.928 107.22 51.617 105.698 53.942 C 103.003 58.059 99.025 59.09 94.521 58.768 C 91.34 58.541 88.404 57.369 85.454 56.249 C 84.473 55.876 84.057 55.248 84.503 54.143 C 85.024 52.853 85.501 51.543 85.96 50.229 C 86.249 49.402 86.684 49.19 87.507 49.509 C 89.631 50.333 91.755 51.174 94.073 51.246 C 95.175 51.28 96.229 51.099 97.23 50.65 C 99.247 49.745 99.79 47.951 99.797 45.885 C 99.828 36.383 99.844 26.881 99.867 17.38 L 99.86 16.632 C 99.86 16.383 99.864 16.134 99.884 15.887 C 99.984 14.695 100.675 14.005 101.837 13.977 C 103.197 13.945 104.559 13.947 105.92 13.973 Z"
                      id="Fill-11" fill="@endColor"></path>
            </g>
        </g>
    </g>
</svg>
