<?xml version="1.0" encoding="UTF-8"?>
<svg width="200px" height="59px" viewBox="0 0 200 59" version="1.1" xmlns="http://www.w3.org/2000/svg">
    <!-- Generator: Sketch 59.1 (86144) - https://sketch.com -->
    <title>logo2/sw_logo_color</title>
    <desc>Created with Sketch.</desc>
    <g id="1.0_login" stroke="none" stroke-width="1" fill="none" fill-rule="evenodd">
        <g id="1.1_splash" transform="translate(-88.000000, -307.000000)">
            <g id="logo2/sw_logo_color" transform="translate(88.000000, 307.000000)">
                <path d="M105.919615,13.97252 C107.299663,13.998686 107.848942,14.5945233 107.851106,16.0558321 C107.859279,21.1596976 107.854231,26.2638122 107.855433,31.3676776 C107.856635,36.3053267 107.92274,41.2447201 107.830673,46.1808739 C107.779712,48.9278056 107.220096,51.6171721 105.697981,53.9422083 C103.003029,58.0594908 99.0251442,59.0904313 94.5210577,58.7682157 C91.3395673,58.5406961 88.4039904,57.3689576 85.4544712,56.249302 C84.4727404,55.8764987 84.0571154,55.2475179 84.5030288,54.1433127 C85.0239423,52.8534534 85.500625,51.5434089 85.9602404,50.2286297 C86.2491827,49.401784 86.6837981,49.1897148 87.5071154,49.5091893 C89.6309135,50.3332937 91.7551923,51.1743437 94.0727404,51.2456149 C95.1746635,51.2795061 96.22875,51.0993345 97.2304327,50.6500269 C99.2470192,49.7454309 99.7902885,47.9511908 99.7970192,45.8845751 C99.8275481,36.3828279 99.844375,26.8810806 99.8667308,17.3795826 L99.8604507,16.6318268 C99.8595192,16.3826579 99.8636058,16.1339563 99.8842788,15.8868745 C99.9837981,14.6954493 100.674904,14.0046668 101.837163,13.9772548 C103.19726,13.945108 104.559038,13.9468524 105.919615,13.97252 Z M138.835481,14.2173092 C141.301587,14.7226868 143.498942,17.2707569 143.540769,19.8978235 C143.620577,24.9209481 143.585,29.9458171 143.595577,34.9699385 C143.598702,36.5962178 143.596298,36.5962178 145.100144,36.5997066 C147.500144,36.605189 148.008317,36.1755682 148.548462,33.7897273 C149.440529,29.8511211 150.34149,25.9145085 151.260962,21.98288 C151.794375,19.7024507 152.396058,17.4392162 152.914327,15.1555472 C153.080192,14.425142 153.464567,14.2564336 154.109038,14.2659032 C155.911202,14.2928168 157.715529,14.327954 159.515769,14.263162 C160.744615,14.2190536 161.40399,14.8632356 161.664327,15.9706805 C162.540288,19.6957223 163.351106,23.4372112 164.214808,27.1652434 C164.770817,29.5647903 165.374183,31.9521264 165.959038,34.3444465 C166.01649,34.5796913 166.048221,34.8665205 166.340769,34.9058941 C166.699663,34.9544881 166.83476,34.6694033 166.894135,34.3775901 C167.082596,33.4445853 167.220577,32.5001172 167.42851,31.5720964 C168.564327,26.5078538 169.708798,21.4456047 170.863846,16.3860969 C171.258317,14.6591408 171.735,14.2865868 173.417933,14.2848424 L177.503688,14.2772741 C178.184653,14.2774218 178.865609,14.2792769 179.546538,14.284344 C180.991971,14.2950596 181.419135,14.704246 181.792692,16.1623153 C183.050385,21.0732999 184.045096,26.0475813 185.144375,30.9966936 C185.385,32.0794676 185.785,33.1203761 185.900865,34.2390349 C185.931635,34.5360813 186.01,34.9392869 186.451106,34.9233381 C186.882837,34.9081369 186.909038,34.5281069 186.979231,34.2111245 L188.63094,26.7309708 C188.907009,25.4844447 189.184359,24.2382231 189.464327,22.9926384 C189.996538,20.6249891 190.54149,18.260081 191.123462,15.9053901 C191.387163,14.8393124 192.01024,14.2412324 193.190288,14.2664016 C195.387404,14.3127528 197.586202,14.2467148 199.784519,14.2275264 L199.784519,14.9751264 C199.064808,15.1059564 199.352308,15.7690777 199.258558,16.1697913 C197.776346,22.5146728 196.329471,28.8682763 194.883317,35.2226274 C194.316971,37.7116371 193.776587,40.2068768 193.217692,42.6981293 C192.862644,44.281297 192.272981,44.7749622 190.74149,44.7774542 C187.857596,44.7824382 184.973462,44.788419 182.089327,44.7819398 C180.539087,44.7782018 180.035721,44.3981718 179.678269,42.8219817 C179.129952,40.403994 178.650144,37.9695591 178.118413,35.547335 C177.749183,33.8652349 177.331394,32.1948472 176.96024,30.5132455 C176.880913,30.1556435 176.776827,29.8438943 176.400865,29.8172299 C175.938846,29.7840863 175.963846,30.2314003 175.896058,30.5224659 C175.109038,33.8971325 174.337404,37.2755371 173.558798,40.6521972 C173.494375,40.9317996 173.423221,41.2116512 173.330673,41.4822824 C172.204231,44.7804446 172.203029,44.780943 168.767692,44.780943 C166.444615,44.780943 164.121298,44.7799462 161.797981,44.7742146 C160.501587,44.770975 159.929231,44.2658466 159.633558,42.9508181 C158.891971,39.653902 158.146298,36.3577334 157.36601,33.0707853 C157.289087,32.7480712 157.355433,32.1853776 156.943173,32.1345408 C156.418173,32.0697488 156.555673,32.656864 156.464567,32.9693609 C155.557115,36.0838626 154.689087,39.2105751 153.769375,42.3213389 C153.171298,44.3445938 152.569135,44.777205 150.571538,44.7799462 C138.237404,44.7961442 125.902788,44.810847 113.568654,44.8243229 C111.975144,44.8262974 111.821058,44.675033 111.823903,43.0846385 C111.827067,41.3823532 111.880673,39.6790712 111.842933,37.9780319 C111.819856,36.9423566 112.257596,36.5570934 113.208798,36.5742882 C114.650625,36.6007034 116.093173,36.5570934 117.53476,36.5874958 C118.381875,36.605189 118.542212,36.2989222 118.321779,35.457623 C117.260481,31.4053816 116.979471,27.3150126 118.043894,23.2106884 C119.002548,19.5145538 121.212163,16.9106629 124.549904,15.2851313 C126.580673,14.2958072 128.727788,13.940448 130.929231,13.982812 C133.564808,14.0331504 136.215769,13.6810308 138.835481,14.2173092 Z M134.65351,22.2026744 C133.218654,22.2761884 131.777067,22.2019268 130.338846,22.2288404 C127.72226,22.278182 125.555192,24.5900105 125.458077,27.3172554 C125.404712,28.8179379 125.589567,30.2937003 125.795337,31.7607408 C126.238125,34.9200985 127.321779,36.6819426 131.337163,36.606435 C132.415769,36.5862498 133.498702,36.5471254 134.57274,36.6206394 C135.475865,36.682441 135.77875,36.3255866 135.761442,35.420243 C135.723942,33.4739909 135.749663,31.5262436 135.749663,29.5792439 L135.693413,29.5789947 L135.693413,29.5789947 L135.690814,25.3567343 C135.69149,24.6530304 135.693494,23.9493172 135.697981,23.2455764 C135.702788,22.4892544 135.45976,22.1615564 134.65351,22.2026744 Z"
                      id="Combined-Shape" fill="@endColor"></path>
                <path d="M33.221875,35.6600731 C33.8576923,34.1414482 33.9365385,32.5971557 34.3271635,31.1385881 C35.5649038,26.517423 36.5425481,21.8334596 37.5723558,17.1612086 C37.6961538,16.5990134 37.8947115,16.0497766 38.1040865,15.5132489 C38.3826923,14.7990417 38.8605769,14.4082961 39.6694712,14.4247433 C41.5514423,14.4631201 43.4350962,14.4651137 45.3170673,14.4262385 C46.1271635,14.4097913 46.2817308,14.7576745 46.1134615,15.4893257 C45.2649038,19.1817223 44.4358173,22.8788537 43.5891827,26.5717486 C42.8615385,29.7458092 42.1259615,32.9173777 41.3817308,36.0872019 C40.8353365,38.41473 40.2699519,40.7375233 39.7115385,43.062061 C39.375,44.4635619 38.8935096,44.7207363 37.5028846,44.6985575 C34.54375,44.6504619 31.5800481,44.5208779 28.6240385,44.7705763 C27.5028846,44.8652723 26.9350962,44.3397095 26.6697115,43.2591782 C25.7276442,39.4217472 24.7956731,35.5823227 24.0086538,31.7062657 C23.8213942,30.7842256 23.5252404,29.8858596 23.2286058,28.7896287 C22.3019231,30.1310724 22.2829327,31.5652185 21.971875,32.8837357 C21.178125,36.2489327 20.4966346,39.6427876 19.6901442,43.004745 C19.4579327,43.9721394 18.9605769,44.7242251 17.7016827,44.6860975 C14.6598558,44.5941427 11.6125,44.6026155 8.57019231,44.6816119 C7.36274038,44.7130111 6.77716346,44.141097 6.52235577,43.0650514 C5.77163462,39.8947289 5.06490385,36.7131923 4.32019231,33.5413746 C3.1625,28.6119491 1.984375,23.6877569 0.821875,18.7598267 C0.546634615,17.5925738 0.293269231,16.4198386 0.0418269231,15.2471033 C-0.103846154,14.5675349 0.122836538,14.2612681 0.846394231,14.2777153 C2.728125,14.3210761 4.61153846,14.2881817 6.49399038,14.3170889 C7.57379808,14.3337853 8.25769231,15.1152765 8.61850962,16.748035 C9.22427885,19.4887367 9.74495192,22.2508697 10.4028846,24.9776162 C11.1860577,28.2249415 11.9471154,31.4755065 12.6105769,34.7514898 C12.6771635,35.0791878 12.6396635,35.6269295 13.1271635,35.6069935 C13.6387019,35.5860607 13.4747596,35.022121 13.5478365,34.7041418 C14.9634615,28.5526395 16.3524038,22.3941597 17.7596154,16.2401654 C18.1100962,14.7068377 18.4709135,14.4362065 19.9980769,14.4349605 C22.0408654,14.4337145 24.0860577,14.4950177 26.1259615,14.4150245 C27.4935096,14.3611973 28.0682692,14.6148829 28.5418269,16.400401 C29.0596154,18.3523847 29.3930288,20.356202 29.8521635,22.3258789 C30.7673077,26.2535202 31.7088942,30.1744332 32.6524038,34.095097 C32.771875,34.5915034 32.5855769,35.1983054 33.221875,35.6600731"
                      id="Fill-4" fill="@startColor"></path>
                <path d="M62.6281971,14.451931 C65.2406971,14.5595854 67.6373317,15.3308595 69.6411779,17.1597383 C70.9589663,18.3623776 71.8916587,19.8254309 72.3652163,21.5850321 C72.8938221,23.5502234 73.1757933,25.5393379 73.1031971,27.5962348 C73.0272356,29.7523133 73.0863702,31.9133758 73.0863702,34.0724447 L73.0926202,34.0724447 C73.0926202,36.9369988 73.0976683,39.8018022 73.0906971,42.6663563 C73.086851,44.235818 72.5171394,44.8079812 70.9928606,44.7957199 C65.4685817,44.7501668 59.9443029,44.6612024 54.4202644,44.6716688 C51.3955048,44.6774004 48.6632933,41.6271923 48.5452644,38.7628873 C48.5060817,37.8094481 48.6051202,36.8457916 48.5147356,35.8998284 C48.1116106,31.6723994 50.9390144,29.0498185 53.8392548,27.8489236 C56.9529567,26.559812 60.2082452,26.0589199 63.5361298,25.9158791 C64.0842067,25.8927035 64.9503125,26.2702416 65.0923798,25.4618367 C65.2354087,24.6484479 64.9707452,23.7697686 64.2572837,23.1574842 C62.1339663,21.3348353 59.661851,21.3475445 57.1515144,21.7549865 C55.2315625,22.0667358 53.3238702,22.4390406 51.5318029,23.3311766 C50.7236298,23.7336346 49.9592067,23.6608682 49.6952644,22.3680186 C49.4248317,21.0420253 49.2452644,19.6749141 48.713774,18.4074828 C48.5130529,17.9290188 48.6373317,17.6207584 49.1844471,17.3700631 C51.4522356,16.3306499 53.8238702,15.6612987 56.2116106,15.0091422 C58.3298798,14.430749 60.4724279,14.3632158 62.6281971,14.451931 Z M64.2272356,31.4882406 C63.3156971,31.5637482 62.3878125,31.5674862 61.4988702,31.7598686 C59.4046394,32.2129142 57.3688221,32.7858251 56.5688221,35.26387 C56.2289183,36.3162416 56.3382933,36.580892 57.4438221,36.5990836 C58.5214663,36.6172752 59.5998317,36.6030708 60.6779567,36.6035692 L61.3928063,36.6028351 C65.3725406,36.5912422 65.3617909,36.3866718 65.1611298,32.5680242 C65.1589663,32.526657 65.1582452,32.4850406 65.160649,32.4439226 C65.1969471,31.7601178 64.8822837,31.433915 64.2272356,31.4882406 Z"
                      id="Combined-Shape" fill="@startColor"></path>
                <path d="M79.5885697,25.3277422 C79.5885697,22.4233161 79.5883894,19.5186407 79.5888702,16.6142146 C79.5891106,14.9124277 80.0230048,14.4419381 81.6093029,14.4359573 C82.8501683,14.4312225 84.0907933,14.4309733 85.331899,14.4354589 C86.8703606,14.4409413 87.3008894,14.8815269 87.303774,16.5205154 C87.3124279,21.7073644 87.3657933,26.8947119 87.2859856,32.0803149 C87.2391106,35.1362546 88.3008894,36.6022983 91.6929567,36.6057871 C92.8936779,36.6070331 94.0958413,36.6319531 95.2946394,36.5826115 C96.1374279,36.5477235 96.4263702,36.9115555 96.4133894,37.7578388 C96.3843029,39.6659632 96.4040144,41.5748353 96.4246875,43.483209 C96.4333413,44.2826427 96.194399,44.7030431 95.3186779,44.6873435 C92.6778125,44.6397463 90.0266106,44.8002311 87.3965625,44.6138295 C84.4513702,44.4052491 82.3025721,42.7727398 80.9261298,40.0240637 C79.8415144,37.8580172 79.6157933,35.5397095 79.5999279,33.1700665 C79.5823798,30.5559584 79.5958413,27.9418503 79.5958413,25.3277422 L79.5885697,25.3277422 Z"
                      id="Fill-11" fill="@startColor"></path>
                <path d="M134.822163,4.55288421 C134.728173,7.27240393 132.913029,8.96123241 130.409423,9.09904001 C128.361587,9.21142922 126.264952,6.80739671 126.2825,4.58802141 C126.30125,2.1944553 128.185625,0.254931612 130.497404,0.249185186 C132.997404,0.243219211 134.810385,2.04742729 134.822163,4.55288421"
                      id="Fill-13" fill="@startColor"></path>
            </g>
        </g>
    </g>
</svg>
