<?xml version="1.0" encoding="UTF-8"?>
<svg width="36px" height="36px" viewBox="0 0 36 36" version="1.1" xmlns="http://www.w3.org/2000/svg" xmlns:xlink="http://www.w3.org/1999/xlink">
    <!-- Generator: Sketch 63.1 (92452) - https://sketch.com -->
    <title>Group 62</title>
    <desc>Created with Sketch.</desc>
    <g id="NEW" stroke="none" stroke-width="1" fill="none" fill-rule="evenodd">
        <g id="Group-62">
            <rect id="Rectangle" fill="#194D9B" x="0" y="0" width="36" height="36" rx="18"></rect>
            <g id="accept" transform="translate(10.000000, 8.000000)" fill="#FFFFFF" fill-rule="nonzero">
                <path d="M14.1969135,9.065258 C14.2299486,9.065258 14.2628322,9.06571258 14.2958673,9.06631873 L14.3043534,9.06647029 C14.4896833,9.06980409 14.673498,9.08177554 14.8554941,9.10162692 L14.8554941,2.34352268 C14.8554941,1.05136503 13.8041291,0 12.5119714,0 L2.34367421,0 C1.05136503,0 -2.20515639e-15,1.05136503 -2.20515639e-15,2.34352268 L-2.20515639e-15,15.8232106 C-2.20515639e-15,17.1155198 1.05136503,18.1668849 2.34352268,18.1668849 L9.13238894,18.1668849 C8.54654617,17.2253843 8.23922875,16.1500764 8.23922875,15.0262766 C8.23922875,11.7392833 10.9117387,9.065258 14.1969135,9.065258 Z M8.40485889,3.82646568 L11.8777883,3.82646568 C12.1991987,3.82646568 12.4596911,4.08695808 12.4596911,4.4083685 C12.4596911,4.72977888 12.1991987,4.99027132 11.8777883,4.99027132 L8.40485889,4.99027132 C8.08360004,4.99027132 7.82295607,4.72977888 7.82295607,4.4083685 C7.82295607,4.08695808 8.08360004,3.82646568 8.40485889,3.82646568 Z M8.27936048,7.15422849 L11.0032866,7.15422849 C11.2553788,7.15422849 11.4596911,7.41472094 11.4596911,7.73613132 C11.4596911,8.05754169 11.2553788,8.31803414 11.0032866,8.31803414 L8.27936048,8.31803414 C8.02738721,8.31803414 7.82295607,8.05754169 7.82295607,7.73613132 C7.82295607,7.41472094 8.02738721,7.15422849 8.27936048,7.15422849 Z M6.45063524,11.645797 L2.97770583,11.645797 C2.65629545,11.645797 2.39580301,11.3853045 2.39580301,11.0638941 C2.39580301,10.7424838 2.65629545,10.4819913 2.97770583,10.4819913 L6.45063524,10.4819913 C6.77189409,10.4819913 7.03253807,10.7424838 7.03253807,11.0638941 C7.03253807,11.3853045 6.77189409,11.645797 6.45063524,11.645797 Z M6.45063524,8.31803414 L2.97770583,8.31803414 C2.65629545,8.31803414 2.39580301,8.05754169 2.39580301,7.73613132 C2.39580301,7.41472094 2.65629545,7.15422849 2.97770583,7.15422849 L6.45063524,7.15422849 C6.77189409,7.15422849 7.03253807,7.41472094 7.03253807,7.73613132 C7.03253807,8.05754169 6.77189409,8.31803414 6.45063524,8.31803414 Z M6.45063524,4.99027132 L2.97770583,4.99027132 C2.65629545,4.99027132 2.39580301,4.72977888 2.39580301,4.4083685 C2.39580301,4.08695808 2.65629545,3.82646568 2.97770583,3.82646568 L6.45063524,3.82646568 C6.77189409,3.82646568 7.03253807,4.08695808 7.03253807,4.4083685 C7.03253807,4.72977888 6.77189409,4.99027132 6.45063524,4.99027132 Z" id="Shape"></path>
                <path d="M17.6427177,11.6357834 C16.7495575,10.7268633 15.5566567,10.2137584 14.2838958,10.1913309 L14.2755613,10.1911793 C14.2493454,10.1907247 14.2231294,10.1902701 14.1969135,10.1902701 C11.5321319,10.1902701 9.36424087,12.3596765 9.36424087,15.0262766 C9.36424087,16.08537 9.70035034,17.0911223 10.3360489,17.935033 C11.2587588,19.1599081 12.6659332,19.862283 14.1969135,19.862283 C16.861695,19.862283 19.0295861,17.6928765 19.0295861,15.0262766 C19.0295861,13.7497272 18.5370903,12.5456127 17.6427177,11.6357834 L17.6427177,11.6357834 Z M16.2617593,14.2401016 L14.4163394,16.5405877 C14.3016257,16.6834873 14.1328133,16.7584982 13.9620308,16.7584982 C13.8433772,16.7584982 13.7239659,16.7222808 13.6209206,16.6477245 L12.2445083,15.6504583 C11.9843189,15.461946 11.9261286,15.0981052 12.1147924,14.8377643 C12.3033047,14.5775749 12.6671455,14.5193847 12.9273349,14.7080485 L13.8551971,15.3802674 L15.3540515,13.5118138 C15.5551413,13.2611713 15.9212552,13.221014 16.1720493,13.4221038 C16.4226918,13.6231937 16.4628492,13.9894591 16.2617593,14.2401016 L16.2617593,14.2401016 Z" id="Shape"></path>
            </g>
        </g>
    </g>
</svg>