<?xml version="1.0" encoding="UTF-8"?>
<svg width="42px" height="32px" viewBox="0 0 42 32" version="1.1" xmlns="http://www.w3.org/2000/svg" xmlns:xlink="http://www.w3.org/1999/xlink">
    <!-- Generator: Sketch 63.1 (92452) - https://sketch.com -->
    <title>activities</title>
    <desc>Created with Sketch.</desc>
    <g id="NEW" stroke="none" stroke-width="1" fill="none" fill-rule="evenodd">
        <g id="new_header-copy-5" transform="translate(-50.000000, -227.000000)" fill-rule="nonzero">
            <g id="activities" transform="translate(50.000000, 227.000000)">
                <polygon id="Path" fill="currentColor" points="14.7009327 31.28185 27.8013653 7.54905288 40.9017979 31.28185"></polygon>
                <path d="M40.9021859,31.9596861 L14.7005447,31.9596861 C14.4603727,31.9596861 14.2388246,31.833198 14.1166047,31.6263941 C13.9947726,31.4195901 13.9912807,31.164286 14.1069047,30.95399 L27.2077253,7.22119289 C27.4459573,6.78857284 28.1563853,6.78857284 28.3950054,7.22119289 L41.495438,30.95399 C41.61145,31.164286 41.607958,31.4195901 41.4857379,31.6263941 C41.363906,31.833198 41.14197,31.9596861 40.9021859,31.9596861 L40.9021859,31.9596861 Z M15.8494127,30.603626 L39.7533179,30.603626 L27.8013653,8.95206095 L15.8494127,30.603626 Z" id="Shape" fill="currentColor"></path>
                <polygon id="Path" fill="#EDEBDC" points="21.438165 31.28185 34.1645656 31.28185 27.8013653 19.7543695"></polygon>
                <path d="M34.1641776,31.9596861 L21.4385531,31.9596861 C21.198381,31.9596861 20.976445,31.833198 20.854613,31.6263941 C20.732781,31.4195901 20.728901,31.164286 20.844913,30.95399 L27.2077253,19.4265094 C27.4459573,18.9942775 28.1567733,18.9942775 28.3950054,19.4265094 L34.7578177,30.95399 C34.8738296,31.164286 34.8703377,31.4195901 34.7485057,31.6263941 C34.6262857,31.833198 34.4043497,31.9596861 34.1641776,31.9596861 L34.1641776,31.9596861 Z M22.5874211,30.603626 L33.0156976,30.603626 L27.8013653,21.1573776 L22.5874211,30.603626 Z" id="Shape" fill="currentColor"></path>
                <g id="Group" transform="translate(10.826753, 0.029225)" fill="currentColor">
                    <path d="M0.700728083,31.9304615 C0.326307991,31.9304615 0.0225039514,31.6270455 0.0225039514,31.2526255 L0.0225039514,0.73914001 C0.0225039514,0.364332042 0.326307991,0.0609159781 0.700728083,0.0609159781 C1.07514808,0.0609159781 1.37856404,0.364332042 1.37856404,0.73914001 L1.37856404,31.2526255 C1.37856404,31.6270455 1.07514808,31.9304615 0.700728083,31.9304615 Z" id="Path"></path>
                    <path d="M16.9746128,8.19766439 C16.7375447,8.19766439 16.5163848,8.07428033 16.3930007,7.86864037 L14.3587167,4.47829626 C14.1658807,4.15703215 14.2702527,3.74070815 14.5911287,3.54826014 C14.9123927,3.35542416 15.3291047,3.45940816 15.5215527,3.78067218 L16.8527808,5.99886826 L17.7009488,3.87728416 C17.8398529,3.52963614 18.2325089,3.36124418 18.5824849,3.49976017 C18.9301329,3.6390522 19.0993009,4.03326022 18.9603969,4.38129621 L17.6043368,7.77164042 C17.5085008,8.01064843 17.2854009,8.17516044 17.0289328,8.19533634 C17.0106968,8.19727641 16.9924608,8.19766439 16.9746128,8.19766439 Z" id="Path"></path>
                </g>
                <polygon id="Path" fill="currentColor" points="3.64487212 4.15870877 19.6642289 4.15870877 19.6642289 8.90511297 3.64487212 8.90511297 0.678224032 6.50882486"></polygon>
                <path d="M19.6642289,9.583337 L3.64487212,9.583337 C3.48967212,9.583337 3.33912821,9.53018102 3.21846018,9.43240502 L0.251811987,7.03650488 C0.0915680044,6.90691293 -0.00116400502,6.71174889 -1.08286971e-05,6.50572086 C0.00116400502,6.29969282 0.0954480542,6.10530484 0.256856062,5.97765286 L3.22350415,3.62714869 C3.34339613,3.53208872 3.49161219,3.48048474 3.64487212,3.48048474 L19.6642289,3.48048474 C20.038649,3.48048474 20.3424529,3.78428878 20.3424529,4.15870877 L20.3424529,8.90511297 C20.3424529,9.27953296 20.038649,9.583337 19.6642289,9.583337 Z M3.88465618,8.22688894 L18.986393,8.22688894 L18.986393,4.83654483 L3.88077613,4.83654483 L1.76346006,6.51425681 L3.88465618,8.22688894 Z" id="Shape" fill="currentColor"></path>
                <polygon id="Path" fill="currentColor" points="11.4848005 11.6176211 18.0540289 11.6176211 21.020289 14.0139092 18.0540289 16.3640253 11.5274806 16.3640253"></polygon>
                <path d="M18.0540289,17.0422494 L11.5274806,17.0422494 C11.1553886,17.0422494 10.8527485,16.7419373 10.8492565,16.3698454 L10.8069258,11.623441 C10.8050245,11.4426331 10.8760285,11.2684211 11.0032925,11.1399931 C11.1305566,11.011565 11.3039926,10.9393971 11.4848005,10.9393971 L18.0540289,10.9393971 C18.2088408,10.9393971 18.3593849,10.9925531 18.4800529,11.0899411 L21.446701,13.4862292 C21.606945,13.6154332 21.6996771,13.8105972 21.6985239,14.0170132 C21.697349,14.2226532 21.6030651,14.4170412 21.4416571,14.5450812 L18.4750089,16.8951973 C18.3551169,16.9902573 18.2069008,17.0422494 18.0540289,17.0422494 Z M12.1994965,15.6858013 L17.8177368,15.6858013 L19.935053,14.0084772 L17.8142448,12.2954572 L12.1692326,12.2954572 L12.1994965,15.6858013 Z" id="Shape" fill="currentColor"></path>
            </g>
        </g>
    </g>
</svg>