<?xml version="1.0" encoding="UTF-8"?>
<svg width="150px" height="195px" viewBox="0 0 150 195" version="1.1" xmlns="http://www.w3.org/2000/svg">
    <!-- Generator: Sketch 59.1 (86144) - https://sketch.com -->
    <title>sleep-disorder</title>
    <desc>Created with Sketch.</desc>
    <g id="Flights" stroke="none" stroke-width="1" fill="none" fill-rule="evenodd">
        <g id="flights_view_offer-copy-3" transform="translate(-650.000000, -230.000000)" fill-rule="nonzero">
            <g id="sleep-disorder" transform="translate(650.000000, 230.000000)">
                <circle id="Oval" fill="#F45D64" cx="117.873418" cy="162.455696" r="30.0759494"></circle>
                <circle id="Oval" fill="#E9E9EA" cx="117.873418" cy="162.455696" r="22.7088608"></circle>
                <circle id="Oval" fill="#6D6C6B" cx="117.873418" cy="162.455696" r="3.72151899"></circle>
                <path d="M142.253165,122.202532 C137.468354,119.468354 131.392405,120.455696 127.746835,124.632911 C127.063291,125.392405 127.21519,126.607595 127.974684,127.21519 C128.050633,127.291139 128.126582,127.367089 128.278481,127.367089 L144.759494,136.860759 C145.670886,137.392405 146.810127,137.088608 147.265823,136.177215 C147.341772,136.101266 147.341772,135.949367 147.417722,135.873418 C149.240506,130.708861 147.037975,124.936709 142.253165,122.202532 Z"
                      id="Path" fill="#F45D64"></path>
                <path d="M93.5696203,122.202532 C98.3544304,119.468354 104.43038,120.455696 108.075949,124.632911 C108.759494,125.392405 108.607595,126.607595 107.848101,127.21519 C107.772152,127.291139 107.696203,127.367089 107.544304,127.367089 L91.0632911,136.860759 C90.1518987,137.392405 89.0126582,137.088608 88.556962,136.177215 C88.4810127,136.101266 88.4810127,135.949367 88.4050633,135.873418 C86.5822785,130.708861 88.7848101,124.936709 93.5696203,122.202532 Z"
                      id="Path" fill="#F45D64"></path>
                <path d="M87.7974684,162.455696 C87.7974684,160.78481 87.9493671,159.113924 88.2531646,157.443038 L78.5316456,145.367089 L78.5316456,145.367089 C78,146.506329 76.8607595,147.189873 75.6455696,147.189873 L64.2531646,147.189873 C63.1898734,147.189873 62.1265823,146.658228 61.5189873,145.746835 L51.4936709,158.202532 C50.5063291,159.493671 48.6075949,159.64557 47.3924051,158.658228 C47.0126582,158.35443 46.7088608,157.974684 46.4810127,157.443038 L38.6582278,133.974684 L23.0886076,136.78481 C17.9240506,137.696203 13.9746835,141.949367 13.443038,147.113924 L9.26582278,187.974684 C9.03797468,190.177215 10.6329114,192.227848 12.835443,192.456016 C12.9873418,192.456016 13.1392405,192.456016 13.2911392,192.456016 L117.873418,192.456016 C101.240506,192.531646 87.7974684,179.088608 87.7974684,162.455696 C87.7974684,162.455696 87.7974684,162.455696 87.7974684,162.455696 Z"
                      id="Path" fill="#60BAE2"></path>
                <path d="M46.4810127,157.443038 C47.0886076,158.962025 48.7594937,159.64557 50.278481,159.037975 C50.7341772,158.886076 51.1139241,158.582278 51.4936709,158.126582 L61.5189873,145.670886 C61.443038,145.518987 61.3670886,145.367089 61.2911392,145.21519 L54.5316456,130.253165 L54.5316456,130.253165 L38.6582278,133.898734 L38.6582278,133.898734 L46.4810127,157.443038 Z"
                      id="Path" fill="#E9E9EA"></path>
                <path d="M100.253165,138.075949 L101.620253,133.974684 L97.7468354,133.063291 L91.1392405,136.860759 C90.2278481,137.392405 89.0886076,137.088608 88.6329114,136.177215 C88.556962,136.101266 88.556962,135.949367 88.4810127,135.873418 C87.8734177,134.202532 87.721519,132.455696 87.9493671,130.708861 L85.8227848,130.253165 L78.5316456,145.291139 L88.2531646,157.367089 C89.4683544,149.696203 93.7974684,142.708861 100.253165,138.075949 Z"
                      id="Path" fill="#E9E9EA"></path>
                <path d="M69.6455696,123.797468 L69.6455696,123.797468 C64.4050633,123.797468 59.164557,122.582278 54.5316456,120.227848 L54.5316456,130.329114 L61.2911392,145.291139 C61.8227848,146.43038 62.9620253,147.189873 64.2531646,147.189873 L75.6455696,147.189873 C76.8607595,147.189873 78,146.506329 78.5316456,145.367089 L85.8227848,130.329114 L85.8227848,119.696203 C80.8101266,122.43038 75.2658228,123.797468 69.6455696,123.797468 Z"
                      id="Path" fill="#F9D0B4"></path>
                <path d="M74.3544304,48.6835443 C61.9746835,64.3291139 43.6708861,62.1265823 37.5189873,60.835443 C36.5316456,60.6075949 35.5443038,61.2151899 35.3924051,62.2025316 C35.3924051,62.3544304 35.3164557,62.4303797 35.3164557,62.5822785 L35.3164557,89.9240506 C35.3924051,108.607595 50.5063291,123.797468 69.2658228,123.797468 L69.2658228,123.797468 C88.0253165,123.721519 103.139241,108.607595 103.21519,89.8481013 L103.21519,59.6202532 C103.21519,59.4683544 103.21519,59.2405063 103.21519,59.0886076 C103.21519,58.1012658 102.455696,57.3417722 101.468354,57.3417722 C87.3417722,56.9620253 79.9746835,51.3417722 77.0886076,48.5316456 C76.4050633,47.8481013 75.1898734,47.8481013 74.5063291,48.5316456 C74.4303797,48.6075949 74.3544304,48.6835443 74.3544304,48.6835443 Z"
                      id="Path" fill="#F9D0B4"></path>
                <circle id="Oval" fill="#E9E9EA" cx="83.164557" cy="77.3164557" r="4.40506329"></circle>
                <circle id="Oval" fill="#E9E9EA" cx="55.5189873" cy="77.3164557" r="4.40506329"></circle>
                <path d="M105.341772,64.0253165 C104.582278,64.0253165 103.822785,64.1012658 103.063291,64.1772152 C103.139241,64.9367089 103.139241,65.6962025 103.139241,66.4556962 L103.139241,89.8481013 C103.139241,90.6075949 103.139241,91.3670886 103.063291,92.1265823 C110.810127,93.4177215 118.025316,88.1012658 119.316456,80.4303797 C120.607595,72.7594937 115.291139,65.4683544 107.620253,64.1772152 C106.860759,64.1012658 106.101266,64.0253165 105.341772,64.0253165 L105.341772,64.0253165 Z"
                      id="Path" fill="#F9D0B4"></path>
                <path d="M35.3164557,89.9240506 L35.3164557,66.5316456 C35.3164557,65.7721519 35.3164557,65.0126582 35.3924051,64.2531646 C27.6455696,62.9620253 20.3544304,68.1265823 19.0632911,75.8734177 C17.7721519,83.6202532 22.9367089,90.9113924 30.6835443,92.2025316 C32.278481,92.4303797 33.8734177,92.4303797 35.3924051,92.2025316 C35.3164557,91.443038 35.3164557,90.6835443 35.3164557,89.9240506 Z"
                      id="Path" fill="#F9D0B4"></path>
                <path d="M33.1139241,64.0253165 C33.8734177,64.0253165 34.556962,64.1012658 35.3164557,64.1772152 L35.3164557,62.5063291 C35.3164557,61.5189873 36.1518987,60.6835443 37.1392405,60.6835443 C37.2911392,60.6835443 37.3670886,60.6835443 37.5189873,60.7594937 C43.6708861,62.0506329 61.9746835,64.2531646 74.3544304,48.6835443 C74.9620253,47.9240506 76.1012658,47.7721519 76.9367089,48.3797468 C77.0126582,48.4556962 77.0126582,48.4556962 77.0886076,48.5316456 C79.9746835,51.3417722 87.3417722,56.8860759 101.468354,57.3417722 C102.455696,57.3417722 103.21519,58.1772152 103.21519,59.0886076 C103.21519,59.2405063 103.21519,59.4683544 103.21519,59.6202532 L103.21519,64.1772152 C107.620253,63.4936709 112.025316,64.8607595 115.21519,67.9746835 L115.21519,42.5316456 C115.21519,31.8227848 106.556962,23.164557 95.8481013,23.164557 C92.3544304,23.164557 88.9367089,24.1518987 85.9746835,25.8987342 C82.4810127,20.0506329 76.1772152,16.4050633 69.3417722,16.4050633 L59.3924051,16.4050633 C40.1012658,16.4810127 24.3797468,32.1265823 24.3797468,51.4177215 L24.3797468,67.1392405 C26.8101266,65.0886076 29.9240506,64.0253165 33.1139241,64.0253165 Z"
                      id="Path" fill="#6D6C6B"></path>
                <path d="M18.0759494,116.050633 L16.7088608,116.050633 L16.7088608,114.683544 C16.7088608,113.620253 15.8734177,112.78481 14.8101266,112.78481 C13.7468354,112.78481 12.9113924,113.620253 12.9113924,114.683544 L12.9113924,116.050633 L11.5443038,116.050633 C10.4810127,116.050633 9.64556962,116.886076 9.64556962,117.949367 C9.64556962,119.012658 10.4810127,119.848101 11.5443038,119.848101 L12.9113924,119.848101 L12.9113924,121.21519 C12.9113924,122.278481 13.7468354,123.113924 14.8101266,123.113924 C15.8734177,123.113924 16.7088608,122.278481 16.7088608,121.21519 L16.7088608,119.848101 L18.0759494,119.848101 C19.1392405,119.848101 19.9746835,119.012658 19.9746835,117.949367 C19.9746835,116.886076 19.1392405,116.050633 18.0759494,116.050633 Z"
                      id="Path" fill="#6DCC6D"></path>
                <path d="M124.405063,21.6455696 C124.405063,21.4936709 124.329114,21.4177215 124.329114,21.2658228 C124.253165,21.1898734 124.253165,21.0379747 124.177215,20.9620253 C124.101266,20.8860759 124.025316,20.7341772 123.949367,20.6582278 C123.189873,19.9746835 122.050633,19.9746835 121.291139,20.6582278 C121.21519,20.7341772 121.139241,20.8101266 121.063291,20.9620253 C120.911392,21.1898734 120.835443,21.4177215 120.759494,21.6455696 C120.683544,21.8734177 120.683544,22.1772152 120.759494,22.4050633 C120.759494,22.556962 120.835443,22.6329114 120.835443,22.7848101 C120.911392,22.9367089 120.911392,23.0126582 120.987342,23.0886076 C121.063291,23.164557 121.139241,23.3164557 121.21519,23.3924051 C121.974684,24.1518987 123.113924,24.1518987 123.873418,23.3924051 C123.873418,23.3924051 123.873418,23.3924051 123.873418,23.3924051 C123.949367,23.3164557 124.025316,23.2405063 124.101266,23.0886076 C124.177215,23.0126582 124.253165,22.8607595 124.253165,22.7848101 C124.329114,22.7088608 124.329114,22.556962 124.329114,22.4050633 C124.481013,22.1772152 124.481013,21.8734177 124.405063,21.6455696 Z"
                      id="Path" fill="#60BAE2"></path>
                <path d="M3.94936709,131.164557 C3.94936709,131.012658 3.87341772,130.936709 3.87341772,130.78481 C3.79746835,130.708861 3.79746835,130.556962 3.72151899,130.481013 C3.64556962,130.405063 3.56962025,130.253165 3.49367089,130.177215 C2.73417722,129.493671 1.59493671,129.493671 0.835443038,130.177215 C0.759493671,130.253165 0.683544304,130.329114 0.607594937,130.481013 C0.455696203,130.708861 0.379746835,130.936709 0.303797468,131.164557 C0.227848101,131.392405 0.227848101,131.696203 0.303797468,131.924051 C0.303797468,132.075949 0.379746835,132.151899 0.379746835,132.303797 C0.455696203,132.455696 0.455696203,132.531646 0.53164557,132.607595 C0.607594937,132.683544 0.683544304,132.835443 0.759493671,132.911392 C1.51898734,133.670886 2.65822785,133.670886 3.41772152,132.911392 C3.41772152,132.911392 3.41772152,132.911392 3.41772152,132.911392 C3.49367089,132.835443 3.56962025,132.759494 3.64556962,132.607595 C3.72151899,132.531646 3.79746835,132.379747 3.79746835,132.303797 C3.87341772,132.227848 3.87341772,132.075949 3.87341772,131.924051 C4.02531646,131.696203 4.02531646,131.392405 3.94936709,131.164557 Z"
                      id="Path" fill="#FCD770"></path>
                <path d="M120.379747,6.2278481 C117.265823,5.62025316 114.911392,3.18987342 114.303797,0.151898734 C114.303797,0.0759493671 114.227848,0 114.151899,0 C114.075949,0 114.075949,0.0759493671 114,0.151898734 C113.392405,3.26582278 110.962025,5.62025316 107.924051,6.2278481 C107.848101,6.2278481 107.772152,6.30379747 107.772152,6.37974684 C107.772152,6.4556962 107.848101,6.4556962 107.924051,6.53164557 C111.037975,7.13924051 113.392405,9.56962025 114,12.6075949 C114,12.6835443 114.075949,12.7594937 114.151899,12.7594937 C114.227848,12.7594937 114.227848,12.6835443 114.303797,12.6075949 C114.911392,9.49367089 117.341772,7.13924051 120.379747,6.53164557 C120.455696,6.53164557 120.531646,6.4556962 120.531646,6.37974684 C120.455696,6.2278481 120.455696,6.2278481 120.379747,6.2278481 Z"
                      id="Path" fill="#F45D64"></path>
                <path d="M49.1392405,161.164557 C48.9113924,161.164557 48.6835443,161.164557 48.4556962,161.088608 C46.7848101,160.860759 45.3417722,159.721519 44.6582278,158.126582 C44.6582278,158.126582 44.6582278,158.050633 44.5822785,158.050633 L36.835443,134.582278 C36.5316456,133.594937 37.0632911,132.531646 38.0506329,132.151899 C38.1265823,132.151899 38.2025316,132.151899 38.2025316,132.075949 L54.0759494,128.43038 C54.9873418,128.202532 55.8987342,128.658228 56.2025316,129.493671 L62.9620253,144.455696 C62.9620253,144.531646 63.0379747,144.607595 63.0379747,144.607595 C63.4936709,145.291139 63.4177215,146.202532 62.9620253,146.810127 L52.9367089,159.265823 C52.0253165,160.556962 50.6582278,161.164557 49.1392405,161.164557 Z M48.2278481,156.759494 C48.4556962,157.291139 49.0632911,157.518987 49.5949367,157.291139 C49.7468354,157.21519 49.8987342,157.139241 49.9746835,156.987342 L59.2405063,145.443038 L53.3924051,132.455696 L41.0886076,135.265823 L48.2278481,156.759494 Z"
                      id="Shape" fill="#231F20"></path>
                <path d="M75.5696203,149.088608 L64.1772152,149.088608 C62.1265823,149.088608 60.3037975,147.873418 59.4683544,146.050633 L52.7088608,131.088608 C52.6329114,130.860759 52.556962,130.556962 52.556962,130.329114 L52.556962,120.227848 C52.556962,119.164557 53.3924051,118.329114 54.4556962,118.329114 C54.7594937,118.329114 55.0632911,118.405063 55.2911392,118.556962 C59.6962025,120.759494 64.6329114,121.974684 69.5696203,121.974684 C74.8860759,121.974684 80.1265823,120.607595 84.7594937,118.101266 C85.6708861,117.56962 86.8101266,117.949367 87.3417722,118.860759 C87.4936709,119.164557 87.5696203,119.468354 87.5696203,119.772152 L87.5696203,130.405063 C87.5696203,130.708861 87.4936709,131.012658 87.4177215,131.240506 L80.1265823,146.278481 C79.2911392,147.949367 77.4683544,149.088608 75.5696203,149.088608 Z M56.3544304,129.949367 L62.8860759,144.531646 C63.1139241,144.987342 63.5696203,145.291139 64.1012658,145.291139 L75.4936709,145.291139 C76.0253165,145.291139 76.4810127,144.987342 76.7088608,144.531646 L83.7721519,129.873418 L83.7721519,122.734177 C79.2911392,124.708861 74.4303797,125.696203 69.5696203,125.696203 C65.0126582,125.696203 60.5316456,124.860759 56.3544304,123.113924 L56.3544304,129.949367 Z"
                      id="Shape" fill="#231F20"></path>
                <path d="M70.1012658,161.924051 C69.0379747,161.924051 68.2025316,161.088608 68.2025316,160.025316 C68.2025316,158.962025 69.0379747,158.126582 70.1012658,158.126582 C70.2531646,158.126582 70.3291139,158.126582 70.4810127,158.126582 C70.6329114,158.126582 70.7088608,158.202532 70.8607595,158.202532 C71.0126582,158.278481 71.0886076,158.278481 71.164557,158.35443 C71.2405063,158.43038 71.3924051,158.506329 71.4683544,158.582278 C72.2278481,159.341772 72.2278481,160.481013 71.4683544,161.240506 C71.4683544,161.240506 71.4683544,161.240506 71.4683544,161.240506 C71.3924051,161.316456 71.3164557,161.392405 71.164557,161.468354 C71.0886076,161.544304 70.9367089,161.620253 70.8607595,161.620253 C70.7088608,161.696203 70.6329114,161.696203 70.4810127,161.696203 C70.3291139,161.924051 70.2531646,161.924051 70.1012658,161.924051 Z"
                      id="Path" fill="#231F20"></path>
                <path d="M70.1012658,173.468354 C69.0379747,173.468354 68.2025316,172.632911 68.2025316,171.56962 C68.2025316,170.506329 69.0379747,169.670886 70.1012658,169.670886 C70.2531646,169.670886 70.3291139,169.670886 70.4810127,169.670886 C70.6329114,169.670886 70.7088608,169.746835 70.8607595,169.746835 C71.0126582,169.822785 71.0886076,169.822785 71.164557,169.898734 C71.2405063,169.974684 71.3924051,170.050633 71.4683544,170.126582 C71.8481013,170.506329 72,170.962025 72,171.493671 C72,172.632911 71.164557,173.468354 70.1012658,173.468354 Z"
                      id="Path" fill="#231F20"></path>
                <path d="M34.7088608,194.43038 C33.6455696,194.43038 32.8101266,193.594937 32.8101266,192.531646 L32.8101266,164.582278 C32.8101266,163.518987 33.6455696,162.683544 34.7088608,162.683544 C35.7721519,162.683544 36.6075949,163.518987 36.6075949,164.582278 L36.6075949,192.531646 C36.6075949,193.594937 35.7721519,194.43038 34.7088608,194.43038 Z"
                      id="Path" fill="#231F20"></path>
                <path d="M105.341772,94.2531646 C104.506329,94.2531646 103.594937,94.1772152 102.759494,94.0253165 C101.772152,93.8734177 101.088608,93.0379747 101.164557,92.0506329 C101.240506,91.2151899 101.240506,90.5316456 101.240506,89.9240506 L101.240506,66.5316456 C101.240506,65.8481013 101.240506,65.164557 101.164557,64.4050633 C101.088608,63.4177215 101.772152,62.5822785 102.759494,62.4303797 C111.493671,60.9873418 119.772152,66.9873418 121.21519,75.721519 C122.658228,84.4556962 116.658228,92.7341772 107.924051,94.1772152 C107.088608,94.1772152 106.253165,94.2531646 105.341772,94.2531646 L105.341772,94.2531646 Z M105.113924,90.4556962 C105.189873,90.4556962 105.341772,90.4556962 105.417722,90.4556962 C112.177215,90.4556962 117.721519,84.9113924 117.64557,78.1518987 C117.64557,71.3924051 112.101266,65.8481013 105.341772,65.9240506 C105.265823,65.9240506 105.189873,65.9240506 105.113924,65.9240506 C105.113924,66.1518987 105.113924,66.3037975 105.113924,66.5316456 L105.113924,89.9240506 C105.113924,90.0759494 105.113924,90.3037975 105.113924,90.4556962 L105.113924,90.4556962 Z"
                      id="Shape" fill="#231F20"></path>
                <path d="M33.1139241,94.2531646 C24.2278481,94.2531646 17.0126582,87.0379747 17.0126582,78.1518987 C17.0126582,69.2658228 24.2278481,62.0506329 33.1139241,62.0506329 C33.9493671,62.0506329 34.8607595,62.1265823 35.6962025,62.278481 C36.6835443,62.4303797 37.3670886,63.2658228 37.2911392,64.2531646 C37.2151899,65.0886076 37.2151899,65.7721519 37.2151899,66.3797468 L37.2151899,89.7721519 C37.2151899,90.3797468 37.2151899,91.0632911 37.2911392,91.8987342 C37.3670886,92.8860759 36.6835443,93.721519 35.6962025,93.8734177 C34.8607595,94.1772152 34.0253165,94.2531646 33.1139241,94.2531646 Z M33.1139241,65.9240506 C26.3544304,65.9240506 20.8860759,71.3924051 20.8860759,78.2278481 C20.8860759,85.0632911 26.3544304,90.5316456 33.1898734,90.5316456 C33.2658228,90.5316456 33.3417722,90.5316456 33.4936709,90.5316456 C33.4936709,90.3037975 33.4936709,90.1518987 33.4936709,89.9240506 L33.4936709,66.5316456 C33.4936709,66.3797468 33.4936709,66.1518987 33.4936709,65.9240506 C33.3417722,65.9240506 33.1898734,65.9240506 33.1139241,65.9240506 L33.1139241,65.9240506 Z"
                      id="Shape" fill="#231F20"></path>
                <path d="M69.2658228,125.696203 C49.5189873,125.696203 33.4177215,109.670886 33.4177215,89.8481013 L33.4177215,62.5822785 C33.4177215,60.5316456 35.0886076,58.8607595 37.1392405,58.8607595 C37.3670886,58.8607595 37.6708861,58.8607595 37.8987342,58.9367089 C44.5822785,60.3037975 61.2911392,62.0506329 72.835443,47.5443038 L72.835443,47.5443038 C74.1265823,45.9493671 76.4810127,45.6455696 78.0759494,46.9367089 C78.1518987,47.0126582 78.3037975,47.0886076 78.3797468,47.164557 C80.8101266,49.5189873 87.7974684,54.9873418 101.468354,55.443038 C103.443038,55.5189873 105.037975,57.1139241 105.037975,59.0886076 C105.037975,59.2405063 105.037975,59.4683544 105.037975,59.6202532 L105.037975,89.8481013 C105.037975,109.670886 89.0126582,125.696203 69.2658228,125.696203 Z M37.2151899,62.6582278 L37.2151899,89.8481013 C37.2151899,107.544304 51.5696203,121.898734 69.2658228,121.898734 C86.9620253,121.898734 101.316456,107.544304 101.316456,89.8481013 L101.316456,59.6202532 C101.316456,59.4683544 101.316456,59.3164557 101.316456,59.164557 C86.9620253,58.7088608 79.2151899,53.164557 75.7974684,49.8987342 C62.6582278,66.3797468 43.0632911,63.8734177 37.2151899,62.6582278 L37.2151899,62.6582278 Z M74.3544304,48.6835443 L75.8734177,49.8987342 L75.8734177,49.8987342 L74.3544304,48.6835443 Z"
                      id="Shape" fill="#231F20"></path>
                <path d="M115.21519,69.8734177 C114.759494,69.8734177 114.227848,69.6455696 113.924051,69.3417722 C111.64557,67.1392405 108.607595,65.9240506 105.417722,65.9240506 C104.810127,65.9240506 104.126582,66 103.518987,66.0759494 C102.455696,66.2278481 101.544304,65.5443038 101.316456,64.4810127 C101.316456,64.4050633 101.316456,64.2531646 101.316456,64.1772152 L101.316456,59.6202532 C101.316456,59.4683544 101.316456,59.3164557 101.316456,59.164557 C86.9620253,58.7088608 79.2151899,53.164557 75.7974684,49.8987342 C62.6582278,66.3797468 43.0632911,63.8734177 37.2151899,62.6582278 L37.2151899,64.1772152 C37.2151899,65.2405063 36.3797468,66.0759494 35.3164557,66.0759494 C35.2405063,66.0759494 35.0886076,66.0759494 35.0126582,66.0759494 C34.4050633,66 33.721519,65.9240506 33.1139241,65.9240506 C30.3037975,65.9240506 27.6455696,66.835443 25.443038,68.5822785 C24.6075949,69.2658228 23.3924051,69.1139241 22.7848101,68.278481 C22.4810127,67.9746835 22.4050633,67.5189873 22.4050633,67.0632911 L22.4050633,51.4177215 C22.4050633,31.0632911 38.9620253,14.5063291 59.3164557,14.5063291 L69.2658228,14.5063291 C76.1012658,14.5063291 82.4810127,17.8481013 86.5063291,23.3924051 C97.0632911,18.2278481 109.746835,22.556962 114.911392,33.1139241 C116.35443,36.0759494 117.113924,39.2658228 117.037975,42.5316456 L117.037975,68.0506329 C117.113924,69.0379747 116.278481,69.8734177 115.21519,69.8734177 L115.21519,69.8734177 Z M105.341772,62.1265823 C108.151899,62.1265823 110.886076,62.8101266 113.240506,64.2531646 L113.240506,42.5316456 C113.240506,32.8860759 105.493671,25.0632911 95.8481013,25.0632911 C92.6582278,25.0632911 89.5443038,25.8987342 86.8101266,27.5696203 C85.8987342,28.1012658 84.7594937,27.7974684 84.2278481,26.8860759 C84.2278481,26.8860759 84.2278481,26.8860759 84.2278481,26.8860759 C81.0379747,21.5696203 75.4177215,18.3797468 69.2658228,18.3037975 L59.3164557,18.3037975 C41.0126582,18.3037975 26.2025316,33.1139241 26.2025316,51.4177215 L26.2025316,63.721519 C28.4810127,62.6582278 30.9113924,62.1265823 33.4177215,62.1265823 C33.4936709,61.2151899 34.0253165,60.3037975 34.7848101,59.6962025 C35.6202532,59.0126582 36.835443,58.7088608 37.8987342,58.9367089 C44.5822785,60.3037975 61.2911392,62.0506329 72.835443,47.5443038 C74.1265823,45.9493671 76.4810127,45.6455696 78.0759494,46.9367089 C78.1518987,47.0126582 78.3037975,47.0886076 78.3797468,47.164557 C80.8101266,49.5189873 87.7974684,54.9873418 101.468354,55.443038 C103.443038,55.5189873 105.037975,57.1139241 105.037975,59.0886076 C105.037975,59.2405063 105.037975,59.4683544 105.037975,59.6202532 L105.037975,62.1265823 C105.189873,62.1265823 105.265823,62.1265823 105.341772,62.1265823 Z"
                      id="Shape" fill="#231F20"></path>
                <path d="M80.1492341,71.6302467 C76.6555632,71.6302467 73.313791,69.8834113 71.3391075,66.9973353 C70.7315125,66.1618923 70.9593606,64.9467024 71.8707531,64.3391075 C72.7821455,63.7315125 73.921386,63.9593606 74.5289809,64.8707531 C76.6555632,67.9846771 80.8327784,68.8201201 83.9467024,66.6935379 C84.7061961,66.2378417 85.313791,65.5542974 85.7694872,64.8707531 C86.3770822,64.03531 87.5163227,63.8074619 88.4277151,64.3391075 C89.2631581,64.9467024 89.4910062,66.0859429 88.9593606,66.9973353 C86.9087277,69.8834113 83.642905,71.6302467 80.1492341,71.6302467 Z"
                      id="Path" fill="#231F20"></path>
                <path d="M59.1492341,71.6302467 C55.6555632,71.6302467 52.313791,69.8834113 50.3391075,66.9973353 C49.7315125,66.1618923 49.9593606,64.9467024 50.8707531,64.3391075 C51.7061961,63.7315125 52.921386,63.9593606 53.5289809,64.8707531 L53.5289809,64.8707531 C55.6555632,67.9846771 59.8327784,68.8201201 62.9467024,66.6935379 C63.7061961,66.2378417 64.313791,65.5542974 64.7694872,64.8707531 C65.3770822,64.03531 66.5163227,63.8074619 67.4277151,64.3391075 C68.2631581,64.9467024 68.4910062,66.0859429 67.9593606,66.9973353 C65.9846771,69.8834113 62.7188543,71.6302467 59.1492341,71.6302467 Z"
                      id="Path" fill="#231F20"></path>
                <path d="M76.1772152,104.962025 C75.721519,104.962025 75.2658228,104.810127 74.9620253,104.506329 C73.7468354,103.443038 71.6202532,102.835443 69.3417722,102.835443 C67.0632911,102.835443 64.9367089,103.443038 63.721519,104.506329 C62.9620253,105.189873 61.7468354,105.113924 61.0632911,104.278481 C60.3797468,103.518987 60.4556962,102.303797 61.2911392,101.620253 C63.1898734,99.9493671 66.1518987,99.0379747 69.4177215,99.0379747 C72.6835443,99.0379747 75.6455696,99.9493671 77.5443038,101.620253 C78.3037975,102.303797 78.4556962,103.518987 77.7721519,104.278481 C77.3164557,104.734177 76.7848101,104.962025 76.1772152,104.962025 L76.1772152,104.962025 Z"
                      id="Path" fill="#231F20"
                      transform="translate(69.405285, 102.002848) scale(1, -1) translate(-69.405285, -102.002848) "></path>
                <path d="M83.164557,83.6202532 C79.6708861,83.6202532 76.8607595,80.8101266 76.8607595,77.3164557 C76.8607595,73.8227848 79.6708861,71.0126582 83.164557,71.0126582 C86.6582278,71.0126582 89.4683544,73.8227848 89.4683544,77.3164557 C89.4683544,80.8101266 86.6582278,83.6202532 83.164557,83.6202532 Z M83.164557,74.8101266 C81.7974684,74.8101266 80.6582278,75.9493671 80.6582278,77.3164557 C80.6582278,78.6835443 81.7974684,79.8227848 83.164557,79.8227848 C84.5316456,79.8227848 85.6708861,78.6835443 85.6708861,77.3164557 C85.6708861,75.9493671 84.5316456,74.8101266 83.164557,74.8101266 Z"
                      id="Shape" fill="#231F20"></path>
                <path d="M55.5189873,83.6202532 C52.0253165,83.6202532 49.2151899,80.8101266 49.2151899,77.3164557 C49.2151899,73.8227848 52.0253165,71.0126582 55.5189873,71.0126582 C59.0126582,71.0126582 61.8227848,73.8227848 61.8227848,77.3164557 L61.8227848,77.3164557 C61.8227848,80.8101266 59.0126582,83.6202532 55.5189873,83.6202532 Z M55.5189873,74.8101266 C54.1518987,74.8101266 53.0126582,75.9493671 53.0126582,77.3164557 C53.0126582,78.6835443 54.1518987,79.8227848 55.5189873,79.8227848 C56.8860759,79.8227848 58.0253165,78.6835443 58.0253165,77.3164557 L58.0253165,77.3164557 C58.0253165,75.9493671 56.8860759,74.8101266 55.5189873,74.8101266 Z"
                      id="Shape" fill="#231F20"></path>
                <path d="M117.873418,194.43038 C100.177215,194.43038 85.8987342,180.151899 85.8987342,162.455696 C85.8987342,144.759494 100.177215,130.481013 117.873418,130.481013 C135.56962,130.481013 149.848101,144.759494 149.848101,162.455696 L149.848101,162.455696 C149.772152,180.075949 135.493671,194.43038 117.873418,194.43038 Z M117.873418,134.278481 C102.303797,134.278481 89.6962025,146.886076 89.6962025,162.455696 C89.6962025,178.025316 102.303797,190.632911 117.873418,190.632911 C133.443038,190.632911 146.050633,178.025316 146.050633,162.455696 C146.050633,162.455696 146.050633,162.455696 146.050633,162.455696 C145.974684,146.886076 133.367089,134.278481 117.873418,134.278481 Z"
                      id="Shape" fill="#231F20"></path>
                <path d="M117.873418,187.063291 C104.278481,187.063291 93.2658228,176.050633 93.2658228,162.455696 C93.2658228,148.860759 104.278481,137.848101 117.873418,137.848101 C131.468354,137.848101 142.481013,148.860759 142.481013,162.455696 C142.481013,162.455696 142.481013,162.455696 142.481013,162.455696 C142.481013,176.050633 131.468354,187.063291 117.873418,187.063291 Z M117.873418,141.56962 C106.329114,141.56962 97.0632911,150.911392 97.0632911,162.379747 C97.0632911,173.924051 106.405063,183.189873 117.873418,183.189873 C129.417722,183.189873 138.683544,173.848101 138.683544,162.379747 C138.683544,150.911392 129.341772,141.64557 117.873418,141.56962 L117.873418,141.56962 Z"
                      id="Shape" fill="#231F20"></path>
                <path d="M107.392405,173.620253 C106.329114,173.620253 105.493671,172.78481 105.493671,171.721519 C105.493671,171.189873 105.721519,170.658228 106.101266,170.278481 L113.316456,163.898734 C114.075949,163.21519 115.291139,163.291139 115.974684,164.050633 C116.658228,164.810127 116.582278,166.025316 115.822785,166.708861 L115.822785,166.708861 L108.607595,173.088608 C108.303797,173.468354 107.848101,173.620253 107.392405,173.620253 Z"
                      id="Path" fill="#231F20"></path>
                <path d="M128.506329,164.35443 L121.822785,164.35443 C120.759494,164.35443 119.924051,163.518987 119.924051,162.455696 C119.924051,161.392405 120.759494,160.556962 121.822785,160.556962 L128.506329,160.556962 C129.56962,160.556962 130.405063,161.392405 130.405063,162.455696 C130.405063,163.518987 129.56962,164.35443 128.506329,164.35443 Z"
                      id="Path" fill="#231F20"></path>
                <path d="M117.873418,168.075949 C114.759494,168.075949 112.253165,165.56962 112.253165,162.455696 C112.253165,159.341772 114.759494,156.835443 117.873418,156.835443 C120.987342,156.835443 123.493671,159.341772 123.493671,162.455696 C123.493671,162.455696 123.493671,162.455696 123.493671,162.455696 C123.417722,165.56962 120.911392,168.075949 117.873418,168.075949 Z M117.873418,160.632911 C116.886076,160.632911 116.050633,161.468354 116.050633,162.455696 C116.050633,163.443038 116.886076,164.278481 117.873418,164.278481 C118.860759,164.278481 119.696203,163.443038 119.696203,162.455696 C119.696203,162.455696 119.696203,162.455696 119.696203,162.455696 C119.620253,161.468354 118.860759,160.632911 117.873418,160.632911 L117.873418,160.632911 Z"
                      id="Shape" fill="#231F20"></path>
                <path d="M117.873418,134.278481 C116.810127,134.278481 115.974684,133.443038 115.974684,132.379747 L115.974684,124.253165 C115.974684,123.189873 116.810127,122.35443 117.873418,122.35443 C118.936709,122.35443 119.772152,123.189873 119.772152,124.253165 L119.772152,132.379747 C119.772152,133.443038 118.860759,134.278481 117.873418,134.278481 Z"
                      id="Path" fill="#231F20"></path>
                <path d="M120.911392,126.151899 L114.835443,126.151899 C113.772152,126.151899 112.936709,125.316456 112.936709,124.253165 C112.936709,123.189873 113.772152,122.35443 114.835443,122.35443 L120.911392,122.35443 C121.974684,122.35443 122.810127,123.189873 122.810127,124.253165 C122.810127,125.316456 121.898734,126.151899 120.911392,126.151899 Z"
                      id="Path" fill="#231F20"></path>
                <path d="M133.443038,138.607595 C132.379747,138.607595 131.544304,137.772152 131.544304,136.708861 C131.544304,136.329114 131.620253,136.025316 131.848101,135.721519 L134.658228,131.012658 C135.189873,130.101266 136.405063,129.873418 137.240506,130.405063 C138.075949,130.936709 138.379747,132.075949 137.848101,132.987342 L135.037975,137.696203 C134.734177,138.303797 134.126582,138.607595 133.443038,138.607595 Z"
                      id="Path" fill="#231F20"></path>
                <path d="M145.670886,139.063291 C144.987342,139.063291 144.379747,138.911392 143.772152,138.531646 L127.291139,129.037975 C126.303797,128.506329 125.620253,127.518987 125.468354,126.379747 C125.316456,125.316456 125.620253,124.177215 126.303797,123.341772 C131.164557,117.721519 139.670886,117.113924 145.291139,121.974684 C149.468354,125.544304 150.987342,131.316456 149.164557,136.556962 C148.78481,137.620253 148.025316,138.455696 146.962025,138.835443 C146.582278,138.987342 146.126582,139.063291 145.670886,139.063291 Z M129.265823,125.772152 L145.670886,135.189873 C147.113924,130.860759 145.367089,126.075949 141.341772,123.721519 L141.341772,123.721519 C137.316456,121.518987 132.303797,122.35443 129.265823,125.772152 L129.265823,125.772152 Z"
                      id="Shape" fill="#231F20"></path>
                <path d="M90.1518987,139.063291 C89.6962025,139.063291 89.2405063,138.987342 88.8607595,138.835443 C87.7974684,138.455696 87.0379747,137.620253 86.6582278,136.556962 C84.5316456,130.481013 87.0379747,123.721519 92.6582278,120.531646 L92.6582278,120.531646 C98.278481,117.341772 105.341772,118.481013 109.518987,123.417722 C110.202532,124.253165 110.582278,125.392405 110.35443,126.455696 C110.202532,127.594937 109.518987,128.506329 108.531646,129.113924 L92.0506329,138.607595 C91.443038,138.911392 90.835443,139.063291 90.1518987,139.063291 Z M99.3417722,122.506329 C97.6708861,122.506329 96,122.962025 94.556962,123.797468 L94.556962,123.797468 C90.6075949,126.075949 88.7848101,130.860759 90.2278481,135.265823 L106.632911,125.772152 C104.734177,123.721519 102.075949,122.506329 99.3417722,122.506329 L99.3417722,122.506329 Z"
                      id="Shape" fill="#231F20"></path>
                <path d="M102.303797,138.607595 C101.620253,138.607595 101.012658,138.227848 100.708861,137.696203 L97.8987342,133.063291 C97.3670886,132.151899 97.6708861,131.012658 98.5822785,130.481013 C99.4936709,129.949367 100.632911,130.253165 101.164557,131.088608 L103.974684,135.721519 C104.506329,136.632911 104.202532,137.772152 103.367089,138.303797 C103.063291,138.455696 102.683544,138.607595 102.303797,138.607595 L102.303797,138.607595 Z"
                      id="Path" fill="#231F20"></path>
                <path d="M117.873418,145.063291 C116.810127,145.063291 115.974684,144.227848 115.974684,143.164557 L115.974684,139.670886 C115.974684,138.607595 116.810127,137.772152 117.873418,137.772152 C118.936709,137.772152 119.772152,138.607595 119.772152,139.670886 L119.772152,143.164557 C119.772152,144.227848 118.860759,145.063291 117.873418,145.063291 Z"
                      id="Path" fill="#231F20"></path>
                <path d="M117.873418,187.063291 C116.810127,187.063291 115.974684,186.227848 115.974684,185.164557 L115.974684,181.670886 C115.974684,180.607595 116.810127,179.772152 117.873418,179.772152 C118.936709,179.772152 119.772152,180.607595 119.772152,181.670886 L119.772152,185.164557 C119.772152,186.227848 118.860759,187.063291 117.873418,187.063291 Z"
                      id="Path" fill="#231F20"></path>
                <path d="M98.5822785,164.35443 L95.0886076,164.35443 C94.0253165,164.35443 93.1898734,163.518987 93.1898734,162.455696 C93.1898734,161.392405 94.0253165,160.556962 95.0886076,160.556962 L98.5822785,160.556962 C99.6455696,160.556962 100.481013,161.392405 100.481013,162.455696 C100.481013,163.518987 99.6455696,164.35443 98.5822785,164.35443 Z"
                      id="Path" fill="#231F20"></path>
                <path d="M140.582278,164.35443 L137.088608,164.35443 C136.025316,164.35443 135.189873,163.518987 135.189873,162.455696 C135.189873,161.392405 136.025316,160.556962 137.088608,160.556962 L140.582278,160.556962 C141.64557,160.556962 142.481013,161.392405 142.481013,162.455696 C142.481013,163.518987 141.64557,164.35443 140.582278,164.35443 Z"
                      id="Path" fill="#231F20"></path>
                <path d="M117.873418,194.43038 L13.2151899,194.43038 C9.94936709,194.43038 7.21518987,191.772152 7.21518987,188.43038 C7.21518987,188.202532 7.21518987,187.974684 7.21518987,187.746835 L11.3924051,146.886076 C12.0759494,140.810127 16.6329114,135.949367 22.6329114,134.886076 L38.2025316,132.075949 C39.1139241,131.924051 40.0253165,132.455696 40.3291139,133.367089 L48.2278481,156.759494 C48.4556962,157.291139 49.0632911,157.518987 49.5949367,157.291139 C49.7468354,157.21519 49.8987342,157.139241 49.9746835,156.987342 L60,144.531646 C60.6835443,143.696203 61.8227848,143.620253 62.6582278,144.227848 C62.8101266,144.379747 62.9620253,144.531646 63.0379747,144.683544 C63.2658228,145.063291 63.721519,145.291139 64.1772152,145.291139 L75.5696203,145.291139 C76.1012658,145.291139 76.556962,144.987342 76.7848101,144.531646 C77.2405063,143.620253 78.3797468,143.164557 79.2911392,143.620253 C79.5189873,143.772152 79.7468354,143.924051 79.9746835,144.151899 L89.6962025,156.227848 C90,156.683544 90.1518987,157.21519 90.0759494,157.746835 C89.8481013,159.265823 89.6962025,160.860759 89.6962025,162.379747 C89.6962025,177.949367 102.303797,190.556962 117.873418,190.556962 C118.936709,190.556962 119.772152,191.392405 119.772152,192.455696 C119.772152,193.518987 118.860759,194.43038 117.873418,194.43038 L117.873418,194.43038 Z M37.2911392,136.177215 L23.3924051,138.683544 C19.0632911,139.443038 15.7974684,143.012658 15.2658228,147.341772 L11.0886076,188.202532 C10.9367089,189.417722 11.7721519,190.481013 12.9873418,190.632911 C13.0632911,190.632911 13.1392405,190.632911 13.2151899,190.632911 L102.683544,190.632911 C90.835443,184.329114 84.2278481,171.265823 86.1265823,157.974684 L78.3037975,148.253165 C77.4683544,148.78481 76.4810127,149.088608 75.4936709,149.088608 L64.1012658,149.088608 C63.2658228,149.088608 62.4303797,148.860759 61.6708861,148.481013 L52.8607595,159.417722 C51.1898734,161.468354 48.1518987,161.848101 46.1012658,160.177215 C45.4936709,159.64557 44.9620253,158.962025 44.6582278,158.202532 C44.6582278,158.202532 44.6582278,158.126582 44.5822785,158.126582 L37.2911392,136.177215 Z"
                      id="Shape" fill="#231F20"></path>
                <path d="M88.1772152,159.341772 C87.5696203,159.341772 87.0379747,159.113924 86.7341772,158.658228 L76.9367089,146.582278 C76.4810127,145.974684 76.4050633,145.21519 76.7088608,144.531646 L84,129.493671 C84.3797468,128.658228 85.2911392,128.278481 86.1265823,128.506329 L88.2531646,128.962025 C89.164557,129.189873 89.8481013,130.101266 89.6962025,131.012658 C89.5443038,132.455696 89.6962025,133.898734 90.1518987,135.189873 L96.7594937,131.392405 C97.1392405,131.164557 97.6708861,131.088608 98.1265823,131.164557 L102,132.075949 C102.987342,132.303797 103.670886,133.367089 103.443038,134.35443 C103.443038,134.43038 103.443038,134.506329 103.367089,134.506329 L102,138.607595 C101.848101,138.987342 101.620253,139.291139 101.316456,139.518987 C95.3164557,143.848101 91.2151899,150.379747 90,157.670886 C89.9240506,158.734177 89.0886076,159.341772 88.1772152,159.341772 L88.1772152,159.341772 Z M80.6582278,145.139241 L87.1898734,153.265823 C89.164557,146.734177 93.1139241,141.037975 98.5822785,136.936709 L99.1139241,135.417722 L97.9746835,135.189873 L91.9746835,138.607595 C90.9873418,139.139241 89.8481013,139.291139 88.7848101,138.911392 C87.721519,138.531646 86.9620253,137.696203 86.5822785,136.632911 C86.278481,135.797468 86.1265823,135.037975 85.9746835,134.126582 L80.6582278,145.139241 Z"
                      id="Shape" fill="#231F20"></path>
            </g>
        </g>
    </g>
</svg>
