<svg id="icons" enable-background="new 0 0 64 64" height="512" viewBox="0 0 64 64" width="512"
     xmlns="http://www.w3.org/2000/svg">
    <path d="m32.82 8.01c-.46.59-.82.99-.82.99s-.36-.4-.83-.99c-.62-.78-1.44-1.91-1.87-2.89-.19-.41-.3-.8-.3-1.12 0-1.66 1.34-3 3-3s3 1.34 3 3c0 .32-.11.71-.3 1.12-.43.98-1.25 2.11-1.88 2.89z"
          fill="#656d78"/>
    <path d="m32 44v16c-4.73 0-9.17-1.26-12.99-3.49l7.99-13.84.01-.01c1.47.85 3.17 1.34 4.99 1.34z" fill="#8cc152"/>
    <path d="m31.17 8.01c.47.59.83.99.83.99v15c-1.82 0-3.53.49-5 1.34l-8-13.85c3.6-2.1 7.75-3.34 12.17-3.48z"
          fill="#ffce54"/>
    <path d="m27.01 42.66-.01.01-7.99 13.84c-3.95-2.27-7.25-5.56-9.52-9.51l13.85-7.99h.01c.88 1.52 2.14 2.78 3.66 3.65z"
          fill="#ed5565"/>
    <path d="m23.33 29 .01.01c-.85 1.47-1.34 3.17-1.34 4.99v.01h-15.99-.01v-.01c0-4.73 1.26-9.17 3.48-12.99h.01z"
          fill="#8cc152"/>
    <path d="m32 60c4.73 0 9.17-1.26 12.99-3.49 3.95-2.27 7.25-5.56 9.52-9.51 2.22-3.82 3.49-8.26 3.49-12.99v-.01c0-4.73-1.26-9.17-3.48-12.99-2.279-3.95-5.569-7.24-9.52-9.52-3.6-2.09-7.75-3.34-12.18-3.48.63-.78 1.45-1.91 1.88-2.89 14.75 1.37 26.3 13.77 26.3 28.88 0 16.02-12.98 29-29 29s-29-12.98-29-29c0-15.11 11.55-27.51 26.3-28.88.431.979 1.25 2.11 1.87 2.89-4.42.14-8.57 1.38-12.17 3.48-3.95 2.27-7.24 5.569-9.52 9.52-2.22 3.82-3.48 8.26-3.48 12.99v.01c0 4.73 1.27 9.17 3.49 12.99 2.27 3.95 5.569 7.24 9.52 9.51 3.82 2.23 8.26 3.49 12.99 3.49z"
          fill="#e6e9ed"/>
    <path d="m19 11.49 8 13.85c-1.52.88-2.79 2.15-3.66 3.67l-.01-.01-13.84-7.99h-.01c2.28-3.95 5.57-7.25 9.52-9.52z"
          fill="#ed5565"/>
    <path d="m58 34.01c0 4.73-1.27 9.17-3.49 12.99l-13.85-8c.85-1.47 1.34-3.17 1.34-4.99z" fill="#8cc152"/>
    <path d="m54.52 21.01h-.01l-13.85 8c-.87-1.52-2.141-2.79-3.66-3.66l8-13.859c3.95 2.279 7.24 5.569 9.52 9.519z"
          fill="#ed5565"/>
    <path d="m6.01 34.01h15.99c0 1.82.49 3.53 1.35 5h-.01l-13.85 7.99c-2.22-3.82-3.49-8.26-3.49-12.99z" fill="#ffce54"/>
    <path d="m45 11.49-8 13.86c-1.47-.86-3.18-1.35-5-1.35v-15s.36-.4.82-.99c4.43.14 8.58 1.39 12.18 3.48z"
          fill="#8cc152"/>
    <path d="m40.66 39 13.85 8c-2.27 3.95-5.569 7.24-9.52 9.51l-7.99-13.85c1.52-.88 2.78-2.14 3.66-3.66z"
          fill="#ed5565"/>
    <path d="m37 42.66 7.99 13.85c-3.82 2.23-8.26 3.49-12.99 3.49v-16c1.82 0 3.53-.49 5-1.34z" fill="#ffce54"/>
    <path d="m58 34v.01h-16v-.01c0-1.82-.49-3.52-1.34-4.99l13.85-8h.01c2.22 3.82 3.48 8.26 3.48 12.99z" fill="#ffce54"/>
    <path d="m42 34v.01c0 1.82-.49 3.521-1.34 4.99-.88 1.52-2.141 2.78-3.66 3.66-1.47.85-3.18 1.34-5 1.34s-3.52-.49-4.99-1.34c-1.52-.87-2.779-2.13-3.66-3.65-.859-1.47-1.35-3.18-1.35-5v-.01c0-1.82.49-3.52 1.34-4.99.87-1.52 2.141-2.79 3.66-3.67 1.47-.85 3.18-1.34 5-1.34s3.53.49 5 1.35c1.52.87 2.79 2.141 3.66 3.66.85 1.47 1.34 3.17 1.34 4.99z"
          fill="#e6e9ed"/>
    <path d="m32 64c-16.542 0-30-13.458-30-30 0-15.597 11.696-28.439 27.206-29.873.555-.054 1.036.354 1.088.904.051.55-.354 1.037-.904 1.088-14.475 1.338-25.39 13.324-25.39 27.881 0 15.439 12.561 28 28 28s28-12.561 28-28c0-14.557-10.915-26.543-25.39-27.881-.55-.051-.955-.538-.904-1.088.051-.549.537-.951 1.088-.904 15.51 1.434 27.206 14.276 27.206 29.873 0 16.542-13.458 30-30 30z"/>
    <path d="m32 61c-14.888 0-27-12.112-27-27 0-14.676 11.482-26.529 26.142-26.986.338.005.669.162.855.434.187-.272.499-.429.857-.436 14.662.457 26.146 12.311 26.146 26.988 0 14.888-12.112 27-27 27zm-.001-52.422c-.175.254-.463.425-.795.436-13.572.423-24.204 11.398-24.204 24.986 0 13.785 11.215 25 25 25s25-11.215 25-25c0-13.59-10.634-24.565-24.208-24.989-.331-.01-.619-.18-.793-.433z"/>
    <path d="m32 10.002c-.284 0-.555-.121-.744-.332-.544-.607-3.256-3.73-3.256-5.67 0-2.206 1.794-4 4-4s4 1.794 4 4c0 1.94-2.712 5.063-3.256 5.67-.189.211-.46.332-.744.332zm0-8.002c-1.103 0-2 .897-2 2 0 .619.938 2.119 2 3.452 1.061-1.326 2-2.815 2-3.452 0-1.103-.897-2-2-2z"/>
    <path d="m32 45c-6.065 0-11-4.935-11-11s4.935-11 11-11 11 4.935 11 11-4.935 11-11 11zm0-20c-4.963 0-9 4.037-9 9s4.037 9 9 9 9-4.037 9-9-4.037-9-9-9z"/>
    <path d="m32 25c-.553 0-1-.447-1-1v-14.998c0-.553.447-1 1-1s1 .447 1 1v14.998c0 .553-.447 1-1 1z"/>
    <path d="m32 61c-.553 0-1-.447-1-1v-16c0-.553.447-1 1-1s1 .447 1 1v16c0 .553-.447 1-1 1z"/>
    <path d="m26.998 26.34c-.346 0-.682-.179-.867-.5l-7.994-13.846c-.276-.479-.112-1.09.366-1.366.477-.276 1.09-.113 1.366.366l7.994 13.846c.276.479.112 1.09-.366 1.366-.157.091-.329.134-.499.134z"/>
    <path d="m44.998 57.518c-.346 0-.682-.179-.867-.5l-8-13.857c-.276-.479-.112-1.09.366-1.366.476-.277 1.089-.113 1.366.366l8 13.857c.276.479.112 1.09-.366 1.366-.157.091-.329.134-.499.134z"/>
    <path d="m23.334 30.004c-.17 0-.342-.043-.499-.134l-13.846-7.994c-.478-.276-.642-.888-.366-1.366.276-.479.889-.644 1.366-.366l13.846 7.994c.479.276.643.888.366 1.366-.185.321-.521.5-.867.5z"/>
    <path d="m54.511 48.004c-.17 0-.342-.043-.499-.134l-13.856-8c-.479-.276-.643-.888-.366-1.366.276-.478.888-.643 1.366-.366l13.856 8c.479.276.643.888.366 1.366-.186.32-.522.5-.867.5z"/>
    <path d="m21.995 35.006h-15.988c-.553 0-1-.447-1-1s.447-1 1-1h15.988c.553 0 1 .447 1 1s-.447 1-1 1z"/>
    <path d="m57.995 35.006h-16c-.553 0-1-.447-1-1s.447-1 1-1h16c.553 0 1 .447 1 1s-.447 1-1 1z"/>
    <path d="m9.49 48.002c-.346 0-.682-.18-.867-.5-.276-.479-.112-1.09.366-1.366l13.847-7.992c.476-.276 1.089-.111 1.366.366.276.479.112 1.09-.366 1.366l-13.847 7.992c-.157.091-.329.134-.499.134z"/>
    <path d="m40.657 30.01c-.346 0-.682-.179-.867-.5-.276-.479-.112-1.09.366-1.366l13.856-8c.477-.277 1.089-.113 1.366.366.276.479.112 1.09-.366 1.366l-13.856 8c-.157.091-.329.134-.499.134z"/>
    <path d="m19.002 57.516c-.17 0-.342-.043-.499-.134-.479-.276-.643-.888-.366-1.366l7.996-13.844c.276-.479.888-.644 1.366-.366.479.276.643.888.366 1.366l-7.996 13.844c-.185.321-.521.5-.867.5z"/>
    <path d="m36.998 26.352c-.17 0-.342-.043-.499-.134-.479-.276-.643-.888-.366-1.366l8-13.857c.276-.479.889-.643 1.366-.366.479.276.643.888.366 1.366l-8 13.857c-.185.32-.521.5-.867.5z"/>
    <path d="m55.212 28.789c-.553 0-1.005-.447-1.005-1s.442-1 .994-1h.011c.552 0 1 .447 1 1s-.448 1-1 1z"/>
    <path d="m8.847 41.211c-.553 0-1.005-.447-1.005-1s.442-1 .994-1h.011c.552 0 1 .447 1 1s-.449 1-1 1z"/>
    <path d="m49.001 18.029c-.553 0-1.005-.447-1.005-1s.442-1 .994-1h.011c.552 0 1 .447 1 1s-.448 1-1 1z"/>
    <path d="m15.059 51.971c-.553 0-1.005-.447-1.005-1s.442-1 .994-1h.011c.552 0 1 .447 1 1s-.449 1-1 1z"/>
    <path d="m38.242 11.816c-.553 0-1.005-.447-1.005-1s.442-1 .994-1h.011c.552 0 1 .447 1 1s-.448 1-1 1z"/>
    <path d="m25.817 58.182c-.553 0-1.005-.447-1.005-1s.442-1 .994-1h.011c.552 0 1 .447 1 1s-.448 1-1 1z"/>
    <path d="m25.818 11.816c-.553 0-1.005-.447-1.005-1s.442-1 .994-1h.011c.552 0 1 .447 1 1s-.448 1-1 1z"/>
    <path d="m38.241 58.182c-.553 0-1.005-.447-1.005-1s.442-1 .994-1h.011c.552 0 1 .447 1 1s-.448 1-1 1z"/>
    <path d="m15.059 18.027c-.553 0-1.005-.447-1.005-1s.442-1 .994-1h.011c.552 0 1 .447 1 1s-.449 1-1 1z"/>
    <path d="m49.001 51.971c-.553 0-1.005-.447-1.005-1s.442-1 .994-1h.011c.552 0 1 .447 1 1s-.448 1-1 1z"/>
    <path d="m8.847 28.787c-.553 0-1.005-.447-1.005-1s.442-1 .994-1h.011c.552 0 1 .447 1 1s-.449 1-1 1z"/>
    <path d="m55.213 41.211c-.553 0-1.005-.447-1.005-1s.442-1 .994-1h.011c.552 0 1 .447 1 1s-.448 1-1 1z"/>
    <path d="m36.997 33h-9.997c-.553 0-1-.447-1-1s.447-1 1-1h9.997c.553 0 1 .447 1 1s-.447 1-1 1z"/>
    <path d="m36.997 36h-9.997c-.553 0-1-.447-1-1s.447-1 1-1h9.997c.553 0 1 .447 1 1s-.447 1-1 1z"/>
    <path d="m34 39h-4.003c-.553 0-1-.447-1-1s.447-1 1-1h4.003c.553 0 1 .447 1 1s-.447 1-1 1z"/>
</svg>
