<?xml version="1.0" encoding="UTF-8"?>
<svg width="32px" height="32px" viewBox="0 0 32 32" version="1.1" xmlns="http://www.w3.org/2000/svg"
>
    <!-- Generator: Sketch 57.1 (83088) - https://sketch.com -->
    <title>113_day</title>
    <desc>Created with Sketch.</desc>
    <g id="113_day" stroke="none" stroke-width="1" fill="none" fill-rule="evenodd">
        <g id="sun" transform="translate(1.000000, 1.000000)" fill="#F7B500" fill-rule="nonzero">
            <path d="M14.7619048,22.2580645 C18.7159864,22.2580645 21.9047619,18.9919355 21.9047619,15 C21.9047619,11.0080645 18.6904762,7.74193548 14.7619048,7.74193548 C10.8333333,7.74193548 7.61904762,11.0080645 7.61904762,15 C7.61904762,18.9919355 10.8078231,22.2580645 14.7619048,22.2580645 Z M14.7619048,9.84158986 C17.5680272,9.84158986 19.8384354,12.1486175 19.8384354,15 C19.8384354,17.8513825 17.5680272,20.1584101 14.7619048,20.1584101 C11.9557823,20.1584101 9.68537415,17.8513825 9.68537415,15 C9.68537415,12.1486175 11.9557823,9.84158986 14.7619048,9.84158986 Z"
                  id="Shape"></path>
            <path d="M15.7142857,4.28833512 L15.7142857,1.03424553 C15.7142857,0.454059012 15.2961672,0 14.7619048,0 C14.2276423,0 13.8095238,0.454059012 13.8095238,1.03424553 L13.8095238,4.28833512 C13.8095238,4.86852163 14.2276423,5.32258065 14.7619048,5.32258065 C15.2961672,5.32258065 15.7142857,4.86852163 15.7142857,4.28833512 Z"
                  id="Path"></path>
            <path d="M13.8095238,25.7116649 L13.8095238,28.9657545 C13.8095238,29.545941 14.2276423,30 14.7619048,30 C15.2961672,30 15.7142857,29.545941 15.7142857,28.9657545 L15.7142857,25.7116649 C15.7142857,25.1314784 15.2961672,24.6774194 14.7619048,24.6774194 C14.2276423,24.6774194 13.8095238,25.1314784 13.8095238,25.7116649 Z"
                  id="Path"></path>
            <path d="M23.1626755,7.92373671 L25.4170107,5.63304121 C25.8133774,5.23028156 25.8133774,4.57579713 25.4170107,4.17303748 C25.0206441,3.77027783 24.3765483,3.77027783 23.9801817,4.17303748 L21.7258464,6.46373299 C21.3294798,6.86649263 21.3294798,7.52097707 21.7258464,7.92373671 C21.9240297,8.12511654 22.1717589,8.22580645 22.4442609,8.22580645 C22.716763,8.22580645 22.9644922,8.12511654 23.1626755,7.92373671 L23.1626755,7.92373671 Z"
                  id="Path"></path>
            <path d="M4.58298927,25.3430916 C4.78117258,25.5444714 5.02890173,25.6451613 5.3014038,25.6451613 C5.54913295,25.6451613 5.82163501,25.5444714 6.01981833,25.3430916 L8.27415359,23.052396 C8.67052023,22.6496364 8.67052023,21.995152 8.27415359,21.5923923 C7.87778695,21.1896327 7.23369116,21.1896327 6.83732453,21.5923923 L4.58298927,23.8830878 C4.18662263,24.2858475 4.18662263,24.9403319 4.58298927,25.3430916 Z"
                  id="Path"></path>
            <path d="M30,15 C30,14.4571204 29.5531483,14.0322581 28.9821711,14.0322581 L25.7797337,14.0322581 C25.2087565,14.0322581 24.7619048,14.4571204 24.7619048,15 C24.7619048,15.5428796 25.2087565,15.9677419 25.7797337,15.9677419 L28.9821711,15.9677419 C29.5283232,15.9677419 30,15.5428796 30,15 Z"
                  id="Path"></path>
            <path d="M1.01782893,15.9677419 L4.22026631,15.9677419 C4.79124351,15.9677419 5.23809524,15.5428796 5.23809524,15 C5.23809524,14.4571204 4.79124351,14.0322581 4.22026631,14.0322581 L1.01782893,14.0322581 C0.446851726,14.0322581 0,14.4571204 0,15 C0,15.5428796 0.471676822,15.9677419 1.01782893,15.9677419 Z"
                  id="Path"></path>
            <path d="M24.6985962,25.6451613 C24.9463254,25.6451613 25.2188274,25.5444714 25.4170107,25.3430916 C25.8133774,24.9403319 25.8133774,24.2858475 25.4170107,23.8830878 L23.1626755,21.5923923 C22.7663088,21.1896327 22.122213,21.1896327 21.7258464,21.5923923 C21.3294798,21.995152 21.3294798,22.6496364 21.7258464,23.052396 L23.9801817,25.3430916 C24.178365,25.5444714 24.4508671,25.6451613 24.6985962,25.6451613 L24.6985962,25.6451613 Z"
                  id="Path"></path>
            <path d="M8.27415359,6.46373299 L6.01981833,4.17303748 C5.62345169,3.77027783 4.9793559,3.77027783 4.58298927,4.17303748 C4.18662263,4.57579713 4.18662263,5.23028156 4.58298927,5.63304121 L6.83732453,7.92373671 C7.03550784,8.12511654 7.28323699,8.22580645 7.55573906,8.22580645 C7.82824112,8.22580645 8.07597027,8.12511654 8.27415359,7.92373671 C8.67052023,7.52097707 8.67052023,6.86649263 8.27415359,6.46373299 Z"
                  id="Path"></path>
        </g>
    </g>
</svg>
