<?xml version="1.0" encoding="UTF-8"?>
<svg width="32px" height="32px" viewBox="0 0 32 32" version="1.1" xmlns="http://www.w3.org/2000/svg"
>
    <!-- Generator: Sketch 57.1 (83088) - https://sketch.com -->
    <title>113_night</title>
    <desc>Created with Sketch.</desc>
    <g id="113_night" stroke="none" stroke-width="1" fill="none" fill-rule="evenodd">
        <path d="M25.9998685,17.5276695 C27.2274435,18.6263143 28,20.2229371 28,22.0000002 C28,25.3137087 25.3137085,28.0000002 22,28.0000002 C18.6862915,28.0000002 16,25.3137087 16,22.0000002 C16,21.6591716 16.0284182,21.3249805 16.0830144,20.999667 L22.5,21.0000002 C24.4329966,21.0000002 26,19.4329968 26,17.5000002 Z"
              id="Combined-Shape" stroke="#979797" stroke-width="1.5"></path>
        <g id="wi-cloudy" transform="translate(4.000000, 6.000000)" fill="#194D9B" fill-rule="nonzero">
            <path d="M0.117391304,10.6956522 C0.117391304,9.40434783 0.52173913,8.24347826 1.33043478,7.23913043 C2.13913043,6.23478261 3.16956522,5.5826087 4.43478261,5.29565217 C4.77391304,3.76956522 5.54347826,2.50434783 6.75652174,1.53913043 C7.96956522,0.560869565 9.36521739,0.0782608696 10.9565217,0.0782608696 C12.4956522,0.0782608696 13.8782609,0.547826087 15.0782609,1.5 C16.2913043,2.45217391 17.073913,3.66521739 17.426087,5.15217391 L17.7782609,5.15217391 C19.3173913,5.15217391 20.6217391,5.68695652 21.7043478,6.76956522 C22.7869565,7.85217391 23.3347826,9.15652174 23.3347826,10.6826087 C23.3347826,12.2217391 22.7869565,13.526087 21.7043478,14.6086957 C20.6217391,15.6913043 19.3173913,16.2391304 17.7782609,16.2391304 L5.68695652,16.2391304 C4.93043478,16.2391304 4.21304348,16.0956522 3.53478261,15.7956522 C2.85652174,15.4956522 2.24347826,15.1304348 1.74782609,14.6347826 C1.25217391,14.1391304 0.860869565,13.5391304 0.560869565,12.8608696 C0.260869565,12.1826087 0.117391304,11.4391304 0.117391304,10.6956522 Z M2.00869565,10.6956522 C2.00869565,11.6869565 2.37391304,12.5478261 3.07826087,13.2521739 C3.7826087,13.9565217 4.65652174,14.3217391 5.67391304,14.3217391 L17.7782609,14.3217391 C18.7826087,14.3217391 19.6565217,13.9695652 20.373913,13.2521739 C21.0913043,12.5347826 21.4565217,11.6869565 21.4565217,10.6956522 C21.4565217,9.70434783 21.1043478,8.84347826 20.373913,8.13913043 C19.6565217,7.43478261 18.7956522,7.06956522 17.7782609,7.06956522 L15.9652174,7.06956522 C15.8347826,7.06956522 15.7695652,7.00434783 15.7695652,6.87391304 L15.6782609,6.23478261 C15.5478261,5.00869565 15.026087,3.97826087 14.126087,3.16956522 C13.226087,2.36086957 12.1565217,1.95652174 10.9304348,1.95652174 C9.70434783,1.95652174 8.63478261,2.36086957 7.72173913,3.1826087 C6.80869565,3.99130435 6.3,5.02173913 6.1826087,6.23478261 L6.09130435,6.7826087 C6.09130435,6.91304348 6.02608696,6.97826087 5.8826087,6.97826087 L5.29565217,7.06956522 C4.35652174,7.14782609 3.57391304,7.53913043 2.93478261,8.23043478 C2.33478261,8.92173913 2.00869565,9.74347826 2.00869565,10.6956522 Z"
                  id="Shape"></path>
        </g>
    </g>
</svg>
