<?xml version="1.0" encoding="UTF-8"?>
<svg width="32px" height="32px" viewBox="0 0 32 32" version="1.1" xmlns="http://www.w3.org/2000/svg"
>
    <!-- Generator: Sketch 57.1 (83088) - https://sketch.com -->
    <title>116_day</title>
    <desc>Created with Sketch.</desc>
    <g id="116_day" stroke="none" stroke-width="1" fill="none" fill-rule="evenodd">
        <g id="wi-horizon-alt"
           transform="translate(19.000000, 12.743617) rotate(38.000000) translate(-19.000000, -12.743617) translate(6.000000, 4.423617)"
           fill="#F7B500" fill-rule="nonzero">
            <path d="M0.1283568,12.718992 C0.1283568,12.4156032 0.233376,12.1705584 0.4434144,11.9955264 C0.6067776,11.8204944 0.8518224,11.727144 1.16688,11.727144 L3.5939904,11.727144 C3.8740416,11.727144 4.1190864,11.8204944 4.2941184,12.0071952 C4.4808192,12.193896 4.5741696,12.427272 4.5741696,12.7073232 C4.5741696,12.9873744 4.4808192,13.2207504 4.2941184,13.41912 C4.1074176,13.6174896 3.8740416,13.71084 3.5939904,13.71084 L1.16688,13.71084 C0.8868288,13.71084 0.641784,13.6174896 0.4317456,13.41912 C0.2217072,13.2324192 0.1283568,12.9990432 0.1283568,12.718992 Z M3.5939904,4.4458128 C3.5939904,4.142424 3.6873408,3.9207168 3.8623728,3.7573536 C4.0607424,3.5473152 4.3057872,3.442296 4.5858384,3.442296 C4.8658896,3.442296 5.0992656,3.5473152 5.2976352,3.7573536 L6.9779424,5.4609984 C7.1879808,5.6476992 7.2813312,5.8810752 7.2813312,6.1611264 C7.2813312,6.4528464 7.1879808,6.6862224 7.00128,6.8729232 C6.8145792,7.059624 6.5812032,7.1529744 6.301152,7.1529744 C6.0444384,7.1529744 5.8110624,7.059624 5.601024,6.8729232 L3.8623728,5.1576096 C3.6873408,4.9942464 3.5939904,4.7608704 3.5939904,4.4458128 Z M6.6278784,12.718992 C6.6278784,13.7341776 6.8379168,14.644344 7.2463248,15.4378224 C7.2813312,15.5428416 7.3746816,15.6011856 7.526376,15.6011856 L9.4750656,15.6011856 C9.5567472,15.6011856 9.6150912,15.577848 9.6384288,15.5311728 C9.6617664,15.4844976 9.62676,15.4144848 9.5567472,15.344472 C8.9383008,14.586 8.6232432,13.71084 8.6232432,12.718992 C8.6232432,11.5637808 9.04332,10.5719328 9.8718048,9.7551168 C10.7002896,8.9383008 11.6921376,8.5298928 12.8473488,8.5298928 C14.00256,8.5298928 14.994408,8.9383008 15.8228928,9.7551168 C16.6513776,10.5719328 17.0481168,11.5637808 17.0481168,12.718992 C17.0481168,13.7225088 16.7330592,14.5976688 16.1146128,15.344472 C16.0679376,15.4144848 16.0446,15.46116 16.0446,15.4844976 C16.0329312,15.519504 16.0446,15.5545104 16.0796064,15.5661792 C16.102944,15.5895168 16.1496192,15.6011856 16.1962944,15.6011856 L18.1799904,15.6011856 C18.2850096,15.6011856 18.3666912,15.5428416 18.4250352,15.4378224 C18.8684496,14.6093376 19.078488,13.71084 19.078488,12.718992 C19.078488,11.5987872 18.7984368,10.560264 18.2383344,9.6034224 C17.678232,8.6465808 16.91976,7.8881088 15.9629184,7.3280064 C15.0060768,6.767904 13.9675536,6.4878528 12.8473488,6.4878528 C11.727144,6.4878528 10.6886208,6.767904 9.7317792,7.3280064 C8.7749376,7.8881088 8.0164656,8.6465808 7.4563632,9.6034224 C6.8962608,10.560264 6.6278784,11.5987872 6.6278784,12.718992 Z M11.843832,3.4656336 L11.843832,1.0268544 C11.843832,0.7468032 11.9371824,0.5134272 12.135552,0.3033888 C12.3339216,0.0933504 12.5672976,0 12.8473488,0 C13.1274,0 13.360776,0.1050192 13.5708144,0.3033888 C13.769184,0.5017584 13.8742032,0.7468032 13.8742032,1.0268544 L13.8742032,3.4656336 C13.8742032,3.7456848 13.769184,3.9790608 13.5708144,4.1890992 C13.360776,4.3991376 13.1274,4.492488 12.8473488,4.492488 C12.5672976,4.492488 12.3339216,4.3874688 12.135552,4.1890992 C11.9371824,3.9790608 11.843832,3.7456848 11.843832,3.4656336 Z M18.4016976,6.1611264 C18.4016976,5.8810752 18.495048,5.6476992 18.6817488,5.4609984 L20.362056,3.7573536 C20.5604256,3.5473152 20.8054704,3.442296 21.0855216,3.442296 C21.3772416,3.442296 21.6222864,3.5356464 21.8089872,3.734016 C22.0073568,3.9323856 22.1007072,4.1657616 22.1007072,4.4458128 C22.1007072,4.7492016 22.0073568,4.9825776 21.8323248,5.1576096 L20.070336,6.8729232 C19.8836352,7.0479552 19.6502592,7.1296368 19.3818768,7.1296368 C19.0901568,7.1413056 18.8567808,7.0479552 18.67008,6.8729232 C18.495048,6.6978912 18.4016976,6.4528464 18.4016976,6.1611264 Z M21.120528,12.718992 C21.120528,12.4039344 21.2138784,12.1705584 21.4005792,11.9955264 C21.5639424,11.8204944 21.7973184,11.727144 22.0890384,11.727144 L24.5278176,11.727144 C24.8078688,11.727144 25.0529136,11.8204944 25.2512832,12.0071952 C25.4496528,12.193896 25.554672,12.427272 25.554672,12.7073232 C25.554672,12.9873744 25.4496528,13.2207504 25.2512832,13.41912 C25.0412448,13.6174896 24.8078688,13.71084 24.5278176,13.71084 L22.0890384,13.71084 C21.820656,13.71084 21.58728,13.6174896 21.4005792,13.41912 C21.2138784,13.2324192 21.120528,12.9990432 21.120528,12.718992 Z"
                  id="Shape"></path>
        </g>
        <g id="wi-cloudy" transform="translate(4.000000, 15.000000)" fill="#57A0EE" fill-rule="nonzero">
            <path d="M0.0733695652,6.68478261 C0.0733695652,5.87771739 0.326086957,5.15217391 0.831521739,4.52445652 C1.33695652,3.89673913 1.98097826,3.48913043 2.77173913,3.30978261 C2.98369565,2.35597826 3.46467391,1.56521739 4.22282609,0.961956522 C4.98097826,0.350543478 5.85326087,0.0489130435 6.84782609,0.0489130435 C7.80978261,0.0489130435 8.67391304,0.342391304 9.42391304,0.9375 C10.1820652,1.5326087 10.6711957,2.29076087 10.8913043,3.2201087 L11.111413,3.2201087 C12.0733696,3.2201087 12.888587,3.55434783 13.5652174,4.23097826 C14.2418478,4.9076087 14.5842391,5.72282609 14.5842391,6.67663043 C14.5842391,7.63858696 14.2418478,8.45380435 13.5652174,9.13043478 C12.888587,9.80706522 12.0733696,10.1494565 11.111413,10.1494565 L3.55434783,10.1494565 C3.08152174,10.1494565 2.63315217,10.0597826 2.20923913,9.87228261 C1.78532609,9.68478261 1.40217391,9.45652174 1.0923913,9.14673913 C0.782608696,8.83695652 0.538043478,8.46195652 0.350543478,8.03804348 C0.163043478,7.61413043 0.0733695652,7.14945652 0.0733695652,6.68478261 Z M1.25543478,6.68478261 C1.25543478,7.30434783 1.48369565,7.8423913 1.92391304,8.2826087 C2.36413043,8.72282609 2.91032609,8.95108696 3.54619565,8.95108696 L11.111413,8.95108696 C11.7391304,8.95108696 12.2853261,8.73097826 12.7336957,8.2826087 C13.1820652,7.83423913 13.4103261,7.30434783 13.4103261,6.68478261 C13.4103261,6.06521739 13.1902174,5.52717391 12.7336957,5.08695652 C12.2853261,4.64673913 11.7472826,4.41847826 11.111413,4.41847826 L9.97826087,4.41847826 C9.89673913,4.41847826 9.85597826,4.37771739 9.85597826,4.29619565 L9.79891304,3.89673913 C9.7173913,3.13043478 9.39130435,2.48641304 8.82880435,1.98097826 C8.26630435,1.47554348 7.59782609,1.22282609 6.83152174,1.22282609 C6.06521739,1.22282609 5.39673913,1.47554348 4.82608696,1.98913043 C4.25543478,2.49456522 3.9375,3.13858696 3.86413043,3.89673913 L3.80706522,4.23913043 C3.80706522,4.32065217 3.76630435,4.36141304 3.67663043,4.36141304 L3.30978261,4.41847826 C2.72282609,4.4673913 2.23369565,4.71195652 1.83423913,5.14402174 C1.45923913,5.57608696 1.25543478,6.08967391 1.25543478,6.68478261 Z"
                  id="Shape"></path>
        </g>
    </g>
</svg>
