<?xml version="1.0" encoding="UTF-8"?>
<svg width="32px" height="32px" viewBox="0 0 32 32" version="1.1" xmlns="http://www.w3.org/2000/svg"
>
    <!-- Generator: Sketch 57.1 (83088) - https://sketch.com -->
    <title>119_day</title>
    <desc>Created with Sketch.</desc>
    <g id="119_day" stroke="none" stroke-width="1" fill="none" fill-rule="evenodd">
        <g id="wi-cloudy" transform="translate(1.000000, 7.000000)" fill="#57A0EE" fill-rule="nonzero">
            <path d="M1.1125,13.25 C1.1125,12.0125 1.5,10.9 2.275,9.9375 C3.05,8.975 4.0375,8.35 5.25,8.075 C5.575,6.6125 6.3125,5.4 7.475,4.475 C8.6375,3.5375 9.975,3.075 11.5,3.075 C12.975,3.075 14.3,3.525 15.45,4.4375 C16.6125,5.35 17.3625,6.5125 17.7,7.9375 L18.0375,7.9375 C19.5125,7.9375 20.7625,8.45 21.8,9.4875 C22.8375,10.525 23.3625,11.775 23.3625,13.2375 C23.3625,14.7125 22.8375,15.9625 21.8,17 C20.7625,18.0375 19.5125,18.5625 18.0375,18.5625 L6.45,18.5625 C5.725,18.5625 5.0375,18.425 4.3875,18.1375 C3.7375,17.85 3.15,17.5 2.675,17.025 C2.2,16.55 1.825,15.975 1.5375,15.325 C1.25,14.675 1.1125,13.9625 1.1125,13.25 Z M2.925,13.25 C2.925,14.2 3.275,15.025 3.95,15.7 C4.625,16.375 5.4625,16.725 6.4375,16.725 L18.0375,16.725 C19,16.725 19.8375,16.3875 20.525,15.7 C21.2125,15.0125 21.5625,14.2 21.5625,13.25 C21.5625,12.3 21.225,11.475 20.525,10.8 C19.8375,10.125 19.0125,9.775 18.0375,9.775 L16.3,9.775 C16.175,9.775 16.1125,9.7125 16.1125,9.5875 L16.025,8.975 C15.9,7.8 15.4,6.8125 14.5375,6.0375 C13.675,5.2625 12.65,4.875 11.475,4.875 C10.3,4.875 9.275,5.2625 8.4,6.05 C7.525,6.825 7.0375,7.8125 6.925,8.975 L6.8375,9.5 C6.8375,9.625 6.775,9.6875 6.6375,9.6875 L6.075,9.775 C5.175,9.85 4.425,10.225 3.8125,10.8875 C3.2375,11.55 2.925,12.3375 2.925,13.25 Z M13.9875,2.35 C13.8625,2.4625 13.8875,2.55 14.075,2.6125 C14.6125,2.85 15.0625,3.075 15.425,3.3 C15.5625,3.3375 15.6625,3.325 15.7,3.2625 C16.4625,2.55 17.3375,2.1875 18.35,2.1875 C19.3625,2.1875 20.225,2.525 20.975,3.2 C21.7125,3.875 22.125,4.7125 22.2125,5.7 L22.325,6.5 L24.1,6.5 C24.9125,6.5 25.6125,6.7875 26.2,7.375 C26.7875,7.9625 27.075,8.65 27.075,9.45 C27.075,10.2 26.8125,10.85 26.3,11.4125 C25.7875,11.975 25.15,12.2875 24.3875,12.375 C24.2625,12.375 24.2,12.4375 24.2,12.575 L24.2,13.9875 C24.2,14.125 24.2625,14.1875 24.3875,14.1875 C25.65,14.1125 26.7125,13.6125 27.575,12.7 C28.4375,11.7875 28.875,10.7 28.875,9.45 C28.875,8.125 28.4125,7 27.475,6.075 C26.5375,5.1375 25.4125,4.675 24.1,4.675 L23.9125,4.675 C23.5875,3.425 22.9,2.4 21.85,1.5875 C20.8125,0.775 19.6375,0.375 18.35,0.375 C16.6,0.3625 15.1375,1.025 13.9875,2.35 Z"
                  id="Shape"></path>
        </g>
    </g>
</svg>
