<?xml version="1.0" encoding="UTF-8"?>
<svg width="32px" height="32px" viewBox="0 0 32 32" version="1.1" xmlns="http://www.w3.org/2000/svg"
>
    <!-- Generator: Sketch 57.1 (83088) - https://sketch.com -->
    <title>122_day</title>
    <desc>Created with Sketch.</desc>
    <g id="122_day" stroke="none" stroke-width="1" fill="none" fill-rule="evenodd">
        <g id="wi-horizon-alt"
           transform="translate(22.000000, 11.463617) rotate(40.000000) translate(-22.000000, -11.463617) translate(11.000000, 4.423617)"
           fill="#F7B500" fill-rule="nonzero">
            <path d="M0.1086096,10.762224 C0.1086096,10.5055104 0.197472,10.2981648 0.3751968,10.1500608 C0.5134272,10.0019568 0.7207728,9.922968 0.98736,9.922968 L3.0410688,9.922968 C3.2780352,9.922968 3.4853808,10.0019568 3.6334848,10.1599344 C3.7914624,10.317912 3.8704512,10.515384 3.8704512,10.7523504 C3.8704512,10.9893168 3.7914624,11.1867888 3.6334848,11.35464 C3.4755072,11.5224912 3.2780352,11.60148 3.0410688,11.60148 L0.98736,11.60148 C0.7503936,11.60148 0.543048,11.5224912 0.3653232,11.35464 C0.1875984,11.1966624 0.1086096,10.9991904 0.1086096,10.762224 Z M3.0410688,3.7618416 C3.0410688,3.505128 3.1200576,3.3175296 3.2681616,3.1792992 C3.4360128,3.0015744 3.6433584,2.912712 3.8803248,2.912712 C4.1172912,2.912712 4.3147632,3.0015744 4.4826144,3.1792992 L5.9044128,4.6208448 C6.0821376,4.7788224 6.1611264,4.9762944 6.1611264,5.2132608 C6.1611264,5.4601008 6.0821376,5.6575728 5.92416,5.8155504 C5.7661824,5.973528 5.5687104,6.0525168 5.331744,6.0525168 C5.1145248,6.0525168 4.9170528,5.973528 4.739328,5.8155504 L3.2681616,4.3641312 C3.1200576,4.2259008 3.0410688,4.0284288 3.0410688,3.7618416 Z M5.6082048,10.762224 C5.6082048,11.6212272 5.7859296,12.391368 6.1315056,13.0627728 C6.1611264,13.1516352 6.2401152,13.2010032 6.368472,13.2010032 L8.0173632,13.2010032 C8.0864784,13.2010032 8.1358464,13.181256 8.1555936,13.1417616 C8.1753408,13.1022672 8.14572,13.0430256 8.0864784,12.983784 C7.5631776,12.342 7.2965904,11.60148 7.2965904,10.762224 C7.2965904,9.7847376 7.65204,8.9454816 8.3530656,8.2543296 C9.0540912,7.5631776 9.8933472,7.2176016 10.8708336,7.2176016 C11.84832,7.2176016 12.687576,7.5631776 13.3886016,8.2543296 C14.0896272,8.9454816 14.4253296,9.7847376 14.4253296,10.762224 C14.4253296,11.6113536 14.1587424,12.3518736 13.6354416,12.983784 C13.5959472,13.0430256 13.5762,13.08252 13.5762,13.1022672 C13.5663264,13.131888 13.5762,13.1615088 13.6058208,13.1713824 C13.625568,13.1911296 13.6650624,13.2010032 13.7045568,13.2010032 L15.3830688,13.2010032 C15.4719312,13.2010032 15.5410464,13.1516352 15.5904144,13.0627728 C15.9656112,12.3617472 16.143336,11.60148 16.143336,10.762224 C16.143336,9.8143584 15.9063696,8.935608 15.4324368,8.1259728 C14.958504,7.3163376 14.31672,6.6745536 13.5070848,6.2006208 C12.6974496,5.726688 11.8186992,5.4897216 10.8708336,5.4897216 C9.922968,5.4897216 9.0442176,5.726688 8.2345824,6.2006208 C7.4249472,6.6745536 6.7831632,7.3163376 6.3092304,8.1259728 C5.8352976,8.935608 5.6082048,9.8143584 5.6082048,10.762224 Z M10.021704,2.9324592 L10.021704,0.8688768 C10.021704,0.6319104 10.1006928,0.4344384 10.268544,0.2567136 C10.4363952,0.0789888 10.6338672,0 10.8708336,0 C11.1078,0 11.305272,0.0888624 11.4829968,0.2567136 C11.650848,0.4245648 11.7397104,0.6319104 11.7397104,0.8688768 L11.7397104,2.9324592 C11.7397104,3.1694256 11.650848,3.3668976 11.4829968,3.5446224 C11.305272,3.7223472 11.1078,3.801336 10.8708336,3.801336 C10.6338672,3.801336 10.4363952,3.7124736 10.268544,3.5446224 C10.1006928,3.3668976 10.021704,3.1694256 10.021704,2.9324592 Z M15.5706672,5.2132608 C15.5706672,4.9762944 15.649656,4.7788224 15.8076336,4.6208448 L17.229432,3.1792992 C17.3972832,3.0015744 17.6046288,2.912712 17.8415952,2.912712 C18.0884352,2.912712 18.2957808,2.9917008 18.4537584,3.159552 C18.6216096,3.3274032 18.7005984,3.5248752 18.7005984,3.7618416 C18.7005984,4.0185552 18.6216096,4.2160272 18.4735056,4.3641312 L16.982592,5.8155504 C16.8246144,5.9636544 16.6271424,6.0327696 16.4000496,6.0327696 C16.1532096,6.0426432 15.9557376,5.9636544 15.79776,5.8155504 C15.649656,5.6674464 15.5706672,5.4601008 15.5706672,5.2132608 Z M17.871216,10.762224 C17.871216,10.4956368 17.9502048,10.2981648 18.1081824,10.1500608 C18.2464128,10.0019568 18.4438848,9.922968 18.6907248,9.922968 L20.7543072,9.922968 C20.9912736,9.922968 21.1986192,10.0019568 21.3664704,10.1599344 C21.5343216,10.317912 21.623184,10.515384 21.623184,10.7523504 C21.623184,10.9893168 21.5343216,11.1867888 21.3664704,11.35464 C21.1887456,11.5224912 20.9912736,11.60148 20.7543072,11.60148 L18.6907248,11.60148 C18.463632,11.60148 18.26616,11.5224912 18.1081824,11.35464 C17.9502048,11.1966624 17.871216,10.9991904 17.871216,10.762224 Z"
                  id="Shape"></path>
        </g>
        <g id="wi-cloudy" transform="translate(2.000000, 12.000000)" fill="#57A0EE" fill-rule="nonzero">
            <path d="M0.1125,10.25 C0.1125,9.0125 0.5,7.9 1.275,6.9375 C2.05,5.975 3.0375,5.35 4.25,5.075 C4.575,3.6125 5.3125,2.4 6.475,1.475 C7.6375,0.5375 8.975,0.075 10.5,0.075 C11.975,0.075 13.3,0.525 14.45,1.4375 C15.6125,2.35 16.3625,3.5125 16.7,4.9375 L17.0375,4.9375 C18.5125,4.9375 19.7625,5.45 20.8,6.4875 C21.8375,7.525 22.3625,8.775 22.3625,10.2375 C22.3625,11.7125 21.8375,12.9625 20.8,14 C19.7625,15.0375 18.5125,15.5625 17.0375,15.5625 L5.45,15.5625 C4.725,15.5625 4.0375,15.425 3.3875,15.1375 C2.7375,14.85 2.15,14.5 1.675,14.025 C1.2,13.55 0.825,12.975 0.5375,12.325 C0.25,11.675 0.1125,10.9625 0.1125,10.25 Z M1.925,10.25 C1.925,11.2 2.275,12.025 2.95,12.7 C3.625,13.375 4.4625,13.725 5.4375,13.725 L17.0375,13.725 C18,13.725 18.8375,13.3875 19.525,12.7 C20.2125,12.0125 20.5625,11.2 20.5625,10.25 C20.5625,9.3 20.225,8.475 19.525,7.8 C18.8375,7.125 18.0125,6.775 17.0375,6.775 L15.3,6.775 C15.175,6.775 15.1125,6.7125 15.1125,6.5875 L15.025,5.975 C14.9,4.8 14.4,3.8125 13.5375,3.0375 C12.675,2.2625 11.65,1.875 10.475,1.875 C9.3,1.875 8.275,2.2625 7.4,3.05 C6.525,3.825 6.0375,4.8125 5.925,5.975 L5.8375,6.5 C5.8375,6.625 5.775,6.6875 5.6375,6.6875 L5.075,6.775 C4.175,6.85 3.425,7.225 2.8125,7.8875 C2.2375,8.55 1.925,9.3375 1.925,10.25 Z"
                  id="Shape"></path>
        </g>
    </g>
</svg>
