<?xml version="1.0" encoding="UTF-8"?>
<svg width="32px" height="32px" viewBox="0 0 32 32" version="1.1" xmlns="http://www.w3.org/2000/svg"
>
    <!-- Generator: Sketch 57.1 (83088) - https://sketch.com -->
    <title>122_night</title>
    <desc>Created with Sketch.</desc>
    <g id="122_night" stroke="none" stroke-width="1" fill="none" fill-rule="evenodd">
        <g id="wi-cloudy" transform="translate(2.000000, 7.000000)" fill="#194D9B" fill-rule="nonzero">
            <path d="M0.1125,13.25 C0.1125,12.0125 0.5,10.9 1.275,9.9375 C2.05,8.975 3.0375,8.35 4.25,8.075 C4.575,6.6125 5.3125,5.4 6.475,4.475 C7.6375,3.5375 8.975,3.075 10.5,3.075 C11.975,3.075 13.3,3.525 14.45,4.4375 C15.6125,5.35 16.3625,6.5125 16.7,7.9375 L17.0375,7.9375 C18.5125,7.9375 19.7625,8.45 20.8,9.4875 C21.8375,10.525 22.3625,11.775 22.3625,13.2375 C22.3625,14.7125 21.8375,15.9625 20.8,17 C19.7625,18.0375 18.5125,18.5625 17.0375,18.5625 L5.45,18.5625 C4.725,18.5625 4.0375,18.425 3.3875,18.1375 C2.7375,17.85 2.15,17.5 1.675,17.025 C1.2,16.55 0.825,15.975 0.5375,15.325 C0.25,14.675 0.1125,13.9625 0.1125,13.25 Z M1.925,13.25 C1.925,14.2 2.275,15.025 2.95,15.7 C3.625,16.375 4.4625,16.725 5.4375,16.725 L17.0375,16.725 C18,16.725 18.8375,16.3875 19.525,15.7 C20.2125,15.0125 20.5625,14.2 20.5625,13.25 C20.5625,12.3 20.225,11.475 19.525,10.8 C18.8375,10.125 18.0125,9.775 17.0375,9.775 L15.3,9.775 C15.175,9.775 15.1125,9.7125 15.1125,9.5875 L15.025,8.975 C14.9,7.8 14.4,6.8125 13.5375,6.0375 C12.675,5.2625 11.65,4.875 10.475,4.875 C9.3,4.875 8.275,5.2625 7.4,6.05 C6.525,6.825 6.0375,7.8125 5.925,8.975 L5.8375,9.5 C5.8375,9.625 5.775,9.6875 5.6375,9.6875 L5.075,9.775 C4.175,9.85 3.425,10.225 2.8125,10.8875 C2.2375,11.55 1.925,12.3375 1.925,13.25 Z M12.9875,2.35 C12.8625,2.4625 12.8875,2.55 13.075,2.6125 C13.6125,2.85 14.0625,3.075 14.425,3.3 C14.5625,3.3375 14.6625,3.325 14.7,3.2625 C15.4625,2.55 16.3375,2.1875 17.35,2.1875 C18.3625,2.1875 19.225,2.525 19.975,3.2 C20.7125,3.875 21.125,4.7125 21.2125,5.7 L21.325,6.5 L23.1,6.5 C23.9125,6.5 24.6125,6.7875 25.2,7.375 C25.7875,7.9625 26.075,8.65 26.075,9.45 C26.075,10.2 25.8125,10.85 25.3,11.4125 C24.7875,11.975 24.15,12.2875 23.3875,12.375 C23.2625,12.375 23.2,12.4375 23.2,12.575 L23.2,13.9875 C23.2,14.125 23.2625,14.1875 23.3875,14.1875 C24.65,14.1125 25.7125,13.6125 26.575,12.7 C27.4375,11.7875 27.875,10.7 27.875,9.45 C27.875,8.125 27.4125,7 26.475,6.075 C25.5375,5.1375 24.4125,4.675 23.1,4.675 L22.9125,4.675 C22.5875,3.425 21.9,2.4 20.85,1.5875 C19.8125,0.775 18.6375,0.375 17.35,0.375 C15.6,0.3625 14.1375,1.025 12.9875,2.35 Z"
                  id="Shape"></path>
        </g>
    </g>
</svg>
