<?xml version="1.0" encoding="UTF-8"?>
<svg width="32px" height="32px" viewBox="0 0 32 32" version="1.1" xmlns="http://www.w3.org/2000/svg"
>
    <!-- Generator: Sketch 57.1 (83088) - https://sketch.com -->
    <title>143_night</title>
    <desc>Created with Sketch.</desc>
    <g id="143_night" stroke="none" stroke-width="1" fill="none" fill-rule="evenodd">
        <g id="wi-night-clear"
           transform="translate(23.500000, 11.500000) rotate(-3.000000) translate(-23.500000, -11.500000) translate(16.000000, 4.000000)"
           fill="#888888" fill-rule="nonzero">
            <path d="M8.14,0.38 C8.3,0.42 8.37,0.52 8.37,0.66 L8.42,1.54 C8.46,2.81 8.91,3.89 9.79,4.78 C10.67,5.67 11.73,6.15 12.98,6.2 L13.8,6.27 C13.96,6.27 14.04,6.35 14.04,6.5 L14.04,7.48 C14.05,8.76 13.74,9.95 13.11,11.04 C12.48,12.13 11.63,12.99 10.54,13.63 C10.0549153,13.9129661 9.54763933,14.1333934 9.01998444,14.2903758 L7.61029494,12.7807266 C7.99497439,12.7303621 8.38248719,12.6310643 8.77,12.48 C9.36,12.25 9.91,11.93 10.42,11.52 C10.93,11.11 11.36,10.59 11.73,9.95 C12.1,9.31 12.33,8.62 12.44,7.86 C10.81,7.52 9.5,6.82 8.52,5.76 C7.54,4.7 6.97,3.46 6.82,2.02 C5.86,2.08 5,2.37 4.21,2.9 C3.43,3.43 2.82,4.1 2.39,4.92 C2.10934732,5.45519814 1.91815297,6.00317603 1.81919731,6.56671406 L0.366067624,5.00725606 C0.39943968,4.90784099 0.434083805,4.8154223 0.47,4.73 C0.84,3.85 1.35,3.1 1.98,2.47 C2.61,1.84 3.37,1.33 4.25,0.95 C5.13,0.57 6.05,0.38 7,0.38 L8.14,0.38 Z"
                  id="Shape"></path>
        </g>
        <path d="M13.4594676,8 C15.0078276,8 16.3991076,8.47124 17.5996476,9.43616 C18.8001876,10.40108 19.5855876,11.62406 19.9558476,13.12754 L19.9558476,13.12754 L20.3261076,13.12754 C21.3359076,13.12754 22.2671676,13.36316 23.1198876,13.85684 C23.9726076,14.35052 24.6570276,15.0125 25.1507076,15.86522 C25.6556076,16.70672 25.9024476,17.63798 25.9024476,18.64778 C25.9024476,19.63514 25.6668276,20.55518 25.1955876,21.39668 C24.7243476,22.23818 24.0735876,22.91138 23.2545276,23.41628 C22.4354676,23.9324 21.5378676,24.20168 20.5505076,24.22412 C20.4046476,24.22412 13.4706876,24.1568 13.4706876,24.03338 L13.4706876,24.03338 L13.4594676,22.32794 C13.4594676,22.1933 20.4046476,22.32794 20.5505076,22.32794 C21.5042076,22.28306 22.3232676,21.90158 23.0076876,21.1835 C23.6921076,20.46542 24.0287076,19.62392 24.0287076,18.64778 C24.0287076,17.66042 23.6584476,16.8077 22.9291476,16.08962 C22.1998476,15.36032 21.3359076,15.00128 20.3373276,15.00128 L20.3373276,15.00128 L18.5196876,15.00128 C18.3962676,15.00128 18.3289476,14.93396 18.3289476,14.81054 L18.3289476,14.81054 L18.2504076,14.15978 C18.1157676,12.94802 17.5996476,11.93822 16.6796076,11.11916 C15.7595676,10.3001 14.6936676,9.89618 13.4706876,9.89618 C12.2364876,9.89618 11.1705876,10.3001 10.2617676,11.11916 C9.35294762,11.927 8.84804762,12.94802 8.73584762,14.15978 L8.73584762,14.15978 L8.64608762,14.77688 C8.64608762,14.9003 8.56754762,14.96762 8.42168762,14.96762 L8.42168762,14.96762 L7.82702762,15.0125 C6.89576762,15.1247 6.11036762,15.5174 5.47082762,16.21304 C5.3665932,16.3264178 5.27100205,16.442776 5.18400558,16.5621633 L3,16.5624844 C3.19734136,16.0845819 3.46743056,15.6317863 3.81026762,15.20324 C4.61810762,14.19344 5.63912762,13.54268 6.87332762,13.25096 C7.22114762,11.71382 8.01776762,10.44596 9.24074762,9.46982 C10.4637276,8.49368 11.8774476,8 13.4594676,8 Z"
              id="Combined-Shape" fill="#194D9B" fill-rule="nonzero"></path>
        <g id="wi-day-cloudy-windy" transform="translate(1.000000, 19.000000)" fill="#888888" fill-rule="nonzero">
            <path d="M0.45,3.97 C0.45,4.21 0.53,4.42 0.69,4.58 C1.13,4.76 1.42,4.85 1.57,4.85 L9.45,4.85 C9.69,4.85 9.89,4.76 10.05,4.59 C10.22,4.42 10.3,4.21 10.3,3.98 C10.3,3.75 10.22,3.55 10.05,3.39 C9.88,3.23 9.68,3.15 9.45,3.15 L1.57,3.15 C1.31,3.15 1.05,3.23 0.81,3.39 C0.57,3.55 0.45,3.75 0.45,3.97 Z M1.84,0.97 C1.84,1.21 1.92,1.4 2.09,1.56 C2.24,1.73 2.43,1.82 2.67,1.82 L12.07,1.82 C12.31,1.82 12.51,1.74 12.68,1.57 C12.85,1.4 12.93,1.2 12.93,0.97 C12.93,0.73 12.85,0.53 12.68,0.36 C12.51,0.19 12.31,0.11 12.07,0.11 L2.67,0.11 C2.44,0.11 2.24,0.19 2.08,0.36 C1.92,0.53 1.84,0.73 1.84,0.97 Z M3.6,7.16 C3.6,7.4 3.69,7.59 3.86,7.75 C4.02,7.92 4.22,8 4.45,8 L13.87,8 C14.1,8 14.3,7.92 14.46,7.75 C14.62,7.58 14.7,7.39 14.7,7.15 C14.7,6.9 14.62,6.69 14.46,6.53 C14.3,6.37 14.1,6.28 13.86,6.28 L4.45,6.28 C4.21,6.28 4.01,6.36 3.85,6.53 C3.69,6.7 3.6,6.91 3.6,7.16 Z"
                  id="Shape"></path>
        </g>
    </g>
</svg>
