<?xml version="1.0" encoding="UTF-8"?>
<svg width="32px" height="32px" viewBox="0 0 32 32" version="1.1" xmlns="http://www.w3.org/2000/svg"
>
    <!-- Generator: Sketch 57.1 (83088) - https://sketch.com -->
    <title>176_night</title>
    <desc>Created with Sketch.</desc>
    <g id="176_night" stroke="none" stroke-width="1" fill="none" fill-rule="evenodd">
        <g id="wi-night-clear" transform="translate(16.000000, 4.000000)" fill="#888888" fill-rule="nonzero">
            <path d="M8.13178122,0.395761746 C8.29178122,0.435761746 8.36178122,0.535761746 8.36178122,0.675761746 L8.41178122,1.55576175 C8.45178122,2.82576175 8.90178122,3.90576175 9.78178122,4.79576175 C10.6617812,5.68576175 11.7217812,6.16576175 12.9717812,6.21576175 L13.7917812,6.28576175 C13.9517812,6.28576175 14.0317812,6.36576175 14.0317812,6.51576175 L14.0317812,7.49576175 C14.0417812,8.77576175 13.7317812,9.96576175 13.1017812,11.0557617 C12.4717812,12.1457617 11.6217812,13.0057617 10.5317812,13.6457617 C10.0466965,13.9287278 9.53942055,14.1491552 9.01176567,14.3061376 L7.60207617,12.7964884 C7.98675561,12.7461238 8.37426842,12.6468261 8.76178122,12.4957617 C9.35178122,12.2657617 9.90178122,11.9457617 10.4117812,11.5357617 C10.9217812,11.1257617 11.3517812,10.6057617 11.7217812,9.96576175 C12.0917812,9.32576175 12.3217812,8.63576175 12.4317812,7.87576175 C10.8017812,7.53576175 9.49178122,6.83576175 8.51178122,5.77576175 C7.53178122,4.71576175 6.96178122,3.47576175 6.81178122,2.03576175 C5.85178122,2.09576175 4.99178122,2.38576175 4.20178122,2.91576175 C3.42178122,3.44576175 2.81178122,4.11576175 2.38178122,4.93576175 C2.10112854,5.47095988 1.90993419,6.01893778 1.81097853,6.5824758 L0.357848848,5.0230178 C0.391220903,4.92360273 0.425865029,4.83118405 0.461781224,4.74576175 C0.831781224,3.86576175 1.34178122,3.11576175 1.97178122,2.48576175 C2.60178122,1.85576175 3.36178122,1.34576175 4.24178122,0.965761746 C5.12178122,0.585761746 6.04178122,0.395761746 6.99178122,0.395761746 L8.13178122,0.395761746 Z"
                  id="Shape"
                  transform="translate(7.194932, 7.350950) rotate(-3.000000) translate(-7.194932, -7.350950) "></path>
        </g>
        <g id="wi-cloud-down" transform="translate(2.000000, 8.163201)" fill="#194D9B" fill-rule="nonzero">
            <path d="M0.68442,11.08536 C0.68442,12.58884 1.21176,13.86792 2.25522,14.94504 C3.29868,16.02216 4.57776,16.59438 6.07002,16.6617 C6.19344,16.6617 6.26076,16.59438 6.26076,16.47096 L6.26076,14.96748 C6.26076,14.83284 6.19344,14.76552 6.07002,14.76552 C5.1051,14.72064 4.28604,14.33916 3.61284,13.62108 C2.93964,12.903 2.60304,12.0615 2.60304,11.08536 C2.60304,10.1541 2.9172,9.34626 3.55674,8.65062 C4.19628,7.95498 4.98168,7.56228 5.91294,7.45008 L6.5076,7.4052 C6.65346,7.4052 6.732,7.33788 6.732,7.21446 L6.82176,6.59736 C6.93396,5.3856 7.43886,4.36458 8.34768,3.55674 C9.2565,2.73768 10.3224,2.33376 11.5566,2.33376 C12.77958,2.33376 13.84548,2.73768 14.76552,3.55674 C15.68556,4.3758 16.20168,5.3856 16.33632,6.59736 L16.41486,7.24812 C16.41486,7.37154 16.48218,7.43886 16.6056,7.43886 L18.42324,7.43886 C19.42182,7.43886 20.28576,7.7979 21.01506,8.5272 C21.74436,9.24528 22.11462,10.098 22.11462,11.08536 C22.11462,12.0615 21.77802,12.903 21.0936,13.62108 C20.40918,14.33916 19.59012,14.72064 18.63642,14.76552 C18.49056,14.76552 18.42324,14.83284 18.42324,14.96748 L18.42324,16.47096 C18.42324,16.59438 18.49056,16.6617 18.63642,16.6617 C19.62378,16.63926 20.52138,16.36998 21.34044,15.85386 C22.1595,15.34896 22.81026,14.67576 23.2815,13.83426 C23.75274,12.99276 23.98836,12.07272 23.98836,11.08536 C23.98836,10.07556 23.74152,9.1443 23.23662,8.3028 C22.74294,7.45008 22.05852,6.7881 21.2058,6.29442 C20.35308,5.80074 19.42182,5.56512 18.41202,5.56512 L18.04176,5.56512 C17.6715,4.06164 16.8861,2.83866 15.68556,1.87374 C14.48502,0.90882 13.09374,0.43758 11.54538,0.43758 C9.96336,0.43758 8.54964,0.93126 7.32666,1.9074 C6.10368,2.88354 5.30706,4.1514 4.95924,5.68854 C3.72504,5.98026 2.70402,6.63102 1.89618,7.64082 C1.08834,8.65062 0.68442,9.79506 0.68442,11.08536 Z"
                  id="Shape"></path>
        </g>
        <g id="wi-day-sprinkle" transform="translate(10.000000, 23.000000)" fill="#888888" fill-rule="nonzero">
            <path d="M0.3,2.48666667 C0.3,2.92666667 0.453333333,3.29333333 0.753333333,3.58666667 C1.05333333,3.88 1.42,4.03333333 1.85333333,4.03333333 C2.28666667,4.03333333 2.65333333,3.88 2.96,3.58 C3.26666667,3.27333333 3.41333333,2.91333333 3.41333333,2.48666667 C3.41333333,2.12666667 3.23333333,1.69333333 2.87333333,1.17333333 C2.56666667,0.766666667 2.28,0.44 2.02,0.18 C1.96666667,0.14 1.90666667,0.0933333333 1.84666667,0.0266666667 L1.69333333,0.18 C1.45333333,0.393333333 1.17333333,0.726666667 0.846666667,1.16 C0.486666667,1.66666667 0.3,2.10666667 0.3,2.48666667 Z"
                  id="Shape"></path>
        </g>
        <g id="wi-day-sprinkle" transform="translate(13.000000, 20.000000)" fill="#888888" fill-rule="nonzero">
            <path d="M0.3,2.48666667 C0.3,2.92666667 0.453333333,3.29333333 0.753333333,3.58666667 C1.05333333,3.88 1.42,4.03333333 1.85333333,4.03333333 C2.28666667,4.03333333 2.65333333,3.88 2.96,3.58 C3.26666667,3.27333333 3.41333333,2.91333333 3.41333333,2.48666667 C3.41333333,2.12666667 3.23333333,1.69333333 2.87333333,1.17333333 C2.56666667,0.766666667 2.28,0.44 2.02,0.18 C1.96666667,0.14 1.90666667,0.0933333333 1.84666667,0.0266666667 L1.69333333,0.18 C1.45333333,0.393333333 1.17333333,0.726666667 0.846666667,1.16 C0.486666667,1.66666667 0.3,2.10666667 0.3,2.48666667 Z"
                  id="Shape"></path>
        </g>
        <g id="wi-day-sprinkle" transform="translate(14.000000, 25.000000)" fill="#194D9B" fill-rule="nonzero">
            <path d="M0.45,3.73 C0.45,4.39 0.68,4.94 1.13,5.38 C1.58,5.82 2.13,6.05 2.78,6.05 C3.43,6.05 3.98,5.82 4.44,5.37 C4.9,4.91 5.12,4.37 5.12,3.73 C5.12,3.19 4.85,2.54 4.31,1.76 C3.85,1.15 3.42,0.66 3.03,0.27 C2.95,0.21 2.86,0.14 2.77,0.04 L2.54,0.27 C2.18,0.59 1.76,1.09 1.27,1.74 C0.73,2.5 0.45,3.16 0.45,3.73 Z"
                  id="Shape"></path>
        </g>
    </g>
</svg>
