<?xml version="1.0" encoding="UTF-8"?>
<svg width="32px" height="32px" viewBox="0 0 32 32" version="1.1" xmlns="http://www.w3.org/2000/svg"
>
    <!-- Generator: Sketch 57.1 (83088) - https://sketch.com -->
    <title>179_day</title>
    <desc>Created with Sketch.</desc>
    <g id="179_day" stroke="none" stroke-width="1" fill="none" fill-rule="evenodd">
        <g id="wi-horizon-alt"
           transform="translate(23.000000, 10.463617) rotate(40.000000) translate(-23.000000, -10.463617) translate(12.000000, 3.423617)"
           fill="#F7B500" fill-rule="nonzero">
            <path d="M0.1086096,10.762224 C0.1086096,10.5055104 0.197472,10.2981648 0.3751968,10.1500608 C0.5134272,10.0019568 0.7207728,9.922968 0.98736,9.922968 L3.0410688,9.922968 C3.2780352,9.922968 3.4853808,10.0019568 3.6334848,10.1599344 C3.7914624,10.317912 3.8704512,10.515384 3.8704512,10.7523504 C3.8704512,10.9893168 3.7914624,11.1867888 3.6334848,11.35464 C3.4755072,11.5224912 3.2780352,11.60148 3.0410688,11.60148 L0.98736,11.60148 C0.7503936,11.60148 0.543048,11.5224912 0.3653232,11.35464 C0.1875984,11.1966624 0.1086096,10.9991904 0.1086096,10.762224 Z M3.0410688,3.7618416 C3.0410688,3.505128 3.1200576,3.3175296 3.2681616,3.1792992 C3.4360128,3.0015744 3.6433584,2.912712 3.8803248,2.912712 C4.1172912,2.912712 4.3147632,3.0015744 4.4826144,3.1792992 L5.9044128,4.6208448 C6.0821376,4.7788224 6.1611264,4.9762944 6.1611264,5.2132608 C6.1611264,5.4601008 6.0821376,5.6575728 5.92416,5.8155504 C5.7661824,5.973528 5.5687104,6.0525168 5.331744,6.0525168 C5.1145248,6.0525168 4.9170528,5.973528 4.739328,5.8155504 L3.2681616,4.3641312 C3.1200576,4.2259008 3.0410688,4.0284288 3.0410688,3.7618416 Z M5.6082048,10.762224 C5.6082048,11.6212272 5.7859296,12.391368 6.1315056,13.0627728 C6.1611264,13.1516352 6.2401152,13.2010032 6.368472,13.2010032 L8.0173632,13.2010032 C8.0864784,13.2010032 8.1358464,13.181256 8.1555936,13.1417616 C8.1753408,13.1022672 8.14572,13.0430256 8.0864784,12.983784 C7.5631776,12.342 7.2965904,11.60148 7.2965904,10.762224 C7.2965904,9.7847376 7.65204,8.9454816 8.3530656,8.2543296 C9.0540912,7.5631776 9.8933472,7.2176016 10.8708336,7.2176016 C11.84832,7.2176016 12.687576,7.5631776 13.3886016,8.2543296 C14.0896272,8.9454816 14.4253296,9.7847376 14.4253296,10.762224 C14.4253296,11.6113536 14.1587424,12.3518736 13.6354416,12.983784 C13.5959472,13.0430256 13.5762,13.08252 13.5762,13.1022672 C13.5663264,13.131888 13.5762,13.1615088 13.6058208,13.1713824 C13.625568,13.1911296 13.6650624,13.2010032 13.7045568,13.2010032 L15.3830688,13.2010032 C15.4719312,13.2010032 15.5410464,13.1516352 15.5904144,13.0627728 C15.9656112,12.3617472 16.143336,11.60148 16.143336,10.762224 C16.143336,9.8143584 15.9063696,8.935608 15.4324368,8.1259728 C14.958504,7.3163376 14.31672,6.6745536 13.5070848,6.2006208 C12.6974496,5.726688 11.8186992,5.4897216 10.8708336,5.4897216 C9.922968,5.4897216 9.0442176,5.726688 8.2345824,6.2006208 C7.4249472,6.6745536 6.7831632,7.3163376 6.3092304,8.1259728 C5.8352976,8.935608 5.6082048,9.8143584 5.6082048,10.762224 Z M10.021704,2.9324592 L10.021704,0.8688768 C10.021704,0.6319104 10.1006928,0.4344384 10.268544,0.2567136 C10.4363952,0.0789888 10.6338672,0 10.8708336,0 C11.1078,0 11.305272,0.0888624 11.4829968,0.2567136 C11.650848,0.4245648 11.7397104,0.6319104 11.7397104,0.8688768 L11.7397104,2.9324592 C11.7397104,3.1694256 11.650848,3.3668976 11.4829968,3.5446224 C11.305272,3.7223472 11.1078,3.801336 10.8708336,3.801336 C10.6338672,3.801336 10.4363952,3.7124736 10.268544,3.5446224 C10.1006928,3.3668976 10.021704,3.1694256 10.021704,2.9324592 Z M15.5706672,5.2132608 C15.5706672,4.9762944 15.649656,4.7788224 15.8076336,4.6208448 L17.229432,3.1792992 C17.3972832,3.0015744 17.6046288,2.912712 17.8415952,2.912712 C18.0884352,2.912712 18.2957808,2.9917008 18.4537584,3.159552 C18.6216096,3.3274032 18.7005984,3.5248752 18.7005984,3.7618416 C18.7005984,4.0185552 18.6216096,4.2160272 18.4735056,4.3641312 L16.982592,5.8155504 C16.8246144,5.9636544 16.6271424,6.0327696 16.4000496,6.0327696 C16.1532096,6.0426432 15.9557376,5.9636544 15.79776,5.8155504 C15.649656,5.6674464 15.5706672,5.4601008 15.5706672,5.2132608 Z M17.871216,10.762224 C17.871216,10.4956368 17.9502048,10.2981648 18.1081824,10.1500608 C18.2464128,10.0019568 18.4438848,9.922968 18.6907248,9.922968 L20.7543072,9.922968 C20.9912736,9.922968 21.1986192,10.0019568 21.3664704,10.1599344 C21.5343216,10.317912 21.623184,10.515384 21.623184,10.7523504 C21.623184,10.9893168 21.5343216,11.1867888 21.3664704,11.35464 C21.1887456,11.5224912 20.9912736,11.60148 20.7543072,11.60148 L18.6907248,11.60148 C18.463632,11.60148 18.26616,11.5224912 18.1081824,11.35464 C17.9502048,11.1966624 17.871216,10.9991904 17.871216,10.762224 Z"
                  id="Shape"></path>
        </g>
        <g id="wi-cloud-down" transform="translate(1.000000, 9.423617)" fill="#57A0EE" fill-rule="nonzero">
            <path d="M0.68442,11.08536 C0.68442,12.58884 1.21176,13.86792 2.25522,14.94504 C3.29868,16.02216 4.57776,16.59438 6.07002,16.6617 C6.19344,16.6617 6.26076,16.59438 6.26076,16.47096 L6.26076,14.96748 C6.26076,14.83284 6.19344,14.76552 6.07002,14.76552 C5.1051,14.72064 4.28604,14.33916 3.61284,13.62108 C2.93964,12.903 2.60304,12.0615 2.60304,11.08536 C2.60304,10.1541 2.9172,9.34626 3.55674,8.65062 C4.19628,7.95498 4.98168,7.56228 5.91294,7.45008 L6.5076,7.4052 C6.65346,7.4052 6.732,7.33788 6.732,7.21446 L6.82176,6.59736 C6.93396,5.3856 7.43886,4.36458 8.34768,3.55674 C9.2565,2.73768 10.3224,2.33376 11.5566,2.33376 C12.77958,2.33376 13.84548,2.73768 14.76552,3.55674 C15.68556,4.3758 16.20168,5.3856 16.33632,6.59736 L16.41486,7.24812 C16.41486,7.37154 16.48218,7.43886 16.6056,7.43886 L18.42324,7.43886 C19.42182,7.43886 20.28576,7.7979 21.01506,8.5272 C21.74436,9.24528 22.11462,10.098 22.11462,11.08536 C22.11462,12.0615 21.77802,12.903 21.0936,13.62108 C20.40918,14.33916 19.59012,14.72064 18.63642,14.76552 C18.49056,14.76552 18.42324,14.83284 18.42324,14.96748 L18.42324,16.47096 C18.42324,16.59438 18.49056,16.6617 18.63642,16.6617 C19.62378,16.63926 20.52138,16.36998 21.34044,15.85386 C22.1595,15.34896 22.81026,14.67576 23.2815,13.83426 C23.75274,12.99276 23.98836,12.07272 23.98836,11.08536 C23.98836,10.07556 23.74152,9.1443 23.23662,8.3028 C22.74294,7.45008 22.05852,6.7881 21.2058,6.29442 C20.35308,5.80074 19.42182,5.56512 18.41202,5.56512 L18.04176,5.56512 C17.6715,4.06164 16.8861,2.83866 15.68556,1.87374 C14.48502,0.90882 13.09374,0.43758 11.54538,0.43758 C9.96336,0.43758 8.54964,0.93126 7.32666,1.9074 C6.10368,2.88354 5.30706,4.1514 4.95924,5.68854 C3.72504,5.98026 2.70402,6.63102 1.89618,7.64082 C1.08834,8.65062 0.68442,9.79506 0.68442,11.08536 Z"
                  id="Shape"></path>
        </g>
        <g id="wi-snowflake-cold" transform="translate(14.000000, 17.423617)" fill="#57A0EE" fill-rule="nonzero">
            <path d="M2.30926389e-14,2.40975 C2.30926389e-14,2.3491875 0.0223125,2.295 0.06375,2.250375 C0.1051875,2.20575 0.1561875,2.1834375 0.21675,2.1834375 C0.2773125,2.1834375 0.3315,2.20575 0.3729375,2.250375 C0.414375,2.295 0.4366875,2.346 0.4366875,2.40975 C0.4366875,2.4703125 0.414375,2.5213125 0.3729375,2.56275 C0.3315,2.6041875 0.2773125,2.6265 0.2199375,2.6265 C0.1625625,2.6265 0.108375,2.6041875 0.0669375,2.56275 C0.019125,2.518125 2.30926389e-14,2.467125 2.30926389e-14,2.40975 Z M0.631125,2.40975 C0.631125,2.3491875 0.6534375,2.295 0.694875,2.250375 C0.7363125,2.20575 0.7873125,2.1834375 0.847875,2.1834375 L1.8774375,2.1834375 L1.1506875,1.4566875 C1.1060625,1.4184375 1.08375,1.3674375 1.08375,1.306875 C1.08375,1.2463125 1.1060625,1.1953125 1.1506875,1.1506875 C1.1953125,1.1060625 1.2463125,1.08375 1.306875,1.08375 C1.3674375,1.08375 1.4184375,1.1060625 1.4630625,1.1506875 L2.186625,1.87425 L2.186625,0.8510625 C2.186625,0.7905 2.2089375,0.7363125 2.2535625,0.6916875 C2.2981875,0.6470625 2.3491875,0.62475 2.4129375,0.62475 C2.4735,0.62475 2.5245,0.6470625 2.5659375,0.6916875 C2.607375,0.7363125 2.6296875,0.7873125 2.6296875,0.8510625 L2.6296875,1.880625 L3.359625,1.1475 C3.40425,1.102875 3.45525,1.0805625 3.512625,1.0805625 C3.57,1.0805625 3.6241875,1.102875 3.6688125,1.1475 C3.7070625,1.192125 3.7261875,1.243125 3.7261875,1.3036875 C3.7261875,1.36425 3.7070625,1.41525 3.6688125,1.4535 L2.9420625,2.18025 L3.971625,2.18025 C4.029,2.18025 4.08,2.2025625 4.1214375,2.2471875 C4.162875,2.2918125 4.1851875,2.3428125 4.1851875,2.4065625 C4.1851875,2.4639375 4.162875,2.5149375 4.1214375,2.556375 C4.08,2.5978125 4.029,2.620125 3.971625,2.620125 L2.9420625,2.620125 L3.672,3.3500625 C3.71025,3.3883125 3.729375,3.4393125 3.729375,3.499875 C3.729375,3.5604375 3.71025,3.6114375 3.672,3.6560625 C3.627375,3.7006875 3.5731875,3.723 3.5158125,3.723 C3.4584375,3.723 3.40425,3.7006875 3.3628125,3.6560625 L2.632875,2.9229375 L2.632875,3.9556875 C2.632875,4.01625 2.6105625,4.0704375 2.569125,4.111875 C2.5276875,4.1533125 2.4766875,4.175625 2.416125,4.175625 C2.3555625,4.175625 2.301375,4.1533125 2.25675,4.111875 C2.212125,4.0704375 2.1898125,4.01625 2.1898125,3.9556875 L2.1898125,2.9293125 L1.46625,3.652875 C1.421625,3.6975 1.370625,3.7198125 1.3100625,3.7198125 C1.2495,3.7198125 1.1985,3.6975 1.153875,3.652875 C1.10925,3.60825 1.0869375,3.55725 1.0869375,3.4966875 C1.0869375,3.436125 1.10925,3.3883125 1.153875,3.346875 L1.887,2.6169375 L0.85425,2.6169375 C0.7936875,2.6169375 0.7426875,2.594625 0.70125,2.5531875 C0.65025,2.518125 0.631125,2.467125 0.631125,2.40975 Z M0.6343125,3.9525 C0.6343125,3.895125 0.656625,3.8409375 0.70125,3.7995 C0.7395,3.754875 0.7905,3.7325625 0.8510625,3.7325625 C0.911625,3.7325625 0.962625,3.754875 1.00725,3.7995 C1.051875,3.844125 1.0741875,3.895125 1.0741875,3.9525 C1.0741875,4.009875 1.051875,4.0640625 1.00725,4.1055 C0.962625,4.150125 0.911625,4.1724375 0.8510625,4.1724375 C0.7905,4.1724375 0.7395,4.150125 0.70125,4.1055 C0.656625,4.0640625 0.6343125,4.0130625 0.6343125,3.9525 Z M0.6343125,0.8574375 C0.6343125,0.8000625 0.656625,0.745875 0.70125,0.7044375 C0.7395,0.6598125 0.7905,0.6375 0.8510625,0.6375 C0.911625,0.6375 0.962625,0.6598125 1.00725,0.7044375 C1.051875,0.7490625 1.0741875,0.8000625 1.0741875,0.8574375 C1.0741875,0.9148125 1.051875,0.969 1.00725,1.013625 C0.962625,1.05825 0.911625,1.0805625 0.8510625,1.0805625 C0.7905,1.0805625 0.7395,1.05825 0.70125,1.013625 C0.656625,0.969 0.6343125,0.9148125 0.6343125,0.8574375 Z M2.18025,4.59 C2.18025,4.532625 2.2025625,4.481625 2.2471875,4.4401875 C2.2918125,4.39875 2.3428125,4.3764375 2.4065625,4.3764375 C2.467125,4.3764375 2.518125,4.39875 2.5595625,4.4401875 C2.601,4.481625 2.6233125,4.532625 2.6233125,4.59 C2.6233125,4.6505625 2.601,4.70475 2.5595625,4.7461875 C2.518125,4.787625 2.467125,4.8099375 2.4065625,4.8099375 C2.346,4.8099375 2.2918125,4.787625 2.2471875,4.7461875 C2.2025625,4.70475 2.18025,4.65375 2.18025,4.59 Z M2.18025,0.2199375 C2.18025,0.159375 2.2025625,0.1051875 2.2471875,0.06375 C2.2918125,0.0223125 2.3428125,-1.0658141e-14 2.4065625,-1.0658141e-14 C2.467125,-1.0658141e-14 2.518125,0.0223125 2.5595625,0.06375 C2.601,0.1051875 2.6233125,0.159375 2.6233125,0.2199375 C2.6233125,0.2773125 2.601,0.3283125 2.5595625,0.36975 C2.518125,0.4111875 2.467125,0.4335 2.4065625,0.4335 C2.346,0.4335 2.2918125,0.4111875 2.2471875,0.36975 C2.2025625,0.3283125 2.18025,0.2773125 2.18025,0.2199375 Z M3.7325625,3.9525 C3.7325625,3.895125 3.754875,3.8409375 3.7995,3.7995 C3.83775,3.754875 3.88875,3.7325625 3.9493125,3.7325625 C4.009875,3.7325625 4.060875,3.754875 4.1055,3.7995 C4.150125,3.844125 4.1724375,3.895125 4.1724375,3.9525 C4.1724375,4.009875 4.150125,4.0640625 4.1055,4.1055 C4.060875,4.150125 4.009875,4.1724375 3.9493125,4.1724375 C3.88875,4.1724375 3.83775,4.150125 3.7995,4.1055 C3.754875,4.0640625 3.7325625,4.0130625 3.7325625,3.9525 Z M3.7325625,0.8574375 C3.7325625,0.8000625 3.754875,0.745875 3.7995,0.7044375 C3.83775,0.6598125 3.88875,0.6375 3.9493125,0.6375 C4.009875,0.6375 4.060875,0.6598125 4.1055,0.7044375 C4.150125,0.7490625 4.1724375,0.8000625 4.1724375,0.8574375 C4.1724375,0.9148125 4.150125,0.969 4.1055,1.013625 C4.060875,1.05825 4.009875,1.0805625 3.9493125,1.0805625 C3.88875,1.0805625 3.83775,1.05825 3.7995,1.013625 C3.754875,0.969 3.7325625,0.9148125 3.7325625,0.8574375 Z M4.3700625,2.40975 C4.3700625,2.3491875 4.392375,2.295 4.4338125,2.250375 C4.47525,2.20575 4.5294375,2.1834375 4.59,2.1834375 C4.647375,2.1834375 4.698375,2.20575 4.7398125,2.250375 C4.78125,2.295 4.8035625,2.346 4.8035625,2.40975 C4.8035625,2.467125 4.78125,2.518125 4.7398125,2.5595625 C4.698375,2.601 4.647375,2.6233125 4.59,2.6233125 C4.5294375,2.6233125 4.47525,2.601 4.4338125,2.5595625 C4.392375,2.518125 4.3700625,2.467125 4.3700625,2.40975 Z"
                  id="Shape"></path>
        </g>
        <g id="wi-snowflake-cold" transform="translate(10.000000, 23.423617)" fill="#57A0EE" fill-rule="nonzero">
            <path d="M2.30926389e-14,3.8556 C2.30926389e-14,3.7587 0.0357,3.672 0.102,3.6006 C0.1683,3.5292 0.2499,3.4935 0.3468,3.4935 C0.4437,3.4935 0.5304,3.5292 0.5967,3.6006 C0.663,3.672 0.6987,3.7536 0.6987,3.8556 C0.6987,3.9525 0.663,4.0341 0.5967,4.1004 C0.5304,4.1667 0.4437,4.2024 0.3519,4.2024 C0.2601,4.2024 0.1734,4.1667 0.1071,4.1004 C0.0306,4.029 2.30926389e-14,3.9474 2.30926389e-14,3.8556 Z M1.0098,3.8556 C1.0098,3.7587 1.0455,3.672 1.1118,3.6006 C1.1781,3.5292 1.2597,3.4935 1.3566,3.4935 L3.0039,3.4935 L1.8411,2.3307 C1.7697,2.2695 1.734,2.1879 1.734,2.091 C1.734,1.9941 1.7697,1.9125 1.8411,1.8411 C1.9125,1.7697 1.9941,1.734 2.091,1.734 C2.1879,1.734 2.2695,1.7697 2.3409,1.8411 L3.4986,2.9988 L3.4986,1.3617 C3.4986,1.2648 3.5343,1.1781 3.6057,1.1067 C3.6771,1.0353 3.7587,0.9996 3.8607,0.9996 C3.9576,0.9996 4.0392,1.0353 4.1055,1.1067 C4.1718,1.1781 4.2075,1.2597 4.2075,1.3617 L4.2075,3.009 L5.3754,1.836 C5.4468,1.7646 5.5284,1.7289 5.6202,1.7289 C5.712,1.7289 5.7987,1.7646 5.8701,1.836 C5.9313,1.9074 5.9619,1.989 5.9619,2.0859 C5.9619,2.1828 5.9313,2.2644 5.8701,2.3256 L4.7073,3.4884 L6.3546,3.4884 C6.4464,3.4884 6.528,3.5241 6.5943,3.5955 C6.6606,3.6669 6.6963,3.7485 6.6963,3.8505 C6.6963,3.9423 6.6606,4.0239 6.5943,4.0902 C6.528,4.1565 6.4464,4.1922 6.3546,4.1922 L4.7073,4.1922 L5.8752,5.3601 C5.9364,5.4213 5.967,5.5029 5.967,5.5998 C5.967,5.6967 5.9364,5.7783 5.8752,5.8497 C5.8038,5.9211 5.7171,5.9568 5.6253,5.9568 C5.5335,5.9568 5.4468,5.9211 5.3805,5.8497 L4.2126,4.6767 L4.2126,6.3291 C4.2126,6.426 4.1769,6.5127 4.1106,6.579 C4.0443,6.6453 3.9627,6.681 3.8658,6.681 C3.7689,6.681 3.6822,6.6453 3.6108,6.579 C3.5394,6.5127 3.5037,6.426 3.5037,6.3291 L3.5037,4.6869 L2.346,5.8446 C2.2746,5.916 2.193,5.9517 2.0961,5.9517 C1.9992,5.9517 1.9176,5.916 1.8462,5.8446 C1.7748,5.7732 1.7391,5.6916 1.7391,5.5947 C1.7391,5.4978 1.7748,5.4213 1.8462,5.355 L3.0192,4.1871 L1.3668,4.1871 C1.2699,4.1871 1.1883,4.1514 1.122,4.0851 C1.0404,4.029 1.0098,3.9474 1.0098,3.8556 Z M1.0149,6.324 C1.0149,6.2322 1.0506,6.1455 1.122,6.0792 C1.1832,6.0078 1.2648,5.9721 1.3617,5.9721 C1.4586,5.9721 1.5402,6.0078 1.6116,6.0792 C1.683,6.1506 1.7187,6.2322 1.7187,6.324 C1.7187,6.4158 1.683,6.5025 1.6116,6.5688 C1.5402,6.6402 1.4586,6.6759 1.3617,6.6759 C1.2648,6.6759 1.1832,6.6402 1.122,6.5688 C1.0506,6.5025 1.0149,6.4209 1.0149,6.324 Z M1.0149,1.3719 C1.0149,1.2801 1.0506,1.1934 1.122,1.1271 C1.1832,1.0557 1.2648,1.02 1.3617,1.02 C1.4586,1.02 1.5402,1.0557 1.6116,1.1271 C1.683,1.1985 1.7187,1.2801 1.7187,1.3719 C1.7187,1.4637 1.683,1.5504 1.6116,1.6218 C1.5402,1.6932 1.4586,1.7289 1.3617,1.7289 C1.2648,1.7289 1.1832,1.6932 1.122,1.6218 C1.0506,1.5504 1.0149,1.4637 1.0149,1.3719 Z M3.4884,7.344 C3.4884,7.2522 3.5241,7.1706 3.5955,7.1043 C3.6669,7.038 3.7485,7.0023 3.8505,7.0023 C3.9474,7.0023 4.029,7.038 4.0953,7.1043 C4.1616,7.1706 4.1973,7.2522 4.1973,7.344 C4.1973,7.4409 4.1616,7.5276 4.0953,7.5939 C4.029,7.6602 3.9474,7.6959 3.8505,7.6959 C3.7536,7.6959 3.6669,7.6602 3.5955,7.5939 C3.5241,7.5276 3.4884,7.446 3.4884,7.344 Z M3.4884,0.3519 C3.4884,0.255 3.5241,0.1683 3.5955,0.102 C3.6669,0.0357 3.7485,-1.0658141e-14 3.8505,-1.0658141e-14 C3.9474,-1.0658141e-14 4.029,0.0357 4.0953,0.102 C4.1616,0.1683 4.1973,0.255 4.1973,0.3519 C4.1973,0.4437 4.1616,0.5253 4.0953,0.5916 C4.029,0.6579 3.9474,0.6936 3.8505,0.6936 C3.7536,0.6936 3.6669,0.6579 3.5955,0.5916 C3.5241,0.5253 3.4884,0.4437 3.4884,0.3519 Z M5.9721,6.324 C5.9721,6.2322 6.0078,6.1455 6.0792,6.0792 C6.1404,6.0078 6.222,5.9721 6.3189,5.9721 C6.4158,5.9721 6.4974,6.0078 6.5688,6.0792 C6.6402,6.1506 6.6759,6.2322 6.6759,6.324 C6.6759,6.4158 6.6402,6.5025 6.5688,6.5688 C6.4974,6.6402 6.4158,6.6759 6.3189,6.6759 C6.222,6.6759 6.1404,6.6402 6.0792,6.5688 C6.0078,6.5025 5.9721,6.4209 5.9721,6.324 Z M5.9721,1.3719 C5.9721,1.2801 6.0078,1.1934 6.0792,1.1271 C6.1404,1.0557 6.222,1.02 6.3189,1.02 C6.4158,1.02 6.4974,1.0557 6.5688,1.1271 C6.6402,1.1985 6.6759,1.2801 6.6759,1.3719 C6.6759,1.4637 6.6402,1.5504 6.5688,1.6218 C6.4974,1.6932 6.4158,1.7289 6.3189,1.7289 C6.222,1.7289 6.1404,1.6932 6.0792,1.6218 C6.0078,1.5504 5.9721,1.4637 5.9721,1.3719 Z M6.9921,3.8556 C6.9921,3.7587 7.0278,3.672 7.0941,3.6006 C7.1604,3.5292 7.2471,3.4935 7.344,3.4935 C7.4358,3.4935 7.5174,3.5292 7.5837,3.6006 C7.65,3.672 7.6857,3.7536 7.6857,3.8556 C7.6857,3.9474 7.65,4.029 7.5837,4.0953 C7.5174,4.1616 7.4358,4.1973 7.344,4.1973 C7.2471,4.1973 7.1604,4.1616 7.0941,4.0953 C7.0278,4.029 6.9921,3.9474 6.9921,3.8556 Z"
                  id="Shape"></path>
        </g>
        <g id="wi-snowflake-cold" transform="translate(7.000000, 19.423617)" fill="#F7B500" fill-rule="nonzero">
            <path d="M2.30926389e-14,2.40975 C2.30926389e-14,2.3491875 0.0223125,2.295 0.06375,2.250375 C0.1051875,2.20575 0.1561875,2.1834375 0.21675,2.1834375 C0.2773125,2.1834375 0.3315,2.20575 0.3729375,2.250375 C0.414375,2.295 0.4366875,2.346 0.4366875,2.40975 C0.4366875,2.4703125 0.414375,2.5213125 0.3729375,2.56275 C0.3315,2.6041875 0.2773125,2.6265 0.2199375,2.6265 C0.1625625,2.6265 0.108375,2.6041875 0.0669375,2.56275 C0.019125,2.518125 2.30926389e-14,2.467125 2.30926389e-14,2.40975 Z M0.631125,2.40975 C0.631125,2.3491875 0.6534375,2.295 0.694875,2.250375 C0.7363125,2.20575 0.7873125,2.1834375 0.847875,2.1834375 L1.8774375,2.1834375 L1.1506875,1.4566875 C1.1060625,1.4184375 1.08375,1.3674375 1.08375,1.306875 C1.08375,1.2463125 1.1060625,1.1953125 1.1506875,1.1506875 C1.1953125,1.1060625 1.2463125,1.08375 1.306875,1.08375 C1.3674375,1.08375 1.4184375,1.1060625 1.4630625,1.1506875 L2.186625,1.87425 L2.186625,0.8510625 C2.186625,0.7905 2.2089375,0.7363125 2.2535625,0.6916875 C2.2981875,0.6470625 2.3491875,0.62475 2.4129375,0.62475 C2.4735,0.62475 2.5245,0.6470625 2.5659375,0.6916875 C2.607375,0.7363125 2.6296875,0.7873125 2.6296875,0.8510625 L2.6296875,1.880625 L3.359625,1.1475 C3.40425,1.102875 3.45525,1.0805625 3.512625,1.0805625 C3.57,1.0805625 3.6241875,1.102875 3.6688125,1.1475 C3.7070625,1.192125 3.7261875,1.243125 3.7261875,1.3036875 C3.7261875,1.36425 3.7070625,1.41525 3.6688125,1.4535 L2.9420625,2.18025 L3.971625,2.18025 C4.029,2.18025 4.08,2.2025625 4.1214375,2.2471875 C4.162875,2.2918125 4.1851875,2.3428125 4.1851875,2.4065625 C4.1851875,2.4639375 4.162875,2.5149375 4.1214375,2.556375 C4.08,2.5978125 4.029,2.620125 3.971625,2.620125 L2.9420625,2.620125 L3.672,3.3500625 C3.71025,3.3883125 3.729375,3.4393125 3.729375,3.499875 C3.729375,3.5604375 3.71025,3.6114375 3.672,3.6560625 C3.627375,3.7006875 3.5731875,3.723 3.5158125,3.723 C3.4584375,3.723 3.40425,3.7006875 3.3628125,3.6560625 L2.632875,2.9229375 L2.632875,3.9556875 C2.632875,4.01625 2.6105625,4.0704375 2.569125,4.111875 C2.5276875,4.1533125 2.4766875,4.175625 2.416125,4.175625 C2.3555625,4.175625 2.301375,4.1533125 2.25675,4.111875 C2.212125,4.0704375 2.1898125,4.01625 2.1898125,3.9556875 L2.1898125,2.9293125 L1.46625,3.652875 C1.421625,3.6975 1.370625,3.7198125 1.3100625,3.7198125 C1.2495,3.7198125 1.1985,3.6975 1.153875,3.652875 C1.10925,3.60825 1.0869375,3.55725 1.0869375,3.4966875 C1.0869375,3.436125 1.10925,3.3883125 1.153875,3.346875 L1.887,2.6169375 L0.85425,2.6169375 C0.7936875,2.6169375 0.7426875,2.594625 0.70125,2.5531875 C0.65025,2.518125 0.631125,2.467125 0.631125,2.40975 Z M0.6343125,3.9525 C0.6343125,3.895125 0.656625,3.8409375 0.70125,3.7995 C0.7395,3.754875 0.7905,3.7325625 0.8510625,3.7325625 C0.911625,3.7325625 0.962625,3.754875 1.00725,3.7995 C1.051875,3.844125 1.0741875,3.895125 1.0741875,3.9525 C1.0741875,4.009875 1.051875,4.0640625 1.00725,4.1055 C0.962625,4.150125 0.911625,4.1724375 0.8510625,4.1724375 C0.7905,4.1724375 0.7395,4.150125 0.70125,4.1055 C0.656625,4.0640625 0.6343125,4.0130625 0.6343125,3.9525 Z M0.6343125,0.8574375 C0.6343125,0.8000625 0.656625,0.745875 0.70125,0.7044375 C0.7395,0.6598125 0.7905,0.6375 0.8510625,0.6375 C0.911625,0.6375 0.962625,0.6598125 1.00725,0.7044375 C1.051875,0.7490625 1.0741875,0.8000625 1.0741875,0.8574375 C1.0741875,0.9148125 1.051875,0.969 1.00725,1.013625 C0.962625,1.05825 0.911625,1.0805625 0.8510625,1.0805625 C0.7905,1.0805625 0.7395,1.05825 0.70125,1.013625 C0.656625,0.969 0.6343125,0.9148125 0.6343125,0.8574375 Z M2.18025,4.59 C2.18025,4.532625 2.2025625,4.481625 2.2471875,4.4401875 C2.2918125,4.39875 2.3428125,4.3764375 2.4065625,4.3764375 C2.467125,4.3764375 2.518125,4.39875 2.5595625,4.4401875 C2.601,4.481625 2.6233125,4.532625 2.6233125,4.59 C2.6233125,4.6505625 2.601,4.70475 2.5595625,4.7461875 C2.518125,4.787625 2.467125,4.8099375 2.4065625,4.8099375 C2.346,4.8099375 2.2918125,4.787625 2.2471875,4.7461875 C2.2025625,4.70475 2.18025,4.65375 2.18025,4.59 Z M2.18025,0.2199375 C2.18025,0.159375 2.2025625,0.1051875 2.2471875,0.06375 C2.2918125,0.0223125 2.3428125,-1.0658141e-14 2.4065625,-1.0658141e-14 C2.467125,-1.0658141e-14 2.518125,0.0223125 2.5595625,0.06375 C2.601,0.1051875 2.6233125,0.159375 2.6233125,0.2199375 C2.6233125,0.2773125 2.601,0.3283125 2.5595625,0.36975 C2.518125,0.4111875 2.467125,0.4335 2.4065625,0.4335 C2.346,0.4335 2.2918125,0.4111875 2.2471875,0.36975 C2.2025625,0.3283125 2.18025,0.2773125 2.18025,0.2199375 Z M3.7325625,3.9525 C3.7325625,3.895125 3.754875,3.8409375 3.7995,3.7995 C3.83775,3.754875 3.88875,3.7325625 3.9493125,3.7325625 C4.009875,3.7325625 4.060875,3.754875 4.1055,3.7995 C4.150125,3.844125 4.1724375,3.895125 4.1724375,3.9525 C4.1724375,4.009875 4.150125,4.0640625 4.1055,4.1055 C4.060875,4.150125 4.009875,4.1724375 3.9493125,4.1724375 C3.88875,4.1724375 3.83775,4.150125 3.7995,4.1055 C3.754875,4.0640625 3.7325625,4.0130625 3.7325625,3.9525 Z M3.7325625,0.8574375 C3.7325625,0.8000625 3.754875,0.745875 3.7995,0.7044375 C3.83775,0.6598125 3.88875,0.6375 3.9493125,0.6375 C4.009875,0.6375 4.060875,0.6598125 4.1055,0.7044375 C4.150125,0.7490625 4.1724375,0.8000625 4.1724375,0.8574375 C4.1724375,0.9148125 4.150125,0.969 4.1055,1.013625 C4.060875,1.05825 4.009875,1.0805625 3.9493125,1.0805625 C3.88875,1.0805625 3.83775,1.05825 3.7995,1.013625 C3.754875,0.969 3.7325625,0.9148125 3.7325625,0.8574375 Z M4.3700625,2.40975 C4.3700625,2.3491875 4.392375,2.295 4.4338125,2.250375 C4.47525,2.20575 4.5294375,2.1834375 4.59,2.1834375 C4.647375,2.1834375 4.698375,2.20575 4.7398125,2.250375 C4.78125,2.295 4.8035625,2.346 4.8035625,2.40975 C4.8035625,2.467125 4.78125,2.518125 4.7398125,2.5595625 C4.698375,2.601 4.647375,2.6233125 4.59,2.6233125 C4.5294375,2.6233125 4.47525,2.601 4.4338125,2.5595625 C4.392375,2.518125 4.3700625,2.467125 4.3700625,2.40975 Z"
                  id="Shape"></path>
        </g>
    </g>
</svg>
