<?xml version="1.0" encoding="UTF-8"?>
<svg width="32px" height="32px" viewBox="0 0 32 32" version="1.1" xmlns="http://www.w3.org/2000/svg"
>
    <!-- Generator: Sketch 57.1 (83088) - https://sketch.com -->
    <title>182_night</title>
    <desc>Created with Sketch.</desc>
    <g id="182_night" stroke="none" stroke-width="1" fill="none" fill-rule="evenodd">
        <g id="wi-night-clear" transform="translate(15.000000, 4.000000)" fill="#888888" fill-rule="nonzero">
            <path d="M8.13178122,0.395761746 C8.29178122,0.435761746 8.36178122,0.535761746 8.36178122,0.675761746 L8.41178122,1.55576175 C8.45178122,2.82576175 8.90178122,3.90576175 9.78178122,4.79576175 C10.6617812,5.68576175 11.7217812,6.16576175 12.9717812,6.21576175 L13.7917812,6.28576175 C13.9517812,6.28576175 14.0317812,6.36576175 14.0317812,6.51576175 L14.0317812,7.49576175 C14.0417812,8.77576175 13.7317812,9.96576175 13.1017812,11.0557617 C12.4717812,12.1457617 11.6217812,13.0057617 10.5317812,13.6457617 C10.0466965,13.9287278 9.53942055,14.1491552 9.01176567,14.3061376 L7.60207617,12.7964884 C7.98675561,12.7461238 8.37426842,12.6468261 8.76178122,12.4957617 C9.35178122,12.2657617 9.90178122,11.9457617 10.4117812,11.5357617 C10.9217812,11.1257617 11.3517812,10.6057617 11.7217812,9.96576175 C12.0917812,9.32576175 12.3217812,8.63576175 12.4317812,7.87576175 C10.8017812,7.53576175 9.49178122,6.83576175 8.51178122,5.77576175 C7.53178122,4.71576175 6.96178122,3.47576175 6.81178122,2.03576175 C5.85178122,2.09576175 4.99178122,2.38576175 4.20178122,2.91576175 C3.42178122,3.44576175 2.81178122,4.11576175 2.38178122,4.93576175 C2.10112854,5.47095988 1.90993419,6.01893778 1.81097853,6.5824758 L0.357848848,5.0230178 C0.391220903,4.92360273 0.425865029,4.83118405 0.461781224,4.74576175 C0.831781224,3.86576175 1.34178122,3.11576175 1.97178122,2.48576175 C2.60178122,1.85576175 3.36178122,1.34576175 4.24178122,0.965761746 C5.12178122,0.585761746 6.04178122,0.395761746 6.99178122,0.395761746 L8.13178122,0.395761746 Z"
                  id="Shape"
                  transform="translate(7.194932, 7.350950) rotate(-3.000000) translate(-7.194932, -7.350950) "></path>
        </g>
        <g id="wi-cloud-down" transform="translate(1.000000, 8.163201)" fill="#194D9B" fill-rule="nonzero">
            <path d="M0.68442,11.08536 C0.68442,12.58884 1.21176,13.86792 2.25522,14.94504 C3.29868,16.02216 4.57776,16.59438 6.07002,16.6617 C6.19344,16.6617 6.26076,16.59438 6.26076,16.47096 L6.26076,14.96748 C6.26076,14.83284 6.19344,14.76552 6.07002,14.76552 C5.1051,14.72064 4.28604,14.33916 3.61284,13.62108 C2.93964,12.903 2.60304,12.0615 2.60304,11.08536 C2.60304,10.1541 2.9172,9.34626 3.55674,8.65062 C4.19628,7.95498 4.98168,7.56228 5.91294,7.45008 L6.5076,7.4052 C6.65346,7.4052 6.732,7.33788 6.732,7.21446 L6.82176,6.59736 C6.93396,5.3856 7.43886,4.36458 8.34768,3.55674 C9.2565,2.73768 10.3224,2.33376 11.5566,2.33376 C12.77958,2.33376 13.84548,2.73768 14.76552,3.55674 C15.68556,4.3758 16.20168,5.3856 16.33632,6.59736 L16.41486,7.24812 C16.41486,7.37154 16.48218,7.43886 16.6056,7.43886 L18.42324,7.43886 C19.42182,7.43886 20.28576,7.7979 21.01506,8.5272 C21.74436,9.24528 22.11462,10.098 22.11462,11.08536 C22.11462,12.0615 21.77802,12.903 21.0936,13.62108 C20.40918,14.33916 19.59012,14.72064 18.63642,14.76552 C18.49056,14.76552 18.42324,14.83284 18.42324,14.96748 L18.42324,16.47096 C18.42324,16.59438 18.49056,16.6617 18.63642,16.6617 C19.62378,16.63926 20.52138,16.36998 21.34044,15.85386 C22.1595,15.34896 22.81026,14.67576 23.2815,13.83426 C23.75274,12.99276 23.98836,12.07272 23.98836,11.08536 C23.98836,10.07556 23.74152,9.1443 23.23662,8.3028 C22.74294,7.45008 22.05852,6.7881 21.2058,6.29442 C20.35308,5.80074 19.42182,5.56512 18.41202,5.56512 L18.04176,5.56512 C17.6715,4.06164 16.8861,2.83866 15.68556,1.87374 C14.48502,0.90882 13.09374,0.43758 11.54538,0.43758 C9.96336,0.43758 8.54964,0.93126 7.32666,1.9074 C6.10368,2.88354 5.30706,4.1514 4.95924,5.68854 C3.72504,5.98026 2.70402,6.63102 1.89618,7.64082 C1.08834,8.65062 0.68442,9.79506 0.68442,11.08536 Z"
                  id="Shape"></path>
        </g>
        <g id="wi-day-sprinkle" transform="translate(8.000000, 23.000000)" fill="#194D9B" fill-rule="nonzero">
            <path d="M0.45,3.73 C0.45,4.39 0.68,4.94 1.13,5.38 C1.58,5.82 2.13,6.05 2.78,6.05 C3.43,6.05 3.98,5.82 4.44,5.37 C4.9,4.91 5.12,4.37 5.12,3.73 C5.12,3.19 4.85,2.54 4.31,1.76 C3.85,1.15 3.42,0.66 3.03,0.27 C2.95,0.21 2.86,0.14 2.77,0.04 L2.54,0.27 C2.18,0.59 1.76,1.09 1.27,1.74 C0.73,2.5 0.45,3.16 0.45,3.73 Z"
                  id="Shape"></path>
        </g>
        <g id="wi-day-sprinkle" transform="translate(15.000000, 25.000000)" fill="#888888" fill-rule="nonzero">
            <path d="M0.225,1.865 C0.225,2.195 0.34,2.47 0.565,2.69 C0.79,2.91 1.065,3.025 1.39,3.025 C1.715,3.025 1.99,2.91 2.22,2.685 C2.45,2.455 2.56,2.185 2.56,1.865 C2.56,1.595 2.425,1.27 2.155,0.88 C1.925,0.575 1.71,0.33 1.515,0.135 C1.475,0.105 1.43,0.07 1.385,0.02 L1.27,0.135 C1.09,0.295 0.88,0.545 0.635,0.87 C0.365,1.25 0.225,1.58 0.225,1.865 Z"
                  id="Shape"></path>
        </g>
        <g id="wi-snowflake-cold" transform="translate(11.000000, 16.423617)" fill="#888888" fill-rule="nonzero">
            <path d="M2.30926389e-14,3.37365 C2.30926389e-14,3.2888625 0.0312375,3.213 0.08925,3.150525 C0.1472625,3.08805 0.2186625,3.0568125 0.30345,3.0568125 C0.3882375,3.0568125 0.4641,3.08805 0.5221125,3.150525 C0.580125,3.213 0.6113625,3.2844 0.6113625,3.37365 C0.6113625,3.4584375 0.580125,3.5298375 0.5221125,3.58785 C0.4641,3.6458625 0.3882375,3.6771 0.3079125,3.6771 C0.2275875,3.6771 0.151725,3.6458625 0.0937125,3.58785 C0.026775,3.525375 2.30926389e-14,3.453975 2.30926389e-14,3.37365 Z M0.883575,3.37365 C0.883575,3.2888625 0.9148125,3.213 0.972825,3.150525 C1.0308375,3.08805 1.1022375,3.0568125 1.187025,3.0568125 L2.6284125,3.0568125 L1.6109625,2.0393625 C1.5484875,1.9858125 1.51725,1.9144125 1.51725,1.829625 C1.51725,1.7448375 1.5484875,1.6734375 1.6109625,1.6109625 C1.6734375,1.5484875 1.7448375,1.51725 1.829625,1.51725 C1.9144125,1.51725 1.9858125,1.5484875 2.0482875,1.6109625 L3.061275,2.62395 L3.061275,1.1914875 C3.061275,1.1067 3.0925125,1.0308375 3.1549875,0.9683625 C3.2174625,0.9058875 3.2888625,0.87465 3.3781125,0.87465 C3.4629,0.87465 3.5343,0.9058875 3.5923125,0.9683625 C3.650325,1.0308375 3.6815625,1.1022375 3.6815625,1.1914875 L3.6815625,2.632875 L4.703475,1.6065 C4.76595,1.544025 4.83735,1.5127875 4.917675,1.5127875 C4.998,1.5127875 5.0738625,1.544025 5.1363375,1.6065 C5.1898875,1.668975 5.2166625,1.740375 5.2166625,1.8251625 C5.2166625,1.90995 5.1898875,1.98135 5.1363375,2.0349 L4.1188875,3.05235 L5.560275,3.05235 C5.6406,3.05235 5.712,3.0835875 5.7700125,3.1460625 C5.828025,3.2085375 5.8592625,3.2799375 5.8592625,3.3691875 C5.8592625,3.4495125 5.828025,3.5209125 5.7700125,3.578925 C5.712,3.6369375 5.6406,3.668175 5.560275,3.668175 L4.1188875,3.668175 L5.1408,4.6900875 C5.19435,4.7436375 5.221125,4.8150375 5.221125,4.899825 C5.221125,4.9846125 5.19435,5.0560125 5.1408,5.1184875 C5.078325,5.1809625 5.0024625,5.2122 4.9221375,5.2122 C4.8418125,5.2122 4.76595,5.1809625 4.7079375,5.1184875 L3.686025,4.0921125 L3.686025,5.5379625 C3.686025,5.62275 3.6547875,5.6986125 3.596775,5.756625 C3.5387625,5.8146375 3.4673625,5.845875 3.382575,5.845875 C3.2977875,5.845875 3.221925,5.8146375 3.15945,5.756625 C3.096975,5.6986125 3.0657375,5.62275 3.0657375,5.5379625 L3.0657375,4.1010375 L2.05275,5.114025 C1.990275,5.1765 1.918875,5.2077375 1.8340875,5.2077375 C1.7493,5.2077375 1.6779,5.1765 1.615425,5.114025 C1.55295,5.05155 1.5217125,4.98015 1.5217125,4.8953625 C1.5217125,4.810575 1.55295,4.7436375 1.615425,4.685625 L2.6418,3.6637125 L1.19595,3.6637125 C1.1111625,3.6637125 1.0397625,3.632475 0.98175,3.5744625 C0.91035,3.525375 0.883575,3.453975 0.883575,3.37365 Z M0.8880375,5.5335 C0.8880375,5.453175 0.919275,5.3773125 0.98175,5.3193 C1.0353,5.256825 1.1067,5.2255875 1.1914875,5.2255875 C1.276275,5.2255875 1.347675,5.256825 1.41015,5.3193 C1.472625,5.381775 1.5038625,5.453175 1.5038625,5.5335 C1.5038625,5.613825 1.472625,5.6896875 1.41015,5.7477 C1.347675,5.810175 1.276275,5.8414125 1.1914875,5.8414125 C1.1067,5.8414125 1.0353,5.810175 0.98175,5.7477 C0.919275,5.6896875 0.8880375,5.6182875 0.8880375,5.5335 Z M0.8880375,1.2004125 C0.8880375,1.1200875 0.919275,1.044225 0.98175,0.9862125 C1.0353,0.9237375 1.1067,0.8925 1.1914875,0.8925 C1.276275,0.8925 1.347675,0.9237375 1.41015,0.9862125 C1.472625,1.0486875 1.5038625,1.1200875 1.5038625,1.2004125 C1.5038625,1.2807375 1.472625,1.3566 1.41015,1.419075 C1.347675,1.48155 1.276275,1.5127875 1.1914875,1.5127875 C1.1067,1.5127875 1.0353,1.48155 0.98175,1.419075 C0.919275,1.3566 0.8880375,1.2807375 0.8880375,1.2004125 Z M3.05235,6.426 C3.05235,6.345675 3.0835875,6.274275 3.1460625,6.2162625 C3.2085375,6.15825 3.2799375,6.1270125 3.3691875,6.1270125 C3.453975,6.1270125 3.525375,6.15825 3.5833875,6.2162625 C3.6414,6.274275 3.6726375,6.345675 3.6726375,6.426 C3.6726375,6.5107875 3.6414,6.58665 3.5833875,6.6446625 C3.525375,6.702675 3.453975,6.7339125 3.3691875,6.7339125 C3.2844,6.7339125 3.2085375,6.702675 3.1460625,6.6446625 C3.0835875,6.58665 3.05235,6.51525 3.05235,6.426 Z M3.05235,0.3079125 C3.05235,0.223125 3.0835875,0.1472625 3.1460625,0.08925 C3.2085375,0.0312375 3.2799375,-1.0658141e-14 3.3691875,-1.0658141e-14 C3.453975,-1.0658141e-14 3.525375,0.0312375 3.5833875,0.08925 C3.6414,0.1472625 3.6726375,0.223125 3.6726375,0.3079125 C3.6726375,0.3882375 3.6414,0.4596375 3.5833875,0.51765 C3.525375,0.5756625 3.453975,0.6069 3.3691875,0.6069 C3.2844,0.6069 3.2085375,0.5756625 3.1460625,0.51765 C3.0835875,0.4596375 3.05235,0.3882375 3.05235,0.3079125 Z M5.2255875,5.5335 C5.2255875,5.453175 5.256825,5.3773125 5.3193,5.3193 C5.37285,5.256825 5.44425,5.2255875 5.5290375,5.2255875 C5.613825,5.2255875 5.685225,5.256825 5.7477,5.3193 C5.810175,5.381775 5.8414125,5.453175 5.8414125,5.5335 C5.8414125,5.613825 5.810175,5.6896875 5.7477,5.7477 C5.685225,5.810175 5.613825,5.8414125 5.5290375,5.8414125 C5.44425,5.8414125 5.37285,5.810175 5.3193,5.7477 C5.256825,5.6896875 5.2255875,5.6182875 5.2255875,5.5335 Z M5.2255875,1.2004125 C5.2255875,1.1200875 5.256825,1.044225 5.3193,0.9862125 C5.37285,0.9237375 5.44425,0.8925 5.5290375,0.8925 C5.613825,0.8925 5.685225,0.9237375 5.7477,0.9862125 C5.810175,1.0486875 5.8414125,1.1200875 5.8414125,1.2004125 C5.8414125,1.2807375 5.810175,1.3566 5.7477,1.419075 C5.685225,1.48155 5.613825,1.5127875 5.5290375,1.5127875 C5.44425,1.5127875 5.37285,1.48155 5.3193,1.419075 C5.256825,1.3566 5.2255875,1.2807375 5.2255875,1.2004125 Z M6.1180875,3.37365 C6.1180875,3.2888625 6.149325,3.213 6.2073375,3.150525 C6.26535,3.08805 6.3412125,3.0568125 6.426,3.0568125 C6.506325,3.0568125 6.577725,3.08805 6.6357375,3.150525 C6.69375,3.213 6.7249875,3.2844 6.7249875,3.37365 C6.7249875,3.453975 6.69375,3.525375 6.6357375,3.5833875 C6.577725,3.6414 6.506325,3.6726375 6.426,3.6726375 C6.3412125,3.6726375 6.26535,3.6414 6.2073375,3.5833875 C6.149325,3.525375 6.1180875,3.453975 6.1180875,3.37365 Z"
                  id="Shape"></path>
        </g>
    </g>
</svg>
