<?xml version="1.0" encoding="UTF-8"?>
<svg width="32px" height="32px" viewBox="0 0 32 32" version="1.1" xmlns="http://www.w3.org/2000/svg"
>
    <!-- Generator: Sketch 57.1 (83088) - https://sketch.com -->
    <title>227_day</title>
    <desc>Created with Sketch.</desc>
    <g id="227_day" stroke="none" stroke-width="1" fill="none" fill-rule="evenodd">
        <g id="wi-horizon-alt"
           transform="translate(22.000000, 9.463617) rotate(40.000000) translate(-22.000000, -9.463617) translate(11.000000, 2.423617)"
           fill="#F7B500" fill-rule="nonzero">
            <path d="M0.1086096,10.762224 C0.1086096,10.5055104 0.197472,10.2981648 0.3751968,10.1500608 C0.5134272,10.0019568 0.7207728,9.922968 0.98736,9.922968 L3.0410688,9.922968 C3.2780352,9.922968 3.4853808,10.0019568 3.6334848,10.1599344 C3.7914624,10.317912 3.8704512,10.515384 3.8704512,10.7523504 C3.8704512,10.9893168 3.7914624,11.1867888 3.6334848,11.35464 C3.4755072,11.5224912 3.2780352,11.60148 3.0410688,11.60148 L0.98736,11.60148 C0.7503936,11.60148 0.543048,11.5224912 0.3653232,11.35464 C0.1875984,11.1966624 0.1086096,10.9991904 0.1086096,10.762224 Z M3.0410688,3.7618416 C3.0410688,3.505128 3.1200576,3.3175296 3.2681616,3.1792992 C3.4360128,3.0015744 3.6433584,2.912712 3.8803248,2.912712 C4.1172912,2.912712 4.3147632,3.0015744 4.4826144,3.1792992 L5.9044128,4.6208448 C6.0821376,4.7788224 6.1611264,4.9762944 6.1611264,5.2132608 C6.1611264,5.4601008 6.0821376,5.6575728 5.92416,5.8155504 C5.7661824,5.973528 5.5687104,6.0525168 5.331744,6.0525168 C5.1145248,6.0525168 4.9170528,5.973528 4.739328,5.8155504 L3.2681616,4.3641312 C3.1200576,4.2259008 3.0410688,4.0284288 3.0410688,3.7618416 Z M5.6082048,10.762224 C5.6082048,11.6212272 5.7859296,12.391368 6.1315056,13.0627728 C6.1611264,13.1516352 6.2401152,13.2010032 6.368472,13.2010032 L8.0173632,13.2010032 C8.0864784,13.2010032 8.1358464,13.181256 8.1555936,13.1417616 C8.1753408,13.1022672 8.14572,13.0430256 8.0864784,12.983784 C7.5631776,12.342 7.2965904,11.60148 7.2965904,10.762224 C7.2965904,9.7847376 7.65204,8.9454816 8.3530656,8.2543296 C9.0540912,7.5631776 9.8933472,7.2176016 10.8708336,7.2176016 C11.84832,7.2176016 12.687576,7.5631776 13.3886016,8.2543296 C14.0896272,8.9454816 14.4253296,9.7847376 14.4253296,10.762224 C14.4253296,11.6113536 14.1587424,12.3518736 13.6354416,12.983784 C13.5959472,13.0430256 13.5762,13.08252 13.5762,13.1022672 C13.5663264,13.131888 13.5762,13.1615088 13.6058208,13.1713824 C13.625568,13.1911296 13.6650624,13.2010032 13.7045568,13.2010032 L15.3830688,13.2010032 C15.4719312,13.2010032 15.5410464,13.1516352 15.5904144,13.0627728 C15.9656112,12.3617472 16.143336,11.60148 16.143336,10.762224 C16.143336,9.8143584 15.9063696,8.935608 15.4324368,8.1259728 C14.958504,7.3163376 14.31672,6.6745536 13.5070848,6.2006208 C12.6974496,5.726688 11.8186992,5.4897216 10.8708336,5.4897216 C9.922968,5.4897216 9.0442176,5.726688 8.2345824,6.2006208 C7.4249472,6.6745536 6.7831632,7.3163376 6.3092304,8.1259728 C5.8352976,8.935608 5.6082048,9.8143584 5.6082048,10.762224 Z M10.021704,2.9324592 L10.021704,0.8688768 C10.021704,0.6319104 10.1006928,0.4344384 10.268544,0.2567136 C10.4363952,0.0789888 10.6338672,0 10.8708336,0 C11.1078,0 11.305272,0.0888624 11.4829968,0.2567136 C11.650848,0.4245648 11.7397104,0.6319104 11.7397104,0.8688768 L11.7397104,2.9324592 C11.7397104,3.1694256 11.650848,3.3668976 11.4829968,3.5446224 C11.305272,3.7223472 11.1078,3.801336 10.8708336,3.801336 C10.6338672,3.801336 10.4363952,3.7124736 10.268544,3.5446224 C10.1006928,3.3668976 10.021704,3.1694256 10.021704,2.9324592 Z M15.5706672,5.2132608 C15.5706672,4.9762944 15.649656,4.7788224 15.8076336,4.6208448 L17.229432,3.1792992 C17.3972832,3.0015744 17.6046288,2.912712 17.8415952,2.912712 C18.0884352,2.912712 18.2957808,2.9917008 18.4537584,3.159552 C18.6216096,3.3274032 18.7005984,3.5248752 18.7005984,3.7618416 C18.7005984,4.0185552 18.6216096,4.2160272 18.4735056,4.3641312 L16.982592,5.8155504 C16.8246144,5.9636544 16.6271424,6.0327696 16.4000496,6.0327696 C16.1532096,6.0426432 15.9557376,5.9636544 15.79776,5.8155504 C15.649656,5.6674464 15.5706672,5.4601008 15.5706672,5.2132608 Z M17.871216,10.762224 C17.871216,10.4956368 17.9502048,10.2981648 18.1081824,10.1500608 C18.2464128,10.0019568 18.4438848,9.922968 18.6907248,9.922968 L20.7543072,9.922968 C20.9912736,9.922968 21.1986192,10.0019568 21.3664704,10.1599344 C21.5343216,10.317912 21.623184,10.515384 21.623184,10.7523504 C21.623184,10.9893168 21.5343216,11.1867888 21.3664704,11.35464 C21.1887456,11.5224912 20.9912736,11.60148 20.7543072,11.60148 L18.6907248,11.60148 C18.463632,11.60148 18.26616,11.5224912 18.1081824,11.35464 C17.9502048,11.1966624 17.871216,10.9991904 17.871216,10.762224 Z"
                  id="Shape"></path>
        </g>
        <g id="wi-day-cloudy-gusts" transform="translate(1.000000, 16.000000)" fill="#F7B500" fill-rule="nonzero">
            <path d="M0.303333333,4.33333333 C0.303333333,4.524 0.381333333,4.68866667 0.537333333,4.82733333 C0.684666667,4.97466667 0.858,5.044 1.066,5.044 L10.5733333,5.044 C11.2146667,5.044 11.7606667,4.81866667 12.2113333,4.368 C12.662,3.91733333 12.8873333,3.37133333 12.8873333,2.73 C12.8873333,2.08866667 12.662,1.55133333 12.2113333,1.10066667 C11.7606667,0.658666667 11.2146667,0.433333333 10.5733333,0.433333333 C9.91466667,0.433333333 9.37733333,0.65 8.944,1.092 C8.80533333,1.23066667 8.74466667,1.41266667 8.74466667,1.62066667 C8.74466667,1.82866667 8.814,2.002 8.944,2.14066667 C9.074,2.27066667 9.24733333,2.34 9.464,2.34 C9.672,2.34 9.84533333,2.27066667 10.0013333,2.14066667 C10.166,1.976 10.3566667,1.898 10.582,1.898 C10.8073333,1.898 11.0066667,1.976 11.1713333,2.14066667 C11.336,2.30533333 11.4226667,2.50466667 11.4226667,2.73 C11.4226667,2.964 11.336,3.16333333 11.1713333,3.328 C11.0066667,3.49266667 10.8073333,3.57933333 10.582,3.57933333 L1.066,3.57933333 C0.858,3.57933333 0.684666667,3.65733333 0.528666667,3.80466667 C0.372666667,3.96066667 0.303333333,4.134 0.303333333,4.33333333 Z"
                  id="Shape"></path>
        </g>
        <path d="M11.4594676,10 C13.0078276,10 14.3991076,10.47124 15.5996476,11.43616 C16.8001876,12.40108 17.5855876,13.62406 17.9558476,15.12754 L17.9558476,15.12754 L18.3261076,15.12754 C19.3359076,15.12754 20.2671676,15.36316 21.1198876,15.85684 C21.9726076,16.35052 22.6570276,17.0125 23.1507076,17.86522 C23.6556076,18.70672 23.9024476,19.63798 23.9024476,20.64778 C23.9024476,21.63514 23.6668276,22.55518 23.1955876,23.39668 C22.7243476,24.23818 22.0735876,24.91138 21.2545276,25.41628 C20.4354676,25.9324 19.5378676,26.20168 18.5505076,26.22412 C18.4046476,26.22412 11.4706876,26.1568 11.4706876,26.03338 L11.4706876,26.03338 L11.4594676,24.32794 C11.4594676,24.1933 18.4046476,24.32794 18.5505076,24.32794 C19.5042076,24.28306 20.3232676,23.90158 21.0076876,23.1835 C21.6921076,22.46542 22.0287076,21.62392 22.0287076,20.64778 C22.0287076,19.66042 21.6584476,18.8077 20.9291476,18.08962 C20.1998476,17.36032 19.3359076,17.00128 18.3373276,17.00128 L18.3373276,17.00128 L16.5196876,17.00128 C16.3962676,17.00128 16.3289476,16.93396 16.3289476,16.81054 L16.3289476,16.81054 L16.2504076,16.15978 C16.1157676,14.94802 15.5996476,13.93822 14.6796076,13.11916 C13.7595676,12.3001 12.6936676,11.89618 11.4706876,11.89618 C10.2364876,11.89618 9.17058762,12.3001 8.26176762,13.11916 C7.35294762,13.927 6.84804762,14.94802 6.73584762,16.15978 L6.73584762,16.15978 L6.64608762,16.77688 C6.64608762,16.9003 6.56754762,16.96762 6.42168762,16.96762 L6.42168762,16.96762 L5.82702762,17.0125 C4.89576762,17.1247 4.11036762,17.5174 3.47082762,18.21304 C3.3665932,18.3264178 3.27100205,18.442776 3.18400558,18.5621633 L1,18.5624844 C1.19734136,18.0845819 1.46743056,17.6317863 1.81026762,17.20324 C2.61810762,16.19344 3.63912762,15.54268 4.87332762,15.25096 C5.22114762,13.71382 6.01776762,12.44596 7.24074762,11.46982 C8.46372762,10.49368 9.87744762,10 11.4594676,10 Z"
              id="Combined-Shape" fill="#57A0EE" fill-rule="nonzero"></path>
        <g id="wi-snowflake-cold" transform="translate(2.000000, 22.000000)" fill="#57A0EE" fill-rule="nonzero">
            <path d="M2.30926389e-14,3.8556 C2.30926389e-14,3.7587 0.0357,3.672 0.102,3.6006 C0.1683,3.5292 0.2499,3.4935 0.3468,3.4935 C0.4437,3.4935 0.5304,3.5292 0.5967,3.6006 C0.663,3.672 0.6987,3.7536 0.6987,3.8556 C0.6987,3.9525 0.663,4.0341 0.5967,4.1004 C0.5304,4.1667 0.4437,4.2024 0.3519,4.2024 C0.2601,4.2024 0.1734,4.1667 0.1071,4.1004 C0.0306,4.029 2.30926389e-14,3.9474 2.30926389e-14,3.8556 Z M1.0098,3.8556 C1.0098,3.7587 1.0455,3.672 1.1118,3.6006 C1.1781,3.5292 1.2597,3.4935 1.3566,3.4935 L3.0039,3.4935 L1.8411,2.3307 C1.7697,2.2695 1.734,2.1879 1.734,2.091 C1.734,1.9941 1.7697,1.9125 1.8411,1.8411 C1.9125,1.7697 1.9941,1.734 2.091,1.734 C2.1879,1.734 2.2695,1.7697 2.3409,1.8411 L3.4986,2.9988 L3.4986,1.3617 C3.4986,1.2648 3.5343,1.1781 3.6057,1.1067 C3.6771,1.0353 3.7587,0.9996 3.8607,0.9996 C3.9576,0.9996 4.0392,1.0353 4.1055,1.1067 C4.1718,1.1781 4.2075,1.2597 4.2075,1.3617 L4.2075,3.009 L5.3754,1.836 C5.4468,1.7646 5.5284,1.7289 5.6202,1.7289 C5.712,1.7289 5.7987,1.7646 5.8701,1.836 C5.9313,1.9074 5.9619,1.989 5.9619,2.0859 C5.9619,2.1828 5.9313,2.2644 5.8701,2.3256 L4.7073,3.4884 L6.3546,3.4884 C6.4464,3.4884 6.528,3.5241 6.5943,3.5955 C6.6606,3.6669 6.6963,3.7485 6.6963,3.8505 C6.6963,3.9423 6.6606,4.0239 6.5943,4.0902 C6.528,4.1565 6.4464,4.1922 6.3546,4.1922 L4.7073,4.1922 L5.8752,5.3601 C5.9364,5.4213 5.967,5.5029 5.967,5.5998 C5.967,5.6967 5.9364,5.7783 5.8752,5.8497 C5.8038,5.9211 5.7171,5.9568 5.6253,5.9568 C5.5335,5.9568 5.4468,5.9211 5.3805,5.8497 L4.2126,4.6767 L4.2126,6.3291 C4.2126,6.426 4.1769,6.5127 4.1106,6.579 C4.0443,6.6453 3.9627,6.681 3.8658,6.681 C3.7689,6.681 3.6822,6.6453 3.6108,6.579 C3.5394,6.5127 3.5037,6.426 3.5037,6.3291 L3.5037,4.6869 L2.346,5.8446 C2.2746,5.916 2.193,5.9517 2.0961,5.9517 C1.9992,5.9517 1.9176,5.916 1.8462,5.8446 C1.7748,5.7732 1.7391,5.6916 1.7391,5.5947 C1.7391,5.4978 1.7748,5.4213 1.8462,5.355 L3.0192,4.1871 L1.3668,4.1871 C1.2699,4.1871 1.1883,4.1514 1.122,4.0851 C1.0404,4.029 1.0098,3.9474 1.0098,3.8556 Z M1.0149,6.324 C1.0149,6.2322 1.0506,6.1455 1.122,6.0792 C1.1832,6.0078 1.2648,5.9721 1.3617,5.9721 C1.4586,5.9721 1.5402,6.0078 1.6116,6.0792 C1.683,6.1506 1.7187,6.2322 1.7187,6.324 C1.7187,6.4158 1.683,6.5025 1.6116,6.5688 C1.5402,6.6402 1.4586,6.6759 1.3617,6.6759 C1.2648,6.6759 1.1832,6.6402 1.122,6.5688 C1.0506,6.5025 1.0149,6.4209 1.0149,6.324 Z M1.0149,1.3719 C1.0149,1.2801 1.0506,1.1934 1.122,1.1271 C1.1832,1.0557 1.2648,1.02 1.3617,1.02 C1.4586,1.02 1.5402,1.0557 1.6116,1.1271 C1.683,1.1985 1.7187,1.2801 1.7187,1.3719 C1.7187,1.4637 1.683,1.5504 1.6116,1.6218 C1.5402,1.6932 1.4586,1.7289 1.3617,1.7289 C1.2648,1.7289 1.1832,1.6932 1.122,1.6218 C1.0506,1.5504 1.0149,1.4637 1.0149,1.3719 Z M3.4884,7.344 C3.4884,7.2522 3.5241,7.1706 3.5955,7.1043 C3.6669,7.038 3.7485,7.0023 3.8505,7.0023 C3.9474,7.0023 4.029,7.038 4.0953,7.1043 C4.1616,7.1706 4.1973,7.2522 4.1973,7.344 C4.1973,7.4409 4.1616,7.5276 4.0953,7.5939 C4.029,7.6602 3.9474,7.6959 3.8505,7.6959 C3.7536,7.6959 3.6669,7.6602 3.5955,7.5939 C3.5241,7.5276 3.4884,7.446 3.4884,7.344 Z M3.4884,0.3519 C3.4884,0.255 3.5241,0.1683 3.5955,0.102 C3.6669,0.0357 3.7485,-1.0658141e-14 3.8505,-1.0658141e-14 C3.9474,-1.0658141e-14 4.029,0.0357 4.0953,0.102 C4.1616,0.1683 4.1973,0.255 4.1973,0.3519 C4.1973,0.4437 4.1616,0.5253 4.0953,0.5916 C4.029,0.6579 3.9474,0.6936 3.8505,0.6936 C3.7536,0.6936 3.6669,0.6579 3.5955,0.5916 C3.5241,0.5253 3.4884,0.4437 3.4884,0.3519 Z M5.9721,6.324 C5.9721,6.2322 6.0078,6.1455 6.0792,6.0792 C6.1404,6.0078 6.222,5.9721 6.3189,5.9721 C6.4158,5.9721 6.4974,6.0078 6.5688,6.0792 C6.6402,6.1506 6.6759,6.2322 6.6759,6.324 C6.6759,6.4158 6.6402,6.5025 6.5688,6.5688 C6.4974,6.6402 6.4158,6.6759 6.3189,6.6759 C6.222,6.6759 6.1404,6.6402 6.0792,6.5688 C6.0078,6.5025 5.9721,6.4209 5.9721,6.324 Z M5.9721,1.3719 C5.9721,1.2801 6.0078,1.1934 6.0792,1.1271 C6.1404,1.0557 6.222,1.02 6.3189,1.02 C6.4158,1.02 6.4974,1.0557 6.5688,1.1271 C6.6402,1.1985 6.6759,1.2801 6.6759,1.3719 C6.6759,1.4637 6.6402,1.5504 6.5688,1.6218 C6.4974,1.6932 6.4158,1.7289 6.3189,1.7289 C6.222,1.7289 6.1404,1.6932 6.0792,1.6218 C6.0078,1.5504 5.9721,1.4637 5.9721,1.3719 Z M6.9921,3.8556 C6.9921,3.7587 7.0278,3.672 7.0941,3.6006 C7.1604,3.5292 7.2471,3.4935 7.344,3.4935 C7.4358,3.4935 7.5174,3.5292 7.5837,3.6006 C7.65,3.672 7.6857,3.7536 7.6857,3.8556 C7.6857,3.9474 7.65,4.029 7.5837,4.0953 C7.5174,4.1616 7.4358,4.1973 7.344,4.1973 C7.2471,4.1973 7.1604,4.1616 7.0941,4.0953 C7.0278,4.029 6.9921,3.9474 6.9921,3.8556 Z"
                  id="Shape"></path>
        </g>
    </g>
</svg>
