<?xml version="1.0" encoding="UTF-8"?>
<svg width="32px" height="32px" viewBox="0 0 32 32" version="1.1" xmlns="http://www.w3.org/2000/svg"
>
    <!-- Generator: Sketch 57.1 (83088) - https://sketch.com -->
    <title>227_night</title>
    <desc>Created with Sketch.</desc>
    <g id="227_night" stroke="none" stroke-width="1" fill="none" fill-rule="evenodd">
        <g id="wi-night-clear"
           transform="translate(22.500000, 11.500000) rotate(-3.000000) translate(-22.500000, -11.500000) translate(15.000000, 4.000000)"
           fill="#888888" fill-rule="nonzero">
            <path d="M8.14,0.38 C8.3,0.42 8.37,0.52 8.37,0.66 L8.42,1.54 C8.46,2.81 8.91,3.89 9.79,4.78 C10.67,5.67 11.73,6.15 12.98,6.2 L13.8,6.27 C13.96,6.27 14.04,6.35 14.04,6.5 L14.04,7.48 C14.05,8.76 13.74,9.95 13.11,11.04 C12.48,12.13 11.63,12.99 10.54,13.63 C10.0549153,13.9129661 9.54763933,14.1333934 9.01998444,14.2903758 L7.61029494,12.7807266 C7.99497439,12.7303621 8.38248719,12.6310643 8.77,12.48 C9.36,12.25 9.91,11.93 10.42,11.52 C10.93,11.11 11.36,10.59 11.73,9.95 C12.1,9.31 12.33,8.62 12.44,7.86 C10.81,7.52 9.5,6.82 8.52,5.76 C7.54,4.7 6.97,3.46 6.82,2.02 C5.86,2.08 5,2.37 4.21,2.9 C3.43,3.43 2.82,4.1 2.39,4.92 C2.10934732,5.45519814 1.91815297,6.00317603 1.81919731,6.56671406 L0.366067624,5.00725606 C0.39943968,4.90784099 0.434083805,4.8154223 0.47,4.73 C0.84,3.85 1.35,3.1 1.98,2.47 C2.61,1.84 3.37,1.33 4.25,0.95 C5.13,0.57 6.05,0.38 7,0.38 L8.14,0.38 Z"
                  id="Shape"></path>
        </g>
        <g id="wi-day-cloudy-gusts" transform="translate(2.000000, 15.000000)" fill="#888888" fill-rule="nonzero">
            <path d="M0.303333333,4.33333333 C0.303333333,4.524 0.381333333,4.68866667 0.537333333,4.82733333 C0.684666667,4.97466667 0.858,5.044 1.066,5.044 L10.5733333,5.044 C11.2146667,5.044 11.7606667,4.81866667 12.2113333,4.368 C12.662,3.91733333 12.8873333,3.37133333 12.8873333,2.73 C12.8873333,2.08866667 12.662,1.55133333 12.2113333,1.10066667 C11.7606667,0.658666667 11.2146667,0.433333333 10.5733333,0.433333333 C9.91466667,0.433333333 9.37733333,0.65 8.944,1.092 C8.80533333,1.23066667 8.74466667,1.41266667 8.74466667,1.62066667 C8.74466667,1.82866667 8.814,2.002 8.944,2.14066667 C9.074,2.27066667 9.24733333,2.34 9.464,2.34 C9.672,2.34 9.84533333,2.27066667 10.0013333,2.14066667 C10.166,1.976 10.3566667,1.898 10.582,1.898 C10.8073333,1.898 11.0066667,1.976 11.1713333,2.14066667 C11.336,2.30533333 11.4226667,2.50466667 11.4226667,2.73 C11.4226667,2.964 11.336,3.16333333 11.1713333,3.328 C11.0066667,3.49266667 10.8073333,3.57933333 10.582,3.57933333 L1.066,3.57933333 C0.858,3.57933333 0.684666667,3.65733333 0.528666667,3.80466667 C0.372666667,3.96066667 0.303333333,4.134 0.303333333,4.33333333 Z"
                  id="Shape"></path>
        </g>
        <path d="M12.4594676,8 C14.0078276,8 15.3991076,8.47124 16.5996476,9.43616 C17.8001876,10.40108 18.5855876,11.62406 18.9558476,13.12754 L18.9558476,13.12754 L19.3261076,13.12754 C20.3359076,13.12754 21.2671676,13.36316 22.1198876,13.85684 C22.9726076,14.35052 23.6570276,15.0125 24.1507076,15.86522 C24.6556076,16.70672 24.9024476,17.63798 24.9024476,18.64778 C24.9024476,19.63514 24.6668276,20.55518 24.1955876,21.39668 C23.7243476,22.23818 23.0735876,22.91138 22.2545276,23.41628 C21.4354676,23.9324 20.5378676,24.20168 19.5505076,24.22412 C19.4046476,24.22412 12.4706876,24.1568 12.4706876,24.03338 L12.4706876,24.03338 L12.4594676,22.32794 C12.4594676,22.1933 19.4046476,22.32794 19.5505076,22.32794 C20.5042076,22.28306 21.3232676,21.90158 22.0076876,21.1835 C22.6921076,20.46542 23.0287076,19.62392 23.0287076,18.64778 C23.0287076,17.66042 22.6584476,16.8077 21.9291476,16.08962 C21.1998476,15.36032 20.3359076,15.00128 19.3373276,15.00128 L19.3373276,15.00128 L17.5196876,15.00128 C17.3962676,15.00128 17.3289476,14.93396 17.3289476,14.81054 L17.3289476,14.81054 L17.2504076,14.15978 C17.1157676,12.94802 16.5996476,11.93822 15.6796076,11.11916 C14.7595676,10.3001 13.6936676,9.89618 12.4706876,9.89618 C11.2364876,9.89618 10.1705876,10.3001 9.26176762,11.11916 C8.35294762,11.927 7.84804762,12.94802 7.73584762,14.15978 L7.73584762,14.15978 L7.64608762,14.77688 C7.64608762,14.9003 7.56754762,14.96762 7.42168762,14.96762 L7.42168762,14.96762 L6.82702762,15.0125 C5.89576762,15.1247 5.11036762,15.5174 4.47082762,16.21304 C4.3665932,16.3264178 4.27100205,16.442776 4.18400558,16.5621633 L2,16.5624844 C2.19734136,16.0845819 2.46743056,15.6317863 2.81026762,15.20324 C3.61810762,14.19344 4.63912762,13.54268 5.87332762,13.25096 C6.22114762,11.71382 7.01776762,10.44596 8.24074762,9.46982 C9.46372762,8.49368 10.8774476,8 12.4594676,8 Z"
              id="Combined-Shape" fill="#194D9B" fill-rule="nonzero"></path>
        <g id="wi-snowflake-cold" transform="translate(3.000000, 23.000000)" fill="#194D9B" fill-rule="nonzero">
            <path d="M2.30926389e-14,2.8917 C2.30926389e-14,2.819025 0.026775,2.754 0.0765,2.70045 C0.126225,2.6469 0.187425,2.620125 0.2601,2.620125 C0.332775,2.620125 0.3978,2.6469 0.447525,2.70045 C0.49725,2.754 0.524025,2.8152 0.524025,2.8917 C0.524025,2.964375 0.49725,3.025575 0.447525,3.0753 C0.3978,3.125025 0.332775,3.1518 0.263925,3.1518 C0.195075,3.1518 0.13005,3.125025 0.080325,3.0753 C0.02295,3.02175 2.30926389e-14,2.96055 2.30926389e-14,2.8917 Z M0.75735,2.8917 C0.75735,2.819025 0.784125,2.754 0.83385,2.70045 C0.883575,2.6469 0.944775,2.620125 1.01745,2.620125 L2.252925,2.620125 L1.380825,1.748025 C1.327275,1.702125 1.3005,1.640925 1.3005,1.56825 C1.3005,1.495575 1.327275,1.434375 1.380825,1.380825 C1.434375,1.327275 1.495575,1.3005 1.56825,1.3005 C1.640925,1.3005 1.702125,1.327275 1.755675,1.380825 L2.62395,2.2491 L2.62395,1.021275 C2.62395,0.9486 2.650725,0.883575 2.704275,0.830025 C2.757825,0.776475 2.819025,0.7497 2.895525,0.7497 C2.9682,0.7497 3.0294,0.776475 3.079125,0.830025 C3.12885,0.883575 3.155625,0.944775 3.155625,1.021275 L3.155625,2.25675 L4.03155,1.377 C4.0851,1.32345 4.1463,1.296675 4.21515,1.296675 C4.284,1.296675 4.349025,1.32345 4.402575,1.377 C4.448475,1.43055 4.471425,1.49175 4.471425,1.564425 C4.471425,1.6371 4.448475,1.6983 4.402575,1.7442 L3.530475,2.6163 L4.76595,2.6163 C4.8348,2.6163 4.896,2.643075 4.945725,2.696625 C4.99545,2.750175 5.022225,2.811375 5.022225,2.887875 C5.022225,2.956725 4.99545,3.017925 4.945725,3.06765 C4.896,3.117375 4.8348,3.14415 4.76595,3.14415 L3.530475,3.14415 L4.4064,4.020075 C4.4523,4.065975 4.47525,4.127175 4.47525,4.19985 C4.47525,4.272525 4.4523,4.333725 4.4064,4.387275 C4.35285,4.440825 4.287825,4.4676 4.218975,4.4676 C4.150125,4.4676 4.0851,4.440825 4.035375,4.387275 L3.15945,3.507525 L3.15945,4.746825 C3.15945,4.8195 3.132675,4.884525 3.08295,4.93425 C3.033225,4.983975 2.972025,5.01075 2.89935,5.01075 C2.826675,5.01075 2.76165,4.983975 2.7081,4.93425 C2.65455,4.884525 2.627775,4.8195 2.627775,4.746825 L2.627775,3.515175 L1.7595,4.38345 C1.70595,4.437 1.64475,4.463775 1.572075,4.463775 C1.4994,4.463775 1.4382,4.437 1.38465,4.38345 C1.3311,4.3299 1.304325,4.2687 1.304325,4.196025 C1.304325,4.12335 1.3311,4.065975 1.38465,4.01625 L2.2644,3.140325 L1.0251,3.140325 C0.952425,3.140325 0.891225,3.11355 0.8415,3.063825 C0.7803,3.02175 0.75735,2.96055 0.75735,2.8917 Z M0.761175,4.743 C0.761175,4.67415 0.78795,4.609125 0.8415,4.5594 C0.8874,4.50585 0.9486,4.479075 1.021275,4.479075 C1.09395,4.479075 1.15515,4.50585 1.2087,4.5594 C1.26225,4.61295 1.289025,4.67415 1.289025,4.743 C1.289025,4.81185 1.26225,4.876875 1.2087,4.9266 C1.15515,4.98015 1.09395,5.006925 1.021275,5.006925 C0.9486,5.006925 0.8874,4.98015 0.8415,4.9266 C0.78795,4.876875 0.761175,4.815675 0.761175,4.743 Z M0.761175,1.028925 C0.761175,0.960075 0.78795,0.89505 0.8415,0.845325 C0.8874,0.791775 0.9486,0.765 1.021275,0.765 C1.09395,0.765 1.15515,0.791775 1.2087,0.845325 C1.26225,0.898875 1.289025,0.960075 1.289025,1.028925 C1.289025,1.097775 1.26225,1.1628 1.2087,1.21635 C1.15515,1.2699 1.09395,1.296675 1.021275,1.296675 C0.9486,1.296675 0.8874,1.2699 0.8415,1.21635 C0.78795,1.1628 0.761175,1.097775 0.761175,1.028925 Z M2.6163,5.508 C2.6163,5.43915 2.643075,5.37795 2.696625,5.328225 C2.750175,5.2785 2.811375,5.251725 2.887875,5.251725 C2.96055,5.251725 3.02175,5.2785 3.071475,5.328225 C3.1212,5.37795 3.147975,5.43915 3.147975,5.508 C3.147975,5.580675 3.1212,5.6457 3.071475,5.695425 C3.02175,5.74515 2.96055,5.771925 2.887875,5.771925 C2.8152,5.771925 2.750175,5.74515 2.696625,5.695425 C2.643075,5.6457 2.6163,5.5845 2.6163,5.508 Z M2.6163,0.263925 C2.6163,0.19125 2.643075,0.126225 2.696625,0.0765 C2.750175,0.026775 2.811375,-1.0658141e-14 2.887875,-1.0658141e-14 C2.96055,-1.0658141e-14 3.02175,0.026775 3.071475,0.0765 C3.1212,0.126225 3.147975,0.19125 3.147975,0.263925 C3.147975,0.332775 3.1212,0.393975 3.071475,0.4437 C3.02175,0.493425 2.96055,0.5202 2.887875,0.5202 C2.8152,0.5202 2.750175,0.493425 2.696625,0.4437 C2.643075,0.393975 2.6163,0.332775 2.6163,0.263925 Z M4.479075,4.743 C4.479075,4.67415 4.50585,4.609125 4.5594,4.5594 C4.6053,4.50585 4.6665,4.479075 4.739175,4.479075 C4.81185,4.479075 4.87305,4.50585 4.9266,4.5594 C4.98015,4.61295 5.006925,4.67415 5.006925,4.743 C5.006925,4.81185 4.98015,4.876875 4.9266,4.9266 C4.87305,4.98015 4.81185,5.006925 4.739175,5.006925 C4.6665,5.006925 4.6053,4.98015 4.5594,4.9266 C4.50585,4.876875 4.479075,4.815675 4.479075,4.743 Z M4.479075,1.028925 C4.479075,0.960075 4.50585,0.89505 4.5594,0.845325 C4.6053,0.791775 4.6665,0.765 4.739175,0.765 C4.81185,0.765 4.87305,0.791775 4.9266,0.845325 C4.98015,0.898875 5.006925,0.960075 5.006925,1.028925 C5.006925,1.097775 4.98015,1.1628 4.9266,1.21635 C4.87305,1.2699 4.81185,1.296675 4.739175,1.296675 C4.6665,1.296675 4.6053,1.2699 4.5594,1.21635 C4.50585,1.1628 4.479075,1.097775 4.479075,1.028925 Z M5.244075,2.8917 C5.244075,2.819025 5.27085,2.754 5.320575,2.70045 C5.3703,2.6469 5.435325,2.620125 5.508,2.620125 C5.57685,2.620125 5.63805,2.6469 5.687775,2.70045 C5.7375,2.754 5.764275,2.8152 5.764275,2.8917 C5.764275,2.96055 5.7375,3.02175 5.687775,3.071475 C5.63805,3.1212 5.57685,3.147975 5.508,3.147975 C5.435325,3.147975 5.3703,3.1212 5.320575,3.071475 C5.27085,3.02175 5.244075,2.96055 5.244075,2.8917 Z"
                  id="Shape"></path>
        </g>
    </g>
</svg>
