<?xml version="1.0" encoding="UTF-8"?>
<svg width="32px" height="32px" viewBox="0 0 32 32" version="1.1" xmlns="http://www.w3.org/2000/svg"
>
    <!-- Generator: Sketch 57.1 (83088) - https://sketch.com -->
    <title>230_day</title>
    <desc>Created with Sketch.</desc>
    <g id="230_day" stroke="none" stroke-width="1" fill="none" fill-rule="evenodd">
        <g id="wi-horizon-alt"
           transform="translate(22.000000, 8.463617) rotate(40.000000) translate(-22.000000, -8.463617) translate(11.000000, 1.423617)"
           fill="#F7B500" fill-rule="nonzero">
            <path d="M0.1086096,10.762224 C0.1086096,10.5055104 0.197472,10.2981648 0.3751968,10.1500608 C0.5134272,10.0019568 0.7207728,9.922968 0.98736,9.922968 L3.0410688,9.922968 C3.2780352,9.922968 3.4853808,10.0019568 3.6334848,10.1599344 C3.7914624,10.317912 3.8704512,10.515384 3.8704512,10.7523504 C3.8704512,10.9893168 3.7914624,11.1867888 3.6334848,11.35464 C3.4755072,11.5224912 3.2780352,11.60148 3.0410688,11.60148 L0.98736,11.60148 C0.7503936,11.60148 0.543048,11.5224912 0.3653232,11.35464 C0.1875984,11.1966624 0.1086096,10.9991904 0.1086096,10.762224 Z M3.0410688,3.7618416 C3.0410688,3.505128 3.1200576,3.3175296 3.2681616,3.1792992 C3.4360128,3.0015744 3.6433584,2.912712 3.8803248,2.912712 C4.1172912,2.912712 4.3147632,3.0015744 4.4826144,3.1792992 L5.9044128,4.6208448 C6.0821376,4.7788224 6.1611264,4.9762944 6.1611264,5.2132608 C6.1611264,5.4601008 6.0821376,5.6575728 5.92416,5.8155504 C5.7661824,5.973528 5.5687104,6.0525168 5.331744,6.0525168 C5.1145248,6.0525168 4.9170528,5.973528 4.739328,5.8155504 L3.2681616,4.3641312 C3.1200576,4.2259008 3.0410688,4.0284288 3.0410688,3.7618416 Z M5.6082048,10.762224 C5.6082048,11.6212272 5.7859296,12.391368 6.1315056,13.0627728 C6.1611264,13.1516352 6.2401152,13.2010032 6.368472,13.2010032 L8.0173632,13.2010032 C8.0864784,13.2010032 8.1358464,13.181256 8.1555936,13.1417616 C8.1753408,13.1022672 8.14572,13.0430256 8.0864784,12.983784 C7.5631776,12.342 7.2965904,11.60148 7.2965904,10.762224 C7.2965904,9.7847376 7.65204,8.9454816 8.3530656,8.2543296 C9.0540912,7.5631776 9.8933472,7.2176016 10.8708336,7.2176016 C11.84832,7.2176016 12.687576,7.5631776 13.3886016,8.2543296 C14.0896272,8.9454816 14.4253296,9.7847376 14.4253296,10.762224 C14.4253296,11.6113536 14.1587424,12.3518736 13.6354416,12.983784 C13.5959472,13.0430256 13.5762,13.08252 13.5762,13.1022672 C13.5663264,13.131888 13.5762,13.1615088 13.6058208,13.1713824 C13.625568,13.1911296 13.6650624,13.2010032 13.7045568,13.2010032 L15.3830688,13.2010032 C15.4719312,13.2010032 15.5410464,13.1516352 15.5904144,13.0627728 C15.9656112,12.3617472 16.143336,11.60148 16.143336,10.762224 C16.143336,9.8143584 15.9063696,8.935608 15.4324368,8.1259728 C14.958504,7.3163376 14.31672,6.6745536 13.5070848,6.2006208 C12.6974496,5.726688 11.8186992,5.4897216 10.8708336,5.4897216 C9.922968,5.4897216 9.0442176,5.726688 8.2345824,6.2006208 C7.4249472,6.6745536 6.7831632,7.3163376 6.3092304,8.1259728 C5.8352976,8.935608 5.6082048,9.8143584 5.6082048,10.762224 Z M10.021704,2.9324592 L10.021704,0.8688768 C10.021704,0.6319104 10.1006928,0.4344384 10.268544,0.2567136 C10.4363952,0.0789888 10.6338672,0 10.8708336,0 C11.1078,0 11.305272,0.0888624 11.4829968,0.2567136 C11.650848,0.4245648 11.7397104,0.6319104 11.7397104,0.8688768 L11.7397104,2.9324592 C11.7397104,3.1694256 11.650848,3.3668976 11.4829968,3.5446224 C11.305272,3.7223472 11.1078,3.801336 10.8708336,3.801336 C10.6338672,3.801336 10.4363952,3.7124736 10.268544,3.5446224 C10.1006928,3.3668976 10.021704,3.1694256 10.021704,2.9324592 Z M15.5706672,5.2132608 C15.5706672,4.9762944 15.649656,4.7788224 15.8076336,4.6208448 L17.229432,3.1792992 C17.3972832,3.0015744 17.6046288,2.912712 17.8415952,2.912712 C18.0884352,2.912712 18.2957808,2.9917008 18.4537584,3.159552 C18.6216096,3.3274032 18.7005984,3.5248752 18.7005984,3.7618416 C18.7005984,4.0185552 18.6216096,4.2160272 18.4735056,4.3641312 L16.982592,5.8155504 C16.8246144,5.9636544 16.6271424,6.0327696 16.4000496,6.0327696 C16.1532096,6.0426432 15.9557376,5.9636544 15.79776,5.8155504 C15.649656,5.6674464 15.5706672,5.4601008 15.5706672,5.2132608 Z M17.871216,10.762224 C17.871216,10.4956368 17.9502048,10.2981648 18.1081824,10.1500608 C18.2464128,10.0019568 18.4438848,9.922968 18.6907248,9.922968 L20.7543072,9.922968 C20.9912736,9.922968 21.1986192,10.0019568 21.3664704,10.1599344 C21.5343216,10.317912 21.623184,10.515384 21.623184,10.7523504 C21.623184,10.9893168 21.5343216,11.1867888 21.3664704,11.35464 C21.1887456,11.5224912 20.9912736,11.60148 20.7543072,11.60148 L18.6907248,11.60148 C18.463632,11.60148 18.26616,11.5224912 18.1081824,11.35464 C17.9502048,11.1966624 17.871216,10.9991904 17.871216,10.762224 Z"
                  id="Shape"></path>
        </g>
        <g id="wi-day-cloudy-gusts" transform="translate(2.000000, 15.000000)" fill="#F7B500" fill-rule="nonzero">
            <path d="M0.303333333,6.942 C0.303333333,7.15 0.381333333,7.32333333 0.537333333,7.462 C0.684666667,7.60933333 0.858,7.67866667 1.066,7.67866667 L6.162,7.67866667 C6.38733333,7.67866667 6.578,7.75666667 6.75133333,7.92133333 C6.92466667,8.086 7.01133333,8.28533333 7.01133333,8.51066667 C7.01133333,8.736 6.92466667,8.944 6.75133333,9.10866667 C6.578,9.27333333 6.38733333,9.36 6.162,9.36 C5.93666667,9.36 5.746,9.27333333 5.57266667,9.1 C5.41666667,8.96133333 5.24333333,8.892 5.044,8.892 C4.836,8.892 4.66266667,8.96133333 4.524,9.1 C4.38533333,9.23866667 4.316,9.412 4.316,9.62 C4.316,9.828 4.38533333,10.0013333 4.524,10.14 C4.98333333,10.5993333 5.52933333,10.8333333 6.162,10.8333333 C6.80333333,10.8333333 7.34933333,10.608 7.79133333,10.1573333 C8.242,9.70666667 8.46733333,9.16066667 8.46733333,8.51933333 C8.46733333,7.878 8.242,7.332 7.79133333,6.88133333 C7.34066667,6.422 6.79466667,6.19666667 6.162,6.19666667 L1.066,6.19666667 C0.858,6.19666667 0.684666667,6.27466667 0.528666667,6.422 C0.372666667,6.56933333 0.303333333,6.74266667 0.303333333,6.942 Z M0.303333333,4.33333333 C0.303333333,4.524 0.381333333,4.68866667 0.537333333,4.82733333 C0.684666667,4.97466667 0.858,5.044 1.066,5.044 L10.5733333,5.044 C11.2146667,5.044 11.7606667,4.81866667 12.2113333,4.368 C12.662,3.91733333 12.8873333,3.37133333 12.8873333,2.73 C12.8873333,2.08866667 12.662,1.55133333 12.2113333,1.10066667 C11.7606667,0.658666667 11.2146667,0.433333333 10.5733333,0.433333333 C9.91466667,0.433333333 9.37733333,0.65 8.944,1.092 C8.80533333,1.23066667 8.74466667,1.41266667 8.74466667,1.62066667 C8.74466667,1.82866667 8.814,2.002 8.944,2.14066667 C9.074,2.27066667 9.24733333,2.34 9.464,2.34 C9.672,2.34 9.84533333,2.27066667 10.0013333,2.14066667 C10.166,1.976 10.3566667,1.898 10.582,1.898 C10.8073333,1.898 11.0066667,1.976 11.1713333,2.14066667 C11.336,2.30533333 11.4226667,2.50466667 11.4226667,2.73 C11.4226667,2.964 11.336,3.16333333 11.1713333,3.328 C11.0066667,3.49266667 10.8073333,3.57933333 10.582,3.57933333 L1.066,3.57933333 C0.858,3.57933333 0.684666667,3.65733333 0.528666667,3.80466667 C0.372666667,3.96066667 0.303333333,4.134 0.303333333,4.33333333 Z"
                  id="Shape"></path>
        </g>
        <path d="M11.4594676,9 C13.0078276,9 14.3991076,9.47124 15.5996476,10.43616 C16.8001876,11.40108 17.5855876,12.62406 17.9558476,14.12754 L17.9558476,14.12754 L18.3261076,14.12754 C19.3359076,14.12754 20.2671676,14.36316 21.1198876,14.85684 C21.9726076,15.35052 22.6570276,16.0125 23.1507076,16.86522 C23.6556076,17.70672 23.9024476,18.63798 23.9024476,19.64778 C23.9024476,20.63514 23.6668276,21.55518 23.1955876,22.39668 C22.7243476,23.23818 22.0735876,23.91138 21.2545276,24.41628 C20.4354676,24.9324 19.5378676,25.20168 18.5505076,25.22412 C18.4046476,25.22412 11.4706876,25.1568 11.4706876,25.03338 L11.4706876,25.03338 L11.4594676,23.32794 C11.4594676,23.1933 18.4046476,23.32794 18.5505076,23.32794 C19.5042076,23.28306 20.3232676,22.90158 21.0076876,22.1835 C21.6921076,21.46542 22.0287076,20.62392 22.0287076,19.64778 C22.0287076,18.66042 21.6584476,17.8077 20.9291476,17.08962 C20.1998476,16.36032 19.3359076,16.00128 18.3373276,16.00128 L18.3373276,16.00128 L16.5196876,16.00128 C16.3962676,16.00128 16.3289476,15.93396 16.3289476,15.81054 L16.3289476,15.81054 L16.2504076,15.15978 C16.1157676,13.94802 15.5996476,12.93822 14.6796076,12.11916 C13.7595676,11.3001 12.6936676,10.89618 11.4706876,10.89618 C10.2364876,10.89618 9.17058762,11.3001 8.26176762,12.11916 C7.35294762,12.927 6.84804762,13.94802 6.73584762,15.15978 L6.73584762,15.15978 L6.64608762,15.77688 C6.64608762,15.9003 6.56754762,15.96762 6.42168762,15.96762 L6.42168762,15.96762 L5.82702762,16.0125 C4.89576762,16.1247 4.11036762,16.5174 3.47082762,17.21304 C3.3665932,17.3264178 3.27100205,17.442776 3.18400558,17.5621633 L1,17.5624844 C1.19734136,17.0845819 1.46743056,16.6317863 1.81026762,16.20324 C2.61810762,15.19344 3.63912762,14.54268 4.87332762,14.25096 C5.22114762,12.71382 6.01776762,11.44596 7.24074762,10.46982 C8.46372762,9.49368 9.87744762,9 11.4594676,9 Z"
              id="Combined-Shape" fill="#57A0EE" fill-rule="nonzero"></path>
        <g id="wi-snowflake-cold" transform="translate(12.000000, 26.000000)" fill="#57A0EE" fill-rule="nonzero">
            <path d="M2.30926389e-14,2.8917 C2.30926389e-14,2.819025 0.026775,2.754 0.0765,2.70045 C0.126225,2.6469 0.187425,2.620125 0.2601,2.620125 C0.332775,2.620125 0.3978,2.6469 0.447525,2.70045 C0.49725,2.754 0.524025,2.8152 0.524025,2.8917 C0.524025,2.964375 0.49725,3.025575 0.447525,3.0753 C0.3978,3.125025 0.332775,3.1518 0.263925,3.1518 C0.195075,3.1518 0.13005,3.125025 0.080325,3.0753 C0.02295,3.02175 2.30926389e-14,2.96055 2.30926389e-14,2.8917 Z M0.75735,2.8917 C0.75735,2.819025 0.784125,2.754 0.83385,2.70045 C0.883575,2.6469 0.944775,2.620125 1.01745,2.620125 L2.252925,2.620125 L1.380825,1.748025 C1.327275,1.702125 1.3005,1.640925 1.3005,1.56825 C1.3005,1.495575 1.327275,1.434375 1.380825,1.380825 C1.434375,1.327275 1.495575,1.3005 1.56825,1.3005 C1.640925,1.3005 1.702125,1.327275 1.755675,1.380825 L2.62395,2.2491 L2.62395,1.021275 C2.62395,0.9486 2.650725,0.883575 2.704275,0.830025 C2.757825,0.776475 2.819025,0.7497 2.895525,0.7497 C2.9682,0.7497 3.0294,0.776475 3.079125,0.830025 C3.12885,0.883575 3.155625,0.944775 3.155625,1.021275 L3.155625,2.25675 L4.03155,1.377 C4.0851,1.32345 4.1463,1.296675 4.21515,1.296675 C4.284,1.296675 4.349025,1.32345 4.402575,1.377 C4.448475,1.43055 4.471425,1.49175 4.471425,1.564425 C4.471425,1.6371 4.448475,1.6983 4.402575,1.7442 L3.530475,2.6163 L4.76595,2.6163 C4.8348,2.6163 4.896,2.643075 4.945725,2.696625 C4.99545,2.750175 5.022225,2.811375 5.022225,2.887875 C5.022225,2.956725 4.99545,3.017925 4.945725,3.06765 C4.896,3.117375 4.8348,3.14415 4.76595,3.14415 L3.530475,3.14415 L4.4064,4.020075 C4.4523,4.065975 4.47525,4.127175 4.47525,4.19985 C4.47525,4.272525 4.4523,4.333725 4.4064,4.387275 C4.35285,4.440825 4.287825,4.4676 4.218975,4.4676 C4.150125,4.4676 4.0851,4.440825 4.035375,4.387275 L3.15945,3.507525 L3.15945,4.746825 C3.15945,4.8195 3.132675,4.884525 3.08295,4.93425 C3.033225,4.983975 2.972025,5.01075 2.89935,5.01075 C2.826675,5.01075 2.76165,4.983975 2.7081,4.93425 C2.65455,4.884525 2.627775,4.8195 2.627775,4.746825 L2.627775,3.515175 L1.7595,4.38345 C1.70595,4.437 1.64475,4.463775 1.572075,4.463775 C1.4994,4.463775 1.4382,4.437 1.38465,4.38345 C1.3311,4.3299 1.304325,4.2687 1.304325,4.196025 C1.304325,4.12335 1.3311,4.065975 1.38465,4.01625 L2.2644,3.140325 L1.0251,3.140325 C0.952425,3.140325 0.891225,3.11355 0.8415,3.063825 C0.7803,3.02175 0.75735,2.96055 0.75735,2.8917 Z M0.761175,4.743 C0.761175,4.67415 0.78795,4.609125 0.8415,4.5594 C0.8874,4.50585 0.9486,4.479075 1.021275,4.479075 C1.09395,4.479075 1.15515,4.50585 1.2087,4.5594 C1.26225,4.61295 1.289025,4.67415 1.289025,4.743 C1.289025,4.81185 1.26225,4.876875 1.2087,4.9266 C1.15515,4.98015 1.09395,5.006925 1.021275,5.006925 C0.9486,5.006925 0.8874,4.98015 0.8415,4.9266 C0.78795,4.876875 0.761175,4.815675 0.761175,4.743 Z M0.761175,1.028925 C0.761175,0.960075 0.78795,0.89505 0.8415,0.845325 C0.8874,0.791775 0.9486,0.765 1.021275,0.765 C1.09395,0.765 1.15515,0.791775 1.2087,0.845325 C1.26225,0.898875 1.289025,0.960075 1.289025,1.028925 C1.289025,1.097775 1.26225,1.1628 1.2087,1.21635 C1.15515,1.2699 1.09395,1.296675 1.021275,1.296675 C0.9486,1.296675 0.8874,1.2699 0.8415,1.21635 C0.78795,1.1628 0.761175,1.097775 0.761175,1.028925 Z M2.6163,5.508 C2.6163,5.43915 2.643075,5.37795 2.696625,5.328225 C2.750175,5.2785 2.811375,5.251725 2.887875,5.251725 C2.96055,5.251725 3.02175,5.2785 3.071475,5.328225 C3.1212,5.37795 3.147975,5.43915 3.147975,5.508 C3.147975,5.580675 3.1212,5.6457 3.071475,5.695425 C3.02175,5.74515 2.96055,5.771925 2.887875,5.771925 C2.8152,5.771925 2.750175,5.74515 2.696625,5.695425 C2.643075,5.6457 2.6163,5.5845 2.6163,5.508 Z M2.6163,0.263925 C2.6163,0.19125 2.643075,0.126225 2.696625,0.0765 C2.750175,0.026775 2.811375,-1.0658141e-14 2.887875,-1.0658141e-14 C2.96055,-1.0658141e-14 3.02175,0.026775 3.071475,0.0765 C3.1212,0.126225 3.147975,0.19125 3.147975,0.263925 C3.147975,0.332775 3.1212,0.393975 3.071475,0.4437 C3.02175,0.493425 2.96055,0.5202 2.887875,0.5202 C2.8152,0.5202 2.750175,0.493425 2.696625,0.4437 C2.643075,0.393975 2.6163,0.332775 2.6163,0.263925 Z M4.479075,4.743 C4.479075,4.67415 4.50585,4.609125 4.5594,4.5594 C4.6053,4.50585 4.6665,4.479075 4.739175,4.479075 C4.81185,4.479075 4.87305,4.50585 4.9266,4.5594 C4.98015,4.61295 5.006925,4.67415 5.006925,4.743 C5.006925,4.81185 4.98015,4.876875 4.9266,4.9266 C4.87305,4.98015 4.81185,5.006925 4.739175,5.006925 C4.6665,5.006925 4.6053,4.98015 4.5594,4.9266 C4.50585,4.876875 4.479075,4.815675 4.479075,4.743 Z M4.479075,1.028925 C4.479075,0.960075 4.50585,0.89505 4.5594,0.845325 C4.6053,0.791775 4.6665,0.765 4.739175,0.765 C4.81185,0.765 4.87305,0.791775 4.9266,0.845325 C4.98015,0.898875 5.006925,0.960075 5.006925,1.028925 C5.006925,1.097775 4.98015,1.1628 4.9266,1.21635 C4.87305,1.2699 4.81185,1.296675 4.739175,1.296675 C4.6665,1.296675 4.6053,1.2699 4.5594,1.21635 C4.50585,1.1628 4.479075,1.097775 4.479075,1.028925 Z M5.244075,2.8917 C5.244075,2.819025 5.27085,2.754 5.320575,2.70045 C5.3703,2.6469 5.435325,2.620125 5.508,2.620125 C5.57685,2.620125 5.63805,2.6469 5.687775,2.70045 C5.7375,2.754 5.764275,2.8152 5.764275,2.8917 C5.764275,2.96055 5.7375,3.02175 5.687775,3.071475 C5.63805,3.1212 5.57685,3.147975 5.508,3.147975 C5.435325,3.147975 5.3703,3.1212 5.320575,3.071475 C5.27085,3.02175 5.244075,2.96055 5.244075,2.8917 Z"
                  id="Shape"></path>
        </g>
    </g>
</svg>
