<?xml version="1.0" encoding="UTF-8"?>
<svg width="32px" height="32px" viewBox="0 0 32 32" version="1.1" xmlns="http://www.w3.org/2000/svg"
>
    <!-- Generator: Sketch 57.1 (83088) - https://sketch.com -->
    <title>248_day</title>
    <desc>Created with Sketch.</desc>
    <g id="248_day" stroke="none" stroke-width="1" fill="none" fill-rule="evenodd">
        <path d="M3,24.97 C3,25.2 3.08,25.4 3.25,25.56 C3.42,25.72 3.63,25.8 3.88,25.8 L22.59,25.8 C22.83,25.8 23.03,25.72 23.2,25.56 C23.37,25.4 23.45,25.21 23.45,24.97 C23.45,24.73 23.37,24.53 23.2,24.37 C23.03,24.2 22.83,24.12 22.59,24.12 L3.88,24.12 C3.63,24.12 3.42,24.2 3.25,24.37 C3.08,24.54 3,24.73 3,24.97 Z M5.62,21.83 C5.62,22.06 5.7,22.26 5.87,22.41 C6.04,22.59 6.24,22.68 6.47,22.68 L25.19,22.68 C25.42,22.68 25.62,22.6 25.78,22.43 C25.94,22.26 26.02,22.06 26.02,21.83 C26.02,21.6 25.94,21.4 25.79,21.24 C25.63,21.08 25.44,21 25.2,21 L6.48,21 C6.24,21 6.04,21.08 5.88,21.24 C5.71,21.41 5.62,21.6 5.62,21.83 Z M7.37,28.04 C7.37,28.28 7.46,28.48 7.64,28.64 C7.8,28.81 7.99,28.9 8.23,28.9 L26.97,28.9 C27.2,28.9 27.4,28.82 27.57,28.65 C27.74,28.48 27.82,28.28 27.82,28.04 C27.82,27.81 27.74,27.62 27.57,27.46 C27.4,27.31 27.2,27.23 26.97,27.23 L8.23,27.23 C7.99,27.23 7.79,27.31 7.62,27.46 C7.45,27.62 7.37,27.81 7.37,28.04 Z"
              id="Shape" fill="#F7B500" fill-rule="nonzero"></path>
        <g id="wi-horizon-alt"
           transform="translate(23.000000, 10.463617) rotate(40.000000) translate(-23.000000, -10.463617) translate(12.000000, 3.423617)"
           fill="#F7B500" fill-rule="nonzero">
            <path d="M0.1086096,10.762224 C0.1086096,10.5055104 0.197472,10.2981648 0.3751968,10.1500608 C0.5134272,10.0019568 0.7207728,9.922968 0.98736,9.922968 L3.0410688,9.922968 C3.2780352,9.922968 3.4853808,10.0019568 3.6334848,10.1599344 C3.7914624,10.317912 3.8704512,10.515384 3.8704512,10.7523504 C3.8704512,10.9893168 3.7914624,11.1867888 3.6334848,11.35464 C3.4755072,11.5224912 3.2780352,11.60148 3.0410688,11.60148 L0.98736,11.60148 C0.7503936,11.60148 0.543048,11.5224912 0.3653232,11.35464 C0.1875984,11.1966624 0.1086096,10.9991904 0.1086096,10.762224 Z M3.0410688,3.7618416 C3.0410688,3.505128 3.1200576,3.3175296 3.2681616,3.1792992 C3.4360128,3.0015744 3.6433584,2.912712 3.8803248,2.912712 C4.1172912,2.912712 4.3147632,3.0015744 4.4826144,3.1792992 L5.9044128,4.6208448 C6.0821376,4.7788224 6.1611264,4.9762944 6.1611264,5.2132608 C6.1611264,5.4601008 6.0821376,5.6575728 5.92416,5.8155504 C5.7661824,5.973528 5.5687104,6.0525168 5.331744,6.0525168 C5.1145248,6.0525168 4.9170528,5.973528 4.739328,5.8155504 L3.2681616,4.3641312 C3.1200576,4.2259008 3.0410688,4.0284288 3.0410688,3.7618416 Z M5.6082048,10.762224 C5.6082048,11.6212272 5.7859296,12.391368 6.1315056,13.0627728 C6.1611264,13.1516352 6.2401152,13.2010032 6.368472,13.2010032 L8.0173632,13.2010032 C8.0864784,13.2010032 8.1358464,13.181256 8.1555936,13.1417616 C8.1753408,13.1022672 8.14572,13.0430256 8.0864784,12.983784 C7.5631776,12.342 7.2965904,11.60148 7.2965904,10.762224 C7.2965904,9.7847376 7.65204,8.9454816 8.3530656,8.2543296 C9.0540912,7.5631776 9.8933472,7.2176016 10.8708336,7.2176016 C11.84832,7.2176016 12.687576,7.5631776 13.3886016,8.2543296 C14.0896272,8.9454816 14.4253296,9.7847376 14.4253296,10.762224 C14.4253296,11.6113536 14.1587424,12.3518736 13.6354416,12.983784 C13.5959472,13.0430256 13.5762,13.08252 13.5762,13.1022672 C13.5663264,13.131888 13.5762,13.1615088 13.6058208,13.1713824 C13.625568,13.1911296 13.6650624,13.2010032 13.7045568,13.2010032 L15.3830688,13.2010032 C15.4719312,13.2010032 15.5410464,13.1516352 15.5904144,13.0627728 C15.9656112,12.3617472 16.143336,11.60148 16.143336,10.762224 C16.143336,9.8143584 15.9063696,8.935608 15.4324368,8.1259728 C14.958504,7.3163376 14.31672,6.6745536 13.5070848,6.2006208 C12.6974496,5.726688 11.8186992,5.4897216 10.8708336,5.4897216 C9.922968,5.4897216 9.0442176,5.726688 8.2345824,6.2006208 C7.4249472,6.6745536 6.7831632,7.3163376 6.3092304,8.1259728 C5.8352976,8.935608 5.6082048,9.8143584 5.6082048,10.762224 Z M10.021704,2.9324592 L10.021704,0.8688768 C10.021704,0.6319104 10.1006928,0.4344384 10.268544,0.2567136 C10.4363952,0.0789888 10.6338672,0 10.8708336,0 C11.1078,0 11.305272,0.0888624 11.4829968,0.2567136 C11.650848,0.4245648 11.7397104,0.6319104 11.7397104,0.8688768 L11.7397104,2.9324592 C11.7397104,3.1694256 11.650848,3.3668976 11.4829968,3.5446224 C11.305272,3.7223472 11.1078,3.801336 10.8708336,3.801336 C10.6338672,3.801336 10.4363952,3.7124736 10.268544,3.5446224 C10.1006928,3.3668976 10.021704,3.1694256 10.021704,2.9324592 Z M15.5706672,5.2132608 C15.5706672,4.9762944 15.649656,4.7788224 15.8076336,4.6208448 L17.229432,3.1792992 C17.3972832,3.0015744 17.6046288,2.912712 17.8415952,2.912712 C18.0884352,2.912712 18.2957808,2.9917008 18.4537584,3.159552 C18.6216096,3.3274032 18.7005984,3.5248752 18.7005984,3.7618416 C18.7005984,4.0185552 18.6216096,4.2160272 18.4735056,4.3641312 L16.982592,5.8155504 C16.8246144,5.9636544 16.6271424,6.0327696 16.4000496,6.0327696 C16.1532096,6.0426432 15.9557376,5.9636544 15.79776,5.8155504 C15.649656,5.6674464 15.5706672,5.4601008 15.5706672,5.2132608 Z M17.871216,10.762224 C17.871216,10.4956368 17.9502048,10.2981648 18.1081824,10.1500608 C18.2464128,10.0019568 18.4438848,9.922968 18.6907248,9.922968 L20.7543072,9.922968 C20.9912736,9.922968 21.1986192,10.0019568 21.3664704,10.1599344 C21.5343216,10.317912 21.623184,10.515384 21.623184,10.7523504 C21.623184,10.9893168 21.5343216,11.1867888 21.3664704,11.35464 C21.1887456,11.5224912 20.9912736,11.60148 20.7543072,11.60148 L18.6907248,11.60148 C18.463632,11.60148 18.26616,11.5224912 18.1081824,11.35464 C17.9502048,11.1966624 17.871216,10.9991904 17.871216,10.762224 Z"
                  id="Shape"></path>
        </g>
        <path d="M12.759133,10 C14.307493,10 15.698773,10.47124 16.899313,11.43616 C18.099853,12.40108 18.885253,13.62406 19.255513,15.12754 L19.255513,15.12754 L19.625773,15.12754 C20.635573,15.12754 21.566833,15.36316 22.419553,15.85684 C23.272273,16.35052 23.956693,17.0125 24.450373,17.86522 C24.7688484,18.3960123 24.9846495,18.9625174 25.1005921,19.5619195 L23.1627482,19.5622141 C22.9881203,19.0207394 22.6759467,18.5298747 22.228813,18.08962 C21.499513,17.36032 20.635573,17.00128 19.636993,17.00128 L19.636993,17.00128 L17.819353,17.00128 C17.695933,17.00128 17.628613,16.93396 17.628613,16.81054 L17.628613,16.81054 L17.550073,16.15978 C17.415433,14.94802 16.899313,13.93822 15.979273,13.11916 C15.059233,12.3001 13.993333,11.89618 12.770353,11.89618 C11.536153,11.89618 10.470253,12.3001 9.56143301,13.11916 C8.65261301,13.927 8.14771301,14.94802 8.03551301,16.15978 L8.03551301,16.15978 L7.94575301,16.77688 C7.94575301,16.9003 7.86721301,16.96762 7.72135301,16.96762 L7.72135301,16.96762 L7.12669301,17.0125 C6.19543301,17.1247 5.41003301,17.5174 4.77049301,18.21304 C4.39362122,18.6229707 4.12974013,19.0718637 3.97655374,19.5620151 L2,19.5621684 C2.16629464,18.7052861 2.53627231,17.9203159 3.10993301,17.20324 C3.91777301,16.19344 4.93879301,15.54268 6.17299301,15.25096 C6.52081301,13.71382 7.31743301,12.44596 8.54041301,11.46982 C9.76339301,10.49368 11.177113,10 12.759133,10 Z"
              id="Combined-Shape" fill="#57A0EE" fill-rule="nonzero"></path>
    </g>
</svg>
