<?xml version="1.0" encoding="UTF-8"?>
<svg width="32px" height="32px" viewBox="0 0 32 32" version="1.1" xmlns="http://www.w3.org/2000/svg"
>
    <!-- Generator: Sketch 57.1 (83088) - https://sketch.com -->
    <title>248_night</title>
    <desc>Created with Sketch.</desc>
    <g id="248_night" stroke="none" stroke-width="1" fill="none" fill-rule="evenodd">
        <path d="M3,23.97 C3,24.2 3.08,24.4 3.25,24.56 C3.42,24.72 3.63,24.8 3.88,24.8 L22.59,24.8 C22.83,24.8 23.03,24.72 23.2,24.56 C23.37,24.4 23.45,24.21 23.45,23.97 C23.45,23.73 23.37,23.53 23.2,23.37 C23.03,23.2 22.83,23.12 22.59,23.12 L3.88,23.12 C3.63,23.12 3.42,23.2 3.25,23.37 C3.08,23.54 3,23.73 3,23.97 Z M5.62,20.83 C5.62,21.06 5.7,21.26 5.87,21.41 C6.04,21.59 6.24,21.68 6.47,21.68 L25.19,21.68 C25.42,21.68 25.62,21.6 25.78,21.43 C25.94,21.26 26.02,21.06 26.02,20.83 C26.02,20.6 25.94,20.4 25.79,20.24 C25.63,20.08 25.44,20 25.2,20 L6.48,20 C6.24,20 6.04,20.08 5.88,20.24 C5.71,20.41 5.62,20.6 5.62,20.83 Z M7.37,27.04 C7.37,27.28 7.46,27.48 7.64,27.64 C7.8,27.81 7.99,27.9 8.23,27.9 L26.97,27.9 C27.2,27.9 27.4,27.82 27.57,27.65 C27.74,27.48 27.82,27.28 27.82,27.04 C27.82,26.81 27.74,26.62 27.57,26.46 C27.4,26.31 27.2,26.23 26.97,26.23 L8.23,26.23 C7.99,26.23 7.79,26.31 7.62,26.46 C7.45,26.62 7.37,26.81 7.37,27.04 Z"
              id="Shape" fill="#888888" fill-rule="nonzero"></path>
        <g id="wi-night-clear"
           transform="translate(22.500000, 11.500000) rotate(-3.000000) translate(-22.500000, -11.500000) translate(15.000000, 4.000000)"
           fill="#888888" fill-rule="nonzero">
            <path d="M8.14,0.38 C8.3,0.42 8.37,0.52 8.37,0.66 L8.42,1.54 C8.46,2.81 8.91,3.89 9.79,4.78 C10.67,5.67 11.73,6.15 12.98,6.2 L13.8,6.27 C13.96,6.27 14.04,6.35 14.04,6.5 L14.04,7.48 C14.05,8.76 13.74,9.95 13.11,11.04 C12.48,12.13 11.63,12.99 10.54,13.63 C10.0549153,13.9129661 9.54763933,14.1333934 9.01998444,14.2903758 L7.61029494,12.7807266 C7.99497439,12.7303621 8.38248719,12.6310643 8.77,12.48 C9.36,12.25 9.91,11.93 10.42,11.52 C10.93,11.11 11.36,10.59 11.73,9.95 C12.1,9.31 12.33,8.62 12.44,7.86 C10.81,7.52 9.5,6.82 8.52,5.76 C7.54,4.7 6.97,3.46 6.82,2.02 C5.86,2.08 5,2.37 4.21,2.9 C3.43,3.43 2.82,4.1 2.39,4.92 C2.10934732,5.45519814 1.91815297,6.00317603 1.81919731,6.56671406 L0.366067624,5.00725606 C0.39943968,4.90784099 0.434083805,4.8154223 0.47,4.73 C0.84,3.85 1.35,3.1 1.98,2.47 C2.61,1.84 3.37,1.33 4.25,0.95 C5.13,0.57 6.05,0.38 7,0.38 L8.14,0.38 Z"
                  id="Shape"></path>
        </g>
        <path d="M12.759133,9 C14.307493,9 15.698773,9.47124 16.899313,10.43616 C18.099853,11.40108 18.885253,12.62406 19.255513,14.12754 L19.255513,14.12754 L19.625773,14.12754 C20.635573,14.12754 21.566833,14.36316 22.419553,14.85684 C23.272273,15.35052 23.956693,16.0125 24.450373,16.86522 C24.7688484,17.3960123 24.9846495,17.9625174 25.1005921,18.5619195 L23.1627482,18.5622141 C22.9881203,18.0207394 22.6759467,17.5298747 22.228813,17.08962 C21.499513,16.36032 20.635573,16.00128 19.636993,16.00128 L19.636993,16.00128 L17.819353,16.00128 C17.695933,16.00128 17.628613,15.93396 17.628613,15.81054 L17.628613,15.81054 L17.550073,15.15978 C17.415433,13.94802 16.899313,12.93822 15.979273,12.11916 C15.059233,11.3001 13.993333,10.89618 12.770353,10.89618 C11.536153,10.89618 10.470253,11.3001 9.56143301,12.11916 C8.65261301,12.927 8.14771301,13.94802 8.03551301,15.15978 L8.03551301,15.15978 L7.94575301,15.77688 C7.94575301,15.9003 7.86721301,15.96762 7.72135301,15.96762 L7.72135301,15.96762 L7.12669301,16.0125 C6.19543301,16.1247 5.41003301,16.5174 4.77049301,17.21304 C4.39362122,17.6229707 4.12974013,18.0718637 3.97655374,18.5620151 L2,18.5621684 C2.16629464,17.7052861 2.53627231,16.9203159 3.10993301,16.20324 C3.91777301,15.19344 4.93879301,14.54268 6.17299301,14.25096 C6.52081301,12.71382 7.31743301,11.44596 8.54041301,10.46982 C9.76339301,9.49368 11.177113,9 12.759133,9 Z"
              id="Combined-Shape" fill="#194D9B" fill-rule="nonzero"></path>
    </g>
</svg>
