<?xml version="1.0" encoding="UTF-8"?>
<svg width="32px" height="32px" viewBox="0 0 32 32" version="1.1" xmlns="http://www.w3.org/2000/svg"
>
    <!-- Generator: Sketch 57.1 (83088) - https://sketch.com -->
    <title>260_night</title>
    <desc>Created with Sketch.</desc>
    <g id="260_night" stroke="none" stroke-width="1" fill="none" fill-rule="evenodd">
        <g id="wi-night-clear"
           transform="translate(22.500000, 11.500000) rotate(-3.000000) translate(-22.500000, -11.500000) translate(15.000000, 4.000000)"
           fill="#888888" fill-rule="nonzero">
            <path d="M8.14,0.38 C8.3,0.42 8.37,0.52 8.37,0.66 L8.42,1.54 C8.46,2.81 8.91,3.89 9.79,4.78 C10.67,5.67 11.73,6.15 12.98,6.2 L13.8,6.27 C13.96,6.27 14.04,6.35 14.04,6.5 L14.04,7.48 C14.05,8.76 13.74,9.95 13.11,11.04 C12.48,12.13 11.63,12.99 10.54,13.63 C10.0549153,13.9129661 9.54763933,14.1333934 9.01998444,14.2903758 L7.61029494,12.7807266 C7.99497439,12.7303621 8.38248719,12.6310643 8.77,12.48 C9.36,12.25 9.91,11.93 10.42,11.52 C10.93,11.11 11.36,10.59 11.73,9.95 C12.1,9.31 12.33,8.62 12.44,7.86 C10.81,7.52 9.5,6.82 8.52,5.76 C7.54,4.7 6.97,3.46 6.82,2.02 C5.86,2.08 5,2.37 4.21,2.9 C3.43,3.43 2.82,4.1 2.39,4.92 C2.10934732,5.45519814 1.91815297,6.00317603 1.81919731,6.56671406 L0.366067624,5.00725606 C0.39943968,4.90784099 0.434083805,4.8154223 0.47,4.73 C0.84,3.85 1.35,3.1 1.98,2.47 C2.61,1.84 3.37,1.33 4.25,0.95 C5.13,0.57 6.05,0.38 7,0.38 L8.14,0.38 Z"
                  id="Shape"></path>
        </g>
        <path d="M12.759133,9 C14.307493,9 15.698773,9.47124 16.899313,10.43616 C18.099853,11.40108 18.885253,12.62406 19.255513,14.12754 L19.255513,14.12754 L19.625773,14.12754 C20.635573,14.12754 21.566833,14.36316 22.419553,14.85684 C23.272273,15.35052 23.956693,16.0125 24.450373,16.86522 C24.7688484,17.3960123 24.9846495,17.9625174 25.1005921,18.5619195 L23.1627482,18.5622141 C22.9881203,18.0207394 22.6759467,17.5298747 22.228813,17.08962 C21.499513,16.36032 20.635573,16.00128 19.636993,16.00128 L19.636993,16.00128 L17.819353,16.00128 C17.695933,16.00128 17.628613,15.93396 17.628613,15.81054 L17.628613,15.81054 L17.550073,15.15978 C17.415433,13.94802 16.899313,12.93822 15.979273,12.11916 C15.059233,11.3001 13.993333,10.89618 12.770353,10.89618 C11.536153,10.89618 10.470253,11.3001 9.56143301,12.11916 C8.65261301,12.927 8.14771301,13.94802 8.03551301,15.15978 L8.03551301,15.15978 L7.94575301,15.77688 C7.94575301,15.9003 7.86721301,15.96762 7.72135301,15.96762 L7.72135301,15.96762 L7.12669301,16.0125 C6.19543301,16.1247 5.41003301,16.5174 4.77049301,17.21304 C4.39362122,17.6229707 4.12974013,18.0718637 3.97655374,18.5620151 L2,18.5621684 C2.16629464,17.7052861 2.53627231,16.9203159 3.10993301,16.20324 C3.91777301,15.19344 4.93879301,14.54268 6.17299301,14.25096 C6.52081301,12.71382 7.31743301,11.44596 8.54041301,10.46982 C9.76339301,9.49368 11.177113,9 12.759133,9 Z"
              id="Combined-Shape" fill="#194D9B" fill-rule="nonzero"></path>
        <path d="M3,24.97 C3,25.2 3.08,25.4 3.25,25.56 C3.42,25.72 3.63,25.8 3.88,25.8 L22.59,25.8 C22.83,25.8 23.03,25.72 23.2,25.56 C23.37,25.4 23.45,25.21 23.45,24.97 C23.45,24.73 23.37,24.53 23.2,24.37 C23.03,24.2 22.83,24.12 22.59,24.12 L3.88,24.12 C3.63,24.12 3.42,24.2 3.25,24.37 C3.08,24.54 3,24.73 3,24.97 Z M7.37,28.04 C7.37,28.28 7.46,28.48 7.64,28.64 C7.8,28.81 7.99,28.9 8.23,28.9 L26.97,28.9 C27.2,28.9 27.4,28.82 27.57,28.65 C27.74,28.48 27.82,28.28 27.82,28.04 C27.82,27.81 27.74,27.62 27.57,27.46 C27.4,27.31 27.2,27.23 26.97,27.23 L8.23,27.23 C7.99,27.23 7.79,27.31 7.62,27.46 C7.45,27.62 7.37,27.81 7.37,28.04 Z"
              id="Shape" fill="#888888" fill-rule="nonzero"></path>
        <g id="wi-snowflake-cold" transform="translate(9.000000, 15.000000)" fill="#888888" fill-rule="nonzero">
            <path d="M2.30926389e-14,3.8556 C2.30926389e-14,3.7587 0.0357,3.672 0.102,3.6006 C0.1683,3.5292 0.2499,3.4935 0.3468,3.4935 C0.4437,3.4935 0.5304,3.5292 0.5967,3.6006 C0.663,3.672 0.6987,3.7536 0.6987,3.8556 C0.6987,3.9525 0.663,4.0341 0.5967,4.1004 C0.5304,4.1667 0.4437,4.2024 0.3519,4.2024 C0.2601,4.2024 0.1734,4.1667 0.1071,4.1004 C0.0306,4.029 2.30926389e-14,3.9474 2.30926389e-14,3.8556 Z M1.0098,3.8556 C1.0098,3.7587 1.0455,3.672 1.1118,3.6006 C1.1781,3.5292 1.2597,3.4935 1.3566,3.4935 L3.0039,3.4935 L1.8411,2.3307 C1.7697,2.2695 1.734,2.1879 1.734,2.091 C1.734,1.9941 1.7697,1.9125 1.8411,1.8411 C1.9125,1.7697 1.9941,1.734 2.091,1.734 C2.1879,1.734 2.2695,1.7697 2.3409,1.8411 L3.4986,2.9988 L3.4986,1.3617 C3.4986,1.2648 3.5343,1.1781 3.6057,1.1067 C3.6771,1.0353 3.7587,0.9996 3.8607,0.9996 C3.9576,0.9996 4.0392,1.0353 4.1055,1.1067 C4.1718,1.1781 4.2075,1.2597 4.2075,1.3617 L4.2075,3.009 L5.3754,1.836 C5.4468,1.7646 5.5284,1.7289 5.6202,1.7289 C5.712,1.7289 5.7987,1.7646 5.8701,1.836 C5.9313,1.9074 5.9619,1.989 5.9619,2.0859 C5.9619,2.1828 5.9313,2.2644 5.8701,2.3256 L4.7073,3.4884 L6.3546,3.4884 C6.4464,3.4884 6.528,3.5241 6.5943,3.5955 C6.6606,3.6669 6.6963,3.7485 6.6963,3.8505 C6.6963,3.9423 6.6606,4.0239 6.5943,4.0902 C6.528,4.1565 6.4464,4.1922 6.3546,4.1922 L4.7073,4.1922 L5.8752,5.3601 C5.9364,5.4213 5.967,5.5029 5.967,5.5998 C5.967,5.6967 5.9364,5.7783 5.8752,5.8497 C5.8038,5.9211 5.7171,5.9568 5.6253,5.9568 C5.5335,5.9568 5.4468,5.9211 5.3805,5.8497 L4.2126,4.6767 L4.2126,6.3291 C4.2126,6.426 4.1769,6.5127 4.1106,6.579 C4.0443,6.6453 3.9627,6.681 3.8658,6.681 C3.7689,6.681 3.6822,6.6453 3.6108,6.579 C3.5394,6.5127 3.5037,6.426 3.5037,6.3291 L3.5037,4.6869 L2.346,5.8446 C2.2746,5.916 2.193,5.9517 2.0961,5.9517 C1.9992,5.9517 1.9176,5.916 1.8462,5.8446 C1.7748,5.7732 1.7391,5.6916 1.7391,5.5947 C1.7391,5.4978 1.7748,5.4213 1.8462,5.355 L3.0192,4.1871 L1.3668,4.1871 C1.2699,4.1871 1.1883,4.1514 1.122,4.0851 C1.0404,4.029 1.0098,3.9474 1.0098,3.8556 Z M1.0149,6.324 C1.0149,6.2322 1.0506,6.1455 1.122,6.0792 C1.1832,6.0078 1.2648,5.9721 1.3617,5.9721 C1.4586,5.9721 1.5402,6.0078 1.6116,6.0792 C1.683,6.1506 1.7187,6.2322 1.7187,6.324 C1.7187,6.4158 1.683,6.5025 1.6116,6.5688 C1.5402,6.6402 1.4586,6.6759 1.3617,6.6759 C1.2648,6.6759 1.1832,6.6402 1.122,6.5688 C1.0506,6.5025 1.0149,6.4209 1.0149,6.324 Z M1.0149,1.3719 C1.0149,1.2801 1.0506,1.1934 1.122,1.1271 C1.1832,1.0557 1.2648,1.02 1.3617,1.02 C1.4586,1.02 1.5402,1.0557 1.6116,1.1271 C1.683,1.1985 1.7187,1.2801 1.7187,1.3719 C1.7187,1.4637 1.683,1.5504 1.6116,1.6218 C1.5402,1.6932 1.4586,1.7289 1.3617,1.7289 C1.2648,1.7289 1.1832,1.6932 1.122,1.6218 C1.0506,1.5504 1.0149,1.4637 1.0149,1.3719 Z M3.4884,7.344 C3.4884,7.2522 3.5241,7.1706 3.5955,7.1043 C3.6669,7.038 3.7485,7.0023 3.8505,7.0023 C3.9474,7.0023 4.029,7.038 4.0953,7.1043 C4.1616,7.1706 4.1973,7.2522 4.1973,7.344 C4.1973,7.4409 4.1616,7.5276 4.0953,7.5939 C4.029,7.6602 3.9474,7.6959 3.8505,7.6959 C3.7536,7.6959 3.6669,7.6602 3.5955,7.5939 C3.5241,7.5276 3.4884,7.446 3.4884,7.344 Z M3.4884,0.3519 C3.4884,0.255 3.5241,0.1683 3.5955,0.102 C3.6669,0.0357 3.7485,-1.0658141e-14 3.8505,-1.0658141e-14 C3.9474,-1.0658141e-14 4.029,0.0357 4.0953,0.102 C4.1616,0.1683 4.1973,0.255 4.1973,0.3519 C4.1973,0.4437 4.1616,0.5253 4.0953,0.5916 C4.029,0.6579 3.9474,0.6936 3.8505,0.6936 C3.7536,0.6936 3.6669,0.6579 3.5955,0.5916 C3.5241,0.5253 3.4884,0.4437 3.4884,0.3519 Z M5.9721,6.324 C5.9721,6.2322 6.0078,6.1455 6.0792,6.0792 C6.1404,6.0078 6.222,5.9721 6.3189,5.9721 C6.4158,5.9721 6.4974,6.0078 6.5688,6.0792 C6.6402,6.1506 6.6759,6.2322 6.6759,6.324 C6.6759,6.4158 6.6402,6.5025 6.5688,6.5688 C6.4974,6.6402 6.4158,6.6759 6.3189,6.6759 C6.222,6.6759 6.1404,6.6402 6.0792,6.5688 C6.0078,6.5025 5.9721,6.4209 5.9721,6.324 Z M5.9721,1.3719 C5.9721,1.2801 6.0078,1.1934 6.0792,1.1271 C6.1404,1.0557 6.222,1.02 6.3189,1.02 C6.4158,1.02 6.4974,1.0557 6.5688,1.1271 C6.6402,1.1985 6.6759,1.2801 6.6759,1.3719 C6.6759,1.4637 6.6402,1.5504 6.5688,1.6218 C6.4974,1.6932 6.4158,1.7289 6.3189,1.7289 C6.222,1.7289 6.1404,1.6932 6.0792,1.6218 C6.0078,1.5504 5.9721,1.4637 5.9721,1.3719 Z M6.9921,3.8556 C6.9921,3.7587 7.0278,3.672 7.0941,3.6006 C7.1604,3.5292 7.2471,3.4935 7.344,3.4935 C7.4358,3.4935 7.5174,3.5292 7.5837,3.6006 C7.65,3.672 7.6857,3.7536 7.6857,3.8556 C7.6857,3.9474 7.65,4.029 7.5837,4.0953 C7.5174,4.1616 7.4358,4.1973 7.344,4.1973 C7.2471,4.1973 7.1604,4.1616 7.0941,4.0953 C7.0278,4.029 6.9921,3.9474 6.9921,3.8556 Z"
                  id="Shape"></path>
        </g>
    </g>
</svg>
