<?xml version="1.0" encoding="UTF-8"?>
<svg width="32px" height="32px" viewBox="0 0 32 32" version="1.1" xmlns="http://www.w3.org/2000/svg"
>
    <!-- Generator: Sketch 57.1 (83088) - https://sketch.com -->
    <title>305_day</title>
    <desc>Created with Sketch.</desc>
    <g id="305_day" stroke="none" stroke-width="1" fill="none" fill-rule="evenodd">
        <g id="wi-horizon-alt"
           transform="translate(23.000000, 10.463617) rotate(40.000000) translate(-23.000000, -10.463617) translate(12.000000, 3.423617)"
           fill="#F7B500" fill-rule="nonzero">
            <path d="M0.1086096,10.762224 C0.1086096,10.5055104 0.197472,10.2981648 0.3751968,10.1500608 C0.5134272,10.0019568 0.7207728,9.922968 0.98736,9.922968 L3.0410688,9.922968 C3.2780352,9.922968 3.4853808,10.0019568 3.6334848,10.1599344 C3.7914624,10.317912 3.8704512,10.515384 3.8704512,10.7523504 C3.8704512,10.9893168 3.7914624,11.1867888 3.6334848,11.35464 C3.4755072,11.5224912 3.2780352,11.60148 3.0410688,11.60148 L0.98736,11.60148 C0.7503936,11.60148 0.543048,11.5224912 0.3653232,11.35464 C0.1875984,11.1966624 0.1086096,10.9991904 0.1086096,10.762224 Z M3.0410688,3.7618416 C3.0410688,3.505128 3.1200576,3.3175296 3.2681616,3.1792992 C3.4360128,3.0015744 3.6433584,2.912712 3.8803248,2.912712 C4.1172912,2.912712 4.3147632,3.0015744 4.4826144,3.1792992 L5.9044128,4.6208448 C6.0821376,4.7788224 6.1611264,4.9762944 6.1611264,5.2132608 C6.1611264,5.4601008 6.0821376,5.6575728 5.92416,5.8155504 C5.7661824,5.973528 5.5687104,6.0525168 5.331744,6.0525168 C5.1145248,6.0525168 4.9170528,5.973528 4.739328,5.8155504 L3.2681616,4.3641312 C3.1200576,4.2259008 3.0410688,4.0284288 3.0410688,3.7618416 Z M5.6082048,10.762224 C5.6082048,11.6212272 5.7859296,12.391368 6.1315056,13.0627728 C6.1611264,13.1516352 6.2401152,13.2010032 6.368472,13.2010032 L8.0173632,13.2010032 C8.0864784,13.2010032 8.1358464,13.181256 8.1555936,13.1417616 C8.1753408,13.1022672 8.14572,13.0430256 8.0864784,12.983784 C7.5631776,12.342 7.2965904,11.60148 7.2965904,10.762224 C7.2965904,9.7847376 7.65204,8.9454816 8.3530656,8.2543296 C9.0540912,7.5631776 9.8933472,7.2176016 10.8708336,7.2176016 C11.84832,7.2176016 12.687576,7.5631776 13.3886016,8.2543296 C14.0896272,8.9454816 14.4253296,9.7847376 14.4253296,10.762224 C14.4253296,11.6113536 14.1587424,12.3518736 13.6354416,12.983784 C13.5959472,13.0430256 13.5762,13.08252 13.5762,13.1022672 C13.5663264,13.131888 13.5762,13.1615088 13.6058208,13.1713824 C13.625568,13.1911296 13.6650624,13.2010032 13.7045568,13.2010032 L15.3830688,13.2010032 C15.4719312,13.2010032 15.5410464,13.1516352 15.5904144,13.0627728 C15.9656112,12.3617472 16.143336,11.60148 16.143336,10.762224 C16.143336,9.8143584 15.9063696,8.935608 15.4324368,8.1259728 C14.958504,7.3163376 14.31672,6.6745536 13.5070848,6.2006208 C12.6974496,5.726688 11.8186992,5.4897216 10.8708336,5.4897216 C9.922968,5.4897216 9.0442176,5.726688 8.2345824,6.2006208 C7.4249472,6.6745536 6.7831632,7.3163376 6.3092304,8.1259728 C5.8352976,8.935608 5.6082048,9.8143584 5.6082048,10.762224 Z M10.021704,2.9324592 L10.021704,0.8688768 C10.021704,0.6319104 10.1006928,0.4344384 10.268544,0.2567136 C10.4363952,0.0789888 10.6338672,0 10.8708336,0 C11.1078,0 11.305272,0.0888624 11.4829968,0.2567136 C11.650848,0.4245648 11.7397104,0.6319104 11.7397104,0.8688768 L11.7397104,2.9324592 C11.7397104,3.1694256 11.650848,3.3668976 11.4829968,3.5446224 C11.305272,3.7223472 11.1078,3.801336 10.8708336,3.801336 C10.6338672,3.801336 10.4363952,3.7124736 10.268544,3.5446224 C10.1006928,3.3668976 10.021704,3.1694256 10.021704,2.9324592 Z M15.5706672,5.2132608 C15.5706672,4.9762944 15.649656,4.7788224 15.8076336,4.6208448 L17.229432,3.1792992 C17.3972832,3.0015744 17.6046288,2.912712 17.8415952,2.912712 C18.0884352,2.912712 18.2957808,2.9917008 18.4537584,3.159552 C18.6216096,3.3274032 18.7005984,3.5248752 18.7005984,3.7618416 C18.7005984,4.0185552 18.6216096,4.2160272 18.4735056,4.3641312 L16.982592,5.8155504 C16.8246144,5.9636544 16.6271424,6.0327696 16.4000496,6.0327696 C16.1532096,6.0426432 15.9557376,5.9636544 15.79776,5.8155504 C15.649656,5.6674464 15.5706672,5.4601008 15.5706672,5.2132608 Z M17.871216,10.762224 C17.871216,10.4956368 17.9502048,10.2981648 18.1081824,10.1500608 C18.2464128,10.0019568 18.4438848,9.922968 18.6907248,9.922968 L20.7543072,9.922968 C20.9912736,9.922968 21.1986192,10.0019568 21.3664704,10.1599344 C21.5343216,10.317912 21.623184,10.515384 21.623184,10.7523504 C21.623184,10.9893168 21.5343216,11.1867888 21.3664704,11.35464 C21.1887456,11.5224912 20.9912736,11.60148 20.7543072,11.60148 L18.6907248,11.60148 C18.463632,11.60148 18.26616,11.5224912 18.1081824,11.35464 C17.9502048,11.1966624 17.871216,10.9991904 17.871216,10.762224 Z"
                  id="Shape"></path>
        </g>
        <g id="wi-cloud-down" transform="translate(1.000000, 9.423617)" fill="#57A0EE" fill-rule="nonzero">
            <path d="M0.68442,11.08536 C0.68442,12.58884 1.21176,13.86792 2.25522,14.94504 C3.29868,16.02216 4.57776,16.59438 6.07002,16.6617 C6.19344,16.6617 6.26076,16.59438 6.26076,16.47096 L6.26076,14.96748 C6.26076,14.83284 6.19344,14.76552 6.07002,14.76552 C5.1051,14.72064 4.28604,14.33916 3.61284,13.62108 C2.93964,12.903 2.60304,12.0615 2.60304,11.08536 C2.60304,10.1541 2.9172,9.34626 3.55674,8.65062 C4.19628,7.95498 4.98168,7.56228 5.91294,7.45008 L6.5076,7.4052 C6.65346,7.4052 6.732,7.33788 6.732,7.21446 L6.82176,6.59736 C6.93396,5.3856 7.43886,4.36458 8.34768,3.55674 C9.2565,2.73768 10.3224,2.33376 11.5566,2.33376 C12.77958,2.33376 13.84548,2.73768 14.76552,3.55674 C15.68556,4.3758 16.20168,5.3856 16.33632,6.59736 L16.41486,7.24812 C16.41486,7.37154 16.48218,7.43886 16.6056,7.43886 L18.42324,7.43886 C19.42182,7.43886 20.28576,7.7979 21.01506,8.5272 C21.74436,9.24528 22.11462,10.098 22.11462,11.08536 C22.11462,12.0615 21.77802,12.903 21.0936,13.62108 C20.40918,14.33916 19.59012,14.72064 18.63642,14.76552 C18.49056,14.76552 18.42324,14.83284 18.42324,14.96748 L18.42324,16.47096 C18.42324,16.59438 18.49056,16.6617 18.63642,16.6617 C19.62378,16.63926 20.52138,16.36998 21.34044,15.85386 C22.1595,15.34896 22.81026,14.67576 23.2815,13.83426 C23.75274,12.99276 23.98836,12.07272 23.98836,11.08536 C23.98836,10.07556 23.74152,9.1443 23.23662,8.3028 C22.74294,7.45008 22.05852,6.7881 21.2058,6.29442 C20.35308,5.80074 19.42182,5.56512 18.41202,5.56512 L18.04176,5.56512 C17.6715,4.06164 16.8861,2.83866 15.68556,1.87374 C14.48502,0.90882 13.09374,0.43758 11.54538,0.43758 C9.96336,0.43758 8.54964,0.93126 7.32666,1.9074 C6.10368,2.88354 5.30706,4.1514 4.95924,5.68854 C3.72504,5.98026 2.70402,6.63102 1.89618,7.64082 C1.08834,8.65062 0.68442,9.79506 0.68442,11.08536 Z"
                  id="Shape"></path>
        </g>
        <g id="wi-day-rain-mix" transform="translate(8.000000, 20.000000)" fill="#57A0EE" fill-rule="nonzero">
            <path d="M0.83,6.98 C0.83,7.15 0.88,7.32 0.99,7.49 C1.1,7.66 1.26,7.77 1.46,7.84 C1.69,7.91 1.91,7.9 2.1,7.8 C2.3,7.71 2.43,7.52 2.5,7.24 L2.64,6.63 C2.69,6.4 2.66,6.19 2.54,6 C2.42,5.8 2.25,5.67 2.02,5.6 C1.79,5.53 1.58,5.56 1.38,5.68 C1.18,5.8 1.06,5.97 1,6.2 L0.86,6.79 C0.84,6.85 0.83,6.91 0.83,6.98 Z M1.6,4.08 C1.6,4.3 1.68,4.49 1.84,4.65 C2,4.83 2.19,4.91 2.4,4.91 C2.64,4.91 2.84,4.83 3,4.67 C3.17,4.51 3.25,4.32 3.25,4.08 C3.25,3.85 3.17,3.65 3,3.49 C2.83,3.33 2.63,3.25 2.4,3.25 C2.17,3.25 1.98,3.33 1.82,3.48 C1.66,3.63 1.6,3.85 1.6,4.08 Z M2.21,1.81 C2.2,1.97 2.24,2.12 2.34,2.26 C2.44,2.41 2.6,2.51 2.82,2.58 C3.03,2.64 3.23,2.62 3.44,2.51 C3.65,2.4 3.79,2.23 3.86,2 L4.13,1.1 C4.2,0.86 4.18,0.64 4.06,0.45 C3.94,0.26 3.76,0.13 3.52,0.06 C3.3,-0.01 3.09,0.01 2.89,0.13 C2.69,0.24 2.55,0.41 2.48,0.63 L2.24,1.55 C2.22,1.71 2.21,1.8 2.21,1.81 Z M3.36,10.1 C3.36,10.27 3.41,10.43 3.52,10.59 C3.63,10.75 3.79,10.86 4.01,10.92 C4.1,10.94 4.18,10.95 4.25,10.95 C4.68,10.95 4.95,10.75 5.05,10.34 L5.18,9.75 C5.24,9.49 5.21,9.27 5.1,9.07 C4.99,8.87 4.81,8.75 4.58,8.7 C4.37,8.63 4.16,8.65 3.95,8.77 C3.74,8.89 3.61,9.06 3.54,9.28 L3.4,9.88 C3.37,9.99 3.36,10.07 3.36,10.1 Z M4.15,7.2 C4.15,7.43 4.23,7.62 4.39,7.78 C4.55,7.94 4.75,8.02 4.97,8.02 C5.21,8.02 5.4,7.94 5.56,7.79 C5.72,7.63 5.79,7.44 5.79,7.2 C5.79,6.97 5.71,6.78 5.56,6.62 C5.4,6.46 5.21,6.39 4.97,6.39 C4.73,6.39 4.54,6.47 4.38,6.62 C4.22,6.77 4.15,6.97 4.15,7.2 Z M4.77,4.93 C4.76,5.08 4.8,5.24 4.91,5.4 C5.01,5.56 5.16,5.66 5.36,5.7 C5.59,5.76 5.8,5.74 6,5.64 C6.2,5.54 6.33,5.35 6.41,5.08 L6.67,4.18 C6.74,3.96 6.72,3.75 6.6,3.55 C6.48,3.35 6.31,3.22 6.07,3.15 C5.85,3.08 5.64,3.11 5.43,3.23 C5.22,3.35 5.09,3.53 5.02,3.76 L4.8,4.66 C4.78,4.74 4.77,4.83 4.77,4.93 Z M7.53,7.08 C7.53,7.25 7.58,7.41 7.68,7.56 C7.78,7.71 7.93,7.82 8.14,7.88 C8.17,7.88 8.22,7.89 8.28,7.9 C8.34,7.91 8.39,7.92 8.42,7.92 C8.83,7.92 9.08,7.7 9.18,7.26 L9.32,6.66 C9.39,6.45 9.37,6.24 9.25,6.03 C9.13,5.82 8.96,5.69 8.74,5.62 C8.49,5.56 8.26,5.58 8.06,5.7 C7.86,5.82 7.72,5.99 7.65,6.23 L7.56,6.82 C7.56,6.83 7.56,6.87 7.55,6.93 C7.54,7 7.53,7.04 7.53,7.08 Z M8.27,4.12 C8.27,4.35 8.35,4.54 8.51,4.69 C8.66,4.85 8.85,4.93 9.09,4.93 C9.33,4.93 9.52,4.85 9.68,4.7 C9.84,4.54 9.91,4.35 9.91,4.12 C9.91,3.88 9.83,3.69 9.68,3.53 C9.52,3.37 9.33,3.3 9.09,3.3 C8.85,3.3 8.66,3.38 8.5,3.53 C8.34,3.68 8.27,3.88 8.27,4.12 Z M8.88,1.81 C8.88,1.98 8.93,2.14 9.04,2.29 C9.15,2.44 9.31,2.55 9.53,2.61 C9.55,2.61 9.59,2.62 9.65,2.63 C9.71,2.64 9.76,2.65 9.79,2.65 C9.9,2.65 10.02,2.62 10.16,2.56 C10.37,2.45 10.5,2.28 10.56,2.04 L10.8,1.14 C10.86,0.91 10.84,0.7 10.73,0.51 C10.62,0.32 10.45,0.18 10.23,0.11 C10,0.04 9.78,0.06 9.59,0.17 C9.39,0.28 9.26,0.44 9.19,0.68 L8.91,1.59 C8.91,1.61 8.91,1.64 8.9,1.7 C8.89,1.73 8.88,1.77 8.88,1.81 Z"
                  id="Shape"></path>
        </g>
    </g>
</svg>
