<?xml version="1.0" encoding="UTF-8"?>
<svg width="32px" height="32px" viewBox="0 0 32 32" version="1.1" xmlns="http://www.w3.org/2000/svg"
>
    <!-- Generator: Sketch 57.1 (83088) - https://sketch.com -->
    <title>311_night</title>
    <desc>Created with Sketch.</desc>
    <g id="311_night" stroke="none" stroke-width="1" fill="none" fill-rule="evenodd">
        <g id="wi-cloud-down" transform="translate(4.000000, 5.000000)" fill="#194D9B" fill-rule="nonzero">
            <path d="M0.68442,11.08536 C0.68442,12.58884 1.21176,13.86792 2.25522,14.94504 C3.29868,16.02216 4.57776,16.59438 6.07002,16.6617 C6.19344,16.6617 6.26076,16.59438 6.26076,16.47096 L6.26076,14.96748 C6.26076,14.83284 6.19344,14.76552 6.07002,14.76552 C5.1051,14.72064 4.28604,14.33916 3.61284,13.62108 C2.93964,12.903 2.60304,12.0615 2.60304,11.08536 C2.60304,10.1541 2.9172,9.34626 3.55674,8.65062 C4.19628,7.95498 4.98168,7.56228 5.91294,7.45008 L6.5076,7.4052 C6.65346,7.4052 6.732,7.33788 6.732,7.21446 L6.82176,6.59736 C6.93396,5.3856 7.43886,4.36458 8.34768,3.55674 C9.2565,2.73768 10.3224,2.33376 11.5566,2.33376 C12.77958,2.33376 13.84548,2.73768 14.76552,3.55674 C15.68556,4.3758 16.20168,5.3856 16.33632,6.59736 L16.41486,7.24812 C16.41486,7.37154 16.48218,7.43886 16.6056,7.43886 L18.42324,7.43886 C19.42182,7.43886 20.28576,7.7979 21.01506,8.5272 C21.74436,9.24528 22.11462,10.098 22.11462,11.08536 C22.11462,12.0615 21.77802,12.903 21.0936,13.62108 C20.40918,14.33916 19.59012,14.72064 18.63642,14.76552 C18.49056,14.76552 18.42324,14.83284 18.42324,14.96748 L18.42324,16.47096 C18.42324,16.59438 18.49056,16.6617 18.63642,16.6617 C19.62378,16.63926 20.52138,16.36998 21.34044,15.85386 C22.1595,15.34896 22.81026,14.67576 23.2815,13.83426 C23.75274,12.99276 23.98836,12.07272 23.98836,11.08536 C23.98836,10.07556 23.74152,9.1443 23.23662,8.3028 C22.74294,7.45008 22.05852,6.7881 21.2058,6.29442 C20.35308,5.80074 19.42182,5.56512 18.41202,5.56512 L18.04176,5.56512 C17.6715,4.06164 16.8861,2.83866 15.68556,1.87374 C14.48502,0.90882 13.09374,0.43758 11.54538,0.43758 C9.96336,0.43758 8.54964,0.93126 7.32666,1.9074 C6.10368,2.88354 5.30706,4.1514 4.95924,5.68854 C3.72504,5.98026 2.70402,6.63102 1.89618,7.64082 C1.08834,8.65062 0.68442,9.79506 0.68442,11.08536 Z"
                  id="Shape"></path>
        </g>
        <g id="wi-day-sprinkle" transform="translate(18.000000, 20.000000)" fill="#194D9B" fill-rule="nonzero">
            <path d="M0.3,2.48666667 C0.3,2.92666667 0.453333333,3.29333333 0.753333333,3.58666667 C1.05333333,3.88 1.42,4.03333333 1.85333333,4.03333333 C2.28666667,4.03333333 2.65333333,3.88 2.96,3.58 C3.26666667,3.27333333 3.41333333,2.91333333 3.41333333,2.48666667 C3.41333333,2.12666667 3.23333333,1.69333333 2.87333333,1.17333333 C2.56666667,0.766666667 2.28,0.44 2.02,0.18 C1.96666667,0.14 1.90666667,0.0933333333 1.84666667,0.0266666667 L1.69333333,0.18 C1.45333333,0.393333333 1.17333333,0.726666667 0.846666667,1.16 C0.486666667,1.66666667 0.3,2.10666667 0.3,2.48666667 Z"
                  id="Shape"></path>
        </g>
        <g id="wi-day-sprinkle" transform="translate(14.000000, 23.000000)" fill="#194D9B" fill-rule="nonzero">
            <path d="M0.3,2.48666667 C0.3,2.92666667 0.453333333,3.29333333 0.753333333,3.58666667 C1.05333333,3.88 1.42,4.03333333 1.85333333,4.03333333 C2.28666667,4.03333333 2.65333333,3.88 2.96,3.58 C3.26666667,3.27333333 3.41333333,2.91333333 3.41333333,2.48666667 C3.41333333,2.12666667 3.23333333,1.69333333 2.87333333,1.17333333 C2.56666667,0.766666667 2.28,0.44 2.02,0.18 C1.96666667,0.14 1.90666667,0.0933333333 1.84666667,0.0266666667 L1.69333333,0.18 C1.45333333,0.393333333 1.17333333,0.726666667 0.846666667,1.16 C0.486666667,1.66666667 0.3,2.10666667 0.3,2.48666667 Z"
                  id="Shape"></path>
        </g>
        <g id="wi-snowflake-cold" transform="translate(10.000000, 13.000000)" fill="#888888" fill-rule="nonzero">
            <path d="M2.30926389e-14,3.8556 C2.30926389e-14,3.7587 0.0357,3.672 0.102,3.6006 C0.1683,3.5292 0.2499,3.4935 0.3468,3.4935 C0.4437,3.4935 0.5304,3.5292 0.5967,3.6006 C0.663,3.672 0.6987,3.7536 0.6987,3.8556 C0.6987,3.9525 0.663,4.0341 0.5967,4.1004 C0.5304,4.1667 0.4437,4.2024 0.3519,4.2024 C0.2601,4.2024 0.1734,4.1667 0.1071,4.1004 C0.0306,4.029 2.30926389e-14,3.9474 2.30926389e-14,3.8556 Z M1.0098,3.8556 C1.0098,3.7587 1.0455,3.672 1.1118,3.6006 C1.1781,3.5292 1.2597,3.4935 1.3566,3.4935 L3.0039,3.4935 L1.8411,2.3307 C1.7697,2.2695 1.734,2.1879 1.734,2.091 C1.734,1.9941 1.7697,1.9125 1.8411,1.8411 C1.9125,1.7697 1.9941,1.734 2.091,1.734 C2.1879,1.734 2.2695,1.7697 2.3409,1.8411 L3.4986,2.9988 L3.4986,1.3617 C3.4986,1.2648 3.5343,1.1781 3.6057,1.1067 C3.6771,1.0353 3.7587,0.9996 3.8607,0.9996 C3.9576,0.9996 4.0392,1.0353 4.1055,1.1067 C4.1718,1.1781 4.2075,1.2597 4.2075,1.3617 L4.2075,3.009 L5.3754,1.836 C5.4468,1.7646 5.5284,1.7289 5.6202,1.7289 C5.712,1.7289 5.7987,1.7646 5.8701,1.836 C5.9313,1.9074 5.9619,1.989 5.9619,2.0859 C5.9619,2.1828 5.9313,2.2644 5.8701,2.3256 L4.7073,3.4884 L6.3546,3.4884 C6.4464,3.4884 6.528,3.5241 6.5943,3.5955 C6.6606,3.6669 6.6963,3.7485 6.6963,3.8505 C6.6963,3.9423 6.6606,4.0239 6.5943,4.0902 C6.528,4.1565 6.4464,4.1922 6.3546,4.1922 L4.7073,4.1922 L5.8752,5.3601 C5.9364,5.4213 5.967,5.5029 5.967,5.5998 C5.967,5.6967 5.9364,5.7783 5.8752,5.8497 C5.8038,5.9211 5.7171,5.9568 5.6253,5.9568 C5.5335,5.9568 5.4468,5.9211 5.3805,5.8497 L4.2126,4.6767 L4.2126,6.3291 C4.2126,6.426 4.1769,6.5127 4.1106,6.579 C4.0443,6.6453 3.9627,6.681 3.8658,6.681 C3.7689,6.681 3.6822,6.6453 3.6108,6.579 C3.5394,6.5127 3.5037,6.426 3.5037,6.3291 L3.5037,4.6869 L2.346,5.8446 C2.2746,5.916 2.193,5.9517 2.0961,5.9517 C1.9992,5.9517 1.9176,5.916 1.8462,5.8446 C1.7748,5.7732 1.7391,5.6916 1.7391,5.5947 C1.7391,5.4978 1.7748,5.4213 1.8462,5.355 L3.0192,4.1871 L1.3668,4.1871 C1.2699,4.1871 1.1883,4.1514 1.122,4.0851 C1.0404,4.029 1.0098,3.9474 1.0098,3.8556 Z M1.0149,6.324 C1.0149,6.2322 1.0506,6.1455 1.122,6.0792 C1.1832,6.0078 1.2648,5.9721 1.3617,5.9721 C1.4586,5.9721 1.5402,6.0078 1.6116,6.0792 C1.683,6.1506 1.7187,6.2322 1.7187,6.324 C1.7187,6.4158 1.683,6.5025 1.6116,6.5688 C1.5402,6.6402 1.4586,6.6759 1.3617,6.6759 C1.2648,6.6759 1.1832,6.6402 1.122,6.5688 C1.0506,6.5025 1.0149,6.4209 1.0149,6.324 Z M1.0149,1.3719 C1.0149,1.2801 1.0506,1.1934 1.122,1.1271 C1.1832,1.0557 1.2648,1.02 1.3617,1.02 C1.4586,1.02 1.5402,1.0557 1.6116,1.1271 C1.683,1.1985 1.7187,1.2801 1.7187,1.3719 C1.7187,1.4637 1.683,1.5504 1.6116,1.6218 C1.5402,1.6932 1.4586,1.7289 1.3617,1.7289 C1.2648,1.7289 1.1832,1.6932 1.122,1.6218 C1.0506,1.5504 1.0149,1.4637 1.0149,1.3719 Z M3.4884,7.344 C3.4884,7.2522 3.5241,7.1706 3.5955,7.1043 C3.6669,7.038 3.7485,7.0023 3.8505,7.0023 C3.9474,7.0023 4.029,7.038 4.0953,7.1043 C4.1616,7.1706 4.1973,7.2522 4.1973,7.344 C4.1973,7.4409 4.1616,7.5276 4.0953,7.5939 C4.029,7.6602 3.9474,7.6959 3.8505,7.6959 C3.7536,7.6959 3.6669,7.6602 3.5955,7.5939 C3.5241,7.5276 3.4884,7.446 3.4884,7.344 Z M3.4884,0.3519 C3.4884,0.255 3.5241,0.1683 3.5955,0.102 C3.6669,0.0357 3.7485,-1.0658141e-14 3.8505,-1.0658141e-14 C3.9474,-1.0658141e-14 4.029,0.0357 4.0953,0.102 C4.1616,0.1683 4.1973,0.255 4.1973,0.3519 C4.1973,0.4437 4.1616,0.5253 4.0953,0.5916 C4.029,0.6579 3.9474,0.6936 3.8505,0.6936 C3.7536,0.6936 3.6669,0.6579 3.5955,0.5916 C3.5241,0.5253 3.4884,0.4437 3.4884,0.3519 Z M5.9721,6.324 C5.9721,6.2322 6.0078,6.1455 6.0792,6.0792 C6.1404,6.0078 6.222,5.9721 6.3189,5.9721 C6.4158,5.9721 6.4974,6.0078 6.5688,6.0792 C6.6402,6.1506 6.6759,6.2322 6.6759,6.324 C6.6759,6.4158 6.6402,6.5025 6.5688,6.5688 C6.4974,6.6402 6.4158,6.6759 6.3189,6.6759 C6.222,6.6759 6.1404,6.6402 6.0792,6.5688 C6.0078,6.5025 5.9721,6.4209 5.9721,6.324 Z M5.9721,1.3719 C5.9721,1.2801 6.0078,1.1934 6.0792,1.1271 C6.1404,1.0557 6.222,1.02 6.3189,1.02 C6.4158,1.02 6.4974,1.0557 6.5688,1.1271 C6.6402,1.1985 6.6759,1.2801 6.6759,1.3719 C6.6759,1.4637 6.6402,1.5504 6.5688,1.6218 C6.4974,1.6932 6.4158,1.7289 6.3189,1.7289 C6.222,1.7289 6.1404,1.6932 6.0792,1.6218 C6.0078,1.5504 5.9721,1.4637 5.9721,1.3719 Z M6.9921,3.8556 C6.9921,3.7587 7.0278,3.672 7.0941,3.6006 C7.1604,3.5292 7.2471,3.4935 7.344,3.4935 C7.4358,3.4935 7.5174,3.5292 7.5837,3.6006 C7.65,3.672 7.6857,3.7536 7.6857,3.8556 C7.6857,3.9474 7.65,4.029 7.5837,4.0953 C7.5174,4.1616 7.4358,4.1973 7.344,4.1973 C7.2471,4.1973 7.1604,4.1616 7.0941,4.0953 C7.0278,4.029 6.9921,3.9474 6.9921,3.8556 Z"
                  id="Shape"></path>
        </g>
    </g>
</svg>
