<?xml version="1.0" encoding="UTF-8"?>
<svg width="32px" height="32px" viewBox="0 0 32 32" version="1.1" xmlns="http://www.w3.org/2000/svg"
>
    <!-- Generator: Sketch 57.1 (83088) - https://sketch.com -->
    <title>332_day</title>
    <desc>Created with Sketch.</desc>
    <g id="332_day" stroke="none" stroke-width="1" fill="none" fill-rule="evenodd">
        <g id="wi-cloud-down" transform="translate(4.000000, 6.000000)" fill="#57A0EE" fill-rule="nonzero">
            <path d="M0.68442,11.08536 C0.68442,12.58884 1.21176,13.86792 2.25522,14.94504 C3.29868,16.02216 4.57776,16.59438 6.07002,16.6617 C6.19344,16.6617 6.26076,16.59438 6.26076,16.47096 L6.26076,14.96748 C6.26076,14.83284 6.19344,14.76552 6.07002,14.76552 C5.1051,14.72064 4.28604,14.33916 3.61284,13.62108 C2.93964,12.903 2.60304,12.0615 2.60304,11.08536 C2.60304,10.1541 2.9172,9.34626 3.55674,8.65062 C4.19628,7.95498 4.98168,7.56228 5.91294,7.45008 L6.5076,7.4052 C6.65346,7.4052 6.732,7.33788 6.732,7.21446 L6.82176,6.59736 C6.93396,5.3856 7.43886,4.36458 8.34768,3.55674 C9.2565,2.73768 10.3224,2.33376 11.5566,2.33376 C12.77958,2.33376 13.84548,2.73768 14.76552,3.55674 C15.68556,4.3758 16.20168,5.3856 16.33632,6.59736 L16.41486,7.24812 C16.41486,7.37154 16.48218,7.43886 16.6056,7.43886 L18.42324,7.43886 C19.42182,7.43886 20.28576,7.7979 21.01506,8.5272 C21.74436,9.24528 22.11462,10.098 22.11462,11.08536 C22.11462,12.0615 21.77802,12.903 21.0936,13.62108 C20.40918,14.33916 19.59012,14.72064 18.63642,14.76552 C18.49056,14.76552 18.42324,14.83284 18.42324,14.96748 L18.42324,16.47096 C18.42324,16.59438 18.49056,16.6617 18.63642,16.6617 C19.62378,16.63926 20.52138,16.36998 21.34044,15.85386 C22.1595,15.34896 22.81026,14.67576 23.2815,13.83426 C23.75274,12.99276 23.98836,12.07272 23.98836,11.08536 C23.98836,10.07556 23.74152,9.1443 23.23662,8.3028 C22.74294,7.45008 22.05852,6.7881 21.2058,6.29442 C20.35308,5.80074 19.42182,5.56512 18.41202,5.56512 L18.04176,5.56512 C17.6715,4.06164 16.8861,2.83866 15.68556,1.87374 C14.48502,0.90882 13.09374,0.43758 11.54538,0.43758 C9.96336,0.43758 8.54964,0.93126 7.32666,1.9074 C6.10368,2.88354 5.30706,4.1514 4.95924,5.68854 C3.72504,5.98026 2.70402,6.63102 1.89618,7.64082 C1.08834,8.65062 0.68442,9.79506 0.68442,11.08536 Z"
                  id="Shape"></path>
        </g>
        <g id="wi-snowflake-cold" transform="translate(10.000000, 14.000000)" fill="#F7B500" fill-rule="nonzero">
            <path d="M2.30926389e-14,3.37365 C2.30926389e-14,3.2888625 0.0312375,3.213 0.08925,3.150525 C0.1472625,3.08805 0.2186625,3.0568125 0.30345,3.0568125 C0.3882375,3.0568125 0.4641,3.08805 0.5221125,3.150525 C0.580125,3.213 0.6113625,3.2844 0.6113625,3.37365 C0.6113625,3.4584375 0.580125,3.5298375 0.5221125,3.58785 C0.4641,3.6458625 0.3882375,3.6771 0.3079125,3.6771 C0.2275875,3.6771 0.151725,3.6458625 0.0937125,3.58785 C0.026775,3.525375 2.30926389e-14,3.453975 2.30926389e-14,3.37365 Z M0.883575,3.37365 C0.883575,3.2888625 0.9148125,3.213 0.972825,3.150525 C1.0308375,3.08805 1.1022375,3.0568125 1.187025,3.0568125 L2.6284125,3.0568125 L1.6109625,2.0393625 C1.5484875,1.9858125 1.51725,1.9144125 1.51725,1.829625 C1.51725,1.7448375 1.5484875,1.6734375 1.6109625,1.6109625 C1.6734375,1.5484875 1.7448375,1.51725 1.829625,1.51725 C1.9144125,1.51725 1.9858125,1.5484875 2.0482875,1.6109625 L3.061275,2.62395 L3.061275,1.1914875 C3.061275,1.1067 3.0925125,1.0308375 3.1549875,0.9683625 C3.2174625,0.9058875 3.2888625,0.87465 3.3781125,0.87465 C3.4629,0.87465 3.5343,0.9058875 3.5923125,0.9683625 C3.650325,1.0308375 3.6815625,1.1022375 3.6815625,1.1914875 L3.6815625,2.632875 L4.703475,1.6065 C4.76595,1.544025 4.83735,1.5127875 4.917675,1.5127875 C4.998,1.5127875 5.0738625,1.544025 5.1363375,1.6065 C5.1898875,1.668975 5.2166625,1.740375 5.2166625,1.8251625 C5.2166625,1.90995 5.1898875,1.98135 5.1363375,2.0349 L4.1188875,3.05235 L5.560275,3.05235 C5.6406,3.05235 5.712,3.0835875 5.7700125,3.1460625 C5.828025,3.2085375 5.8592625,3.2799375 5.8592625,3.3691875 C5.8592625,3.4495125 5.828025,3.5209125 5.7700125,3.578925 C5.712,3.6369375 5.6406,3.668175 5.560275,3.668175 L4.1188875,3.668175 L5.1408,4.6900875 C5.19435,4.7436375 5.221125,4.8150375 5.221125,4.899825 C5.221125,4.9846125 5.19435,5.0560125 5.1408,5.1184875 C5.078325,5.1809625 5.0024625,5.2122 4.9221375,5.2122 C4.8418125,5.2122 4.76595,5.1809625 4.7079375,5.1184875 L3.686025,4.0921125 L3.686025,5.5379625 C3.686025,5.62275 3.6547875,5.6986125 3.596775,5.756625 C3.5387625,5.8146375 3.4673625,5.845875 3.382575,5.845875 C3.2977875,5.845875 3.221925,5.8146375 3.15945,5.756625 C3.096975,5.6986125 3.0657375,5.62275 3.0657375,5.5379625 L3.0657375,4.1010375 L2.05275,5.114025 C1.990275,5.1765 1.918875,5.2077375 1.8340875,5.2077375 C1.7493,5.2077375 1.6779,5.1765 1.615425,5.114025 C1.55295,5.05155 1.5217125,4.98015 1.5217125,4.8953625 C1.5217125,4.810575 1.55295,4.7436375 1.615425,4.685625 L2.6418,3.6637125 L1.19595,3.6637125 C1.1111625,3.6637125 1.0397625,3.632475 0.98175,3.5744625 C0.91035,3.525375 0.883575,3.453975 0.883575,3.37365 Z M0.8880375,5.5335 C0.8880375,5.453175 0.919275,5.3773125 0.98175,5.3193 C1.0353,5.256825 1.1067,5.2255875 1.1914875,5.2255875 C1.276275,5.2255875 1.347675,5.256825 1.41015,5.3193 C1.472625,5.381775 1.5038625,5.453175 1.5038625,5.5335 C1.5038625,5.613825 1.472625,5.6896875 1.41015,5.7477 C1.347675,5.810175 1.276275,5.8414125 1.1914875,5.8414125 C1.1067,5.8414125 1.0353,5.810175 0.98175,5.7477 C0.919275,5.6896875 0.8880375,5.6182875 0.8880375,5.5335 Z M0.8880375,1.2004125 C0.8880375,1.1200875 0.919275,1.044225 0.98175,0.9862125 C1.0353,0.9237375 1.1067,0.8925 1.1914875,0.8925 C1.276275,0.8925 1.347675,0.9237375 1.41015,0.9862125 C1.472625,1.0486875 1.5038625,1.1200875 1.5038625,1.2004125 C1.5038625,1.2807375 1.472625,1.3566 1.41015,1.419075 C1.347675,1.48155 1.276275,1.5127875 1.1914875,1.5127875 C1.1067,1.5127875 1.0353,1.48155 0.98175,1.419075 C0.919275,1.3566 0.8880375,1.2807375 0.8880375,1.2004125 Z M3.05235,6.426 C3.05235,6.345675 3.0835875,6.274275 3.1460625,6.2162625 C3.2085375,6.15825 3.2799375,6.1270125 3.3691875,6.1270125 C3.453975,6.1270125 3.525375,6.15825 3.5833875,6.2162625 C3.6414,6.274275 3.6726375,6.345675 3.6726375,6.426 C3.6726375,6.5107875 3.6414,6.58665 3.5833875,6.6446625 C3.525375,6.702675 3.453975,6.7339125 3.3691875,6.7339125 C3.2844,6.7339125 3.2085375,6.702675 3.1460625,6.6446625 C3.0835875,6.58665 3.05235,6.51525 3.05235,6.426 Z M3.05235,0.3079125 C3.05235,0.223125 3.0835875,0.1472625 3.1460625,0.08925 C3.2085375,0.0312375 3.2799375,-1.0658141e-14 3.3691875,-1.0658141e-14 C3.453975,-1.0658141e-14 3.525375,0.0312375 3.5833875,0.08925 C3.6414,0.1472625 3.6726375,0.223125 3.6726375,0.3079125 C3.6726375,0.3882375 3.6414,0.4596375 3.5833875,0.51765 C3.525375,0.5756625 3.453975,0.6069 3.3691875,0.6069 C3.2844,0.6069 3.2085375,0.5756625 3.1460625,0.51765 C3.0835875,0.4596375 3.05235,0.3882375 3.05235,0.3079125 Z M5.2255875,5.5335 C5.2255875,5.453175 5.256825,5.3773125 5.3193,5.3193 C5.37285,5.256825 5.44425,5.2255875 5.5290375,5.2255875 C5.613825,5.2255875 5.685225,5.256825 5.7477,5.3193 C5.810175,5.381775 5.8414125,5.453175 5.8414125,5.5335 C5.8414125,5.613825 5.810175,5.6896875 5.7477,5.7477 C5.685225,5.810175 5.613825,5.8414125 5.5290375,5.8414125 C5.44425,5.8414125 5.37285,5.810175 5.3193,5.7477 C5.256825,5.6896875 5.2255875,5.6182875 5.2255875,5.5335 Z M5.2255875,1.2004125 C5.2255875,1.1200875 5.256825,1.044225 5.3193,0.9862125 C5.37285,0.9237375 5.44425,0.8925 5.5290375,0.8925 C5.613825,0.8925 5.685225,0.9237375 5.7477,0.9862125 C5.810175,1.0486875 5.8414125,1.1200875 5.8414125,1.2004125 C5.8414125,1.2807375 5.810175,1.3566 5.7477,1.419075 C5.685225,1.48155 5.613825,1.5127875 5.5290375,1.5127875 C5.44425,1.5127875 5.37285,1.48155 5.3193,1.419075 C5.256825,1.3566 5.2255875,1.2807375 5.2255875,1.2004125 Z M6.1180875,3.37365 C6.1180875,3.2888625 6.149325,3.213 6.2073375,3.150525 C6.26535,3.08805 6.3412125,3.0568125 6.426,3.0568125 C6.506325,3.0568125 6.577725,3.08805 6.6357375,3.150525 C6.69375,3.213 6.7249875,3.2844 6.7249875,3.37365 C6.7249875,3.453975 6.69375,3.525375 6.6357375,3.5833875 C6.577725,3.6414 6.506325,3.6726375 6.426,3.6726375 C6.3412125,3.6726375 6.26535,3.6414 6.2073375,3.5833875 C6.149325,3.525375 6.1180875,3.453975 6.1180875,3.37365 Z"
                  id="Shape"></path>
        </g>
        <g id="wi-snowflake-cold" transform="translate(13.000000, 21.000000)" fill="#57A0EE" fill-rule="nonzero">
            <path d="M2.30926389e-14,3.8556 C2.30926389e-14,3.7587 0.0357,3.672 0.102,3.6006 C0.1683,3.5292 0.2499,3.4935 0.3468,3.4935 C0.4437,3.4935 0.5304,3.5292 0.5967,3.6006 C0.663,3.672 0.6987,3.7536 0.6987,3.8556 C0.6987,3.9525 0.663,4.0341 0.5967,4.1004 C0.5304,4.1667 0.4437,4.2024 0.3519,4.2024 C0.2601,4.2024 0.1734,4.1667 0.1071,4.1004 C0.0306,4.029 2.30926389e-14,3.9474 2.30926389e-14,3.8556 Z M1.0098,3.8556 C1.0098,3.7587 1.0455,3.672 1.1118,3.6006 C1.1781,3.5292 1.2597,3.4935 1.3566,3.4935 L3.0039,3.4935 L1.8411,2.3307 C1.7697,2.2695 1.734,2.1879 1.734,2.091 C1.734,1.9941 1.7697,1.9125 1.8411,1.8411 C1.9125,1.7697 1.9941,1.734 2.091,1.734 C2.1879,1.734 2.2695,1.7697 2.3409,1.8411 L3.4986,2.9988 L3.4986,1.3617 C3.4986,1.2648 3.5343,1.1781 3.6057,1.1067 C3.6771,1.0353 3.7587,0.9996 3.8607,0.9996 C3.9576,0.9996 4.0392,1.0353 4.1055,1.1067 C4.1718,1.1781 4.2075,1.2597 4.2075,1.3617 L4.2075,3.009 L5.3754,1.836 C5.4468,1.7646 5.5284,1.7289 5.6202,1.7289 C5.712,1.7289 5.7987,1.7646 5.8701,1.836 C5.9313,1.9074 5.9619,1.989 5.9619,2.0859 C5.9619,2.1828 5.9313,2.2644 5.8701,2.3256 L4.7073,3.4884 L6.3546,3.4884 C6.4464,3.4884 6.528,3.5241 6.5943,3.5955 C6.6606,3.6669 6.6963,3.7485 6.6963,3.8505 C6.6963,3.9423 6.6606,4.0239 6.5943,4.0902 C6.528,4.1565 6.4464,4.1922 6.3546,4.1922 L4.7073,4.1922 L5.8752,5.3601 C5.9364,5.4213 5.967,5.5029 5.967,5.5998 C5.967,5.6967 5.9364,5.7783 5.8752,5.8497 C5.8038,5.9211 5.7171,5.9568 5.6253,5.9568 C5.5335,5.9568 5.4468,5.9211 5.3805,5.8497 L4.2126,4.6767 L4.2126,6.3291 C4.2126,6.426 4.1769,6.5127 4.1106,6.579 C4.0443,6.6453 3.9627,6.681 3.8658,6.681 C3.7689,6.681 3.6822,6.6453 3.6108,6.579 C3.5394,6.5127 3.5037,6.426 3.5037,6.3291 L3.5037,4.6869 L2.346,5.8446 C2.2746,5.916 2.193,5.9517 2.0961,5.9517 C1.9992,5.9517 1.9176,5.916 1.8462,5.8446 C1.7748,5.7732 1.7391,5.6916 1.7391,5.5947 C1.7391,5.4978 1.7748,5.4213 1.8462,5.355 L3.0192,4.1871 L1.3668,4.1871 C1.2699,4.1871 1.1883,4.1514 1.122,4.0851 C1.0404,4.029 1.0098,3.9474 1.0098,3.8556 Z M1.0149,6.324 C1.0149,6.2322 1.0506,6.1455 1.122,6.0792 C1.1832,6.0078 1.2648,5.9721 1.3617,5.9721 C1.4586,5.9721 1.5402,6.0078 1.6116,6.0792 C1.683,6.1506 1.7187,6.2322 1.7187,6.324 C1.7187,6.4158 1.683,6.5025 1.6116,6.5688 C1.5402,6.6402 1.4586,6.6759 1.3617,6.6759 C1.2648,6.6759 1.1832,6.6402 1.122,6.5688 C1.0506,6.5025 1.0149,6.4209 1.0149,6.324 Z M1.0149,1.3719 C1.0149,1.2801 1.0506,1.1934 1.122,1.1271 C1.1832,1.0557 1.2648,1.02 1.3617,1.02 C1.4586,1.02 1.5402,1.0557 1.6116,1.1271 C1.683,1.1985 1.7187,1.2801 1.7187,1.3719 C1.7187,1.4637 1.683,1.5504 1.6116,1.6218 C1.5402,1.6932 1.4586,1.7289 1.3617,1.7289 C1.2648,1.7289 1.1832,1.6932 1.122,1.6218 C1.0506,1.5504 1.0149,1.4637 1.0149,1.3719 Z M3.4884,7.344 C3.4884,7.2522 3.5241,7.1706 3.5955,7.1043 C3.6669,7.038 3.7485,7.0023 3.8505,7.0023 C3.9474,7.0023 4.029,7.038 4.0953,7.1043 C4.1616,7.1706 4.1973,7.2522 4.1973,7.344 C4.1973,7.4409 4.1616,7.5276 4.0953,7.5939 C4.029,7.6602 3.9474,7.6959 3.8505,7.6959 C3.7536,7.6959 3.6669,7.6602 3.5955,7.5939 C3.5241,7.5276 3.4884,7.446 3.4884,7.344 Z M3.4884,0.3519 C3.4884,0.255 3.5241,0.1683 3.5955,0.102 C3.6669,0.0357 3.7485,-1.0658141e-14 3.8505,-1.0658141e-14 C3.9474,-1.0658141e-14 4.029,0.0357 4.0953,0.102 C4.1616,0.1683 4.1973,0.255 4.1973,0.3519 C4.1973,0.4437 4.1616,0.5253 4.0953,0.5916 C4.029,0.6579 3.9474,0.6936 3.8505,0.6936 C3.7536,0.6936 3.6669,0.6579 3.5955,0.5916 C3.5241,0.5253 3.4884,0.4437 3.4884,0.3519 Z M5.9721,6.324 C5.9721,6.2322 6.0078,6.1455 6.0792,6.0792 C6.1404,6.0078 6.222,5.9721 6.3189,5.9721 C6.4158,5.9721 6.4974,6.0078 6.5688,6.0792 C6.6402,6.1506 6.6759,6.2322 6.6759,6.324 C6.6759,6.4158 6.6402,6.5025 6.5688,6.5688 C6.4974,6.6402 6.4158,6.6759 6.3189,6.6759 C6.222,6.6759 6.1404,6.6402 6.0792,6.5688 C6.0078,6.5025 5.9721,6.4209 5.9721,6.324 Z M5.9721,1.3719 C5.9721,1.2801 6.0078,1.1934 6.0792,1.1271 C6.1404,1.0557 6.222,1.02 6.3189,1.02 C6.4158,1.02 6.4974,1.0557 6.5688,1.1271 C6.6402,1.1985 6.6759,1.2801 6.6759,1.3719 C6.6759,1.4637 6.6402,1.5504 6.5688,1.6218 C6.4974,1.6932 6.4158,1.7289 6.3189,1.7289 C6.222,1.7289 6.1404,1.6932 6.0792,1.6218 C6.0078,1.5504 5.9721,1.4637 5.9721,1.3719 Z M6.9921,3.8556 C6.9921,3.7587 7.0278,3.672 7.0941,3.6006 C7.1604,3.5292 7.2471,3.4935 7.344,3.4935 C7.4358,3.4935 7.5174,3.5292 7.5837,3.6006 C7.65,3.672 7.6857,3.7536 7.6857,3.8556 C7.6857,3.9474 7.65,4.029 7.5837,4.0953 C7.5174,4.1616 7.4358,4.1973 7.344,4.1973 C7.2471,4.1973 7.1604,4.1616 7.0941,4.0953 C7.0278,4.029 6.9921,3.9474 6.9921,3.8556 Z"
                  id="Shape"></path>
        </g>
    </g>
</svg>
