<?xml version="1.0" encoding="UTF-8"?>
<svg width="32px" height="32px" viewBox="0 0 32 32" version="1.1" xmlns="http://www.w3.org/2000/svg"
>
    <!-- Generator: Sketch 57.1 (83088) - https://sketch.com -->
    <title>365_night</title>
    <desc>Created with Sketch.</desc>
    <g id="365_night" stroke="none" stroke-width="1" fill="none" fill-rule="evenodd">
        <g id="wi-night-clear"
           transform="translate(23.500000, 11.500000) rotate(-3.000000) translate(-23.500000, -11.500000) translate(16.000000, 4.000000)"
           fill="#888888" fill-rule="nonzero">
            <path d="M8.14,0.38 C8.3,0.42 8.37,0.52 8.37,0.66 L8.42,1.54 C8.46,2.81 8.91,3.89 9.79,4.78 C10.67,5.67 11.73,6.15 12.98,6.2 L13.8,6.27 C13.96,6.27 14.04,6.35 14.04,6.5 L14.04,7.48 C14.05,8.76 13.74,9.95 13.11,11.04 C12.48,12.13 11.63,12.99 10.54,13.63 C10.0549153,13.9129661 9.54763933,14.1333934 9.01998444,14.2903758 L7.61029494,12.7807266 C7.99497439,12.7303621 8.38248719,12.6310643 8.77,12.48 C9.36,12.25 9.91,11.93 10.42,11.52 C10.93,11.11 11.36,10.59 11.73,9.95 C12.1,9.31 12.33,8.62 12.44,7.86 C10.81,7.52 9.5,6.82 8.52,5.76 C7.54,4.7 6.97,3.46 6.82,2.02 C5.86,2.08 5,2.37 4.21,2.9 C3.43,3.43 2.82,4.1 2.39,4.92 C2.10934732,5.45519814 1.91815297,6.00317603 1.81919731,6.56671406 L0.366067624,5.00725606 C0.39943968,4.90784099 0.434083805,4.8154223 0.47,4.73 C0.84,3.85 1.35,3.1 1.98,2.47 C2.61,1.84 3.37,1.33 4.25,0.95 C5.13,0.57 6.05,0.38 7,0.38 L8.14,0.38 Z"
                  id="Shape"></path>
        </g>
        <g id="wi-cloud-down" transform="translate(2.000000, 8.163201)" fill="#194D9B" fill-rule="nonzero">
            <path d="M0.68442,11.08536 C0.68442,12.58884 1.21176,13.86792 2.25522,14.94504 C3.29868,16.02216 4.57776,16.59438 6.07002,16.6617 C6.19344,16.6617 6.26076,16.59438 6.26076,16.47096 L6.26076,14.96748 C6.26076,14.83284 6.19344,14.76552 6.07002,14.76552 C5.1051,14.72064 4.28604,14.33916 3.61284,13.62108 C2.93964,12.903 2.60304,12.0615 2.60304,11.08536 C2.60304,10.1541 2.9172,9.34626 3.55674,8.65062 C4.19628,7.95498 4.98168,7.56228 5.91294,7.45008 L6.5076,7.4052 C6.65346,7.4052 6.732,7.33788 6.732,7.21446 L6.82176,6.59736 C6.93396,5.3856 7.43886,4.36458 8.34768,3.55674 C9.2565,2.73768 10.3224,2.33376 11.5566,2.33376 C12.77958,2.33376 13.84548,2.73768 14.76552,3.55674 C15.68556,4.3758 16.20168,5.3856 16.33632,6.59736 L16.41486,7.24812 C16.41486,7.37154 16.48218,7.43886 16.6056,7.43886 L18.42324,7.43886 C19.42182,7.43886 20.28576,7.7979 21.01506,8.5272 C21.74436,9.24528 22.11462,10.098 22.11462,11.08536 C22.11462,12.0615 21.77802,12.903 21.0936,13.62108 C20.40918,14.33916 19.59012,14.72064 18.63642,14.76552 C18.49056,14.76552 18.42324,14.83284 18.42324,14.96748 L18.42324,16.47096 C18.42324,16.59438 18.49056,16.6617 18.63642,16.6617 C19.62378,16.63926 20.52138,16.36998 21.34044,15.85386 C22.1595,15.34896 22.81026,14.67576 23.2815,13.83426 C23.75274,12.99276 23.98836,12.07272 23.98836,11.08536 C23.98836,10.07556 23.74152,9.1443 23.23662,8.3028 C22.74294,7.45008 22.05852,6.7881 21.2058,6.29442 C20.35308,5.80074 19.42182,5.56512 18.41202,5.56512 L18.04176,5.56512 C17.6715,4.06164 16.8861,2.83866 15.68556,1.87374 C14.48502,0.90882 13.09374,0.43758 11.54538,0.43758 C9.96336,0.43758 8.54964,0.93126 7.32666,1.9074 C6.10368,2.88354 5.30706,4.1514 4.95924,5.68854 C3.72504,5.98026 2.70402,6.63102 1.89618,7.64082 C1.08834,8.65062 0.68442,9.79506 0.68442,11.08536 Z"
                  id="Shape"></path>
        </g>
        <g id="wi-day-sleet" transform="translate(10.000000, 22.000000)" fill="#888888" fill-rule="nonzero">
            <path d="M0,3.93719042 C0,3.90719042 0.01,3.86719042 0.02,3.80719042 C0.03,3.75719042 0.04,3.71719042 0.04,3.68719042 L0.13,3.09719042 C0.2,2.85719042 0.33,2.68719042 0.54,2.56719042 C0.74,2.44719042 0.97,2.42719042 1.22,2.48719042 C1.45,2.55719042 1.61,2.68719042 1.73,2.89719042 C1.84,3.09719042 1.86,3.30719042 1.8,3.51719042 L1.66,4.11719042 C1.56,4.55719042 1.31,4.77719042 0.9,4.77719042 C0.87,4.77719042 0.82,4.77719042 0.75,4.76719042 C0.68,4.75719042 0.64,4.75719042 0.62,4.75719042 C0.41,4.69719042 0.26,4.58719042 0.16,4.42719042 C0.05,4.27719042 0,4.10719042 0,3.93719042 Z M0.74,0.997190415 C0.74,0.757190415 0.82,0.567190415 0.97,0.407190415 C1.13,0.247190415 1.32,0.177190415 1.56,0.177190415 C1.8,0.177190415 1.99,0.257190415 2.15,0.407190415 C2.31,0.567190415 2.38,0.757190415 2.38,0.997190415 C2.38,1.22719042 2.3,1.41719042 2.15,1.57719042 C2,1.73719042 1.8,1.80719042 1.56,1.80719042 C1.33,1.80719042 1.14,1.72719042 0.99,1.56719042 C0.82,1.40719042 0.74,1.21719042 0.74,0.997190415 Z M2.38,6.97719042 C2.38,6.93719042 2.39,6.86719042 2.42,6.74719042 L2.55,6.16719042 C2.62,5.93719042 2.76,5.76719042 2.96,5.65719042 C3.17,5.53719042 3.38,5.51719042 3.59,5.58719042 C3.82,5.62719042 4,5.75719042 4.12,5.95719042 C4.24,6.15719042 4.27,6.38719042 4.2,6.63719042 L4.07,7.22719042 C3.97,7.63719042 3.7,7.83719042 3.27,7.83719042 C3.22,7.83719042 3.14,7.82719042 3.03,7.79719042 C2.81,7.73719042 2.65,7.62719042 2.54,7.46719042 C2.43,7.30719042 2.38,7.14719042 2.38,6.97719042 Z M3.17,4.07719042 C3.17,3.84719042 3.25,3.64719042 3.4,3.49719042 C3.56,3.33719042 3.75,3.26719042 3.99,3.26719042 C4.23,3.26719042 4.42,3.34719042 4.58,3.49719042 C4.74,3.65719042 4.81,3.84719042 4.81,4.07719042 C4.81,4.31719042 4.73,4.50719042 4.58,4.66719042 C4.42,4.82719042 4.23,4.89719042 3.99,4.89719042 C3.77,4.89719042 3.58,4.81719042 3.41,4.64719042 C3.25,4.48719042 3.17,4.29719042 3.17,4.07719042 Z M3.79,1.80719042 C3.79,1.71719042 3.8,1.62719042 3.82,1.54719042 L4.05,0.647190415 C4.12,0.417190415 4.26,0.237190415 4.46,0.117190415 C4.67,-0.00280958455 4.88,-0.0328095846 5.1,0.0371904154 C5.34,0.107190415 5.51,0.237190415 5.63,0.437190415 C5.75,0.637190415 5.77,0.837190415 5.7,1.05719042 L5.44,1.95719042 C5.36,2.22719042 5.22,2.41719042 5.03,2.52719042 C4.84,2.63719042 4.62,2.64719042 4.39,2.58719042 C4.19,2.54719042 4.04,2.44719042 3.94,2.28719042 C3.82,2.10719042 3.77,1.95719042 3.79,1.80719042 Z M6.55,3.94719042 C6.55,3.91719042 6.55,3.87719042 6.56,3.81719042 C6.57,3.75719042 6.57,3.72719042 6.57,3.70719042 L6.66,3.11719042 C6.73,2.87719042 6.86,2.70719042 7.07,2.58719042 C7.27,2.46719042 7.5,2.44719042 7.75,2.50719042 C7.98,2.57719042 8.15,2.71719042 8.26,2.91719042 C8.38,3.12719042 8.4,3.33719042 8.33,3.54719042 L8.19,4.14719042 C8.09,4.57719042 7.84,4.79719042 7.43,4.79719042 C7.4,4.79719042 7.35,4.79719042 7.28,4.78719042 C7.21,4.77719042 7.17,4.77719042 7.15,4.77719042 C6.95,4.71719042 6.8,4.60719042 6.7,4.44719042 C6.6,4.27719042 6.55,4.11719042 6.55,3.94719042 Z M7.29,1.00719042 C7.29,0.767190415 7.37,0.577190415 7.52,0.417190415 C7.68,0.257190415 7.87,0.187190415 8.11,0.187190415 C8.35,0.187190415 8.54,0.267190415 8.7,0.417190415 C8.86,0.577190415 8.93,0.767190415 8.93,1.00719042 C8.93,1.23719042 8.85,1.43719042 8.7,1.58719042 C8.54,1.74719042 8.35,1.81719042 8.11,1.81719042 C7.88,1.81719042 7.68,1.73719042 7.53,1.56719042 C7.37,1.41719042 7.29,1.22719042 7.29,1.00719042 Z"
                  id="Shape"></path>
        </g>
    </g>
</svg>
