<?xml version="1.0" encoding="UTF-8"?>
<svg width="32px" height="32px" viewBox="0 0 32 32" version="1.1" xmlns="http://www.w3.org/2000/svg"
>
    <!-- Generator: Sketch 57.1 (83088) - https://sketch.com -->
    <title>365_day</title>
    <desc>Created with Sketch.</desc>
    <g id="365_day" stroke="none" stroke-width="1" fill="none" fill-rule="evenodd">
        <g id="wi-horizon-alt"
           transform="translate(23.000000, 10.463617) rotate(40.000000) translate(-23.000000, -10.463617) translate(12.000000, 3.423617)"
           fill="#F7B500" fill-rule="nonzero">
            <path d="M0.1086096,10.762224 C0.1086096,10.5055104 0.197472,10.2981648 0.3751968,10.1500608 C0.5134272,10.0019568 0.7207728,9.922968 0.98736,9.922968 L3.0410688,9.922968 C3.2780352,9.922968 3.4853808,10.0019568 3.6334848,10.1599344 C3.7914624,10.317912 3.8704512,10.515384 3.8704512,10.7523504 C3.8704512,10.9893168 3.7914624,11.1867888 3.6334848,11.35464 C3.4755072,11.5224912 3.2780352,11.60148 3.0410688,11.60148 L0.98736,11.60148 C0.7503936,11.60148 0.543048,11.5224912 0.3653232,11.35464 C0.1875984,11.1966624 0.1086096,10.9991904 0.1086096,10.762224 Z M3.0410688,3.7618416 C3.0410688,3.505128 3.1200576,3.3175296 3.2681616,3.1792992 C3.4360128,3.0015744 3.6433584,2.912712 3.8803248,2.912712 C4.1172912,2.912712 4.3147632,3.0015744 4.4826144,3.1792992 L5.9044128,4.6208448 C6.0821376,4.7788224 6.1611264,4.9762944 6.1611264,5.2132608 C6.1611264,5.4601008 6.0821376,5.6575728 5.92416,5.8155504 C5.7661824,5.973528 5.5687104,6.0525168 5.331744,6.0525168 C5.1145248,6.0525168 4.9170528,5.973528 4.739328,5.8155504 L3.2681616,4.3641312 C3.1200576,4.2259008 3.0410688,4.0284288 3.0410688,3.7618416 Z M5.6082048,10.762224 C5.6082048,11.6212272 5.7859296,12.391368 6.1315056,13.0627728 C6.1611264,13.1516352 6.2401152,13.2010032 6.368472,13.2010032 L8.0173632,13.2010032 C8.0864784,13.2010032 8.1358464,13.181256 8.1555936,13.1417616 C8.1753408,13.1022672 8.14572,13.0430256 8.0864784,12.983784 C7.5631776,12.342 7.2965904,11.60148 7.2965904,10.762224 C7.2965904,9.7847376 7.65204,8.9454816 8.3530656,8.2543296 C9.0540912,7.5631776 9.8933472,7.2176016 10.8708336,7.2176016 C11.84832,7.2176016 12.687576,7.5631776 13.3886016,8.2543296 C14.0896272,8.9454816 14.4253296,9.7847376 14.4253296,10.762224 C14.4253296,11.6113536 14.1587424,12.3518736 13.6354416,12.983784 C13.5959472,13.0430256 13.5762,13.08252 13.5762,13.1022672 C13.5663264,13.131888 13.5762,13.1615088 13.6058208,13.1713824 C13.625568,13.1911296 13.6650624,13.2010032 13.7045568,13.2010032 L15.3830688,13.2010032 C15.4719312,13.2010032 15.5410464,13.1516352 15.5904144,13.0627728 C15.9656112,12.3617472 16.143336,11.60148 16.143336,10.762224 C16.143336,9.8143584 15.9063696,8.935608 15.4324368,8.1259728 C14.958504,7.3163376 14.31672,6.6745536 13.5070848,6.2006208 C12.6974496,5.726688 11.8186992,5.4897216 10.8708336,5.4897216 C9.922968,5.4897216 9.0442176,5.726688 8.2345824,6.2006208 C7.4249472,6.6745536 6.7831632,7.3163376 6.3092304,8.1259728 C5.8352976,8.935608 5.6082048,9.8143584 5.6082048,10.762224 Z M10.021704,2.9324592 L10.021704,0.8688768 C10.021704,0.6319104 10.1006928,0.4344384 10.268544,0.2567136 C10.4363952,0.0789888 10.6338672,0 10.8708336,0 C11.1078,0 11.305272,0.0888624 11.4829968,0.2567136 C11.650848,0.4245648 11.7397104,0.6319104 11.7397104,0.8688768 L11.7397104,2.9324592 C11.7397104,3.1694256 11.650848,3.3668976 11.4829968,3.5446224 C11.305272,3.7223472 11.1078,3.801336 10.8708336,3.801336 C10.6338672,3.801336 10.4363952,3.7124736 10.268544,3.5446224 C10.1006928,3.3668976 10.021704,3.1694256 10.021704,2.9324592 Z M15.5706672,5.2132608 C15.5706672,4.9762944 15.649656,4.7788224 15.8076336,4.6208448 L17.229432,3.1792992 C17.3972832,3.0015744 17.6046288,2.912712 17.8415952,2.912712 C18.0884352,2.912712 18.2957808,2.9917008 18.4537584,3.159552 C18.6216096,3.3274032 18.7005984,3.5248752 18.7005984,3.7618416 C18.7005984,4.0185552 18.6216096,4.2160272 18.4735056,4.3641312 L16.982592,5.8155504 C16.8246144,5.9636544 16.6271424,6.0327696 16.4000496,6.0327696 C16.1532096,6.0426432 15.9557376,5.9636544 15.79776,5.8155504 C15.649656,5.6674464 15.5706672,5.4601008 15.5706672,5.2132608 Z M17.871216,10.762224 C17.871216,10.4956368 17.9502048,10.2981648 18.1081824,10.1500608 C18.2464128,10.0019568 18.4438848,9.922968 18.6907248,9.922968 L20.7543072,9.922968 C20.9912736,9.922968 21.1986192,10.0019568 21.3664704,10.1599344 C21.5343216,10.317912 21.623184,10.515384 21.623184,10.7523504 C21.623184,10.9893168 21.5343216,11.1867888 21.3664704,11.35464 C21.1887456,11.5224912 20.9912736,11.60148 20.7543072,11.60148 L18.6907248,11.60148 C18.463632,11.60148 18.26616,11.5224912 18.1081824,11.35464 C17.9502048,11.1966624 17.871216,10.9991904 17.871216,10.762224 Z"
                  id="Shape"></path>
        </g>
        <g id="wi-cloud-down" transform="translate(1.000000, 9.423617)" fill="#57A0EE" fill-rule="nonzero">
            <path d="M0.68442,11.08536 C0.68442,12.58884 1.21176,13.86792 2.25522,14.94504 C3.29868,16.02216 4.57776,16.59438 6.07002,16.6617 C6.19344,16.6617 6.26076,16.59438 6.26076,16.47096 L6.26076,14.96748 C6.26076,14.83284 6.19344,14.76552 6.07002,14.76552 C5.1051,14.72064 4.28604,14.33916 3.61284,13.62108 C2.93964,12.903 2.60304,12.0615 2.60304,11.08536 C2.60304,10.1541 2.9172,9.34626 3.55674,8.65062 C4.19628,7.95498 4.98168,7.56228 5.91294,7.45008 L6.5076,7.4052 C6.65346,7.4052 6.732,7.33788 6.732,7.21446 L6.82176,6.59736 C6.93396,5.3856 7.43886,4.36458 8.34768,3.55674 C9.2565,2.73768 10.3224,2.33376 11.5566,2.33376 C12.77958,2.33376 13.84548,2.73768 14.76552,3.55674 C15.68556,4.3758 16.20168,5.3856 16.33632,6.59736 L16.41486,7.24812 C16.41486,7.37154 16.48218,7.43886 16.6056,7.43886 L18.42324,7.43886 C19.42182,7.43886 20.28576,7.7979 21.01506,8.5272 C21.74436,9.24528 22.11462,10.098 22.11462,11.08536 C22.11462,12.0615 21.77802,12.903 21.0936,13.62108 C20.40918,14.33916 19.59012,14.72064 18.63642,14.76552 C18.49056,14.76552 18.42324,14.83284 18.42324,14.96748 L18.42324,16.47096 C18.42324,16.59438 18.49056,16.6617 18.63642,16.6617 C19.62378,16.63926 20.52138,16.36998 21.34044,15.85386 C22.1595,15.34896 22.81026,14.67576 23.2815,13.83426 C23.75274,12.99276 23.98836,12.07272 23.98836,11.08536 C23.98836,10.07556 23.74152,9.1443 23.23662,8.3028 C22.74294,7.45008 22.05852,6.7881 21.2058,6.29442 C20.35308,5.80074 19.42182,5.56512 18.41202,5.56512 L18.04176,5.56512 C17.6715,4.06164 16.8861,2.83866 15.68556,1.87374 C14.48502,0.90882 13.09374,0.43758 11.54538,0.43758 C9.96336,0.43758 8.54964,0.93126 7.32666,1.9074 C6.10368,2.88354 5.30706,4.1514 4.95924,5.68854 C3.72504,5.98026 2.70402,6.63102 1.89618,7.64082 C1.08834,8.65062 0.68442,9.79506 0.68442,11.08536 Z"
                  id="Shape"></path>
        </g>
        <g id="wi-day-sleet" transform="translate(9.000000, 23.000000)" fill="#F7B500" fill-rule="nonzero">
            <path d="M0,3.93719042 C0,3.90719042 0.01,3.86719042 0.02,3.80719042 C0.03,3.75719042 0.04,3.71719042 0.04,3.68719042 L0.13,3.09719042 C0.2,2.85719042 0.33,2.68719042 0.54,2.56719042 C0.74,2.44719042 0.97,2.42719042 1.22,2.48719042 C1.45,2.55719042 1.61,2.68719042 1.73,2.89719042 C1.84,3.09719042 1.86,3.30719042 1.8,3.51719042 L1.66,4.11719042 C1.56,4.55719042 1.31,4.77719042 0.9,4.77719042 C0.87,4.77719042 0.82,4.77719042 0.75,4.76719042 C0.68,4.75719042 0.64,4.75719042 0.62,4.75719042 C0.41,4.69719042 0.26,4.58719042 0.16,4.42719042 C0.05,4.27719042 0,4.10719042 0,3.93719042 Z M0.74,0.997190415 C0.74,0.757190415 0.82,0.567190415 0.97,0.407190415 C1.13,0.247190415 1.32,0.177190415 1.56,0.177190415 C1.8,0.177190415 1.99,0.257190415 2.15,0.407190415 C2.31,0.567190415 2.38,0.757190415 2.38,0.997190415 C2.38,1.22719042 2.3,1.41719042 2.15,1.57719042 C2,1.73719042 1.8,1.80719042 1.56,1.80719042 C1.33,1.80719042 1.14,1.72719042 0.99,1.56719042 C0.82,1.40719042 0.74,1.21719042 0.74,0.997190415 Z M2.38,6.97719042 C2.38,6.93719042 2.39,6.86719042 2.42,6.74719042 L2.55,6.16719042 C2.62,5.93719042 2.76,5.76719042 2.96,5.65719042 C3.17,5.53719042 3.38,5.51719042 3.59,5.58719042 C3.82,5.62719042 4,5.75719042 4.12,5.95719042 C4.24,6.15719042 4.27,6.38719042 4.2,6.63719042 L4.07,7.22719042 C3.97,7.63719042 3.7,7.83719042 3.27,7.83719042 C3.22,7.83719042 3.14,7.82719042 3.03,7.79719042 C2.81,7.73719042 2.65,7.62719042 2.54,7.46719042 C2.43,7.30719042 2.38,7.14719042 2.38,6.97719042 Z M3.17,4.07719042 C3.17,3.84719042 3.25,3.64719042 3.4,3.49719042 C3.56,3.33719042 3.75,3.26719042 3.99,3.26719042 C4.23,3.26719042 4.42,3.34719042 4.58,3.49719042 C4.74,3.65719042 4.81,3.84719042 4.81,4.07719042 C4.81,4.31719042 4.73,4.50719042 4.58,4.66719042 C4.42,4.82719042 4.23,4.89719042 3.99,4.89719042 C3.77,4.89719042 3.58,4.81719042 3.41,4.64719042 C3.25,4.48719042 3.17,4.29719042 3.17,4.07719042 Z M3.79,1.80719042 C3.79,1.71719042 3.8,1.62719042 3.82,1.54719042 L4.05,0.647190415 C4.12,0.417190415 4.26,0.237190415 4.46,0.117190415 C4.67,-0.00280958455 4.88,-0.0328095846 5.1,0.0371904154 C5.34,0.107190415 5.51,0.237190415 5.63,0.437190415 C5.75,0.637190415 5.77,0.837190415 5.7,1.05719042 L5.44,1.95719042 C5.36,2.22719042 5.22,2.41719042 5.03,2.52719042 C4.84,2.63719042 4.62,2.64719042 4.39,2.58719042 C4.19,2.54719042 4.04,2.44719042 3.94,2.28719042 C3.82,2.10719042 3.77,1.95719042 3.79,1.80719042 Z M6.55,3.94719042 C6.55,3.91719042 6.55,3.87719042 6.56,3.81719042 C6.57,3.75719042 6.57,3.72719042 6.57,3.70719042 L6.66,3.11719042 C6.73,2.87719042 6.86,2.70719042 7.07,2.58719042 C7.27,2.46719042 7.5,2.44719042 7.75,2.50719042 C7.98,2.57719042 8.15,2.71719042 8.26,2.91719042 C8.38,3.12719042 8.4,3.33719042 8.33,3.54719042 L8.19,4.14719042 C8.09,4.57719042 7.84,4.79719042 7.43,4.79719042 C7.4,4.79719042 7.35,4.79719042 7.28,4.78719042 C7.21,4.77719042 7.17,4.77719042 7.15,4.77719042 C6.95,4.71719042 6.8,4.60719042 6.7,4.44719042 C6.6,4.27719042 6.55,4.11719042 6.55,3.94719042 Z M7.29,1.00719042 C7.29,0.767190415 7.37,0.577190415 7.52,0.417190415 C7.68,0.257190415 7.87,0.187190415 8.11,0.187190415 C8.35,0.187190415 8.54,0.267190415 8.7,0.417190415 C8.86,0.577190415 8.93,0.767190415 8.93,1.00719042 C8.93,1.23719042 8.85,1.43719042 8.7,1.58719042 C8.54,1.74719042 8.35,1.81719042 8.11,1.81719042 C7.88,1.81719042 7.68,1.73719042 7.53,1.56719042 C7.37,1.41719042 7.29,1.22719042 7.29,1.00719042 Z"
                  id="Shape"></path>
        </g>
    </g>
</svg>
