<?xml version="1.0" encoding="UTF-8"?>
<svg width="32px" height="32px" viewBox="0 0 32 32" version="1.1" xmlns="http://www.w3.org/2000/svg"
>
    <!-- Generator: Sketch 57.1 (83088) - https://sketch.com -->
    <title>368_night</title>
    <desc>Created with Sketch.</desc>
    <g id="368_night" stroke="none" stroke-width="1" fill="none" fill-rule="evenodd">
        <g id="wi-night-clear"
           transform="translate(23.500000, 11.500000) rotate(-3.000000) translate(-23.500000, -11.500000) translate(16.000000, 4.000000)"
           fill="#888888" fill-rule="nonzero">
            <path d="M8.14,0.38 C8.3,0.42 8.37,0.52 8.37,0.66 L8.42,1.54 C8.46,2.81 8.91,3.89 9.79,4.78 C10.67,5.67 11.73,6.15 12.98,6.2 L13.8,6.27 C13.96,6.27 14.04,6.35 14.04,6.5 L14.04,7.48 C14.05,8.76 13.74,9.95 13.11,11.04 C12.48,12.13 11.63,12.99 10.54,13.63 C10.0549153,13.9129661 9.54763933,14.1333934 9.01998444,14.2903758 L7.61029494,12.7807266 C7.99497439,12.7303621 8.38248719,12.6310643 8.77,12.48 C9.36,12.25 9.91,11.93 10.42,11.52 C10.93,11.11 11.36,10.59 11.73,9.95 C12.1,9.31 12.33,8.62 12.44,7.86 C10.81,7.52 9.5,6.82 8.52,5.76 C7.54,4.7 6.97,3.46 6.82,2.02 C5.86,2.08 5,2.37 4.21,2.9 C3.43,3.43 2.82,4.1 2.39,4.92 C2.10934732,5.45519814 1.91815297,6.00317603 1.81919731,6.56671406 L0.366067624,5.00725606 C0.39943968,4.90784099 0.434083805,4.8154223 0.47,4.73 C0.84,3.85 1.35,3.1 1.98,2.47 C2.61,1.84 3.37,1.33 4.25,0.95 C5.13,0.57 6.05,0.38 7,0.38 L8.14,0.38 Z"
                  id="Shape"></path>
        </g>
        <g id="wi-cloud-down" transform="translate(2.000000, 8.163201)" fill="#194D9B" fill-rule="nonzero">
            <path d="M0.68442,11.08536 C0.68442,12.58884 1.21176,13.86792 2.25522,14.94504 C3.29868,16.02216 4.57776,16.59438 6.07002,16.6617 C6.19344,16.6617 6.26076,16.59438 6.26076,16.47096 L6.26076,14.96748 C6.26076,14.83284 6.19344,14.76552 6.07002,14.76552 C5.1051,14.72064 4.28604,14.33916 3.61284,13.62108 C2.93964,12.903 2.60304,12.0615 2.60304,11.08536 C2.60304,10.1541 2.9172,9.34626 3.55674,8.65062 C4.19628,7.95498 4.98168,7.56228 5.91294,7.45008 L6.5076,7.4052 C6.65346,7.4052 6.732,7.33788 6.732,7.21446 L6.82176,6.59736 C6.93396,5.3856 7.43886,4.36458 8.34768,3.55674 C9.2565,2.73768 10.3224,2.33376 11.5566,2.33376 C12.77958,2.33376 13.84548,2.73768 14.76552,3.55674 C15.68556,4.3758 16.20168,5.3856 16.33632,6.59736 L16.41486,7.24812 C16.41486,7.37154 16.48218,7.43886 16.6056,7.43886 L18.42324,7.43886 C19.42182,7.43886 20.28576,7.7979 21.01506,8.5272 C21.74436,9.24528 22.11462,10.098 22.11462,11.08536 C22.11462,12.0615 21.77802,12.903 21.0936,13.62108 C20.40918,14.33916 19.59012,14.72064 18.63642,14.76552 C18.49056,14.76552 18.42324,14.83284 18.42324,14.96748 L18.42324,16.47096 C18.42324,16.59438 18.49056,16.6617 18.63642,16.6617 C19.62378,16.63926 20.52138,16.36998 21.34044,15.85386 C22.1595,15.34896 22.81026,14.67576 23.2815,13.83426 C23.75274,12.99276 23.98836,12.07272 23.98836,11.08536 C23.98836,10.07556 23.74152,9.1443 23.23662,8.3028 C22.74294,7.45008 22.05852,6.7881 21.2058,6.29442 C20.35308,5.80074 19.42182,5.56512 18.41202,5.56512 L18.04176,5.56512 C17.6715,4.06164 16.8861,2.83866 15.68556,1.87374 C14.48502,0.90882 13.09374,0.43758 11.54538,0.43758 C9.96336,0.43758 8.54964,0.93126 7.32666,1.9074 C6.10368,2.88354 5.30706,4.1514 4.95924,5.68854 C3.72504,5.98026 2.70402,6.63102 1.89618,7.64082 C1.08834,8.65062 0.68442,9.79506 0.68442,11.08536 Z"
                  id="Shape"></path>
        </g>
        <g id="wi-snowflake-cold" transform="translate(9.000000, 19.000000)" fill="#888888" fill-rule="nonzero">
            <path d="M2.30926389e-14,5.30145 C2.30926389e-14,5.1682125 0.0490875,5.049 0.14025,4.950825 C0.2314125,4.85265 0.3436125,4.8035625 0.47685,4.8035625 C0.6100875,4.8035625 0.7293,4.85265 0.8204625,4.950825 C0.911625,5.049 0.9607125,5.1612 0.9607125,5.30145 C0.9607125,5.4346875 0.911625,5.5468875 0.8204625,5.63805 C0.7293,5.7292125 0.6100875,5.7783 0.4838625,5.7783 C0.3576375,5.7783 0.238425,5.7292125 0.1472625,5.63805 C0.042075,5.539875 2.30926389e-14,5.427675 2.30926389e-14,5.30145 Z M1.388475,5.30145 C1.388475,5.1682125 1.4375625,5.049 1.528725,4.950825 C1.6198875,4.85265 1.7320875,4.8035625 1.865325,4.8035625 L4.1303625,4.8035625 L2.5315125,3.2047125 C2.4333375,3.1205625 2.38425,3.0083625 2.38425,2.875125 C2.38425,2.7418875 2.4333375,2.6296875 2.5315125,2.5315125 C2.6296875,2.4333375 2.7418875,2.38425 2.875125,2.38425 C3.0083625,2.38425 3.1205625,2.4333375 3.2187375,2.5315125 L4.810575,4.12335 L4.810575,1.8723375 C4.810575,1.7391 4.8596625,1.6198875 4.9578375,1.5217125 C5.0560125,1.4235375 5.1682125,1.37445 5.3084625,1.37445 C5.4417,1.37445 5.5539,1.4235375 5.6450625,1.5217125 C5.736225,1.6198875 5.7853125,1.7320875 5.7853125,1.8723375 L5.7853125,4.137375 L7.391175,2.5245 C7.48935,2.426325 7.60155,2.3772375 7.727775,2.3772375 C7.854,2.3772375 7.9732125,2.426325 8.0713875,2.5245 C8.1555375,2.622675 8.1976125,2.734875 8.1976125,2.8681125 C8.1976125,3.00135 8.1555375,3.11355 8.0713875,3.1977 L6.4725375,4.79655 L8.737575,4.79655 C8.8638,4.79655 8.976,4.8456375 9.0671625,4.9438125 C9.158325,5.0419875 9.2074125,5.1541875 9.2074125,5.2944375 C9.2074125,5.4206625 9.158325,5.5328625 9.0671625,5.624025 C8.976,5.7151875 8.8638,5.764275 8.737575,5.764275 L6.4725375,5.764275 L8.0784,7.3701375 C8.16255,7.4542875 8.204625,7.5664875 8.204625,7.699725 C8.204625,7.8329625 8.16255,7.9451625 8.0784,8.0433375 C7.980225,8.1415125 7.8610125,8.1906 7.7347875,8.1906 C7.6085625,8.1906 7.48935,8.1415125 7.3981875,8.0433375 L5.792325,6.4304625 L5.792325,8.7025125 C5.792325,8.83575 5.7432375,8.9549625 5.652075,9.046125 C5.5609125,9.1372875 5.4487125,9.186375 5.315475,9.186375 C5.1822375,9.186375 5.063025,9.1372875 4.96485,9.046125 C4.866675,8.9549625 4.8175875,8.83575 4.8175875,8.7025125 L4.8175875,6.4444875 L3.22575,8.036325 C3.127575,8.1345 3.015375,8.1835875 2.8821375,8.1835875 C2.7489,8.1835875 2.6367,8.1345 2.538525,8.036325 C2.44035,7.93815 2.3912625,7.82595 2.3912625,7.6927125 C2.3912625,7.559475 2.44035,7.4542875 2.538525,7.363125 L4.1514,5.7572625 L1.87935,5.7572625 C1.7461125,5.7572625 1.6339125,5.708175 1.54275,5.6170125 C1.43055,5.539875 1.388475,5.427675 1.388475,5.30145 Z M1.3954875,8.6955 C1.3954875,8.569275 1.444575,8.4500625 1.54275,8.3589 C1.6269,8.260725 1.7391,8.2116375 1.8723375,8.2116375 C2.005575,8.2116375 2.117775,8.260725 2.21595,8.3589 C2.314125,8.457075 2.3632125,8.569275 2.3632125,8.6955 C2.3632125,8.821725 2.314125,8.9409375 2.21595,9.0321 C2.117775,9.130275 2.005575,9.1793625 1.8723375,9.1793625 C1.7391,9.1793625 1.6269,9.130275 1.54275,9.0321 C1.444575,8.9409375 1.3954875,8.8287375 1.3954875,8.6955 Z M1.3954875,1.8863625 C1.3954875,1.7601375 1.444575,1.640925 1.54275,1.5497625 C1.6269,1.4515875 1.7391,1.4025 1.8723375,1.4025 C2.005575,1.4025 2.117775,1.4515875 2.21595,1.5497625 C2.314125,1.6479375 2.3632125,1.7601375 2.3632125,1.8863625 C2.3632125,2.0125875 2.314125,2.1318 2.21595,2.229975 C2.117775,2.32815 2.005575,2.3772375 1.8723375,2.3772375 C1.7391,2.3772375 1.6269,2.32815 1.54275,2.229975 C1.444575,2.1318 1.3954875,2.0125875 1.3954875,1.8863625 Z M4.79655,10.098 C4.79655,9.971775 4.8456375,9.859575 4.9438125,9.7684125 C5.0419875,9.67725 5.1541875,9.6281625 5.2944375,9.6281625 C5.427675,9.6281625 5.539875,9.67725 5.6310375,9.7684125 C5.7222,9.859575 5.7712875,9.971775 5.7712875,10.098 C5.7712875,10.2312375 5.7222,10.35045 5.6310375,10.4416125 C5.539875,10.532775 5.427675,10.5818625 5.2944375,10.5818625 C5.1612,10.5818625 5.0419875,10.532775 4.9438125,10.4416125 C4.8456375,10.35045 4.79655,10.23825 4.79655,10.098 Z M4.79655,0.4838625 C4.79655,0.350625 4.8456375,0.2314125 4.9438125,0.14025 C5.0419875,0.0490875 5.1541875,-1.0658141e-14 5.2944375,-1.0658141e-14 C5.427675,-1.0658141e-14 5.539875,0.0490875 5.6310375,0.14025 C5.7222,0.2314125 5.7712875,0.350625 5.7712875,0.4838625 C5.7712875,0.6100875 5.7222,0.7222875 5.6310375,0.81345 C5.539875,0.9046125 5.427675,0.9537 5.2944375,0.9537 C5.1612,0.9537 5.0419875,0.9046125 4.9438125,0.81345 C4.8456375,0.7222875 4.79655,0.6100875 4.79655,0.4838625 Z M8.2116375,8.6955 C8.2116375,8.569275 8.260725,8.4500625 8.3589,8.3589 C8.44305,8.260725 8.55525,8.2116375 8.6884875,8.2116375 C8.821725,8.2116375 8.933925,8.260725 9.0321,8.3589 C9.130275,8.457075 9.1793625,8.569275 9.1793625,8.6955 C9.1793625,8.821725 9.130275,8.9409375 9.0321,9.0321 C8.933925,9.130275 8.821725,9.1793625 8.6884875,9.1793625 C8.55525,9.1793625 8.44305,9.130275 8.3589,9.0321 C8.260725,8.9409375 8.2116375,8.8287375 8.2116375,8.6955 Z M8.2116375,1.8863625 C8.2116375,1.7601375 8.260725,1.640925 8.3589,1.5497625 C8.44305,1.4515875 8.55525,1.4025 8.6884875,1.4025 C8.821725,1.4025 8.933925,1.4515875 9.0321,1.5497625 C9.130275,1.6479375 9.1793625,1.7601375 9.1793625,1.8863625 C9.1793625,2.0125875 9.130275,2.1318 9.0321,2.229975 C8.933925,2.32815 8.821725,2.3772375 8.6884875,2.3772375 C8.55525,2.3772375 8.44305,2.32815 8.3589,2.229975 C8.260725,2.1318 8.2116375,2.0125875 8.2116375,1.8863625 Z M9.6141375,5.30145 C9.6141375,5.1682125 9.663225,5.049 9.7543875,4.950825 C9.84555,4.85265 9.9647625,4.8035625 10.098,4.8035625 C10.224225,4.8035625 10.336425,4.85265 10.4275875,4.950825 C10.51875,5.049 10.5678375,5.1612 10.5678375,5.30145 C10.5678375,5.427675 10.51875,5.539875 10.4275875,5.6310375 C10.336425,5.7222 10.224225,5.7712875 10.098,5.7712875 C9.9647625,5.7712875 9.84555,5.7222 9.7543875,5.6310375 C9.663225,5.539875 9.6141375,5.427675 9.6141375,5.30145 Z"
                  id="Shape"></path>
        </g>
    </g>
</svg>
