<?xml version="1.0" encoding="UTF-8"?>
<svg width="32px" height="32px" viewBox="0 0 32 32" version="1.1" xmlns="http://www.w3.org/2000/svg"
>
    <!-- Generator: Sketch 57.1 (83088) - https://sketch.com -->
    <title>368_day</title>
    <desc>Created with Sketch.</desc>
    <g id="368_day" stroke="none" stroke-width="1" fill="none" fill-rule="evenodd">
        <g id="wi-horizon-alt"
           transform="translate(23.000000, 10.463617) rotate(40.000000) translate(-23.000000, -10.463617) translate(12.000000, 3.423617)"
           fill="#F7B500" fill-rule="nonzero">
            <path d="M0.1086096,10.762224 C0.1086096,10.5055104 0.197472,10.2981648 0.3751968,10.1500608 C0.5134272,10.0019568 0.7207728,9.922968 0.98736,9.922968 L3.0410688,9.922968 C3.2780352,9.922968 3.4853808,10.0019568 3.6334848,10.1599344 C3.7914624,10.317912 3.8704512,10.515384 3.8704512,10.7523504 C3.8704512,10.9893168 3.7914624,11.1867888 3.6334848,11.35464 C3.4755072,11.5224912 3.2780352,11.60148 3.0410688,11.60148 L0.98736,11.60148 C0.7503936,11.60148 0.543048,11.5224912 0.3653232,11.35464 C0.1875984,11.1966624 0.1086096,10.9991904 0.1086096,10.762224 Z M3.0410688,3.7618416 C3.0410688,3.505128 3.1200576,3.3175296 3.2681616,3.1792992 C3.4360128,3.0015744 3.6433584,2.912712 3.8803248,2.912712 C4.1172912,2.912712 4.3147632,3.0015744 4.4826144,3.1792992 L5.9044128,4.6208448 C6.0821376,4.7788224 6.1611264,4.9762944 6.1611264,5.2132608 C6.1611264,5.4601008 6.0821376,5.6575728 5.92416,5.8155504 C5.7661824,5.973528 5.5687104,6.0525168 5.331744,6.0525168 C5.1145248,6.0525168 4.9170528,5.973528 4.739328,5.8155504 L3.2681616,4.3641312 C3.1200576,4.2259008 3.0410688,4.0284288 3.0410688,3.7618416 Z M5.6082048,10.762224 C5.6082048,11.6212272 5.7859296,12.391368 6.1315056,13.0627728 C6.1611264,13.1516352 6.2401152,13.2010032 6.368472,13.2010032 L8.0173632,13.2010032 C8.0864784,13.2010032 8.1358464,13.181256 8.1555936,13.1417616 C8.1753408,13.1022672 8.14572,13.0430256 8.0864784,12.983784 C7.5631776,12.342 7.2965904,11.60148 7.2965904,10.762224 C7.2965904,9.7847376 7.65204,8.9454816 8.3530656,8.2543296 C9.0540912,7.5631776 9.8933472,7.2176016 10.8708336,7.2176016 C11.84832,7.2176016 12.687576,7.5631776 13.3886016,8.2543296 C14.0896272,8.9454816 14.4253296,9.7847376 14.4253296,10.762224 C14.4253296,11.6113536 14.1587424,12.3518736 13.6354416,12.983784 C13.5959472,13.0430256 13.5762,13.08252 13.5762,13.1022672 C13.5663264,13.131888 13.5762,13.1615088 13.6058208,13.1713824 C13.625568,13.1911296 13.6650624,13.2010032 13.7045568,13.2010032 L15.3830688,13.2010032 C15.4719312,13.2010032 15.5410464,13.1516352 15.5904144,13.0627728 C15.9656112,12.3617472 16.143336,11.60148 16.143336,10.762224 C16.143336,9.8143584 15.9063696,8.935608 15.4324368,8.1259728 C14.958504,7.3163376 14.31672,6.6745536 13.5070848,6.2006208 C12.6974496,5.726688 11.8186992,5.4897216 10.8708336,5.4897216 C9.922968,5.4897216 9.0442176,5.726688 8.2345824,6.2006208 C7.4249472,6.6745536 6.7831632,7.3163376 6.3092304,8.1259728 C5.8352976,8.935608 5.6082048,9.8143584 5.6082048,10.762224 Z M10.021704,2.9324592 L10.021704,0.8688768 C10.021704,0.6319104 10.1006928,0.4344384 10.268544,0.2567136 C10.4363952,0.0789888 10.6338672,0 10.8708336,0 C11.1078,0 11.305272,0.0888624 11.4829968,0.2567136 C11.650848,0.4245648 11.7397104,0.6319104 11.7397104,0.8688768 L11.7397104,2.9324592 C11.7397104,3.1694256 11.650848,3.3668976 11.4829968,3.5446224 C11.305272,3.7223472 11.1078,3.801336 10.8708336,3.801336 C10.6338672,3.801336 10.4363952,3.7124736 10.268544,3.5446224 C10.1006928,3.3668976 10.021704,3.1694256 10.021704,2.9324592 Z M15.5706672,5.2132608 C15.5706672,4.9762944 15.649656,4.7788224 15.8076336,4.6208448 L17.229432,3.1792992 C17.3972832,3.0015744 17.6046288,2.912712 17.8415952,2.912712 C18.0884352,2.912712 18.2957808,2.9917008 18.4537584,3.159552 C18.6216096,3.3274032 18.7005984,3.5248752 18.7005984,3.7618416 C18.7005984,4.0185552 18.6216096,4.2160272 18.4735056,4.3641312 L16.982592,5.8155504 C16.8246144,5.9636544 16.6271424,6.0327696 16.4000496,6.0327696 C16.1532096,6.0426432 15.9557376,5.9636544 15.79776,5.8155504 C15.649656,5.6674464 15.5706672,5.4601008 15.5706672,5.2132608 Z M17.871216,10.762224 C17.871216,10.4956368 17.9502048,10.2981648 18.1081824,10.1500608 C18.2464128,10.0019568 18.4438848,9.922968 18.6907248,9.922968 L20.7543072,9.922968 C20.9912736,9.922968 21.1986192,10.0019568 21.3664704,10.1599344 C21.5343216,10.317912 21.623184,10.515384 21.623184,10.7523504 C21.623184,10.9893168 21.5343216,11.1867888 21.3664704,11.35464 C21.1887456,11.5224912 20.9912736,11.60148 20.7543072,11.60148 L18.6907248,11.60148 C18.463632,11.60148 18.26616,11.5224912 18.1081824,11.35464 C17.9502048,11.1966624 17.871216,10.9991904 17.871216,10.762224 Z"
                  id="Shape"></path>
        </g>
        <g id="wi-cloud-down" transform="translate(1.000000, 9.423617)" fill="#57A0EE" fill-rule="nonzero">
            <path d="M0.68442,11.08536 C0.68442,12.58884 1.21176,13.86792 2.25522,14.94504 C3.29868,16.02216 4.57776,16.59438 6.07002,16.6617 C6.19344,16.6617 6.26076,16.59438 6.26076,16.47096 L6.26076,14.96748 C6.26076,14.83284 6.19344,14.76552 6.07002,14.76552 C5.1051,14.72064 4.28604,14.33916 3.61284,13.62108 C2.93964,12.903 2.60304,12.0615 2.60304,11.08536 C2.60304,10.1541 2.9172,9.34626 3.55674,8.65062 C4.19628,7.95498 4.98168,7.56228 5.91294,7.45008 L6.5076,7.4052 C6.65346,7.4052 6.732,7.33788 6.732,7.21446 L6.82176,6.59736 C6.93396,5.3856 7.43886,4.36458 8.34768,3.55674 C9.2565,2.73768 10.3224,2.33376 11.5566,2.33376 C12.77958,2.33376 13.84548,2.73768 14.76552,3.55674 C15.68556,4.3758 16.20168,5.3856 16.33632,6.59736 L16.41486,7.24812 C16.41486,7.37154 16.48218,7.43886 16.6056,7.43886 L18.42324,7.43886 C19.42182,7.43886 20.28576,7.7979 21.01506,8.5272 C21.74436,9.24528 22.11462,10.098 22.11462,11.08536 C22.11462,12.0615 21.77802,12.903 21.0936,13.62108 C20.40918,14.33916 19.59012,14.72064 18.63642,14.76552 C18.49056,14.76552 18.42324,14.83284 18.42324,14.96748 L18.42324,16.47096 C18.42324,16.59438 18.49056,16.6617 18.63642,16.6617 C19.62378,16.63926 20.52138,16.36998 21.34044,15.85386 C22.1595,15.34896 22.81026,14.67576 23.2815,13.83426 C23.75274,12.99276 23.98836,12.07272 23.98836,11.08536 C23.98836,10.07556 23.74152,9.1443 23.23662,8.3028 C22.74294,7.45008 22.05852,6.7881 21.2058,6.29442 C20.35308,5.80074 19.42182,5.56512 18.41202,5.56512 L18.04176,5.56512 C17.6715,4.06164 16.8861,2.83866 15.68556,1.87374 C14.48502,0.90882 13.09374,0.43758 11.54538,0.43758 C9.96336,0.43758 8.54964,0.93126 7.32666,1.9074 C6.10368,2.88354 5.30706,4.1514 4.95924,5.68854 C3.72504,5.98026 2.70402,6.63102 1.89618,7.64082 C1.08834,8.65062 0.68442,9.79506 0.68442,11.08536 Z"
                  id="Shape"></path>
        </g>
        <g id="wi-snowflake-cold" transform="translate(8.000000, 20.423617)" fill="#F7B500" fill-rule="nonzero">
            <path d="M2.30926389e-14,5.30145 C2.30926389e-14,5.1682125 0.0490875,5.049 0.14025,4.950825 C0.2314125,4.85265 0.3436125,4.8035625 0.47685,4.8035625 C0.6100875,4.8035625 0.7293,4.85265 0.8204625,4.950825 C0.911625,5.049 0.9607125,5.1612 0.9607125,5.30145 C0.9607125,5.4346875 0.911625,5.5468875 0.8204625,5.63805 C0.7293,5.7292125 0.6100875,5.7783 0.4838625,5.7783 C0.3576375,5.7783 0.238425,5.7292125 0.1472625,5.63805 C0.042075,5.539875 2.30926389e-14,5.427675 2.30926389e-14,5.30145 Z M1.388475,5.30145 C1.388475,5.1682125 1.4375625,5.049 1.528725,4.950825 C1.6198875,4.85265 1.7320875,4.8035625 1.865325,4.8035625 L4.1303625,4.8035625 L2.5315125,3.2047125 C2.4333375,3.1205625 2.38425,3.0083625 2.38425,2.875125 C2.38425,2.7418875 2.4333375,2.6296875 2.5315125,2.5315125 C2.6296875,2.4333375 2.7418875,2.38425 2.875125,2.38425 C3.0083625,2.38425 3.1205625,2.4333375 3.2187375,2.5315125 L4.810575,4.12335 L4.810575,1.8723375 C4.810575,1.7391 4.8596625,1.6198875 4.9578375,1.5217125 C5.0560125,1.4235375 5.1682125,1.37445 5.3084625,1.37445 C5.4417,1.37445 5.5539,1.4235375 5.6450625,1.5217125 C5.736225,1.6198875 5.7853125,1.7320875 5.7853125,1.8723375 L5.7853125,4.137375 L7.391175,2.5245 C7.48935,2.426325 7.60155,2.3772375 7.727775,2.3772375 C7.854,2.3772375 7.9732125,2.426325 8.0713875,2.5245 C8.1555375,2.622675 8.1976125,2.734875 8.1976125,2.8681125 C8.1976125,3.00135 8.1555375,3.11355 8.0713875,3.1977 L6.4725375,4.79655 L8.737575,4.79655 C8.8638,4.79655 8.976,4.8456375 9.0671625,4.9438125 C9.158325,5.0419875 9.2074125,5.1541875 9.2074125,5.2944375 C9.2074125,5.4206625 9.158325,5.5328625 9.0671625,5.624025 C8.976,5.7151875 8.8638,5.764275 8.737575,5.764275 L6.4725375,5.764275 L8.0784,7.3701375 C8.16255,7.4542875 8.204625,7.5664875 8.204625,7.699725 C8.204625,7.8329625 8.16255,7.9451625 8.0784,8.0433375 C7.980225,8.1415125 7.8610125,8.1906 7.7347875,8.1906 C7.6085625,8.1906 7.48935,8.1415125 7.3981875,8.0433375 L5.792325,6.4304625 L5.792325,8.7025125 C5.792325,8.83575 5.7432375,8.9549625 5.652075,9.046125 C5.5609125,9.1372875 5.4487125,9.186375 5.315475,9.186375 C5.1822375,9.186375 5.063025,9.1372875 4.96485,9.046125 C4.866675,8.9549625 4.8175875,8.83575 4.8175875,8.7025125 L4.8175875,6.4444875 L3.22575,8.036325 C3.127575,8.1345 3.015375,8.1835875 2.8821375,8.1835875 C2.7489,8.1835875 2.6367,8.1345 2.538525,8.036325 C2.44035,7.93815 2.3912625,7.82595 2.3912625,7.6927125 C2.3912625,7.559475 2.44035,7.4542875 2.538525,7.363125 L4.1514,5.7572625 L1.87935,5.7572625 C1.7461125,5.7572625 1.6339125,5.708175 1.54275,5.6170125 C1.43055,5.539875 1.388475,5.427675 1.388475,5.30145 Z M1.3954875,8.6955 C1.3954875,8.569275 1.444575,8.4500625 1.54275,8.3589 C1.6269,8.260725 1.7391,8.2116375 1.8723375,8.2116375 C2.005575,8.2116375 2.117775,8.260725 2.21595,8.3589 C2.314125,8.457075 2.3632125,8.569275 2.3632125,8.6955 C2.3632125,8.821725 2.314125,8.9409375 2.21595,9.0321 C2.117775,9.130275 2.005575,9.1793625 1.8723375,9.1793625 C1.7391,9.1793625 1.6269,9.130275 1.54275,9.0321 C1.444575,8.9409375 1.3954875,8.8287375 1.3954875,8.6955 Z M1.3954875,1.8863625 C1.3954875,1.7601375 1.444575,1.640925 1.54275,1.5497625 C1.6269,1.4515875 1.7391,1.4025 1.8723375,1.4025 C2.005575,1.4025 2.117775,1.4515875 2.21595,1.5497625 C2.314125,1.6479375 2.3632125,1.7601375 2.3632125,1.8863625 C2.3632125,2.0125875 2.314125,2.1318 2.21595,2.229975 C2.117775,2.32815 2.005575,2.3772375 1.8723375,2.3772375 C1.7391,2.3772375 1.6269,2.32815 1.54275,2.229975 C1.444575,2.1318 1.3954875,2.0125875 1.3954875,1.8863625 Z M4.79655,10.098 C4.79655,9.971775 4.8456375,9.859575 4.9438125,9.7684125 C5.0419875,9.67725 5.1541875,9.6281625 5.2944375,9.6281625 C5.427675,9.6281625 5.539875,9.67725 5.6310375,9.7684125 C5.7222,9.859575 5.7712875,9.971775 5.7712875,10.098 C5.7712875,10.2312375 5.7222,10.35045 5.6310375,10.4416125 C5.539875,10.532775 5.427675,10.5818625 5.2944375,10.5818625 C5.1612,10.5818625 5.0419875,10.532775 4.9438125,10.4416125 C4.8456375,10.35045 4.79655,10.23825 4.79655,10.098 Z M4.79655,0.4838625 C4.79655,0.350625 4.8456375,0.2314125 4.9438125,0.14025 C5.0419875,0.0490875 5.1541875,-1.0658141e-14 5.2944375,-1.0658141e-14 C5.427675,-1.0658141e-14 5.539875,0.0490875 5.6310375,0.14025 C5.7222,0.2314125 5.7712875,0.350625 5.7712875,0.4838625 C5.7712875,0.6100875 5.7222,0.7222875 5.6310375,0.81345 C5.539875,0.9046125 5.427675,0.9537 5.2944375,0.9537 C5.1612,0.9537 5.0419875,0.9046125 4.9438125,0.81345 C4.8456375,0.7222875 4.79655,0.6100875 4.79655,0.4838625 Z M8.2116375,8.6955 C8.2116375,8.569275 8.260725,8.4500625 8.3589,8.3589 C8.44305,8.260725 8.55525,8.2116375 8.6884875,8.2116375 C8.821725,8.2116375 8.933925,8.260725 9.0321,8.3589 C9.130275,8.457075 9.1793625,8.569275 9.1793625,8.6955 C9.1793625,8.821725 9.130275,8.9409375 9.0321,9.0321 C8.933925,9.130275 8.821725,9.1793625 8.6884875,9.1793625 C8.55525,9.1793625 8.44305,9.130275 8.3589,9.0321 C8.260725,8.9409375 8.2116375,8.8287375 8.2116375,8.6955 Z M8.2116375,1.8863625 C8.2116375,1.7601375 8.260725,1.640925 8.3589,1.5497625 C8.44305,1.4515875 8.55525,1.4025 8.6884875,1.4025 C8.821725,1.4025 8.933925,1.4515875 9.0321,1.5497625 C9.130275,1.6479375 9.1793625,1.7601375 9.1793625,1.8863625 C9.1793625,2.0125875 9.130275,2.1318 9.0321,2.229975 C8.933925,2.32815 8.821725,2.3772375 8.6884875,2.3772375 C8.55525,2.3772375 8.44305,2.32815 8.3589,2.229975 C8.260725,2.1318 8.2116375,2.0125875 8.2116375,1.8863625 Z M9.6141375,5.30145 C9.6141375,5.1682125 9.663225,5.049 9.7543875,4.950825 C9.84555,4.85265 9.9647625,4.8035625 10.098,4.8035625 C10.224225,4.8035625 10.336425,4.85265 10.4275875,4.950825 C10.51875,5.049 10.5678375,5.1612 10.5678375,5.30145 C10.5678375,5.427675 10.51875,5.539875 10.4275875,5.6310375 C10.336425,5.7222 10.224225,5.7712875 10.098,5.7712875 C9.9647625,5.7712875 9.84555,5.7222 9.7543875,5.6310375 C9.663225,5.539875 9.6141375,5.427675 9.6141375,5.30145 Z"
                  id="Shape"></path>
        </g>
    </g>
</svg>
