<?xml version="1.0" encoding="UTF-8"?>
<svg width="32px" height="32px" viewBox="0 0 32 32" version="1.1" xmlns="http://www.w3.org/2000/svg"
>
    <!-- Generator: Sketch 57.1 (83088) - https://sketch.com -->
    <title>386_night</title>
    <desc>Created with Sketch.</desc>
    <g id="386_night" stroke="none" stroke-width="1" fill="none" fill-rule="evenodd">
        <g id="wi-night-clear"
           transform="translate(23.500000, 11.500000) rotate(-3.000000) translate(-23.500000, -11.500000) translate(16.000000, 4.000000)"
           fill="#888888" fill-rule="nonzero">
            <path d="M8.14,0.38 C8.3,0.42 8.37,0.52 8.37,0.66 L8.42,1.54 C8.46,2.81 8.91,3.89 9.79,4.78 C10.67,5.67 11.73,6.15 12.98,6.2 L13.8,6.27 C13.96,6.27 14.04,6.35 14.04,6.5 L14.04,7.48 C14.05,8.76 13.74,9.95 13.11,11.04 C12.48,12.13 11.63,12.99 10.54,13.63 C10.0549153,13.9129661 9.54763933,14.1333934 9.01998444,14.2903758 L7.61029494,12.7807266 C7.99497439,12.7303621 8.38248719,12.6310643 8.77,12.48 C9.36,12.25 9.91,11.93 10.42,11.52 C10.93,11.11 11.36,10.59 11.73,9.95 C12.1,9.31 12.33,8.62 12.44,7.86 C10.81,7.52 9.5,6.82 8.52,5.76 C7.54,4.7 6.97,3.46 6.82,2.02 C5.86,2.08 5,2.37 4.21,2.9 C3.43,3.43 2.82,4.1 2.39,4.92 C2.10934732,5.45519814 1.91815297,6.00317603 1.81919731,6.56671406 L0.366067624,5.00725606 C0.39943968,4.90784099 0.434083805,4.8154223 0.47,4.73 C0.84,3.85 1.35,3.1 1.98,2.47 C2.61,1.84 3.37,1.33 4.25,0.95 C5.13,0.57 6.05,0.38 7,0.38 L8.14,0.38 Z"
                  id="Shape"></path>
        </g>
        <g id="wi-cloud-down" transform="translate(2.000000, 8.163201)" fill="#194D9B" fill-rule="nonzero">
            <path d="M0.68442,11.08536 C0.68442,12.58884 1.21176,13.86792 2.25522,14.94504 C3.29868,16.02216 4.57776,16.59438 6.07002,16.6617 C6.19344,16.6617 6.26076,16.59438 6.26076,16.47096 L6.26076,14.96748 C6.26076,14.83284 6.19344,14.76552 6.07002,14.76552 C5.1051,14.72064 4.28604,14.33916 3.61284,13.62108 C2.93964,12.903 2.60304,12.0615 2.60304,11.08536 C2.60304,10.1541 2.9172,9.34626 3.55674,8.65062 C4.19628,7.95498 4.98168,7.56228 5.91294,7.45008 L6.5076,7.4052 C6.65346,7.4052 6.732,7.33788 6.732,7.21446 L6.82176,6.59736 C6.93396,5.3856 7.43886,4.36458 8.34768,3.55674 C9.2565,2.73768 10.3224,2.33376 11.5566,2.33376 C12.77958,2.33376 13.84548,2.73768 14.76552,3.55674 C15.68556,4.3758 16.20168,5.3856 16.33632,6.59736 L16.41486,7.24812 C16.41486,7.37154 16.48218,7.43886 16.6056,7.43886 L18.42324,7.43886 C19.42182,7.43886 20.28576,7.7979 21.01506,8.5272 C21.74436,9.24528 22.11462,10.098 22.11462,11.08536 C22.11462,12.0615 21.77802,12.903 21.0936,13.62108 C20.40918,14.33916 19.59012,14.72064 18.63642,14.76552 C18.49056,14.76552 18.42324,14.83284 18.42324,14.96748 L18.42324,16.47096 C18.42324,16.59438 18.49056,16.6617 18.63642,16.6617 C19.62378,16.63926 20.52138,16.36998 21.34044,15.85386 C22.1595,15.34896 22.81026,14.67576 23.2815,13.83426 C23.75274,12.99276 23.98836,12.07272 23.98836,11.08536 C23.98836,10.07556 23.74152,9.1443 23.23662,8.3028 C22.74294,7.45008 22.05852,6.7881 21.2058,6.29442 C20.35308,5.80074 19.42182,5.56512 18.41202,5.56512 L18.04176,5.56512 C17.6715,4.06164 16.8861,2.83866 15.68556,1.87374 C14.48502,0.90882 13.09374,0.43758 11.54538,0.43758 C9.96336,0.43758 8.54964,0.93126 7.32666,1.9074 C6.10368,2.88354 5.30706,4.1514 4.95924,5.68854 C3.72504,5.98026 2.70402,6.63102 1.89618,7.64082 C1.08834,8.65062 0.68442,9.79506 0.68442,11.08536 Z"
                  id="Shape"></path>
        </g>
        <g id="wi-day-sleet-storm" transform="translate(13.000000, 20.000000)" fill="#194D9B" fill-rule="nonzero">
            <path d="M0.37,7.1 C0.37,7.27 0.42,7.43 0.53,7.59 C0.64,7.75 0.8,7.86 1.02,7.92 C1.11,7.94 1.19,7.95 1.26,7.95 C1.69,7.95 1.96,7.75 2.06,7.34 L2.19,6.75 C2.25,6.49 2.22,6.27 2.11,6.07 C1.99,5.87 1.82,5.75 1.58,5.7 C1.37,5.63 1.16,5.65 0.95,5.77 C0.74,5.89 0.61,6.06 0.54,6.28 L0.41,6.87 C0.38,6.99 0.37,7.07 0.37,7.1 Z M1.16,4.2 C1.16,4.43 1.24,4.62 1.4,4.78 C1.56,4.94 1.76,5.02 1.98,5.02 C2.22,5.02 2.41,4.94 2.57,4.79 C2.73,4.63 2.8,4.44 2.8,4.2 C2.8,3.97 2.72,3.78 2.57,3.62 C2.41,3.46 2.22,3.39 1.98,3.39 C1.74,3.39 1.55,3.47 1.39,3.62 C1.24,3.77 1.16,3.97 1.16,4.2 Z M1.78,1.93 C1.77,2.08 1.81,2.24 1.92,2.4 C2.02,2.56 2.17,2.66 2.37,2.7 C2.6,2.76 2.81,2.74 3.01,2.64 C3.21,2.54 3.34,2.35 3.42,2.08 L3.68,1.18 C3.75,0.96 3.73,0.75 3.61,0.55 C3.49,0.35 3.32,0.22 3.08,0.15 C2.86,0.08 2.65,0.11 2.44,0.23 C2.23,0.35 2.1,0.53 2.03,0.76 L1.8,1.66 C1.79,1.74 1.78,1.83 1.78,1.93 Z M4.54,4.08 C4.54,4.25 4.59,4.41 4.69,4.56 C4.79,4.71 4.94,4.82 5.15,4.88 C5.18,4.88 5.23,4.89 5.29,4.9 C5.35,4.91 5.4,4.92 5.43,4.92 C5.84,4.92 6.09,4.7 6.19,4.26 L6.33,3.66 C6.4,3.45 6.38,3.24 6.26,3.03 C6.14,2.82 5.97,2.69 5.75,2.62 C5.5,2.56 5.27,2.58 5.07,2.7 C4.87,2.82 4.73,2.99 4.66,3.23 L4.57,3.82 C4.57,3.83 4.57,3.87 4.56,3.93 C4.55,4 4.54,4.04 4.54,4.08 Z M5.28,1.12 C5.28,1.35 5.36,1.54 5.52,1.69 C5.67,1.85 5.86,1.93 6.1,1.93 C6.34,1.93 6.53,1.85 6.69,1.7 C6.85,1.54 6.92,1.35 6.92,1.12 C6.92,0.88 6.84,0.69 6.69,0.53 C6.53,0.37 6.34,0.3 6.1,0.3 C5.86,0.3 5.67,0.38 5.51,0.53 C5.36,0.69 5.28,0.88 5.28,1.12 Z"
                  id="Shape"></path>
        </g>
        <g id="wi-day-lightning" transform="translate(8.000000, 16.000000)" fill="#888888" fill-rule="nonzero">
            <path d="M0,12.49 L0.3,12.49 L5.62,4.64 C5.66,4.6 5.67,4.55 5.64,4.5 C5.61,4.45 5.57,4.43 5.5,4.43 L3.32,4.43 L5.62,0.22 C5.69,0.08 5.65,0 5.48,0 L2.54,0 C2.46,0 2.39,0.05 2.32,0.14 L0.16,5.86 C0.14,6 0.18,6.07 0.3,6.07 L2.47,6.07 L0,12.49 Z"
                  id="Shape"></path>
        </g>
    </g>
</svg>
